<svg xmlns="http://www.w3.org/2000/svg" xmlns:xlink="http://www.w3.org/1999/xlink" width="3840" height="1160" viewBox="0 0 3840 1160">
  <defs>
    <linearGradient id="linear-gradient" x1="0.36" y1="0.101" x2="0.631" y2="0.881" gradientUnits="objectBoundingBox">
      <stop offset="0" stop-color="#283146"/>
      <stop offset="0.502" stop-color="#232b3f"/>
      <stop offset="1" stop-color="#1e2638"/>
    </linearGradient>
    <linearGradient id="linear-gradient-2" x1="0.221" y1="0.5" x2="0.019" y2="0.87" gradientUnits="objectBoundingBox">
      <stop offset="0" stop-color="#485064"/>
      <stop offset="1" stop-color="#293145"/>
    </linearGradient>
  </defs>
  <g id="BG_details_3840px" transform="translate(959 47)">
    <rect id="BG" width="3840" height="1160" transform="translate(-959 -47)" fill="url(#linear-gradient)"/>
    <g id="Details">
      <g id="Ellipse_1983" data-name="Ellipse 1983" transform="translate(1173 117)" fill="none" stroke="#485064" strokeWidth="2">
        <ellipse cx="374" cy="390" rx="374" ry="390" stroke="none"/>
        <ellipse cx="374" cy="390" rx="373" ry="389" fill="none"/>
      </g>
      <circle id="Ellipse_1984" data-name="Ellipse 1984" cx="8.5" cy="8.5" r="8.5" transform="translate(666 760)" fill="#485064"/>
      <circle id="Ellipse_1985" data-name="Ellipse 1985" cx="11.5" cy="11.5" r="11.5" transform="translate(778 716)" fill="#485064"/>
      <circle id="Ellipse_1986" data-name="Ellipse 1986" cx="11.5" cy="11.5" r="11.5" transform="translate(1597 970)" fill="#485064"/>
      <circle id="Ellipse_1989" data-name="Ellipse 1989" cx="11.5" cy="11.5" r="11.5" transform="translate(1173 225)" fill="#485064"/>
      <circle id="Ellipse_1987" data-name="Ellipse 1987" cx="7.5" cy="7.5" r="7.5" transform="translate(1748 862)" fill="#485064"/>
      <circle id="Ellipse_1988" data-name="Ellipse 1988" cx="7.5" cy="7.5" r="7.5" transform="translate(1324 117)" fill="#485064"/>
      <path id="Pfad_7237" data-name="Pfad 7237" d="M8088.093,879.941c-.777-.067-79.1-6.794-201.536-14.927-71.909-4.776-144.739-9.1-216.465-12.837-89.658-4.677-177.835-8.461-262.082-11.245-32.054-1.059-64.005-1.989-94.967-2.764-55.325-1.384-109.382-2.077-161.631-2.077q-53.922,0-105.111.985c-66.887,1.289-130.017,3.84-187.638,7.583-51.266,3.33-88.588,7.005-110.87,9.5-24.142,2.706-36.317,4.649-36.437,4.669l-.317-1.975c.12-.019,12.323-1.967,36.5-4.677,22.3-2.5,59.649-6.179,110.95-9.512,57.654-3.745,120.819-6.3,187.741-7.589,34.094-.657,69.222-.986,105.188-.986,52.273,0,106.331.693,161.681,2.078,30.967.775,62.924,1.7,94.983,2.764,84.262,2.785,172.453,6.569,262.124,11.247,71.737,3.742,144.577,8.062,216.5,12.839,122.454,8.133,200.792,14.862,201.568,14.929Z" transform="translate(-6730 -71)" fill="url(#linear-gradient-2)"/>
    </g>
  </g>
</svg>
