<svg width="1920" height="1080" viewBox="0 0 1920 1080" fill="none" xmlns="http://www.w3.org/2000/svg">
<path d="M2995 0H-845V1080H2995V0Z" fill="white"/>
<path d="M2995 -80H-845V1080H2995V-80Z" fill="#F5F8FF"/>
<path opacity="0.2" d="M2995 -101H-845V1080H2995V-101Z" fill="url(#paint0_linear_5540_13801)"/>
<path opacity="0.03" d="M-845 -1H2995V1080H-845V-1Z" fill="url(#paint1_linear_5540_13801)"/>
<path d="M-690.831 -55.5009C-690.831 -55.5009 -653.549 -26.5506 -593.231 16.3864C-578.608 77.936 -609.792 143.445 -535.925 195.556C-338.557 334.807 40.5415 581.14 416.721 256.308C531.079 157.559 437.023 129.524 703.749 -27.2868C970.475 -184.098 1275.92 -342.607 1483.63 -370.936C1416.63 -566.216 398.034 -560.733 136.778 -556.21C-377.425 -547.308 -309.807 -198.313 -309.807 -198.313L-698.392 -319.665L-690.831 -55.5009Z" fill="url(#paint2_linear_5540_13801)"/>
<path d="M1485 167.999C1489.42 167.999 1493 164.417 1493 159.999C1493 155.581 1489.42 151.999 1485 151.999C1480.58 151.999 1477 155.581 1477 159.999C1477 164.417 1480.58 167.999 1485 167.999Z" fill="white"/>
<path d="M161 905.999C167.075 905.999 172 901.074 172 894.999C172 888.924 167.075 883.999 161 883.999C154.925 883.999 150 888.924 150 894.999C150 901.074 154.925 905.999 161 905.999Z" fill="white"/>
<path d="M223 212.999C227.418 212.999 231 209.417 231 204.999C231 200.581 227.418 196.999 223 196.999C218.582 196.999 215 200.581 215 204.999C215 209.417 218.582 212.999 223 212.999Z" fill="white"/>
<path d="M1744 932.999C1752.28 932.999 1759 926.283 1759 917.999C1759 909.715 1752.28 902.999 1744 902.999C1735.72 902.999 1729 909.715 1729 917.999C1729 926.283 1735.72 932.999 1744 932.999Z" fill="white"/>
<path d="M238 976.999C241.866 976.999 245 973.865 245 969.999C245 966.133 241.866 962.999 238 962.999C234.134 962.999 231 966.133 231 969.999C231 973.865 234.134 976.999 238 976.999Z" fill="white"/>
<path d="M1526.5 145C1533.4 145 1539 139.404 1539 132.5C1539 125.596 1533.4 120 1526.5 120C1519.6 120 1514 125.596 1514 132.5C1514 139.404 1519.6 145 1526.5 145Z" fill="white"/>
<defs>
<linearGradient id="paint0_linear_5540_13801" x1="3252.28" y1="938.28" x2="2236" y2="-1536.52" gradientUnits="userSpaceOnUse">
<stop stop-color="#0057FF" stop-opacity="0.365"/>
<stop offset="0.373" stop-color="#D1E0FF"/>
<stop offset="0.666" stop-color="#FFF2F7"/>
<stop offset="1" stop-color="#FFE0ED"/>
</linearGradient>
<linearGradient id="paint1_linear_5540_13801" x1="1075" y1="-1" x2="1075" y2="1080" gradientUnits="userSpaceOnUse">
<stop stop-color="#6B9CFF"/>
<stop offset="1" stop-color="white"/>
</linearGradient>
<linearGradient id="paint2_linear_5540_13801" x1="224.913" y1="472.29" x2="468.312" y2="-714.325" gradientUnits="userSpaceOnUse">
<stop stop-color="#FFF2F7" stop-opacity="0.749"/>
<stop offset="1" stop-color="#EDF1FC"/>
</linearGradient>
</defs>
</svg>
