<svg xmlns="http://www.w3.org/2000/svg" xmlns:xlink="http://www.w3.org/1999/xlink" width="3840" height="1160" viewBox="0 0 3840 1160">
  <defs>
    <linearGradient id="linear-gradient" x1="0.874" y1="0.819" x2="0.199" y2="0.067" gradientUnits="objectBoundingBox">
      <stop offset="0" stop-color="#0057ff" stop-opacity="0.365"/>
      <stop offset="0.393" stop-color="#d1e0ff"/>
      <stop offset="0.685" stop-color="#fff2f7"/>
      <stop offset="1" stop-color="#ffe0ed"/>
    </linearGradient>
    <linearGradient id="linear-gradient-2" x1="0.5" y1="0.046" x2="0.5" y2="1" gradientUnits="objectBoundingBox">
      <stop offset="0" stop-color="#6b9cff"/>
      <stop offset="1" stop-color="#fff"/>
    </linearGradient>
    <linearGradient id="linear-gradient-3" x1="0.175" y1="-0.13" x2="0.004" y2="1.269" gradientUnits="objectBoundingBox">
      <stop offset="0" stop-color="#fff"/>
      <stop offset="1" stop-color="#f2f0f4" stop-opacity="0.506"/>
    </linearGradient>
  </defs>
  <g id="BG_details_3840px" transform="translate(968.363 48)">
    <g id="Hintergrund_3840px" transform="translate(-968.363)">
      <rect id="Rechteck_12779" data-name="Rechteck 12779" width="3838" height="1104" transform="translate(0 -48)" fill="#fff"/>
      <rect id="Rechteck_12766" data-name="Rechteck 12766" width="3840" height="1160" transform="translate(0 -48)" fill="#f5f8ff"/>
      <rect id="Rechteck_12778" data-name="Rechteck 12778" width="3840" height="1160" transform="translate(0 -48)" opacity="0.23" fill="url(#linear-gradient)"/>
      <path id="Hintergrund_Verlauf" d="M0,0H3840V1159.909H0Z" transform="translate(0 -48)" opacity="0.03" fill="url(#linear-gradient-2)"/>
    </g>
    <g id="Details">
      <g id="Ellipse_1983" data-name="Ellipse 1983" transform="translate(1173 117)" fill="none" stroke="#fff" strokeWidth="2">
        <ellipse cx="374" cy="390" rx="374" ry="390" stroke="none"/>
        <ellipse cx="374" cy="390" rx="373" ry="389" fill="none"/>
      </g>
      <circle id="Ellipse_1984" data-name="Ellipse 1984" cx="8.5" cy="8.5" r="8.5" transform="translate(666 760)" fill="#fff"/>
      <circle id="Ellipse_1985" data-name="Ellipse 1985" cx="11.5" cy="11.5" r="11.5" transform="translate(778 716)" fill="#fff"/>
      <circle id="Ellipse_1986" data-name="Ellipse 1986" cx="11.5" cy="11.5" r="11.5" transform="translate(1597 970)" fill="#fff"/>
      <circle id="Ellipse_1989" data-name="Ellipse 1989" cx="11.5" cy="11.5" r="11.5" transform="translate(1173 225)" fill="#fff"/>
      <circle id="Ellipse_1987" data-name="Ellipse 1987" cx="7.5" cy="7.5" r="7.5" transform="translate(1748 862)" fill="#fff"/>
      <circle id="Ellipse_1988" data-name="Ellipse 1988" cx="7.5" cy="7.5" r="7.5" transform="translate(1324 117)" fill="#fff"/>
      <path id="Pfad_7237" data-name="Pfad 7237" d="M8088.093,879.941c-.777-.067-79.1-6.794-201.536-14.927-71.909-4.776-144.739-9.1-216.465-12.837-89.658-4.677-177.835-8.461-262.082-11.245-32.054-1.059-64.005-1.989-94.967-2.764-55.325-1.384-109.382-2.077-161.631-2.077q-53.922,0-105.111.985c-66.887,1.289-130.017,3.84-187.638,7.583-51.266,3.33-88.588,7.005-110.87,9.5-24.142,2.706-36.317,4.649-36.437,4.669l-.317-1.975c.12-.019,12.323-1.967,36.5-4.677,22.3-2.5,59.649-6.179,110.95-9.512,57.654-3.745,120.819-6.3,187.741-7.589,34.094-.657,69.222-.986,105.188-.986,52.273,0,106.331.693,161.681,2.078,30.967.775,62.924,1.7,94.983,2.764,84.262,2.785,172.453,6.569,262.124,11.247,71.737,3.742,144.577,8.062,216.5,12.839,122.454,8.133,200.792,14.862,201.568,14.929Z" transform="translate(-6730 -71)" fill="url(#linear-gradient-3)"/>
    </g>
  </g>
</svg>
