<svg width="1920" height="1080" viewBox="0 0 1920 1080" fill="none" xmlns="http://www.w3.org/2000/svg">
<path d="M2991 0H-843V1080H2991V0Z" fill="#242C3D"/>
<path d="M2995 0H-843V1080H2995V0Z" fill="#242C3D"/>
<path opacity="0.1" d="M-845 0H2987V1080H-845V0Z" fill="url(#paint0_linear_5540_13800)"/>
<path d="M-700.831 -55.5009C-700.831 -55.5009 -663.549 -26.5506 -603.231 16.3864C-588.608 77.936 -619.792 143.445 -545.925 195.556C-348.557 334.807 30.5415 581.14 406.721 256.308C521.079 157.559 427.023 129.524 693.749 -27.2868C960.475 -184.098 1265.92 -342.607 1473.63 -370.936C1406.63 -566.216 388.034 -560.733 126.778 -556.21C-387.425 -547.308 -319.807 -198.313 -319.807 -198.313L-708.392 -319.665L-700.831 -55.5009Z" fill="url(#paint1_linear_5540_13800)"/>
<path d="M1475 167.999C1479.42 167.999 1483 164.417 1483 159.999C1483 155.581 1479.42 151.999 1475 151.999C1470.58 151.999 1467 155.581 1467 159.999C1467 164.417 1470.58 167.999 1475 167.999Z" fill="#5A647D"/>
<path d="M151 905.999C157.075 905.999 162 901.074 162 894.999C162 888.924 157.075 883.999 151 883.999C144.925 883.999 140 888.924 140 894.999C140 901.074 144.925 905.999 151 905.999Z" fill="#5A647D"/>
<path d="M213 212.999C217.418 212.999 221 209.417 221 204.999C221 200.581 217.418 196.999 213 196.999C208.582 196.999 205 200.581 205 204.999C205 209.417 208.582 212.999 213 212.999Z" fill="#5A647D"/>
<path d="M1734 932.999C1742.28 932.999 1749 926.283 1749 917.999C1749 909.715 1742.28 902.999 1734 902.999C1725.72 902.999 1719 909.715 1719 917.999C1719 926.283 1725.72 932.999 1734 932.999Z" fill="#5A647D"/>
<path d="M228 976.999C231.866 976.999 235 973.865 235 969.999C235 966.133 231.866 962.999 228 962.999C224.134 962.999 221 966.133 221 969.999C221 973.865 224.134 976.999 228 976.999Z" fill="#5A647D"/>
<path d="M1516.5 145C1523.4 145 1529 139.404 1529 132.5C1529 125.596 1523.4 120 1516.5 120C1509.6 120 1504 125.596 1504 132.5C1504 139.404 1509.6 145 1516.5 145Z" fill="#5A647D"/>
<defs>
<linearGradient id="paint0_linear_5540_13800" x1="2824.5" y1="979.5" x2="2239.9" y2="-652.775" gradientUnits="userSpaceOnUse">
<stop stop-color="#181D27"/>
<stop offset="0.321108" stop-color="#171F30"/>
<stop offset="0.737497" stop-color="#4A5775"/>
<stop offset="1" stop-color="#7385B2"/>
</linearGradient>
<linearGradient id="paint1_linear_5540_13800" x1="-357.501" y1="384.5" x2="664.499" y2="116" gradientUnits="userSpaceOnUse">
<stop stop-color="#2C3549"/>
<stop offset="1" stop-color="#35435E" stop-opacity="0.03"/>
</linearGradient>
</defs>
</svg>
