<svg xmlns="http://www.w3.org/2000/svg" width="1920" height="1080" fill="none" viewBox="0 0 1920 1080">
  <path fill="#fff" d="M2995 0H-845v1080h3840V0Z"/>
  <path fill="#F5F8FF" d="M2995-80H-845v1160h3840V-80Z"/>
  <path fill="url(#a)" d="M2995-101H-845v1181h3840V-101Z" opacity=".2"/>
  <path fill="url(#b)" d="M-845-1h3840v1081H-845V-1Z" opacity=".03"/>
  <path fill="url(#c)" d="M-690.831-55.5s37.282 28.95 97.6 71.886c14.623 61.55-16.561 127.059 57.306 179.17 197.368 139.251 576.466 385.584 952.646 60.752 114.358-98.749 20.302-126.784 287.028-283.595 266.726-156.811 572.171-315.32 779.881-343.649-67-195.28-1085.596-189.797-1346.852-185.274-514.203 8.902-446.585 357.897-446.585 357.897l-388.585-121.352 7.561 264.164Z"/>
  <path fill="#fff" d="M1485 167.999a8 8 0 0 0 8-8 8 8 0 0 0-8-8 8 8 0 0 0-8 8 8 8 0 0 0 8 8Zm-1324 738c6.075 0 11-4.925 11-11s-4.925-11-11-11-11 4.925-11 11 4.925 11 11 11Zm62-693a8 8 0 1 0 0-16 8 8 0 0 0 0 16Zm1521 720c8.28 0 15-6.716 15-15 0-8.284-6.72-15-15-15-8.28 0-15 6.716-15 15 0 8.284 6.72 15 15 15Zm-1506 44a7 7 0 1 0 0-14 7 7 0 0 0 0 14ZM1526.5 145c6.9 0 12.5-5.596 12.5-12.5s-5.6-12.5-12.5-12.5-12.5 5.596-12.5 12.5 5.6 12.5 12.5 12.5Z"/>
  <defs>
    <linearGradient id="a" x1="3252.28" x2="2236" y1="938.28" y2="-1536.52" gradientUnits="userSpaceOnUse">
      <stop stop-color="#0057FF" stop-opacity=".365"/>
      <stop offset=".373" stop-color="#D1E0FF"/>
      <stop offset=".666" stop-color="#FFF2F7"/>
      <stop offset="1" stop-color="#FFE0ED"/>
    </linearGradient>
    <linearGradient id="b" x1="1075" x2="1075" y1="-1" y2="1080" gradientUnits="userSpaceOnUse">
      <stop stop-color="#6B9CFF"/>
      <stop offset="1" stop-color="#fff"/>
    </linearGradient>
    <linearGradient id="c" x1="224.913" x2="468.312" y1="472.29" y2="-714.325" gradientUnits="userSpaceOnUse">
      <stop stop-color="#FFF2F7" stop-opacity=".749"/>
      <stop offset="1" stop-color="#EDF1FC"/>
    </linearGradient>
  </defs>
</svg>
