<?xml version="1.0" encoding="UTF-8"?>
<svg id="Ebene_1" data-name="Ebene 1" xmlns="http://www.w3.org/2000/svg" width="134.54mm" height="188.49mm" xmlns:xlink="http://www.w3.org/1999/xlink" viewBox="0 0 381.36 534.29">
  <defs>
    <style>
      .cls-1 {
        fill: none;
      }

      .cls-2 {
        clip-path: url(#clippath);
      }

      .cls-3 {
        mask: url(#mask);
      }

      .cls-4 {
        opacity: .12;
      }

      .cls-5 {
        fill: #f1d1b5;
      }

      .cls-6, .cls-7 {
        fill: #fff;
      }

      .cls-8 {
        fill: #f1dea6;
      }

      .cls-9 {
        fill: #f1f1f1;
      }

      .cls-10 {
        fill: #fdefe3;
      }

      .cls-11 {
        fill: #d9a171;
      }

      .cls-12 {
        fill: #be8055;
      }

      .cls-13 {
        fill: #d0895a;
      }

      .cls-14 {
        fill: #d29166;
      }

      .cls-15 {
        fill: #242c3d;
      }

      .cls-16, .cls-17, .cls-18 {
        fill: #252525;
      }

      .cls-19 {
        fill: #523618;
      }

      .cls-17, .cls-20, .cls-21 {
        opacity: .14;
      }

      .cls-17, .cls-21, .cls-22 {
        isolation: isolate;
      }

      .cls-23 {
        clip-path: url(#clippath-1);
      }

      .cls-24 {
        clip-path: url(#clippath-4);
      }

      .cls-25 {
        clip-path: url(#clippath-3);
      }

      .cls-26 {
        clip-path: url(#clippath-2);
      }

      .cls-27 {
        clip-path: url(#clippath-7);
      }

      .cls-28 {
        clip-path: url(#clippath-8);
      }

      .cls-29 {
        clip-path: url(#clippath-6);
      }

      .cls-30 {
        clip-path: url(#clippath-5);
      }

      .cls-31 {
        clip-path: url(#clippath-9);
      }

      .cls-32 {
        clip-path: url(#clippath-10);
      }

      .cls-18 {
        stroke: #252525;
        stroke-miterlimit: 10;
      }

      .cls-33 {
        opacity: .2;
      }

      .cls-34 {
        opacity: .32;
      }

      .cls-35 {
        fill: #5e00ff;
      }

      .cls-35, .cls-36, .cls-7, .cls-37, .cls-38 {
        fill-rule: evenodd;
      }

      .cls-36 {
        fill: #c000ff;
      }

      .cls-37 {
        fill: #ff0069;
      }

      .cls-38 {
        fill: #0057ff;
      }

      .cls-22 {
        opacity: .13;
      }
    </style>
    <clipPath id="clippath">
      <rect class="cls-1" x="142.69" y="90.53" width="8.01" height="30.39"/>
    </clipPath>
    <clipPath id="clippath-1">
      <rect class="cls-1" x="210.47" y="103.98" width="5.31" height="8.66"/>
    </clipPath>
    <clipPath id="clippath-2">
      <rect class="cls-1" x="210.47" y="103.98" width="5.31" height="8.66"/>
    </clipPath>
    <clipPath id="clippath-3">
      <rect class="cls-1" x="208.56" y="101.69" width="6.71" height="11.23"/>
    </clipPath>
    <clipPath id="clippath-4">
      <rect class="cls-1" x="198.35" y="102.57" width="6.87" height="10.48"/>
    </clipPath>
    <clipPath id="clippath-5">
      <rect class="cls-1" x="263.2" y="517.88" width="28.45" height="16.41"/>
    </clipPath>
    <clipPath id="clippath-6">
      <rect class="cls-1" x="255.36" y="514.13" width="22.75" height="18.43"/>
    </clipPath>
    <clipPath id="clippath-7">
      <rect class="cls-1" x="165.46" y="516.7" width="28.45" height="16.64"/>
    </clipPath>
    <clipPath id="clippath-8">
      <rect class="cls-1" x="155.38" y="512.62" width="22.75" height="18.34"/>
    </clipPath>
    <clipPath id="clippath-9">
      <rect class="cls-1" x="356.97" y="334.96" width="18.37" height="6.85"/>
    </clipPath>
    <clipPath id="clippath-10">
      <rect class="cls-1" x="129.98" y="301.96" width="14.79" height="2.34"/>
    </clipPath>
    <mask id="mask" x="175.34" y="278.19" width="87.97" height="37.13" maskUnits="userSpaceOnUse">
      <g id="logo-scrumlr-on-dark-sticker-b">
        <path id="logo-scrumlr-on-dark-sticker-a-2" data-name="logo-scrumlr-on-dark-sticker-a" class="cls-7" d="m176.69,314.7s36.86-11.47,83.72-13.36c1.11-.04,2.04.63,2.04,1.46,0,.77-.8,1.41-1.82,1.46-8.53.36-45.52,2.34-79.15,10.44,0,.12-4.78.75-4.78,0m75.24-30.25c1.04-1.86,1.83-3.11,1.95-3.07.18.09-.21,1.43-1.25,3.24-.7,1.23-1.74,2.72-3.05,4.12.21-.53,1.55-2.9,2.35-4.29m-56.13,1.43c.73-.1,1.34.03,1.86.37.85.65,1.4,1.54,1.61,2.3.3,1.16-.46,2.43-.91,3.14-.73,1.03-1.61,2.67-2.04,3.43-.27.5-.61.78-1.19.27-.43-.35-.73-.81-.73-1.48s.4-1.81,1.4-3.23c.05-.08.11-.17.16-.25l.05-.07h0l.05-.07s.02-.02.02-.04l.05-.07c.65-1.05,1.2-2.11.84-2.31-1.13-.64-7.8,4.54-7.95,7.93-.09,1.94,4.08,3.06,5.27,3.72.58.33.92.82.92,1.37,0,.67-.4,1.49-1.19,2.5-.79.98-2.28,1.8-4.11,2.04-2.22.29-5.18-.51-7.58-2.86-.43-.44-.21-.79.21-1,.24-.09.58-.17.94-.21.88-.12,1.74,0,2.37.42,1.19.78,3.2,1.98,4.96,1.74.67-.09,1.28-.32,1.62-.68.46-.5.3-1.01-.03-1.23-2.19-1.35-6.43-2.37-6.43-5.36,0-3.98,4.75-8.09,7.49-9.57,1-.54,1.64-.72,2.34-.81Zm57.07-7.03c.58-.63,1.13-.88,1.71-.43.67.47,1,1.24,1,2.01,0,.41-.03.73-.18,1.25-.94,3.61-4.26,7.5-6.94,9.59-.61,1.57-1.01,2.94-1.01,3.97,0,.7.18,1.18.58,1.12,1.4-.19,3.17-2.38,4.32-4.64.11-.22.24-.38.38-.49.64-1.01,1.39-2.12,2.18-3.16-.37-.27-.58-.63-.58-1.01,0-1.49,1.95-3.83,2.89-3.95.64-.08.91.23.91.9,0,.56-.21,1.43-.55,2.41.73-.27,1.55-.79,2.47-1.56.52-.42.82-.52,1.22-.19.43.35.88,1.05.88,1.76,0,.35-.15.78-.49,1.21-1.64,2.03-3.38,4.58-3.38,6.3,0,.76.24,1.2.67,1.14,1.04-.14,2.25-1.94,3.2-4.08.24-.56.67-.64.94-.15.21.38.24,1.08-.09,1.92-.73,1.77-2.53,3.26-4.26,3.49-1.86.25-2.86-.88-2.86-2.46,0-1.87,1.61-4.34,3.14-6.33-.79.43-1.55.65-2.22.76-2.28,4.11-4.02,7.03-4.45,9.11-.12.54-.52.86-1.07.37-.42-.32-.65-.76-.73-1.26-.76.52-1.61.93-2.5,1.05-1.47.19-2.49-.32-2.86-1.54-1.06,1.3-2.65,2.36-4.09,2.55-2.07.27-3.2-.66-3.2-2.24,0-.53.12-1.19.46-1.96.49-1.06,1.49-2.77,2.19-3.92.67-1.06,1.4-2.03,1.16-2-.24.03-.88.41-2.68,2.38-2.38,2.6-3.84,5.57-5.12,8.46-.3.6-.73.74-1.22.34-.46-.38-.67-.76-.67-1.52,0-.5.24-1.47.55-2.24.43-1.11,1.43-2.82,2.25-4.16.82-1.43,1.68-2.65,1.4-2.62-.24.03-1.43.83-3.26,3.01-1.7,1.98-3.11,4.83-4.29,7.68-.21.5-.55.72-1.07.35-.21-.15-.39-.34-.52-.58-.84.69-1.8,1.18-2.73,1.31-1.8.24-2.71-.49-2.83-1.79-1.04,1.25-2.41,2.34-3.96,2.54-1.06.14-1.68-.3-1.96-1-1.01.97-2.34,1.66-3.43,1.8-1.95.26-3.02-.89-3.02-2.62,0-1.52,1.61-4.52,3.29-6.64-.82.43-1.68.72-2.38.84-2.19,4.97-5.6,9.41-9.47,9.92-2.8.37-4.32-1.18-4.32-3.47,0-1.02.3-2.24.91-3.49,1.61-3.2,4.02-5.16,5.79-5.39.4-.05.76-.04,1.07.09.91.41,1.46.86,1.8,1.43.42.81.04,1.83-.48,2.94l-.04.08c-.03.06-.06.13-.09.2-.21.47-.46.94-.55,1.27-.21.64-.33.8-1.1.53-.61-.21-1.07-.77-1.07-1.56,0-.44.4-1.46.7-2.17.02-.04.03-.07.05-.11l.03-.06c.27-.59.52-1.12.38-1.21-.4-.24-2.35,1.8-3.62,4.46-.61,1.28-.91,2.49-.91,3.37,0,1.23.52,1.98,1.4,1.92,2.98-.28,6.24-4.99,7.83-8.8-.64-.21-.85-.62-.85-1.17,0-1.55,2.01-3.96,3.05-4.12.64-.08.88.26.88.91s-.24,1.53-.58,2.54c.85-.32,1.68-.81,2.65-1.61.46-.38.94-.57,1.34-.21.49.46.85,1.12.85,1.88,0,.35-.15.81-.52,1.24-1.31,1.64-2.8,3.74-3.29,5.35-.15.46-.24.91-.24,1.35,0,.73.24,1.14.7,1.11.96-.05,2.53-1.87,3.48-3.85.69-1.94,2.22-5.02,4.08-7.78.4-.55.94-.57,1.31-.17.33.37.46.85.46,1.29,0,1.2-2.22,4.89-3.29,7.29-.55,1.24-.64,2.34.03,2.25.79-.11,2.41-2.31,3.96-4.86,1.8-3.05,2.59-5.14,3.68-6.64.43-.61.91-.79,1.28-.35.3.37.46.82.46,1.46,0,1-.64,2.37-1.71,4.21-.88,1.49-2.07,3.64-2.07,4.78,0,.53.18.8.58.74.74-.1,1.77-1.32,2.7-2.75.72-1.94,2.82-6.1,4.61-8.96.4-.61.85-.64,1.16-.15.27.4.43.88.43,1.35,0,.23-.03.5-.09.8,1.31-1.4,3.01-2.74,3.99-2.87.97-.13,1.61.84,1.61,2.07,1.37-1.35,2.98-2.56,3.96-2.66.88-.09,1.37.64,1.37,1.6s-.64,2.43-1.89,4.44c-.04.06-.08.13-.12.19l-.06.1c-.04.06-.08.13-.12.19l-.06.1c-.71,1.18-1.29,2.33-1.29,3.21,0,.67.3,1.1.79,1.04.94-.13,2.44-2.37,3.56-4.31.08-.13.16-.23.24-.3,1.3-4.89,4.59-10.46,7.47-13.75Z"/>
      </g>
    </mask>
  </defs>
  <path class="cls-13" d="m67.44,309.62c7.42,13.78,20.7,25.79,33.54,34.73,12.84,8.94,27.93,18.58,39.72,21.63.76-6.52,3.76-15.53,4.23-23.02,9.95-19.58,16.46-39.49,21.58-60.85-3.23-2.44-7.14-3.98-11.17-4.4-1.07-.11-1.4-4.91-2.28-4.28-1.16.83-2.58,4.96-2.89,6.35-2.4,10.86-7.9,16.03-14.11,23.02-19.58-2.21-35.55-8.7-44.52-11.73-4.62,8.9-14.69,17.91-24.11,18.55"/>
  <path class="cls-13" d="m141,71.97c-5.52,21.78-4.7,41.07,9.9,67.75,10.79,19.71,17.86,40.21,21.64,59.41,3.46,17.6.68,25.76,4.76,36.16.94,2.4,8.94,38.28,54.31,32.38,15.32-1.99,32.19-10.51,42.79-21.75,10.6-11.24,19.75-23.7,25.48-38.06,4.48-11.23,8.19-28.31,16.63-36.74,7.29-7.29,17.09-13.86,27.55-11.26-14.57-14.57-18.71-33.86-25.11-50.62-8.46-22.17-11.18-29.59-19.31-43.96-7.88-13.93-26.01-39.45-47.69-41.76,2.78,2.58,6.79,3.49,8.68.2,1.89-3.29-.87-9.38-4.51-10.48-3.18-.96-7.3-.23-9.69,3.07,0,0,1.97-1.9,2.12-2.04,1.83-1.71,1.88-4.65,1.68-5.92-.4-2.53-1.72-6.82-5.26-7.96-3.17-1.02-6.4,1.17-7.06,3.34-1.21,4.04,2.48,11.1-2.03,11.1-40.8-.33-83.37,11.69-94.89,57.13"/>
  <g>
    <path class="cls-5" d="m198.84,48.77c2.68.69,11.21,3.21,18.87-.71,5.68-2.91,12.58-4.88,19.11-5.23,8.29-.44,19.07,3.65,24.79,7.78,6.48,4.69,16.51,15.62,22.51,25.65,5.72,9.57,7.72,23.83,4.74,35.13-3.62,13.77-12.62,23.59-23.31,30.9-13.56,9.27-25.82,12.68-38.67,14.26-28.01,3.43-43.66-3.5-56-10.61-8.36-4.82-18.5-14.32-24.16-27.2-1.64-3.73-2.29-8.95-3.17-12.93-2.24-10.11,2.16-27.02,6.98-37.18,6.21-13.08,15.74-28.27,48.3-19.86"/>
    <path class="cls-11" d="m241.28,70.13c-2.68,1.27-6.59,3.99-8.16,8.64-1.57,4.65-1.91,10.86-1.01,15.7.77,4.14,2.79,8.29,5.97,11.05,4.16,3.61,10.74,4.67,14.83,4.36,3.82-.29,10.46-2.15,16.41-1.65,2.04.17,6.02,1.46,7.54,2.48,3.02,2.01,6.67,7,7.61,11.71,4.88-8.91,5.76-15.84,5.76-22.56,0-6.28-1.33-11.35-1.33-11.35,0,0-.82-.79-1.69-1.56-2.17-1.91-6.85-6.92-9.35-8.37-4.43-2.57-7.31-4.9-12-6.96-3.95-1.73-7.16-2.26-11.45-2.8-4.14-.53-10.56.1-13.14,1.31"/>
    <path class="cls-11" d="m151.36,84.09c2.12-2.47,4.65-4.3,7.33-6.15s6.21-2.98,8.43-3.48c4.22-.93,9.73.91,12.42,2.31,2.28,1.19,4.75,4.06,6.28,7.26,1.63,3.41,1.05,8.67.55,12.42s-3.62,9.96-6.58,12.31c-2.15,1.71-6.38,3.87-12.44,3.87-7.3,0-9.58-.1-12.48,1.87-1.77,1.2-3.75,3.03-4.79,4.07-1.4,1.4-2.05,2.01-2.33,2.34-2.44-4.64-3.55-9.33-4.24-13.29-.25-1.44-1.68-7.58-.13-14.32-.03.16,4.58-5.25,7.99-9.22"/>
    <path class="cls-11" d="m199.76,89.56c-10.48,6.84-13.89,20.06-14.26,26.02-.36,5.95.5,10.55,1.77,14.27.55,1.59,2.43,9.71,12.85,9.71,5.47,0,10.23-2.41,17.38-2.41,8.97,0,13.93-3.6,13.38-9.51-2.22-23.43-10.38-32.92-12.38-35.53-2.45-3.2-6.43-5.06-9.77-5.06-4.2,0-8.4,2.15-8.98,2.53"/>
    <path class="cls-19" d="m205.49,126.05c3.22,1.74,8.01,2.5,11.36,1.02s5.8-5.5,6.71-9.07c-4.17,5.31-11.52,9.24-18.08,8.04"/>
    <g class="cls-20">
      <g class="cls-2">
        <path class="cls-19" d="m143.36,93.37s-.53,2.68-.63,4.33c-.05.69-.16,4.98.47,8.32.87,4.6,1.71,9.66,4.54,14.9,2.06-2.06,2.97-2.99,2.97-2.99,0,0-2.64-4.22-3.82-11.46-.58-3.56-1.53-7.78-1.06-15.93-1.31,1.52-2.47,2.83-2.47,2.83"/>
      </g>
    </g>
    <path d="m203.91,125.29c3.98,1.05,8.35.57,12.01-1.32s6.59-5.16,8.06-9c-.24,4.51-3.1,8.75-7.15,10.75-4.05,2-9.1,1.72-12.92-.43"/>
    <path d="m191.87,106.88c0-5.67,6.51-9.43,15.05-9.43s15.34,3.89,15.34,9.57-7.07,10.27-15.62,10.27-14.77-4.74-14.77-10.41"/>
    <g class="cls-20">
      <path d="m174.25,216.27c1.12-.27,2.06,19.98,16.76,33.39,9.81,8.94,21.41,11.23,25.58,11.63,25.95,2.48,56.63-15.56,72.3-36.4-12.18,22.39-32.79,44.43-57.47,50.83-10.08,2.61-16.26,2.23-20.06,1.33-17.33-4.12-26.11-21.73-29.8-29.13-8.07-16.2-8.28-31.42-7.31-31.65Z"/>
    </g>
    <path class="cls-5" d="m198.84,48.77c2.68.69,11.21,3.21,18.87-.71,5.68-2.91,12.58-4.88,19.11-5.23,8.29-.44,19.07,3.65,24.79,7.78,6.48,4.69,16.51,15.62,22.51,25.65,5.72,9.57,7.72,23.83,4.74,35.13-3.62,13.77-12.62,23.59-23.31,30.9-13.56,9.27-25.82,12.68-38.67,14.26-28.01,3.43-43.66-3.5-56-10.61-8.36-4.82-18.5-14.32-24.16-27.2-1.64-3.73-2.29-8.95-3.17-12.93-2.24-10.11,2.16-27.02,6.98-37.18,6.21-13.08,15.74-28.27,48.3-19.86"/>
    <path class="cls-5" d="m198.84,48.77c2.68.69,11.21,3.21,18.87-.71,5.68-2.91,12.58-4.88,19.11-5.23,8.29-.44,19.07,3.65,24.79,7.78,6.48,4.69,16.51,15.62,22.51,25.65,5.72,9.57,7.72,23.83,4.74,35.13-3.62,13.77-12.62,23.59-23.31,30.9-13.56,9.27-25.82,12.68-38.67,14.26-28.01,3.43-43.66-3.5-56-10.61-8.36-4.82-18.5-14.32-24.16-27.2-1.64-3.73-2.29-8.95-3.17-12.93-2.24-10.11,2.16-27.02,6.98-37.18,6.21-13.08,15.74-28.27,48.3-19.86"/>
    <path class="cls-11" d="m241.28,70.13c-2.68,1.27-6.59,3.99-8.16,8.64-1.57,4.65-1.91,10.86-1.01,15.7.77,4.14,2.79,8.29,5.97,11.05,4.16,3.61,10.74,4.67,14.83,4.36,3.82-.29,10.46-2.15,16.41-1.65,2.04.17,6.02,1.46,7.54,2.48,3.02,2.01,6.67,7,7.61,11.71,4.88-8.91,5.76-15.84,5.76-22.56,0-6.28-1.33-11.35-1.33-11.35,0,0-.82-.79-1.69-1.56-2.17-1.91-6.85-6.92-9.35-8.37-4.43-2.57-7.31-4.9-12-6.96-3.95-1.73-7.16-2.26-11.45-2.8-4.14-.53-10.56.1-13.14,1.31"/>
    <path class="cls-11" d="m151.36,84.09c2.12-2.47,4.65-4.3,7.33-6.15s6.21-2.98,8.43-3.48c4.22-.93,9.73.91,12.42,2.31,2.28,1.19,4.75,4.06,6.28,7.26,1.63,3.41,1.05,8.67.55,12.42s-3.62,9.96-6.58,12.31c-2.15,1.71-6.38,3.87-12.44,3.87-7.3,0-9.58-.1-12.48,1.87-1.77,1.2-3.75,3.03-4.79,4.07-1.4,1.4-2.05,2.01-2.33,2.34-2.44-4.64-3.55-9.33-4.24-13.29-.25-1.44-1.68-7.58-.13-14.32-.03.16,4.58-5.25,7.99-9.22"/>
    <path class="cls-11" d="m199.76,89.56c-10.48,6.84-13.89,20.06-14.26,26.02-.36,5.95.5,10.55,1.77,14.27.55,1.59,2.43,9.71,12.85,9.71,5.47,0,10.23-2.41,17.38-2.41,8.97,0,13.93-3.6,13.38-9.51-2.22-23.43-10.38-32.92-12.38-35.53-2.45-3.2-6.43-5.06-9.77-5.06-4.2,0-8.4,2.15-8.98,2.53"/>
    <path class="cls-17" d="m204.27,128.04c-.06.23,1.67,1,3.56,1.46,1.62.39,4.05.98,6.93.11.79-.24,2.54-.79,4.14-2.34,2.38-2.3,2.8-5.23,2.96-6.33.17-1.21.14-2.23.07-2.94-.76,1.05-4.73,6.43-9.8,8.75-1.19.55-2.63,1.24-4.63,1.37-1.81.11-3.18-.29-3.23-.09Z"/>
    <g class="cls-20">
      <path class="cls-19" d="m143.36,93.37s-.53,2.68-.63,4.33c-.05.69-.16,4.98.47,8.32.87,4.6,1.71,9.66,4.54,14.9,2.06-2.06,2.97-2.99,2.97-2.99,0,0-2.64-4.22-3.82-11.46-.58-3.56-1.53-7.78-1.06-15.93-1.31,1.52-2.47,2.83-2.47,2.83"/>
    </g>
    <path class="cls-16" d="m191.87,106.88c0-5.67,6.51-9.43,15.05-9.43s15.34,3.89,15.34,9.57-7.07,10.27-15.62,10.27-14.77-4.74-14.77-10.41"/>
  </g>
  <g class="cls-4">
    <path class="cls-6" d="m211.07,107.66c1.13-3.1,2.69-4.02,3.88-3.57,1.19.45,1.1,2.53-.35,4.78-.76,1.18-2.02,2.99-3.26,3.71-.96.55-1.21-2.32-.26-4.92"/>
  </g>
  <g class="cls-4">
    <path class="cls-6" d="m203.34,107.95c-1.36-3-2.99-3.8-4.15-3.25-1.15.54-.91,2.61.73,4.74.85,1.11,2.25,2.83,3.55,3.44,1,.48,1.02-2.4-.12-4.92"/>
  </g>
  <g class="cls-4">
    <g class="cls-23">
      <path class="cls-6" d="m211.07,107.66c1.13-3.1,2.69-4.02,3.88-3.57,1.19.45,1.1,2.53-.35,4.78-.76,1.18-2.02,2.99-3.26,3.71-.96.55-1.21-2.32-.26-4.92"/>
    </g>
  </g>
  <g class="cls-4">
    <path class="cls-6" d="m203.34,107.95c-1.36-3-2.99-3.8-4.15-3.25-1.15.54-.91,2.61.73,4.74.85,1.11,2.25,2.83,3.55,3.44,1,.48,1.02-2.4-.12-4.92"/>
  </g>
  <g class="cls-4">
    <g class="cls-26">
      <path class="cls-6" d="m211.07,107.66c1.13-3.1,2.69-4.02,3.88-3.57,1.19.45,1.1,2.53-.35,4.78-.76,1.18-2.02,2.99-3.26,3.71-.96.55-1.21-2.32-.26-4.92"/>
    </g>
  </g>
  <g>
    <g class="cls-34">
      <g class="cls-25">
        <path class="cls-16" d="m215.27,101.69c-.78,3.35-2.29,6.48-3.79,9.58-.21.44-.43.88-.79,1.22-.35.33-.88.53-1.33.37-.52-.18-.8-.77-.8-1.32s.23-1.07.44-1.58c.64-1.46,1.28-2.92,1.92-4.38.41-.94.83-1.9,1.53-2.65.69-.76,1.71-1.29,2.81-1.25"/>
      </g>
    </g>
    <g class="cls-34">
      <g class="cls-24">
        <path class="cls-16" d="m198.37,102.97c1.64,3.01,3.28,6.02,4.91,9.03.17.3.34.62.62.83s.68.3.97.11c.42-.27.38-.89.26-1.38-.71-2.94-2.37-5.59-4.33-7.9-.36-.43-.75-.86-1.28-1.04-.52-.18-1.32.03-1.15.34"/>
      </g>
    </g>
  </g>
  <g class="cls-20">
    <path class="cls-19" d="m344.25,160.6c-14.57-14.57-18.89-34.75-25.29-51.51-8.46-22.17-11.18-29.59-19.31-43.96-6.97-12.32-21.97-33.72-40.35-40.09.51-.34.97-.82,1.34-1.47,1.89-3.29-.87-9.38-4.51-10.48-2.37-.72-5.28-.49-7.59,1.05,0,0,.01-.01.01-.01,1.83-1.71,1.88-4.65,1.68-5.92-.4-2.53-1.72-6.82-5.26-7.96-3.17-1.02-6.4,1.17-7.06,3.34-1.1,3.66,1.83,9.82-.98,10.92-1.04,7.42-6.29,14.24-13.38,16.82,11.78-.36,23.09,5.71,31.22,14.24,8.13,8.53,13.47,19.32,17.85,30.26,4.04,10.08,7.42,20.85,6.17,31.63-2.13,18.43-16.92,32.46-30.78,44.79,14.82-3.84,31.22-3.62,44.76,3.55,8.09,4.29,14.87,11.37,18.68,19.62,1.06-1.64,2.19-3.25,3.43-4.81,7.42-9.32,21.34-12.84,29.34-10.02"/>
  </g>
  <g>
    <path class="cls-8" d="m169.02,510.66c-8.39,2.62-16.88,9.87-18.31,17.63,11.24,4.99,24.96,5.15,37.26,5.08.56,0,.15-.15.66-.38.74-.34,1.2-1.09,1.53-1.84,2.03-4.68.21-10.38-3.37-14.02-3.58-3.64-8.58-5.52-13.57-6.59-2.06-.44-4.66-.56-4.2.12"/>
    <path class="cls-8" d="m268.8,511.69c-8.39,2.62-16.2,10.18-17.64,17.94,9.22,5.55,23.97,4.59,36.28,4.51.56,0,1.14-.01,1.64-.24.74-.34,1.2-1.09,1.53-1.84,2.03-4.68.21-10.38-3.37-14.02-3.58-3.64-8.58-5.52-13.57-6.59-2.06-.45-4.11-.16-4.87.24"/>
    <g class="cls-20">
      <g class="cls-30">
        <path d="m277.89,518.7c-6.04,3.6-11.15,8.74-14.69,14.81,4.86.46,9.51.96,16.38.71,1.53-.06,4.95-.04,4.95-.04,0,0,3.33-2.87,3.71-4.87,1.18.14,2.36-.91,2.36-2.09.35.17.7.34,1.05.51-.15-3.35-2.06-6.57-4.92-8.31-2.86-1.74-6.64-2.01-8.83-.71"/>
      </g>
    </g>
    <g class="cls-20">
      <g class="cls-29">
        <path d="m274.75,514.27c-8.41,3.02-15.63,9.22-19.39,17.33.93.32,2.13.73,3.15.95,4.77-7.62,11.62-13.93,19.61-18.05-1.35-.51-2.88-.41-3.36-.23"/>
      </g>
    </g>
    <g class="cls-20">
      <g class="cls-27">
        <path d="m180.16,517.51c-6.04,3.6-11.15,8.74-14.69,14.81,4.8.57,9.21,1,16.49,1,1.53,0,4.83.01,4.83.01,0,0,3.33-3.21,3.71-5.21,1.18.14,2.36-.91,2.36-2.09.35.17.7.34,1.05.51-.15-3.35-2.06-6.57-4.92-8.31-2.86-1.74-6.64-2.01-8.83-.71"/>
      </g>
    </g>
    <g class="cls-20">
      <g class="cls-28">
        <path d="m174.77,512.76c-8.41,3.02-15.63,9.18-19.39,17.29.85.26,2.13.68,3.17.9,4.77-7.62,11.59-13.84,19.58-17.96-1.36-.5-2.88-.4-3.37-.23"/>
      </g>
    </g>
    <path class="cls-13" d="m143.21,337.88c-9.6,29.81-5.73,66.12,7.16,94.67,13.99,30.98,24.43,46.23,45.04,76.35-11.23-3.38-27.4.38-28.66,2.59,5.08.61,9.53,3.53,12.65,7.59,3.12,4.06,4.76,9.2,5.16,14.3,13.25,0,26.11-.77,38.93-3.35,2.29-.46,4.61-.94,6.7-2,2.08-1.06,4.34-2.7,4.63-5.01.72-5.75-2.9-10.51-3.19-12.18-2.38-14.23-2.26-31.99,5.71-51.88.61-1.53,3.03-5.36,3.03-5.36,0,0,9.64.11,11.32.01,6.57-.39,6.81-.51,13.38-.91,1.29,18.83,15.92,47.74,32.76,59.77-9.44-4.07-25.87-3.25-29.45-.62,4.32,2.35,7.88,4.9,11.24,8.5,3.35,3.6,5.68,9.04,4.61,13.84,3.79-.02,14.78-.24,18.74-.25,10.32-.04,16.2-.42,23.83-1.37,3-.38,7.09-1.75,8.68-3.34,3.65-3.65,2.17-8.5-.65-16.16-1.44-3.92-2.58-20.55.25-32.66.38-1.62,2.08-12.52,5.58-19.02,1.54-2.85-7.99-6.3-9.94-8.89-6.57-8.67-8.66-19.82-10.56-30.52l-8.49-47.78c-1.03-5.78-2.05-11.77-.62-17.47,1.15-4.6,3.89-9.03,3.25-13.73-1.07-7.87-10.41-11.27-18.2-12.81-47.04-9.3-95.8-9.75-152.89,7.7"/>
  </g>
  <g class="cls-20">
    <path d="m171.6,344.08c27.47,1.26,79.63,4.19,107.21,12.51,0-1.78.23-5.63.23-5.63,0,0-14.56-3.49-20.02-5.16-36.98-11.25-76.94-17-114.22-6.75-1.59.44-5.9,1.1-4.51,1.98l2.21,1.28-.42,1.54s.42.45,1.08.29c3.79-.9,8.05-.2,21.1-.2.01,0,6.55.11,7.33.15Z"/>
  </g>
  <g class="cls-20">
    <path d="m138.14,365.23c1.13-10.29,3.26-20.85,6.92-30.49,1.25-1.81,1.96-3.97,2.21-6.01-8.06,2.72-16.86,2.01-25.27.79-8-1.16-16.02-2.79-23.42-6.03-7.41-3.24-14.23-8.22-18.6-15.03,4.16-3.06,8.68-7.52,10.31-10.8.86-1.72,2.21-5.54,2.21-5.54,0,0-.82-.95-.93-1.05-1.26,2.57-2.57,4.23-4.13,6.3-.67.89-1.74,2.12-2.45,2.91-2.05,2.3-4.52,4.4-6.18,5.45-2.7,1.71-6.53,3.47-11.34,3.89.08.14,2.75,5.5,8.16,11.98,4.37,5.22,11.01,11.96,18.31,17.53,6.16,4.7,13.74,9.92,20.55,14.18,8.59,5.37,16.41,9.51,23.67,11.91"/>
  </g>
  <g>
    <path class="cls-8" d="m349.11,440.49c4.11-2.85,8.42-6.9,12.24-10.71,4.73-4.73,8.41-6.35,13.81-6.94,1.44-.16,3.53.14,3.53.14,0,0,.61,2.23.71,3.79.19,2.92-.11,10.79-1.74,16.2-1.56,5.16-3.35,9.48-9.08,14.09-1.05.84-1.36,1.18-2.69.96-1.21-.2-2.13-1.14-2.97-2.04-3.51-3.76-7.01-7.51-10.51-11.27-1.31-1.39-2.84-3.1-3.29-4.22"/>
    <g class="cls-20">
      <path d="m353.55,441.2s5.73-4.76,7.21-6.24c3.35-3.35,9.67-9.04,9.42-8.54-2.18,4.25-10.27,13.62-11.96,15.17.38.16,2.57,1.78,2.57,1.78,0,0,5.75-5.74,7.65-7.9,2.59-2.93,10.25-12.51,10.25-12.51,0,0,.12.42.12.48,0,3.64-7.79,17.24-13.83,23.29,1.18,1.99,2.03,3.31,3.42,6.39,2.61-3.66,4.32-5.71,6.28-10.14,1.96-4.42,3.4-9.69,4.77-14.32,0,1.86-.03,1.95-.08,2.89-.23,4.77-.94,9.77-2.61,14.17-.6,1.56-1.34,3.29-2.16,4.65-1.05,1.73-2.48,3.43-3.86,4.79-.82.82-.52.55-2.4,2.09-1.05-3.3-2.41-6.83-4.87-9.6-2.4-2.71-9.93-6.44-9.93-6.44"/>
    </g>
    <path class="cls-13" d="m306.2,255.29c-.09.58-.22,1.45-.38,2.5-4.34,29.25-8.99,60.58-6.91,98.15.77,13.87,1.16,31.4,10.17,64.57,2.1,7.71,4.58,15.31,7.57,23.27,2.5,6.64,7.72,16.01,14.01,19.28,8.36,4.34,16.15,3.85,25.62,1.58,5.14-1.23,12.05-7.4,12.05-7.4,0,0-1.64-6.56-6.34-11.76-3.93-4.36-12.9-5.01-12.9-5.01,0,0,2.15-13.96,8.51-36.5,7.68-27.23,21.09-51.47,23.44-69.2,1.19-8.99-1.64-42.82-2.43-59.12-.73-14.96-3.96-26.37-2.79-35.24.32-2.39-1.72-.75-3.4-2.49-1.63-1.67-4.13-2.08-6.44-2.29-21.98-2.05-44.67,5.07-59.8,19.65"/>
    <g class="cls-20">
      <path d="m325.15,161.73c7.98,1.3,11.02,12.35,12.13,20.36,7.31,52.74,14.63,106.2,8.05,159.04-4.63,37.2-16.08,74.95-7.63,111.47.76,3.28,1.89,6.53,4.02,9.14,2.76,3.38,10.14,4.29,13.58,3.13,4.37-1.47,4.89-1.72,7.27-3.25,3-1.92,5.63-4.27,5.75-4.36,1.52-1.18,3.16-2.75,4.29-4.11,1.67-2.01,2.99-4.45,3.69-6.25,1.68-4.29,2.59-8.97,2.95-13.06.31-3.42.25-6.38-.1-8.78-.11-.73-.27-1.53-.47-2.09-.94-.1-1.7-.23-2.56-.19-3.76.18-6.51,1.07-8.71,2.26-1.98,1.07-4.31,2.9-5.28,3.95-2.32,2.52-9.17,8.85-13.03,11.48,1.81-9.84,5.62-28.68,11.19-45.26,3.29-9.79,7.46-20.5,11.03-29.38,6.33-15.77,9.37-26.39,9.92-33.06.57-6.98-1.22-27.48-1.7-41.91-.48-14.28-2.13-29.21-3.44-38.65-.98-7.11-.26-11.82-.26-11.82h2.25c-.46-8.77-1.52-17.39-4.9-28.66-3.27-10.93-7.09-23.47-10-29.8-5-10.88-9.63-14.79-13.81-18.97-6.62-6.61-17.98-4.14-24.25-1.26"/>
    </g>
    <g>
      <g class="cls-33">
        <g class="cls-31">
          <path d="m357.61,335.13c-2.76-1.33,4.1,5.54,9.1,6.62,3.13.68,10.98-4.61,7.96-3.57-2.19.76-5.42,2.3-8.16,1.49-4.23-1.24-6.65-3.46-8.9-4.54"/>
        </g>
      </g>
      <g class="cls-33">
        <path d="m197.86,444.15c20.15,8.11,45.51,9.73,72.24,7.93-14,1.6-24.95,1.91-36.11,1.19-4.82-.31-8.98-.79-13.78-1.62-3.52-.6-6.67-1.26-9.13-1.8-5.85-1.31-9.04-2.62-13.21-5.71"/>
      </g>
      <g class="cls-33">
        <g class="cls-32">
          <path d="m129.98,301.96c1.02.25,2.59.57,6.24,1.36,1.96.42,4.69.65,4.94.69,2.78.38,4.03.32,3.5.22-2.51-.46-9.24-1.61-14.67-2.27"/>
        </g>
      </g>
      <g class="cls-33">
        <path d="m349.13,440.41c-.83,3.17-.77,5.94.5,9.35.09.25-.68-4.83-.51-5.08,0-3.37.1-1.29.02-4.27"/>
      </g>
    </g>
  </g>
  <g>
    <path class="cls-15" d="m174.52,215.94c-4.47,6.15-14.62,25.51-19.93,49.93-.67,3.09-1.75,5.85-4.06,12.53,5.05-.73,10.36,1.83,14.36,4.99"/>
    <path class="cls-15" d="m168.78,252.93c-2.13,21.27-8.48,37.85-14.46,58.38-1.37,4.7-4.67,14.98-7.85,17.14-8.73,5.93-7.11,11.1-6.1,13.2,1.22,2.54,2.13.59,4.68.44,47.99-2.76,142.87,10.68,153.95,15.48.22-20.03.91-36.58,1.59-48.93.78-14.05,1.53-22.41,2.39-30.05,1.06-9.32,2.24-17.13,3.19-22.84,6.35-2.97,13.59-5.86,21.69-8.32,19.38-5.88,36.85-7.21,50.22-7.03-.04-1.16-.12-2.85-.26-4.87-.5-6.91-1.5-13.36-3.04-20.37-2.44-11.13-4.41-19.82-9.34-30.69-1.53-3.38-5.75-12.24-13.72-19.82-2.4-2.28-4.83-4.16-8.21-5.23-5.48-1.74-10.35-.38-12.65.29-10.81,3.16-18.34,12.04-20.9,16.76-9.56,17.63-14.46,37.82-27.45,53.11-10.69,12.58-16.23,20.01-29.03,26.72-7.92,4.15-23.95,7.89-32.89,7.87-6.92-.01-20.45-.99-30.74-10.86-6.2-5.94-9.05-13.14-10.99-18.05-3.34-8.43-4.1-16.24-4.24-17.81-.04-.43-.07-.79-.08-1.04-.01-.16-.02-.32-.04-.48"/>
  </g>
  <g class="cls-20">
    <path d="m306.67,201.61c-.13,0-.35,3.74-.41,4.55-1.24,15.82-4.14,35.35-10.41,58.34-3.56,13.03-5.13,16.7-8.95,32.17-1.07,4.33-2.14,9.23-3.26,15.36-7.36,40.18-4.97,67.55-2.25,94.1.41,4,5.28,33.37,10.09,51.96,4.77,18.41,22.94,60.27,22.94,60.27,0,0-10.3-3.19-16.6-5.91-.73-.32-1.74-.68-2.27-.84-1.38-.46-2.56-.71-3.01-.81-2.56-.56-5.8-1-8.67-1.1-5.61-.21-9.56.26-11.95.8-2.77.62-3.55,1.34-3.55,1.34,0,0,4.86,2.48,8.88,6.16,2.8,2.57,4.49,4.8,5.77,7.45,2.25,4.67,1.21,8.72,1.21,8.72,0,0,13.1-.25,18.75-.25s9.98-.1,19.75-.9c5.34-.44,12.24-1.64,14.12-5.64,1.38-2.94.68-6.3-.24-9.19-1.2-3.76-2.13-6.13-2.27-7.09-.73-4.83-.98-7.81-.98-13.78,0-12.53,1.91-18.49,5.37-31.45-13.71-1.77-19.71-15.26-23.27-25.42-2.4-6.85-5.49-15.28-9.52-33.09-3.88-17.14-6.88-30.71-6.9-44.74,0-2.07.05-9.22.2-17.25.08-4.27.16-8.28.34-13.67.22-6.5.48-11.64.85-18.9.24-4.77.36-7.15.5-9.42,0,0,1.16-19.16,3.29-34.5.35-2.5.74-5.1.74-5.1,0,0,0,0,0,0,0-.01,0-.03,0-.06.16-1.06.28-1.88.44-2.93.32-2.14.33-2.2.39-2.56.05-.28.09-.53.15-.91,0,0,.06-.14.08-.46.24-6.06.9-26.24.9-26.24-.03-9.99-.22-28.99-.24-28.99,0,0,0,0,0,0Z"/>
  </g>
  <g class="cls-20">
    <path d="m166.74,511.48c10.65,1.37,17.08,11.57,17.8,21.89,12.05,0,27.06-.67,40.22-3.62,3.58-.8,7.99-2.28,9.63-5.56,1.62-3.24-.48-8-1.58-10.56-.34-.8-.86-1.44-1.13-2.54-1.14-4.67-1.35-9.83-1.41-15.41-.18-15.54,4.24-33.33,10.07-42.11-10.93-.3-21.84-1.8-32.45-4.49-1.09,21.62-1.86,43.41,1.37,64.82-2.71-2.31-11.05-4.19-13.87-5.01-2.17-.64-6.37-1.62-13.33-1.27-6.8.34-14.51,2.39-15.33,3.87"/>
  </g>
  <g>
    <path class="cls-8" d="m78.92,266.5c6.53-1.32,16.38-.97,20.36-.75,1.16.06,2.26.52,3.13,1.28,1.85,1.63,6.57,5.29,6.3,6.36-.83,3.25-3.56,9.17-5.99,11.23-8.39,7.12-27.15,11.8-39.9,18.56.88-8.58,1.77-17.73,2.65-26.31.19-1.85.28-5.66.28-5.66,0,0,8.81-3.82,13.17-4.7"/>
    <g class="cls-20">
      <path d="m67.69,270.88c6.42-4.14,35.25-3.39,35.25-3.39,0,0,1.37,1.15,1.58,1.33-13.55,1.05-26.23,3.05-30.37,4.17-1.91.52-3.03,1.19-3.61,2.05-.57.84-.87,2.37-.87,3.97,0,1.73,10.16-1.64,13.12-2.32,6.66-1.52,25.88-3.66,25.92-3.5.01.06.01.13.01.14-.14.62-19.97,6.38-25.92,8.17-4.25,1.28-13.55,5.22-14.21,5.72-.08.06-.15.15-.17.25-.16.56-.47,2.88-.25,3.81.05.2.47.84.6.96,3.19,2.96,34.38-8,34.38-8,0,0-2.14,2.62-11.59,6.83-4.32,1.93-3.65,2.97-28.72,12.67-2.03-8.81-.66-17.72,1.06-26.59.35-1.83.74-3.7,1.68-5.33.93-1.64,1.64-.64,2.13-.95"/>
    </g>
  </g>
  <path class="cls-21" d="m162.43,284.52c1.94-7.85,3.66-12.78,5.07-24.64,0,0-.47,14.2-5.07,24.64Z"/>
  <g id="Tasse">
    <path class="cls-9" d="m1.61,248.66c-3.29,6.85-.62,31.13,1.09,40.74,1.36,7.63,5.18,24.39,8.7,27.91,2.41,2.41,6.64,3.86,9.94,4.7,9.79,2.49,19.24,2.1,29.21.48,3.25-.53,8.87-2.45,9.75-5.06,4.06-12.1,5.53-23.81,6.42-31.18,1.2-9.97,4.33-30,1.21-38.15-1.62-4.23-10.2-7.27-31.98-6.52-22.82.78-31.84,1.84-34.35,7.06"/>
    <path class="cls-9" d="m73.33,253.94c2.36-.17,6.44.42,8.72,1.07,7.5,2.16,11.11,7.21,12.14,10.55-1.73,0-2.76-.02-3.74-.02-2.15,0-3.26.02-4.69.16-.51.05-1.88.14-1.88.14,0,0-3.31-1.56-5.76-1.11-1.65.31-4.44,1.67-5.71,2.75-1.68,1.44-2.72,2.49-4.73,3.4-.56-2.56-1.13-5.14-1.17-7.77s-.5-5.49.92-7.69c.15.13,1.9-1.2,5.89-1.48"/>
    <path class="cls-9" d="m61.73,309.9c6,.04,11.27-.74,16.43-3.79,5.17-3.06,10.97-10.27,13.38-15.04-1.31.51-2.58.98-3.39,1.31-8.33,3.28-7.73,2.77-13.86,5.18-1.76.69-10.53,4.77-11.94,6.03-2.88,2.54-1.66,2.74-.62,6.31"/>
    <path class="cls-16" d="m9.49,246.59c0-1.01,11.27-1.83,25.18-1.83s25.18.82,25.18,1.83-11.27,1.83-25.18,1.83-25.18-.82-25.18-1.83"/>
    <g class="cls-20">
      <path d="m9.95,243.72c-.85.59-1.74,1.29-2.36,2.13-.61.83-.93,1.95-.57,2.93.56,1.49,3.64,2.7,5.2,3.01,2.79.55,4.17.69,7.11.95-5.58.34-10.9-.54-14.91-1.8-.56-.17-3.16-1.44-3.01-1.82.2-.51.74-1.55,1.39-2.16,1.78-1.66,3.6-2.4,7.14-3.25"/>
    </g>
    <g class="cls-20">
      <path d="m5.47,252.57s-1.49-.37-2.49-.87c-1.07-.53-2.01-1.2-2.01-1.2,0,0-1.23,4.51-.91,10.63.46,8.66.92,16.7,1.72,22.19,1.32,9.12,5.32,28.51,9.15,33.42,1.71,2.21,2.42,2.04,4.12,3.04.48.28,2.15.91,2.94,1.22,0,0-5.08-4.61-9.04-16.22-2.98-8.75-5.01-24.63-5.7-32.19-1.6-17.69,2.23-20.02,2.23-20.02Z"/>
    </g>
    <g class="cls-20">
      <path d="m47.23,322.98c2.13-.25,1.08-.1,4.32-.66.39-.07,1.22-.29,1.78-.46.71-.21,1.82-.61,3.08-1.14,1.33-.56,2.44-1.32,3.05-1.98.51-.55.77-1.14.81-1.25.47-1.43,1.16-3.38,2.06-6.78,2.41-9.17,3.12-14.75,4.28-23.43,1.42-10.65,3.06-22.49,2.54-32.83-.15-3.05-1.07-6.53-1.53-6.99-6.12,4.46-8.25,4.89-12.19,6.3,0,0-1.64,26.68-3.51,40.11"/>
    </g>
    <g class="cls-20">
      <path d="m47.23,241.57c2.96.37,4.59.72,11.2,2.33,1.27.31,2.49.73,3.25,1.73.76,1-.35,3.43-.88,4.08,3.46-1.02,6.02-3.29,6.02-3.29,0,0-.84-.77-1.32-1.09-.49-.33-1.04-.61-1.22-.7-5.2-2.67-15.53-3.07-17.06-3.07"/>
    </g>
    <g class="cls-20">
      <path d="m80.8,254.7c2.92,2.65,3.98,7.3,3.08,11.13.55-.04,1.4-.09,2.1-.15,1.48-.11.97-.05,3.21-.12.24,0,1.2-.03,1.35-.02.32.01.55,0,1.15,0,.28,0,.83.01,1.2.01.3,0,.78,0,1.28,0-1.86-5.74-7.1-9.41-13.38-10.87"/>
    </g>
    <g class="cls-20">
      <path d="m64.71,302.16c3.44-.44,3.85-.5,6.39-1.78,1.69-.85,3.83-2.29,8.58-4.91-1.45.55-2.95,1.08-4.29,1.63-2.84,1.15-5.41,2.35-8.29,3.79-1.04.52-2.23,1.13-2.4,1.27"/>
    </g>
    <g class="cls-20">
      <path d="m80.69,304.34c2.74-2.74,4.47-7.02,4.85-10.95.58-.24.73-.27,1.09-.42.49-.2.86-.33,1.29-.51.48-.2,3.33-1.28,3.62-1.4-.95,1.85-1.63,2.81-1.69,2.92-.11.16-.32.48-.42.64-.83,1.24-1.58,2.19-2.22,3.03-.82,1.06-1.78,2.12-2.65,3.07-1.35,1.48-3.26,3.19-3.86,3.62"/>
    </g>
  </g>
  <path class="cls-10" d="m41.51,145.19c-4.6,6.19-5.28,15.07-1.67,21.89,2.29,4.32,6.02,7.65,9.29,11.28,3.26,3.64,6.24,7.97,6.4,12.86.19,5.4-3.1,10.34-7,14.05-3.91,3.71-8.53,6.61-12.28,10.47-3.23,3.33-5.82,7.72-5.93,12.29-.01.43-.59.53-.74.12-2.75-7.52-1.38-16.51,3.65-22.76,2.52-3.13,5.91-5.71,7.36-9.46,1.4-3.64.69-7.77-.67-11.43-1.36-3.65-3.35-7.06-4.6-10.75-3.23-9.64-.78-20.98,6.19-28.56"/>
  <path class="cls-12" d="m288.82,88.08c1.27,4.55,1.42,9.3,1.2,14.02-.33,7.36-2.06,14.63-5.81,20.97,4.09-4.73,6.75-10.68,7.58-16.87.82-6.2-.2-12.63-2.97-18.12Z"/>
  <g>
    <g>
      <path class="cls-6" d="m261.7,85.7c-1.42-6.96-14.91-11.58-14.91-11.58,0,0-11.5,8.16-9.84,17.59,1.66,9.43,8.27,14.57,15.04,12.62,7.24-2.08,11.63-9.26,9.71-18.64Z"/>
      <path class="cls-21" d="m255.44,91.19c.15,2.4.62,6.97-1.87,12.63,2.63-1.18,4.7-2.88,6.26-5.3,1.54-2.4,2.36-5.53,2.32-8.56-2.11.45-3.55.79-6.71,1.23Z"/>
      <circle class="cls-18" cx="244.9" cy="93.69" r="3.89" transform="translate(64.62 284.1) rotate(-67.5)"/>
      <circle class="cls-6" cx="243.83" cy="92.76" r="1.76"/>
      <g>
        <path class="cls-14" d="m249.01,72.98c-12.91.08-12.3,17.65-12.3,17.58,0,0,9.03,3.17,25.61-.64,0,0,.04-.69-.11-2-.52-4.58-2.9-15.01-13.21-14.94Z"/>
        <path class="cls-22" d="m262.33,89.75v-.12h0c0-.13,0-.29-.01-.48-.03-.48-.1-1.18-.17-1.81-.07-.52-.16-1.1-.29-1.71-.23-1.1-.54-2.26-.9-3.35-.26-.75-.57-1.51-.94-2.26-.22-.43-.48-.9-.8-1.42-.23-.38-.51-.77-.79-1.15-.68-.89-1.47-1.7-2.41-2.38-.46-.32-.95-.62-1.42-.87-1.49-.77-3.27-1.22-5.39-1.23-.16,0-.33,0-.5.01-.05,0-.1,0-.16,0-.57.03-1.16.1-1.8.2-.01,0-.02,0-.03,0,2.18.85,5.55,4.2,7.85,12.49.54,1.96.8,3.8.87,5.49,2.13-.29,4.42-.7,6.89-1.27,0,0,0-.06,0-.16Z"/>
      </g>
    </g>
    <g>
      <path class="cls-6" d="m183.3,90.36c-.89-6.62-13.25-11.82-13.25-11.82,0,0-11.32,6.92-10.37,15.88.95,8.96,6.83,14.2,13.3,12.81,6.93-1.49,11.51-7.94,10.31-16.87Z"/>
      <circle class="cls-18" cx="167.02" cy="96.79" r="3.66"/>
      <circle class="cls-6" cx="166.08" cy="95.84" r="1.65"/>
      <g>
        <path class="cls-14" d="m172.22,77.61c-12.12-.75-12.68,15.77-12.67,15.7,0,0,8.27,3.56,24.08,1.05,0,0,.08-.64.03-1.89-.2-4.33-1.76-14.26-11.44-14.86Z"/>
        <g>
          <path class="cls-14" d="m172.27,77.61c-12.07-.75-12.62,15.77-12.62,15.71,0,0,8.23,3.56,23.97,1.05,0,0,.08-.64.03-1.89-.2-4.33-1.75-14.27-11.39-14.87Z"/>
          <path class="cls-22" d="m176.61,89.91c.24,1.12,1.21,5.98-.28,11.93-.52,2.07-1.21,3.75-1.77,4.94.86-.27,1.54-.59,2.03-.86,1.01-.55,1.69-1.13,2.14-1.52.29-.25.75-.65,1.28-1.24.25-.27,1.16-1.32,1.95-2.95.15-.31.54-1.13.87-2.26.32-1.12.44-2.03.5-2.53.05-.41.08-.76.1-1.02.06,0,.13-.02.19-.03.01-.21.03-.49.03-.82,0,0,.01-.8-.04-1.64-.19-3.05-.97-5.46-.97-5.46-.2-.69-.57-1.66-1.2-2.88-.43-.82-1.04-1.76-1.57-2.39-.79-.93-2.3-2.03-3.35-2.52-2.04-.96-3.93-1.19-6.47-.97,1.7,1.77,5.19,5.9,6.56,12.22Z"/>
          <path class="cls-16" d="m202.94,127.89c6.48-2.99,12.83-6.29,18.99-9.88.09,4-2.59,8.76-6.34,10.18-3.74,1.42-9,1.1-12.65-.29Z"/>
        </g>
      </g>
    </g>
  </g>
  <g>
    <path id="logo-scrumlr-on-dark-sticker-a" class="cls-7" d="m176.69,314.7s36.86-11.47,83.72-13.36c1.11-.04,2.04.63,2.04,1.46,0,.77-.8,1.41-1.82,1.46-8.53.36-45.52,2.34-79.15,10.44,0,.12-4.78.75-4.78,0m75.24-30.25c1.04-1.86,1.83-3.11,1.95-3.07.18.09-.21,1.43-1.25,3.24-.7,1.23-1.74,2.72-3.05,4.12.21-.53,1.55-2.9,2.35-4.29m-56.13,1.43c.73-.1,1.34.03,1.86.37.85.65,1.4,1.54,1.61,2.3.3,1.16-.46,2.43-.91,3.14-.73,1.03-1.61,2.67-2.04,3.43-.27.5-.61.78-1.19.27-.43-.35-.73-.81-.73-1.48s.4-1.81,1.4-3.23c.05-.08.11-.17.16-.25l.05-.07h0l.05-.07s.02-.02.02-.04l.05-.07c.65-1.05,1.2-2.11.84-2.31-1.13-.64-7.8,4.54-7.95,7.93-.09,1.94,4.08,3.06,5.27,3.72.58.33.92.82.92,1.37,0,.67-.4,1.49-1.19,2.5-.79.98-2.28,1.8-4.11,2.04-2.22.29-5.18-.51-7.58-2.86-.43-.44-.21-.79.21-1,.24-.09.58-.17.94-.21.88-.12,1.74,0,2.37.42,1.19.78,3.2,1.98,4.96,1.74.67-.09,1.28-.32,1.62-.68.46-.5.3-1.01-.03-1.23-2.19-1.35-6.43-2.37-6.43-5.36,0-3.98,4.75-8.09,7.49-9.57,1-.54,1.64-.72,2.34-.81Zm57.07-7.03c.58-.63,1.13-.88,1.71-.43.67.47,1,1.24,1,2.01,0,.41-.03.73-.18,1.25-.94,3.61-4.26,7.5-6.94,9.59-.61,1.57-1.01,2.94-1.01,3.97,0,.7.18,1.18.58,1.12,1.4-.19,3.17-2.38,4.32-4.64.11-.22.24-.38.38-.49.64-1.01,1.39-2.12,2.18-3.16-.37-.27-.58-.63-.58-1.01,0-1.49,1.95-3.83,2.89-3.95.64-.08.91.23.91.9,0,.56-.21,1.43-.55,2.41.73-.27,1.55-.79,2.47-1.56.52-.42.82-.52,1.22-.19.43.35.88,1.05.88,1.76,0,.35-.15.78-.49,1.21-1.64,2.03-3.38,4.58-3.38,6.3,0,.76.24,1.2.67,1.14,1.04-.14,2.25-1.94,3.2-4.08.24-.56.67-.64.94-.15.21.38.24,1.08-.09,1.92-.73,1.77-2.53,3.26-4.26,3.49-1.86.25-2.86-.88-2.86-2.46,0-1.87,1.61-4.34,3.14-6.33-.79.43-1.55.65-2.22.76-2.28,4.11-4.02,7.03-4.45,9.11-.12.54-.52.86-1.07.37-.42-.32-.65-.76-.73-1.26-.76.52-1.61.93-2.5,1.05-1.47.19-2.49-.32-2.86-1.54-1.06,1.3-2.65,2.36-4.09,2.55-2.07.27-3.2-.66-3.2-2.24,0-.53.12-1.19.46-1.96.49-1.06,1.49-2.77,2.19-3.92.67-1.06,1.4-2.03,1.16-2-.24.03-.88.41-2.68,2.38-2.38,2.6-3.84,5.57-5.12,8.46-.3.6-.73.74-1.22.34-.46-.38-.67-.76-.67-1.52,0-.5.24-1.47.55-2.24.43-1.11,1.43-2.82,2.25-4.16.82-1.43,1.68-2.65,1.4-2.62-.24.03-1.43.83-3.26,3.01-1.7,1.98-3.11,4.83-4.29,7.68-.21.5-.55.72-1.07.35-.21-.15-.39-.34-.52-.58-.84.69-1.8,1.18-2.73,1.31-1.8.24-2.71-.49-2.83-1.79-1.04,1.25-2.41,2.34-3.96,2.54-1.06.14-1.68-.3-1.96-1-1.01.97-2.34,1.66-3.43,1.8-1.95.26-3.02-.89-3.02-2.62,0-1.52,1.61-4.52,3.29-6.64-.82.43-1.68.72-2.38.84-2.19,4.97-5.6,9.41-9.47,9.92-2.8.37-4.32-1.18-4.32-3.47,0-1.02.3-2.24.91-3.49,1.61-3.2,4.02-5.16,5.79-5.39.4-.05.76-.04,1.07.09.91.41,1.46.86,1.8,1.43.42.81.04,1.83-.48,2.94l-.04.08c-.03.06-.06.13-.09.2-.21.47-.46.94-.55,1.27-.21.64-.33.8-1.1.53-.61-.21-1.07-.77-1.07-1.56,0-.44.4-1.46.7-2.17.02-.04.03-.07.05-.11l.03-.06c.27-.59.52-1.12.38-1.21-.4-.24-2.35,1.8-3.62,4.46-.61,1.28-.91,2.49-.91,3.37,0,1.23.52,1.98,1.4,1.92,2.98-.28,6.24-4.99,7.83-8.8-.64-.21-.85-.62-.85-1.17,0-1.55,2.01-3.96,3.05-4.12.64-.08.88.26.88.91s-.24,1.53-.58,2.54c.85-.32,1.68-.81,2.65-1.61.46-.38.94-.57,1.34-.21.49.46.85,1.12.85,1.88,0,.35-.15.81-.52,1.24-1.31,1.64-2.8,3.74-3.29,5.35-.15.46-.24.91-.24,1.35,0,.73.24,1.14.7,1.11.96-.05,2.53-1.87,3.48-3.85.69-1.94,2.22-5.02,4.08-7.78.4-.55.94-.57,1.31-.17.33.37.46.85.46,1.29,0,1.2-2.22,4.89-3.29,7.29-.55,1.24-.64,2.34.03,2.25.79-.11,2.41-2.31,3.96-4.86,1.8-3.05,2.59-5.14,3.68-6.64.43-.61.91-.79,1.28-.35.3.37.46.82.46,1.46,0,1-.64,2.37-1.71,4.21-.88,1.49-2.07,3.64-2.07,4.78,0,.53.18.8.58.74.74-.1,1.77-1.32,2.7-2.75.72-1.94,2.82-6.1,4.61-8.96.4-.61.85-.64,1.16-.15.27.4.43.88.43,1.35,0,.23-.03.5-.09.8,1.31-1.4,3.01-2.74,3.99-2.87.97-.13,1.61.84,1.61,2.07,1.37-1.35,2.98-2.56,3.96-2.66.88-.09,1.37.64,1.37,1.6s-.64,2.43-1.89,4.44c-.04.06-.08.13-.12.19l-.06.1c-.04.06-.08.13-.12.19l-.06.1c-.71,1.18-1.29,2.33-1.29,3.21,0,.67.3,1.1.79,1.04.94-.13,2.44-2.37,3.56-4.31.08-.13.16-.23.24-.3,1.3-4.89,4.59-10.46,7.47-13.75Z"/>
    <g class="cls-3">
      <g>
        <path class="cls-38" d="m177.34,310.72l19.34-2.05c1.23-.13,2.35.74,2.52,1.97v.09c.19,1.22-.66,2.35-1.88,2.52-.03,0-.05,0-.08,0l-19.34,2.05c-1.23.13-2.35-.74-2.52-1.97v-.09c-.19-1.22.66-2.35,1.88-2.52.03,0,.05,0,.08,0Z"/>
        <path class="cls-35" d="m199.58,306.88l19.34-2.05c1.23-.13,2.35.74,2.52,1.97v.09c.19,1.22-.66,2.35-1.88,2.52-.03,0-.05,0-.08,0l-19.34,2.05c-1.23.13-2.35-.74-2.52-1.97v-.09c-.19-1.22.66-2.35,1.88-2.52.03,0,.05,0,.08,0Z"/>
        <path class="cls-36" d="m220.94,303.81l19.34-2.05c1.23-.13,2.35.74,2.52,1.97v.09c.19,1.22-.66,2.35-1.88,2.52-.03,0-.05,0-.08,0l-19.34,2.05c-1.23.13-2.35-.74-2.52-1.97v-.09c-.19-1.22.66-2.35,1.88-2.52.03,0,.05,0,.08,0Z"/>
        <path class="cls-37" d="m241.41,302.27l19.34-2.05c1.23-.13,2.35.74,2.52,1.97v.09c.19,1.22-.66,2.35-1.88,2.52-.03,0-.05,0-.08,0l-19.34,2.05c-1.23.13-2.35-.74-2.52-1.97v-.09c-.19-1.22.66-2.35,1.88-2.52.03,0,.05,0,.08,0Z"/>
      </g>
    </g>
  </g>
</svg>