<svg width="242" height="622" viewBox="0 0 242 622" fill="none" xmlns="http://www.w3.org/2000/svg">
<g clip-path="url(#clip0_15438_64226)">
<path d="M195.297 446.997C198.003 448.608 200.792 450.023 203.802 449.107C226.277 442.222 244.887 418.43 249.775 410.379C264.602 385.92 257.809 391.861 260.156 366.514C262.503 341.167 249.139 337.197 243.258 312.988C254.358 367.291 229.48 312.072 277.469 414.238C283.571 427.203 292.406 456.492 312.314 482.755C335.839 513.821 351.191 531.812 397.606 564.294C405.088 569.513 411.411 577.758 420.192 581.034C423.312 582.2 417.596 576.703 429.552 563.35C436.897 555.132 439.382 554.382 440.983 551.689C441.535 550.801 428.724 534.282 428.172 533.394C419.363 519.402 413.537 510.101 409.203 494.915C403.156 473.705 400.726 459.99 393.133 443.416C408.015 441.306 418.121 430.59 414.504 426.953C413.952 426.398 408.181 446.081 418.121 491.972C418.563 493.971 418.287 494.887 418.287 494.887C418.287 494.887 419.557 494.61 420.026 494.61C422.014 494.665 426.763 495.137 432.065 496.831C443.634 500.496 449.487 509.241 453.187 504.382C475.194 475.759 478.341 433.977 482.732 405.659C485.52 387.752 486.597 299.468 416.271 255.936C367.537 225.786 344.73 245.248 340.975 192.971C344.067 187.224 357.569 108.601 354.974 72.4266C354.67 68.1789 355.084 63.9312 353.648 59.9335C347.298 42.2765 332.112 -5.78025 326.645 -24.2423C321.233 -42.5099 321.178 -39.6504 321.26 -54.2257C321.371 -68.4678 309.94 -39.6226 295.803 -40.2612C274.625 -41.2051 275.343 -54.309 286.277 -36.0413C304.528 -5.55815 297.018 38.4731 295.692 59.7669C293.511 95.3583 258.583 145.775 245.798 151.549C232.462 139.223 209.876 140.694 196.181 152.604C182.513 164.542 177.488 184.531 180.829 202.438C184.336 221.261 195.794 237.53 202.476 255.464C214.46 287.641 210.456 344.443 202.476 370.678C199.853 367.069 195.463 381.45 184.501 382.588C160.397 385.059 123.011 382.144 133.172 397.191C141.731 409.879 171.524 432.866 195.27 447.025L195.297 446.997Z" fill="#D0895A"/>
<path d="M147.977 201.383C156.674 220.678 191.796 236.391 197.76 249.634C217.364 293.165 205.519 311.655 217.999 313.987C255.33 320.956 274.575 302.022 299.895 279.562C331.703 251.327 347.193 225.508 342.941 204.104C339.765 188.113 310.249 204.659 284.405 182.421C273.747 173.232 254.06 142.888 245.5 134.17C225.62 113.82 198.616 114.681 184.783 122.926C187.572 123.232 190.112 121.871 190.581 118.762C191.216 114.403 188.179 113.654 185.556 114.598C183.237 115.43 181.138 117.707 181.193 120.733C181.193 120.733 181.525 118.734 181.552 118.595C181.884 116.763 180.613 114.986 179.923 114.32C178.57 112.987 175.892 111.016 173.296 111.932C170.977 112.738 170.038 115.486 170.591 117.041C171.667 119.984 176.969 122.538 174.29 124.537C150.02 142.499 131.272 164.403 147.949 201.411L147.977 201.383Z" fill="#D0895A"/>
<path opacity="0.05" d="M248.064 151.022C233.292 131.144 204.852 149.55 191.129 159.878C177.406 170.206 150.071 193.665 164.843 213.543C179.615 233.421 210.236 235.558 233.209 218.29C256.209 201.022 262.863 170.9 248.064 151.022Z" fill="black"/>
<path d="M188.474 143.721C202.611 125.731 216.03 126.648 225.887 130.923C233.563 134.254 244.193 141.611 247.755 148.441C249.163 151.134 251.289 154.382 252.118 157.297C255.045 167.375 253.747 177.758 251.234 184.643C247.728 194.194 242.454 205.132 226.964 216.376L179.168 152.05C184.277 149.913 187.314 145.221 188.474 143.749V143.721Z" fill="#F1D1B5"/>
<path d="M196.071 226.093C188.809 226.565 178.51 224.872 169.73 219.208C167.189 217.57 164.677 214.6 162.523 212.49C157.028 207.132 153.052 194.778 152.031 186.421C150.733 175.677 153.66 162.49 174.838 153.967C176.577 153.273 181.906 151.69 185.413 147.359L233.208 211.685C218.105 223.428 206.176 225.399 196.071 226.066V226.093Z" fill="#F1D1B5"/>
<mask id="mask0_15438_64226" style="mask-type:luminance" maskUnits="userSpaceOnUse" x="202" y="127" width="55" height="56">
<path d="M202.197 150.991L233.425 127.532L256.978 159.236L225.749 182.696L202.197 150.991Z" fill="white"/>
</mask>
<g mask="url(#mask0_15438_64226)">
<path d="M208.029 147.827C207.091 149.576 206.069 152.63 207.091 155.767C208.112 158.904 210.404 162.43 212.806 164.707C214.877 166.65 217.61 168.121 220.427 168.344C224.099 168.649 228.048 166.622 230.118 164.818C232.051 163.124 234.868 159.487 238.264 157.377C239.423 156.656 242.074 155.795 243.289 155.739C245.719 155.628 250.385 157.294 252.76 159.487C251.683 154.907 250.551 152.797 248.701 149.493C245.995 144.634 242.93 142.33 241.522 140.998C239.23 138.86 236.938 137.277 236.938 137.277C236.938 137.277 232.769 137.666 231.002 137.833C227.606 138.194 225.121 138.083 221.78 138.804C218.963 139.443 217.031 140.415 214.518 141.83C212.088 143.191 208.885 146.078 208.002 147.772L208.029 147.827Z" fill="#D9A171"/>
<path opacity="0.1" d="M236.964 137.329C236.964 137.329 238.51 138.412 240.553 140.161C242.817 142.105 246.103 144.964 248.643 149.351C249.334 150.517 250.273 152.293 250.714 153.293C251.984 156.208 252.647 158.762 252.785 159.512C251.322 158.096 249.637 157.457 249.637 157.457C249.637 157.457 248.837 153.848 247.87 151.96C246.766 149.823 244.364 145.519 241.409 142.632C239.477 140.744 237.295 138.718 235.473 137.468C236.191 137.385 236.909 137.329 236.991 137.329H236.964Z" fill="#523618"/>
</g>
<path d="M236.355 136.725C241.049 140.5 243.893 143.082 246.792 147.052C249.664 150.967 252.066 154.493 252.784 159.767C253.143 155.686 251.956 154.048 250.023 150.439C248.09 146.83 245.439 143.693 242.678 140.667C241.877 139.778 241.049 138.918 240.027 138.307C239.006 137.696 238.233 137.03 236.355 136.725Z" fill="#D0895A"/>
<path d="M173.346 173.872C175.279 173.456 178.482 173.345 181.187 175.233C183.921 177.093 186.627 180.313 188.09 183.284C189.36 185.838 189.968 188.892 189.416 191.668C188.67 195.305 185.605 198.525 183.314 200.025C181.16 201.413 176.88 203.106 173.926 205.771C172.904 206.687 171.33 208.992 170.916 210.158C170.143 212.462 170.474 217.57 171.882 220.485C167.824 218.153 166.056 216.293 163.406 213.573C159.54 209.603 158.215 205.966 157.359 204.244C155.978 201.44 155.178 198.747 155.178 198.747C155.178 198.747 156.641 194.861 157.331 193.223C158.629 190.03 159.236 187.615 160.893 184.616C162.274 182.09 163.792 180.507 165.836 178.453C167.796 176.51 171.496 174.233 173.346 173.844V173.872Z" fill="#D9A171"/>
<path opacity="0.1" d="M155.151 198.804C155.151 198.804 155.675 200.581 156.78 203.052C157.995 205.772 159.79 209.77 163.241 213.463C164.152 214.434 165.588 215.85 166.416 216.572C168.846 218.626 171.165 220.153 171.828 220.487C170.917 218.682 170.668 216.711 170.668 216.711C170.668 216.711 167.438 214.906 165.919 213.435C164.18 211.769 160.784 208.243 158.851 204.551C157.581 202.136 156.311 199.554 155.62 197.444C155.372 198.138 155.096 198.776 155.096 198.804H155.151Z" fill="#523618"/>
<path d="M155.172 198.747C157.436 204.328 158.9 207.437 161.854 211.351C164.781 215.238 169.171 219.43 173.976 221.596C169.972 220.791 167.045 218.32 164.146 215.433C161.247 212.545 159.01 209.075 156.912 205.577C156.304 204.55 155.697 203.495 155.421 202.356C155.145 201.19 154.924 200.663 155.145 198.775L155.172 198.747Z" fill="#D0895A"/>
<path d="M198.88 174.535C191.066 180.865 195.511 193.58 197.499 197.522C199.487 201.492 202.69 209.238 207.108 211.153C208.24 211.653 210.201 212.902 216.524 208.488C220.251 205.879 222.156 203.13 226.74 200.465C232.455 197.133 234.94 192.747 233.063 188.749C230.578 183.502 226.215 180.42 222.212 177.255C211.305 168.649 203.408 170.842 198.88 174.535Z" fill="#D9A171"/>
<path opacity="0.14" d="M220.781 192.5C219.539 193.444 214.099 197.525 212.222 198.941C212.222 198.941 215.397 202.3 219.18 199.413C222.907 196.609 220.781 192.5 220.781 192.5Z" fill="black"/>
<path d="M220.451 191.472C219.125 192.471 213.327 196.83 211.311 198.329C211.311 198.329 214.514 201.66 218.546 198.579C222.522 195.608 220.423 191.472 220.423 191.472H220.451Z" fill="#252525"/>
<path d="M198.825 190.889C196.423 187.446 198.743 182.394 203.906 178.729C209.069 175.092 214.812 174.537 217.242 178.007C219.644 181.45 217.325 187.252 212.162 190.917C206.998 194.554 201.228 194.359 198.825 190.917V190.889Z" fill="#252525"/>
<path opacity="0.14" d="M217.685 178.757C218.707 182.089 218.237 185.837 216.442 188.724C214.648 191.611 211.5 193.638 208.076 194.11C205.232 194.499 201.919 193.666 200.373 191.167C202.968 191.084 205.425 190.001 207.496 188.53C209.567 187.058 211.362 185.198 213.101 183.338C214.565 181.784 216.028 180.257 217.657 178.73L217.685 178.757Z" fill="#252525"/>
<mask id="mask1_15438_64226" style="mask-type:luminance" maskUnits="userSpaceOnUse" x="210" y="179" width="4" height="8">
<path d="M210.482 179.315H213.437V186.228H210.482V179.315Z" fill="white"/>
</mask>
<g mask="url(#mask1_15438_64226)">
<path d="M210.758 183.146C210.123 180.786 210.675 179.564 211.586 179.315C212.497 179.065 213.326 180.37 213.409 182.368C213.464 183.396 213.464 185.061 213.022 186.005C212.663 186.755 211.31 185.117 210.785 183.146H210.758Z" fill="#252525"/>
</g>
<mask id="mask2_15438_64226" style="mask-type:luminance" maskUnits="userSpaceOnUse" x="201" y="185" width="9" height="6">
<path d="M202.642 185.417L209.272 187.244L208.491 190.109L201.861 188.282L202.642 185.417Z" fill="white"/>
</mask>
<g mask="url(#mask2_15438_64226)">
<path d="M206.234 186.642C204.136 185.392 202.81 185.614 202.341 186.447C201.872 187.28 202.893 188.418 204.798 189.029C205.792 189.335 207.366 189.779 208.388 189.612C209.189 189.473 207.974 187.724 206.234 186.669V186.642Z" fill="#252525"/>
</g>
<mask id="mask3_15438_64226" style="mask-type:luminance" maskUnits="userSpaceOnUse" x="210" y="179" width="4" height="8">
<path d="M210.482 179.315H213.437V186.228H210.482V179.315Z" fill="white"/>
</mask>
<g mask="url(#mask3_15438_64226)">
<path d="M210.758 183.146C210.123 180.786 210.675 179.564 211.586 179.315C212.497 179.065 213.326 180.37 213.409 182.368C213.464 183.396 213.464 185.061 213.022 186.005C212.663 186.755 211.31 185.117 210.785 183.146H210.758Z" fill="#252525"/>
</g>
<mask id="mask4_15438_64226" style="mask-type:luminance" maskUnits="userSpaceOnUse" x="201" y="185" width="9" height="6">
<path d="M202.642 185.417L209.272 187.244L208.491 190.109L201.861 188.282L202.642 185.417Z" fill="white"/>
</mask>
<g mask="url(#mask4_15438_64226)">
<path d="M206.234 186.642C204.136 185.392 202.81 185.614 202.341 186.447C201.872 187.28 202.893 188.418 204.798 189.029C205.792 189.335 207.366 189.779 208.388 189.612C209.189 189.473 207.974 187.724 206.234 186.669V186.642Z" fill="#252525"/>
</g>
<mask id="mask5_15438_64226" style="mask-type:luminance" maskUnits="userSpaceOnUse" x="210" y="179" width="4" height="8">
<path d="M210.482 179.315H213.437V186.228H210.482V179.315Z" fill="white"/>
</mask>
<g mask="url(#mask5_15438_64226)">
<path d="M210.758 183.146C210.123 180.786 210.675 179.564 211.586 179.315C212.497 179.065 213.326 180.37 213.409 182.368C213.464 183.396 213.464 185.061 213.022 186.005C212.663 186.755 211.31 185.117 210.785 183.146H210.758Z" fill="#484747"/>
</g>
<mask id="mask6_15438_64226" style="mask-type:luminance" maskUnits="userSpaceOnUse" x="201" y="185" width="9" height="6">
<path d="M202.642 185.417L209.272 187.244L208.491 190.109L201.861 188.282L202.642 185.417Z" fill="white"/>
</mask>
<g mask="url(#mask6_15438_64226)">
<path d="M206.234 186.642C204.136 185.392 202.81 185.614 202.341 186.447C201.872 187.28 202.893 188.418 204.798 189.029C205.792 189.335 207.366 189.779 208.388 189.612C209.189 189.473 207.974 187.724 206.234 186.669V186.642Z" fill="#484747"/>
</g>
<path opacity="0.67" d="M210.784 177.728C211.751 180.088 212.165 182.642 212.579 185.168C212.634 185.529 212.69 185.89 212.634 186.251C212.579 186.612 212.331 186.945 211.972 187.056C211.585 187.167 211.171 186.945 210.922 186.584C210.674 186.251 210.591 185.834 210.536 185.446C210.287 184.28 210.067 183.114 209.818 181.975C209.68 181.226 209.514 180.476 209.625 179.699C209.735 178.922 210.122 178.2 210.812 177.756L210.784 177.728Z" fill="#252525"/>
<path opacity="0.67" d="M201.126 185.724C203.39 186.863 205.654 187.973 207.918 189.111C208.139 189.222 208.387 189.333 208.636 189.361C208.884 189.361 209.188 189.25 209.271 189C209.409 188.667 209.133 188.306 208.857 188.056C207.172 186.557 205.046 185.669 202.893 185.114C202.506 185.002 202.064 184.919 201.678 185.03C201.291 185.141 200.905 185.613 201.126 185.724Z" fill="#252525"/>
<path d="M226.997 146.801C222.939 143.22 212.695 146.634 212.695 146.634C212.695 146.634 209.492 156.879 214.821 161.848C220.15 166.818 226.5 166.873 229.676 162.57C233.1 157.961 232.465 151.576 226.997 146.773V146.801Z" fill="white"/>
<path opacity="0.14" d="M225.727 153.022C226.914 154.41 229.288 156.964 230.393 161.545C231.442 159.629 231.911 157.63 231.746 155.437C231.58 153.272 230.641 150.995 229.233 149.163C228.156 150.412 227.438 151.273 225.754 152.994L225.727 153.022Z" fill="black"/>
<path d="M220.505 162.348C218.873 162.348 217.55 161.018 217.55 159.377C217.55 157.737 218.873 156.407 220.505 156.407C222.136 156.407 223.459 157.737 223.459 159.377C223.459 161.018 222.136 162.348 220.505 162.348Z" fill="#252525" stroke="#252525" stroke-miterlimit="10"/>
<path d="M219.426 160.655C218.694 160.655 218.1 160.059 218.1 159.323C218.1 158.587 218.694 157.99 219.426 157.99C220.158 157.99 220.751 158.587 220.751 159.323C220.751 160.059 220.158 160.655 219.426 160.655Z" fill="white"/>
<path d="M213.495 144.914C205.737 150.91 214.158 161.293 214.13 161.238C214.13 161.238 221.033 159.017 229.289 149.05C229.289 149.05 229.013 148.606 228.295 147.884C225.893 145.358 219.68 140.111 213.468 144.914H213.495Z" fill="#D29166"/>
<path opacity="0.13" d="M212.226 146.109C212.558 145.748 212.889 145.442 213.221 145.165C213.248 145.165 213.276 145.109 213.303 145.081C213.414 144.998 213.497 144.915 213.607 144.832C214.877 143.86 216.175 143.305 217.417 143.083C217.804 143.027 218.246 142.971 218.66 142.971C219.543 142.971 220.399 143.082 221.2 143.305C221.559 143.416 221.89 143.527 222.194 143.638C222.636 143.804 222.995 143.971 223.326 144.137C223.878 144.415 224.431 144.748 224.928 145.081C225.646 145.581 226.364 146.136 226.999 146.692C227.358 146.997 227.661 147.302 227.965 147.608C228.296 147.941 228.655 148.33 228.904 148.635C228.987 148.746 229.069 148.857 229.125 148.913C229.125 148.913 229.152 148.968 229.18 148.996C229.235 149.051 229.263 149.107 229.263 149.107C228.048 150.578 226.833 151.911 225.673 153.049C224.845 152.05 223.851 151.05 222.636 150.106C217.445 146.136 213.883 145.637 212.171 146.136L212.226 146.109Z" fill="black"/>
<path d="M182.207 181.671C178.645 178.061 168.787 180.588 168.787 180.588C168.787 180.588 165.115 189.999 169.809 194.997C174.503 199.994 180.439 200.466 183.725 196.635C187.232 192.554 187.039 186.501 182.207 181.643V181.671Z" fill="white"/>
<path opacity="0.14" d="M180.633 187.417C181.655 188.806 183.726 191.36 184.471 195.718C185.576 193.969 186.156 192.137 186.128 190.083C186.128 188.028 185.382 185.835 184.168 184.058C183.091 185.141 182.373 185.918 180.661 187.417H180.633Z" fill="black"/>
<path d="M175.336 195.859C173.796 195.859 172.548 194.603 172.548 193.055C172.548 191.506 173.796 190.251 175.336 190.251C176.876 190.251 178.125 191.506 178.125 193.055C178.125 194.603 176.876 195.859 175.336 195.859Z" fill="#252525" stroke="#252525" stroke-miterlimit="10"/>
<path d="M174.343 194.164C173.657 194.164 173.101 193.605 173.101 192.915C173.101 192.225 173.657 191.665 174.343 191.665C175.03 191.665 175.586 192.225 175.586 192.915C175.586 193.605 175.03 194.164 174.343 194.164Z" fill="white"/>
<path d="M169.672 179.035C162.024 184.171 169.258 194.443 169.23 194.415C169.23 194.415 175.857 192.777 184.251 183.949C184.251 183.949 184.002 183.532 183.395 182.783C181.297 180.229 175.802 174.926 169.672 179.035Z" fill="#D29166"/>
<path opacity="0.13" d="M168.401 180.063C168.732 179.729 169.063 179.479 169.395 179.23C169.422 179.23 169.45 179.174 169.477 179.174C169.56 179.091 169.671 179.035 169.781 178.98C171.051 178.147 172.294 177.73 173.481 177.592C173.868 177.564 174.254 177.536 174.668 177.564C175.497 177.619 176.297 177.786 177.043 178.036C177.374 178.147 177.678 178.286 177.954 178.425C178.341 178.619 178.672 178.785 178.976 178.952C179.473 179.257 179.97 179.591 180.412 179.924C181.047 180.423 181.709 181.006 182.262 181.589C182.565 181.895 182.841 182.228 183.09 182.506C183.366 182.839 183.697 183.227 183.891 183.533C183.973 183.644 184.029 183.755 184.084 183.81C184.084 183.81 184.111 183.866 184.139 183.894C184.167 183.949 184.194 184.005 184.194 184.005C182.952 185.31 181.737 186.476 180.577 187.475C179.859 186.476 179.003 185.476 177.927 184.532C173.315 180.451 170.002 179.785 168.373 180.118L168.401 180.063Z" fill="black"/>
<path opacity="0.14" d="M170.554 116.762C170.913 118.261 173.288 120.399 174.116 121.371C174.337 121.621 174.862 122.315 175.027 122.898C175.221 123.62 174.862 123.98 174.862 123.98C174.862 123.98 178.23 124.48 179.832 126.424C184.94 132.587 189.137 141.249 185.823 147.134C194.576 143.275 205.013 135.946 211.447 134.947C238.478 130.754 244.083 160.433 246.375 169.705C250.103 184.78 245.878 197.162 245.878 197.162C245.878 197.162 267.443 207.657 273.793 231.31C277.189 244.025 283.816 272.371 279.122 289.334C274.428 306.297 258.441 311.933 263.411 313.515C288.289 321.538 299.776 255.103 299.776 255.103C299.776 255.103 314.133 256.463 281.883 153.464C279.619 146.218 276.278 154.047 258.994 148.217C258 147.884 255.597 146.468 254.217 144.691C252.091 141.943 249.33 138.25 246.127 134.724C242.731 130.977 239.169 128.367 237.098 126.951C233.812 124.73 229.836 122.453 225.253 120.76C214.539 116.79 205.786 117.456 205.428 117.428C205.069 117.401 204.958 117.428 204.489 117.456C202.86 117.539 199.878 117.817 197.034 118.345C193.665 118.983 190.131 120.316 190.131 120.316C190.131 120.316 190.573 119.483 190.683 118.289C190.766 117.401 190.738 116.179 190.048 115.263C188.888 113.708 186.21 113.986 184.36 115.124C182.206 116.457 181.571 118.511 181.571 118.511C181.571 118.511 181.737 117.789 181.489 116.845C181.212 115.818 180.246 113.819 177.374 112.32C176.712 111.987 175.166 111.265 173.343 111.82C171.797 112.292 170.969 113.653 170.637 114.819C170.389 115.624 170.527 116.568 170.554 116.707V116.762Z" fill="#523618"/>
<path d="M112.601 360.961C109.094 354.187 109.287 345.525 111.69 336.78C114.092 328.035 118.62 319.096 123.701 310.295C128.256 302.438 133.806 294.109 142.614 288.529C135.684 308.018 128.312 328.451 126.241 346.497C125.937 349.134 125.606 351.855 124.197 354.576C122.762 357.324 119.89 360.156 116.549 361.156C113.208 362.155 110.005 360.462 112.601 360.934V360.961Z" fill="#F1DEA6"/>
<path opacity="0.14" d="M139.545 296.915C139.545 296.915 139.628 296.915 139.628 296.943C133.664 313.767 128.804 328.204 126.264 344.805C125.629 348.998 125.96 351.219 125.077 354.217C124.193 357.243 123.558 358.937 119.223 362.601C118.616 363.129 117.705 363.434 116.931 363.184C115.772 362.823 115.606 361.38 115.661 360.241C116.241 348.942 119.168 337.782 123.503 327.176C127.783 316.682 133.443 306.715 139.573 296.915H139.545Z" fill="black"/>
<path d="M120.219 379.588C127.84 393.803 141.48 406.212 154.651 415.429C167.683 424.536 182.952 434.363 195.018 437.639C195.239 437.695 195.46 437.556 195.488 437.306C196.344 430.643 199.298 421.593 199.768 414.069C199.768 414.014 199.768 413.986 199.795 413.93C209.956 393.83 216.61 373.369 221.857 351.437C221.884 351.298 221.857 351.132 221.719 351.048C218.433 348.605 214.512 347.078 210.453 346.662C209.349 346.551 209.017 341.609 208.106 342.248C206.919 343.108 205.455 347.356 205.152 348.8C202.694 359.932 199.574 373.675 193.251 380.81C193.196 380.865 186.155 375.507 178.838 372.453C166.855 367.456 150.813 362.459 145.263 360.571C145.097 360.515 144.904 360.571 144.821 360.765C140.017 369.844 129.8 378.977 120.219 379.616" fill="#D0895A"/>
<path d="M126.264 322.123C128.694 321.956 132.891 322.539 135.21 323.233C142.527 325.343 146.255 330.174 147.497 333.616C147.58 333.866 147.414 334.144 147.138 334.144C145.675 334.144 144.736 334.144 143.852 334.144C141.644 334.144 140.511 334.144 139.048 334.31C138.606 334.366 137.529 334.421 137.226 334.449C137.171 334.449 137.115 334.449 137.06 334.421C136.535 334.172 133.498 332.894 131.234 333.311C129.55 333.644 126.678 335.032 125.38 336.143C123.779 337.503 122.757 338.558 120.963 339.446C120.742 339.557 120.466 339.446 120.41 339.197C119.858 336.698 119.361 334.199 119.306 331.645C119.251 329.008 118.809 326.12 120.162 323.872C120.217 323.788 120.3 323.733 120.383 323.705C120.852 323.566 122.675 322.428 126.319 322.178" fill="#F1F1F1"/>
<path d="M114.37 379.867C120.528 379.922 125.94 379.117 131.241 375.952C136.239 372.981 141.788 366.235 144.494 361.349C144.66 361.044 144.356 360.683 144.025 360.794C143.031 361.182 142.147 361.516 141.512 361.765C132.953 365.152 133.588 364.625 127.292 367.124C125.498 367.845 116.496 372.038 115.033 373.342C112.079 375.952 113.321 376.174 114.398 379.867" fill="#F1F1F1"/>
<g opacity="0.14">
<path d="M141.212 361.907C141.875 361.63 142.041 361.546 142.289 361.463C142.289 361.463 142.4 361.435 142.51 361.38C143.2 361.13 143.173 361.158 143.421 361.047C143.587 360.963 143.78 360.908 143.946 360.825C144.001 360.825 144.084 360.769 144.194 360.797C144.332 360.797 144.388 360.908 144.415 360.936C144.415 360.963 144.498 361.047 144.498 361.13C144.498 361.241 144.498 361.324 144.415 361.463C144.388 361.546 144.36 361.574 144.332 361.602C144.194 361.824 144.194 361.852 144.056 362.074C143.532 362.962 142.952 363.823 142.952 363.823C142.703 364.184 142.427 364.628 142.041 365.183C141.847 365.433 141.378 366.127 140.688 367.016C139.721 368.265 138.893 369.181 138.617 369.514C137.733 370.514 136.353 372.041 134.337 373.734C133.564 374.4 132.874 374.9 132.377 375.261C133.233 374.234 134.144 372.957 134.972 371.402C136.656 368.293 137.291 365.35 137.568 363.295C138.203 363.073 138.782 362.851 139.335 362.657C139.804 362.49 140.384 362.268 141.157 361.935L141.212 361.907Z" fill="black"/>
</g>
<path d="M132.013 335.088C138.722 333.727 148.828 334.088 152.915 334.31C154.102 334.366 155.234 334.838 156.117 335.643C158.023 337.337 162.855 341.112 162.578 342.195C161.723 345.554 158.906 351.662 156.421 353.8C147.944 361.018 129.528 367.542 116.081 372.623C115.805 372.734 115.501 372.539 115.529 372.234C116.412 363.572 117.296 354.41 118.179 345.776C118.345 344.166 118.428 341.057 118.456 340.168C118.456 340.029 118.538 339.891 118.676 339.835C120.085 339.224 127.899 335.893 131.985 335.088" fill="#F1DEA6"/>
<g opacity="0.14">
<path d="M120.472 339.583C126.795 335.474 154.406 336.03 156.532 336.085C156.615 336.085 156.698 336.113 156.753 336.168C156.918 336.307 157.25 336.585 157.581 336.862C157.83 337.085 157.692 337.501 157.36 337.529C143.803 338.639 131.268 340.638 127.098 341.749C125.138 342.276 123.978 342.97 123.398 343.859C122.818 344.719 122.515 346.302 122.515 347.94C122.515 349.717 132.952 346.246 135.989 345.552C142.809 343.97 162.551 341.776 162.606 341.943C162.606 341.999 162.606 342.082 162.606 342.082C162.468 342.72 142.091 348.662 135.989 350.522C131.627 351.854 122.073 355.908 121.41 356.435C121.327 356.491 121.272 356.602 121.245 356.685C121.079 357.268 120.775 359.655 120.996 360.599C121.051 360.794 121.466 361.46 121.604 361.599C124.392 364.208 148.166 356.352 155.041 353.992C155.455 353.853 155.731 354.408 155.4 354.658C153.798 355.852 150.126 358.378 144.687 360.988C140.324 363.07 141.097 362.931 115.805 372.787C115.584 372.87 115.474 373.287 115.419 373.037C113.486 364.097 114.866 355.047 116.606 346.024C116.965 344.136 117.379 342.193 118.318 340.527C119.257 338.834 120.002 339.889 120.499 339.555" fill="black"/>
</g>
<path d="M52.6589 316.653C49.2903 323.732 52.0238 348.774 53.7909 358.685C55.1991 366.57 59.1199 383.866 62.7094 387.503C65.1944 390.001 69.5294 391.5 72.9256 392.361C82.9762 394.943 92.6678 394.527 102.912 392.861C106.253 392.306 112.023 390.334 112.907 387.641C117.076 375.148 118.567 363.072 119.506 355.465C120.748 345.165 123.951 324.51 120.748 316.098C119.092 311.739 110.284 308.602 87.9186 309.379C64.4765 310.184 55.2267 311.267 52.6589 316.653Z" fill="#F1F1F1"/>
<path d="M60.7158 314.516C60.7158 313.489 72.285 312.628 86.5601 312.628C100.835 312.628 112.404 313.461 112.404 314.516C112.404 315.571 100.835 316.404 86.5601 316.404C72.285 316.404 60.7158 315.543 60.7158 314.516Z" fill="#252525"/>
<g opacity="0.14">
<path d="M99.5683 393.36C101.75 393.111 100.673 393.277 104.014 392.666C104.4 392.583 105.256 392.361 105.836 392.194C106.554 391.972 107.714 391.556 108.984 391.028C110.337 390.445 111.496 389.668 112.104 389.002C112.628 388.446 112.905 387.808 112.932 387.697C113.429 386.226 114.119 384.199 115.058 380.701C117.516 371.234 118.261 365.487 119.448 356.52C120.912 345.526 122.596 333.31 122.044 322.65C121.906 319.957 121.216 316.958 120.719 315.82C120.608 315.598 120.332 315.542 120.139 315.681C114.23 319.957 112.021 320.484 108.211 321.845C108.073 321.9 107.962 322.039 107.962 322.178C107.796 324.954 106.195 350.245 104.373 363.321" fill="black"/>
</g>
<g opacity="0.14">
<path d="M61.2184 311.573C60.3348 312.184 59.4237 312.906 58.7886 313.767C58.1535 314.627 57.8222 315.793 58.2088 316.793C58.7886 318.32 61.9363 319.597 63.5378 319.902C66.4093 320.457 67.8175 320.624 70.8271 320.874C65.1116 321.235 59.6446 320.318 55.5305 319.014C54.9506 318.819 52.2999 317.542 52.438 317.154C52.6589 316.626 53.1835 315.543 53.8738 314.932C55.6961 313.211 57.5737 312.462 61.1908 311.573" fill="black"/>
</g>
<g opacity="0.14">
<path d="M56.1943 321.122C56.36 320.9 56.2772 320.595 56.001 320.512C55.4488 320.345 54.6757 320.095 54.0682 319.79C53.4332 319.484 52.8533 319.096 52.4391 318.846C52.2183 318.707 51.9146 318.846 51.8593 319.068C51.5556 320.456 50.7825 324.454 51.0586 329.507C51.528 338.446 51.9974 346.747 52.8257 352.411C54.1787 361.822 58.2928 381.839 62.2136 386.892C63.9807 389.168 64.6986 389.002 66.4381 390.029C66.6866 390.168 67.2941 390.417 67.9015 390.667C68.2605 390.806 68.5918 390.362 68.3433 390.057C66.6038 387.974 63.0971 383.088 60.1703 374.537C57.1055 365.514 55.0346 349.107 54.3167 341.306C53.019 326.841 55.2003 322.316 56.1667 321.067L56.1943 321.122Z" fill="black"/>
</g>
<g opacity="0.14">
<path d="M99.4821 309.35C102.519 309.739 104.204 310.099 110.968 311.765C112.266 312.071 113.536 312.515 114.309 313.542C114.889 314.292 114.42 315.874 113.923 316.901C113.785 317.207 114.088 317.54 114.392 317.429C116.712 316.568 118.506 315.235 119.224 314.652C119.417 314.514 119.417 314.236 119.224 314.069C118.92 313.82 118.506 313.459 118.203 313.237C117.706 312.903 117.126 312.598 116.96 312.515C111.631 309.766 101.028 309.35 99.4545 309.35" fill="black"/>
</g>
<g opacity="0.14">
<path d="M133.948 322.902C136.93 325.622 138.034 330.425 137.123 334.395C137.675 334.34 138.559 334.312 139.277 334.256C140.795 334.145 140.271 334.201 142.563 334.145C142.811 334.145 143.777 334.145 143.943 334.145C144.274 334.145 144.495 334.145 145.13 334.145C145.407 334.145 145.986 334.145 146.373 334.145C146.677 334.145 147.174 334.145 147.698 334.145C145.793 328.232 140.409 324.429 133.948 322.929" fill="black"/>
</g>
<path d="M256.468 141.5C262.156 135.42 263.095 134.171 263.095 134.171C263.095 134.171 279.938 147.968 294.213 151.578C314.01 156.575 343.61 152.494 350.871 149.662C350.871 166.542 338.888 188.391 345.819 197.858C365.119 224.232 396.044 228.591 448.367 281.2C362.247 311.406 281.291 390.446 277.453 414.238C272.731 405.66 264.586 387.003 263.399 384.338C263.205 383.894 263.454 386.448 261.135 392.361C258.263 399.802 252.409 407.353 252.409 407.353C252.409 407.353 224.522 366.986 205.415 347.775C207.237 336.975 205.939 326.148 205.083 300.662C204.669 288.252 204.807 275.62 205.442 270.123C217.84 285.754 224.605 287.447 238.41 291.389C254.011 295.859 274.554 291.139 283.306 278.591C295.814 260.712 295.732 235.226 293.605 220.179C288.801 186.17 253.956 144.387 253.956 144.387L256.413 141.472L256.468 141.5Z" fill="#232D40"/>
<path d="M80.0195 217.345C84.3821 223.231 85.0171 231.726 81.5933 238.222C79.412 242.331 75.8778 245.524 72.7853 248.994C69.6928 252.465 66.8765 256.601 66.7108 261.265C66.5451 266.401 69.6652 271.121 73.3375 274.647C77.0374 278.173 81.4277 280.949 84.9895 284.641C88.0544 287.806 90.5118 291.998 90.6222 296.357C90.6222 296.773 91.1745 296.857 91.3401 296.468C93.9632 289.305 92.6379 280.727 87.8887 274.758C85.4865 271.787 82.2836 269.316 80.9031 265.735C79.5777 262.265 80.2404 258.322 81.5381 254.824C82.8358 251.354 84.7134 248.106 85.9007 244.58C88.9656 235.391 86.6462 224.563 80.0471 217.345" fill="#FDEFE3"/>
<path opacity="0.14" d="M251.961 406.713C251.961 406.713 248.482 413.07 243.097 419.595C237.824 425.98 231.418 432.365 225.951 436.779C221.561 440.305 217.198 443.22 212.587 445.525C211.179 446.219 209.743 446.941 207.644 447.773C206.54 448.19 205.077 448.745 203.668 449.134C202.868 449.356 202.205 449.522 200.742 449.328C199.886 449.217 199.582 449.245 198.533 448.69C198.146 448.495 197.511 448.273 196.848 447.884C194.391 446.441 188.068 442.693 187.819 442.387C194.943 445.969 196.766 447.801 201.404 447.024C207.368 446.024 214.354 439.112 221.919 429.2C256.848 383.337 256.765 368.706 256.765 358.989C259.719 365.597 273.332 401.049 281.67 422.87C281.808 423.231 281.947 423.592 282.085 423.953C285.729 433.531 288.27 440.222 288.27 440.222L279.02 417.707L277.501 414.292L275.375 410.239L272.918 405.241C272.918 405.241 271.62 402.548 270.018 399.078C268.776 396.413 267.561 393.637 266.374 391.055C264.8 387.668 263.364 384.142 263.336 384.253C263.226 385.447 262.895 387.446 262.149 389.639C261.707 390.971 260.879 393.109 260.327 394.47C259.471 396.468 259.222 396.802 258.146 398.745C256.903 401.021 254.142 405.297 252.458 407.435C252.458 407.435 252.402 407.351 252.209 407.101L251.988 406.768L251.961 406.713Z" fill="#131313"/>
<path opacity="0.14" d="M190.572 379.09C195.183 381.228 195.984 382.616 197.668 385.281C201.285 391.056 202.997 398.024 202.473 404.826C201.617 395.22 197.282 385.781 190.572 379.09Z" fill="black"/>
</g>
<defs>
<clipPath id="clip0_15438_64226">
<rect width="242" height="622" fill="white"/>
</clipPath>
</defs>
</svg>
