<svg width="284" height="313" viewBox="0 0 284 313" fill="none" xmlns="http://www.w3.org/2000/svg">
<g clip-path="url(#clip0_652_16246)">
<path d="M48.568 111.729V88.7343H3.50586V70.3706L55.2032 4.01279H69.2466V70.2163H82.8272V88.7343H69.2466V111.728L48.568 111.729ZM24.1844 70.2163H50.882V35.3401L24.1844 70.2163ZM175.728 46.9135C175.796 53.289 174.778 59.6295 172.719 65.6637C170.882 71.0743 168.056 76.0969 164.386 80.4767C160.912 84.5855 156.597 87.9008 151.732 90.1989C146.759 92.4867 141.35 93.6712 135.876 93.6712C130.402 93.6712 124.992 92.4867 120.019 90.1989C115.186 87.8855 110.899 84.5716 107.442 80.4767C103.772 76.0969 100.947 71.0743 99.1092 65.6637C97.0501 59.6295 96.0325 53.289 96.1001 46.9135C96.0325 40.538 97.0501 34.1974 99.1092 28.1632C100.947 22.7526 103.772 17.73 107.442 13.3502C110.909 9.24562 115.192 5.907 120.018 3.54649C124.978 1.20913 130.392 -0.00292969 135.875 -0.00292969C141.357 -0.00292969 146.772 1.20913 151.731 3.54649C156.589 5.8914 160.899 9.23088 164.384 13.3485C168.054 17.7282 170.879 22.7509 172.717 28.1615C174.777 34.1961 175.795 40.5372 175.728 46.9135ZM154.895 46.9135C154.931 43.088 154.463 39.2743 153.505 35.5706C152.708 32.4104 151.377 29.4095 149.57 26.6968C148.018 24.3656 145.961 22.414 143.552 20.9872C141.23 19.648 138.593 18.9552 135.913 18.9809C133.183 18.942 130.492 19.6347 128.12 20.9872C125.71 22.414 123.653 24.3656 122.102 26.6968C120.295 29.4095 118.964 32.4104 118.166 35.5706C117.208 39.2743 116.741 43.088 116.777 46.9135C116.737 50.7138 117.205 54.5024 118.166 58.1792C118.974 61.312 120.304 64.286 122.102 66.9759C123.653 69.3071 125.71 71.2587 128.12 72.6854C130.492 74.0379 133.183 74.7307 135.913 74.6917C138.593 74.7175 141.23 74.0247 143.552 72.6854C145.961 71.2587 148.018 69.3071 149.57 66.9759C151.367 64.286 152.698 61.312 153.505 58.1792C154.467 54.5024 154.934 50.7138 154.895 46.9135ZM231.436 111.729V88.7343H186.375V70.3706L238.073 4.01279H252.117V70.2163H265.697V88.7343H252.117V111.728L231.436 111.729ZM207.056 70.2163H233.753V35.3401L207.056 70.2163Z" fill="#5C8FFF"/>
</g>
<g filter="url(#filter0_b_652_16246)">
<path d="M165.415 55.5442C222.308 72.8337 274.711 111.43 274.711 179.93C274.711 248.429 217.506 303.953 146.94 303.953C76.374 303.953 20.1628 260.799 1.87861 195.955C-5.41706 168.691 8.30295 134.283 47.1411 110.77C85.9793 87.2575 108.523 38.2546 165.415 55.5442Z" fill="url(#paint0_linear_652_16246)" fill-opacity="0.4"/>
</g>
<g filter="url(#filter1_b_652_16246)">
<path d="M162.603 66.615C213.494 82.3911 260.369 117.609 260.369 180.112C260.369 242.615 209.199 293.279 146.076 293.279C82.9539 293.279 32.6721 253.903 16.3167 194.734C9.79059 169.858 22.0633 138.461 56.8047 117.007C91.546 95.5523 111.712 50.839 162.603 66.615Z" fill="url(#paint1_linear_652_16246)"/>
</g>
<path d="M150.906 45.8987C144.543 45.8881 138.22 46.9182 132.19 48.9484C129.303 49.9226 126.486 51.0957 123.761 52.4591C121.027 53.8311 118.371 55.3563 115.808 57.0275C113.323 58.6405 110.843 60.4155 108.225 62.4526C105.889 64.2715 103.496 66.2609 100.907 68.535C96.0925 72.7652 91.2926 77.3874 86.6511 81.8574C81.79 86.5384 76.7631 91.3796 71.6102 95.8843C68.8324 98.3126 66.2486 100.445 63.7115 102.403C60.8581 104.604 58.1409 106.529 55.4009 108.286C46.0092 114.311 37.7823 121.217 30.9494 128.811C24.6961 135.685 19.5002 143.451 15.5324 151.854C11.9922 159.354 9.70212 167.382 8.75267 175.621C8.32471 179.471 8.23278 183.352 8.4779 187.218C8.71789 190.965 9.29879 194.683 10.2134 198.325C14.7276 215.289 21.6061 231.047 30.657 245.164C39.4136 258.896 50.3753 271.089 63.1008 281.253C75.7602 291.331 90.0426 299.181 105.336 304.466C121.071 309.916 137.836 312.678 155.165 312.678C159.523 312.678 163.879 312.451 168.214 312C180.844 310.681 193.197 307.431 204.84 302.362C212.446 299.048 219.707 294.995 226.519 290.26C233.313 285.532 239.639 280.164 245.408 274.229C257.1 262.188 266.384 248.025 272.761 232.5C274.378 228.569 275.822 224.511 277.053 220.438C278.299 216.319 279.357 212.086 280.199 207.857C281.051 203.572 281.702 199.186 282.133 194.821C282.57 190.392 282.792 185.876 282.792 181.397C282.792 176.929 282.589 172.478 282.19 168.169C281.799 163.943 281.207 159.739 280.432 155.671C279.672 151.684 278.714 147.72 277.587 143.891C276.482 140.138 275.182 136.411 273.726 132.813C272.299 129.289 270.68 125.794 268.919 122.425C267.193 119.126 265.281 115.857 263.236 112.711C261.234 109.631 259.05 106.584 256.746 103.657C254.491 100.792 252.059 97.9638 249.519 95.2511C247.034 92.5967 244.378 89.9818 241.626 87.4791C238.932 85.0309 236.076 82.6247 233.134 80.3294C227.255 75.7574 221.076 71.5837 214.64 67.8361C202.274 60.6117 188.456 54.5181 173.566 49.7243C169.703 48.468 165.753 47.4966 161.748 46.8179C158.164 46.2163 154.538 45.9091 150.904 45.8994M150.904 45.5788C157.871 45.5788 165.406 46.7599 173.664 49.4191C230.637 67.7639 283.112 108.717 283.112 181.4C283.112 254.083 225.828 313 155.165 313C84.5014 313 28.2126 267.21 9.90303 198.405C2.59754 169.476 16.3371 132.966 55.2275 108.018C88.4818 86.6852 109.808 45.5781 150.906 45.5781L150.904 45.5788Z" fill="url(#paint2_linear_652_16246)"/>
<mask id="mask0_652_16246" style="mask-type:alpha" maskUnits="userSpaceOnUse" x="14" y="63" width="246" height="231">
<path d="M162.101 67.2664C212.992 83.0425 259.868 118.261 259.868 180.763C259.868 243.266 208.697 293.931 145.575 293.931C82.4524 293.931 32.1707 254.554 15.8152 195.386C9.28913 170.509 21.5619 139.113 56.3032 117.658C91.0445 96.2037 111.21 51.4903 162.101 67.2664Z" fill="#D9D9D9"/>
</mask>
<g mask="url(#mask0_652_16246)">
<path d="M220.765 255.285L220.759 268.133C220.759 269.011 220.275 269.81 219.51 270.238C211.826 274.524 205.692 281.532 202.455 289.712C202.083 290.647 201.151 291.06 200.158 291.217C180.831 294.269 156.526 295.006 142.872 289.965C141.689 289.529 138.433 286.662 138.433 286.662C138.433 286.662 141.109 270.885 139.926 263.051C139.73 261.747 140.625 260.528 141.927 260.326C166.313 256.522 193.104 258.315 217.857 252.94C219.355 252.615 220.768 253.756 220.765 255.285Z" fill="#E8E8E8"/>
<path d="M220.766 256.614C220.928 259.898 220.72 264.922 220.687 268.315C220.678 269.13 220.211 269.842 219.514 270.268C212.052 274.833 208.966 277.405 201.908 290.489C201.646 290.975 199.117 291.359 196.649 291.738C193.14 292.279 189.287 292.727 188.252 292.727C204.986 282.798 211.096 268.722 205.173 263.328C217.18 258.553 210.685 261.117 220.766 256.614Z" fill="#D5D5D5"/>
<path d="M202.895 149.852C206.352 144.081 216.376 140.293 222.766 142.402C229.154 144.511 232.709 148.847 235.246 155.079C237.783 161.311 239.468 172.346 239.606 178.233C239.888 190.359 237.386 214.659 234.822 226.514C233.585 232.239 229.348 246.235 228.336 249.031C227.437 251.515 227.493 251.701 227.051 252.141C220.329 258.864 198.987 266.46 185.819 268.023C164.882 270.506 138.391 264.278 123.756 260.264C119.323 259.047 133.53 263.61 133.972 263.921C134.681 264.418 135.652 263.815 135.545 262.955C135.476 262.41 135.441 261.724 135.464 260.862C135.562 257.27 138.641 254.365 141.994 253.076C145.348 251.787 149.865 253.502 152.569 251.136C177.964 228.903 182.769 235.096 189.812 219.709C196.855 204.321 198.466 187.063 199.375 170.163C199.776 162.738 200.429 153.971 202.895 149.852Z" fill="#F2F2F2"/>
<path d="M204.474 260.791C180.376 271.19 150.032 264.803 149.168 264.759C163.926 269.308 180.731 268.659 185.563 268.056C191.4 267.326 197.675 265.817 203.417 263.937C206.85 262.813 211.897 260.923 214.943 259.525C218.031 258.108 220.305 257.038 223.14 255.191C224.327 254.417 226.215 253.136 227.268 251.893C225.952 251.511 221.813 249.844 221.35 249.644C221.348 249.641 216.689 255.519 204.474 260.791Z" fill="#D5D5D5"/>
<mask id="mask1_652_16246" style="mask-type:luminance" maskUnits="userSpaceOnUse" x="91" y="88" width="176" height="160">
<path d="M125.281 227.487L240.802 247.082C240.885 247.057 266.867 154.197 266.842 154.113L184.173 88.7034C184.148 88.6199 174.514 92.7468 174.433 92.7718L91.2215 118.87C91.138 118.895 91.0921 118.985 91.1172 119.069L125.081 227.387C125.108 227.468 125.198 227.514 125.281 227.487Z" fill="white"/>
</mask>
<g mask="url(#mask1_652_16246)">
<path d="M101.469 147.61C102.001 157.133 106.459 168.309 120.752 174.291C122.675 175.096 125.099 176.742 125.613 178.293C127.594 184.276 127.292 189.405 130.392 195.105C134.028 201.791 133.939 205.451 136.912 209.144C137.596 209.995 143.733 205.981 161.36 197.829C167.314 195.075 171.03 203.143 173.898 197.243C176.767 191.345 182.577 189.008 183.073 182.467C183.461 177.352 182.798 169.962 185.143 165.474C187.094 161.739 190.519 158.174 194.806 157.648C194.959 157.629 197.861 156.114 197.727 156.041C190.271 151.948 214.091 154.988 214.091 154.988C214.091 154.988 198.336 146.098 183.384 135.334C171.678 126.907 168.756 122.784 162.991 118.973C158.546 116.031 149.75 112.401 140.806 113.796C140.642 113.821 140.623 114.055 140.781 114.105C142.102 114.533 143.487 114.26 143.794 112.872C144.14 111.299 142.25 109.181 140.638 109.2C139.227 109.215 137.652 110.037 137.103 111.675C137.103 111.675 137.66 110.654 137.7 110.581C138.224 109.657 137.871 108.457 137.629 107.969C137.147 106.997 136.069 105.426 134.489 105.411C133.075 105.399 132.044 106.699 132.057 107.66C132.078 109.448 134.387 112.467 132.562 113.039C115.993 118.096 100.361 127.744 101.469 147.61Z" fill="#D08A5A"/>
</g>
<mask id="mask2_652_16246" style="mask-type:luminance" maskUnits="userSpaceOnUse" x="97" y="116" width="76" height="65">
<path d="M114.017 180.394L172.102 158.156C172.183 158.124 172.225 158.039 172.198 157.964L156.259 116.33C156.23 116.255 156.14 116.219 156.059 116.251L97.9763 138.487C97.8949 138.519 97.8532 138.604 97.8803 138.679L113.817 180.313C113.848 180.39 113.936 180.426 114.017 180.394Z" fill="white"/>
</mask>
<g mask="url(#mask2_652_16246)">
<path d="M120.816 132.246C121.978 132.091 125.706 131.722 128.197 129.124C130.042 127.199 132.503 125.429 135.04 124.311C138.263 122.89 143.11 122.75 145.953 123.393C149.176 124.123 154.682 126.596 158.464 129.35C162.073 131.979 164.859 136.89 165.261 141.472C165.751 147.055 163.561 152.01 160.346 156.302C156.267 161.747 151.889 164.854 147.013 167.38C136.392 172.886 129.22 172.726 123.33 171.999C119.341 171.509 113.992 169.571 109.947 165.726C108.775 164.612 107.788 162.803 106.882 161.482C104.581 158.127 103.958 151.28 104.448 146.831C105.078 141.109 106.732 134.111 120.816 132.246Z" fill="#F2D2B6"/>
</g>
<path d="M106.647 148.372C107.298 147.149 108.179 146.152 109.119 145.138C110.06 144.122 111.416 143.321 112.295 142.912C113.957 142.134 116.411 142.39 117.652 142.726C118.708 143.012 119.993 143.978 120.921 145.167C121.91 146.436 122.15 148.679 122.288 150.283C122.423 151.89 121.701 154.765 120.692 156.016C119.957 156.926 118.403 158.22 115.891 158.779C112.866 159.455 111.913 159.626 110.891 160.711C110.265 161.374 109.612 162.319 109.278 162.847C108.827 163.559 108.61 163.874 108.527 164.039C107.234 162.501 106.205 160.49 105.55 158.9C105.312 158.326 104.16 155.902 104.183 152.954C104.183 153.02 105.598 150.344 106.647 148.372Z" fill="#D9A171"/>
<path opacity="0.1686" d="M104.183 152.977C104.183 152.977 104.212 154.058 104.319 154.838C104.381 155.291 104.801 157.095 105.349 158.433C106.15 160.386 107.052 162.297 108.52 164.043C109.188 162.992 109.48 162.514 109.48 162.514C109.48 162.514 107.999 161.003 106.847 158.097C106.282 156.67 105.497 154.999 104.947 151.564C104.542 152.326 104.183 152.977 104.183 152.977Z" fill="#523618"/>
<path d="M119.317 147.371C117.815 144.967 112.126 145.124 112.126 145.124C112.126 145.124 108.963 149.783 110.901 153.079C112.839 156.376 116.031 157.373 118.29 155.7C120.708 153.911 121.345 150.613 119.317 147.371Z" fill="white"/>
<path opacity="0.1412" d="M117.744 150.298C118.136 151.174 118.949 152.818 118.808 155.285C119.625 154.475 120.166 153.551 120.408 152.426C120.648 151.312 120.52 150.029 120.08 148.902C119.354 149.366 118.866 149.695 117.744 150.298Z" fill="black"/>
<path d="M115.401 155.672C116.261 155.672 116.957 154.976 116.957 154.116C116.957 153.256 116.261 152.56 115.401 152.56C114.542 152.56 113.845 153.256 113.845 154.116C113.845 154.976 114.542 155.672 115.401 155.672Z" fill="black" stroke="black" stroke-miterlimit="10"/>
<path d="M115.032 155.287C115.42 155.287 115.735 154.972 115.735 154.583C115.735 154.195 115.42 153.88 115.032 153.88C114.644 153.88 114.329 154.195 114.329 154.583C114.329 154.972 114.644 155.287 115.032 155.287Z" fill="white"/>
<path d="M112.798 144.385C107.98 146.219 110.661 152.704 110.653 152.677C110.653 152.677 114.473 152.604 120.143 148.863C120.143 148.863 120.064 148.6 119.824 148.13C118.987 146.488 116.644 142.921 112.798 144.385Z" fill="#D39266"/>
<path opacity="0.1294" d="M120.124 148.8C120.12 148.786 120.114 148.773 120.107 148.754C120.091 148.709 120.066 148.648 120.034 148.575C119.957 148.398 119.832 148.147 119.717 147.924C119.619 147.741 119.502 147.538 119.373 147.325C119.135 146.946 118.856 146.555 118.568 146.197C118.345 145.927 118.1 145.665 117.831 145.418C117.706 145.306 117.564 145.189 117.406 145.064C117.266 144.955 117.11 144.845 116.949 144.742C116.571 144.507 116.16 144.315 115.716 144.189C115.499 144.133 115.274 144.089 115.065 144.062C114.4 143.985 113.671 144.062 112.877 144.356C112.816 144.381 112.753 144.404 112.693 144.432C112.674 144.44 112.655 144.448 112.635 144.457C112.426 144.55 112.213 144.657 111.99 144.782C111.986 144.784 111.984 144.786 111.979 144.79C112.912 144.803 114.644 145.585 116.657 148.364C117.132 149.022 117.487 149.672 117.748 150.298C118.503 149.892 119.304 149.418 120.147 148.861C120.143 148.863 120.137 148.84 120.124 148.8Z" fill="black"/>
<path d="M140.663 131.222C139.737 132.075 138.502 133.676 138.456 135.76C138.41 137.844 139.063 140.402 140.039 142.244C140.878 143.824 142.222 145.247 143.861 145.96C146.004 146.893 148.804 146.488 150.42 145.843C151.931 145.241 154.38 143.644 156.856 143.092C157.701 142.902 159.479 142.92 160.226 143.137C161.703 143.569 163.835 145.52 164.813 147.31C165.94 142.681 165.118 139.766 164.265 137.045C163.468 134.504 162.283 132.62 162.283 132.62C162.283 132.62 161.851 132.401 161.4 132.201C160.28 131.702 157.745 130.271 156.55 130C154.43 129.52 152.968 128.944 150.806 128.706C148.985 128.506 147.616 128.702 145.814 129.023C144.074 129.334 141.55 130.406 140.663 131.222Z" fill="#D9A171"/>
<path d="M150.715 134.988C149.256 132.34 143.208 132.182 143.208 132.182C143.208 132.182 139.585 136.97 141.456 140.596C143.327 144.222 146.657 145.468 149.152 143.813C151.82 142.042 152.684 138.56 150.715 134.988Z" fill="white"/>
<path opacity="0.1412" d="M148.878 138.022C149.246 138.979 150.015 140.78 149.725 143.4C150.639 142.584 151.265 141.629 151.586 140.444C151.906 139.269 151.841 137.894 151.438 136.667C150.641 137.118 150.103 137.442 148.878 138.022Z" fill="black"/>
<path d="M145.699 143.659C146.612 143.659 147.353 142.915 147.353 141.998C147.353 141.081 146.612 140.337 145.699 140.337C144.785 140.337 144.044 141.081 144.044 141.998C144.044 142.915 144.785 143.659 145.699 143.659Z" fill="black" stroke="black" stroke-miterlimit="10"/>
<path d="M145.323 143.4C145.736 143.4 146.07 143.064 146.07 142.649C146.07 142.234 145.736 141.898 145.323 141.898C144.911 141.898 144.576 142.234 144.576 142.649C144.576 143.064 144.911 143.4 145.323 143.4Z" fill="white"/>
<path d="M143.963 131.433C138.746 133.114 141.224 140.183 141.216 140.152C141.216 140.152 145.276 140.291 151.509 136.626C151.509 136.626 151.44 136.342 151.211 135.827C150.416 134.03 148.13 130.089 143.963 131.433Z" fill="#D39266"/>
<path opacity="0.1294" d="M151.488 136.559C151.484 136.544 151.48 136.53 151.474 136.511C151.474 136.509 151.474 136.509 151.474 136.507C151.457 136.457 151.436 136.392 151.407 136.313C151.334 136.119 151.217 135.843 151.107 135.601C151.013 135.399 150.902 135.178 150.775 134.944C150.543 134.525 150.27 134.095 149.984 133.696C149.763 133.398 149.517 133.102 149.246 132.824C149.119 132.699 148.977 132.564 148.814 132.422C148.672 132.299 148.511 132.171 148.349 132.052C147.961 131.779 147.535 131.55 147.07 131.393C146.842 131.322 146.607 131.262 146.386 131.22C145.685 131.101 144.904 131.141 144.045 131.408C143.978 131.431 143.911 131.451 143.845 131.477C143.824 131.485 143.803 131.491 143.782 131.499C143.555 131.587 143.321 131.689 143.079 131.81C143.075 131.812 143.071 131.815 143.066 131.817C144.055 131.883 145.847 132.816 147.829 135.895C148.299 136.624 148.637 137.339 148.877 138.021C149.701 137.631 150.579 137.172 151.507 136.626C151.507 136.626 151.501 136.601 151.488 136.559Z" fill="black"/>
<path d="M126.316 144.363C122.943 148.464 123.239 154.25 123.848 156.71C124.457 159.167 125.388 160.92 126.379 162.262C126.802 162.837 128.594 165.886 132.817 164.561C135.032 163.866 136.653 162.285 139.549 161.377C143.183 160.238 145.418 157.21 144.594 154.83C140.008 141.6 130.987 141.773 129.633 142.199C127.929 142.733 126.502 144.137 126.316 144.363Z" fill="#D9A171"/>
<path opacity="0.1608" d="M135.275 160.796C136.226 160.443 136.685 159.314 136.3 158.273C135.914 157.233 134.83 156.675 133.878 157.028C132.926 157.381 132.467 158.51 132.853 159.551C133.238 160.591 134.323 161.149 135.275 160.796Z" fill="#252525"/>
<path d="M135.131 160.37C136.088 160.016 136.552 158.884 136.166 157.844C135.781 156.803 134.692 156.247 133.735 156.602C132.777 156.957 132.314 158.088 132.7 159.129C133.085 160.169 134.174 160.725 135.131 160.37Z" fill="#252525"/>
<path d="M125.446 152.509C124.699 150.22 126.831 147.848 130.282 146.725C133.73 145.601 136.983 146.281 137.729 148.57C138.476 150.859 136.227 153.644 132.779 154.768C129.33 155.893 126.193 154.798 125.446 152.509Z" fill="#252525"/>
<mask id="mask3_652_16246" style="mask-type:luminance" maskUnits="userSpaceOnUse" x="132" y="148" width="4" height="5">
<path d="M133.859 152.34L135.699 151.739C135.783 151.712 135.826 151.622 135.799 151.541L134.758 148.344C134.731 148.261 134.641 148.217 134.56 148.244L132.72 148.845C132.637 148.872 132.593 148.962 132.62 149.043L133.661 152.24C133.688 152.323 133.778 152.367 133.859 152.34Z" fill="white"/>
</mask>
<g mask="url(#mask3_652_16246)">
<g opacity="0.1216">
<mask id="mask4_652_16246" style="mask-type:luminance" maskUnits="userSpaceOnUse" x="132" y="148" width="4" height="5">
<path d="M133.859 152.34L135.699 151.739C135.783 151.712 135.826 151.622 135.799 151.541L134.758 148.344C134.731 148.261 134.641 148.217 134.56 148.244L132.72 148.845C132.637 148.872 132.593 148.962 132.62 149.043L133.661 152.24C133.688 152.323 133.778 152.367 133.859 152.34Z" fill="white"/>
</mask>
<g mask="url(#mask4_652_16246)">
<path d="M133.294 150.298C133.342 148.9 133.851 148.322 134.393 148.347C134.934 148.372 135.171 149.221 134.879 150.323C134.727 150.897 134.46 151.798 134.049 152.248C133.732 152.597 133.254 151.472 133.294 150.298Z" fill="white"/>
</g>
</g>
</g>
<mask id="mask5_652_16246" style="mask-type:luminance" maskUnits="userSpaceOnUse" x="127" y="149" width="5" height="6">
<path d="M127.834 150.905L129.122 154.011C129.155 154.093 129.247 154.13 129.328 154.097L131.116 153.356C131.197 153.323 131.235 153.231 131.202 153.15L129.914 150.043C129.881 149.962 129.789 149.924 129.708 149.957L127.92 150.698C127.839 150.732 127.801 150.825 127.834 150.905Z" fill="white"/>
</mask>
<g mask="url(#mask5_652_16246)">
<g opacity="0.1216">
<mask id="mask6_652_16246" style="mask-type:luminance" maskUnits="userSpaceOnUse" x="127" y="149" width="5" height="6">
<path d="M129.059 154.197L131.164 153.511C131.247 153.484 131.291 153.394 131.264 153.313L130.171 149.96C130.144 149.876 130.054 149.832 129.972 149.86L127.867 150.546C127.784 150.573 127.74 150.663 127.767 150.744L128.86 154.097C128.888 154.178 128.977 154.222 129.059 154.197Z" fill="white"/>
</mask>
<g mask="url(#mask6_652_16246)">
<path d="M130.216 151.435C129.271 150.404 128.508 150.296 128.113 150.667C127.719 151.039 128.09 151.838 129.029 152.484C129.517 152.822 130.308 153.332 130.911 153.407C131.378 153.467 131.011 152.301 130.216 151.435Z" fill="white"/>
</g>
</g>
</g>
<mask id="mask7_652_16246" style="mask-type:luminance" maskUnits="userSpaceOnUse" x="132" y="148" width="4" height="5">
<path d="M133.859 152.34L135.699 151.739C135.783 151.712 135.826 151.622 135.799 151.541L134.758 148.344C134.731 148.261 134.641 148.217 134.56 148.244L132.72 148.845C132.637 148.872 132.593 148.962 132.62 149.043L133.661 152.24C133.688 152.323 133.778 152.367 133.859 152.34Z" fill="white"/>
</mask>
<g mask="url(#mask7_652_16246)">
<g opacity="0.1216">
<mask id="mask8_652_16246" style="mask-type:luminance" maskUnits="userSpaceOnUse" x="132" y="148" width="4" height="5">
<path d="M133.859 152.34L135.699 151.739C135.783 151.712 135.826 151.622 135.799 151.541L134.758 148.344C134.731 148.261 134.641 148.217 134.56 148.244L132.72 148.845C132.637 148.872 132.593 148.962 132.62 149.043L133.661 152.24C133.688 152.323 133.778 152.367 133.859 152.34Z" fill="white"/>
</mask>
<g mask="url(#mask8_652_16246)">
<path d="M133.294 150.298C133.342 148.9 133.851 148.322 134.393 148.347C134.934 148.372 135.171 149.221 134.879 150.323C134.727 150.897 134.46 151.798 134.049 152.248C133.732 152.597 133.254 151.472 133.294 150.298Z" fill="white"/>
</g>
</g>
</g>
<mask id="mask9_652_16246" style="mask-type:luminance" maskUnits="userSpaceOnUse" x="127" y="149" width="5" height="6">
<path d="M127.834 150.905L129.122 154.011C129.155 154.093 129.247 154.13 129.328 154.097L131.116 153.356C131.197 153.323 131.235 153.231 131.202 153.15L129.914 150.043C129.881 149.962 129.789 149.924 129.708 149.957L127.92 150.698C127.839 150.732 127.801 150.825 127.834 150.905Z" fill="white"/>
</mask>
<g mask="url(#mask9_652_16246)">
<g opacity="0.1216">
<mask id="mask10_652_16246" style="mask-type:luminance" maskUnits="userSpaceOnUse" x="127" y="149" width="5" height="6">
<path d="M129.059 154.197L131.164 153.511C131.247 153.484 131.291 153.394 131.264 153.313L130.171 149.96C130.144 149.876 130.054 149.832 129.972 149.86L127.867 150.546C127.784 150.573 127.74 150.663 127.767 150.744L128.86 154.097C128.888 154.178 128.977 154.222 129.059 154.197Z" fill="white"/>
</mask>
<g mask="url(#mask10_652_16246)">
<path d="M130.216 151.435C129.271 150.404 128.508 150.296 128.113 150.667C127.719 151.039 128.09 151.838 129.029 152.484C129.517 152.822 130.308 153.332 130.911 153.407C131.378 153.467 131.011 152.301 130.216 151.435Z" fill="white"/>
</g>
</g>
</g>
<mask id="mask11_652_16246" style="mask-type:luminance" maskUnits="userSpaceOnUse" x="132" y="148" width="4" height="5">
<path d="M133.859 152.34L135.699 151.739C135.783 151.712 135.826 151.622 135.799 151.541L134.758 148.344C134.731 148.261 134.641 148.217 134.56 148.244L132.72 148.845C132.637 148.872 132.593 148.962 132.62 149.043L133.661 152.24C133.688 152.323 133.778 152.367 133.859 152.34Z" fill="white"/>
</mask>
<g mask="url(#mask11_652_16246)">
<g opacity="0.1216">
<mask id="mask12_652_16246" style="mask-type:luminance" maskUnits="userSpaceOnUse" x="132" y="148" width="4" height="5">
<path d="M133.859 152.34L135.699 151.739C135.783 151.712 135.826 151.622 135.799 151.541L134.758 148.344C134.731 148.261 134.641 148.217 134.56 148.244L132.72 148.845C132.637 148.872 132.593 148.962 132.62 149.043L133.661 152.24C133.688 152.323 133.778 152.367 133.859 152.34Z" fill="white"/>
</mask>
<g mask="url(#mask12_652_16246)">
<path d="M133.294 150.298C133.342 148.9 133.851 148.322 134.393 148.347C134.934 148.372 135.171 149.221 134.879 150.323C134.727 150.897 134.46 151.798 134.049 152.248C133.732 152.597 133.254 151.472 133.294 150.298Z" fill="white"/>
</g>
</g>
</g>
<mask id="mask13_652_16246" style="mask-type:luminance" maskUnits="userSpaceOnUse" x="127" y="149" width="5" height="6">
<path d="M127.834 150.905L129.122 154.011C129.155 154.093 129.247 154.13 129.328 154.097L131.116 153.356C131.197 153.323 131.235 153.231 131.202 153.15L129.914 150.043C129.881 149.962 129.789 149.924 129.708 149.957L127.92 150.698C127.839 150.732 127.801 150.825 127.834 150.905Z" fill="white"/>
</mask>
<g mask="url(#mask13_652_16246)">
<g opacity="0.1216">
<mask id="mask14_652_16246" style="mask-type:luminance" maskUnits="userSpaceOnUse" x="127" y="149" width="5" height="6">
<path d="M129.059 154.197L131.164 153.511C131.247 153.484 131.291 153.394 131.264 153.313L130.171 149.96C130.144 149.876 130.054 149.832 129.972 149.86L127.867 150.546C127.784 150.573 127.74 150.663 127.767 150.744L128.86 154.097C128.888 154.178 128.977 154.222 129.059 154.197Z" fill="white"/>
</mask>
<g mask="url(#mask14_652_16246)">
<path d="M130.216 151.435C129.271 150.404 128.508 150.296 128.113 150.667C127.719 151.039 128.09 151.838 129.029 152.484C129.517 152.822 130.308 153.332 130.911 153.407C131.378 153.467 131.011 152.301 130.216 151.435Z" fill="white"/>
</g>
</g>
</g>
<mask id="mask15_652_16246" style="mask-type:luminance" maskUnits="userSpaceOnUse" x="-86" y="4" width="490" height="423">
<path d="M-84.998 132.274L307.137 4.46485C307.22 4.43772 307.308 4.48362 307.335 4.56499L403.162 298.613C403.189 298.696 403.143 298.784 403.062 298.811L10.9266 426.623C10.8431 426.65 10.7555 426.604 10.7284 426.523L-85.0981 132.475C-85.1253 132.391 -85.0794 132.301 -84.998 132.274Z" fill="white"/>
</mask>
<g mask="url(#mask15_652_16246)">
<g opacity="0.3216">
<mask id="mask16_652_16246" style="mask-type:luminance" maskUnits="userSpaceOnUse" x="131" y="147" width="5" height="6">
<path d="M133.127 152.7L135.535 151.916C135.618 151.888 135.662 151.799 135.635 151.717L134.256 147.484C134.229 147.401 134.139 147.357 134.058 147.384L131.65 148.168C131.567 148.196 131.523 148.285 131.55 148.367L132.929 152.6C132.954 152.681 133.044 152.727 133.127 152.7Z" fill="white"/>
</mask>
<g mask="url(#mask16_652_16246)">
<path d="M134.208 147.336C134.337 148.793 134.137 150.253 133.939 151.701C133.912 151.906 133.88 152.114 133.782 152.296C133.684 152.477 133.499 152.625 133.292 152.621C133.059 152.617 132.867 152.417 132.796 152.194C132.723 151.972 132.746 151.732 132.769 151.501C132.835 150.827 132.9 150.153 132.967 149.479C133.008 149.045 133.054 148.603 133.234 148.209C133.413 147.812 133.759 147.464 134.208 147.336Z" fill="#252525"/>
</g>
</g>
</g>
<mask id="mask17_652_16246" style="mask-type:luminance" maskUnits="userSpaceOnUse" x="-86" y="4" width="490" height="423">
<path d="M-84.998 132.274L307.137 4.46485C307.22 4.43772 307.308 4.48362 307.335 4.56499L403.162 298.613C403.189 298.696 403.143 298.784 403.062 298.811L10.9266 426.623C10.8431 426.65 10.7555 426.604 10.7284 426.523L-85.0981 132.475C-85.1253 132.391 -85.0794 132.301 -84.998 132.274Z" fill="white"/>
</mask>
<g mask="url(#mask17_652_16246)">
<g opacity="0.3216">
<mask id="mask18_652_16246" style="mask-type:luminance" maskUnits="userSpaceOnUse" x="127" y="149" width="5" height="6">
<path d="M129.026 154.1L131.498 153.295C131.581 153.268 131.625 153.178 131.598 153.097L130.317 149.166C130.29 149.082 130.2 149.039 130.119 149.066L127.647 149.871C127.563 149.898 127.519 149.988 127.547 150.069L128.828 154C128.853 154.081 128.942 154.127 129.026 154.1Z" fill="white"/>
</mask>
<g mask="url(#mask18_652_16246)">
<path d="M127.559 150.075C128.617 151.075 129.675 152.074 130.73 153.076C130.839 153.178 130.949 153.282 131.089 153.332C131.229 153.382 131.404 153.364 131.498 153.249C131.632 153.084 131.534 152.84 131.423 152.658C130.749 151.563 129.731 150.716 128.636 150.042C128.433 149.919 128.219 149.796 127.981 149.792C127.745 149.785 127.451 149.973 127.559 150.075Z" fill="#252525"/>
</g>
</g>
</g>
<mask id="mask19_652_16246" style="mask-type:luminance" maskUnits="userSpaceOnUse" x="-96" y="17" width="488" height="420">
<path d="M-94.9514 141.027L298.588 17.6094C298.671 17.5843 298.759 17.6302 298.786 17.7137L391.318 312.813C391.343 312.897 391.297 312.984 391.214 313.011L-2.3251 436.429C-2.40855 436.454 -2.49618 436.408 -2.52329 436.325L-95.0557 141.225C-95.0807 141.142 -95.0348 141.054 -94.9514 141.027Z" fill="white"/>
</mask>
<g mask="url(#mask19_652_16246)">
<g opacity="0.1412">
<mask id="mask20_652_16246" style="mask-type:luminance" maskUnits="userSpaceOnUse" x="125" y="85" width="95" height="95">
<path d="M148.165 179.018L219.827 156.546V156.544L197.548 85.4941L125.886 107.969L148.163 179.018H148.165Z" fill="white"/>
</mask>
<g mask="url(#mask20_652_16246)">
<path d="M211.052 153.45C203.483 148.288 195.013 143.769 186.094 137.239C179.498 132.411 173.427 127.702 169.958 124.52C164.012 119.064 158.212 115.278 150.464 114.022C149.097 113.8 147.86 113.636 146.807 113.558C145.246 113.444 144.287 113.473 143.527 113.521C143.65 113.273 143.809 113.033 143.821 112.716C143.903 110.55 141.716 109.26 140.913 109.219C140.106 109.175 139.935 109.26 139.484 109.39C138.783 109.59 138.166 110.009 137.702 110.583C138.232 109.657 137.848 108.355 137.579 107.871C137.054 106.92 136.069 105.428 134.49 105.413C133.075 105.401 132.045 106.7 132.057 107.662C132.076 109.283 133.916 111.226 133.132 112.131C133.132 112.131 133.104 112.156 133.104 112.158C133.624 115.296 132.41 118.718 129.869 120.66C134.592 119.021 139.943 120.043 144.318 122.463C148.695 124.883 152.644 127.427 155.807 131.301C158.721 134.871 160.561 140.627 161.018 144.036C161.692 149.071 161.252 155.315 154.029 163.116C159.545 159.676 164.859 157.854 174.049 160.168C177.818 161.117 181.175 164.992 183.768 167.85C183.989 167.049 184.244 166.254 184.549 165.468" fill="#523618"/>
</g>
</g>
</g>
<path d="M223.104 177.225L219.678 177.586L221.302 179.9L223.104 177.225Z" fill="black"/>
<path d="M143.06 259.758C143.484 259.445 144.084 259.616 144.554 259.852C145.539 260.349 146.402 261.087 147.045 261.984C145.793 262.441 144.541 262.9 143.29 263.357C143.329 262.157 143.212 260.949 143.06 259.758Z" fill="#BDBDBD"/>
<path d="M101.669 231.141C99.2179 233.015 96.6059 233.726 94.7054 236.157C92.8048 238.588 90.6205 241.686 90.4286 245.79C90.2868 248.788 93.0385 253.666 94.7242 256.149C97.5593 260.321 100.609 264.684 105.172 266.839C108.032 268.189 111.243 268.548 114.387 268.888C119.388 269.428 124.39 269.967 129.391 270.507C133.088 270.906 137.177 271.208 140.175 269.007C144.216 266.042 144.299 259.944 142.666 255.206C152.775 259.752 164.271 259.251 175.348 259.606C183.599 259.871 197.281 256.071 205.115 250.067C215.333 242.235 217.236 232.568 215.548 224.039C214.582 219.163 205.177 219.875 200.225 219.478C181.968 218.018 163.711 216.557 145.453 215.097C139.972 214.659 134.319 214.239 129.101 215.969C125.534 217.152 122.367 219.278 119.25 221.381C111.837 226.384 104.986 228.608 101.669 231.141Z" fill="#D08A5A"/>
<path opacity="0.1608" d="M105.846 235.923C100.129 237.271 99.9499 235.832 95.5438 242.581C92.3331 247.499 97.7468 259.737 102.013 264.004C99.1091 262.329 95.162 257.373 92.4896 252.383C92.3394 252.103 91.991 251.363 91.5508 250.394C91.1544 249.524 90.7496 248.166 90.6641 247.797C90.5535 247.307 90.4012 246.595 90.4242 246.021C90.5097 243.858 90.9019 242.571 91.8115 240.582C93.0633 237.841 95.3101 234.492 97.5612 235.773C102.428 238.544 102.322 234.676 107.909 235.076C106.234 235.7 104.56 236.322 105.846 235.923Z" fill="#141414"/>
<path opacity="0.1608" d="M126.527 232.567C122.129 232.938 122.463 234.15 116.492 239.32C111.245 243.864 117.775 269.806 120.66 269.564C122.457 278.477 113.404 257.409 112.436 253.063C111.869 250.514 110.891 244.978 111.108 242.579C111.279 240.701 115.003 235.296 115.32 236.443C116.098 239.266 118.864 232.235 120.652 231.008C124.612 228.294 124.309 230.724 128.198 232.072C126.856 232.412 125.515 232.748 126.527 232.567Z" fill="#141414"/>
<path opacity="0.1608" d="M141.312 253.182C143.193 255.064 140.066 265.362 137.734 267.694C136.277 269.151 141.134 266.326 140.346 268.229C141.579 267.98 141.804 267.346 142.536 266.201C143.177 265.199 143.665 263.038 143.665 260.989C143.663 258.786 143.06 254.68 141.312 253.182Z" fill="#141414"/>
<path opacity="0.1608" d="M154.055 258.429C156.733 258.861 159.61 259.057 162.466 259.239C165.646 259.441 173.947 259.585 177.575 259.585C181.63 259.585 189.274 257.751 193.63 256.094C202.34 252.783 207.573 248.909 211.432 243.71C215.062 238.819 216.819 232.813 215.794 225.45C212.383 250.438 182.676 260.257 154.055 258.429Z" fill="#141414"/>
<path opacity="0.1608" d="M97.7639 260.098C97.3467 260.593 97.3676 261.279 97.7264 261.819C98.0852 262.36 99.1137 263.718 99.7229 264.2C103.929 267.521 112.589 271.118 120.041 271.035C124.904 270.981 129.337 269.249 134.2 269.199C135.698 269.184 137.248 269.332 138.654 268.817C140.06 268.3 141.27 267.079 140.88 265.633C138.137 266.491 135.927 267.062 133.351 267.515C127.167 268.606 121.797 268.563 116.11 267.709C114.61 267.484 112.958 267.215 111.475 266.877C109.226 266.361 107.283 265.811 105.306 264.987C104.177 264.517 103.165 264.043 102.153 263.461C101.861 263.292 101.563 263.109 101.273 262.931C100.843 262.669 100.086 262.141 99.4267 261.615C99.0929 261.348 98.7758 261.066 98.5755 260.887C98.2438 260.591 98.0206 260.361 98.0206 260.361C97.9538 260.296 97.8662 260.2 97.7639 260.098Z" fill="#141414"/>
<g opacity="0.1686">
<mask id="mask21_652_16246" style="mask-type:luminance" maskUnits="userSpaceOnUse" x="125" y="160" width="72" height="50">
<path d="M142.347 209.82L195.802 187.384C195.898 187.344 196.572 187.235 196.534 187.146L184.649 160.319C184.611 160.227 184.501 160.188 184.405 160.227L125.108 182.249C125.012 182.289 126.425 187.613 126.462 187.703L142.103 209.731C142.14 209.82 142.249 209.862 142.347 209.82Z" fill="white"/>
</mask>
<g mask="url(#mask21_652_16246)">
<path d="M126.942 181.567C131.194 185.892 130.693 186.33 136.924 191.342C146.296 198.88 158.513 195.274 163.351 193.735C175.294 189.937 178.636 180.188 182.763 168.439C182.838 168.227 185.506 165.898 185.471 166.119C183.52 177.832 178.336 190.57 168.531 197.811C165.76 199.856 162.696 201.654 159.322 202.368C152.104 203.895 144.134 204.774 139.034 199.965C135.268 196.413 129.781 188.537 128.071 184.179" fill="black"/>
</g>
</g>
<path d="M89.6779 258.715C89.8198 262.053 84.1682 265.114 82.8559 268.185C81.5437 271.256 82.5597 276.432 85.1946 278.485C84.0826 276.806 80.8824 276.568 80.1125 278.429C79.3427 280.29 80.3566 283.419 81.9422 284.661C83.5277 285.902 85.785 286.397 87.746 286.86C127.779 296.294 149.244 293.063 149.244 293.063C149.244 293.063 147.952 292.451 148.434 291.172C148.916 289.891 150.466 289.247 151.478 288.327C153.854 286.167 153.17 283.05 152.238 281.613C151.305 280.175 150.037 280.025 148.66 279.756C150.126 280.363 154.126 274.554 152.2 271.869C150.631 269.683 147.185 267.715 146.757 262.585C139.192 265.32 130.395 267.246 121.03 266.395C111.665 265.543 100.966 263.338 95.3441 256.196C93.3121 253.613 92.6278 252.074 91.182 249.881C91.0861 250.607 89.3399 250.782 89.6779 258.715Z" fill="#FFF5F8"/>
<path opacity="0.1608" d="M152.177 271.806C152.452 274.746 151.634 276.574 149.609 278.597C147.57 280.636 143.475 281.157 140.598 281.351C143.348 281.351 147.61 280.621 149.446 279.634C150.718 278.95 151.663 277.229 152.237 275.902C152.811 274.575 152.953 272.918 152.177 271.806Z" fill="#141414"/>
<path opacity="0.1608" d="M88.5342 261.627C89.4479 264.189 90.174 265.66 92.4417 267.056C93.587 267.761 94.2588 267.799 95.5627 268.424C97.7574 269.476 100.415 270.588 103.238 271.199C101.575 270.79 98.0641 268.756 96.514 267.68C95.0849 266.686 92.6837 266.09 91.4299 264.583C90.1093 263 89.6357 262.274 89.279 260.434C89.1517 260.809 89.2059 260.605 88.989 260.964C88.7637 261.333 88.7616 261.249 88.5342 261.627Z" fill="#141414"/>
<path opacity="0.1608" d="M152.16 281.496C153.022 283.779 152.567 286.649 150.51 287.958C145.689 291.025 132.765 290.117 130.078 290.117C131.901 290.328 144.291 291.918 148.512 290.251C149.957 289.679 151.975 288.254 152.728 286.581C153.481 284.907 153.128 283.149 152.16 281.496Z" fill="#141414"/>
<path opacity="0.1608" d="M83.1871 267.51C82.5195 270.281 83.039 273.29 84.4597 275.76C85.8804 278.23 87.468 278.962 91.5758 280.577C84.7372 278.62 80.4291 276.813 81.1113 281.088C81.4514 283.219 83.5439 284.717 85.5571 285.497C89.7003 287.103 94.1544 288.182 98.4833 289.188C95.2079 288.558 92.79 288.034 89.5313 287.277C86.8213 286.647 83.5167 286.092 81.7726 284.523C81.4034 284.191 81.1363 283.784 80.8234 283.335C80.0035 282.163 79.5258 279.578 80.1683 278.307C80.813 277.03 82.7511 276.753 84.3408 277.675C83.9298 277.116 83.427 276.425 83.1308 275.601C82.1961 273.006 81.7643 270.026 83.1871 267.51Z" fill="#141414"/>
<path opacity="0.1608" d="M89.6836 254.976C95.1933 264.41 107.523 268.362 112.117 269.278C124.542 271.758 132.983 270.943 144.979 265.624C135.716 269.142 125.502 270.114 115.743 268.41C105.985 266.707 97.0834 261.777 89.6836 254.976Z" fill="#141414"/>
<path d="M91.0924 249.211C89.4652 249.714 88.5055 251.539 88.904 253.194C89.3024 254.848 90.5166 256.173 91.7454 257.352C104.173 269.294 119.728 271.667 136.616 268.226C137.192 268.109 143.803 266.384 146.659 264.677C148.612 263.511 146.624 260.25 144.99 261.12C140.734 263.388 131.891 265.931 124.169 265.566C117.65 265.257 109.124 263.544 103.249 260.703C97.374 257.861 94.0924 254.452 91.0924 249.211Z" fill="white"/>
<path d="M203.268 149.733C205.256 145.762 214.344 143.06 221.393 145.495C227.746 147.688 234.551 159.651 233.748 180.905C233.135 197.133 229.928 218.829 229.173 222.535C226.302 236.601 221.393 249.42 221.393 249.42L227.279 251.694C227.279 251.694 220.119 248.203 217.874 247.037C216.291 246.215 211.96 243.739 211.96 243.739C211.96 243.739 211.878 243.905 211.309 244.586C216.485 248.226 227.249 251.89 227.249 251.89C227.249 251.89 227.348 251.807 227.592 251.16C227.996 250.081 228.802 247.661 230.233 243.09C231.983 237.496 235.037 226.605 236.36 217.911C238.146 206.175 238.786 198.354 239.01 194.195C239.318 188.433 239.765 184.187 239.602 177.892C239.475 172.904 238.974 169.157 238.029 164.759C236.865 159.338 235.847 155.716 233.179 150.857C232.058 148.817 230.416 146.947 228.691 145.564C226.966 144.181 225.157 143.288 223.248 142.568C221.368 141.859 219.693 141.773 218.093 141.827C216.086 141.896 213.597 142.393 211.102 143.421C208.601 144.452 206.106 145.954 204.113 148.195C203.667 148.696 203.498 149.192 203.268 149.733Z" fill="#D5D5D5"/>
<path d="M113.062 200.297C115.142 210.345 124.903 227.315 124.903 227.315L155.054 232.539C155.054 232.539 161.156 226.045 185.592 229.456C186.416 229.57 205.158 231.936 211.158 232.145C214.267 232.254 215.996 231.717 215.996 231.717C215.996 231.717 216.061 230.854 216.084 230.286C216.107 229.694 216.084 226.66 216.084 226.66C216.084 226.66 196.947 206.372 199.311 204.574C199.413 204.496 200.389 206.827 194.911 190.309C202.169 184.188 213.113 178.646 223.112 177.25C223.112 177.25 219.013 164.296 216.023 157.741C211.893 148.679 202.784 146.445 197.358 147.983C191.469 149.65 187.019 156.748 185.231 160.966C180.099 173.086 180.85 174.989 178.027 180.924C175.261 186.737 168.921 197.248 152.969 197.799C148.244 197.962 141.312 197.086 133.772 189.545C127.995 183.768 126.197 179.585 125.619 178.246C125.529 178.037 125.383 177.797 125.383 177.797C125.383 177.797 121.933 178.079 119.467 181.813C118.25 183.653 116.369 192.635 116.369 192.635" fill="#232D40"/>
<g opacity="0.1412">
<mask id="mask22_652_16246" style="mask-type:luminance" maskUnits="userSpaceOnUse" x="176" y="168" width="63" height="129">
<path d="M213.596 296.04L238.221 288.342C238.294 288.319 238.336 288.243 238.313 288.175L201.03 168.903C201.009 168.834 200.932 168.794 200.859 168.817L176.233 176.516C176.16 176.539 176.119 176.614 176.142 176.683L213.424 295.955C213.447 296.026 213.523 296.063 213.596 296.04Z" fill="white"/>
</mask>
<g mask="url(#mask22_652_16246)">
<path d="M188.738 174.966C188.738 174.966 192.762 193.164 196.282 216.721C197.193 222.832 200.366 216.314 200.366 224.015C200.366 226.393 205.365 229.127 202.273 215.329C200.769 208.618 198.983 200.965 197.577 192.358V192.463C197.36 189.775 198.003 195.459 195.088 190.378C195.088 190.378 193.54 188.227 191.275 182.123L188.738 174.966Z" fill="black"/>
</g>
</g>
<g opacity="0.2784">
<mask id="mask23_652_16246" style="mask-type:luminance" maskUnits="userSpaceOnUse" x="126" y="193" width="5" height="12">
<path d="M128.292 204.383L130.117 204.066C130.192 204.054 130.242 203.983 130.23 203.908L128.402 193.386C128.39 193.311 128.319 193.261 128.244 193.273L126.418 193.591C126.343 193.603 126.293 193.674 126.306 193.749L128.133 204.271C128.146 204.346 128.217 204.396 128.292 204.383Z" fill="white"/>
</mask>
<g mask="url(#mask23_652_16246)">
<path d="M128.377 193.248C127.935 196.593 127.878 197.202 128.041 200.175C128.062 200.557 128.254 203.478 128.291 204.381C128.308 204.779 128.953 206.48 128.93 206.995C128.917 207.277 129.735 207.502 129.72 207.911C129.518 205.56 128.755 201.341 128.621 198.825C128.502 196.576 128.316 194.907 128.377 193.248Z" fill="black"/>
</g>
</g>
<path d="M133.052 221.394C140.976 221.394 143.884 221.661 151.63 221.407C149.356 224.19 144.948 227.49 143.974 230.95C139.826 231.455 135.773 232.713 132.07 234.645C132.527 230.274 133.238 225.93 133.052 221.394Z" fill="#8F8F8F"/>
<path d="M81.9087 235.122C74.5839 219.589 68.6987 202.078 63.9358 185.677C63.7543 185.053 64.182 184.362 64.8663 184.32C83.442 183.152 105.322 183.073 120.289 184.258C122.828 184.458 137.025 226.25 139.449 239.322C119.037 239.322 101.567 237.869 83.7299 236.346C82.933 236.277 82.232 235.81 81.9087 235.122Z" fill="#B3BCC9"/>
<path opacity="0.1686" d="M83.7293 236.347C101.064 237.826 118.054 239.239 137.733 239.318C124.041 234.966 111.891 227.555 94.6611 216.643C78.2008 206.217 67.1939 189.691 63.9373 185.076C63.881 185.268 63.8747 185.477 63.9331 185.677C68.696 202.076 74.5812 219.587 81.9059 235.122C82.2314 235.811 82.9324 236.278 83.7293 236.347Z" fill="#141414"/>
<path d="M151.213 217.671C144.681 222.677 141.764 224.75 137.11 231.796C134.928 235.101 132.07 241.062 132.07 241.062C132.07 241.062 131.504 243.505 131.486 244.559C131.465 245.71 131.942 249.85 131.942 249.85C131.94 249.998 132.097 250.094 132.226 250.025C132.879 249.679 135.057 248.819 137.348 247.582C142.799 244.636 151.073 239.789 156.691 236.347C157.196 236.038 157.718 235.712 158.039 235.214C158.65 234.262 158.331 232.956 157.651 232.051C156.973 231.147 155.999 230.517 155.143 229.777C152.095 227.137 150.589 221.967 151.213 217.671Z" fill="#F2DFA7"/>
<path opacity="0.1608" d="M151.525 217.671C151.002 217.84 149.681 218.773 147.497 220.532C145.813 221.89 143.418 223.822 141.699 225.76C139.782 227.922 137.673 230.726 136.523 232.697C141.086 227.934 149.059 222.414 151.319 222.405C151.613 223.626 151.826 223.252 152.12 224.473C149.343 226.286 146.049 227.288 139.444 232.95C137.913 234.262 135.547 236.995 134.084 238.669C132.622 240.342 132.065 241.062 132.065 241.062C132.065 241.062 131.712 242.32 131.652 243.021C134.733 240.38 139.988 235.257 143.616 232.762C149.664 228.604 153.828 227.592 155.091 227.861C153.789 228.612 150.004 231.074 146.193 233.707C144.82 234.657 142.742 235.825 141.098 237.617C137.61 241.425 133.638 244.951 131.959 249.985C131.936 250.052 132.017 250.102 132.063 250.048C135.549 246.006 139.849 241.855 144.384 238.362C149.85 234.156 155.66 230.816 160.811 228.546C155.547 234.717 147.153 240.163 141.198 245.447C144.609 243.542 153.78 238.199 156.901 236.211C157.143 236.057 159.933 233.148 160.146 232.985C160.319 232.852 160.838 229.466 161.011 229.326C161.17 229.197 157.394 233.15 157.586 232.971C157.671 232.889 157.732 232.996 157.732 232.996C157.732 232.996 158.151 229.741 158.358 229.553C154.07 226.38 153.067 222.775 151.525 217.671Z" fill="black"/>
<path d="M150.042 218.558C150.042 218.558 155.212 212.614 168.086 212.614C168.334 212.614 169.275 212.75 170.502 212.51C172.795 212.061 181.642 207.722 197.892 203.582C197.673 198.825 195.987 194.146 194.598 189.587C201.797 183.392 211.594 178.886 221.005 177.601C224.675 189.629 226.738 205.02 223.707 218.199C223.102 220.828 221.27 226.071 220.488 226.524C218.773 227.519 215.218 228.156 212.765 228.329C204.91 228.886 203.095 228.694 195.226 229.007C190.532 229.193 177.322 233.843 170.673 232.03C164.318 236.023 160.626 236.653 156.635 236.653C156.493 236.653 156.124 236.733 156.09 236.724C154.916 236.462 151.405 233.68 148.465 228.83C146.533 225.646 150.042 218.558 150.042 218.558Z" fill="#D08A5A"/>
<path opacity="0.1608" d="M148.845 229.44C149.786 231.235 154.009 234.341 157.036 234.644C160.774 235.017 165.249 235.092 169.307 232.858C168.593 233.277 165.399 235.326 161.648 236.134C160.812 236.313 159.026 236.576 157.701 236.634C157.432 236.647 157.161 236.638 156.896 236.651C156.733 236.657 156.656 236.638 156.579 236.655C156.514 236.67 156.41 236.678 156.351 236.686C156.172 236.714 156.074 236.722 156.074 236.722C156.074 236.722 155.755 236.661 155.204 236.319C154.219 235.704 153.007 234.658 152.231 233.795C150.742 232.128 149.936 231.187 148.845 229.44Z" fill="#141414"/>
<path opacity="0.1608" d="M200.181 203.338C199.023 203.163 195.954 204.05 192.754 204.961C189.111 206 186.802 206.66 182.882 208.041C181.841 208.408 179.32 209.293 177.339 210.031C175.104 210.866 173.717 211.413 172.229 211.967C170.158 212.739 170.268 212.387 166.544 214.709C167.583 214.183 180.931 209.374 182.099 208.951C193.327 204.895 187.826 206.286 200.181 203.338Z" fill="#141414"/>
<path d="M108.111 126.948C105.739 129.441 102.681 133.581 101.863 138.26C101.448 140.63 100.839 142.575 100.839 146.65C100.839 148.696 98.9902 149.462 98.6522 150.361C98.237 151.469 98.6418 156.871 100.267 159.932C101.333 161.939 103.843 162.11 104.404 163.397C105.286 165.421 107.663 168.884 109.225 170.445C111.823 173.042 112.791 172.719 115.822 172.928C123.161 173.433 126.353 166.919 121.367 166.301C118.317 165.922 118.569 170.067 113.562 170.318C112.156 170.386 108.159 167.036 106.012 162.375C102.704 155.193 101.085 151.152 102.574 143.848C103.763 138.01 113.016 127.741 120.157 123.896C131.316 117.887 138.962 116.095 150.637 118.331C153.416 118.863 161.583 121.736 159.441 124.632C156.914 128.045 157.659 131.219 158.393 132.825C159.793 135.892 162.055 140.284 166.59 140.284C169.878 140.284 174.597 138.607 175.29 132.727C175.918 127.397 172.039 123.249 168.468 121.48C167.393 120.948 165.781 120.902 164.133 119.76C159.681 116.679 156.366 115.494 150.887 113.652C142.277 110.758 133.584 111.432 125.258 115.083C116.932 118.734 111.578 123.301 108.111 126.948Z" fill="#252525"/>
<path opacity="0.6" d="M168.463 121.476C167.389 120.944 165.776 120.898 164.128 119.757C159.676 116.675 156.361 115.49 150.883 113.648C142.273 110.754 133.58 111.428 125.254 115.079C116.927 118.73 111.58 123.301 108.113 126.948C105.971 129.202 103.263 132.803 102.159 136.93C102.111 137.121 102.061 137.313 102.017 137.505C102.017 137.51 102.015 137.514 102.015 137.518C107.062 126.921 116.773 121.388 120.962 119.151C127.265 115.788 138.023 112.141 150.445 115.676C157.21 117.601 164.452 121.209 167.485 126.258C170.249 130.858 169.882 136.36 165.39 140.17C165.39 140.17 165.39 140.17 165.393 140.17C166.413 140.109 167.447 140.12 168.463 140.101C171.438 139.54 174.72 137.547 175.287 132.721C175.911 127.393 172.033 123.245 168.463 121.476Z" fill="#141414"/>
<path opacity="0.1608" d="M186.779 157.857C190.501 155.825 199.884 156.8 204.161 161.458C209.807 167.607 211.934 172.485 213.916 181.415C217.311 196.716 219.543 200.246 217.609 217.127C216.952 222.859 213.322 224.759 196.918 226.397C190.759 227.012 181.665 231.187 178.718 231.749C177.925 231.899 177.14 232.001 176.383 232.062C174.109 232.245 172.054 232.064 170.59 231.736C169.244 231.436 168.439 230.991 168.051 230.81C168.416 231.098 169.58 231.88 171.391 232.193C172.812 232.439 174.768 232.527 176.873 232.327C181.58 231.882 186.833 230.584 187.113 230.528C190.002 229.94 190.755 229.589 192.606 229.349C194.827 229.061 199.219 228.911 200.694 228.832C203.738 228.671 204.593 228.711 205.565 228.711C206.99 228.711 208.453 228.586 209.444 228.538C211.836 228.421 212.984 228.285 215.133 228.056C216.685 227.891 218.93 227.196 219.455 227C219.485 226.99 219.854 226.841 220.123 226.712C220.384 226.587 220.542 226.48 220.565 226.462C220.893 226.209 221.212 225.487 221.633 224.517C222.144 223.334 222.664 221.832 222.971 220.826C224.861 214.638 225.729 206.616 224.99 198.131C224.485 192.341 224.039 187.793 221.116 177.576C221.882 177.411 221.827 177.417 223.115 177.244C222.839 176.28 222.307 174.895 221.577 172.55C220.803 170.067 219.654 167.058 218.892 164.882C217.396 160.605 215.46 155.884 213.403 153.534C211.044 150.841 208.553 149.04 204.885 148.081C202.647 147.494 198.234 146.618 194.387 149.32C190.87 151.792 188.848 154.144 186.779 157.857Z" fill="#141414"/>
<path opacity="0.6" d="M100.174 148.569C100.076 151.673 100.499 158.325 103.265 162.341C101.863 161.565 100.608 161.252 99.7001 158.648C99.4789 158.016 99.2223 157.384 99.0617 156.453C98.8927 155.479 98.2814 152.861 98.6006 150.549C98.682 149.956 99.65 149.284 100.174 148.569Z" fill="#141414"/>
<path opacity="0.6" d="M109.224 170.447C111.22 171.832 115.572 172.293 118.405 171.455C121.658 170.491 121.891 169.281 123.335 167.188C124.209 168.361 123.633 169.742 122.423 170.952C121.658 171.718 120.372 172.323 119.102 172.663C118.424 172.842 117.988 172.903 117.162 172.944C116.703 172.967 116.461 172.98 115.941 172.938C114.692 172.834 112.397 172.892 111.339 172.158C110.642 171.672 110.012 171.336 109.224 170.447Z" fill="#141414"/>
<path d="M107.713 281.334C107.333 280.727 107.164 280.445 106.933 279.759C106.699 279.074 106.762 278.229 107.271 277.701C107.774 277.182 108.658 277.115 109.207 277.553C109.756 277.991 109.891 278.876 109.505 279.487C109.157 278.711 110.012 277.726 110.851 277.837C111.689 277.948 112.234 278.905 112.084 279.756C111.934 280.608 111.132 281.117 110.434 281.613C108.769 282.8 108.391 282.414 107.713 281.334Z" fill="#FF0069"/>
<path d="M112.701 268.88C112.382 268.599 112.057 268.204 111.856 267.829C111.656 267.453 111.6 266.971 111.829 266.612C112.059 266.253 112.62 266.118 112.927 266.412C112.808 267.925 114.218 267.854 114.055 269.362C113.934 270.476 113.229 271.536 112.436 272.329C110.317 274.449 108.729 277.491 108.498 283.245C108.487 283.52 107.913 283.299 107.792 283.287C107.181 283.224 108.356 276.967 108.894 275.803C109.647 274.175 109.787 273.85 110.945 272.481C111.504 271.82 112.217 271.238 112.614 270.47C113.01 269.7 113.046 269.185 112.701 268.88Z" fill="#D9D9D9"/>
<path d="M127.499 269.836C128.546 269.446 129.193 268.2 128.907 267.119C129.015 266.894 129.349 266.844 129.558 266.984C129.766 267.123 129.858 267.393 129.846 267.645C129.835 267.895 129.739 268.135 129.645 268.367C129.487 268.759 129.32 269.162 129.017 269.456C128.717 269.748 128.237 269.905 127.499 269.836Z" fill="#E1E1E1"/>
<path d="M127.972 270.351C128.391 270.72 128.537 271.365 128.322 271.878C128.577 272.085 128.996 271.976 129.178 271.701C129.357 271.425 129.321 271.05 129.161 270.766C128.998 270.482 128.727 270.274 128.445 270.109C128.345 270.111 128.247 270.113 127.972 270.351Z" fill="#D9D9D9" stroke="#D9D9D9" stroke-miterlimit="10"/>
<path d="M134.805 268.87C135.091 268.377 135.374 267.885 135.66 267.393C135.721 267.29 135.791 267.178 135.908 267.153C136.046 267.124 136.179 267.247 136.215 267.382C136.248 267.52 136.211 267.662 136.163 267.795C136.031 268.179 135.842 268.54 134.805 268.87Z" fill="#D9D9D9"/>
<path d="M116.384 269.752C116.261 269.383 115.987 269.12 115.82 268.776C115.654 268.432 115.651 267.891 115.952 267.731C116.217 267.591 116.517 267.862 116.64 268.181C116.761 268.498 116.776 268.863 116.887 269.189C116.997 269.514 117.272 269.809 116.384 269.752Z" fill="#D9D9D9"/>
<path d="M91.092 249.211C90.5642 250.459 90.6956 251.202 91.432 252.339C92.3333 253.731 95.9279 256.831 98.0224 257.524C94.7471 254.563 92.6817 251.909 91.092 249.211Z" fill="#BDBDBD"/>
<path d="M93.6026 285.483C93.1353 285.285 92.6325 285.147 92.2465 284.82C91.8606 284.492 91.5977 283.969 91.7229 283.478C91.846 282.996 92.3655 282.65 92.8578 282.723C93.3502 282.796 93.7486 283.276 93.7278 283.772C93.2375 283.43 93.4127 282.548 93.9677 282.325C94.5226 282.101 95.1965 282.483 95.4072 283.042C95.6179 283.601 95.3613 284.206 95.0546 284.718C94.5143 285.619 94.5769 285.896 93.6026 285.483Z" fill="#FF0069"/>
<path d="M122.542 279.589C121.981 278.836 121.576 278.59 121.175 277.73C120.775 276.871 120.733 275.759 121.326 274.997C121.906 274.248 123.051 274.035 123.829 274.53C124.607 275.024 124.912 276.159 124.492 277.013C123.927 276.049 124.903 274.642 126.013 274.67C127.123 274.697 127.97 275.867 127.895 277C127.82 278.133 126.85 278.913 126.005 279.658C124.492 280.989 123.495 280.868 122.542 279.589Z" fill="#FF0069"/>
<path d="M90.8313 275.306C90.2034 274.818 89.4669 274.448 88.9934 273.802C88.5177 273.155 88.3007 272.241 88.6637 271.513C89.0205 270.795 89.9343 270.428 90.6603 270.71C91.3863 270.989 91.8265 271.88 91.622 272.656C90.9941 271.951 91.5699 270.624 92.4941 270.461C93.4183 270.299 94.3153 271.129 94.4405 272.08C94.5657 273.032 93.9899 273.925 93.316 274.597C92.3543 275.558 92.1644 276.343 90.8313 275.306Z" fill="#FF0069"/>
<path d="M143.986 274.263C143.548 273.599 142.936 272.944 142.64 272.199C142.344 271.455 142.365 270.516 142.899 269.902C143.425 269.299 144.401 269.174 145.033 269.629C145.665 270.084 145.865 271.056 145.473 271.755C145.044 270.914 145.936 269.775 146.871 269.852C147.806 269.929 148.465 270.958 148.344 271.909C148.225 272.861 147.171 273.864 146.308 274.263C145.444 274.661 144.699 275.344 143.986 274.263Z" fill="#FF0069"/>
<path d="M140.323 287.015C140.058 286.55 139.726 286.291 139.551 285.78C139.378 285.269 139.422 284.636 139.804 284.242C140.179 283.854 140.838 283.804 141.249 284.131C141.658 284.459 141.76 285.12 141.473 285.577C141.212 284.997 141.852 284.261 142.478 284.344C143.104 284.428 143.513 285.143 143.4 285.78C143.288 286.416 142.71 286.827 142.167 287.167C141.124 287.822 140.861 287.958 140.323 287.015Z" fill="#FF0069"/>
<path d="M121.156 292.629C121.156 292.629 120.564 292.016 120.39 291.505C120.217 290.994 120.261 290.361 120.643 289.967C121.018 289.579 121.678 289.529 122.089 289.857C122.498 290.184 122.6 290.846 122.312 291.302C122.051 290.722 122.692 289.986 123.317 290.069C123.943 290.153 124.352 290.868 124.24 291.505C124.127 292.141 122.854 292.796 122.854 292.796L121.156 292.629Z" fill="#FF0069"/>
</g>
<mask id="mask24_652_16246" style="mask-type:luminance" maskUnits="userSpaceOnUse" x="90" y="201" width="21" height="23">
<path fill-rule="evenodd" clip-rule="evenodd" d="M110.533 215.009C110.794 214.99 110.989 215.477 110.958 216.07C110.93 216.62 110.72 217.064 110.478 217.085L110.35 217.097L110.127 217.117C107.591 217.353 99.3061 218.487 91.5294 223.58C91.5233 223.666 90.3801 224.053 90.4073 223.52C90.4073 223.52 99.4722 215.806 110.533 215.009ZM101.903 201.261C102.347 201.141 102.82 201.192 103.229 201.403C103.803 201.76 104.25 202.29 104.506 202.916C104.791 203.709 104.337 204.647 104.061 205.17C103.613 205.94 103.097 207.143 102.846 207.702C102.685 208.073 102.467 208.289 102.029 207.969C101.857 207.862 101.713 207.717 101.608 207.544C101.502 207.372 101.439 207.177 101.423 206.975C101.383 206.524 101.587 205.683 102.203 204.624C102.663 203.746 103.152 202.717 102.839 202.579C102.008 202.201 97.6556 206.252 97.7594 208.634C97.8167 210.002 100.813 210.522 101.687 210.912C101.879 210.983 102.048 211.104 102.176 211.263C102.304 211.423 102.387 211.613 102.415 211.816C102.457 212.287 102.23 212.882 101.737 213.641C101.059 214.524 100.077 215.124 98.9813 215.326C98.009 215.493 97.0117 215.443 96.0614 215.179C95.1111 214.915 94.2315 214.443 93.486 213.798C93.1596 213.515 93.287 213.256 93.5734 213.088C93.7816 212.995 93.999 212.925 94.2221 212.879C94.7855 212.727 95.3844 212.778 95.9138 213.023C96.7969 213.494 98.2815 214.207 99.5046 213.933C99.9223 213.866 100.306 213.662 100.595 213.354C100.656 213.296 100.702 213.225 100.73 213.146C100.759 213.068 100.768 212.984 100.759 212.901C100.749 212.818 100.721 212.738 100.675 212.668C100.629 212.598 100.568 212.539 100.496 212.497C98.8746 211.69 95.8406 211.24 95.6534 209.148C95.4039 206.359 98.4781 203.181 100.309 201.974C100.787 201.632 101.329 201.39 101.903 201.261Z" fill="white"/>
</mask>
<g mask="url(#mask24_652_16246)">
<mask id="mask25_652_16246" style="mask-type:luminance" maskUnits="userSpaceOnUse" x="88" y="200" width="24" height="25">
<path d="M109.994 200.073L88.0391 202.037L90.0391 224.393L111.994 222.429L109.994 200.073Z" fill="white"/>
</mask>
<g mask="url(#mask25_652_16246)">
<mask id="mask26_652_16246" style="mask-type:luminance" maskUnits="userSpaceOnUse" x="88" y="200" width="24" height="24">
<path d="M90.4392 223.915L111.515 222.029L109.594 200.55L88.5176 202.436L90.4392 223.915Z" fill="white"/>
</mask>
<g mask="url(#mask26_652_16246)">
<path d="M88.0391 202.037L109.994 200.073L111.994 222.429L90.0391 224.393L88.0391 202.037Z" fill="#0057FF"/>
</g>
</g>
</g>
<defs>
<filter id="filter0_b_652_16246" x="-100" y="-48.0752" width="474.711" height="452.028" filterUnits="userSpaceOnUse" color-interpolation-filters="sRGB">
<feFlood flood-opacity="0" result="BackgroundImageFix"/>
<feGaussianBlur in="BackgroundImageFix" stdDeviation="50"/>
<feComposite in2="SourceAlpha" operator="in" result="effect1_backgroundBlur_652_16246"/>
<feBlend mode="normal" in="SourceGraphic" in2="effect1_backgroundBlur_652_16246" result="shape"/>
</filter>
<filter id="filter1_b_652_16246" x="-35.3638" y="13.3125" width="345.733" height="329.967" filterUnits="userSpaceOnUse" color-interpolation-filters="sRGB">
<feFlood flood-opacity="0" result="BackgroundImageFix"/>
<feGaussianBlur in="BackgroundImageFix" stdDeviation="25"/>
<feComposite in2="SourceAlpha" operator="in" result="effect1_backgroundBlur_652_16246"/>
<feBlend mode="normal" in="SourceGraphic" in2="effect1_backgroundBlur_652_16246" result="shape"/>
</filter>
<linearGradient id="paint0_linear_652_16246" x1="349.796" y1="331.803" x2="-79.9108" y2="-117.01" gradientUnits="userSpaceOnUse">
<stop offset="0.0541064" stop-color="white"/>
<stop offset="0.63085" stop-color="#F9F9FF" stop-opacity="0.65"/>
<stop offset="0.792052" stop-color="#E4EEFF" stop-opacity="0.33"/>
</linearGradient>
<linearGradient id="paint1_linear_652_16246" x1="327.534" y1="318.691" x2="-64.8191" y2="-83.047" gradientUnits="userSpaceOnUse">
<stop offset="0.0541064" stop-color="#FFF5FD"/>
<stop offset="0.334245" stop-color="#F0F1FE" stop-opacity="0.65"/>
<stop offset="0.733105" stop-color="#D6E4FF" stop-opacity="0.33"/>
</linearGradient>
<linearGradient id="paint2_linear_652_16246" x1="271.283" y1="202.287" x2="37.3749" y2="115.429" gradientUnits="userSpaceOnUse">
<stop stop-color="white"/>
<stop offset="1" stop-color="white" stop-opacity="0.353"/>
</linearGradient>
<clipPath id="clip0_652_16246">
<rect width="262.192" height="111.728" fill="white" transform="translate(3.50586)"/>
</clipPath>
</defs>
</svg>
