<svg width="840" height="794" viewBox="0 0 840 794" fill="none" xmlns="http://www.w3.org/2000/svg">
<g filter="url(#filter0_b_92_86400)">
<path d="M490.791 29.5676C659.592 80.8662 815.074 195.384 815.074 398.622C815.074 601.861 645.345 766.604 435.974 766.604C226.603 766.604 59.8234 638.565 5.57388 446.169C-16.0725 365.278 24.6351 263.187 139.869 193.425C255.103 123.662 321.99 -21.7309 490.791 29.5676Z" fill="url(#paint0_linear_92_86400)" fill-opacity="0.4"/>
</g>
<g filter="url(#filter1_b_92_86400)">
<path d="M482.445 62.4165C633.441 109.225 772.522 213.717 772.522 399.165C772.522 584.613 620.697 734.935 433.411 734.935C246.126 734.935 96.9387 618.104 48.4117 442.549C29.0487 368.74 65.4622 275.586 168.541 211.93C271.619 148.274 331.451 15.6085 482.445 62.4165Z" fill="url(#paint1_linear_92_86400)"/>
</g>
<path d="M447.741 0.951267C428.861 0.919565 410.103 3.97606 392.209 9.99972C383.643 12.8902 375.288 16.3707 367.203 20.4161C359.088 24.4868 351.21 29.0122 343.605 33.9707C336.23 38.7565 328.872 44.0227 321.105 50.0671C314.175 55.4636 307.074 61.3662 299.394 68.1136C285.108 80.6646 270.867 94.379 257.095 107.642C242.672 121.53 227.757 135.894 212.469 149.26C204.227 156.464 196.56 162.791 189.033 168.601C180.567 175.132 172.505 180.842 164.375 186.056C136.51 203.933 112.1 224.421 91.8269 246.954C73.2732 267.349 57.8569 290.391 46.0843 315.323C35.5806 337.576 28.7858 361.396 25.9688 385.841C24.699 397.264 24.4262 408.777 25.1535 420.248C25.8656 431.367 27.5891 442.398 30.3028 453.205C43.6966 503.535 64.1051 550.292 90.9594 592.176C116.94 632.919 149.464 669.097 187.221 699.254C224.782 729.155 267.158 752.445 312.534 768.125C359.22 784.297 408.961 792.491 460.377 792.491C473.309 792.49 486.232 791.819 499.094 790.48C536.568 786.568 573.219 776.924 607.766 761.885C630.331 752.052 651.875 740.025 672.087 725.976C692.246 711.95 711.013 696.023 728.13 678.412C762.822 642.688 790.368 600.664 809.289 554.601C814.085 542.939 818.37 530.897 822.023 518.814C825.719 506.593 828.859 494.033 831.355 481.484C833.885 468.77 835.816 455.757 837.094 442.807C838.392 429.667 839.05 416.267 839.05 402.979C839.05 389.72 838.449 376.514 837.265 363.729C836.103 351.192 834.347 338.717 832.047 326.649C829.792 314.819 826.952 303.058 823.606 291.697C820.327 280.561 816.472 269.503 812.151 258.828C807.917 248.372 803.114 238.001 797.889 228.007C792.767 218.217 787.094 208.519 781.027 199.184C775.086 190.045 768.608 181.007 761.771 172.322C755.08 163.822 747.865 155.429 740.33 147.381C732.955 139.505 725.075 131.747 716.908 124.321C708.918 117.057 700.443 109.918 691.715 103.108C674.27 89.5428 655.937 77.1591 636.84 66.0398C600.153 44.6049 559.152 26.5251 514.973 12.3018C503.512 8.57434 491.792 5.6922 479.909 3.67855C469.277 1.89349 458.517 0.981987 447.736 0.95317M447.736 0.0019024C468.408 0.0019024 490.762 3.50637 515.265 11.3962C684.304 65.8258 840 187.335 840 402.987C840 618.64 670.038 793.446 460.377 793.446C250.717 793.446 83.7069 657.587 29.3819 453.441C7.70635 367.609 48.472 259.283 163.861 185.259C262.527 121.966 325.803 0 447.741 0L447.736 0.0019024Z" fill="url(#paint2_linear_92_86400)"/>
<mask id="mask0_92_86400" style="mask-type:alpha" maskUnits="userSpaceOnUse" x="41" y="54" width="731" height="683">
<path d="M480.956 64.3492C631.952 111.157 771.033 215.65 771.033 401.098C771.033 586.545 619.208 736.867 431.922 736.867C244.637 736.867 95.4494 620.037 46.9224 444.482C27.5594 370.672 63.973 277.519 167.051 213.863C270.13 150.207 329.962 17.5412 480.956 64.3492Z" fill="#D9D9D9"/>
</mask>
<g mask="url(#mask0_92_86400)">
<path d="M655.016 622.209L654.997 660.329C654.997 662.935 653.561 665.306 651.29 666.575C628.492 679.29 610.294 700.083 600.687 724.355C599.586 727.129 596.819 728.354 593.872 728.819C536.529 737.875 464.417 740.06 423.904 725.105C420.395 723.811 410.732 715.305 410.732 715.305C410.732 715.305 418.674 668.494 415.164 645.249C414.583 641.38 417.238 637.765 421.1 637.165C493.454 625.88 572.944 631.197 646.387 615.251C650.832 614.285 655.022 617.671 655.016 622.209Z" fill="#E8E8E8"/>
<path d="M655.015 626.152C655.498 635.896 654.879 650.802 654.78 660.867C654.755 663.288 653.369 665.399 651.301 666.662C629.16 680.206 620.005 687.839 599.065 726.658C598.285 728.101 590.783 729.24 583.46 730.366C573.049 731.97 561.616 733.301 558.546 733.301C608.195 703.841 626.325 662.075 608.752 646.072C644.375 631.903 625.106 639.511 655.015 626.152Z" fill="#D5D5D5"/>
<path d="M601.993 309.386C612.25 292.264 641.992 281.022 660.952 287.281C679.905 293.539 690.453 306.403 697.98 324.893C705.506 343.384 710.508 376.124 710.916 393.594C711.752 429.572 704.33 501.671 696.723 536.844C693.052 553.83 680.481 595.355 677.479 603.65C674.811 611.023 674.978 611.574 673.666 612.88C653.722 632.825 590.4 655.364 551.329 660.001C489.207 667.367 410.608 648.889 367.186 636.979C354.033 633.37 396.186 646.908 397.498 647.831C399.603 649.304 402.481 647.515 402.165 644.965C401.961 643.349 401.856 641.312 401.924 638.756C402.215 628.096 411.351 619.479 421.298 615.653C431.252 611.828 444.653 616.916 452.675 609.896C528.024 543.932 542.279 562.305 563.176 516.651C584.073 470.998 588.852 419.791 591.551 369.649C592.739 347.618 594.677 321.606 601.993 309.386Z" fill="#F2F2F2"/>
<path d="M606.679 638.545C535.179 669.398 445.148 650.449 442.585 650.319C486.372 663.814 536.232 661.889 550.567 660.1C567.887 657.933 586.506 653.458 603.54 647.88C613.729 644.544 628.702 638.935 637.739 634.788C646.9 630.584 653.647 627.409 662.059 621.93C665.581 619.634 671.183 615.833 674.309 612.143C670.403 611.01 658.123 606.064 656.749 605.47C656.742 605.464 642.92 622.902 606.679 638.545Z" fill="#D5D5D5"/>
<mask id="mask1_92_86400" style="mask-type:luminance" maskUnits="userSpaceOnUse" x="270" y="127" width="522" height="471">
<path d="M371.712 539.735L714.464 597.875C714.712 597.8 791.8 322.281 791.726 322.033L546.446 127.96C546.372 127.712 517.787 139.957 517.545 140.031L270.656 217.466C270.408 217.54 270.272 217.807 270.346 218.054L371.118 539.438C371.198 539.679 371.464 539.815 371.712 539.735Z" fill="white"/>
</mask>
<g mask="url(#mask1_92_86400)">
<path d="M301.06 302.738C302.639 330.991 315.867 364.152 358.273 381.9C363.98 384.289 371.173 389.174 372.696 393.773C378.576 411.527 377.679 426.743 386.877 443.655C397.666 463.495 397.4 474.353 406.22 485.309C408.25 487.835 426.461 475.925 478.759 451.739C496.425 443.568 507.449 467.506 515.961 450C524.472 432.5 541.71 425.567 543.184 406.16C544.335 390.981 542.367 369.055 549.324 355.74C555.111 344.659 565.275 334.08 577.996 332.52C578.447 332.464 587.057 327.97 586.661 327.753C564.539 315.608 635.215 324.627 635.215 324.627C635.215 324.627 588.469 298.25 544.106 266.314C509.375 241.311 500.703 229.079 483.6 217.769C470.409 209.041 444.313 198.27 417.777 202.411C417.288 202.485 417.232 203.179 417.702 203.327C421.621 204.596 425.731 203.785 426.641 199.669C427.668 195.001 422.06 188.718 417.275 188.774C413.091 188.817 408.418 191.256 406.79 196.116C406.79 196.116 408.442 193.088 408.56 192.872C410.114 190.13 409.068 186.57 408.35 185.122C406.92 182.237 403.72 177.576 399.034 177.532C394.837 177.495 391.779 181.352 391.816 184.205C391.878 189.51 398.73 198.468 393.314 200.164C344.154 215.169 297.774 243.794 301.06 302.738Z" fill="#D08A5A"/>
</g>
<mask id="mask2_92_86400" style="mask-type:luminance" maskUnits="userSpaceOnUse" x="290" y="209" width="221" height="192">
<path d="M338.291 400.007L510.63 334.024C510.871 333.931 510.995 333.677 510.914 333.454L463.624 209.926C463.537 209.703 463.271 209.598 463.029 209.691L290.697 275.667C290.456 275.76 290.332 276.014 290.412 276.237L337.697 399.765C337.79 399.994 338.049 400.099 338.291 400.007Z" fill="white"/>
</mask>
<g mask="url(#mask2_92_86400)">
<path d="M358.465 257.146C361.913 256.688 372.974 255.592 380.365 247.885C385.837 242.172 393.141 236.922 400.668 233.604C410.231 229.389 424.61 228.974 433.047 230.88C442.61 233.047 458.945 240.383 470.168 248.554C480.876 256.354 489.139 270.926 490.334 284.52C491.789 301.085 485.289 315.787 475.751 328.521C463.65 344.677 450.657 353.895 436.191 361.391C404.679 377.728 383.398 377.251 365.924 375.097C354.089 373.642 338.218 367.891 326.216 356.482C322.737 353.177 319.809 347.81 317.123 343.891C310.295 333.937 308.445 313.62 309.899 300.423C311.769 283.443 316.677 262.68 358.465 257.146Z" fill="#F2D2B6"/>
</g>
<path d="M316.423 304.997C318.354 301.37 320.966 298.411 323.758 295.402C326.549 292.388 330.573 290.011 333.179 288.797C338.112 286.488 345.391 287.25 349.074 288.246C352.206 289.094 356.019 291.96 358.774 295.489C361.708 299.253 362.42 305.907 362.828 310.668C363.23 315.434 361.089 323.965 358.093 327.679C355.914 330.378 351.303 334.216 343.85 335.875C334.875 337.88 332.046 338.388 329.013 341.607C327.156 343.576 325.218 346.38 324.228 347.946C322.891 350.057 322.247 350.992 322 351.481C318.162 346.918 315.11 340.951 313.167 336.234C312.461 334.531 309.044 327.338 309.112 318.591C309.112 318.789 313.309 310.847 316.423 304.997Z" fill="#D9A171"/>
<path opacity="0.1686" d="M309.113 318.659C309.113 318.659 309.2 321.866 309.516 324.181C309.701 325.524 310.946 330.879 312.573 334.847C314.95 340.641 317.624 346.312 321.982 351.493C323.963 348.373 324.829 346.955 324.829 346.955C324.829 346.955 320.435 342.474 317.018 333.85C315.34 329.616 313.013 324.658 311.379 314.469C310.178 316.728 309.113 318.659 309.113 318.659Z" fill="#523618"/>
<path d="M354.014 302.026C349.557 294.895 332.677 295.359 332.677 295.359C332.677 295.359 323.293 309.182 329.044 318.963C334.794 328.743 344.264 331.702 350.968 326.738C358.142 321.433 360.03 311.646 354.014 302.026Z" fill="white"/>
<path opacity="0.1412" d="M349.346 310.711C350.509 313.311 352.923 318.189 352.503 325.506C354.929 323.104 356.532 320.362 357.25 317.025C357.962 313.719 357.584 309.912 356.278 306.57C354.124 307.944 352.676 308.922 349.346 310.711Z" fill="black"/>
<path d="M342.394 326.657C344.944 326.657 347.012 324.59 347.012 322.039C347.012 319.489 344.944 317.421 342.394 317.421C339.844 317.421 337.776 319.489 337.776 322.039C337.776 324.59 339.844 326.657 342.394 326.657Z" fill="black" stroke="black" stroke-miterlimit="10"/>
<path d="M341.3 325.512C342.452 325.512 343.386 324.578 343.386 323.426C343.386 322.274 342.452 321.34 341.3 321.34C340.148 321.34 339.214 322.274 339.214 323.426C339.214 324.578 340.148 325.512 341.3 325.512Z" fill="white"/>
<path d="M334.671 293.167C320.379 298.608 328.333 317.848 328.308 317.767C328.308 317.767 339.642 317.551 356.466 306.452C356.466 306.452 356.23 305.672 355.519 304.279C353.036 299.407 346.085 288.821 334.671 293.167Z" fill="#D39266"/>
<path opacity="0.1294" d="M356.408 306.266C356.396 306.223 356.378 306.186 356.359 306.13C356.309 305.994 356.235 305.814 356.142 305.598C355.913 305.072 355.542 304.329 355.201 303.666C354.911 303.122 354.564 302.521 354.18 301.89C353.474 300.763 352.645 299.606 351.791 298.541C351.128 297.742 350.404 296.962 349.606 296.232C349.234 295.897 348.813 295.551 348.343 295.179C347.928 294.858 347.464 294.529 346.987 294.226C345.867 293.527 344.648 292.957 343.329 292.586C342.686 292.419 342.017 292.289 341.398 292.208C339.423 291.979 337.263 292.208 334.905 293.081C334.725 293.155 334.54 293.223 334.36 293.304C334.304 293.329 334.249 293.353 334.187 293.378C333.568 293.657 332.936 293.972 332.274 294.344C332.262 294.35 332.256 294.356 332.243 294.368C335.01 294.406 340.148 296.727 346.121 304.973C347.532 306.922 348.584 308.854 349.358 310.711C351.599 309.504 353.976 308.099 356.477 306.446C356.464 306.452 356.446 306.384 356.408 306.266Z" fill="black"/>
<path d="M417.349 254.113C414.6 256.645 410.936 261.393 410.8 267.577C410.664 273.761 412.601 281.35 415.498 286.816C417.986 291.502 421.972 295.724 426.838 297.841C433.195 300.608 441.501 299.407 446.299 297.495C450.78 295.706 458.047 290.97 465.394 289.33C467.901 288.766 473.175 288.822 475.391 289.466C479.774 290.747 486.1 296.535 489.003 301.846C492.345 288.11 489.906 279.462 487.375 271.39C485.01 263.85 481.494 258.26 481.494 258.26C481.494 258.26 480.213 257.61 478.876 257.016C475.552 255.536 468.031 251.29 464.485 250.485C458.196 249.061 453.856 247.353 447.444 246.647C442.04 246.053 437.979 246.635 432.631 247.588C427.469 248.51 419.979 251.692 417.349 254.113Z" fill="#D9A171"/>
<path d="M447.172 265.286C442.846 257.431 424.901 256.96 424.901 256.96C424.901 256.96 414.149 271.167 419.702 281.926C425.254 292.685 435.133 296.38 442.536 291.471C450.453 286.216 453.015 275.884 447.172 265.286Z" fill="white"/>
<path opacity="0.1412" d="M441.726 274.287C442.815 277.128 445.099 282.471 444.239 290.246C446.95 287.825 448.807 284.99 449.76 281.474C450.707 277.989 450.515 273.91 449.321 270.27C446.956 271.607 445.359 272.566 441.726 274.287Z" fill="black"/>
<path d="M432.291 291.013C435.002 291.013 437.2 288.807 437.2 286.086C437.2 283.364 435.002 281.158 432.291 281.158C429.58 281.158 427.383 283.364 427.383 286.086C427.383 288.807 429.58 291.013 432.291 291.013Z" fill="black" stroke="black" stroke-miterlimit="10"/>
<path d="M431.177 290.246C432.401 290.246 433.393 289.248 433.393 288.017C433.393 286.786 432.401 285.789 431.177 285.789C429.953 285.789 428.961 286.786 428.961 288.017C428.961 289.248 429.953 290.246 431.177 290.246Z" fill="white"/>
<path d="M427.142 254.737C411.661 259.727 419.014 280.7 418.99 280.607C418.99 280.607 431.035 281.022 449.53 270.145C449.53 270.145 449.326 269.303 448.645 267.774C446.287 262.444 439.503 250.751 427.142 254.737Z" fill="#D39266"/>
<path opacity="0.1294" d="M449.468 269.948C449.456 269.904 449.443 269.861 449.425 269.805C449.425 269.799 449.425 269.799 449.425 269.793C449.375 269.644 449.313 269.452 449.227 269.217C449.01 268.642 448.663 267.824 448.335 267.106C448.057 266.506 447.729 265.85 447.351 265.156C446.664 263.912 445.853 262.637 445.005 261.455C444.349 260.569 443.619 259.69 442.814 258.867C442.436 258.496 442.015 258.093 441.533 257.672C441.112 257.307 440.635 256.929 440.152 256.577C439.001 255.766 437.738 255.085 436.358 254.62C435.683 254.41 434.984 254.23 434.328 254.107C432.248 253.754 429.933 253.871 427.383 254.664C427.184 254.732 426.986 254.794 426.788 254.868C426.726 254.893 426.665 254.911 426.603 254.936C425.928 255.196 425.235 255.499 424.517 255.858C424.504 255.865 424.492 255.871 424.479 255.877C427.413 256.075 432.731 258.842 438.611 267.979C440.004 270.14 441.006 272.263 441.718 274.287C444.163 273.13 446.769 271.768 449.524 270.146C449.524 270.146 449.505 270.072 449.468 269.948Z" fill="black"/>
<path d="M374.781 293.099C364.772 305.27 365.651 322.435 367.458 329.734C369.266 337.026 372.027 342.226 374.967 346.206C376.223 347.915 381.54 356.959 394.069 353.028C400.642 350.967 405.452 346.274 414.043 343.582C424.826 340.202 431.456 331.22 429.011 324.156C415.405 284.903 388.64 285.417 384.623 286.68C379.566 288.265 375.332 292.431 374.781 293.099Z" fill="#D9A171"/>
<path opacity="0.1608" d="M401.362 341.857C404.186 340.81 405.548 337.459 404.404 334.372C403.26 331.285 400.043 329.63 397.219 330.677C394.395 331.724 393.033 335.075 394.177 338.162C395.321 341.249 398.538 342.904 401.362 341.857Z" fill="#252525"/>
<path d="M400.936 340.594C403.776 339.542 405.151 336.186 404.007 333.098C402.863 330.011 399.633 328.362 396.793 329.414C393.953 330.467 392.578 333.823 393.722 336.91C394.866 339.997 398.096 341.647 400.936 340.594Z" fill="#252525"/>
<path d="M372.201 317.273C369.985 310.482 376.311 303.443 386.549 300.113C396.781 296.777 406.431 298.795 408.647 305.585C410.863 312.376 404.19 320.64 393.958 323.977C383.726 327.313 374.417 324.064 372.201 317.273Z" fill="#252525"/>
<mask id="mask3_92_86400" style="mask-type:luminance" maskUnits="userSpaceOnUse" x="393" y="304" width="10" height="13">
<path d="M397.163 316.771L402.623 314.988C402.871 314.908 403 314.642 402.92 314.4L399.831 304.917C399.751 304.669 399.485 304.539 399.243 304.62L393.784 306.402C393.536 306.483 393.406 306.749 393.487 306.991L396.575 316.474C396.656 316.722 396.922 316.852 397.163 316.771Z" fill="white"/>
</mask>
<g mask="url(#mask3_92_86400)">
<g opacity="0.1216">
<mask id="mask4_92_86400" style="mask-type:luminance" maskUnits="userSpaceOnUse" x="393" y="304" width="10" height="13">
<path d="M397.163 316.771L402.623 314.988C402.871 314.908 403 314.642 402.92 314.4L399.831 304.917C399.751 304.669 399.485 304.539 399.243 304.62L393.784 306.402C393.536 306.483 393.406 306.749 393.487 306.991L396.575 316.474C396.656 316.722 396.922 316.852 397.163 316.771Z" fill="white"/>
</mask>
<g mask="url(#mask4_92_86400)">
<path d="M395.486 310.711C395.629 306.563 397.139 304.849 398.748 304.923C400.352 304.997 401.057 307.517 400.191 310.785C399.739 312.487 398.947 315.162 397.727 316.499C396.786 317.533 395.369 314.196 395.486 310.711Z" fill="white"/>
</g>
</g>
</g>
<mask id="mask5_92_86400" style="mask-type:luminance" maskUnits="userSpaceOnUse" x="379" y="309" width="11" height="14">
<path d="M379.288 312.512L383.107 321.73C383.206 321.971 383.479 322.083 383.72 321.984L389.025 319.786C389.266 319.687 389.378 319.415 389.279 319.173L385.459 309.956C385.36 309.714 385.088 309.603 384.847 309.702L379.542 311.899C379.3 311.998 379.189 312.277 379.288 312.512Z" fill="white"/>
</mask>
<g mask="url(#mask5_92_86400)">
<g opacity="0.1216">
<mask id="mask6_92_86400" style="mask-type:luminance" maskUnits="userSpaceOnUse" x="379" y="309" width="11" height="14">
<path d="M382.921 322.281L389.166 320.244C389.414 320.164 389.544 319.897 389.463 319.656L386.22 309.708C386.139 309.46 385.873 309.33 385.632 309.411L379.386 311.448C379.139 311.528 379.009 311.794 379.089 312.036L382.333 321.984C382.413 322.225 382.679 322.355 382.921 322.281Z" fill="white"/>
</mask>
<g mask="url(#mask6_92_86400)">
<path d="M386.356 314.085C383.552 311.027 381.287 310.705 380.117 311.807C378.947 312.908 380.049 315.279 382.834 317.198C384.282 318.201 386.628 319.712 388.417 319.934C389.804 320.114 388.714 316.654 386.356 314.085Z" fill="white"/>
</g>
</g>
</g>
<mask id="mask7_92_86400" style="mask-type:luminance" maskUnits="userSpaceOnUse" x="393" y="304" width="10" height="13">
<path d="M397.163 316.771L402.623 314.988C402.871 314.908 403 314.642 402.92 314.4L399.831 304.917C399.751 304.669 399.485 304.539 399.243 304.62L393.784 306.402C393.536 306.483 393.406 306.749 393.487 306.991L396.575 316.474C396.656 316.722 396.922 316.852 397.163 316.771Z" fill="white"/>
</mask>
<g mask="url(#mask7_92_86400)">
<g opacity="0.1216">
<mask id="mask8_92_86400" style="mask-type:luminance" maskUnits="userSpaceOnUse" x="393" y="304" width="10" height="13">
<path d="M397.163 316.771L402.623 314.988C402.871 314.908 403 314.642 402.92 314.4L399.831 304.917C399.751 304.669 399.485 304.539 399.243 304.62L393.784 306.402C393.536 306.483 393.406 306.749 393.487 306.991L396.575 316.474C396.656 316.722 396.922 316.852 397.163 316.771Z" fill="white"/>
</mask>
<g mask="url(#mask8_92_86400)">
<path d="M395.486 310.711C395.629 306.563 397.139 304.849 398.748 304.923C400.352 304.997 401.057 307.517 400.191 310.785C399.739 312.487 398.947 315.162 397.727 316.499C396.786 317.533 395.369 314.196 395.486 310.711Z" fill="white"/>
</g>
</g>
</g>
<mask id="mask9_92_86400" style="mask-type:luminance" maskUnits="userSpaceOnUse" x="379" y="309" width="11" height="14">
<path d="M379.288 312.512L383.107 321.73C383.206 321.971 383.479 322.083 383.72 321.984L389.025 319.786C389.266 319.687 389.378 319.415 389.279 319.173L385.459 309.956C385.36 309.714 385.088 309.603 384.847 309.702L379.542 311.899C379.3 311.998 379.189 312.277 379.288 312.512Z" fill="white"/>
</mask>
<g mask="url(#mask9_92_86400)">
<g opacity="0.1216">
<mask id="mask10_92_86400" style="mask-type:luminance" maskUnits="userSpaceOnUse" x="379" y="309" width="11" height="14">
<path d="M382.921 322.281L389.166 320.244C389.414 320.164 389.544 319.897 389.463 319.656L386.22 309.708C386.139 309.46 385.873 309.33 385.632 309.411L379.386 311.448C379.139 311.528 379.009 311.794 379.089 312.036L382.333 321.984C382.413 322.225 382.679 322.355 382.921 322.281Z" fill="white"/>
</mask>
<g mask="url(#mask10_92_86400)">
<path d="M386.356 314.085C383.552 311.027 381.287 310.705 380.117 311.807C378.947 312.908 380.049 315.279 382.834 317.198C384.282 318.201 386.628 319.712 388.417 319.934C389.804 320.114 388.714 316.654 386.356 314.085Z" fill="white"/>
</g>
</g>
</g>
<mask id="mask11_92_86400" style="mask-type:luminance" maskUnits="userSpaceOnUse" x="393" y="304" width="10" height="13">
<path d="M397.163 316.771L402.623 314.988C402.871 314.908 403 314.642 402.92 314.4L399.831 304.917C399.751 304.669 399.485 304.539 399.243 304.62L393.784 306.402C393.536 306.483 393.406 306.749 393.487 306.991L396.575 316.474C396.656 316.722 396.922 316.852 397.163 316.771Z" fill="white"/>
</mask>
<g mask="url(#mask11_92_86400)">
<g opacity="0.1216">
<mask id="mask12_92_86400" style="mask-type:luminance" maskUnits="userSpaceOnUse" x="393" y="304" width="10" height="13">
<path d="M397.163 316.771L402.623 314.988C402.871 314.908 403 314.642 402.92 314.4L399.831 304.917C399.751 304.669 399.485 304.539 399.243 304.62L393.784 306.402C393.536 306.483 393.406 306.749 393.487 306.991L396.575 316.474C396.656 316.722 396.922 316.852 397.163 316.771Z" fill="white"/>
</mask>
<g mask="url(#mask12_92_86400)">
<path d="M395.486 310.711C395.629 306.563 397.139 304.849 398.748 304.923C400.352 304.997 401.057 307.517 400.191 310.785C399.739 312.487 398.947 315.162 397.727 316.499C396.786 317.533 395.369 314.196 395.486 310.711Z" fill="white"/>
</g>
</g>
</g>
<mask id="mask13_92_86400" style="mask-type:luminance" maskUnits="userSpaceOnUse" x="379" y="309" width="11" height="14">
<path d="M379.288 312.512L383.107 321.73C383.206 321.971 383.479 322.083 383.72 321.984L389.025 319.786C389.266 319.687 389.378 319.415 389.279 319.173L385.459 309.956C385.36 309.714 385.088 309.603 384.847 309.702L379.542 311.899C379.3 311.998 379.189 312.277 379.288 312.512Z" fill="white"/>
</mask>
<g mask="url(#mask13_92_86400)">
<g opacity="0.1216">
<mask id="mask14_92_86400" style="mask-type:luminance" maskUnits="userSpaceOnUse" x="379" y="309" width="11" height="14">
<path d="M382.921 322.281L389.166 320.244C389.414 320.164 389.544 319.897 389.463 319.656L386.22 309.708C386.139 309.46 385.873 309.33 385.632 309.411L379.386 311.448C379.139 311.528 379.009 311.794 379.089 312.036L382.333 321.984C382.413 322.225 382.679 322.355 382.921 322.281Z" fill="white"/>
</mask>
<g mask="url(#mask14_92_86400)">
<path d="M386.356 314.085C383.552 311.027 381.287 310.705 380.117 311.807C378.947 312.908 380.049 315.279 382.834 317.198C384.282 318.201 386.628 319.712 388.417 319.934C389.804 320.114 388.714 316.654 386.356 314.085Z" fill="white"/>
</g>
</g>
</g>
<mask id="mask15_92_86400" style="mask-type:luminance" maskUnits="userSpaceOnUse" x="-253" y="-122" width="1450" height="1253">
<path d="M-252.191 257.239L911.283 -121.975C911.53 -122.055 911.791 -121.919 911.871 -121.678L1196.19 750.77C1196.27 751.017 1196.14 751.277 1195.89 751.358L32.4192 1130.58C32.1716 1130.66 31.9116 1130.52 31.8312 1130.28L-252.489 257.833C-252.569 257.586 -252.433 257.32 -252.191 257.239Z" fill="white"/>
</mask>
<g mask="url(#mask15_92_86400)">
<g opacity="0.3216">
<mask id="mask16_92_86400" style="mask-type:luminance" maskUnits="userSpaceOnUse" x="390" y="302" width="13" height="16">
<path d="M394.99 317.842L402.134 315.515C402.381 315.434 402.511 315.168 402.431 314.927L398.339 302.366C398.259 302.119 397.993 301.989 397.751 302.069L390.608 304.397C390.36 304.477 390.23 304.744 390.311 304.985L394.402 317.545C394.477 317.787 394.743 317.923 394.99 317.842Z" fill="white"/>
</mask>
<g mask="url(#mask16_92_86400)">
<path d="M398.197 301.927C398.581 306.248 397.987 310.581 397.398 314.877C397.318 315.484 397.225 316.103 396.934 316.641C396.643 317.18 396.092 317.62 395.48 317.607C394.786 317.595 394.217 317.001 394.006 316.338C393.79 315.682 393.858 314.97 393.926 314.283C394.124 312.283 394.316 310.284 394.514 308.285C394.638 306.997 394.774 305.685 395.306 304.515C395.839 303.338 396.866 302.305 398.197 301.927Z" fill="#252525"/>
</g>
</g>
</g>
<mask id="mask17_92_86400" style="mask-type:luminance" maskUnits="userSpaceOnUse" x="-253" y="-122" width="1450" height="1253">
<path d="M-252.191 257.239L911.283 -121.975C911.53 -122.055 911.791 -121.919 911.871 -121.678L1196.19 750.77C1196.27 751.017 1196.14 751.277 1195.89 751.358L32.4192 1130.58C32.1716 1130.66 31.9116 1130.52 31.8312 1130.28L-252.489 257.833C-252.569 257.586 -252.433 257.32 -252.191 257.239Z" fill="white"/>
</mask>
<g mask="url(#mask17_92_86400)">
<g opacity="0.3216">
<mask id="mask18_92_86400" style="mask-type:luminance" maskUnits="userSpaceOnUse" x="378" y="307" width="13" height="16">
<path d="M382.823 321.996L390.158 319.607C390.405 319.526 390.535 319.26 390.455 319.018L386.654 307.356C386.574 307.108 386.307 306.978 386.066 307.059L378.731 309.448C378.483 309.529 378.353 309.795 378.434 310.036L382.235 321.699C382.309 321.94 382.575 322.076 382.823 321.996Z" fill="white"/>
</mask>
<g mask="url(#mask18_92_86400)">
<path d="M378.471 310.055C381.609 313.02 384.748 315.985 387.88 318.956C388.202 319.26 388.53 319.569 388.944 319.718C389.359 319.866 389.879 319.811 390.158 319.47C390.554 318.981 390.263 318.257 389.935 317.718C387.936 314.468 384.915 311.955 381.665 309.956C381.065 309.59 380.427 309.225 379.722 309.213C379.022 309.194 378.149 309.751 378.471 310.055Z" fill="#252525"/>
</g>
</g>
</g>
<mask id="mask19_92_86400" style="mask-type:luminance" maskUnits="userSpaceOnUse" x="-283" y="-83" width="1445" height="1243">
<path d="M-281.723 283.207L885.917 -82.9759C886.165 -83.0502 886.425 -82.914 886.505 -82.6664L1161.05 792.901C1161.12 793.148 1160.99 793.408 1160.74 793.489L-6.89862 1159.67C-7.14624 1159.75 -7.40622 1159.61 -7.48666 1159.36L-282.032 283.795C-282.107 283.548 -281.971 283.288 -281.723 283.207Z" fill="white"/>
</mask>
<g mask="url(#mask19_92_86400)">
<g opacity="0.1412">
<mask id="mask20_92_86400" style="mask-type:luminance" maskUnits="userSpaceOnUse" x="373" y="118" width="280" height="278">
<path d="M439.608 395.927L652.23 329.251V329.245L586.128 118.439L373.506 185.121L439.601 395.927H439.608Z" fill="white"/>
</mask>
<g mask="url(#mask20_92_86400)">
<path d="M626.195 320.064C603.738 304.75 578.607 291.341 552.146 271.966C532.573 257.641 514.561 243.67 504.267 234.229C486.626 218.042 469.418 206.806 446.429 203.079C442.374 202.423 438.704 201.934 435.578 201.705C430.948 201.365 428.101 201.451 425.847 201.594C426.213 200.857 426.683 200.145 426.72 199.204C426.962 192.779 420.475 188.953 418.091 188.829C415.696 188.699 415.188 188.953 413.851 189.337C411.772 189.931 409.939 191.175 408.565 192.878C410.137 190.129 408.999 186.267 408.2 184.83C406.64 182.008 403.719 177.581 399.033 177.538C394.836 177.501 391.778 181.358 391.815 184.211C391.871 189.021 397.331 194.784 395.003 197.471C395.003 197.471 394.923 197.545 394.923 197.552C396.464 206.862 392.862 217.014 385.322 222.777C399.336 217.912 415.213 220.945 428.193 228.126C441.18 235.306 452.897 242.852 462.281 254.348C470.928 264.94 476.388 282.019 477.743 292.134C479.743 307.071 478.437 325.599 457.007 348.744C473.373 338.536 489.139 333.132 516.405 339.997C527.59 342.814 537.55 354.309 545.244 362.79C545.9 360.413 546.655 358.055 547.559 355.721" fill="#523618"/>
</g>
</g>
</g>
<path d="M661.954 390.604L651.79 391.674L656.606 398.54L661.954 390.604Z" fill="black"/>
<path d="M424.462 635.481C425.718 634.552 427.501 635.06 428.894 635.759C431.816 637.232 434.378 639.424 436.285 642.086C432.571 643.441 428.857 644.803 425.143 646.159C425.26 642.599 424.914 639.015 424.462 635.481Z" fill="#BDBDBD"/>
<path d="M301.655 550.574C294.382 556.133 286.632 558.244 280.993 565.456C275.354 572.668 268.873 581.86 268.304 594.037C267.883 602.932 276.047 617.405 281.049 624.772C289.461 637.152 298.51 650.096 312.048 656.491C320.534 660.496 330.06 661.561 339.388 662.57C354.225 664.173 369.069 665.77 383.906 667.373C394.874 668.556 407.007 669.453 415.901 662.923C427.891 654.126 428.139 636.032 423.292 621.974C453.288 635.462 487.394 633.977 520.263 635.029C544.744 635.815 585.337 624.543 608.58 606.727C638.898 583.488 644.543 554.808 639.535 529.502C636.67 515.035 608.766 517.146 594.071 515.97C539.903 511.637 485.736 507.304 431.562 502.971C415.301 501.671 398.526 500.426 383.046 505.558C372.461 509.068 363.065 515.376 353.817 521.616C331.824 536.46 311.497 543.059 301.655 550.574Z" fill="#D08A5A"/>
<path opacity="0.1608" d="M314.046 564.762C297.085 568.761 296.553 564.49 283.48 584.516C273.954 599.106 290.017 635.419 302.675 648.078C294.059 643.107 282.347 628.405 274.418 613.598C273.972 612.768 272.939 610.571 271.633 607.699C270.457 605.117 269.256 601.087 269.002 599.992C268.674 598.537 268.222 596.426 268.29 594.724C268.544 588.304 269.708 584.485 272.406 578.585C276.12 570.451 282.787 560.516 289.466 564.317C303.907 572.537 303.591 561.061 320.167 562.249C315.197 564.1 310.233 565.945 314.046 564.762Z" fill="#141414"/>
<path opacity="0.1608" d="M375.406 554.802C362.358 555.904 363.348 559.501 345.633 574.84C330.066 588.323 349.44 665.293 358 664.575C363.33 691.021 336.472 628.51 333.6 615.616C331.916 608.051 329.013 591.628 329.657 584.51C330.165 578.938 341.213 562.899 342.154 566.304C344.463 574.679 352.671 553.818 357.976 550.178C369.724 542.124 368.827 549.336 380.364 553.335C376.384 554.344 372.404 555.341 375.406 554.802Z" fill="#141414"/>
<path opacity="0.1608" d="M419.273 615.969C424.856 621.552 415.577 652.108 408.657 659.029C404.337 663.35 418.747 654.968 416.407 660.614C420.065 659.877 420.734 657.995 422.906 654.597C424.807 651.625 426.255 645.212 426.255 639.133C426.249 632.596 424.46 620.413 419.273 615.969Z" fill="#141414"/>
<path opacity="0.1608" d="M457.082 631.538C465.03 632.819 473.566 633.401 482.04 633.939C491.473 634.54 516.103 634.967 526.867 634.967C538.9 634.967 561.58 629.526 574.504 624.611C600.347 614.787 615.871 603.291 627.322 587.865C638.093 573.355 643.304 555.533 640.265 533.687C630.145 607.829 542.001 636.96 457.082 631.538Z" fill="#141414"/>
<path opacity="0.1608" d="M290.067 636.49C288.829 637.957 288.891 639.994 289.955 641.597C291.02 643.2 294.072 647.23 295.879 648.66C308.358 658.515 334.052 669.187 356.162 668.94C370.591 668.779 383.744 663.641 398.173 663.492C402.617 663.449 407.216 663.888 411.388 662.359C415.56 660.824 419.151 657.203 417.993 652.913C409.853 655.457 403.298 657.153 395.654 658.497C377.307 661.734 361.374 661.604 344.501 659.072C340.05 658.404 335.148 657.605 330.747 656.602C324.074 655.073 318.311 653.439 312.443 650.994C309.094 649.601 306.092 648.196 303.09 646.469C302.224 645.967 301.339 645.423 300.478 644.896C299.203 644.116 296.956 642.55 295 640.99C294.01 640.198 293.069 639.362 292.475 638.83C291.49 637.951 290.828 637.27 290.828 637.27C290.63 637.078 290.37 636.793 290.067 636.49Z" fill="#141414"/>
<g opacity="0.1686">
<mask id="mask21_92_86400" style="mask-type:luminance" maskUnits="userSpaceOnUse" x="371" y="340" width="213" height="148">
<path d="M422.344 487.315L580.948 420.744C581.232 420.627 583.232 420.305 583.12 420.039L547.857 340.443C547.745 340.171 547.417 340.053 547.132 340.171L371.197 405.51C370.913 405.627 375.103 421.425 375.215 421.691L421.62 487.049C421.732 487.315 422.054 487.439 422.344 487.315Z" fill="white"/>
</mask>
<g mask="url(#mask21_92_86400)">
<path d="M376.64 403.486C389.255 416.318 387.769 417.618 406.258 432.487C434.063 454.853 470.311 444.156 484.665 439.588C520.102 428.321 530.019 399.394 542.262 364.536C542.485 363.905 550.402 356.996 550.297 357.652C544.509 392.405 529.127 430.197 500.035 451.684C491.815 457.75 482.722 463.086 472.713 465.203C451.296 469.735 427.65 472.341 412.516 458.072C401.343 447.536 385.064 424.168 379.988 411.236" fill="black"/>
</g>
</g>
<path d="M266.075 632.386C266.496 642.29 249.727 651.371 245.834 660.484C241.94 669.596 244.955 684.954 252.773 691.045C249.474 686.062 239.978 685.356 237.694 690.878C235.41 696.4 238.418 705.685 243.123 709.369C247.827 713.052 254.524 714.519 260.343 715.893C379.121 743.886 442.808 734.297 442.808 734.297C442.808 734.297 438.977 732.483 440.407 728.689C441.836 724.888 446.435 722.975 449.438 720.245C456.488 713.838 454.458 704.59 451.691 700.325C448.924 696.059 445.16 695.614 441.075 694.815C445.427 696.617 457.293 679.383 451.579 671.416C446.924 664.928 436.699 659.091 435.43 643.869C412.985 651.984 386.883 657.698 359.096 655.172C331.31 652.647 299.568 646.103 282.886 624.914C276.858 617.25 274.827 612.682 270.538 606.176C270.253 608.33 265.072 608.85 266.075 632.386Z" fill="#FFF5F8"/>
<path opacity="0.1608" d="M451.51 671.23C452.327 679.952 449.901 685.375 443.89 691.38C437.843 697.427 425.692 698.975 417.156 699.551C425.315 699.551 437.96 697.384 443.408 694.456C447.183 692.426 449.987 687.319 451.69 683.382C453.392 679.445 453.813 674.529 451.51 671.23Z" fill="#141414"/>
<path opacity="0.1608" d="M262.681 641.027C265.392 648.629 267.546 652.993 274.274 657.135C277.673 659.227 279.666 659.338 283.534 661.195C290.046 664.315 297.932 667.615 306.307 669.429C301.374 668.215 290.956 662.18 286.357 658.985C282.117 656.039 274.992 654.268 271.272 649.799C267.354 645.101 265.949 642.946 264.89 637.486C264.513 638.601 264.674 637.994 264.03 639.059C263.362 640.154 263.355 639.907 262.681 641.027Z" fill="#141414"/>
<path opacity="0.1608" d="M451.461 699.978C454.018 706.75 452.668 715.268 446.565 719.149C432.26 728.249 393.914 725.556 385.941 725.556C391.351 726.182 428.113 730.899 440.635 725.953C444.925 724.256 450.91 720.028 453.145 715.064C455.379 710.099 454.333 704.881 451.461 699.978Z" fill="#141414"/>
<path opacity="0.1608" d="M246.817 658.484C244.836 666.705 246.378 675.631 250.593 682.961C254.808 690.29 259.519 692.463 271.707 697.254C251.416 691.448 238.634 686.087 240.658 698.771C241.667 705.091 247.876 709.536 253.849 711.851C266.142 716.617 279.357 719.818 292.201 722.802C282.483 720.932 275.309 719.378 265.641 717.131C257.6 715.262 247.795 713.615 242.62 708.96C241.525 707.976 240.733 706.769 239.804 705.438C237.371 701.959 235.954 694.289 237.86 690.519C239.773 686.731 245.523 685.907 250.24 688.643C249.021 686.984 247.529 684.935 246.65 682.49C243.877 674.789 242.596 665.95 246.817 658.484Z" fill="#141414"/>
<path opacity="0.1608" d="M266.093 621.293C282.44 649.285 319.022 661.01 332.653 663.727C369.519 671.088 394.564 668.667 430.156 652.888C402.672 663.325 372.367 666.21 343.411 661.152C314.461 656.101 288.048 641.473 266.093 621.293Z" fill="#141414"/>
<path d="M270.271 604.189C265.443 605.681 262.595 611.097 263.778 616.006C264.96 620.915 268.563 624.846 272.208 628.343C309.081 663.777 355.233 670.815 405.34 660.607C407.049 660.261 426.664 655.141 435.138 650.078C440.932 646.617 435.033 636.942 430.186 639.523C417.559 646.252 391.32 653.798 368.411 652.715C349.068 651.799 323.77 646.716 306.339 638.285C288.909 629.854 279.172 619.739 270.271 604.189Z" fill="white"/>
<path d="M603.101 309.033C609 297.253 635.963 289.237 656.878 296.461C675.726 302.967 695.918 338.462 693.535 401.523C691.715 449.672 682.201 514.045 679.96 525.039C671.443 566.774 656.878 604.808 656.878 604.808L674.34 611.555C674.34 611.555 653.096 601.199 646.436 597.738C641.738 595.299 628.888 587.951 628.888 587.951C628.888 587.951 628.646 588.447 626.956 590.465C642.313 601.267 674.253 612.137 674.253 612.137C674.253 612.137 674.544 611.889 675.268 609.97C676.469 606.77 678.858 599.589 683.105 586.026C688.298 569.43 697.36 537.116 701.284 511.321C706.583 476.501 708.483 453.293 709.146 440.956C710.062 423.858 711.386 411.261 710.904 392.584C710.526 377.783 709.04 366.666 706.236 353.616C702.782 337.534 699.762 326.787 691.845 312.37C688.521 306.316 683.65 300.769 678.53 296.665C673.411 292.561 668.045 289.912 662.381 287.776C656.804 285.671 651.834 285.417 647.086 285.578C641.131 285.783 633.747 287.256 626.344 290.308C618.922 293.366 611.519 297.823 605.608 304.471C604.283 305.957 603.781 307.43 603.101 309.033Z" fill="#D5D5D5"/>
<path d="M335.457 459.056C341.628 488.869 370.591 539.221 370.591 539.221L460.047 554.722C460.047 554.722 478.152 535.451 550.654 545.572C553.099 545.913 608.709 552.933 626.511 553.552C635.734 553.874 640.866 552.283 640.866 552.283C640.866 552.283 641.058 549.72 641.126 548.036C641.194 546.278 641.126 537.277 641.126 537.277C641.126 537.277 584.346 477.082 591.359 471.746C591.662 471.517 594.559 478.432 578.305 429.423C599.839 411.261 632.311 394.819 661.979 390.678C661.979 390.678 649.816 352.242 640.946 332.792C628.69 305.907 601.665 299.277 585.565 303.84C568.091 308.786 554.888 329.845 549.583 342.362C534.356 378.322 536.585 383.967 528.21 401.579C520.002 418.825 501.191 450.012 453.863 451.646C439.843 452.129 419.274 449.529 396.904 427.157C379.764 410.016 374.429 397.605 372.714 393.631C372.448 393.012 372.014 392.3 372.014 392.3C372.014 392.3 361.776 393.135 354.46 404.216C350.851 409.676 345.268 436.325 345.268 436.325" fill="#232D40"/>
<g opacity="0.1412">
<mask id="mask22_92_86400" style="mask-type:luminance" maskUnits="userSpaceOnUse" x="522" y="365" width="186" height="379">
<path d="M633.741 743.131L706.807 720.289C707.023 720.22 707.147 719.998 707.079 719.793L596.46 365.91C596.398 365.706 596.169 365.588 595.952 365.657L522.887 388.499C522.67 388.567 522.546 388.79 522.614 388.994L633.234 742.877C633.302 743.088 633.525 743.199 633.741 743.131Z" fill="white"/>
</mask>
<g mask="url(#mask22_92_86400)">
<path d="M559.988 383.9C559.988 383.9 571.929 437.892 582.371 507.787C585.076 525.918 594.491 506.58 594.491 529.428C594.491 536.485 609.322 544.594 600.148 503.658C595.685 483.743 590.387 461.037 586.215 435.502V435.812C585.571 427.839 587.477 444.701 578.83 429.628C578.83 429.628 574.237 423.245 567.515 405.132L559.988 383.9Z" fill="black"/>
</g>
</g>
<g opacity="0.2784">
<mask id="mask23_92_86400" style="mask-type:luminance" maskUnits="userSpaceOnUse" x="374" y="438" width="13" height="34">
<path d="M380.644 471.183L386.06 470.242C386.283 470.205 386.431 469.994 386.394 469.772L380.972 438.554C380.935 438.331 380.724 438.182 380.501 438.219L375.085 439.16C374.862 439.198 374.714 439.408 374.751 439.631L380.173 470.849C380.21 471.072 380.421 471.22 380.644 471.183Z" fill="white"/>
</mask>
<g mask="url(#mask23_92_86400)">
<path d="M380.897 438.145C379.585 448.068 379.417 449.876 379.9 458.697C379.962 459.83 380.532 468.496 380.643 471.177C380.693 472.359 382.605 477.404 382.537 478.933C382.5 479.769 384.926 480.438 384.883 481.651C384.283 474.674 382.017 462.158 381.621 454.692C381.268 448.019 380.717 443.067 380.897 438.145Z" fill="black"/>
</g>
</g>
<path d="M394.769 521.653C418.278 521.653 426.907 522.445 449.89 521.69C443.143 529.948 430.064 539.741 427.173 550.005C414.867 551.503 402.841 555.235 391.854 560.968C393.209 547.999 395.32 535.111 394.769 521.653Z" fill="#8F8F8F"/>
<path d="M243.024 562.385C221.291 516.298 203.83 464.343 189.698 415.681C189.16 413.83 190.429 411.781 192.459 411.657C247.574 408.19 312.493 407.955 356.899 411.471C364.432 412.065 406.554 536.064 413.747 574.847C353.185 574.847 301.351 570.538 248.428 566.019C246.063 565.815 243.983 564.428 243.024 562.385Z" fill="#B3BCC9"/>
<path opacity="0.1686" d="M248.426 566.019C299.858 570.408 350.268 574.599 408.657 574.834C368.033 561.921 331.983 539.933 280.861 507.557C232.023 476.624 199.365 427.591 189.702 413.898C189.535 414.467 189.517 415.086 189.69 415.681C203.822 464.337 221.283 516.292 243.016 562.385C243.982 564.428 246.061 565.815 248.426 566.019Z" fill="#141414"/>
<path d="M448.651 510.609C429.27 525.46 420.617 531.613 406.807 552.518C400.332 562.323 391.852 580.009 391.852 580.009C391.852 580.009 390.175 587.258 390.119 590.384C390.057 593.801 391.475 606.083 391.475 606.083C391.469 606.522 391.933 606.807 392.317 606.603C394.254 605.575 400.716 603.025 407.513 599.354C423.687 590.613 448.236 576.233 464.905 566.019C466.403 565.103 467.951 564.137 468.904 562.658C470.718 559.835 469.77 555.96 467.753 553.273C465.741 550.593 462.85 548.723 460.312 546.526C451.269 538.695 446.8 523.355 448.651 510.609Z" fill="#F2DFA7"/>
<path opacity="0.1608" d="M449.578 510.609C448.024 511.111 444.106 513.878 437.625 519.096C432.63 523.126 425.524 528.859 420.424 534.609C414.735 541.023 408.477 549.342 405.067 555.192C418.604 541.06 442.262 524.68 448.965 524.655C449.838 528.277 450.469 527.169 451.342 530.79C443.103 536.169 433.33 539.141 413.732 555.941C409.189 559.835 402.17 567.944 397.831 572.909C393.492 577.874 391.839 580.009 391.839 580.009C391.839 580.009 390.793 583.742 390.613 585.822C399.756 577.985 415.348 562.788 426.112 555.384C444.057 543.047 456.412 540.044 460.157 540.843C456.294 543.072 445.066 550.376 433.757 558.188C429.684 561.005 423.519 564.472 418.641 569.789C408.292 581.086 396.506 591.548 391.523 606.485C391.455 606.683 391.697 606.832 391.833 606.671C402.176 594.68 414.933 582.362 428.39 571.999C444.608 559.519 461.846 549.609 477.129 542.873C461.512 561.184 436.604 577.341 418.938 593.021C429.059 587.37 456.269 571.516 465.529 565.617C466.247 565.159 474.523 556.529 475.155 556.046C475.668 555.65 477.21 545.603 477.723 545.189C478.194 544.805 466.99 556.536 467.56 556.003C467.813 555.762 467.993 556.077 467.993 556.077C467.993 556.077 469.237 546.42 469.85 545.863C457.13 536.448 454.152 525.751 449.578 510.609Z" fill="black"/>
<path d="M445.178 513.24C445.178 513.24 460.517 495.604 498.714 495.604C499.451 495.604 502.243 496.006 505.882 495.294C512.685 493.964 538.936 481.088 587.149 468.806C586.499 454.692 581.498 440.807 577.375 427.281C598.737 408.902 627.804 395.531 655.727 391.718C666.615 427.405 672.737 473.071 663.743 512.176C661.948 519.975 656.513 535.532 654.192 536.875C649.104 539.828 638.556 541.716 631.277 542.23C607.972 543.882 602.587 543.313 579.239 544.241C565.311 544.792 526.117 558.591 506.39 553.211C487.536 565.06 476.579 566.929 464.738 566.929C464.317 566.929 463.222 567.164 463.123 567.14C459.638 566.36 449.22 558.108 440.499 543.715C434.767 534.269 445.178 513.24 445.178 513.24Z" fill="#D08A5A"/>
<path opacity="0.1608" d="M441.626 545.529C444.418 550.853 456.946 560.07 465.927 560.968C477.02 562.076 490.297 562.299 502.336 555.669C500.219 556.913 490.743 562.992 479.613 565.388C477.131 565.92 471.833 566.7 467.902 566.873C467.104 566.911 466.299 566.886 465.513 566.923C465.03 566.941 464.801 566.886 464.572 566.935C464.38 566.979 464.07 567.003 463.897 567.028C463.365 567.109 463.074 567.133 463.074 567.133C463.074 567.133 462.127 566.954 460.493 565.939C457.571 564.112 453.975 561.011 451.672 558.448C447.253 553.502 444.863 550.71 441.626 545.529Z" fill="#141414"/>
<path opacity="0.1608" d="M593.939 468.082C590.504 467.562 581.398 470.193 571.903 472.898C561.096 475.981 554.243 477.937 542.613 482.035C539.524 483.124 532.046 485.749 526.166 487.94C519.537 490.416 515.42 492.038 511.007 493.685C504.861 495.975 505.189 494.929 494.14 501.819C497.222 500.259 536.825 485.99 540.291 484.734C573.605 472.7 557.283 476.829 593.939 468.082Z" fill="#141414"/>
<path d="M320.768 241.429C313.73 248.826 304.656 261.108 302.229 274.993C300.997 282.025 299.19 287.794 299.19 299.884C299.19 305.957 293.706 308.229 292.703 310.897C291.471 314.184 292.672 330.211 297.494 339.292C300.657 345.247 308.103 345.755 309.769 349.574C312.387 355.579 319.437 365.855 324.073 370.485C331.78 378.192 334.652 377.232 343.646 377.851C365.422 379.349 374.892 360.023 360.098 358.191C351.049 357.064 351.798 369.364 336.942 370.107C332.77 370.312 320.91 360.37 314.541 346.541C304.724 325.234 299.92 313.243 304.34 291.571C307.868 274.25 335.32 243.781 356.508 232.372C389.618 214.544 412.304 209.227 446.942 215.863C455.187 217.441 479.421 225.965 473.064 234.558C465.568 244.685 467.778 254.1 469.956 258.867C474.11 267.967 480.82 280.997 494.276 280.997C504.032 280.997 518.033 276.02 520.088 258.576C521.951 242.76 510.444 230.453 499.847 225.204C496.66 223.625 491.875 223.489 486.985 220.103C473.776 210.96 463.94 207.444 447.685 201.978C422.14 193.392 396.346 195.391 371.643 206.224C346.939 217.057 331.056 230.608 320.768 241.429Z" fill="#252525"/>
<path opacity="0.6" d="M499.834 225.191C496.647 223.613 491.862 223.477 486.972 220.091C473.763 210.948 463.927 207.431 447.672 201.965C422.127 193.379 396.334 195.379 371.63 206.212C346.926 217.045 331.061 230.608 320.774 241.429C314.417 248.114 306.382 258.799 303.108 271.043C302.965 271.613 302.817 272.182 302.687 272.752C302.687 272.764 302.681 272.777 302.681 272.789C317.654 241.348 346.468 224.931 358.897 218.295C377.597 208.317 409.518 197.496 446.372 207.982C466.446 213.696 487.931 224.399 496.931 239.38C505.133 253.029 504.044 269.353 490.717 280.657C490.717 280.657 490.717 280.657 490.723 280.657C493.75 280.477 496.82 280.508 499.834 280.453C508.661 278.787 518.398 272.876 520.082 258.557C521.932 242.747 510.425 230.441 499.834 225.191Z" fill="#141414"/>
<path opacity="0.1608" d="M554.176 333.138C565.219 327.109 593.061 330 605.75 343.823C622.5 362.066 628.813 376.539 634.694 403.034C644.765 448.433 651.388 458.908 645.65 508.994C643.7 525.998 632.93 531.638 584.259 536.497C565.986 538.323 539.005 550.71 530.258 552.375C527.906 552.821 525.579 553.124 523.332 553.304C516.585 553.849 510.488 553.31 506.142 552.338C502.15 551.447 499.761 550.128 498.609 549.59C499.693 550.444 503.147 552.765 508.519 553.694C512.735 554.424 518.541 554.684 524.786 554.09C538.751 552.772 554.337 548.921 555.166 548.754C563.739 547.008 565.974 545.968 571.464 545.257C578.056 544.402 591.086 543.957 595.462 543.721C604.493 543.245 607.031 543.362 609.916 543.362C614.143 543.362 618.483 542.991 621.423 542.848C628.523 542.502 631.927 542.099 638.302 541.419C642.908 540.929 649.568 538.868 651.128 538.286C651.215 538.255 652.31 537.816 653.109 537.432C653.882 537.061 654.353 536.745 654.421 536.689C655.393 535.94 656.34 533.798 657.59 530.92C659.107 527.41 660.648 522.953 661.558 519.969C667.166 501.608 669.741 477.807 667.55 452.631C666.052 435.452 664.727 421.957 656.055 391.643C658.327 391.154 658.166 391.173 661.985 390.659C661.168 387.799 659.589 383.689 657.423 376.731C655.127 369.364 651.716 360.438 649.457 353.981C645.019 341.291 639.274 327.282 633.171 320.312C626.17 312.32 618.78 306.978 607.898 304.131C601.256 302.391 588.165 299.791 576.75 307.808C566.314 315.143 560.316 322.12 554.176 333.138Z" fill="#141414"/>
<path opacity="0.6" d="M297.216 305.579C296.925 314.79 298.182 334.525 306.389 346.442C302.23 344.139 298.504 343.21 295.811 335.485C295.155 333.609 294.393 331.733 293.917 328.973C293.415 326.082 291.602 318.313 292.549 311.454C292.79 309.696 295.662 307.703 297.216 305.579Z" fill="#141414"/>
<path opacity="0.6" d="M324.067 370.491C329.991 374.601 342.903 375.969 351.309 373.481C360.959 370.621 361.652 367.031 365.936 360.822C368.529 364.301 366.821 368.399 363.231 371.989C360.959 374.261 357.146 376.056 353.376 377.065C351.365 377.597 350.071 377.777 347.62 377.901C346.258 377.969 345.54 378.006 343.999 377.882C340.291 377.573 333.482 377.746 330.344 375.567C328.276 374.125 326.407 373.128 324.067 370.491Z" fill="#141414"/>
<path d="M319.585 699.495C318.458 697.694 317.957 696.858 317.27 694.821C316.577 692.791 316.762 690.284 318.273 688.718C319.765 687.176 322.389 686.978 324.017 688.278C325.645 689.578 326.047 692.203 324.902 694.017C323.868 691.714 326.406 688.792 328.895 689.12C331.383 689.448 332.998 692.289 332.553 694.815C332.107 697.341 329.73 698.851 327.657 700.325C322.717 703.847 321.597 702.702 319.585 699.495Z" fill="#FF0069"/>
<path d="M334.386 662.545C333.439 661.709 332.474 660.539 331.879 659.425C331.285 658.311 331.118 656.881 331.799 655.816C332.48 654.751 334.145 654.349 335.055 655.222C334.702 659.71 338.886 659.499 338.403 663.975C338.044 667.281 335.952 670.425 333.6 672.778C327.311 679.067 322.601 688.092 321.914 705.165C321.883 705.983 320.18 705.326 319.821 705.289C318.008 705.104 321.493 686.539 323.09 683.084C325.324 678.256 325.739 677.29 329.174 673.229C330.833 671.267 332.95 669.54 334.126 667.262C335.302 664.978 335.408 663.449 334.386 662.545Z" fill="#D9D9D9"/>
<path d="M378.291 665.38C381.398 664.223 383.317 660.527 382.469 657.32C382.791 656.652 383.781 656.503 384.4 656.918C385.019 657.333 385.292 658.131 385.255 658.88C385.224 659.623 384.939 660.335 384.66 661.022C384.19 662.186 383.695 663.381 382.797 664.254C381.906 665.12 380.482 665.584 378.291 665.38Z" fill="#E1E1E1"/>
<path d="M379.695 666.909C380.939 668.005 381.373 669.917 380.735 671.44C381.49 672.053 382.735 671.731 383.273 670.914C383.805 670.097 383.7 668.983 383.224 668.141C382.741 667.299 381.936 666.68 381.1 666.191C380.803 666.197 380.512 666.203 379.695 666.909Z" fill="#D9D9D9" stroke="#D9D9D9" stroke-miterlimit="10"/>
<path d="M399.969 662.514C400.817 661.053 401.659 659.592 402.507 658.131C402.686 657.828 402.897 657.494 403.243 657.419C403.652 657.333 404.048 657.698 404.153 658.1C404.252 658.509 404.141 658.93 403.998 659.326C403.608 660.465 403.045 661.536 399.969 662.514Z" fill="#D9D9D9"/>
<path d="M345.31 665.132C344.945 664.037 344.134 663.257 343.639 662.235C343.144 661.214 343.137 659.611 344.029 659.134C344.815 658.719 345.706 659.524 346.071 660.471C346.43 661.412 346.474 662.495 346.802 663.461C347.13 664.427 347.947 665.3 345.31 665.132Z" fill="#D9D9D9"/>
<path d="M270.271 604.189C268.705 607.89 269.095 610.094 271.28 613.468C273.954 617.597 284.619 626.796 290.834 628.851C281.116 620.067 274.988 612.193 270.271 604.189Z" fill="#BDBDBD"/>
<path d="M277.718 711.808C276.332 711.22 274.84 710.811 273.695 709.839C272.55 708.867 271.77 707.314 272.141 705.859C272.507 704.429 274.048 703.401 275.509 703.618C276.969 703.835 278.152 705.258 278.09 706.732C276.635 705.716 277.155 703.098 278.802 702.436C280.448 701.773 282.447 702.906 283.073 704.565C283.698 706.224 282.936 708.019 282.027 709.536C280.423 712.21 280.609 713.033 277.718 711.808Z" fill="#FF0069"/>
<path d="M363.584 694.32C361.919 692.085 360.718 691.355 359.53 688.804C358.341 686.254 358.218 682.954 359.976 680.695C361.696 678.473 365.095 677.841 367.403 679.308C369.712 680.775 370.616 684.143 369.372 686.675C367.694 683.815 370.591 679.643 373.884 679.723C377.177 679.804 379.69 683.276 379.468 686.638C379.245 689.999 376.366 692.314 373.859 694.524C369.372 698.474 366.413 698.115 363.584 694.32Z" fill="#FF0069"/>
<path d="M269.497 681.611C267.634 680.163 265.449 679.067 264.044 677.148C262.633 675.229 261.989 672.518 263.066 670.357C264.124 668.228 266.835 667.138 268.99 667.974C271.144 668.803 272.45 671.447 271.843 673.749C269.98 671.657 271.688 667.72 274.43 667.237C277.173 666.754 279.834 669.218 280.206 672.041C280.577 674.864 278.869 677.513 276.869 679.506C274.016 682.36 273.452 684.688 269.497 681.611Z" fill="#FF0069"/>
<path d="M427.209 678.516C425.91 676.548 424.096 674.604 423.217 672.394C422.338 670.184 422.4 667.398 423.985 665.578C425.544 663.789 428.441 663.418 430.317 664.767C432.192 666.117 432.787 669.002 431.623 671.075C430.348 668.581 432.997 665.201 435.77 665.43C438.543 665.659 440.499 668.711 440.14 671.533C439.787 674.356 436.661 677.334 434.099 678.516C431.536 679.698 429.326 681.723 427.209 678.516Z" fill="#FF0069"/>
<path d="M416.341 716.351C415.555 714.971 414.57 714.203 414.051 712.687C413.537 711.17 413.667 709.294 414.799 708.124C415.914 706.973 417.87 706.824 419.089 707.796C420.302 708.768 420.606 710.73 419.751 712.086C418.978 710.365 420.878 708.18 422.735 708.428C424.592 708.675 425.805 710.799 425.471 712.687C425.137 714.575 423.422 715.794 421.813 716.803C418.718 718.747 417.938 719.149 416.341 716.351Z" fill="#FF0069"/>
<path d="M359.475 733.01C359.475 733.01 357.717 731.19 357.203 729.673C356.689 728.156 356.819 726.281 357.952 725.111C359.066 723.959 361.022 723.811 362.241 724.783C363.455 725.754 363.758 727.717 362.904 729.072C362.13 727.352 364.03 725.166 365.887 725.414C367.744 725.662 368.957 727.785 368.623 729.673C368.289 731.561 364.513 733.505 364.513 733.505L359.475 733.01Z" fill="#FF0069"/>
</g>
<mask id="mask24_92_86400" style="mask-type:luminance" maskUnits="userSpaceOnUse" x="268" y="461" width="62" height="68">
<path fill-rule="evenodd" clip-rule="evenodd" d="M327.954 502.704C328.729 502.649 329.306 504.093 329.216 505.854C329.132 507.484 328.507 508.801 327.791 508.865L327.409 508.9L326.749 508.959C319.225 509.659 294.643 513.023 271.569 528.137C271.551 528.391 268.16 529.538 268.24 527.957C268.24 527.957 295.136 505.071 327.954 502.704ZM302.348 461.914C303.666 461.56 305.069 461.71 306.282 462.334C307.987 463.395 309.313 464.966 310.07 466.824C310.918 469.178 309.571 471.962 308.751 473.512C307.422 475.796 305.89 479.366 305.146 481.026C304.669 482.125 304.022 482.768 302.722 481.817C302.212 481.5 301.784 481.069 301.472 480.557C301.16 480.045 300.972 479.467 300.924 478.869C300.804 477.528 301.411 475.033 303.239 471.892C304.604 469.288 306.054 466.234 305.124 465.824C302.66 464.702 289.746 476.722 290.054 483.791C290.224 487.849 299.115 489.392 301.707 490.55C302.276 490.76 302.778 491.12 303.158 491.592C303.538 492.064 303.783 492.63 303.867 493.23C303.992 494.63 303.317 496.394 301.856 498.646C299.844 501.265 296.93 503.046 293.679 503.645C290.795 504.141 287.836 503.992 285.016 503.208C282.197 502.425 279.587 501.026 277.375 499.112C276.406 498.271 276.784 497.504 277.634 497.005C278.252 496.73 278.897 496.523 279.559 496.385C281.23 495.935 283.007 496.086 284.578 496.812C287.198 498.211 291.603 500.326 295.232 499.511C296.471 499.313 297.609 498.709 298.468 497.794C298.647 497.623 298.784 497.412 298.869 497.179C298.953 496.945 298.982 496.696 298.953 496.449C298.925 496.203 298.84 495.967 298.704 495.759C298.569 495.551 298.387 495.377 298.173 495.251C293.363 492.856 284.361 491.522 283.806 485.316C283.065 477.041 292.186 467.611 297.618 464.031C299.036 463.016 300.645 462.296 302.348 461.914Z" fill="white"/>
</mask>
<g mask="url(#mask24_92_86400)">
<mask id="mask25_92_86400" style="mask-type:luminance" maskUnits="userSpaceOnUse" x="261" y="458" width="72" height="73">
<path d="M326.353 458.389L261.214 464.216L267.148 530.546L332.288 524.718L326.353 458.389Z" fill="white"/>
</mask>
<g mask="url(#mask25_92_86400)">
<mask id="mask26_92_86400" style="mask-type:luminance" maskUnits="userSpaceOnUse" x="262" y="459" width="69" height="71">
<path d="M268.334 529.129L330.868 523.534L325.167 459.806L262.633 465.4L268.334 529.129Z" fill="white"/>
</mask>
<g mask="url(#mask26_92_86400)">
<path d="M261.214 464.216L326.353 458.389L332.288 524.718L267.148 530.546L261.214 464.216Z" fill="#0057FF"/>
</g>
</g>
</g>
<defs>
<filter id="filter0_b_92_86400" x="-100" y="-81.1711" width="1015.07" height="947.775" filterUnits="userSpaceOnUse" color-interpolation-filters="sRGB">
<feFlood flood-opacity="0" result="BackgroundImageFix"/>
<feGaussianBlur in="BackgroundImageFix" stdDeviation="50"/>
<feComposite in2="SourceAlpha" operator="in" result="effect1_backgroundBlur_92_86400"/>
<feBlend mode="normal" in="SourceGraphic" in2="effect1_backgroundBlur_92_86400" result="shape"/>
</filter>
<filter id="filter1_b_92_86400" x="-6.57422" y="2.61778" width="829.097" height="782.317" filterUnits="userSpaceOnUse" color-interpolation-filters="sRGB">
<feFlood flood-opacity="0" result="BackgroundImageFix"/>
<feGaussianBlur in="BackgroundImageFix" stdDeviation="25"/>
<feComposite in2="SourceAlpha" operator="in" result="effect1_backgroundBlur_92_86400"/>
<feBlend mode="normal" in="SourceGraphic" in2="effect1_backgroundBlur_92_86400" result="shape"/>
</filter>
<linearGradient id="paint0_linear_92_86400" x1="1037.85" y1="849.234" x2="-237.097" y2="-482.406" gradientUnits="userSpaceOnUse">
<stop offset="0.0541064" stop-color="white"/>
<stop offset="0.63085" stop-color="#F9F9FF" stop-opacity="0.65"/>
<stop offset="0.792052" stop-color="#E4EEFF" stop-opacity="0.33"/>
</linearGradient>
<linearGradient id="paint1_linear_92_86400" x1="971.801" y1="810.332" x2="-192.32" y2="-381.635" gradientUnits="userSpaceOnUse">
<stop offset="0.0541064" stop-color="#FFF5FD"/>
<stop offset="0.334245" stop-color="#F0F1FE" stop-opacity="0.65"/>
<stop offset="0.733105" stop-color="#D6E4FF" stop-opacity="0.33"/>
</linearGradient>
<linearGradient id="paint2_linear_92_86400" x1="804.904" y1="464.959" x2="110.892" y2="207.25" gradientUnits="userSpaceOnUse">
<stop stop-color="white"/>
<stop offset="1" stop-color="white" stop-opacity="0.353"/>
</linearGradient>
</defs>
</svg>
