<?xml version="1.0" encoding="UTF-8" standalone="no"?>
<!DOCTYPE svg PUBLIC "-//W3C//DTD SVG 1.1//EN" "http://www.w3.org/Graphics/SVG/1.1/DTD/svg11.dtd">
<svg width="100%" height="100%" viewBox="0 0 375 412" version="1.1" xmlns="http://www.w3.org/2000/svg" xmlnsXlink="http://www.w3.org/1999/xlink" xmlSpace="preserve" xmlnsSerif="http://www.serif.com/" style="fill-rule:evenodd;clip-rule:evenodd;stroke-miterlimit:10;">
    <g>
        <path d="M114.874,177.918C104.907,165.756 87.811,180.077 71.85,185.447C55.889,190.818 35.55,223.515 26.735,237.497C17.919,251.478 5.051,304.041 0.124,332.96C-3.487,354.156 -5.49,431.625 26.628,391.76C64.656,344.564 91.09,231.51 114.874,177.918Z" style="fill:rgb(208,138,90);fill-rule:nonzero;"/>
        <path d="M325.902,405.637C294.513,387.277 267.519,359.612 258.748,319.025C258.369,332.638 283.622,325.192 248.858,399.822C241.29,416.069 134.529,432.429 78.712,401.958C78.712,401.958 -29.677,458.542 -1.954,365.725C1.392,354.51 25.305,275.152 35.098,268.743C44.891,262.334 41.003,259.438 52.699,259.889C63.267,200.415 89.698,202.205 104.464,190.9C114.016,183.589 125.375,178.083 137.394,177.616C165.984,176.503 188.497,202.912 216.62,208.177C228.362,210.374 277.523,170.592 283.601,195.901C285.639,204.394 304.06,214.999 303.616,223.316C302.668,240.789 288.745,247.415 299.99,248.92C309.174,276.127 314.671,304.443 316.335,333.111" style="fill:rgb(208,138,90);fill-rule:nonzero;"/>
        <path d="M133.881,61.633C120.635,90.991 123.079,144.725 109.563,162.195C67.058,217.141 55.037,223.097 64.973,239.751C94.737,289.612 146.878,308.048 198.115,314.531C262.485,322.685 307.608,314.531 327.733,288.16C342.766,268.461 294.074,251.222 293.37,199.201C293.077,177.742 307.834,124.665 309.188,106.094C312.347,62.821 284.104,32.704 260.703,25.108C263.178,28.613 267.314,30.17 271.301,27.567C276.905,23.911 274.712,19.669 270.962,17.616C269.175,16.603 267.117,16.168 265.073,16.372C263.028,16.575 261.097,17.407 259.544,18.753C259.544,18.753 262.162,17.111 262.35,17.001C264.764,15.542 265.509,12.3 265.584,10.849C265.735,7.961 265.276,2.921 261.628,0.829C260.199,0.051 258.534,-0.17 256.952,0.208C255.37,0.585 253.984,1.535 253.061,2.874C250.787,7.043 253.211,15.706 248.232,14.661C203.231,4.814 159.298,5.302 133.881,61.633Z" style="fill:rgb(208,138,90);fill-rule:nonzero;"/>
        <path d="M292.453,125.899C300.23,88.968 250.474,74.819 224.848,69.419C199.223,64.02 144.81,56.226 137.033,93.157C129.255,130.088 157.74,167.359 200.659,176.399C243.578,185.44 284.667,162.833 292.453,125.899Z" style="fill-opacity:0.05;fill-rule:nonzero;"/>
        <g>
            <path d="M239.496,52.38C273.631,49.74 286.293,65.581 291.621,80.91C295.761,92.825 298.528,112.147 294.671,123.04C293.155,127.328 291.734,133.02 289.394,136.925C282.081,148.834 271.287,158.21 258.473,163.785C244.421,169.629 228.625,174.388 200.507,168.635L220.925,50.53C228.469,54.042 236.69,52.598 239.496,52.38Z" style="fill:rgb(242,210,182);fill-rule:nonzero;"/>
        </g>
        <g>
            <path d="M137.689,107.829C136.9,103.332 137.615,97.509 137.735,92.958C138.043,81.398 147.597,64.376 155.772,54.763C166.294,42.39 183.887,32.205 214.983,47.045C217.54,48.264 224.618,53.353 232.968,52.819L210.986,170.679C182.516,165.858 168.135,154.649 157.041,144.097C147.03,134.274 140.275,121.614 137.689,107.829Z" style="fill:rgb(242,210,182);fill-rule:nonzero;"/>
        </g>
        <path d="M215.943,93.103C200.84,90.493 190.82,108.356 188.294,114.607C185.767,120.858 180.17,132.305 182.457,139.323C183.051,141.128 183.585,144.648 195.018,147.439C201.751,149.081 206.834,148.521 214.485,151.087C224.086,154.306 231.597,152.757 234.252,146.604C237.751,138.488 236.84,130.372 236.411,122.624C235.228,101.46 224.751,94.623 215.943,93.103Z" style="fill:rgb(217,161,113);fill-rule:nonzero;"/>
        <path d="M190.91,63.085C192.606,64.307 194.044,65.852 195.14,67.632C196.236,69.413 196.969,71.392 197.296,73.457C197.82,78.897 197.062,84.384 195.084,89.478C193.506,93.602 190.611,97.089 186.848,99.399C181.952,102.19 175.16,101.926 171.135,100.775C167.374,99.707 161.131,96.48 155.077,95.773C152.36,95.603 149.634,95.931 147.036,96.744C143.606,98.157 138.123,103.692 136.219,108.24C134.767,101.23 135.098,97.349 135.542,91.594C136.042,85.92 137.583,80.387 140.09,75.272C141.237,72.498 142.598,69.817 144.159,67.254C144.159,67.254 150.064,65.035 152.623,64.162C157.572,62.469 160.935,60.71 166.043,59.589C169.995,58.788 174.049,58.621 178.054,59.093C182.29,59.4 188.587,61.34 190.91,63.085Z" style="fill:rgb(217,161,113);fill-rule:nonzero;"/>
        <path d="M144.081,67.274L144.073,67.289C142.885,69.263 141.818,71.308 140.877,73.411C138.071,79.021 136.259,85.075 135.522,91.305C135.326,93.35 135.153,96.405 135.191,98.089C135.231,101.494 135.569,104.89 136.201,108.236C136.974,106.377 138.038,104.652 139.353,103.128C138.72,100.256 138.367,97.329 138.3,94.389C138.458,90.725 139.058,83.256 141.315,77.345C142.653,73.609 144.274,69.98 146.167,66.492C145.11,66.883 144.102,67.243 144.081,67.274Z" style="fill:rgb(82,54,24);fill-opacity:0.1;fill-rule:nonzero;"/>
        <path d="M144.155,67.251C140.071,75.463 138.018,80.248 136.521,87.582C135.047,94.833 134.685,104.077 137.071,111.786C133.956,106.401 133.806,100.518 134.19,94.305C134.753,88.098 136.082,81.984 138.147,76.103C138.62,74.351 139.353,72.68 140.321,71.146C141.261,69.554 142.578,68.216 144.155,67.251Z" style="fill:rgb(208,138,90);fill-rule:nonzero;"/>
        <g>
            <path d="M255.642,76.743C253.598,77.177 251.659,78.012 249.939,79.198C248.218,80.385 246.749,81.9 245.616,83.656C242.939,88.422 241.418,93.75 241.178,99.211C240.962,103.62 242.206,107.976 244.715,111.607C248.071,116.135 254.396,118.632 258.54,119.203C262.414,119.738 269.431,119.308 275.253,121.106C277.81,122.045 280.173,123.444 282.225,125.236C284.79,127.914 287.588,134.931 287.491,139.873C290.739,135.415 293.214,130.441 294.809,125.16C296.642,119.768 297.466,114.085 297.239,108.394C297.311,105.391 297.188,102.386 296.87,99.398C296.87,99.398 292.236,95.006 290.242,93.17C286.392,89.62 284.029,86.664 279.81,83.569C276.515,81.24 272.872,79.45 269.016,78.263C265.019,76.849 258.469,76.088 255.642,76.743Z" style="fill:rgb(217,161,113);fill-rule:nonzero;"/>
            <path d="M296.859,99.406C296.859,99.406 297.198,102.271 297.238,106.37C297.542,112.638 296.758,118.911 294.921,124.911C294.274,126.859 293.199,129.732 292.484,131.252C291.095,134.282 289.418,137.171 287.475,139.879C287.533,137.947 287.25,136.02 286.64,134.185C288.376,131.808 289.88,129.27 291.13,126.605C292.462,123.194 294.929,116.12 295.245,109.794C295.517,105.793 295.485,101.778 295.147,97.782C295.969,98.563 296.754,99.301 296.859,99.406Z" style="fill:rgb(82,54,24);fill-opacity:0.1;fill-rule:nonzero;"/>
        </g>
        <path d="M296.959,98.113C297.388,107.267 297.313,113.164 295.719,120.483C294.147,127.712 292.553,134.022 287.254,140.108C292.279,136.438 292.971,133.412 295.13,127.577C297.119,121.671 298.37,115.542 298.853,109.329C299.125,107.534 299.13,105.709 298.868,103.913C298.687,101.859 298.033,99.874 296.959,98.113Z" style="fill:rgb(208,138,90);fill-rule:nonzero;"/>
        <path d="M229.812,117.503C228.583,119.631 226.916,121.473 224.92,122.906C222.923,124.339 220.645,125.331 218.236,125.814C215.832,126.248 213.362,126.158 210.996,125.551C208.629,124.943 206.422,123.833 204.524,122.295C201.356,119.715 199.026,115.435 200.102,111.43C202.775,113.968 206.128,115.674 209.753,116.342C213.328,116.984 216.958,117.273 220.591,117.207C223.614,117.25 226.646,117.286 229.812,117.503Z" style="fill-opacity:0.14;fill-rule:nonzero;"/>
        <path d="M198.89,109.524C200.131,103.679 207.66,101.235 216.461,103.107C225.261,104.979 231.406,110.479 230.165,116.323C228.925,122.167 220.636,125.357 211.828,123.483C203.02,121.61 197.649,115.365 198.89,109.524Z" style="fill:rgb(37,37,37);fill-rule:nonzero;"/>
        <g>
            <path d="M218.505,114.525C220.34,111.584 222.153,110.975 223.289,111.696C224.425,112.418 223.875,114.54 221.883,116.548C220.719,117.856 219.3,118.913 217.714,119.654C216.588,120.008 216.957,116.992 218.505,114.525Z" style="fill:rgb(71,71,71);fill-rule:nonzero;"/>
        </g>
        <g>
            <path d="M210.481,113.142C209.723,109.757 208.225,108.576 206.916,108.884C205.607,109.192 205.412,111.374 206.623,113.924C207.284,115.545 208.269,117.014 209.519,118.24C210.451,118.948 211.107,115.992 210.481,113.142Z" style="fill:rgb(71,71,71);fill-rule:nonzero;"/>
        </g>
        <g>
            <path d="M218.505,114.525C220.34,111.584 222.153,110.975 223.289,111.696C224.425,112.418 223.875,114.54 221.883,116.548C220.719,117.856 219.3,118.913 217.714,119.654C216.588,120.008 216.957,116.992 218.505,114.525Z" style="fill:rgb(71,71,71);fill-rule:nonzero;"/>
        </g>
        <g>
            <path d="M210.481,113.142C209.723,109.757 208.225,108.576 206.916,108.884C205.607,109.192 205.412,111.374 206.623,113.924C207.284,115.545 208.269,117.014 209.519,118.24C210.451,118.948 211.107,115.992 210.481,113.142Z" style="fill:rgb(71,71,71);fill-rule:nonzero;"/>
        </g>
        <g>
            <path d="M218.505,114.525C220.34,111.584 222.153,110.975 223.289,111.696C224.425,112.418 223.875,114.54 221.883,116.548C220.719,117.856 219.3,118.913 217.714,119.654C216.588,120.008 216.957,116.992 218.505,114.525Z" style="fill:rgb(71,71,71);fill-rule:nonzero;"/>
        </g>
        <g>
            <path d="M210.481,113.142C209.723,109.757 208.225,108.576 206.916,108.884C205.607,109.192 205.412,111.374 206.623,113.924C207.284,115.545 208.269,117.014 209.519,118.24C210.451,118.948 211.107,115.992 210.481,113.142Z" style="fill:rgb(71,71,71);fill-rule:nonzero;"/>
        </g>
        <path d="M224.141,109.292C222.485,112.521 220.472,115.554 218.138,118.333C217.849,118.756 217.485,119.123 217.063,119.416C216.85,119.558 216.602,119.641 216.346,119.657C216.09,119.673 215.834,119.62 215.604,119.505C215.371,119.333 215.196,119.094 215.101,118.82C215.005,118.546 214.995,118.25 215.071,117.97C215.232,117.412 215.506,116.892 215.876,116.443C216.854,115.073 217.831,113.713 218.809,112.343C219.388,111.43 220.114,110.619 220.957,109.943C221.411,109.615 221.93,109.387 222.479,109.275C223.028,109.163 223.594,109.169 224.141,109.292Z" style="fill:rgb(37,37,37);fill-opacity:0.67;fill-rule:nonzero;"/>
        <path d="M206.457,106.921C207.487,110.381 208.514,113.841 209.54,117.301C209.622,117.659 209.775,117.996 209.991,118.293C210.103,118.439 210.256,118.549 210.43,118.608C210.604,118.667 210.792,118.672 210.969,118.624C211.466,118.436 211.555,117.789 211.541,117.263C211.353,114.064 210.415,110.954 208.804,108.184C208.564,107.644 208.185,107.176 207.706,106.83C207.202,106.522 206.344,106.567 206.457,106.921Z" style="fill:rgb(37,37,37);fill-opacity:0.67;fill-rule:nonzero;"/>
        <g>
            <path d="M190.895,81.452C194.205,67.371 179.327,64.724 179.327,64.724C179.327,64.724 164.855,69.38 163.501,79.618C162.146,89.856 167.284,97.279 174.871,97.474C182.99,97.677 188.535,91.507 190.895,81.452Z" style="fill:white;fill-rule:nonzero;"/>
            <path d="M185.284,66.274C172.398,59.475 164.765,75.617 164.811,75.549C167.333,74.929 169.89,74.459 172.468,74.143C184.947,73.511 191.291,79.618 191.291,79.618C191.291,79.618 193.716,70.726 185.284,66.274Z" style="fill:rgb(211,146,102);fill-rule:nonzero;"/>
            <path d="M181.388,86.288C179.07,86.288 177.191,84.409 177.191,82.091C177.191,79.774 179.07,77.895 181.388,77.895C183.706,77.895 185.585,79.774 185.585,82.091C185.585,84.409 183.706,86.288 181.388,86.288Z" style="fill-rule:nonzero;stroke:black;stroke-width:1.26px;"/>
            <path d="M181.9,82.543C180.853,82.543 180.005,81.694 180.005,80.647C180.005,79.601 180.853,78.753 181.9,78.753C182.946,78.753 183.795,79.601 183.795,80.647C183.795,81.694 182.946,82.543 181.9,82.543Z" style="fill:white;fill-rule:nonzero;"/>
            <path d="M164.065,77.27C163.615,78.677 163.364,80.141 163.321,81.617C163.144,84.374 163.551,87.138 164.518,89.726C165.33,91.936 168.414,97.594 175.266,97.466C163.224,86.206 172.739,69.294 176.86,64.814C170.925,66.052 166.133,71.929 164.065,77.27Z" style="fill-opacity:0.14;fill-rule:nonzero;"/>
        </g>
        <path d="M248.984,93.684C251.637,79.46 266.322,83.04 266.322,83.04C266.322,83.04 277.692,93.147 274.787,103.048C271.881,112.948 264.204,117.677 257.186,114.797C249.669,111.72 247.089,103.83 248.984,93.684Z" style="fill:white;fill-rule:nonzero;"/>
        <path d="M260.237,82.061C274.765,81.038 275.243,98.888 275.228,98.804C273.168,97.221 271.017,95.762 268.785,94.434C257.622,88.823 249.356,91.855 249.356,91.855C249.356,91.855 250.722,82.731 260.237,82.061Z" style="fill:rgb(211,146,102);fill-rule:nonzero;"/>
        <path d="M257.425,102.302C255.107,102.302 253.228,100.423 253.228,98.106C253.228,95.788 255.107,93.909 257.425,93.909C259.742,93.909 261.621,95.788 261.621,98.106C261.621,100.423 259.742,102.302 257.425,102.302Z" style="fill-rule:nonzero;stroke:black;stroke-width:1.26px;"/>
        <path d="M257.537,98.473C256.49,98.473 255.642,97.625 255.642,96.578C255.642,95.532 256.49,94.683 257.537,94.683C258.583,94.683 259.432,95.532 259.432,96.578C259.432,97.625 258.583,98.473 257.537,98.473Z" style="fill:white;fill-rule:nonzero;"/>
        <path d="M275.22,100.678C275.067,102.148 274.705,103.59 274.145,104.958C273.193,107.554 271.707,109.921 269.782,111.906C268.14,113.607 263.05,117.533 256.822,114.652C272.384,109.205 270.504,89.89 268.533,84.128C273.468,87.643 275.484,94.961 275.22,100.678Z" style="fill-opacity:0.14;fill-rule:nonzero;"/>
        <path d="M252.775,3.491C252.094,6.133 251.681,8.836 251.541,11.561C251.434,12.563 251.052,13.516 250.436,14.314C250.174,14.501 249.877,14.634 249.563,14.704C249.249,14.773 248.924,14.779 248.608,14.719C248.608,14.719 252.007,19.578 251.534,23.415C250.018,35.638 244.727,49.47 234.648,51.952C283.862,58.812 306.691,118.53 238.732,170.059C255.633,176.588 299.327,280.794 183.538,300.387C189.188,297.845 315.101,278.371 319.978,274.73C322.235,273.037 328.718,297.686 330.338,296.196C331.384,295.234 325.78,297.904 327.751,295.691C328.721,294.601 334.633,292.006 335.107,291.388C335.36,291.065 335.754,290.591 336.176,289.998C336.834,289.132 337.437,288.226 337.981,287.283C338.548,286.248 338.978,285.144 339.261,283.999C339.562,282.769 339.639,281.495 339.487,280.238C339.457,277.585 337.261,273.521 337.132,273.281C335.607,270.63 333.872,268.107 331.942,265.736C320.028,252.136 301.044,237.575 295.493,216.514C293.578,208.813 292.937,200.85 293.598,192.941C297.569,156.469 303.639,143.004 307.317,119.004C308.364,113.841 309.04,108.61 309.339,103.351C309.594,99.2 309.483,95.034 309.008,90.902C308.78,88.225 308.388,85.565 307.834,82.937C307.167,79.4 306.244,75.916 305.074,72.512C299.936,58.092 293.528,50.262 293.174,49.796C292.843,49.367 288.563,44.184 288.082,43.636C285.303,40.717 282.357,37.963 279.259,35.385C276.003,32.87 272.561,30.607 268.961,28.616C270.05,28.314 271.068,27.798 271.955,27.1C273.293,26.163 274.255,24.783 274.672,23.204C275.198,20.255 272.212,17.607 268.987,16.728C266.754,16.116 264.382,16.258 262.239,17.134C263.079,16.486 263.808,15.706 264.398,14.824C265.248,13.418 266.407,10.296 265.037,5.497C264.781,4.487 264.324,3.539 263.695,2.708C263.066,1.877 262.277,1.181 261.374,0.661C259.207,-0.565 256.981,0.233 255.206,0.857C254.107,1.416 253.244,2.35 252.775,3.491Z" style="fill:rgb(82,54,24);fill-opacity:0.14;fill-rule:nonzero;"/>
        <path d="M229.827,132.856C223.5,135.047 216.738,135.678 210.116,134.695C203.493,133.711 197.206,131.143 191.789,127.208C191.586,127.057 198.31,142.455 207.562,143.505C222.17,145.146 229.903,132.833 229.827,132.856Z" style="fill:rgb(20,20,20);fill-opacity:0.14;fill-rule:nonzero;"/>
        <path d="M233.573,130.019C220.094,134.567 199.815,131.004 189.683,123.347C189.48,123.197 197.544,139.586 208.345,142.369C223.043,142.374 233.636,129.993 233.573,130.019Z" style="fill:rgb(37,37,37);fill-rule:nonzero;"/>
        <path d="M217.65,140.746C217.353,139.617 216.698,138.616 215.784,137.89C214.87,137.165 213.746,136.755 212.58,136.722C211.279,136.556 208.585,137.279 208.639,138.407C209.158,137.482 207.977,136.362 206.586,136.068C205.045,135.71 203.425,135.978 202.081,136.812C201.528,137.127 201.022,137.517 200.576,137.97C200.576,137.97 204.217,142.085 208.345,142.37C211.522,142.428 214.681,141.876 217.65,140.746Z" style="fill:rgb(224,162,162);fill-rule:nonzero;"/>
        <path d="M286.489,199.012C258.99,256.003 204.856,278.561 162.441,261.168C107.991,238.836 102.522,181.535 101.447,173.48C96.746,182.461 100.597,190.487 103.595,200.174C108.815,217.031 115.366,233.905 126.798,247.351C141.488,264.628 163.767,274.956 186.428,275.993C209.088,277.03 231.858,269.036 249.55,254.835C267.242,240.634 279.84,220.468 286.489,199.012Z" style="fill:rgb(190,126,81);fill-rule:nonzero;"/>
        <path d="M312.146,401.042C311.777,402.115 311.049,403.029 310.085,403.629C309.76,402.782 309.297,401.994 308.716,401.297C309.865,401.42 311.027,401.333 312.146,401.042Z" style="fill-rule:nonzero;"/>
        <g transform="matrix(1,0,0,1.02254,0,-3.91063)">
            <path d="M292.994,206.117C281.846,219.213 227.961,285.087 167.336,268.013C104.665,250.359 101.446,173.472 101.446,173.472C101.446,173.472 86.004,173.503 78.959,176.428C58.213,185.025 41.59,203.507 31.753,223.822C40.388,224.201 53.942,228.177 62.547,232.111C58.259,241.785 56.469,256.216 55.445,260.662C54.422,265.108 48.014,284.568 45.235,299.603C42.675,313.448 33.222,408.066 33.222,408.066C33.222,408.066 47.641,410.965 132.332,413.278C181.052,414.608 319.467,412.596 319.609,409.761C319.609,409.761 300.777,379.528 300.499,359.415C299.514,288.011 283.876,277.424 283.949,277.187C285.304,272.869 294.593,280.472 302.543,285.009C310.493,289.547 301.332,287.157 302.747,296.194C302.505,278.496 316.556,287.755 314.496,274.621C312.435,261.487 318.603,261.173 327.129,250.973C329.032,248.699 314.042,247.562 315.127,244.798C316.805,240.555 314.931,223.181 309.695,219.751C305.887,217.271 310.92,211.171 292.994,206.117Z" style="fill:rgb(35,45,64);fill-rule:nonzero;"/>
        </g>
        <g transform="matrix(2.55453,0.146988,-0.188116,3.2693,48.7987,11.2243)">
            <path d="M27.669,111.812C41.918,107.782 56.591,105.441 71.386,104.836C71.964,104.812 72.45,105.162 72.45,105.599C72.416,105.822 72.299,106.024 72.123,106.165C71.947,106.306 71.724,106.376 71.499,106.36C67.045,106.55 47.73,107.58 30.165,111.811C30.165,111.876 27.665,112.201 27.665,111.811M66.96,96.017C67.231,95.443 67.573,94.905 67.979,94.417C68.074,94.464 67.868,95.165 67.326,96.108C66.88,96.884 66.347,97.606 65.736,98.26C65.849,97.985 66.547,96.745 66.96,96.019M37.649,96.767C37.985,96.708 38.331,96.776 38.618,96.959C39.018,97.26 39.313,97.68 39.461,98.159C39.523,98.747 39.352,99.335 38.984,99.797C38.632,100.297 38.215,101.057 37.977,101.486L37.961,101.514C37.945,101.542 37.931,101.568 37.919,101.591C37.777,101.854 37.601,102 37.298,101.733C37.178,101.643 37.081,101.526 37.015,101.391C36.948,101.257 36.914,101.108 36.916,100.958C36.998,100.338 37.251,99.754 37.648,99.271C38.048,98.652 38.475,97.924 38.253,97.8C37.664,97.466 34.183,100.173 34.102,101.941C34.055,102.956 36.232,103.541 36.853,103.885C36.99,103.95 37.107,104.051 37.192,104.177C37.276,104.303 37.325,104.45 37.332,104.601C37.269,105.091 37.051,105.548 36.711,105.906C36.152,106.515 35.386,106.894 34.563,106.97C33.834,107.03 33.1,106.927 32.415,106.669C31.73,106.411 31.111,106.004 30.603,105.477C30.381,105.246 30.492,105.064 30.714,104.957C30.874,104.902 31.039,104.865 31.206,104.846C31.632,104.771 32.071,104.848 32.446,105.064C33.188,105.643 34.099,105.962 35.039,105.974C35.353,105.953 35.65,105.828 35.884,105.618C35.933,105.58 35.972,105.53 35.999,105.474C36.025,105.418 36.038,105.356 36.037,105.294C36.035,105.231 36.019,105.17 35.99,105.115C35.961,105.06 35.919,105.013 35.868,104.977C34.723,104.277 32.512,103.739 32.512,102.177C32.512,100.098 34.992,97.95 36.424,97.177C36.8,96.956 37.216,96.813 37.648,96.756L37.649,96.767ZM67.449,93.094C67.749,92.764 68.036,92.635 68.339,92.869C68.504,92.989 68.638,93.146 68.729,93.328C68.82,93.51 68.866,93.712 68.863,93.915C68.867,94.137 68.834,94.358 68.768,94.57C68.073,96.556 66.813,98.296 65.143,99.576C64.852,100.232 64.675,100.933 64.619,101.649C64.619,102.015 64.714,102.262 64.919,102.234C65.651,102.134 66.572,100.99 67.178,99.809C67.225,99.711 67.293,99.625 67.378,99.556C67.71,99.03 68.104,98.446 68.515,97.905C68.427,97.847 68.354,97.769 68.302,97.678C68.25,97.587 68.22,97.484 68.215,97.379C68.284,96.939 68.458,96.522 68.721,96.162C68.984,95.802 69.329,95.511 69.727,95.311C70.061,95.267 70.204,95.432 70.204,95.782C70.17,96.214 70.074,96.639 69.919,97.044C70.39,96.846 70.826,96.572 71.207,96.231C71.478,96.011 71.636,95.96 71.844,96.131C71.979,96.245 72.09,96.385 72.169,96.543C72.248,96.701 72.295,96.873 72.305,97.049C72.292,97.281 72.203,97.503 72.05,97.678C71.192,98.74 70.286,100.067 70.286,100.969C70.286,101.369 70.413,101.594 70.636,101.569C71.176,101.498 71.813,100.558 72.305,99.437C72.432,99.144 72.655,99.101 72.797,99.356C72.86,99.517 72.888,99.689 72.88,99.861C72.872,100.033 72.828,100.202 72.75,100.356C72.555,100.817 72.251,101.224 71.864,101.541C71.477,101.858 71.018,102.076 70.527,102.176C70.339,102.224 70.143,102.226 69.954,102.182C69.766,102.137 69.59,102.049 69.443,101.922C69.296,101.796 69.182,101.637 69.109,101.457C69.037,101.277 69.009,101.083 69.027,100.89C69.253,99.658 69.821,98.515 70.665,97.59C70.302,97.786 69.91,97.921 69.504,97.99C68.544,99.478 67.764,101.075 67.182,102.747C67.119,103.03 66.911,103.196 66.626,102.947C66.418,102.785 66.282,102.549 66.246,102.288C65.859,102.57 65.411,102.756 64.939,102.834C64.635,102.923 64.309,102.889 64.03,102.739C63.751,102.589 63.542,102.336 63.448,102.034C62.916,102.717 62.159,103.189 61.312,103.365C60.23,103.507 59.643,103.021 59.643,102.194C59.652,101.84 59.733,101.492 59.88,101.17C60.135,100.616 60.659,99.722 61.025,99.123C61.375,98.571 61.757,98.063 61.625,98.081C61.493,98.099 61.164,98.295 60.225,99.321C59.097,100.637 58.194,102.131 57.553,103.741C57.395,104.053 57.171,104.129 56.916,103.917C56.794,103.825 56.698,103.703 56.636,103.563C56.575,103.423 56.551,103.269 56.566,103.117C56.602,102.714 56.699,102.32 56.853,101.946C57.19,101.193 57.583,100.466 58.03,99.772C58.459,99.028 58.906,98.388 58.762,98.407C58.092,98.806 57.513,99.341 57.062,99.977C56.123,101.193 55.37,102.541 54.827,103.978C54.714,104.237 54.54,104.354 54.269,104.16C54.156,104.083 54.062,103.98 53.996,103.86C53.591,104.213 53.097,104.448 52.568,104.542C51.631,104.667 51.152,104.285 51.089,103.607C50.587,104.289 49.851,104.762 49.022,104.936C48.817,104.989 48.6,104.965 48.412,104.869C48.224,104.773 48.076,104.612 47.998,104.416C47.508,104.901 46.884,105.228 46.206,105.355C46.007,105.406 45.798,105.409 45.598,105.361C45.398,105.314 45.212,105.219 45.057,105.084C44.901,104.949 44.781,104.779 44.706,104.587C44.631,104.396 44.604,104.189 44.627,103.984C44.897,102.701 45.488,101.507 46.346,100.515C45.957,100.723 45.539,100.871 45.106,100.954C43.961,103.554 42.179,105.867 40.16,106.134C39.887,106.214 39.6,106.226 39.321,106.171C39.043,106.116 38.782,105.994 38.56,105.816C38.338,105.639 38.163,105.411 38.048,105.151C37.933,104.891 37.883,104.607 37.901,104.324C37.923,103.689 38.086,103.066 38.378,102.502C38.645,101.84 39.053,101.244 39.576,100.758C40.098,100.271 40.721,99.905 41.4,99.686C41.586,99.651 41.779,99.668 41.956,99.735C42.341,99.876 42.67,100.139 42.893,100.483C43.13,100.94 42.877,101.523 42.575,102.162C42.565,102.186 42.553,102.209 42.541,102.233L42.529,102.257C42.435,102.441 42.355,102.63 42.288,102.825C42.177,103.161 42.114,103.246 41.716,103.1C41.548,103.043 41.403,102.932 41.302,102.786C41.202,102.64 41.151,102.465 41.158,102.287C41.228,101.894 41.351,101.512 41.524,101.152C41.682,100.81 41.842,100.484 41.763,100.432C41.555,100.305 40.539,101.375 39.87,102.762C39.589,103.309 39.427,103.908 39.393,104.522C39.393,105.165 39.664,105.556 40.125,105.522C41.683,105.376 43.384,102.922 44.211,100.93C44.076,100.899 43.956,100.819 43.874,100.707C43.792,100.594 43.754,100.456 43.766,100.317C43.839,99.857 44.022,99.422 44.299,99.047C44.575,98.673 44.938,98.37 45.356,98.165C45.69,98.121 45.817,98.303 45.817,98.64C45.781,99.094 45.68,99.54 45.517,99.965C46.023,99.765 46.491,99.481 46.901,99.124C47.138,98.924 47.393,98.829 47.601,99.015C47.738,99.14 47.848,99.291 47.924,99.46C48.001,99.629 48.042,99.811 48.046,99.996C48.034,100.237 47.938,100.467 47.775,100.645C47.052,101.475 46.472,102.42 46.058,103.44C45.979,103.665 45.936,103.902 45.931,104.14C45.931,104.522 46.058,104.74 46.297,104.719C46.797,104.695 47.616,103.74 48.113,102.708C48.666,101.278 49.38,99.916 50.243,98.648C50.274,98.587 50.318,98.535 50.374,98.495C50.429,98.456 50.493,98.43 50.561,98.421C50.628,98.412 50.697,98.42 50.761,98.444C50.825,98.467 50.882,98.506 50.927,98.557C51.087,98.744 51.171,98.984 51.164,99.229C50.953,100.05 50.62,100.834 50.177,101.557L50.132,101.646C49.881,102.135 49.632,102.621 49.448,103.034C49.161,103.683 49.114,104.254 49.464,104.209C49.877,104.154 50.72,103.003 51.533,101.673C52.47,100.081 52.884,98.987 53.455,98.208C53.678,97.888 53.932,97.793 54.123,98.028C54.292,98.245 54.377,98.516 54.36,98.791C54.236,99.583 53.932,100.336 53.47,100.991C52.95,101.746 52.583,102.595 52.388,103.491C52.388,103.766 52.483,103.906 52.688,103.879C53.072,103.828 53.61,103.189 54.096,102.443C54.773,100.822 55.578,99.257 56.505,97.764C56.713,97.446 56.95,97.43 57.105,97.683C57.246,97.89 57.324,98.133 57.328,98.383C57.326,98.524 57.31,98.664 57.281,98.802C57.833,98.128 58.551,97.611 59.366,97.302C59.874,97.235 60.209,97.741 60.209,98.382C60.768,97.747 61.484,97.271 62.285,97C62.746,96.955 63.001,97.334 63.001,97.839C62.865,98.679 62.527,99.474 62.016,100.155C61.577,100.738 61.283,101.417 61.158,102.135C61.158,102.487 61.316,102.711 61.571,102.677C62.063,102.612 62.843,101.437 63.432,100.428C63.464,100.37 63.506,100.317 63.555,100.272C64.348,97.637 65.675,95.193 67.455,93.093L67.449,93.094Z" style="fill:white;"/>
        </g>
        <g opacity="0.14">
            <g transform="matrix(1,0,0,1.02528,0,-10.4332)">
                <path d="M278.155,239.375C263.753,302.143 250.963,339.228 263.548,393.181C264.053,395.329 268.927,416.738 268.927,416.738L288.231,416.696L304.69,416.31C304.69,416.31 314.389,415.986 314.705,415.873C314.87,415.809 318.54,415.576 318.938,415.373C319.335,415.171 319.599,415.118 319.599,415.118C317.294,411.339 311.141,399.149 311.141,399.149L310.213,397.306C308.609,395.628 307.287,393.886 305.88,392.04C300.329,381.389 303.262,374.093 303.848,360.331" style="fill-rule:nonzero;"/>
            </g>
        </g>
        <path d="M317.689,238.702C316.805,230.533 310.791,224.885 304.278,224.621C297.764,224.357 291.092,228.751 286.142,234.98C281.193,241.21 276.036,248.73 275.109,257.139C270.701,296.786 275.974,325.864 281.021,352.334C287.324,385.369 315.794,403.878 330.582,408.484C326.766,359.628 322.647,284.81 317.689,238.702Z" style="fill:rgb(208,138,90);fill-rule:nonzero;"/>
        <path d="M302.029,301.665C295.666,336.174 328.693,351.684 334.598,379.078C336.847,389.496 336.441,399.424 330.582,408.481C325.186,406.419 319.986,403.88 315.043,400.893C307.961,396.337 301.624,390.717 296.253,384.232C294.516,382.028 293.305,380.456 291.267,377.492C288.81,373.757 286.711,369.798 285.001,365.668C283.249,361.361 281.917,356.895 281.021,352.332C277.795,336.822 276.079,323.464 274.936,313.964C273.634,303.117 273.461,285.118 273.461,285.118L271.819,285.795C271.819,285.795 272.549,266.57 278.152,265.75C282.545,265.111 297.258,265.659 300.439,268.623C303.62,271.587 302.571,298.738 302.029,301.665Z" style="fill:rgb(20,20,20);fill-opacity:0.14;fill-rule:nonzero;"/>
        <path d="M271.896,291.307C271.517,263.296 278.853,224.868 286.714,215.507C289.933,211.672 290.739,211.415 294.582,209.715C298.425,208.014 305.887,210.941 308.09,214.529C309.46,216.755 309.121,218.659 309.009,221.269C308.272,239.313 311.157,266.302 308.408,284.15C306.24,282.807 282.848,284.101 271.896,291.307Z" style="fill:rgb(35,45,64);fill-rule:nonzero;"/>
        <path d="M267.984,174.074C267.982,174.06 267.985,174.046 267.993,174.034C268,174.022 268.011,174.014 268.024,174.009C268.038,174.005 268.052,174.005 268.065,174.01C268.078,174.015 268.089,174.024 268.096,174.036C275.061,185.709 283.283,196.65 291.79,201.753C300.32,206.869 307.307,207.109 314.746,201.964C314.754,201.958 314.764,201.954 314.775,201.953C314.785,201.952 314.796,201.953 314.805,201.957C314.815,201.96 314.824,201.967 314.831,201.975C314.837,201.983 314.842,201.992 314.844,202.002C315.087,203.155 315.093,204.345 314.86,205.5C314.627,206.655 314.161,207.751 313.49,208.719C312.272,210.374 309.06,210.235 308.924,212.081C308.3,220.965 289.112,213.164 285.193,209.779C274.983,200.605 268.8,187.776 267.984,174.074Z" style="fill:rgb(242,223,167);fill-rule:nonzero;"/>
        <path d="M312.183,203.53C303.953,207.572 298.508,205.154 294.966,203.463C291.758,201.988 288.815,199.996 286.255,197.565C279.877,191.736 276.717,187.283 271.181,179.032C271.655,183.425 278.049,199.751 287.277,206.735C292.362,210.585 298.718,212.286 304.886,213.903C310.97,212.661 311.222,206.071 312.183,203.53Z" style="fill:rgb(20,20,20);fill-opacity:0.14;fill-rule:nonzero;"/>
        <path d="M327.279,161.108C329.806,160.855 328.669,154.052 326.572,148.126C326.565,148.097 326.567,148.067 326.579,148.04C326.59,148.013 326.61,147.99 326.635,147.975C326.66,147.96 326.69,147.953 326.719,147.956C326.749,147.959 326.776,147.971 326.798,147.991C332.793,153.316 337.314,171.082 337.389,179.04C337.472,187.051 334.621,199.138 334.621,199.182L331.409,192.09" style="fill:rgb(242,223,167);fill-rule:nonzero;"/>
        <path d="M327.813,152.201C334.01,168.298 334.574,187.599 330.889,202.755C332.942,190.705 328.715,168.253 328.715,157.692C328.614,155.834 328.312,153.993 327.813,152.201Z" style="fill:rgb(20,20,20);fill-opacity:0.14;fill-rule:nonzero;"/>
        <path d="M329.423,204.756C338.134,182.04 332.387,159.37 319.676,139.655C319.655,139.623 319.623,139.599 319.587,139.588C319.55,139.577 319.511,139.579 319.475,139.594C319.44,139.609 319.411,139.636 319.394,139.671C319.377,139.705 319.373,139.744 319.382,139.782C324.903,170.162 322.828,183.055 324.633,202.723C324.633,202.744 324.638,202.765 324.646,202.784C324.655,202.803 324.667,202.82 324.682,202.834C324.697,202.848 324.714,202.86 324.734,202.867C324.753,202.875 324.774,202.878 324.795,202.878C324.815,202.877 324.836,202.873 324.855,202.864C324.874,202.856 324.891,202.844 324.905,202.829C324.919,202.814 324.931,202.796 324.938,202.777C324.946,202.757 324.949,202.737 324.949,202.716C325.249,194.473 327.009,185.642 323.986,178.334C320.07,169.766 313.212,162.886 304.657,158.943C295.345,155.039 278.669,156.694 267.808,170.818C267.784,170.846 267.771,170.881 267.77,170.917C267.769,170.954 267.78,170.99 267.802,171.019C267.824,171.048 267.855,171.07 267.89,171.079C267.925,171.088 267.963,171.085 267.996,171.071C307.343,155.784 311.389,182.917 312.533,189.499C313.571,195.471 315.075,202.132 314.901,208.296C314.901,208.332 314.889,208.367 314.866,208.394C314.842,208.422 314.81,208.44 314.775,208.446C313.881,208.65 309.443,210.493 329.303,204.874C329.332,204.867 329.358,204.852 329.379,204.831C329.401,204.811 329.416,204.785 329.423,204.756Z" style="fill:rgb(242,223,167);fill-rule:nonzero;"/>
        <path d="M328.391,200.242C326.342,199.696 324.169,199.858 322.224,200.701C325.292,181.372 322.216,156.676 320.742,147.868C321.434,148.899 332.603,168.486 328.391,200.242Z" style="fill:rgb(20,20,20);fill-opacity:0.14;fill-rule:nonzero;"/>
        <path d="M327.76,203.138C327.752,203.341 327.609,203.047 327.752,203.199C341.908,218.159 333.912,170.284 306.443,159.144C296.627,155.164 279.125,156.692 267.819,170.735C267.715,170.861 267.865,171.043 268.023,170.987C309.242,155.989 313.702,183.187 314.958,189.785C316.095,195.772 317.738,202.443 317.591,208.626C317.591,208.662 317.578,208.697 317.555,208.724C317.532,208.752 317.5,208.77 317.465,208.776C316.525,208.972 311.876,210.777 332.704,205.308C332.754,205.297 328.058,193.383 327.76,203.138Z" style="fill:rgb(242,223,167);fill-rule:nonzero;"/>
        <path d="M323.691,200.303C322.15,185.342 317.178,171.058 302.059,164.379C295.289,161.385 281.972,162.581 274.26,168.876C289.25,164.514 297.088,166.602 302.714,170.501C307.618,173.9 310.348,179.843 311.507,184.603C312.92,190.403 313.831,196.45 314.674,202.497C316.734,201.58 318.307,200.414 320.359,199.497C320.758,199.333 323.134,199.204 323.691,200.303Z" style="fill:rgb(20,20,20);fill-opacity:0.14;fill-rule:nonzero;"/>
        <path d="M332.623,196.407C333.365,196.395 334.085,196.657 334.645,197.143C347.138,208.464 356.969,227.982 360.684,251.194C363.521,268.914 370.681,287.75 373.318,315.459C379.862,384.125 348.616,400.929 332.174,408.21C331.355,408.569 330.427,408.588 329.594,408.263C277.731,388.255 283.14,319.477 300.982,257.547C306.074,239.86 306.721,218.314 309.564,206.723C311.243,199.856 323.248,196.369 332.623,196.407Z" style="fill:rgb(208,138,90);fill-rule:nonzero;"/>
        <path d="M353.424,225.079C359.329,238.776 360.404,250.992 363.307,263.846C368.242,285.689 371.927,297.754 373.371,315.459C374.409,328.171 374.777,342.462 372.589,354.791C371.729,360.15 370.371,365.418 368.535,370.526C365.294,379.359 360.265,387.428 353.762,394.227C347.511,400.575 337.697,406.006 331.965,408.316C331.334,408.503 330.667,408.527 330.024,408.384C325.6,406.748 321.337,404.706 317.29,402.283C324.662,367.127 345.797,337.601 347.709,301.722C349.62,265.843 345.384,229.416 331.159,196.433C333.039,196.418 333.385,196.328 334.325,196.869C334.637,197.088 334.93,197.334 335.198,197.606C335.687,198.049 336.176,198.523 336.876,199.223C339.535,201.95 341.972,204.885 344.164,208C347.811,213.371 350.913,219.093 353.424,225.079Z" style="fill:rgb(20,20,20);fill-opacity:0.14;fill-rule:nonzero;"/>
        <path d="M211.242,136.781C210.488,137.154 209.825,137.688 209.299,138.344C208.773,139 208.397,139.763 208.196,140.58C208.332,139.7 208.521,138.828 208.761,137.97C208.835,137.887 209.121,137.179 211.242,136.781Z" style="fill:rgb(20,20,20);fill-opacity:0.14;fill-rule:nonzero;"/>
    </g>
</svg>
