<?xml version="1.0" encoding="UTF-8" standalone="no"?>
<!DOCTYPE svg PUBLIC "-//W3C//DTD SVG 1.1//EN" "http://www.w3.org/Graphics/SVG/1.1/DTD/svg11.dtd">
<svg xmlns="http://www.w3.org/2000/svg" version="1.1" viewBox="0.00 0.00 1474.00 1422.00">
  <path fill="#ccd1e1" d="
  M 706.25 72.31
  Q 697.15 81.36 692.02 94.17
  Q 689.77 99.79 689.54 103.50
  Q 688.08 127.41 691.06 151.57
  C 693.58 171.94 699.21 192.89 709.76 210.76
  Q 719.28 226.91 735.95 236.58
  Q 733.24 237.36 730.06 236.21
  Q 725.91 234.71 725.82 234.68
  Q 719.76 233.00 713.73 231.28
  Q 673.73 219.88 634.26 218.14
  Q 612.48 217.18 591.30 220.25
  Q 537.24 228.10 499.16 263.59
  C 484.76 277.01 472.30 293.47 462.75 310.09
  Q 442.60 345.18 428.75 388.06
  Q 428.67 388.33 428.82 388.58
  Q 429.01 388.89 429.46 388.83
  C 428.76 389.25 428.11 389.78 427.86 390.60
  C 422.25 408.75 418.57 426.53 415.31 444.42
  Q 410.15 472.73 414.06 503.24
  Q 415.46 514.15 417.06 522.87
  Q 421.51 547.08 431.60 569.75
  Q 431.43 571.14 431.79 572.49
  C 454.17 655.64 514.70 721.92 590.26 760.84
  Q 590.43 760.93 590.99 760.84
  Q 590.83 760.77 590.69 761.16
  Q 587.18 764.19 585.57 765.83
  Q 566.54 785.38 551.32 808.32
  C 508.97 872.13 483.80 949.84 487.51 1026.24
  Q 490.62 1090.29 522.17 1146.80
  Q 522.46 1146.85 522.26 1147.78
  Q 521.99 1147.88 521.79 1147.69
  Q 521.68 1147.58 521.55 1147.50
  C 453.12 1104.10 397.97 1039.67 370.12 963.65
  Q 361.27 939.50 354.27 917.10
  A 0.30 0.30 0.0 0 0 353.74 917.03
  Q 353.47 917.45 353.74 917.67
  C 352.52 914.29 352.37 909.83 351.97 907.35
  Q 348.08 883.48 346.20 858.80
  Q 345.90 854.82 346.66 851.68
  Q 347.48 848.27 347.94 844.71
  A 0.69 0.68 17.2 0 0 347.56 844.00
  Q 347.06 843.76 346.60 843.83
  C 354.24 819.28 358.16 796.42 360.43 770.50
  Q 362.89 742.34 363.83 713.29
  Q 365.46 662.43 365.25 613.84
  C 365.24 610.94 365.53 607.99 365.51 605.05
  C 365.08 553.95 364.90 501.93 366.52 451.27
  Q 366.82 442.10 367.42 432.54
  Q 372.19 357.25 404.24 292.15
  C 436.37 226.88 487.69 172.40 551.48 137.77
  Q 579.54 122.53 609.19 113.85
  Q 610.05 113.59 609.28 113.13
  C 599.09 107.09 587.44 93.73 591.77 81.10
  C 595.65 69.79 609.85 64.05 621.14 63.13
  Q 634.70 62.03 646.74 68.60
  Q 647.65 69.09 647.04 68.26
  C 646.14 67.01 645.16 65.89 644.43 64.52
  C 637.12 50.73 640.26 34.28 646.84 20.50
  C 653.63 6.29 667.68 -3.57 683.82 2.17
  C 693.31 5.55 701.10 12.79 702.07 23.31
  Q 702.62 29.25 702.07 34.50
  Q 701.06 44.17 699.95 53.97
  Q 698.91 63.23 701.58 68.34
  Q 702.59 70.27 706.25 72.31
  Z" />
  <path fill="#eef3ff" d="
  M 706.25 72.31
  Q 713.21 72.63 736.25 72.80
  Q 778.86 73.10 821.25 77.53
  C 866.99 82.31 912.56 92.12 954.88 109.71
  Q 1044.13 146.80 1095.93 226.08
  C 1113.79 253.40 1127.81 283.32 1138.59 315.06
  Q 1149.84 348.22 1156.25 380.16
  C 1161.63 407.03 1162.60 437.63 1161.09 466.14
  C 1158.78 509.76 1152.09 554.02 1144.33 596.58
  Q 1136.75 638.09 1129.10 680.30
  Q 1123.26 712.53 1119.61 744.98
  C 1117.47 764.03 1116.43 783.62 1118.28 802.58
  C 1119.55 815.63 1123.24 829.86 1126.49 843.26
  Q 1125.64 861.50 1123.27 879.54
  C 1122.87 882.56 1121.92 885.27 1121.02 888.13
  Q 1115.37 906.06 1108.68 923.47
  Q 1070.38 1023.08 995.50 1098.87
  C 963.56 1131.20 923.15 1154.97 880.52 1171.78
  Q 815.27 1197.50 744.49 1203.20
  C 702.98 1206.54 659.59 1203.93 620.06 1192.28
  Q 569.40 1177.36 524.48 1149.29
  C 523.43 1148.64 522.94 1147.71 522.17 1146.80
  Q 490.62 1090.29 487.51 1026.24
  C 483.80 949.84 508.97 872.13 551.32 808.32
  Q 566.54 785.38 585.57 765.83
  Q 587.18 764.19 590.69 761.16
  Q 647.98 790.49 711.75 799.48
  C 788.50 810.29 868.16 799.05 937.56 765.42
  C 1015.09 727.85 1078.04 663.06 1103.07 579.76
  Q 1104.45 575.16 1105.23 570.49
  Q 1108.11 563.11 1110.82 555.68
  Q 1117.13 538.38 1119.97 520.00
  Q 1122.10 506.29 1123.15 496.75
  Q 1125.74 473.40 1121.97 448.24
  Q 1120.12 435.92 1116.29 417.68
  Q 1113.14 402.66 1108.22 389.99
  Q 1107.97 389.34 1106.44 388.35
  Q 1106.86 388.36 1107.12 388.14
  A 0.63 0.63 0.0 0 0 1107.32 387.46
  Q 1099.49 362.90 1088.09 338.17
  C 1075.10 309.99 1059.56 284.84 1037.71 264.18
  Q 1008.58 236.64 969.74 225.58
  C 938.73 216.74 906.19 216.21 874.20 220.52
  Q 845.33 224.40 816.78 232.87
  C 807.20 235.71 797.36 238.13 787.75 239.48
  Q 763.58 242.87 738.89 238.00
  Q 737.05 236.64 735.95 236.58
  Q 719.28 226.91 709.76 210.76
  C 699.21 192.89 693.58 171.94 691.06 151.57
  Q 688.08 127.41 689.54 103.50
  Q 689.77 99.79 692.02 94.17
  Q 697.15 81.36 706.25 72.31
  Z" />
  <path fill="#dbdbe1" d="
  M 735.95 236.58
  Q 737.05 236.64 738.89 238.00
  Q 725.03 238.06 716.76 238.38
  Q 670.90 240.18 630.02 258.32
  Q 578.53 281.16 544.98 327.26
  Q 544.71 327.64 545.24 327.93
  Q 542.68 328.22 544.06 328.18
  C 522.12 332.74 504.32 341.86 485.55 354.12
  Q 465.28 367.36 436.74 384.35
  L 429.46 388.83
  Q 429.01 388.89 428.82 388.58
  Q 428.67 388.33 428.75 388.06
  Q 442.60 345.18 462.75 310.09
  C 472.30 293.47 484.76 277.01 499.16 263.59
  Q 537.24 228.10 591.30 220.25
  Q 612.48 217.18 634.26 218.14
  Q 673.73 219.88 713.73 231.28
  Q 719.76 233.00 725.82 234.68
  Q 725.91 234.71 730.06 236.21
  Q 733.24 237.36 735.95 236.58
  Z" />
  <path fill="#ffffff" d="
  M 1106.44 388.35
  L 1100.79 384.69
  Q 1087.95 376.40 1074.18 368.06
  C 1063.92 361.85 1054.04 355.26 1044.02 348.89
  Q 1017.35 331.94 988.52 326.66
  Q 976.07 324.38 966.57 323.57
  Q 946.91 321.89 925.60 325.64
  Q 916.85 327.19 909.93 330.77
  C 896.60 337.68 884.64 348.67 878.46 362.28
  Q 875.10 369.67 872.97 379.19
  C 869.25 395.87 868.29 413.49 870.15 430.62
  C 872.85 455.39 884.93 482.15 907.46 494.96
  Q 930.84 508.24 959.50 507.71
  Q 967.05 507.57 976.65 505.94
  C 993.84 503.03 1011.53 500.18 1028.21 500.32
  C 1041.17 500.43 1054.31 504.54 1065.57 510.05
  Q 1069.89 512.17 1073.32 515.48
  C 1082.70 524.52 1089.46 534.70 1095.74 546.19
  Q 1097.84 550.62 1100.16 555.57
  Q 1102.39 560.34 1104.35 568.53
  Q 1104.37 569.26 1104.06 569.95
  Q 1072.93 638.47 1014.95 684.25
  Q 1007.27 690.30 998.72 695.99
  Q 975.49 711.43 951.30 724.05
  Q 904.70 748.37 852.19 759.16
  Q 816.44 766.51 776.98 768.18
  Q 766.92 768.61 756.79 768.10
  C 711.09 765.83 666.84 757.92 624.24 741.76
  Q 623.36 741.42 623.12 740.48
  C 577.02 685.77 538.02 623.03 517.43 554.01
  Q 509.70 528.08 506.21 501.13
  C 523.54 500.60 540.68 503.42 557.37 506.24
  Q 570.05 508.38 577.38 508.49
  Q 600.88 508.86 622.38 499.21
  C 649.55 487.04 663.72 458.78 666.57 429.75
  Q 669.12 403.81 663.23 378.35
  Q 661.08 369.04 657.37 361.47
  C 649.53 345.47 631.80 330.82 614.12 327.04
  C 601.36 324.31 588.37 323.41 575.25 323.77
  Q 564.51 324.06 545.24 327.93
  Q 544.71 327.64 544.98 327.26
  Q 578.53 281.16 630.02 258.32
  Q 670.90 240.18 716.76 238.38
  Q 725.03 238.06 738.89 238.00
  Q 763.58 242.87 787.75 239.48
  C 797.36 238.13 807.20 235.71 816.78 232.87
  Q 845.33 224.40 874.20 220.52
  C 906.19 216.21 938.73 216.74 969.74 225.58
  Q 1008.58 236.64 1037.71 264.18
  C 1059.56 284.84 1075.10 309.99 1088.09 338.17
  Q 1099.49 362.90 1107.32 387.46
  A 0.63 0.63 0.0 0 1 1107.12 388.14
  Q 1106.86 388.36 1106.44 388.35
  Z
  M 771.25 682.74
  Q 786.46 684.08 802.42 685.07
  Q 822.70 686.34 845.55 682.61
  C 857.88 680.61 870.87 675.91 877.55 664.78
  Q 884.90 652.52 886.14 636.98
  C 888.46 607.89 881.45 577.63 875.78 548.61
  Q 871.40 526.21 859.93 501.31
  C 846.87 472.95 824.60 444.76 792.69 437.25
  Q 783.30 435.04 773.09 435.20
  C 714.78 436.12 681.91 483.09 666.84 534.28
  Q 659.47 559.29 654.53 580.56
  C 649.60 601.76 647.99 623.66 651.84 645.00
  C 656.31 669.81 677.80 681.18 701.26 683.66
  Q 714.05 685.01 724.16 684.05
  Q 738.16 682.72 744.61 682.39
  Q 759.02 681.66 771.25 682.74
  Z" />
  <path fill="#ccd9ed" d="
  M 1100.79 384.69
  Q 1107.15 410.39 1110.45 435.76
  Q 1113.05 455.67 1111.51 479.25
  Q 1110.10 500.85 1108.16 511.14
  Q 1105.20 526.84 1095.74 546.19
  C 1089.46 534.70 1082.70 524.52 1073.32 515.48
  Q 1069.89 512.17 1065.57 510.05
  C 1054.31 504.54 1041.17 500.43 1028.21 500.32
  C 1011.53 500.18 993.84 503.03 976.65 505.94
  Q 967.05 507.57 959.50 507.71
  Q 930.84 508.24 907.46 494.96
  C 884.93 482.15 872.85 455.39 870.15 430.62
  C 868.29 413.49 869.25 395.87 872.97 379.19
  Q 875.10 369.67 878.46 362.28
  C 884.64 348.67 896.60 337.68 909.93 330.77
  Q 916.85 327.19 925.60 325.64
  Q 946.91 321.89 966.57 323.57
  Q 976.07 324.38 988.52 326.66
  Q 1017.35 331.94 1044.02 348.89
  C 1054.04 355.26 1063.92 361.85 1074.18 368.06
  Q 1087.95 376.40 1100.79 384.69
  Z
  M 984.63 394.97
  Q 984.33 395.13 983.99 395.06
  C 955.72 386.27 922.99 386.16 896.10 399.46
  Q 895.05 399.98 895.01 401.15
  C 893.77 437.67 905.20 480.84 946.23 490.29
  Q 947.15 490.50 947.93 489.73
  C 948.26 490.41 948.71 490.90 949.52 491.00
  Q 968.49 493.42 983.53 483.78
  C 993.96 477.10 1002.96 464.71 1007.09 453.23
  Q 1012.67 437.72 1013.36 422.74
  Q 1013.67 416.01 1011.75 407.58
  C 1011.60 406.90 1011.12 406.60 1010.53 406.32
  Q 1010.89 406.39 1011.05 406.22
  Q 1011.17 406.09 1011.09 405.79
  C 1005.18 383.24 991.79 360.65 970.31 350.26
  Q 969.36 349.80 969.85 350.73
  Q 978.96 367.88 982.95 387.01
  Q 983.79 391.00 984.63 394.97
  Z" />
  <path fill="#ccd9ed" d="
  M 506.21 501.13
  C 498.48 445.36 507.44 386.03 537.92 337.96
  Q 540.93 333.22 544.06 328.18
  Q 542.68 328.22 545.24 327.93
  Q 564.51 324.06 575.25 323.77
  C 588.37 323.41 601.36 324.31 614.12 327.04
  C 631.80 330.82 649.53 345.47 657.37 361.47
  Q 661.08 369.04 663.23 378.35
  Q 669.12 403.81 666.57 429.75
  C 663.72 458.78 649.55 487.04 622.38 499.21
  Q 600.88 508.86 577.38 508.49
  Q 570.05 508.38 557.37 506.24
  C 540.68 503.42 523.54 500.60 506.21 501.13
  Z
  M 520.85 406.56
  Q 520.03 408.12 519.70 409.75
  C 517.13 422.35 519.30 434.79 523.12 447.80
  Q 527.29 462.05 537.03 473.61
  C 548.46 487.19 564.76 493.47 582.66 491.05
  C 583.61 490.92 583.99 490.57 584.81 490.12
  Q 585.32 490.43 585.77 490.32
  C 626.68 480.65 638.17 438.07 637.02 401.30
  A 2.13 2.12 -77.5 0 0 635.86 399.47
  C 609.26 386.06 576.08 386.34 548.16 395.02
  Q 547.33 395.43 547.31 395.24
  Q 548.37 390.20 549.45 385.26
  Q 553.49 366.88 562.23 350.54
  Q 562.59 349.87 561.90 350.18
  C 549.21 355.96 538.94 366.84 531.97 379.01
  Q 524.19 392.60 520.85 406.56
  Z" />
  <path fill="#afbad2" d="
  M 544.06 328.18
  Q 540.93 333.22 537.92 337.96
  C 507.44 386.03 498.48 445.36 506.21 501.13
  Q 498.91 501.23 491.05 503.39
  Q 481.32 506.05 472.86 509.79
  C 465.67 512.98 459.72 518.98 454.82 525.06
  Q 446.68 535.16 440.68 546.79
  Q 435.23 534.45 431.18 521.75
  Q 429.40 516.20 428.52 511.18
  Q 423.87 484.93 424.06 458.12
  Q 424.13 447.97 425.67 437.09
  Q 429.40 410.90 436.74 384.35
  Q 465.28 367.36 485.55 354.12
  C 504.32 341.86 522.12 332.74 544.06 328.18
  Z" />
  <path fill="#adb6c9" d="
  M 547.31 395.24
  L 520.85 406.56
  Q 524.19 392.60 531.97 379.01
  C 538.94 366.84 549.21 355.96 561.90 350.18
  Q 562.59 349.87 562.23 350.54
  Q 553.49 366.88 549.45 385.26
  Q 548.37 390.20 547.31 395.24
  Z" />
  <path fill="#adb6c9" d="
  M 1010.53 406.32
  L 985.70 395.61
  Q 985.41 395.48 985.14 395.31
  L 984.63 394.97
  Q 983.79 391.00 982.95 387.01
  Q 978.96 367.88 969.85 350.73
  Q 969.36 349.80 970.31 350.26
  C 991.79 360.65 1005.18 383.24 1011.09 405.79
  Q 1011.17 406.09 1011.05 406.22
  Q 1010.89 406.39 1010.53 406.32
  Z" />
  <path fill="#a5acbf" d="
  M 436.74 384.35
  Q 429.40 410.90 425.67 437.09
  Q 424.13 447.97 424.06 458.12
  Q 423.87 484.93 428.52 511.18
  Q 429.40 516.20 431.18 521.75
  Q 435.23 534.45 440.68 546.79
  Q 434.81 557.51 432.13 569.44
  Q 431.76 570.10 431.60 569.75
  Q 421.51 547.08 417.06 522.87
  Q 415.46 514.15 414.06 503.24
  Q 410.15 472.73 415.31 444.42
  C 418.57 426.53 422.25 408.75 427.86 390.60
  C 428.11 389.78 428.76 389.25 429.46 388.83
  L 436.74 384.35
  Z" />
  <path fill="#b7c3d5" d="
  M 1100.79 384.69
  L 1106.44 388.35
  Q 1107.97 389.34 1108.22 389.99
  Q 1113.14 402.66 1116.29 417.68
  Q 1120.12 435.92 1121.97 448.24
  Q 1125.74 473.40 1123.15 496.75
  Q 1122.10 506.29 1119.97 520.00
  Q 1117.13 538.38 1110.82 555.68
  Q 1108.11 563.11 1105.23 570.49
  Q 1104.46 569.77 1104.35 568.53
  Q 1102.39 560.34 1100.16 555.57
  Q 1097.84 550.62 1095.74 546.19
  Q 1105.20 526.84 1108.16 511.14
  Q 1110.10 500.85 1111.51 479.25
  Q 1113.05 455.67 1110.45 435.76
  Q 1107.15 410.39 1100.79 384.69
  Z" />
  <path fill="#ffffff" d="
  M 584.81 490.12
  C 551.11 470.01 541.98 434.34 547.09 397.50
  Q 547.32 395.88 548.16 395.02
  C 576.08 386.34 609.26 386.06 635.86 399.47
  A 2.13 2.12 -77.5 0 1 637.02 401.30
  C 638.17 438.07 626.68 480.65 585.77 490.32
  Q 585.32 490.43 584.81 490.12
  Z
  M 616.63 419.48
  A 19.46 19.46 0.0 0 0 597.17 400.02
  A 19.46 19.46 0.0 0 0 577.71 419.48
  A 19.46 19.46 0.0 0 0 597.17 438.94
  A 19.46 19.46 0.0 0 0 616.63 419.48
  Z" />
  <path fill="#ffffff" d="
  M 983.99 395.06
  Q 984.44 395.41 984.55 396.00
  Q 987.55 413.14 985.41 430.15
  C 982.22 455.42 969.86 476.07 947.93 489.73
  Q 947.15 490.50 946.23 490.29
  C 905.20 480.84 893.77 437.67 895.01 401.15
  Q 895.05 399.98 896.10 399.46
  C 922.99 386.16 955.72 386.27 983.99 395.06
  Z
  M 936.22 438.89
  A 19.55 19.13 12.6 0 0 938.95 438.50
  A 19.47 19.45 -2.4 0 0 954.12 422.00
  A 19.48 19.43 -62.3 0 0 949.29 406.46
  A 19.49 19.44 70.7 0 0 936.00 400.05
  A 19.48 19.47 11.5 0 0 916.47 412.99
  A 19.52 19.49 -48.5 0 0 917.37 428.10
  A 19.47 19.47 0.0 0 0 936.22 438.89
  Z" />
  <path fill="#dbdbdb" d="
  M 548.16 395.02
  Q 547.32 395.88 547.09 397.50
  C 541.98 434.34 551.11 470.01 584.81 490.12
  C 583.99 490.57 583.61 490.92 582.66 491.05
  C 564.76 493.47 548.46 487.19 537.03 473.61
  Q 527.29 462.05 523.12 447.80
  C 519.30 434.79 517.13 422.35 519.70 409.75
  Q 520.03 408.12 520.85 406.56
  L 547.31 395.24
  Q 547.33 395.43 548.16 395.02
  Z" />
  <path fill="#dbdbdb" d="
  M 983.99 395.06
  Q 984.33 395.13 984.63 394.97
  L 985.14 395.31
  Q 985.41 395.48 985.70 395.61
  L 1010.53 406.32
  C 1011.12 406.60 1011.60 406.90 1011.75 407.58
  Q 1013.67 416.01 1013.36 422.74
  Q 1012.67 437.72 1007.09 453.23
  C 1002.96 464.71 993.96 477.10 983.53 483.78
  Q 968.49 493.42 949.52 491.00
  C 948.71 490.90 948.26 490.41 947.93 489.73
  C 969.86 476.07 982.22 455.42 985.41 430.15
  Q 987.55 413.14 984.55 396.00
  Q 984.44 395.41 983.99 395.06
  Z" />
  <path fill="#000000" d="
  M 616.63 419.48
  A 19.46 19.46 0.0 0 1 597.17 438.94
  A 19.46 19.46 0.0 0 1 577.71 419.48
  A 19.46 19.46 0.0 0 1 597.17 400.02
  A 19.46 19.46 0.0 0 1 616.63 419.48
  Z
  M 606.36 412.87
  A 8.32 8.32 0.0 0 0 598.04 404.55
  A 8.32 8.32 0.0 0 0 589.72 412.87
  A 8.32 8.32 0.0 0 0 598.04 421.19
  A 8.32 8.32 0.0 0 0 606.36 412.87
  Z" />
  <path fill="#000000" d="
  M 938.95 438.50
  Q 937.04 438.25 936.22 438.89
  A 19.47 19.47 0.0 0 1 917.37 428.10
  A 19.52 19.49 -48.5 0 1 916.47 412.99
  A 19.48 19.47 11.5 0 1 936.00 400.05
  A 19.49 19.44 70.7 0 1 949.29 406.46
  A 19.48 19.43 -62.3 0 1 954.12 422.00
  A 19.47 19.45 -2.4 0 1 938.95 438.50
  Z
  M 942.28 412.87
  A 8.33 8.33 0.0 0 0 933.95 404.54
  A 8.33 8.33 0.0 0 0 925.62 412.87
  A 8.33 8.33 0.0 0 0 933.95 421.20
  A 8.33 8.33 0.0 0 0 942.28 412.87
  Z" />
  <circle fill="#ffffff" cx="598.04" cy="412.87" r="8.32"/>
  <circle fill="#ffffff" cx="933.95" cy="412.87" r="8.33"/>
  <path fill="#ccd9ed" d="
  M 771.25 682.74
  Q 759.02 681.66 744.61 682.39
  Q 738.16 682.72 724.16 684.05
  Q 714.05 685.01 701.26 683.66
  C 677.80 681.18 656.31 669.81 651.84 645.00
  C 647.99 623.66 649.60 601.76 654.53 580.56
  Q 659.47 559.29 666.84 534.28
  C 681.91 483.09 714.78 436.12 773.09 435.20
  Q 783.30 435.04 792.69 437.25
  C 824.60 444.76 846.87 472.95 859.93 501.31
  Q 871.40 526.21 875.78 548.61
  C 881.45 577.63 888.46 607.89 886.14 636.98
  Q 884.90 652.52 877.55 664.78
  C 870.87 675.91 857.88 680.61 845.55 682.61
  Q 822.70 686.34 802.42 685.07
  Q 786.46 684.08 771.25 682.74
  Z
  M 703.99 550.72
  Q 705.41 553.19 708.36 556.71
  C 733.37 586.62 774.07 593.82 807.84 574.87
  Q 821.95 566.95 830.31 552.46
  Q 834.60 547.66 837.50 542.75
  C 846.15 528.11 844.72 510.01 832.61 497.69
  C 821.30 486.20 804.60 480.49 788.57 478.52
  Q 760.06 475.02 735.19 482.76
  Q 722.78 486.61 714.12 492.49
  Q 709.72 495.48 705.72 499.35
  Q 700.95 503.96 697.87 509.66
  Q 694.88 515.21 694.17 521.74
  Q 692.41 537.89 703.99 550.72
  Z
  M 732.95 619.38
  Q 734.51 625.30 737.53 630.48
  C 743.71 641.12 753.35 646.75 765.41 647.67
  Q 771.07 648.09 774.30 647.57
  Q 796.77 643.89 802.72 621.38
  L 805.98 611.65
  A 0.72 0.72 0.0 0 0 805.30 610.71
  L 730.78 610.70
  Q 730.07 610.70 730.29 611.39
  L 732.95 619.38
  Z" />
  <path fill="#474747" d="
  M 938.95 438.50
  A 19.55 19.13 12.6 0 1 936.22 438.89
  Q 937.04 438.25 938.95 438.50
  Z" />
  <path fill="#141414" d="
  M 830.31 552.46
  Q 816.19 565.86 798.00 570.92
  Q 765.53 579.95 733.29 569.12
  Q 716.32 563.41 703.99 550.72
  Q 692.41 537.89 694.17 521.74
  Q 694.88 515.21 697.87 509.66
  Q 700.95 503.96 705.72 499.35
  Q 709.72 495.48 714.12 492.49
  Q 722.78 486.61 735.19 482.76
  Q 760.06 475.02 788.57 478.52
  C 804.60 480.49 821.30 486.20 832.61 497.69
  C 844.72 510.01 846.15 528.11 837.50 542.75
  Q 834.60 547.66 830.31 552.46
  Z
  M 729.29 511.00
  Q 726.80 512.49 726.05 514.53
  C 722.30 524.69 735.02 540.22 741.60 547.22
  C 743.36 549.09 746.18 551.49 748.23 552.51
  Q 749.81 553.29 750.79 552.11
  Q 752.19 550.26 752.27 548.74
  Q 753.07 532.82 744.61 519.39
  Q 742.50 516.04 739.51 513.47
  Q 734.82 509.44 729.29 511.00
  Z
  M 784.51 553.95
  Q 789.08 551.97 791.74 549.51
  Q 801.47 540.53 807.54 529.45
  C 810.36 524.31 813.04 515.33 806.36 511.62
  Q 804.30 510.87 802.04 511.31
  Q 797.35 512.23 793.69 516.69
  Q 780.18 533.09 784.51 553.95
  Z" />
  <path fill="#dbdbe1" d="
  M 506.21 501.13
  Q 509.70 528.08 517.43 554.01
  C 538.02 623.03 577.02 685.77 623.12 740.48
  Q 622.78 741.00 621.60 741.15
  Q 621.54 740.92 621.48 740.78
  Q 621.41 740.65 621.28 740.60
  C 590.50 728.38 561.35 712.19 534.41 693.85
  Q 515.27 680.81 497.25 663.12
  Q 456.15 622.77 432.66 571.29
  C 432.40 570.72 432.40 570.01 432.13 569.44
  Q 434.81 557.51 440.68 546.79
  Q 446.68 535.16 454.82 525.06
  C 459.72 518.98 465.67 512.98 472.86 509.79
  Q 481.32 506.05 491.05 503.39
  Q 498.91 501.23 506.21 501.13
  Z" />
  <path fill="#252525" d="
  M 750.79 552.11
  Q 739.45 532.57 731.01 511.70
  Q 730.75 511.07 729.29 511.00
  Q 734.82 509.44 739.51 513.47
  Q 742.50 516.04 744.61 519.39
  Q 753.07 532.82 752.27 548.74
  Q 752.19 550.26 750.79 552.11
  Z" />
  <path fill="#474747" d="
  M 729.29 511.00
  Q 730.75 511.07 731.01 511.70
  Q 739.45 532.57 750.79 552.11
  Q 749.81 553.29 748.23 552.51
  C 746.18 551.49 743.36 549.09 741.60 547.22
  C 735.02 540.22 722.30 524.69 726.05 514.53
  Q 726.80 512.49 729.29 511.00
  Z" />
  <path fill="#252525" d="
  M 806.36 511.62
  L 784.51 553.95
  Q 780.18 533.09 793.69 516.69
  Q 797.35 512.23 802.04 511.31
  Q 804.30 510.87 806.36 511.62
  Z" />
  <path fill="#474747" d="
  M 806.36 511.62
  C 813.04 515.33 810.36 524.31 807.54 529.45
  Q 801.47 540.53 791.74 549.51
  Q 789.08 551.97 784.51 553.95
  L 806.36 511.62
  Z" />
  <path fill="#afbacc" d="
  M 703.99 550.72
  Q 716.32 563.41 733.29 569.12
  Q 765.53 579.95 798.00 570.92
  Q 816.19 565.86 830.31 552.46
  Q 821.95 566.95 807.84 574.87
  C 774.07 593.82 733.37 586.62 708.36 556.71
  Q 705.41 553.19 703.99 550.72
  Z" />
  <path fill="#e2e7f2" d="
  M 1104.35 568.53
  Q 1104.46 569.77 1105.23 570.49
  Q 1104.45 575.16 1103.07 579.76
  C 1078.04 663.06 1015.09 727.85 937.56 765.42
  C 868.16 799.05 788.50 810.29 711.75 799.48
  Q 647.98 790.49 590.69 761.16
  Q 590.83 760.77 590.99 760.84
  C 599.84 752.32 610.19 744.93 621.60 741.15
  Q 622.78 741.00 623.12 740.48
  Q 623.36 741.42 624.24 741.76
  C 666.84 757.92 711.09 765.83 756.79 768.10
  Q 766.92 768.61 776.98 768.18
  Q 816.44 766.51 852.19 759.16
  Q 904.70 748.37 951.30 724.05
  Q 975.49 711.43 998.72 695.99
  Q 1007.27 690.30 1014.95 684.25
  Q 1072.93 638.47 1104.06 569.95
  Q 1104.37 569.26 1104.35 568.53
  Z" />
  <path fill="#c2c6d6" d="
  M 432.13 569.44
  C 432.40 570.01 432.40 570.72 432.66 571.29
  Q 456.15 622.77 497.25 663.12
  Q 515.27 680.81 534.41 693.85
  C 561.35 712.19 590.50 728.38 621.28 740.60
  Q 621.41 740.65 621.48 740.78
  Q 621.54 740.92 621.60 741.15
  C 610.19 744.93 599.84 752.32 590.99 760.84
  Q 590.43 760.93 590.26 760.84
  C 514.70 721.92 454.17 655.64 431.79 572.49
  Q 431.43 571.14 431.60 569.75
  Q 431.76 570.10 432.13 569.44
  Z" />
  <path fill="#000000" d="
  M 802.72 621.38
  Q 800.72 624.60 798.66 627.41
  Q 792.96 635.17 784.54 638.30
  Q 772.90 642.63 759.36 640.15
  Q 744.78 637.48 736.48 624.83
  Q 734.78 622.24 732.95 619.38
  L 730.29 611.39
  Q 730.07 610.70 730.78 610.70
  L 805.30 610.71
  A 0.72 0.72 0.0 0 1 805.98 611.65
  L 802.72 621.38
  Z" />
  <path fill="#afbacc" d="
  M 732.95 619.38
  Q 734.78 622.24 736.48 624.83
  Q 744.78 637.48 759.36 640.15
  Q 772.90 642.63 784.54 638.30
  Q 792.96 635.17 798.66 627.41
  Q 800.72 624.60 802.72 621.38
  Q 796.77 643.89 774.30 647.57
  Q 771.07 648.09 765.41 647.67
  C 753.35 646.75 743.71 641.12 737.53 630.48
  Q 734.51 625.30 732.95 619.38
  Z" />
  <path fill="#020202" fill-opacity="0.141" d="
  M 1139.73 849.76
  L 1132.91 846.41
  L 1135.03 840.07
  A 0.26 0.26 0.0 0 1 1135.51 840.05
  L 1139.73 849.76
  Z" />
  <path fill="#ccd9ed" d="
  M 1126.49 843.26
  L 1132.91 846.41
  L 1139.73 849.76
  Q 1207.47 882.64 1270.38 923.87
  Q 1309.94 949.79 1344.11 978.88
  C 1371.37 1002.09 1397.54 1029.07 1415.41 1059.13
  Q 1426.74 1078.17 1431.40 1095.27
  C 1440.56 1128.88 1450.20 1162.06 1460.86 1198.48
  Q 1467.67 1221.79 1471.74 1243.65
  Q 1474.83 1260.26 1473.18 1274.12
  C 1470.63 1295.36 1455.55 1308.71 1437.67 1318.45
  Q 1424.63 1325.56 1409.99 1331.40
  C 1378.18 1344.10 1345.79 1354.66 1312.85 1365.49
  Q 1288.32 1373.55 1254.99 1380.94
  Q 1203.84 1392.27 1143.00 1400.06
  C 1075.46 1408.70 1008.93 1414.02 941.50 1417.24
  Q 855.99 1421.33 770.37 1422.00
  L 706.50 1422.00
  Q 706.50 1421.95 706.50 1421.90
  Q 706.50 1421.79 706.39 1421.79
  Q 577.49 1421.46 452.01 1412.30
  Q 390.68 1407.82 329.49 1399.92
  Q 268.21 1392.02 214.78 1380.03
  Q 188.01 1374.02 171.01 1368.64
  Q 136.85 1357.83 101.69 1345.60
  Q 77.64 1337.23 55.55 1327.94
  C 41.42 1321.99 26.51 1314.11 14.95 1303.28
  Q 1.46 1290.63 0.00 1270.09
  L 0.00 1258.74
  Q 2.51 1235.90 9.92 1209.24
  C 20.35 1171.74 30.44 1138.48 41.91 1096.63
  C 49.04 1070.60 64.35 1046.93 82.24 1025.88
  C 114.11 988.38 156.40 955.11 198.92 926.93
  Q 269.71 880.01 346.60 843.83
  Q 347.06 843.76 347.56 844.00
  A 0.69 0.68 17.2 0 1 347.94 844.71
  Q 347.48 848.27 346.66 851.68
  Q 345.90 854.82 346.20 858.80
  Q 348.08 883.48 351.97 907.35
  C 352.37 909.83 352.52 914.29 353.74 917.67
  Q 364.14 976.99 388.18 1031.95
  Q 392.13 1040.98 397.19 1049.07
  C 435.18 1109.79 489.15 1159.35 553.06 1191.87
  Q 615.24 1223.46 685.01 1230.47
  Q 741.08 1236.10 796.51 1226.11
  C 876.91 1211.61 950.97 1173.58 1008.09 1115.06
  Q 1066.92 1054.79 1098.63 974.41
  Q 1114.54 934.08 1121.72 889.97
  Q 1122.13 887.42 1121.02 888.13
  C 1121.92 885.27 1122.87 882.56 1123.27 879.54
  Q 1125.64 861.50 1126.49 843.26
  Z" />
  <path fill="#cfd4de" d="
  M 553.06 1191.87
  Q 551.68 1189.82 545.83 1182.42
  Q 534.49 1168.09 523.59 1149.30
  Q 523.35 1148.87 523.00 1148.53
  L 522.26 1147.78
  Q 522.46 1146.85 522.17 1146.80
  C 522.94 1147.71 523.43 1148.64 524.48 1149.29
  Q 569.40 1177.36 620.06 1192.28
  C 659.59 1203.93 702.98 1206.54 744.49 1203.20
  Q 815.27 1197.50 880.52 1171.78
  C 923.15 1154.97 963.56 1131.20 995.50 1098.87
  Q 1070.38 1023.08 1108.68 923.47
  Q 1115.37 906.06 1121.02 888.13
  Q 1122.13 887.42 1121.72 889.97
  Q 1114.54 934.08 1098.63 974.41
  Q 1066.92 1054.79 1008.09 1115.06
  C 950.97 1173.58 876.91 1211.61 796.51 1226.11
  Q 741.08 1236.10 685.01 1230.47
  Q 615.24 1223.46 553.06 1191.87
  Z" />
  <path fill="#b2b6c5" d="
  M 522.26 1147.78
  L 523.00 1148.53
  Q 523.35 1148.87 523.59 1149.30
  Q 534.49 1168.09 545.83 1182.42
  Q 551.68 1189.82 553.06 1191.87
  C 489.15 1159.35 435.18 1109.79 397.19 1049.07
  Q 392.13 1040.98 388.18 1031.95
  Q 364.14 976.99 353.74 917.67
  Q 353.47 917.45 353.74 917.03
  A 0.30 0.30 0.0 0 1 354.27 917.10
  Q 361.27 939.50 370.12 963.65
  C 397.97 1039.67 453.12 1104.10 521.55 1147.50
  Q 521.68 1147.58 521.79 1147.69
  Q 521.99 1147.88 522.26 1147.78
  Z" />
</svg>
