<svg width="1230" height="794" viewBox="0 0 1230 794" fill="none" xmlns="http://www.w3.org/2000/svg">
<path d="M627.74 0.951267C608.86 0.919565 590.102 3.97606 572.209 9.99972C563.643 12.8902 555.287 16.3707 547.202 20.4161C539.088 24.4868 531.209 29.0122 523.605 33.9707C516.23 38.7565 508.872 44.0227 501.105 50.0671C494.175 55.4636 487.073 61.3662 479.394 68.1136C465.108 80.6646 450.866 94.379 437.095 107.642C422.672 121.53 407.757 135.894 392.468 149.26C384.226 156.464 376.56 162.791 369.033 168.601C360.566 175.132 352.504 180.842 344.375 186.056C316.509 203.933 292.1 224.421 271.826 246.954C253.273 267.349 237.856 290.391 226.084 315.323C215.58 337.576 208.785 361.396 205.968 385.841C204.699 397.264 204.426 408.777 205.153 420.248C205.865 431.367 207.589 442.398 210.302 453.205C223.696 503.535 244.105 550.292 270.959 592.176C296.94 632.919 329.464 669.097 367.22 699.254C404.781 729.155 447.157 752.445 492.534 768.125C539.219 784.297 588.961 792.491 640.377 792.491C653.308 792.49 666.231 791.819 679.093 790.48C716.568 786.568 753.219 776.924 787.765 761.885C810.331 752.052 831.875 740.025 852.086 725.976C872.246 711.95 891.013 696.023 908.13 678.412C942.821 642.688 970.368 600.664 989.288 554.601C994.085 542.939 998.369 530.897 1002.02 518.814C1005.72 506.593 1008.86 494.033 1011.35 481.484C1013.88 468.77 1015.82 455.757 1017.09 442.807C1018.39 429.667 1019.05 416.267 1019.05 402.979C1019.05 389.72 1018.45 376.514 1017.26 363.729C1016.1 351.192 1014.35 338.717 1012.05 326.649C1009.79 314.819 1006.95 303.058 1003.61 291.697C1000.33 280.561 996.471 269.503 992.151 258.828C987.917 248.372 983.114 238.001 977.888 228.007C972.767 218.217 967.093 208.519 961.026 199.184C955.086 190.045 948.607 181.007 941.771 172.322C935.079 163.822 927.865 155.429 920.329 147.381C912.955 139.505 905.075 131.747 896.908 124.321C888.917 117.057 880.442 109.918 871.715 103.108C854.269 89.5428 835.937 77.1591 816.84 66.0398C780.152 44.6049 739.152 26.5251 694.973 12.3018C683.511 8.57434 671.791 5.6922 659.908 3.67855C649.276 1.89349 638.516 0.981987 627.735 0.95317M627.735 0.0019024C648.407 0.0019024 670.761 3.50637 695.265 11.3962C864.303 65.8258 1020 187.335 1020 402.987C1020 618.64 850.037 793.446 640.377 793.446C430.717 793.446 263.706 657.587 209.381 453.441C187.706 367.609 228.471 259.283 343.86 185.259C442.527 121.966 505.803 0 627.74 0L627.735 0.0019024Z" fill="url(#paint0_linear_616_18191)"/>
<path d="M1042.69 247V459.406H891.827L1040.23 247H1042.69ZM1042.69 561.675V703.275H1153.37V561.675H1229.62V459.406H1153.37V91.4111H1049.24L800 448.043V561.675H1042.69Z" fill="url(#paint1_linear_616_18191)"/>
<path d="M242.685 250.376V462.782H91.827L240.227 250.376H242.685ZM242.685 565.051V706.651H353.369V565.051H429.618V462.782H353.369V94.7871H249.244L0 451.419V565.051H242.685Z" fill="url(#paint2_linear_616_18191)"/>
<g filter="url(#filter0_b_616_18191)">
<path d="M670.791 29.5679C839.592 80.8664 995.074 195.384 995.074 398.622C995.074 601.861 825.345 766.604 615.974 766.604C406.603 766.604 239.823 638.565 185.574 446.169C163.927 365.278 204.635 263.188 319.869 193.425C435.103 123.662 501.99 -21.7307 670.791 29.5679Z" fill="url(#paint3_linear_616_18191)" fill-opacity="0.4"/>
</g>
<g filter="url(#filter1_b_616_18191)">
<path d="M662.445 62.4164C813.441 109.224 952.522 213.717 952.522 399.165C952.522 584.613 800.697 734.935 613.411 734.935C426.126 734.935 276.939 618.104 228.412 442.549C209.049 368.74 245.462 275.586 348.541 211.93C451.619 148.274 511.451 15.6084 662.445 62.4164Z" fill="url(#paint4_linear_616_18191)" fill-opacity="0.49"/>
</g>
<mask id="mask0_616_18191" style="mask-type:alpha" maskUnits="userSpaceOnUse" x="222" y="51" width="731" height="683">
<path d="M661.957 61.349C812.952 108.157 952.033 212.65 952.033 398.098C952.033 583.545 800.208 733.867 612.923 733.867C425.637 733.867 276.45 617.036 227.923 441.482C208.56 367.672 244.973 274.518 348.052 210.863C451.13 147.207 510.962 14.541 661.957 61.349Z" fill="#D9D9D9"/>
</mask>
<g mask="url(#mask0_616_18191)">
<path d="M835.016 630.209L834.998 668.329C834.998 670.935 833.561 673.306 831.29 674.575C808.492 687.29 790.294 708.083 780.688 732.355C779.586 735.129 776.819 736.354 773.872 736.819C716.529 745.875 644.417 748.06 603.905 733.105C600.395 731.811 590.733 723.305 590.733 723.305C590.733 723.305 598.674 676.494 595.165 653.249C594.583 649.38 597.238 645.765 601.101 645.165C673.454 633.88 752.944 639.197 826.387 623.251C830.832 622.285 835.022 625.671 835.016 630.209Z" fill="#E8E8E8"/>
<path d="M835.016 634.152C835.499 643.895 834.88 658.802 834.781 668.867C834.756 671.288 833.369 673.399 831.302 674.661C809.161 688.206 800.006 695.839 779.066 734.658C778.286 736.101 770.783 737.24 763.461 738.366C753.049 739.97 741.617 741.3 738.547 741.3C788.196 711.841 806.326 670.074 788.753 654.072C824.375 639.903 805.106 647.511 835.016 634.152Z" fill="#D5D5D5"/>
<path d="M781.993 317.386C792.25 300.264 821.992 289.022 840.952 295.281C859.905 301.539 870.453 314.403 877.98 332.893C885.506 351.384 890.508 384.124 890.916 401.593C891.752 437.572 884.33 509.67 876.723 544.844C873.052 561.83 860.481 603.355 857.479 611.65C854.811 619.023 854.978 619.574 853.666 620.88C833.722 640.825 770.4 663.364 731.329 668.001C669.207 675.367 590.608 656.889 547.186 644.979C534.033 641.37 576.186 654.908 577.498 655.831C579.603 657.304 582.481 655.515 582.165 652.964C581.961 651.349 581.856 649.312 581.924 646.755C582.215 636.096 591.351 627.479 601.298 623.653C611.252 619.827 624.653 624.916 632.675 617.896C708.024 551.932 722.279 570.305 743.176 524.651C764.073 478.997 768.852 427.791 771.551 377.649C772.739 355.618 774.677 329.606 781.993 317.386Z" fill="#F2F2F2"/>
<path d="M786.679 646.545C715.18 677.398 625.148 658.449 622.586 658.319C666.373 671.814 716.232 669.889 730.568 668.1C747.887 665.933 766.506 661.458 783.541 655.88C793.73 652.544 808.703 646.935 817.74 642.788C826.901 638.584 833.648 635.409 842.06 629.93C845.582 627.634 851.184 623.833 854.31 620.143C850.404 619.011 838.123 614.064 836.749 613.47C836.743 613.464 822.921 630.902 786.679 646.545Z" fill="#D5D5D5"/>
<mask id="mask1_616_18191" style="mask-type:luminance" maskUnits="userSpaceOnUse" x="450" y="135" width="522" height="471">
<path d="M551.712 547.735L894.464 605.874C894.712 605.8 971.8 330.281 971.726 330.033L726.446 135.96C726.372 135.712 697.787 147.957 697.545 148.031L450.656 225.466C450.408 225.54 450.272 225.806 450.346 226.054L551.118 547.438C551.198 547.679 551.464 547.815 551.712 547.735Z" fill="white"/>
</mask>
<g mask="url(#mask1_616_18191)">
<path d="M481.06 310.738C482.639 338.99 495.866 372.152 538.273 389.9C543.98 392.289 551.173 397.173 552.696 401.773C558.576 419.527 557.679 434.743 566.877 451.655C577.666 471.495 577.4 482.352 586.22 493.309C588.25 495.835 606.461 483.925 658.759 459.739C676.425 451.568 687.449 475.506 695.96 458C704.472 440.5 721.71 433.566 723.184 414.16C724.335 398.981 722.366 377.055 729.324 363.739C735.111 352.659 745.275 342.079 757.995 340.519C758.447 340.464 767.057 335.97 766.661 335.753C744.539 323.607 815.215 332.627 815.215 332.627C815.215 332.627 768.469 306.25 724.106 274.314C689.374 249.311 680.702 237.079 663.6 225.769C650.409 217.041 624.313 206.27 597.777 210.411C597.288 210.485 597.232 211.179 597.702 211.327C601.62 212.596 605.731 211.785 606.64 207.669C607.668 203.001 602.06 196.718 597.275 196.774C593.091 196.817 588.417 199.256 586.79 204.115C586.79 204.115 588.442 201.088 588.56 200.872C590.114 198.129 589.067 194.57 588.349 193.121C586.92 190.237 583.719 185.575 579.034 185.532C574.837 185.495 571.779 189.351 571.816 192.205C571.878 197.51 578.73 206.468 573.314 208.164C524.154 223.169 477.773 251.793 481.06 310.738Z" fill="#D08A5A"/>
</g>
<mask id="mask2_616_18191" style="mask-type:luminance" maskUnits="userSpaceOnUse" x="470" y="217" width="221" height="192">
<path d="M518.291 408.006L690.63 342.023C690.871 341.931 690.995 341.677 690.915 341.454L643.624 217.926C643.537 217.703 643.271 217.598 643.03 217.691L470.697 283.667C470.456 283.76 470.332 284.014 470.413 284.237L517.697 407.765C517.79 407.994 518.05 408.099 518.291 408.006Z" fill="white"/>
</mask>
<g mask="url(#mask2_616_18191)">
<path d="M538.465 265.146C541.913 264.688 552.974 263.592 560.365 255.885C565.837 250.171 573.141 244.922 580.668 241.604C590.231 237.388 604.61 236.973 613.047 238.88C622.611 241.047 638.946 248.382 650.168 256.553C660.876 264.353 669.14 278.925 670.335 292.519C671.789 309.085 665.29 323.787 655.751 336.52C643.65 352.677 630.657 361.894 616.192 369.391C584.679 385.727 563.398 385.251 545.924 383.096C534.089 381.642 518.218 375.891 506.216 364.482C502.737 361.176 499.81 355.809 497.123 351.891C490.296 341.937 488.445 321.62 489.9 308.422C491.769 291.442 496.678 270.68 538.465 265.146Z" fill="#F2D2B6"/>
</g>
<path d="M496.423 312.997C498.354 309.37 500.967 306.411 503.758 303.402C506.55 300.387 510.573 298.01 513.179 296.797C518.112 294.488 525.392 295.25 529.075 296.246C532.207 297.094 536.02 299.96 538.774 303.489C541.708 307.253 542.42 313.907 542.829 318.668C543.231 323.434 541.089 331.964 538.093 335.679C535.915 338.378 531.303 342.216 523.85 343.875C514.875 345.88 512.046 346.388 509.013 349.607C507.156 351.575 505.219 354.38 504.229 355.946C502.892 358.057 502.248 358.991 502 359.48C498.162 354.918 495.111 348.951 493.167 344.234C492.462 342.531 489.045 335.338 489.113 326.591C489.113 326.789 493.31 318.847 496.423 312.997Z" fill="#D9A171"/>
<path opacity="0.1686" d="M489.114 326.659C489.114 326.659 489.2 329.866 489.516 332.181C489.702 333.524 490.946 338.879 492.574 342.847C494.951 348.641 497.625 354.311 501.982 359.493C503.963 356.373 504.83 354.955 504.83 354.955C504.83 354.955 500.435 350.473 497.018 341.85C495.341 337.616 493.013 332.658 491.379 322.468C490.178 324.728 489.114 326.659 489.114 326.659Z" fill="#523618"/>
<path d="M534.014 310.026C529.557 302.895 512.678 303.359 512.678 303.359C512.678 303.359 503.294 317.182 509.044 326.963C514.794 336.744 524.265 339.703 530.969 334.738C538.143 329.433 540.031 319.646 534.014 310.026Z" fill="white"/>
<path opacity="0.1412" d="M529.346 318.711C530.51 321.311 532.924 326.189 532.503 333.506C534.93 331.104 536.533 328.362 537.251 325.025C537.963 321.72 537.585 317.913 536.279 314.57C534.125 315.944 532.677 316.922 529.346 318.711Z" fill="black"/>
<path d="M522.395 334.657C524.945 334.657 527.013 332.59 527.013 330.039C527.013 327.489 524.945 325.421 522.395 325.421C519.845 325.421 517.777 327.489 517.777 330.039C517.777 332.59 519.845 334.657 522.395 334.657Z" fill="black" stroke="black" stroke-miterlimit="10"/>
<path d="M521.3 333.512C522.452 333.512 523.386 332.578 523.386 331.426C523.386 330.274 522.452 329.34 521.3 329.34C520.148 329.34 519.214 330.274 519.214 331.426C519.214 332.578 520.148 333.512 521.3 333.512Z" fill="white"/>
<path d="M514.672 301.167C500.379 306.608 508.333 325.848 508.308 325.767C508.308 325.767 519.642 325.551 536.466 314.451C536.466 314.451 536.231 313.671 535.519 312.279C533.037 307.407 526.086 296.821 514.672 301.167Z" fill="#D39266"/>
<path opacity="0.1294" d="M536.409 314.266C536.397 314.223 536.378 314.186 536.36 314.13C536.31 313.994 536.236 313.815 536.143 313.598C535.914 313.072 535.543 312.329 535.202 311.667C534.911 311.122 534.565 310.521 534.181 309.89C533.475 308.763 532.646 307.606 531.792 306.541C531.129 305.742 530.405 304.962 529.607 304.232C529.235 303.898 528.814 303.551 528.344 303.18C527.929 302.858 527.465 302.53 526.988 302.226C525.868 301.527 524.648 300.957 523.33 300.586C522.686 300.419 522.018 300.289 521.399 300.208C519.424 299.979 517.264 300.208 514.906 301.081C514.726 301.155 514.54 301.223 514.361 301.304C514.305 301.329 514.249 301.353 514.188 301.378C513.569 301.657 512.937 301.972 512.275 302.344C512.262 302.35 512.256 302.356 512.244 302.369C515.011 302.406 520.148 304.727 526.122 312.973C527.533 314.923 528.585 316.854 529.359 318.711C531.6 317.504 533.977 316.099 536.477 314.446C536.465 314.452 536.446 314.384 536.409 314.266Z" fill="black"/>
<path d="M597.349 262.113C594.601 264.644 590.937 269.392 590.801 275.576C590.664 281.761 592.602 289.35 595.499 294.816C597.987 299.502 601.973 303.724 606.839 305.841C613.196 308.608 621.502 307.407 626.3 305.494C630.781 303.705 638.048 298.97 645.395 297.329C647.902 296.766 653.176 296.822 655.392 297.466C659.774 298.747 666.1 304.535 669.003 309.846C672.346 296.11 669.907 287.462 667.376 279.39C665.011 271.85 661.495 266.26 661.495 266.26C661.495 266.26 660.214 265.61 658.877 265.016C655.553 263.536 648.032 259.29 644.485 258.485C638.196 257.061 633.857 255.353 627.445 254.647C622.041 254.053 617.98 254.635 612.632 255.588C607.47 256.51 599.98 259.692 597.349 262.113Z" fill="#D9A171"/>
<path d="M627.173 273.286C622.846 265.43 604.902 264.96 604.902 264.96C604.902 264.96 594.15 279.167 599.702 289.926C605.254 300.684 615.133 304.38 622.537 299.471C630.453 294.215 633.016 283.884 627.173 273.286Z" fill="white"/>
<path opacity="0.1412" d="M621.726 282.287C622.815 285.128 625.099 290.471 624.239 298.246C626.95 295.825 628.807 292.99 629.761 289.474C630.708 285.989 630.516 281.909 629.321 278.27C626.956 279.607 625.359 280.566 621.726 282.287Z" fill="black"/>
<path d="M612.292 299.013C615.003 299.013 617.2 296.807 617.2 294.086C617.2 291.364 615.003 289.158 612.292 289.158C609.581 289.158 607.383 291.364 607.383 294.086C607.383 296.807 609.581 299.013 612.292 299.013Z" fill="black" stroke="black" stroke-miterlimit="10"/>
<path d="M611.178 298.246C612.401 298.246 613.393 297.248 613.393 296.017C613.393 294.786 612.401 293.789 611.178 293.789C609.954 293.789 608.962 294.786 608.962 296.017C608.962 297.248 609.954 298.246 611.178 298.246Z" fill="white"/>
<path d="M607.142 262.737C591.661 267.727 599.014 288.699 598.99 288.607C598.99 288.607 611.035 289.021 629.531 278.145C629.531 278.145 629.326 277.303 628.645 275.774C626.287 270.444 619.503 258.751 607.142 262.737Z" fill="#D39266"/>
<path opacity="0.1294" d="M629.469 277.947C629.456 277.904 629.444 277.861 629.425 277.805C629.425 277.799 629.425 277.799 629.425 277.793C629.376 277.644 629.314 277.452 629.227 277.217C629.011 276.641 628.664 275.824 628.336 275.106C628.057 274.506 627.729 273.849 627.352 273.156C626.665 271.912 625.854 270.637 625.006 269.454C624.35 268.569 623.619 267.69 622.815 266.867C622.437 266.495 622.016 266.093 621.533 265.672C621.112 265.307 620.636 264.929 620.153 264.576C619.002 263.765 617.739 263.084 616.358 262.62C615.684 262.41 614.984 262.23 614.328 262.106C612.248 261.753 609.933 261.871 607.383 262.663C607.185 262.732 606.987 262.793 606.789 262.868C606.727 262.892 606.665 262.911 606.603 262.936C605.929 263.196 605.235 263.499 604.517 263.858C604.505 263.864 604.492 263.871 604.48 263.877C607.414 264.075 612.731 266.842 618.612 275.979C620.004 278.139 621.007 280.263 621.719 282.287C624.164 281.129 626.77 279.767 629.524 278.145C629.524 278.145 629.506 278.071 629.469 277.947Z" fill="black"/>
<path d="M554.782 301.099C544.773 313.269 545.652 330.435 547.459 337.734C549.267 345.026 552.027 350.226 554.967 354.206C556.224 355.915 561.541 364.959 574.069 361.028C580.643 358.967 585.453 354.274 594.044 351.581C604.827 348.202 611.456 339.219 609.011 332.156C595.406 292.903 568.641 293.417 564.624 294.68C559.567 296.265 555.333 300.431 554.782 301.099Z" fill="#D9A171"/>
<path opacity="0.1608" d="M581.362 349.857C584.186 348.81 585.548 345.459 584.404 342.372C583.26 339.285 580.043 337.63 577.219 338.677C574.395 339.724 573.033 343.075 574.177 346.162C575.321 349.249 578.538 350.904 581.362 349.857Z" fill="#252525"/>
<path d="M580.936 348.594C583.776 347.542 585.151 344.186 584.007 341.098C582.863 338.011 579.633 336.362 576.793 337.414C573.953 338.467 572.578 341.823 573.722 344.91C574.866 347.997 578.096 349.647 580.936 348.594Z" fill="#252525"/>
<path d="M552.201 325.273C549.985 318.482 556.311 311.443 566.549 308.113C576.781 304.776 586.431 306.794 588.647 313.585C590.863 320.376 584.19 328.64 573.958 331.977C563.726 335.313 554.417 332.063 552.201 325.273Z" fill="#252525"/>
<mask id="mask3_616_18191" style="mask-type:luminance" maskUnits="userSpaceOnUse" x="573" y="312" width="10" height="13">
<path d="M577.164 324.771L582.623 322.988C582.871 322.908 583.001 322.642 582.92 322.4L579.832 312.917C579.751 312.669 579.485 312.539 579.244 312.619L573.784 314.402C573.536 314.483 573.406 314.749 573.487 314.99L576.576 324.474C576.656 324.722 576.922 324.852 577.164 324.771Z" fill="white"/>
</mask>
<g mask="url(#mask3_616_18191)">
<g opacity="0.1216">
<mask id="mask4_616_18191" style="mask-type:luminance" maskUnits="userSpaceOnUse" x="573" y="312" width="10" height="13">
<path d="M577.164 324.771L582.623 322.988C582.871 322.908 583.001 322.642 582.92 322.4L579.832 312.917C579.751 312.669 579.485 312.539 579.244 312.619L573.784 314.402C573.536 314.483 573.406 314.749 573.487 314.99L576.576 324.474C576.656 324.722 576.922 324.852 577.164 324.771Z" fill="white"/>
</mask>
<g mask="url(#mask4_616_18191)">
<path d="M575.487 318.711C575.629 314.563 577.14 312.848 578.749 312.923C580.352 312.997 581.058 315.516 580.191 318.785C579.739 320.487 578.947 323.162 577.728 324.499C576.787 325.532 575.369 322.196 575.487 318.711Z" fill="white"/>
</g>
</g>
</g>
<mask id="mask5_616_18191" style="mask-type:luminance" maskUnits="userSpaceOnUse" x="559" y="317" width="11" height="14">
<path d="M559.289 320.512L563.108 329.729C563.207 329.971 563.479 330.082 563.721 329.983L569.025 327.786C569.267 327.687 569.378 327.414 569.279 327.173L565.46 317.955C565.361 317.714 565.089 317.603 564.847 317.702L559.543 319.899C559.301 319.998 559.19 320.277 559.289 320.512Z" fill="white"/>
</mask>
<g mask="url(#mask5_616_18191)">
<g opacity="0.1216">
<mask id="mask6_616_18191" style="mask-type:luminance" maskUnits="userSpaceOnUse" x="559" y="317" width="11" height="14">
<path d="M562.922 330.28L569.167 328.244C569.415 328.163 569.545 327.897 569.464 327.655L566.221 317.708C566.141 317.46 565.874 317.33 565.633 317.41L559.387 319.447C559.14 319.528 559.01 319.794 559.09 320.035L562.334 329.983C562.414 330.224 562.68 330.354 562.922 330.28Z" fill="white"/>
</mask>
<g mask="url(#mask6_616_18191)">
<path d="M566.357 322.084C563.553 319.026 561.287 318.704 560.117 319.806C558.948 320.908 560.049 323.279 562.835 325.198C564.283 326.201 566.629 327.711 568.418 327.934C569.805 328.114 568.715 324.653 566.357 322.084Z" fill="white"/>
</g>
</g>
</g>
<mask id="mask7_616_18191" style="mask-type:luminance" maskUnits="userSpaceOnUse" x="573" y="312" width="10" height="13">
<path d="M577.164 324.771L582.623 322.988C582.871 322.908 583.001 322.642 582.92 322.4L579.832 312.917C579.751 312.669 579.485 312.539 579.244 312.619L573.784 314.402C573.536 314.483 573.406 314.749 573.487 314.99L576.576 324.474C576.656 324.722 576.922 324.852 577.164 324.771Z" fill="white"/>
</mask>
<g mask="url(#mask7_616_18191)">
<g opacity="0.1216">
<mask id="mask8_616_18191" style="mask-type:luminance" maskUnits="userSpaceOnUse" x="573" y="312" width="10" height="13">
<path d="M577.164 324.771L582.623 322.988C582.871 322.908 583.001 322.642 582.92 322.4L579.832 312.917C579.751 312.669 579.485 312.539 579.244 312.619L573.784 314.402C573.536 314.483 573.406 314.749 573.487 314.99L576.576 324.474C576.656 324.722 576.922 324.852 577.164 324.771Z" fill="white"/>
</mask>
<g mask="url(#mask8_616_18191)">
<path d="M575.487 318.711C575.629 314.563 577.14 312.848 578.749 312.923C580.352 312.997 581.058 315.516 580.191 318.785C579.739 320.487 578.947 323.162 577.728 324.499C576.787 325.532 575.369 322.196 575.487 318.711Z" fill="white"/>
</g>
</g>
</g>
<mask id="mask9_616_18191" style="mask-type:luminance" maskUnits="userSpaceOnUse" x="559" y="317" width="11" height="14">
<path d="M559.289 320.512L563.108 329.729C563.207 329.971 563.479 330.082 563.721 329.983L569.025 327.786C569.267 327.687 569.378 327.414 569.279 327.173L565.46 317.955C565.361 317.714 565.089 317.603 564.847 317.702L559.543 319.899C559.301 319.998 559.19 320.277 559.289 320.512Z" fill="white"/>
</mask>
<g mask="url(#mask9_616_18191)">
<g opacity="0.1216">
<mask id="mask10_616_18191" style="mask-type:luminance" maskUnits="userSpaceOnUse" x="559" y="317" width="11" height="14">
<path d="M562.922 330.28L569.167 328.244C569.415 328.163 569.545 327.897 569.464 327.655L566.221 317.708C566.141 317.46 565.874 317.33 565.633 317.41L559.387 319.447C559.14 319.528 559.01 319.794 559.09 320.035L562.334 329.983C562.414 330.224 562.68 330.354 562.922 330.28Z" fill="white"/>
</mask>
<g mask="url(#mask10_616_18191)">
<path d="M566.357 322.084C563.553 319.026 561.287 318.704 560.117 319.806C558.948 320.908 560.049 323.279 562.835 325.198C564.283 326.201 566.629 327.711 568.418 327.934C569.805 328.114 568.715 324.653 566.357 322.084Z" fill="white"/>
</g>
</g>
</g>
<mask id="mask11_616_18191" style="mask-type:luminance" maskUnits="userSpaceOnUse" x="573" y="312" width="10" height="13">
<path d="M577.164 324.771L582.623 322.988C582.871 322.908 583.001 322.642 582.92 322.4L579.832 312.917C579.751 312.669 579.485 312.539 579.244 312.619L573.784 314.402C573.536 314.483 573.406 314.749 573.487 314.99L576.576 324.474C576.656 324.722 576.922 324.852 577.164 324.771Z" fill="white"/>
</mask>
<g mask="url(#mask11_616_18191)">
<g opacity="0.1216">
<mask id="mask12_616_18191" style="mask-type:luminance" maskUnits="userSpaceOnUse" x="573" y="312" width="10" height="13">
<path d="M577.164 324.771L582.623 322.988C582.871 322.908 583.001 322.642 582.92 322.4L579.832 312.917C579.751 312.669 579.485 312.539 579.244 312.619L573.784 314.402C573.536 314.483 573.406 314.749 573.487 314.99L576.576 324.474C576.656 324.722 576.922 324.852 577.164 324.771Z" fill="white"/>
</mask>
<g mask="url(#mask12_616_18191)">
<path d="M575.487 318.711C575.629 314.563 577.14 312.848 578.749 312.923C580.352 312.997 581.058 315.516 580.191 318.785C579.739 320.487 578.947 323.162 577.728 324.499C576.787 325.532 575.369 322.196 575.487 318.711Z" fill="white"/>
</g>
</g>
</g>
<mask id="mask13_616_18191" style="mask-type:luminance" maskUnits="userSpaceOnUse" x="559" y="317" width="11" height="14">
<path d="M559.289 320.512L563.108 329.729C563.207 329.971 563.479 330.082 563.721 329.983L569.025 327.786C569.267 327.687 569.378 327.414 569.279 327.173L565.46 317.955C565.361 317.714 565.089 317.603 564.847 317.702L559.543 319.899C559.301 319.998 559.19 320.277 559.289 320.512Z" fill="white"/>
</mask>
<g mask="url(#mask13_616_18191)">
<g opacity="0.1216">
<mask id="mask14_616_18191" style="mask-type:luminance" maskUnits="userSpaceOnUse" x="559" y="317" width="11" height="14">
<path d="M562.922 330.28L569.167 328.244C569.415 328.163 569.545 327.897 569.464 327.655L566.221 317.708C566.141 317.46 565.874 317.33 565.633 317.41L559.387 319.447C559.14 319.528 559.01 319.794 559.09 320.035L562.334 329.983C562.414 330.224 562.68 330.354 562.922 330.28Z" fill="white"/>
</mask>
<g mask="url(#mask14_616_18191)">
<path d="M566.357 322.084C563.553 319.026 561.287 318.704 560.117 319.806C558.948 320.908 560.049 323.279 562.835 325.198C564.283 326.201 566.629 327.711 568.418 327.934C569.805 328.114 568.715 324.653 566.357 322.084Z" fill="white"/>
</g>
</g>
</g>
<mask id="mask15_616_18191" style="mask-type:luminance" maskUnits="userSpaceOnUse" x="-73" y="-114" width="1450" height="1253">
<path d="M-72.1912 265.239L1091.28 -113.975C1091.53 -114.055 1091.79 -113.919 1091.87 -113.678L1376.19 758.77C1376.27 759.017 1376.14 759.277 1375.89 759.358L212.419 1138.58C212.172 1138.66 211.912 1138.52 211.831 1138.28L-72.4883 265.833C-72.5688 265.586 -72.4326 265.319 -72.1912 265.239Z" fill="white"/>
</mask>
<g mask="url(#mask15_616_18191)">
<g opacity="0.3216">
<mask id="mask16_616_18191" style="mask-type:luminance" maskUnits="userSpaceOnUse" x="570" y="310" width="13" height="16">
<path d="M574.991 325.842L582.134 323.515C582.382 323.434 582.512 323.168 582.431 322.927L578.34 310.366C578.259 310.119 577.993 309.989 577.752 310.069L570.609 312.397C570.361 312.477 570.231 312.743 570.311 312.985L574.403 325.545C574.477 325.786 574.743 325.923 574.991 325.842Z" fill="white"/>
</mask>
<g mask="url(#mask16_616_18191)">
<path d="M578.198 309.927C578.581 314.248 577.987 318.581 577.399 322.877C577.319 323.484 577.226 324.103 576.935 324.641C576.644 325.18 576.093 325.619 575.48 325.607C574.787 325.594 574.217 325 574.007 324.338C573.79 323.682 573.858 322.97 573.927 322.283C574.125 320.283 574.317 318.284 574.515 316.284C574.638 314.997 574.775 313.684 575.307 312.514C575.839 311.338 576.867 310.304 578.198 309.927Z" fill="#252525"/>
</g>
</g>
</g>
<mask id="mask17_616_18191" style="mask-type:luminance" maskUnits="userSpaceOnUse" x="-73" y="-114" width="1450" height="1253">
<path d="M-72.1912 265.239L1091.28 -113.975C1091.53 -114.055 1091.79 -113.919 1091.87 -113.678L1376.19 758.77C1376.27 759.017 1376.14 759.277 1375.89 759.358L212.419 1138.58C212.172 1138.66 211.912 1138.52 211.831 1138.28L-72.4883 265.833C-72.5688 265.586 -72.4326 265.319 -72.1912 265.239Z" fill="white"/>
</mask>
<g mask="url(#mask17_616_18191)">
<g opacity="0.3216">
<mask id="mask18_616_18191" style="mask-type:luminance" maskUnits="userSpaceOnUse" x="558" y="315" width="13" height="16">
<path d="M562.823 329.996L570.158 327.606C570.405 327.526 570.535 327.26 570.455 327.018L566.654 315.356C566.574 315.108 566.308 314.978 566.066 315.058L558.731 317.448C558.484 317.528 558.354 317.795 558.434 318.036L562.235 329.699C562.309 329.94 562.575 330.076 562.823 329.996Z" fill="white"/>
</mask>
<g mask="url(#mask18_616_18191)">
<path d="M558.471 318.054C561.609 321.019 564.748 323.985 567.88 326.956C568.202 327.259 568.53 327.569 568.944 327.717C569.359 327.866 569.879 327.81 570.158 327.47C570.554 326.981 570.263 326.256 569.935 325.718C567.936 322.468 564.915 319.955 561.665 317.955C561.065 317.59 560.427 317.225 559.722 317.212C559.022 317.194 558.149 317.751 558.471 318.054Z" fill="#252525"/>
</g>
</g>
</g>
<mask id="mask19_616_18191" style="mask-type:luminance" maskUnits="userSpaceOnUse" x="-103" y="-75" width="1445" height="1243">
<path d="M-101.723 291.207L1065.92 -74.9758C1066.17 -75.0501 1066.43 -74.9139 1066.51 -74.6663L1341.05 800.901C1341.13 801.149 1340.99 801.409 1340.74 801.489L173.102 1167.67C172.854 1167.75 172.594 1167.61 172.514 1167.36L-102.032 291.795C-102.106 291.548 -101.97 291.288 -101.723 291.207Z" fill="white"/>
</mask>
<g mask="url(#mask19_616_18191)">
<g opacity="0.1412">
<mask id="mask20_616_18191" style="mask-type:luminance" maskUnits="userSpaceOnUse" x="553" y="126" width="280" height="278">
<path d="M619.608 403.927L832.23 337.251V337.245L766.129 126.439L553.506 193.122L619.602 403.927H619.608Z" fill="white"/>
</mask>
<g mask="url(#mask20_616_18191)">
<path d="M806.196 328.065C783.739 312.75 758.608 299.341 732.146 279.966C712.574 265.641 694.561 251.67 684.268 242.229C666.627 226.042 649.419 214.806 626.429 211.08C622.375 210.424 618.704 209.934 615.579 209.705C610.949 209.365 608.101 209.452 605.848 209.594C606.213 208.857 606.684 208.145 606.721 207.205C606.962 200.779 600.475 196.953 598.092 196.83C595.697 196.7 595.189 196.953 593.852 197.337C591.772 197.931 589.94 199.176 588.566 200.878C590.138 198.129 588.999 194.267 588.201 192.831C586.641 190.008 583.719 185.582 579.034 185.538C574.837 185.501 571.779 189.358 571.816 192.212C571.872 197.021 577.331 202.785 575.004 205.471C575.004 205.471 574.923 205.546 574.923 205.552C576.465 214.862 572.862 225.014 565.323 230.777C579.337 225.912 595.214 228.945 608.194 236.126C621.18 243.307 632.898 250.853 642.282 262.348C650.929 272.94 656.388 290.019 657.744 300.134C659.743 315.071 658.437 333.599 637.008 356.744C653.374 346.537 669.14 341.132 696.406 347.998C707.591 350.814 717.551 362.31 725.245 370.79C725.901 368.413 726.656 366.055 727.56 363.721" fill="#523618"/>
</g>
</g>
</g>
<path d="M841.954 398.604L831.79 399.674L836.606 406.54L841.954 398.604Z" fill="black"/>
<path d="M604.462 643.48C605.719 642.552 607.502 643.06 608.894 643.759C611.816 645.232 614.378 647.424 616.285 650.086C612.571 651.441 608.857 652.803 605.143 654.159C605.261 650.599 604.914 647.015 604.462 643.48Z" fill="#BDBDBD"/>
<path d="M481.655 558.574C474.382 564.133 466.632 566.244 460.993 573.456C455.354 580.668 448.874 589.86 448.304 602.037C447.883 610.932 456.048 625.405 461.049 632.772C469.461 645.152 478.511 658.096 492.048 664.491C500.534 668.496 510.061 669.561 519.389 670.57C534.226 672.173 549.069 673.77 563.906 675.374C574.875 676.556 587.007 677.454 595.902 670.923C607.892 662.126 608.139 644.032 603.293 629.974C633.289 643.462 667.395 641.977 700.263 643.029C724.744 643.815 765.337 632.543 788.58 614.727C818.898 591.488 824.544 562.808 819.536 537.502C816.67 523.036 788.766 525.146 774.071 523.97C719.904 519.637 665.736 515.304 611.562 510.971C595.301 509.671 578.527 508.426 563.046 513.558C552.461 517.068 543.065 523.376 533.817 529.616C511.825 544.46 491.497 551.059 481.655 558.574Z" fill="#D08A5A"/>
<path opacity="0.1608" d="M494.046 572.762C477.086 576.761 476.554 572.49 463.481 592.516C453.954 607.106 470.017 643.419 482.675 656.078C474.059 651.107 462.348 636.405 454.419 621.598C453.973 620.768 452.939 618.571 451.633 615.698C450.457 613.117 449.256 609.087 449.003 607.991C448.674 606.537 448.223 604.426 448.291 602.723C448.544 596.304 449.708 592.485 452.407 586.585C456.121 578.451 462.787 568.516 469.466 572.317C483.907 580.537 483.592 569.06 500.168 570.249C495.198 572.1 490.233 573.945 494.046 572.762Z" fill="#141414"/>
<path opacity="0.1608" d="M555.407 562.802C542.359 563.904 543.349 567.5 525.633 582.84C510.066 596.323 529.44 673.293 538.001 672.575C543.33 699.02 516.472 636.51 513.6 623.616C511.917 616.051 509.014 599.628 509.657 592.509C510.165 586.938 521.214 570.899 522.155 574.304C524.464 582.679 532.671 561.818 537.976 558.178C549.725 550.124 548.827 557.336 560.365 561.335C556.385 562.344 552.405 563.341 555.407 562.802Z" fill="#141414"/>
<path opacity="0.1608" d="M599.274 623.969C604.857 629.552 595.578 660.108 588.658 667.029C584.337 671.35 598.747 662.968 596.408 668.613C600.066 667.877 600.734 665.995 602.907 662.596C604.807 659.625 606.256 653.212 606.256 647.133C606.25 640.596 604.461 628.413 599.274 623.969Z" fill="#141414"/>
<path opacity="0.1608" d="M637.083 639.538C645.031 640.819 653.566 641.401 662.04 641.94C671.474 642.54 696.103 642.967 706.867 642.967C718.901 642.967 741.58 637.526 754.505 632.611C780.347 622.787 795.872 611.291 807.323 595.865C818.093 581.355 823.305 563.533 820.266 541.687C810.146 615.829 722.002 644.96 637.083 639.538Z" fill="#141414"/>
<path opacity="0.1608" d="M470.067 644.49C468.829 645.957 468.891 647.993 469.955 649.597C471.02 651.2 474.072 655.23 475.879 656.66C488.358 666.515 514.052 677.187 536.162 676.939C550.591 676.779 563.744 671.641 578.173 671.492C582.617 671.449 587.216 671.888 591.388 670.359C595.56 668.824 599.151 665.203 597.993 660.913C589.853 663.457 583.298 665.153 575.654 666.496C557.307 669.734 541.374 669.604 524.501 667.072C520.05 666.404 515.148 665.605 510.747 664.602C504.074 663.073 498.311 661.439 492.443 658.994C489.095 657.601 486.092 656.196 483.09 654.469C482.224 653.967 481.339 653.422 480.478 652.896C479.203 652.116 476.956 650.55 475 648.99C474.01 648.198 473.069 647.362 472.475 646.83C471.49 645.951 470.828 645.27 470.828 645.27C470.63 645.078 470.37 644.793 470.067 644.49Z" fill="#141414"/>
<g opacity="0.1686">
<mask id="mask21_616_18191" style="mask-type:luminance" maskUnits="userSpaceOnUse" x="551" y="348" width="213" height="148">
<path d="M602.344 495.315L760.948 428.744C761.232 428.627 763.232 428.305 763.12 428.039L727.857 348.443C727.745 348.171 727.417 348.053 727.132 348.171L551.198 413.51C550.913 413.628 555.103 429.425 555.215 429.691L601.62 495.049C601.732 495.315 602.054 495.439 602.344 495.315Z" fill="white"/>
</mask>
<g mask="url(#mask21_616_18191)">
<path d="M556.639 411.486C569.254 424.318 567.769 425.618 586.258 440.487C614.063 462.853 650.311 452.156 664.665 447.588C700.102 436.321 710.018 407.394 722.262 372.536C722.485 371.905 730.402 364.996 730.296 365.652C724.509 400.405 709.127 438.197 680.035 459.684C671.814 465.75 662.721 471.086 652.712 473.203C631.295 477.735 607.65 480.341 592.516 466.072C581.343 455.536 565.064 432.167 559.988 419.236" fill="black"/>
</g>
</g>
<path d="M446.075 640.386C446.496 650.29 429.728 659.371 425.835 668.484C421.941 677.596 424.956 692.954 432.773 699.045C429.474 694.062 419.979 693.356 417.695 698.878C415.411 704.4 418.419 713.685 423.123 717.369C427.828 721.052 434.525 722.519 440.344 723.893C559.121 751.886 622.809 742.297 622.809 742.297C622.809 742.297 618.977 740.483 620.407 736.689C621.837 732.888 626.436 730.975 629.438 728.245C636.488 721.838 634.458 712.59 631.691 708.325C628.924 704.059 625.161 703.614 621.076 702.815C625.427 704.617 637.293 687.383 631.58 679.416C626.925 672.928 616.699 667.091 615.43 651.869C592.986 659.984 566.883 665.698 539.097 663.172C511.311 660.647 479.569 654.103 462.887 632.914C456.858 625.25 454.828 620.682 450.538 614.176C450.254 616.33 445.073 616.85 446.075 640.386Z" fill="#FFF5F8"/>
<path opacity="0.1608" d="M631.511 679.23C632.328 687.952 629.901 693.375 623.891 699.38C617.844 705.427 605.693 706.975 597.157 707.551C605.315 707.551 617.961 705.384 623.408 702.456C627.184 700.426 629.988 695.319 631.69 691.382C633.393 687.445 633.813 682.529 631.511 679.23Z" fill="#141414"/>
<path opacity="0.1608" d="M442.682 649.027C445.393 656.629 447.547 660.993 454.275 665.134C457.673 667.227 459.667 667.338 463.535 669.195C470.047 672.315 477.933 675.615 486.308 677.428C481.375 676.215 470.957 670.18 466.358 666.985C462.118 664.039 454.993 662.268 451.273 657.799C447.355 653.1 445.95 650.946 444.891 645.486C444.514 646.601 444.675 645.994 444.031 647.059C443.362 648.154 443.356 647.907 442.682 649.027Z" fill="#141414"/>
<path opacity="0.1608" d="M631.462 707.978C634.019 714.75 632.669 723.268 626.566 727.149C612.261 736.249 573.915 733.556 565.942 733.556C571.352 734.181 608.114 738.898 620.636 733.952C624.926 732.256 630.911 728.028 633.146 723.063C635.38 718.099 634.334 712.88 631.462 707.978Z" fill="#141414"/>
<path opacity="0.1608" d="M426.818 666.484C424.837 674.705 426.378 683.631 430.594 690.96C434.809 698.29 439.519 700.463 451.707 705.254C431.417 699.447 418.635 694.087 420.659 706.771C421.668 713.091 427.876 717.536 433.849 719.851C446.143 724.617 459.358 727.818 472.202 730.802C462.484 728.932 455.31 727.378 445.641 725.131C437.601 723.262 427.796 721.615 422.621 716.96C421.525 715.976 420.733 714.769 419.805 713.438C417.372 709.959 415.955 702.289 417.861 698.519C419.774 694.73 425.524 693.907 430.241 696.643C429.021 694.984 427.53 692.935 426.651 690.49C423.878 682.789 422.596 673.949 426.818 666.484Z" fill="#141414"/>
<path opacity="0.1608" d="M446.093 629.292C462.441 657.285 499.023 669.01 512.653 671.727C549.52 679.088 574.564 676.667 610.156 660.888C582.673 671.325 552.367 674.21 523.411 669.152C494.461 664.101 468.049 649.473 446.093 629.292Z" fill="#141414"/>
<path d="M450.272 612.188C445.444 613.68 442.596 619.097 443.778 624.006C444.961 628.915 448.563 632.846 452.209 636.343C489.082 671.777 535.234 678.815 585.341 668.607C587.049 668.261 606.665 663.141 615.139 658.077C620.933 654.617 615.034 644.942 610.187 647.523C597.56 654.252 571.321 661.798 548.412 660.715C529.069 659.798 503.771 654.716 486.34 646.285C468.909 637.854 459.173 627.739 450.272 612.188Z" fill="white"/>
<path d="M783.101 317.033C789 305.253 815.963 297.237 836.879 304.461C855.727 310.967 875.918 346.462 873.535 409.523C871.715 457.672 862.201 522.045 859.961 533.039C851.443 574.774 836.879 612.808 836.879 612.808L854.34 619.555C854.34 619.555 833.097 609.199 826.436 605.738C821.738 603.299 808.888 595.951 808.888 595.951C808.888 595.951 808.647 596.447 806.957 598.465C822.314 609.267 854.254 620.137 854.254 620.137C854.254 620.137 854.545 619.889 855.269 617.97C856.47 614.77 858.859 607.589 863.105 594.026C868.298 577.43 877.36 545.116 881.285 519.321C886.583 484.5 888.484 461.293 889.146 448.956C890.062 431.858 891.387 419.261 890.904 400.584C890.526 385.783 889.041 374.665 886.237 361.616C882.783 345.534 879.762 334.787 871.845 320.37C868.521 314.316 863.65 308.769 858.531 304.665C853.412 300.561 848.045 297.911 842.381 295.776C836.804 293.671 831.834 293.417 827.086 293.578C821.132 293.782 813.747 295.256 806.344 298.308C798.922 301.366 791.519 305.823 785.608 312.471C784.283 313.957 783.782 315.43 783.101 317.033Z" fill="#D5D5D5"/>
<path d="M515.457 467.056C521.629 496.869 550.591 547.221 550.591 547.221L640.047 562.721C640.047 562.721 658.153 543.451 730.655 553.572C733.1 553.913 788.71 560.932 806.512 561.551C815.735 561.873 820.866 560.282 820.866 560.282C820.866 560.282 821.058 557.72 821.126 556.036C821.194 554.278 821.126 545.277 821.126 545.277C821.126 545.277 764.346 485.082 771.359 479.746C771.663 479.517 774.56 486.432 758.305 437.423C779.84 419.26 812.312 402.819 841.98 398.677C841.98 398.677 829.817 360.242 820.946 340.792C808.69 313.907 781.665 307.277 765.566 311.839C748.092 316.786 734.889 337.845 729.584 350.362C714.357 386.322 716.585 391.967 708.21 409.579C700.002 426.825 681.191 458.012 633.864 459.646C619.843 460.129 599.275 457.529 576.904 435.157C559.765 418.016 554.429 405.604 552.714 401.63C552.448 401.011 552.015 400.299 552.015 400.299C552.015 400.299 541.777 401.135 534.46 412.216C530.852 417.676 525.268 444.325 525.268 444.325" fill="#232D40"/>
<g opacity="0.1412">
<mask id="mask22_616_18191" style="mask-type:luminance" maskUnits="userSpaceOnUse" x="702" y="373" width="186" height="379">
<path d="M813.741 751.131L886.807 728.289C887.023 728.22 887.147 727.998 887.079 727.793L776.46 373.91C776.398 373.706 776.169 373.588 775.952 373.657L702.887 396.499C702.67 396.567 702.547 396.79 702.615 396.994L813.234 750.877C813.302 751.088 813.525 751.199 813.741 751.131Z" fill="white"/>
</mask>
<g mask="url(#mask22_616_18191)">
<path d="M739.988 391.899C739.988 391.899 751.928 445.892 762.371 515.787C765.076 533.918 774.491 514.579 774.491 537.428C774.491 544.485 789.322 552.594 780.148 511.658C775.685 491.743 770.387 469.037 766.215 443.502V443.812C765.571 435.838 767.477 452.701 758.83 437.627C758.83 437.627 754.237 431.245 747.515 413.132L739.988 391.899Z" fill="black"/>
</g>
</g>
<g opacity="0.2784">
<mask id="mask23_616_18191" style="mask-type:luminance" maskUnits="userSpaceOnUse" x="554" y="446" width="13" height="34">
<path d="M560.644 479.183L566.06 478.242C566.283 478.205 566.431 477.995 566.394 477.772L560.972 446.554C560.935 446.331 560.724 446.182 560.501 446.22L555.085 447.16C554.862 447.198 554.714 447.408 554.751 447.631L560.173 478.849C560.21 479.072 560.421 479.22 560.644 479.183Z" fill="white"/>
</mask>
<g mask="url(#mask23_616_18191)">
<path d="M560.896 446.145C559.584 456.068 559.417 457.876 559.9 466.697C559.962 467.83 560.531 476.496 560.643 479.177C560.692 480.359 562.605 485.404 562.537 486.933C562.5 487.769 564.926 488.437 564.883 489.651C564.282 482.674 562.017 470.157 561.621 462.692C561.268 456.019 560.717 451.066 560.896 446.145Z" fill="black"/>
</g>
</g>
<path d="M574.769 529.653C598.278 529.653 606.907 530.445 629.89 529.69C623.143 537.948 610.064 547.741 607.173 558.005C594.868 559.503 582.841 563.235 571.854 568.968C573.209 555.999 575.32 543.111 574.769 529.653Z" fill="#8F8F8F"/>
<path d="M423.025 570.385C401.292 524.298 383.831 472.343 369.699 423.68C369.161 421.829 370.429 419.78 372.46 419.657C427.574 416.19 492.494 415.955 536.9 419.471C544.433 420.065 586.555 544.064 593.748 582.846C533.186 582.846 481.352 578.538 428.429 574.019C426.064 573.815 423.984 572.428 423.025 570.385Z" fill="#B3BCC9"/>
<path opacity="0.1686" d="M428.427 574.019C479.858 578.408 530.269 582.599 588.658 582.834C548.034 569.921 511.984 547.933 460.861 515.557C412.023 484.624 379.366 435.59 369.703 421.897C369.536 422.467 369.517 423.086 369.691 423.68C383.822 472.336 401.284 524.292 423.017 570.385C423.982 572.428 426.062 573.814 428.427 574.019Z" fill="#141414"/>
<path d="M628.651 518.609C609.271 533.46 600.617 539.613 586.808 560.518C580.333 570.323 571.853 588.009 571.853 588.009C571.853 588.009 570.176 595.258 570.12 598.384C570.058 601.801 571.475 614.083 571.475 614.083C571.469 614.522 571.934 614.807 572.317 614.603C574.255 613.575 580.717 611.025 587.513 607.354C603.688 598.613 628.237 584.233 644.906 574.019C646.404 573.103 647.951 572.137 648.905 570.658C650.718 567.835 649.771 563.96 647.753 561.273C645.742 558.593 642.851 556.723 640.313 554.526C631.27 546.695 626.801 531.355 628.651 518.609Z" fill="#F2DFA7"/>
<path opacity="0.1608" d="M629.579 518.609C628.025 519.111 624.107 521.878 617.626 527.096C612.631 531.126 605.525 536.858 600.425 542.609C594.736 549.022 588.478 557.342 585.068 563.192C598.605 549.06 622.263 532.68 628.966 532.655C629.839 536.277 630.47 535.169 631.343 538.79C623.104 544.169 613.331 547.141 593.733 563.941C589.19 567.835 582.171 575.944 577.832 580.909C573.493 585.874 571.84 588.009 571.84 588.009C571.84 588.009 570.794 591.742 570.614 593.822C579.757 585.985 595.349 570.788 606.113 563.384C624.058 551.047 636.413 548.044 640.158 548.843C636.295 551.071 625.067 558.376 613.758 566.188C609.685 569.005 603.52 572.471 598.642 577.789C588.293 589.086 576.507 599.548 571.524 614.485C571.456 614.683 571.697 614.832 571.834 614.671C582.177 602.68 594.934 590.362 608.391 579.999C624.609 567.519 641.847 557.608 657.13 550.873C641.513 569.184 616.605 585.341 598.939 601.021C609.06 595.369 636.27 579.516 645.53 573.617C646.248 573.159 654.524 564.529 655.156 564.046C655.669 563.65 657.211 553.603 657.724 553.189C658.195 552.805 646.991 564.535 647.561 564.003C647.814 563.762 647.994 564.077 647.994 564.077C647.994 564.077 649.238 554.42 649.851 553.863C637.131 544.448 634.153 533.751 629.579 518.609Z" fill="black"/>
<path d="M625.179 521.24C625.179 521.24 640.518 503.604 678.715 503.604C679.452 503.604 682.244 504.006 685.883 503.294C692.686 501.964 718.937 489.088 767.15 476.806C766.5 462.692 761.499 448.807 757.376 435.281C778.738 416.902 807.805 403.531 835.728 399.718C846.616 435.405 852.738 481.071 843.744 520.176C841.949 527.975 836.514 543.532 834.193 544.875C829.105 547.828 818.557 549.716 811.278 550.23C787.973 551.882 782.588 551.313 759.24 552.241C745.312 552.792 706.118 566.591 686.391 561.211C667.537 573.06 656.58 574.929 644.739 574.929C644.318 574.929 643.223 575.164 643.124 575.14C639.639 574.36 629.221 566.108 620.5 551.715C614.768 542.269 625.179 521.24 625.179 521.24Z" fill="#D08A5A"/>
<path opacity="0.1608" d="M621.627 553.529C624.418 558.853 636.947 568.07 645.928 568.968C657.02 570.076 670.298 570.299 682.337 563.669C680.22 564.913 670.743 570.992 659.614 573.388C657.132 573.92 651.833 574.7 647.903 574.874C647.104 574.911 646.299 574.886 645.513 574.923C645.03 574.942 644.801 574.886 644.572 574.935C644.381 574.979 644.071 575.004 643.898 575.028C643.365 575.109 643.074 575.134 643.074 575.134C643.074 575.134 642.127 574.954 640.493 573.939C637.572 572.113 633.975 569.011 631.673 566.449C627.253 561.502 624.864 558.711 621.627 553.529Z" fill="#141414"/>
<path opacity="0.1608" d="M773.94 476.082C770.504 475.562 761.399 478.193 751.904 480.898C741.096 483.981 734.244 485.937 722.613 490.035C719.524 491.124 712.047 493.749 706.167 495.94C699.537 498.417 695.421 500.038 691.008 501.685C684.861 503.975 685.189 502.929 674.14 509.819C677.223 508.259 716.825 493.99 720.292 492.734C753.606 480.7 737.283 484.829 773.94 476.082Z" fill="#141414"/>
<path d="M500.768 249.429C493.73 256.826 484.656 269.108 482.229 282.993C480.998 290.025 479.19 295.794 479.19 307.884C479.19 313.957 473.706 316.229 472.703 318.897C471.471 322.184 472.672 338.21 477.494 347.292C480.657 353.247 488.104 353.754 489.769 357.574C492.387 363.578 499.437 373.854 504.073 378.485C511.78 386.192 514.652 385.232 523.646 385.851C545.422 387.349 554.892 368.023 540.099 366.191C531.049 365.064 531.798 377.364 516.942 378.107C512.77 378.311 500.91 368.37 494.541 354.541C484.724 333.233 479.921 321.243 484.34 299.57C487.868 282.25 515.32 251.781 536.508 240.372C569.618 222.544 592.304 217.227 626.943 223.863C635.187 225.441 659.421 233.965 653.064 242.557C645.568 252.685 647.778 262.1 649.957 266.867C654.11 275.967 660.82 288.997 674.277 288.997C684.032 288.997 698.033 284.02 700.088 266.576C701.951 250.76 690.445 238.453 679.847 233.204C676.66 231.625 671.875 231.489 666.985 228.103C653.776 218.96 643.94 215.444 627.685 209.978C602.14 201.392 576.346 203.391 551.643 214.224C526.939 225.057 511.056 238.608 500.768 249.429Z" fill="#252525"/>
<path opacity="0.6" d="M679.835 233.192C676.647 231.613 671.863 231.477 666.973 228.091C653.763 218.948 643.928 215.432 627.673 209.965C602.127 201.379 576.334 203.379 551.63 214.212C526.927 225.045 511.062 238.608 500.774 249.429C494.417 256.114 486.383 266.799 483.108 279.043C482.966 279.613 482.817 280.182 482.687 280.752C482.687 280.764 482.681 280.777 482.681 280.789C497.655 249.348 526.468 232.932 538.898 226.296C557.597 216.317 589.519 205.496 626.373 215.982C646.447 221.696 667.932 232.399 676.932 247.38C685.134 261.03 684.044 277.353 670.717 288.657C670.717 288.657 670.717 288.657 670.724 288.657C673.75 288.477 676.821 288.508 679.835 288.453C688.662 286.788 698.398 280.876 700.082 266.558C701.933 250.747 690.426 238.441 679.835 233.192Z" fill="#141414"/>
<path opacity="0.1608" d="M734.176 341.138C745.219 335.109 773.061 338 785.75 351.823C802.5 370.066 808.813 384.539 814.694 411.033C824.765 456.433 831.388 466.907 825.65 516.993C823.7 533.998 812.93 539.637 764.259 544.497C745.986 546.323 719.005 558.71 710.258 560.375C707.906 560.821 705.579 561.124 703.332 561.304C696.585 561.848 690.488 561.31 686.143 560.338C682.15 559.446 679.761 558.128 678.609 557.589C679.693 558.444 683.147 560.765 688.519 561.694C692.735 562.424 698.541 562.684 704.786 562.09C718.751 560.771 734.337 556.921 735.166 556.754C743.739 555.008 745.974 553.968 751.464 553.256C758.056 552.402 771.086 551.956 775.462 551.721C784.493 551.244 787.031 551.362 789.916 551.362C794.143 551.362 798.483 550.99 801.423 550.848C808.523 550.501 811.927 550.099 818.303 549.418C822.908 548.929 829.568 546.868 831.128 546.286C831.215 546.255 832.31 545.815 833.109 545.432C833.882 545.06 834.353 544.744 834.421 544.689C835.393 543.94 836.34 541.798 837.59 538.919C839.107 535.409 840.648 530.952 841.558 527.969C847.166 509.608 849.741 485.806 847.55 460.63C846.052 443.452 844.727 429.957 836.055 399.643C838.327 399.154 838.166 399.173 841.985 398.659C841.168 395.799 839.59 391.688 837.423 384.73C835.127 377.364 831.716 368.437 829.457 361.981C825.019 349.291 819.274 335.282 813.171 328.312C806.17 320.32 798.78 314.978 787.898 312.13C781.256 310.391 768.165 307.791 756.75 315.807C746.314 323.143 740.316 330.119 734.176 341.138Z" fill="#141414"/>
<path opacity="0.6" d="M477.217 313.579C476.926 322.79 478.182 342.525 486.39 354.441C482.231 352.139 478.504 351.21 475.812 343.485C475.156 341.609 474.394 339.733 473.918 336.972C473.416 334.081 471.603 326.313 472.55 319.454C472.791 317.696 475.663 315.702 477.217 313.579Z" fill="#141414"/>
<path opacity="0.6" d="M504.068 378.491C509.992 382.601 522.904 383.97 531.309 381.481C540.96 378.621 541.653 375.031 545.936 368.822C548.53 372.301 546.821 376.399 543.231 379.989C540.96 382.261 537.147 384.056 533.377 385.065C531.365 385.598 530.072 385.777 527.62 385.901C526.259 385.969 525.541 386.006 523.999 385.882C520.292 385.573 513.483 385.746 510.344 383.567C508.277 382.125 506.408 381.128 504.068 378.491Z" fill="#141414"/>
<path d="M499.586 707.495C498.459 705.694 497.958 704.858 497.271 702.821C496.578 700.791 496.763 698.284 498.274 696.718C499.765 695.176 502.39 694.978 504.018 696.278C505.646 697.578 506.048 700.203 504.903 702.017C503.869 699.714 506.407 696.792 508.895 697.12C511.384 697.448 512.999 700.289 512.554 702.815C512.108 705.341 509.731 706.851 507.657 708.324C502.718 711.847 501.598 710.702 499.586 707.495Z" fill="#FF0069"/>
<path d="M514.387 670.545C513.44 669.709 512.474 668.539 511.88 667.425C511.286 666.31 511.118 664.88 511.799 663.816C512.48 662.751 514.145 662.349 515.055 663.221C514.702 667.709 518.887 667.499 518.404 671.975C518.045 675.28 515.953 678.425 513.601 680.777C507.312 687.067 502.601 696.092 501.914 713.165C501.883 713.982 500.181 713.326 499.822 713.289C498.008 713.103 501.493 694.538 503.09 691.084C505.325 686.256 505.739 685.29 509.175 681.229C510.834 679.267 512.951 677.54 514.127 675.262C515.303 672.977 515.408 671.448 514.387 670.545Z" fill="#D9D9D9"/>
<path d="M558.291 673.38C561.399 672.222 563.317 668.527 562.469 665.32C562.791 664.652 563.782 664.503 564.401 664.918C565.02 665.333 565.292 666.131 565.255 666.88C565.224 667.623 564.939 668.335 564.661 669.022C564.19 670.186 563.695 671.38 562.797 672.253C561.906 673.12 560.482 673.584 558.291 673.38Z" fill="#E1E1E1"/>
<path d="M559.696 674.909C560.94 676.005 561.373 677.918 560.736 679.44C561.491 680.053 562.735 679.731 563.274 678.914C563.806 678.097 563.701 676.983 563.224 676.141C562.741 675.299 561.937 674.68 561.101 674.191C560.804 674.197 560.513 674.203 559.696 674.909Z" fill="#D9D9D9" stroke="#D9D9D9" stroke-miterlimit="10"/>
<path d="M579.969 670.514C580.817 669.053 581.659 667.592 582.507 666.131C582.686 665.828 582.896 665.493 583.243 665.419C583.652 665.332 584.048 665.698 584.153 666.1C584.252 666.509 584.141 666.93 583.998 667.326C583.608 668.465 583.045 669.536 579.969 670.514Z" fill="#D9D9D9"/>
<path d="M525.311 673.132C524.946 672.037 524.135 671.257 523.64 670.235C523.144 669.214 523.138 667.61 524.029 667.134C524.816 666.719 525.707 667.524 526.072 668.471C526.431 669.412 526.474 670.495 526.803 671.461C527.131 672.427 527.948 673.299 525.311 673.132Z" fill="#D9D9D9"/>
<path d="M450.272 612.188C448.706 615.89 449.096 618.094 451.281 621.468C453.955 625.597 464.62 634.796 470.835 636.851C461.117 628.067 454.989 620.193 450.272 612.188Z" fill="#BDBDBD"/>
<path d="M457.719 719.808C456.332 719.219 454.84 718.811 453.695 717.839C452.55 716.867 451.77 715.313 452.142 713.859C452.507 712.429 454.048 711.401 455.509 711.618C456.97 711.834 458.152 713.258 458.09 714.731C456.636 713.716 457.155 711.098 458.802 710.435C460.448 709.773 462.448 710.906 463.073 712.565C463.698 714.224 462.937 716.019 462.027 717.536C460.424 720.21 460.609 721.033 457.719 719.808Z" fill="#FF0069"/>
<path d="M543.585 702.32C541.92 700.085 540.719 699.354 539.53 696.804C538.342 694.254 538.218 690.954 539.976 688.695C541.697 686.472 545.095 685.841 547.404 687.308C549.713 688.775 550.616 692.143 549.372 694.675C547.695 691.815 550.592 687.642 553.885 687.723C557.178 687.803 559.691 691.276 559.468 694.637C559.245 697.999 556.367 700.314 553.86 702.524C549.372 706.473 546.414 706.114 543.585 702.32Z" fill="#FF0069"/>
<path d="M449.498 689.611C447.635 688.163 445.45 687.067 444.044 685.148C442.633 683.229 441.989 680.517 443.066 678.357C444.125 676.228 446.836 675.138 448.99 675.974C451.144 676.803 452.45 679.447 451.844 681.749C449.98 679.657 451.689 675.72 454.431 675.237C457.173 674.754 459.835 677.218 460.206 680.041C460.578 682.864 458.869 685.513 456.87 687.506C454.016 690.36 453.453 692.688 449.498 689.611Z" fill="#FF0069"/>
<path d="M607.209 686.516C605.91 684.547 604.096 682.604 603.217 680.394C602.338 678.184 602.4 675.398 603.985 673.578C605.544 671.789 608.441 671.418 610.317 672.767C612.192 674.117 612.787 677.001 611.623 679.075C610.348 676.58 612.997 673.2 615.77 673.429C618.543 673.658 620.499 676.71 620.14 679.533C619.787 682.356 616.661 685.333 614.099 686.516C611.536 687.698 609.326 689.722 607.209 686.516Z" fill="#FF0069"/>
<path d="M596.341 724.351C595.555 722.971 594.571 722.203 594.051 720.686C593.537 719.17 593.667 717.294 594.8 716.124C595.914 714.973 597.87 714.824 599.089 715.796C600.302 716.768 600.606 718.73 599.751 720.086C598.978 718.365 600.878 716.18 602.735 716.427C604.592 716.675 605.805 718.798 605.471 720.686C605.137 722.574 603.422 723.794 601.813 724.803C598.718 726.747 597.938 727.149 596.341 724.351Z" fill="#FF0069"/>
<path d="M539.475 741.009C539.475 741.009 537.717 739.189 537.203 737.673C536.689 736.156 536.819 734.28 537.952 733.11C539.066 731.959 541.022 731.81 542.242 732.782C543.455 733.754 543.758 735.717 542.904 737.072C542.13 735.351 544.03 733.166 545.887 733.414C547.744 733.661 548.958 735.785 548.623 737.673C548.289 739.561 544.513 741.504 544.513 741.504L539.475 741.009Z" fill="#FF0069"/>
</g>
<mask id="mask24_616_18191" style="mask-type:luminance" maskUnits="userSpaceOnUse" x="448" y="461" width="62" height="68">
<path fill-rule="evenodd" clip-rule="evenodd" d="M507.954 502.704C508.729 502.649 509.306 504.093 509.216 505.854C509.132 507.484 508.508 508.801 507.791 508.866L507.409 508.9L506.749 508.959C499.225 509.659 474.643 513.023 451.569 528.137C451.552 528.391 448.16 529.538 448.24 527.957C448.24 527.957 475.136 505.071 507.954 502.704ZM482.348 461.914C483.666 461.56 485.069 461.71 486.282 462.334C487.987 463.395 489.313 464.966 490.07 466.824C490.918 469.179 489.571 471.962 488.751 473.512C487.422 475.796 485.89 479.366 485.146 481.026C484.67 482.125 484.022 482.768 482.722 481.817C482.212 481.5 481.784 481.069 481.472 480.557C481.16 480.045 480.972 479.467 480.925 478.869C480.805 477.528 481.411 475.033 483.239 471.892C484.605 469.288 486.054 466.234 485.125 465.824C482.66 464.702 469.746 476.722 470.054 483.791C470.224 487.849 479.115 489.392 481.707 490.55C482.276 490.76 482.778 491.12 483.158 491.592C483.538 492.064 483.783 492.63 483.867 493.23C483.992 494.63 483.317 496.394 481.856 498.646C479.844 501.265 476.93 503.046 473.679 503.645C470.795 504.141 467.836 503.992 465.016 503.208C462.197 502.425 459.587 501.026 457.375 499.113C456.407 498.271 456.784 497.504 457.634 497.005C458.252 496.731 458.897 496.523 459.559 496.386C461.23 495.935 463.007 496.086 464.578 496.812C467.198 498.211 471.603 500.327 475.232 499.512C476.471 499.313 477.61 498.709 478.468 497.794C478.647 497.623 478.785 497.412 478.869 497.179C478.953 496.946 478.982 496.696 478.954 496.45C478.925 496.203 478.84 495.967 478.704 495.759C478.569 495.551 478.387 495.377 478.173 495.251C473.363 492.856 464.361 491.522 463.806 485.316C463.065 477.042 472.186 467.611 477.618 464.031C479.037 463.016 480.645 462.296 482.348 461.914Z" fill="white"/>
</mask>
<g mask="url(#mask24_616_18191)">
<mask id="mask25_616_18191" style="mask-type:luminance" maskUnits="userSpaceOnUse" x="441" y="458" width="72" height="73">
<path d="M506.353 458.389L441.214 464.216L447.148 530.546L512.288 524.718L506.353 458.389Z" fill="white"/>
</mask>
<g mask="url(#mask25_616_18191)">
<mask id="mask26_616_18191" style="mask-type:luminance" maskUnits="userSpaceOnUse" x="442" y="459" width="69" height="71">
<path d="M448.335 529.129L510.868 523.534L505.167 459.806L442.633 465.4L448.335 529.129Z" fill="white"/>
</mask>
<g mask="url(#mask26_616_18191)">
<path d="M441.214 464.216L506.353 458.389L512.288 524.718L447.148 530.546L441.214 464.216Z" fill="#0057FF"/>
</g>
</g>
</g>
<defs>
<filter id="filter0_b_616_18191" x="150" y="-11.1709" width="875.074" height="807.775" filterUnits="userSpaceOnUse" color-interpolation-filters="sRGB">
<feFlood flood-opacity="0" result="BackgroundImageFix"/>
<feGaussianBlur in="BackgroundImageFix" stdDeviation="15"/>
<feComposite in2="SourceAlpha" operator="in" result="effect1_backgroundBlur_616_18191"/>
<feBlend mode="normal" in="SourceGraphic" in2="effect1_backgroundBlur_616_18191" result="shape"/>
</filter>
<filter id="filter1_b_616_18191" x="193.426" y="22.6177" width="789.096" height="742.317" filterUnits="userSpaceOnUse" color-interpolation-filters="sRGB">
<feFlood flood-opacity="0" result="BackgroundImageFix"/>
<feGaussianBlur in="BackgroundImageFix" stdDeviation="15"/>
<feComposite in2="SourceAlpha" operator="in" result="effect1_backgroundBlur_616_18191"/>
<feBlend mode="normal" in="SourceGraphic" in2="effect1_backgroundBlur_616_18191" result="shape"/>
</filter>
<linearGradient id="paint0_linear_616_18191" x1="1001.5" y1="685" x2="623.565" y2="44.674" gradientUnits="userSpaceOnUse">
<stop stop-color="#485064"/>
<stop offset="1" stop-color="#485064" stop-opacity="0"/>
</linearGradient>
<linearGradient id="paint1_linear_616_18191" x1="1230" y1="-40.1549" x2="1230" y2="923" gradientUnits="userSpaceOnUse">
<stop stop-color="#3D548B"/>
<stop offset="0.460833" stop-color="#2B395A"/>
<stop offset="1" stop-color="#1B2130"/>
</linearGradient>
<linearGradient id="paint2_linear_616_18191" x1="425.5" y1="17.5001" x2="433" y2="907.5" gradientUnits="userSpaceOnUse">
<stop stop-color="#3D548B"/>
<stop offset="0.333061" stop-color="#2E3E64"/>
<stop offset="1" stop-color="#1B2130"/>
</linearGradient>
<linearGradient id="paint3_linear_616_18191" x1="1391" y1="947" x2="215.323" y2="-295.117" gradientUnits="userSpaceOnUse">
<stop offset="0.0541064" stop-color="#22458B" stop-opacity="0.47"/>
<stop offset="0.466157" stop-color="#1B2D52" stop-opacity="0.58"/>
<stop offset="1" stop-color="#15171B" stop-opacity="0.57"/>
</linearGradient>
<linearGradient id="paint4_linear_616_18191" x1="1151.8" y1="810.332" x2="-12.3199" y2="-381.635" gradientUnits="userSpaceOnUse">
<stop offset="0.0541064" stop-color="#1F2636" stop-opacity="0.89"/>
<stop offset="0.733105" stop-color="#7EA0E5" stop-opacity="0.4"/>
</linearGradient>
</defs>
</svg>
