<svg width="503" height="622" viewBox="0 0 503 622" fill="none" xmlns="http://www.w3.org/2000/svg">
  <path d="M248.78 171.287C245.43 158.856 227.855 163.795 214.137 162.434C200.419 161.074 174.248 178.639 162.968 186.11C151.688 193.581 141.002 204.912 127.603 224.841C117.783 239.449 90.8998 270.62 128.273 251.668C172.521 229.23 213.013 203.291 248.78 171.287Z" fill="#D08A5A"/>
  <path d="M329.719 412.256C312.464 387.992 301.617 358.26 308.716 325.014C303.856 335.048 325.206 337.985 274.172 381.997C263.063 391.579 202.187 368.491 170.772 326.97C149.629 299.028 83.303 288.976 135.195 229.02C141.463 221.774 149.237 213.735 158.7 212.246C168.164 210.757 166.235 207.287 174.813 211.558C202.693 170.719 221.818 180.947 236.639 177.475C246.225 175.231 256.553 174.943 265.681 178.637C287.393 187.424 295.317 214.71 314.537 228.101C322.561 233.69 372.625 220.533 368.653 241.469C367.319 248.494 377.503 262.607 374.375 268.666C367.794 281.39 355.176 281.652 363.062 286.558C360.77 309.956 355.354 332.942 346.959 354.9" fill="#D08A5A"/>
  <path d="M302.053 90.8693C282.297 108.327 266.058 149.26 250.097 157.753C199.902 184.469 188.928 184.872 190.746 200.645C196.199 247.877 228.916 279.179 264.977 301.255C310.279 328.996 346.697 338.089 370.583 325.174C388.425 315.527 357.879 286.278 374.841 247.211C381.836 231.094 410.693 196.438 417.947 183.031C434.852 151.792 423.897 119.811 408.985 106.268C409.654 109.718 412.218 112.271 416.068 111.669C421.48 110.826 421.269 106.921 419.161 104.127C418.167 102.77 416.778 101.753 415.184 101.217C413.589 100.681 411.868 100.653 410.257 101.135C410.257 101.135 412.762 100.79 412.94 100.771C415.232 100.494 416.877 98.3244 417.422 97.2664C418.505 95.1612 419.857 91.2452 417.837 88.4562C417.033 87.3952 415.864 86.6696 414.556 86.4194C413.249 86.1692 411.895 86.412 410.756 87.1011C407.657 89.4481 406.554 96.7299 403.19 94.2752C372.914 71.7858 339.959 57.3713 302.053 90.8693Z" fill="#D08A5A"/>
  <path opacity="0.051" d="M398.798 192.182C417.017 167.232 384.639 139.932 367.329 127.281C350.019 114.631 312.028 90.5089 293.809 115.459C275.59 140.41 284.32 177.813 313.313 198.999C342.306 220.185 380.572 217.132 398.798 192.182Z" fill="black"/>
  <mask id="mask0_9504_13649" style="mask-type:luminance" maskUnits="userSpaceOnUse" x="317" y="113" width="111" height="115">
    <path d="M374.847 113.712L317.289 196.517L386.451 227.691L427.163 137.292L374.847 113.712Z" fill="white"/>
  </mask>
  <g mask="url(#mask0_9504_13649)">
    <path d="M383.988 119.487C410.353 128.999 414.477 145.083 413.301 158.319C412.386 168.605 407.955 183.959 401.415 190.793C398.842 193.483 395.867 197.254 392.808 199.382C383.347 205.811 372.139 209.179 360.701 209.03C348.248 208.665 334.859 206.904 315.808 193.15L370.75 111.858C375.2 117.018 381.821 118.705 383.988 119.487Z" fill="#F2D2B6"/>
  </g>
  <mask id="mask1_9504_13649" style="mask-type:luminance" maskUnits="userSpaceOnUse" x="265" y="72" width="111" height="125">
    <path d="M375.881 113.612L318.322 196.42L265.026 142.415L335.563 72.7645L375.881 113.612Z" fill="white"/>
  </mask>
  <g mask="url(#mask1_9504_13649)">
    <path d="M289.368 126.632C290.291 123.009 292.782 118.903 294.401 115.547C298.518 107.021 311.37 97.5283 320.703 93.1029C332.716 87.4067 349.271 85.7224 367.49 107.261C368.989 109.031 372.561 115.211 378.972 117.621L322.945 198.204C303.317 185.028 296.351 171.823 291.619 160.214C287.449 149.514 286.664 137.792 289.368 126.632Z" fill="#F2D2B6"/>
  </g>
  <path d="M352.721 141.964C342.327 134.935 328.843 144.898 324.856 148.715C320.869 152.531 312.844 159.193 312.191 165.2C312.028 166.748 311.243 169.555 318.838 175.484C323.311 178.975 327.293 180.267 332.141 184.756C338.225 190.389 344.351 191.759 348.401 188.059C353.74 183.178 355.789 176.814 358.074 170.886C364.305 154.689 358.784 146.061 352.721 141.964Z" fill="#D9A171"/>
  <path d="M344.132 111.136C344.987 112.618 345.541 114.256 345.76 115.953C345.98 117.651 345.861 119.375 345.412 121.026C343.974 125.263 341.564 129.104 338.375 132.241C335.811 134.788 332.478 136.417 328.893 136.876C324.301 137.312 319.321 134.83 316.703 132.617C314.255 130.555 310.681 126.045 306.4 123.482C304.429 122.44 302.285 121.769 300.072 121.501C297.037 121.402 291.085 123.689 288.135 126.444C289.408 120.722 290.96 117.937 293.225 113.791C295.506 109.723 298.516 106.112 302.106 103.137C303.895 101.452 305.812 99.9089 307.839 98.5206C307.839 98.5206 312.992 98.851 315.195 99.0604C319.458 99.4614 322.559 99.2791 326.748 100.161C329.967 100.893 333.049 102.132 335.88 103.831C338.938 105.485 342.985 109.052 344.132 111.136Z" fill="#D9A171"/>
  <path opacity="0.102" d="M307.775 98.5094L307.764 98.5181C306.214 99.5924 304.73 100.759 303.32 102.013C299.34 105.257 295.952 109.167 293.308 113.569C292.474 115.03 291.318 117.252 290.78 118.522C289.665 121.077 288.776 123.726 288.123 126.436C289.324 125.308 290.698 124.379 292.193 123.684C292.685 121.327 293.406 119.023 294.344 116.805C295.694 114.124 298.653 108.75 302.325 105.097C304.579 102.758 307.01 100.595 309.595 98.6273C308.675 98.5644 307.801 98.494 307.775 98.5094Z" fill="#523618"/>
  <path d="M307.838 98.5176C302.029 103.273 298.888 106.155 295.305 111.126C291.767 116.043 288.39 122.822 287.578 129.379C287.064 124.311 288.93 119.87 291.305 115.361C293.812 110.916 296.859 106.799 300.378 103.104C301.32 101.956 302.428 100.955 303.667 100.135C304.904 99.2629 306.337 98.7075 307.838 98.5176Z" fill="#D08A5A"/>
  <mask id="mask2_9504_13649" style="mask-type:luminance" maskUnits="userSpaceOnUse" x="352" y="137" width="70" height="69">
    <path d="M381.959 137.308L421.345 166.084L392.292 205.868L352.906 177.092L381.959 137.308Z" fill="white"/>
  </mask>
  <g mask="url(#mask2_9504_13649)">
    <path d="M387.85 143.103C386.178 142.74 384.451 142.711 382.768 143.017C381.085 143.324 379.479 143.961 378.043 144.891C374.442 147.547 371.516 151.013 369.501 155.009C367.858 158.227 367.322 161.898 367.974 165.452C368.957 169.961 372.838 173.953 375.739 175.773C378.45 177.475 383.832 179.515 387.573 182.816C389.165 184.376 390.459 186.216 391.388 188.244C392.402 191.106 392.131 197.285 390.397 200.941C394.321 198.706 397.839 195.825 400.806 192.421C403.986 189.012 406.511 185.047 408.255 180.723C409.319 178.505 410.237 176.221 411.004 173.884C411.004 173.884 409.022 169.046 408.151 167.005C406.471 163.06 405.701 160.058 403.592 156.329C401.916 153.482 399.799 150.92 397.32 148.737C394.812 146.337 390.18 143.566 387.85 143.103Z" fill="#D9A171"/>
    <path opacity="0.102" d="M410.992 173.885C410.992 173.885 410.282 176.137 408.934 179.211C407.053 183.992 404.359 188.411 400.971 192.272C399.834 193.509 398.065 195.292 397.021 196.186C394.965 197.98 392.742 199.572 390.382 200.94C391.074 199.517 391.511 197.984 391.673 196.409C393.767 195.219 395.743 193.83 397.572 192.261C399.713 190.163 403.933 185.712 406.295 181.096C407.843 178.202 409.169 175.193 410.261 172.097C410.611 172.956 410.949 173.771 410.992 173.885Z" fill="#523618"/>
  </g>
  <path d="M411.499 172.953C408.741 179.931 406.703 184.308 403.053 189.235C399.45 194.102 396.138 198.276 390.138 201.037C395.121 199.987 396.655 197.962 400.229 194.332C403.699 190.593 406.693 186.438 409.142 181.963C409.948 180.715 410.566 179.354 410.974 177.925C411.529 176.33 411.709 174.629 411.499 172.953Z" fill="#D08A5A"/>
  <path opacity="0.141" d="M354.87 164.842C353.237 166.018 351.374 166.832 349.402 167.23C347.431 167.628 345.397 167.602 343.436 167.152C341.496 166.667 339.683 165.769 338.121 164.52C336.56 163.271 335.285 161.699 334.386 159.913C332.889 156.922 332.588 152.943 334.738 150.315C335.88 153.109 337.808 155.511 340.289 157.228C342.742 158.91 345.354 160.347 348.087 161.52C350.329 162.569 352.58 163.615 354.87 164.842Z" fill="black"/>
  <path d="M334.474 148.484C337.365 144.539 343.806 145.247 349.745 149.605C355.683 153.963 358.421 160.135 355.53 164.08C352.64 168.025 345.381 167.618 339.438 163.257C333.494 158.895 331.584 152.427 334.474 148.484Z" fill="#252525"/>
  <mask id="mask3_9504_13649" style="mask-type:luminance" maskUnits="userSpaceOnUse" x="344" y="156" width="9" height="9">
    <path d="M347.395 156.01L352.475 158.299L349.699 164.464L344.619 162.174L347.395 156.01Z" fill="white"/>
  </mask>
  <g mask="url(#mask3_9504_13649)">
    <path d="M347.432 158.816C349.791 157.238 351.348 157.394 351.954 158.314C352.559 159.235 351.435 160.634 349.273 161.462C347.965 162.047 346.551 162.359 345.117 162.379C344.158 162.264 345.447 160.137 347.432 158.816Z" fill="#474747"/>
  </g>
  <mask id="mask4_9504_13649" style="mask-type:luminance" maskUnits="userSpaceOnUse" x="335" y="150" width="10" height="9">
    <path d="M340.483 150.209L344.504 154.063L339.83 158.942L335.809 155.088L340.483 150.209Z" fill="white"/>
  </mask>
  <g mask="url(#mask4_9504_13649)">
    <path d="M341.91 155.085C342.482 152.304 341.761 150.918 340.68 150.708C339.6 150.498 338.72 152.06 338.767 154.371C338.715 155.803 338.957 157.232 339.477 158.567C339.935 159.409 341.418 157.423 341.91 155.085Z" fill="#474747"/>
  </g>
  <mask id="mask5_9504_13649" style="mask-type:luminance" maskUnits="userSpaceOnUse" x="344" y="156" width="9" height="9">
    <path d="M347.395 156.01L352.475 158.299L349.699 164.464L344.619 162.174L347.395 156.01Z" fill="white"/>
  </mask>
  <g mask="url(#mask5_9504_13649)">
    <path d="M347.432 158.816C349.791 157.238 351.348 157.394 351.954 158.314C352.559 159.235 351.435 160.634 349.273 161.462C347.965 162.047 346.551 162.359 345.117 162.379C344.158 162.264 345.447 160.137 347.432 158.816Z" fill="#474747"/>
  </g>
  <mask id="mask6_9504_13649" style="mask-type:luminance" maskUnits="userSpaceOnUse" x="335" y="150" width="10" height="9">
    <path d="M340.483 150.209L344.504 154.063L339.83 158.942L335.809 155.088L340.483 150.209Z" fill="white"/>
  </mask>
  <g mask="url(#mask6_9504_13649)">
    <path d="M341.91 155.085C342.482 152.304 341.761 150.918 340.68 150.708C339.6 150.498 338.72 152.06 338.767 154.371C338.715 155.803 338.957 157.232 339.477 158.567C339.935 159.409 341.418 157.423 341.91 155.085Z" fill="#474747"/>
  </g>
  <mask id="mask7_9504_13649" style="mask-type:luminance" maskUnits="userSpaceOnUse" x="344" y="156" width="9" height="9">
    <path d="M347.395 156.01L352.475 158.299L349.699 164.464L344.619 162.174L347.395 156.01Z" fill="white"/>
  </mask>
  <g mask="url(#mask7_9504_13649)">
    <path d="M347.432 158.816C349.791 157.238 351.348 157.394 351.954 158.314C352.559 159.235 351.435 160.634 349.273 161.462C347.965 162.047 346.551 162.359 345.117 162.379C344.158 162.264 345.447 160.137 347.432 158.816Z" fill="#474747"/>
  </g>
  <mask id="mask8_9504_13649" style="mask-type:luminance" maskUnits="userSpaceOnUse" x="335" y="150" width="10" height="9">
    <path d="M340.483 150.209L344.504 154.063L339.83 158.942L335.809 155.088L340.483 150.209Z" fill="white"/>
  </mask>
  <g mask="url(#mask8_9504_13649)">
    <path d="M341.91 155.085C342.482 152.304 341.761 150.918 340.68 150.708C339.6 150.498 338.72 152.06 338.767 154.371C338.715 155.803 338.957 157.232 339.477 158.567C339.935 159.409 341.418 157.423 341.91 155.085Z" fill="#474747"/>
  </g>
  <path opacity="0.671" d="M353.397 156.806C351.076 158.659 348.554 160.246 345.878 161.535C345.52 161.754 345.125 161.905 344.712 161.982C344.505 162.016 344.292 161.995 344.095 161.92C343.899 161.846 343.725 161.721 343.593 161.558C343.477 161.351 343.426 161.113 343.447 160.877C343.468 160.641 343.56 160.416 343.711 160.233C344.019 159.87 344.398 159.574 344.825 159.363C346.015 158.67 347.202 157.983 348.392 157.29C349.131 156.803 349.945 156.442 350.802 156.221C351.251 156.129 351.715 156.133 352.162 156.234C352.61 156.335 353.031 156.53 353.397 156.806Z" fill="#252525"/>
  <path opacity="0.671" d="M340.996 149.087C340.601 152.016 340.206 154.945 339.808 157.873C339.749 158.167 339.749 158.471 339.811 158.766C339.845 158.912 339.922 159.045 340.033 159.148C340.143 159.25 340.281 159.318 340.429 159.342C340.863 159.368 341.148 158.915 341.314 158.517C342.249 156.066 342.594 153.429 342.323 150.82C342.326 150.336 342.2 149.859 341.959 149.44C341.686 149.04 341.031 148.785 340.996 149.087Z" fill="#252525"/>
  <mask id="mask9_9504_13649" style="mask-type:luminance" maskUnits="userSpaceOnUse" x="310" y="102" width="35" height="36">
    <path d="M326.867 102.25L344.866 115.403L328.703 137.536L310.704 124.384L326.867 102.25Z" fill="white"/>
  </mask>
  <g mask="url(#mask9_9504_13649)">
    <path d="M337.945 124.84C345.149 115.443 334.935 108.462 334.935 108.462C334.935 108.462 322.569 107.069 318.116 114.256C313.664 121.442 315.003 128.712 320.6 131.409C326.591 134.292 332.804 131.552 337.945 124.84Z" fill="white"/>
    <path d="M338.861 111.623C331.529 102.213 320.406 111.694 320.463 111.658C322.554 112.044 324.62 112.554 326.651 113.185C336.177 116.911 338.859 123.604 338.859 123.604C338.859 123.604 343.657 117.782 338.861 111.623Z" fill="#D39266"/>
    <path d="M329.225 125.252C327.495 124.472 326.724 122.437 327.503 120.707C328.283 118.977 330.317 118.207 332.046 118.986C333.776 119.766 334.547 121.801 333.768 123.531C332.989 125.261 330.955 126.032 329.225 125.252Z" fill="black" stroke="black" stroke-width="1.11383" stroke-miterlimit="10"/>
    <path d="M330.866 122.628C330.085 122.276 329.737 121.357 330.089 120.576C330.44 119.795 331.359 119.447 332.14 119.799C332.921 120.151 333.269 121.07 332.917 121.851C332.565 122.632 331.647 122.98 330.866 122.628Z" fill="white"/>
    <path opacity="0.141" d="M319.328 112.693C318.519 113.592 317.84 114.6 317.311 115.688C316.252 117.686 315.627 119.886 315.478 122.143C315.341 124.067 315.741 129.327 320.898 131.537C315.696 119.081 328.484 109.657 333.065 107.699C328.219 106.627 322.667 109.402 319.328 112.693Z" fill="black"/>
  </g>
  <path d="M377.183 153.51C383.945 143.785 393.701 151.397 393.701 151.397C393.701 151.397 398.79 162.766 393.293 169.179C387.796 175.592 380.476 176.54 376.207 172.029C371.631 167.204 372.358 160.446 377.183 153.51Z" fill="white"/>
  <path d="M389.489 148.619C400.676 152.743 395.032 166.227 395.049 166.159C394.044 164.285 392.929 162.472 391.709 160.73C385.264 152.786 378.076 152.269 378.076 152.269C378.076 152.269 382.162 145.918 389.489 148.619Z" fill="#D39266"/>
  <path d="M380.585 162.783C378.855 162.003 378.085 159.968 378.864 158.238C379.643 156.508 381.677 155.738 383.407 156.517C385.137 157.297 385.907 159.332 385.128 161.062C384.349 162.792 382.315 163.562 380.585 162.783Z" fill="black" stroke="black" stroke-width="1.11383" stroke-miterlimit="10"/>
  <path d="M381.957 159.962C381.176 159.61 380.828 158.691 381.179 157.91C381.531 157.129 382.45 156.781 383.231 157.133C384.012 157.485 384.36 158.404 384.008 159.185C383.656 159.966 382.738 160.314 381.957 159.962Z" fill="white"/>
  <path opacity="0.141" d="M394.412 167.556C393.803 168.602 393.048 169.556 392.17 170.389C390.587 172.007 388.682 173.274 386.579 174.108C384.781 174.825 379.662 176.044 375.982 171.797C389.428 172.967 394.518 157.917 394.984 152.952C397.486 157.236 396.53 163.377 394.412 167.556Z" fill="black"/>
  <path opacity="0.141" d="M410.333 87.46C408.936 89.2029 407.719 91.082 406.699 93.0689C406.282 93.781 405.676 94.3636 404.948 94.752C404.69 94.804 404.424 94.8032 404.166 94.7496C403.908 94.6959 403.663 94.5905 403.447 94.4397C403.447 94.4397 404.351 99.2103 402.708 101.915C397.467 110.529 388.868 119.074 380.511 117.537C414.937 139.214 411.9 191.471 343.855 207.074C354.274 217.633 351.854 310.118 258.847 285.792C263.918 285.795 364.442 313.616 369.306 312.539C371.56 312.035 368.112 332.615 369.822 332.048C370.926 331.682 365.846 331.79 368.061 330.801C369.151 330.313 374.436 330.365 374.998 330.064C375.295 329.907 375.748 329.686 376.262 329.386C377.045 328.961 377.8 328.487 378.523 327.966C379.293 327.384 379.986 326.705 380.582 325.945C381.221 325.129 381.706 324.203 382.015 323.214C382.884 321.223 382.612 317.451 382.596 317.228C382.349 314.737 381.902 312.27 381.259 309.85C376.939 295.691 367.665 278.435 370.602 260.846C371.762 254.453 373.961 248.293 377.112 242.612C392.338 216.723 401.394 208.714 412.208 192.035C414.725 188.534 416.988 184.856 418.979 181.031C420.565 178.018 421.883 174.871 422.917 171.627C423.647 169.552 424.249 167.435 424.719 165.286C425.41 162.421 425.892 159.51 426.163 156.576C427.176 144.083 425.026 136.083 424.918 135.616C424.815 135.185 423.363 129.876 423.188 129.304C422.095 126.191 420.823 123.143 419.377 120.177C417.793 117.205 415.984 114.357 413.967 111.66C414.881 111.801 415.814 111.759 416.711 111.536C418.024 111.286 419.207 110.58 420.048 109.541C421.433 107.517 420.094 104.536 417.982 102.795C416.522 101.587 414.703 100.895 412.81 100.828C413.655 100.627 414.461 100.29 415.198 99.83C416.305 99.0664 418.219 97.1259 418.81 93.0826C418.958 92.2424 418.936 91.3809 418.746 90.5492C418.556 89.7175 418.2 88.9323 417.702 88.2402C416.496 86.5965 414.567 86.4428 413.032 86.3115C412.024 86.359 411.066 86.7665 410.333 87.46Z" fill="#523618"/>
  <path opacity="0.141" d="M349.718 176.309C344.26 175.816 339.001 174.012 334.389 171.05C329.777 168.089 325.948 164.056 323.229 159.297C323.127 159.116 322.97 172.872 329.522 176.767C339.872 182.906 349.782 176.317 349.718 176.309Z" fill="#141414"/>
  <path d="M353.468 175.451C341.879 174.311 327.942 164.831 322.955 155.707C322.853 155.526 323.362 170.472 330.488 176.183C341.456 181.131 353.523 175.453 353.468 175.451Z" fill="#252525"/>
  <path d="M337.978 178.102C338.135 177.16 337.983 176.192 337.545 175.343C337.107 174.494 336.406 173.81 335.546 173.393C334.631 172.832 332.378 172.465 332.038 173.325C332.737 172.81 332.232 171.576 331.293 170.888C330.263 170.103 328.964 169.758 327.68 169.928C327.162 169.978 326.653 170.098 326.168 170.287C326.168 170.287 327.502 174.583 330.487 176.185C332.839 177.296 335.381 177.947 337.978 178.102Z" fill="#E0A2A2"/>
  <path d="M369.763 244.757C330.082 278.047 282.097 276.675 256.289 249.424C223.158 214.438 238.339 169.827 240.245 163.453C233.717 168.575 233.893 175.861 232.874 184.101C231.103 198.439 230.32 213.239 234.332 227.12C239.488 244.958 252.644 260.162 269.207 268.559C285.77 276.956 305.452 278.648 323.43 273.999C341.407 269.351 357.588 258.536 369.763 244.757Z" fill="#BE7E51"/>
  <path d="M368.46 252.634C355.738 258.659 293.377 289.703 253.87 256.564C213.03 222.304 236.475 163.83 236.475 163.83C236.475 163.83 224.94 158.658 218.698 158.472C200.325 157.91 181.706 166.114 167.534 177.969C173.851 181.157 182.631 188.684 187.73 194.515C181.278 200.293 177.565 202.525 172.832 213.438C164.658 210.936 147.211 223.422 138.158 230.553C129.105 237.685 121.744 293.446 121.744 293.446C121.744 293.446 123.222 306.419 181.31 349.27C207.835 368.838 254.363 476.869 259.417 464.698C264.472 452.527 268.793 441.046 291.558 418.289C314.322 395.532 315.974 384.694 322.528 369.586C345.796 315.956 337.684 302.793 337.819 302.641C340.281 299.873 344.658 308.673 349.066 314.735C353.474 320.797 347.44 315.93 345.458 323.152C351.228 309.86 358.602 321.498 361.479 311.001C364.356 300.505 369.065 302.345 378.858 297.599C381.042 296.542 370.237 290.65 371.976 288.952C374.654 286.35 379.097 272.751 376.342 268.429C374.333 265.297 380.14 262.437 368.46 252.634Z" fill="#232D40"/>
  <g opacity="0.141">
    <mask id="mask10_9504_13649" style="mask-type:luminance" maskUnits="userSpaceOnUse" x="175" y="170" width="264" height="441">
      <path d="M175.678 574.777L255.757 610.871C255.813 610.896 255.874 610.91 255.935 610.912C255.997 610.914 256.058 610.904 256.116 610.882C256.173 610.86 256.226 610.827 256.271 610.785C256.316 610.743 256.352 610.692 256.377 610.636L438.039 207.27C438.064 207.214 438.078 207.153 438.08 207.092C438.082 207.03 438.072 206.969 438.05 206.912C438.028 206.854 437.995 206.802 437.953 206.757C437.911 206.712 437.86 206.676 437.804 206.651L357.724 170.557C357.668 170.532 357.607 170.518 357.546 170.516C357.485 170.514 357.423 170.524 357.366 170.546C357.308 170.567 357.256 170.6 357.211 170.642C357.166 170.685 357.13 170.735 357.105 170.791L175.442 574.158C175.417 574.214 175.403 574.275 175.401 574.336C175.399 574.398 175.41 574.459 175.432 574.517C175.453 574.574 175.487 574.627 175.529 574.672C175.571 574.716 175.622 574.752 175.678 574.777Z" fill="white"/>
    </mask>
    <g mask="url(#mask10_9504_13649)">
      <path d="M347.718 274.506C315.867 316.516 283.063 348.088 252.25 465.01C231.002 537.017 256.291 482.548 256.291 482.548L255.75 469.01C255.75 469.01 249.189 477.752 252.25 472.51C252.652 476.506 253.25 467.51 275.489 435.691C275.728 435.35 283.97 424.982 298.7 410.703C303.796 404.936 307.746 399.589 309.413 397.316L313.877 389.73L317.449 383.036L320.124 396.425L321.589 397.375C320.956 395.584 315.647 383.836 315.217 381.985C314.655 372.167 323.42 381.092 328.485 371.016" fill="black"/>
    </g>
  </g>
  <path d="M379.702 284.878C381.788 278.483 379.199 272.243 374.426 269.855C369.653 267.466 363.196 268.502 357.408 271.487C351.619 274.472 345.242 278.351 341.723 284.316C325.104 312.429 319.264 335.91 314.132 357.366C307.731 384.146 322.758 407.541 332.246 415.954C345.823 378.201 367.901 320.964 379.702 284.878Z" fill="#D08A5A"/>
  <path opacity="0.141" d="M346.846 326.612C330.495 350.231 349.931 372.92 345.129 395.355C343.305 403.888 339.665 411.163 332.247 415.952C328.913 412.598 325.886 408.953 323.2 405.06C319.446 399.277 316.605 392.95 314.777 386.302C314.222 384.073 313.846 382.491 313.321 379.594C312.743 375.979 312.508 372.318 312.619 368.66C312.76 364.855 313.267 361.073 314.133 357.366C316.938 344.703 320.149 334.154 322.489 326.678C325.165 318.143 331.086 304.649 331.086 304.649L329.633 304.602C329.633 304.602 336.641 290.497 341.099 291.769C344.592 292.77 355.389 298.129 356.767 301.411C358.145 304.694 348.234 324.609 346.846 326.612Z" fill="#141414"/>
  <path d="M327.842 308.74C336.975 287.704 355.37 261.486 364.384 257.142C368.075 255.362 368.763 255.442 372.203 255.465C375.643 255.489 380.229 260.184 380.667 263.604C380.941 265.726 380.048 267.033 379.087 268.944C372.471 282.166 365.551 303.282 357.499 315.681C356.332 313.949 338.438 307.045 327.842 308.74Z" fill="#232D40"/>
  <path d="M364.334 219.912C364.338 219.901 364.345 219.892 364.354 219.885C364.364 219.879 364.375 219.876 364.386 219.877C364.398 219.879 364.408 219.884 364.417 219.892C364.425 219.9 364.43 219.91 364.431 219.921C365.705 230.978 368.163 241.91 372.797 248.582C377.444 255.269 382.578 257.799 389.859 256.462C389.867 256.46 389.876 256.46 389.884 256.463C389.893 256.465 389.9 256.47 389.906 256.476C389.912 256.482 389.916 256.489 389.919 256.498C389.921 256.506 389.922 256.515 389.92 256.523C389.714 257.465 389.317 258.356 388.755 259.139C388.193 259.923 387.477 260.584 386.651 261.081C385.186 261.907 382.835 260.723 382.113 262.055C378.661 268.476 366.962 256.198 365.175 252.353C360.639 242.07 360.337 230.414 364.334 219.912Z" fill="#F2DFA7"/>
  <path opacity="0.141" d="M387.419 256.767C379.918 257.017 376.667 253.38 374.592 250.926C372.694 248.746 371.167 246.269 370.073 243.593C367.272 237.097 366.411 232.71 365.053 224.688C363.93 228.127 363.214 242.464 367.754 250.782C370.254 255.366 374.426 258.774 378.486 262.056C383.444 263.175 385.848 258.342 387.419 256.767Z" fill="#141414"/>
  <path d="M412.946 230.177C414.917 230.839 416.355 225.378 416.782 220.248C416.787 220.224 416.798 220.203 416.816 220.186C416.834 220.17 416.856 220.159 416.88 220.156C416.904 220.154 416.928 220.159 416.949 220.171C416.97 220.183 416.987 220.201 416.997 220.223C419.681 226.215 417.083 240.998 414.463 246.964C411.832 252.972 405.64 261.036 405.625 261.069L405.613 254.694" fill="#F2DFA7"/>
  <path opacity="0.141" d="M416.339 223.708C415.554 237.809 409.485 252.406 401.639 262.481C407.223 254.176 411.616 235.994 415.167 228.11C415.716 226.69 416.109 225.213 416.339 223.708Z" fill="#141414"/>
  <path d="M399.875 263.482C414.013 249.456 417.345 230.6 414.485 211.608C414.48 211.577 414.465 211.548 414.441 211.528C414.417 211.507 414.387 211.495 414.356 211.495C414.324 211.494 414.294 211.505 414.27 211.525C414.245 211.545 414.229 211.573 414.223 211.603C408.131 236.138 402.248 245.064 396.983 260.353C396.976 260.368 396.973 260.385 396.973 260.402C396.973 260.419 396.976 260.436 396.982 260.452C396.989 260.468 396.998 260.482 397.01 260.494C397.022 260.506 397.036 260.516 397.052 260.522C397.068 260.529 397.084 260.532 397.101 260.532C397.118 260.533 397.135 260.529 397.151 260.523C397.167 260.517 397.181 260.507 397.193 260.495C397.205 260.483 397.215 260.469 397.221 260.453C400.217 254.401 404.499 248.402 404.699 241.929C404.657 234.217 401.851 226.774 396.792 220.953C391.154 214.906 378.152 210.532 365.298 217.421C365.271 217.434 365.249 217.455 365.236 217.482C365.223 217.509 365.219 217.54 365.225 217.569C365.232 217.598 365.248 217.624 365.271 217.643C365.294 217.662 365.323 217.673 365.353 217.673C399.858 219.499 393.757 241.113 392.398 246.411C391.165 251.218 390.048 256.696 387.847 261.239C387.835 261.266 387.813 261.287 387.787 261.3C387.76 261.313 387.73 261.316 387.702 261.308C386.966 261.159 383.034 261.042 399.746 263.529C399.77 263.533 399.794 263.531 399.817 263.523C399.84 263.515 399.86 263.5 399.875 263.482Z" fill="#F2DFA7"/>
  <path opacity="0.141" d="M400.62 259.765C399.275 258.668 397.598 258.057 395.863 258.032C404.651 244.636 410.658 225.166 412.519 218.095C412.689 219.097 414.44 237.476 400.62 259.765Z" fill="#141414"/>
  <path d="M399.176 261.714C399.102 261.863 399.094 261.595 399.15 261.757C404.686 277.686 414.812 239.26 398.056 221.704C392.068 215.431 378.492 210.684 365.333 217.363C365.212 217.422 365.264 217.608 365.4 217.62C401.205 220.291 395.391 242.093 394.111 247.44C392.947 252.291 391.93 257.824 389.742 262.39C389.73 262.416 389.709 262.438 389.682 262.451C389.656 262.464 389.626 262.467 389.597 262.459C388.83 262.289 384.753 262.073 402.137 264.997C402.177 265.005 402.678 254.532 399.176 261.714Z" fill="#F2DFA7"/>
  <path opacity="0.141" d="M397.093 258.229C400.972 246.544 402.063 234.208 393.025 224.137C388.978 219.624 378.637 216.038 370.765 218.142C383.42 219.929 388.567 224.124 391.455 228.927C393.973 233.114 394.012 238.469 393.277 242.411C392.382 247.216 391.029 252.036 389.625 256.834C391.471 256.842 393.037 256.501 394.877 256.506C395.23 256.518 397.047 257.221 397.093 258.229Z" fill="#141414"/>
  <path d="M405.065 258.328C405.623 258.569 406.072 259.007 406.326 259.558C411.845 272.212 412.621 290.089 407.591 308.666C403.75 322.848 402.763 339.317 395.415 360.889C377.215 414.347 348.245 416.379 333.525 416.283C332.793 416.275 332.094 415.978 331.582 415.455C299.599 383.073 326.758 333.551 360.895 293.324C370.641 281.834 378.368 265.968 384.386 258.272C387.948 253.71 398.081 255.146 405.065 258.328Z" fill="#D08A5A"/>
  <path opacity="0.141" d="M410.95 286.728C410.753 298.939 407.449 308.42 405.294 318.992C401.634 336.957 400.328 347.203 395.454 360.906C391.955 370.744 387.425 381.536 381.647 390.003C379.203 393.714 376.42 397.19 373.331 400.385C367.944 405.889 361.477 410.22 354.338 413.108C347.538 415.744 338.386 416.497 333.332 416.292C332.798 416.22 332.292 416.013 331.861 415.69C329.108 412.981 326.613 410.022 324.407 406.852C341.728 383.089 367.43 368.158 380.918 342.018C394.407 315.878 403.492 287.261 403.963 257.854C405.371 258.475 405.659 258.525 406.179 259.245C406.339 259.513 406.474 259.795 406.583 260.088C406.799 260.584 407.005 261.102 407.292 261.86C408.36 264.79 409.192 267.801 409.781 270.864C410.697 276.1 411.089 281.415 410.95 286.728Z" fill="#141414"/>
  <path opacity="0.141" d="M334.529 172.988C333.841 173.013 333.167 173.188 332.553 173.501C331.94 173.813 331.403 174.256 330.978 174.799C331.376 174.187 331.81 173.6 332.277 173.04C332.361 173.003 332.812 172.571 334.529 172.988Z" fill="#141414"/>
</svg>
