<svg width="533" height="503" viewBox="0 0 533 503" fill="none" xmlns="http://www.w3.org/2000/svg">
<g filter="url(#filter0_b_4618_54638)">
<path d="M311.094 18.7082C417.897 51.1656 516.273 123.623 516.273 252.215C516.273 380.807 408.883 485.043 276.41 485.043C143.938 485.043 38.4133 404.031 4.0887 282.299C-9.60735 231.118 16.149 166.523 89.0594 122.383C161.97 78.2432 204.291 -13.7493 311.094 18.7082Z" fill="url(#paint0_linear_4618_54638)" fill-opacity="0.4"/>
</g>
<g filter="url(#filter1_b_4618_54638)">
<path d="M305.813 39.4923C401.351 69.1085 489.35 135.223 489.35 252.559C489.35 369.895 393.287 465.006 274.789 465.006C156.29 465.006 61.8966 391.085 31.1928 280.009C18.9414 233.308 41.9809 174.368 107.2 134.092C172.42 93.8158 210.276 9.87606 305.813 39.4923Z" fill="url(#paint1_linear_4618_54638)"/>
</g>
<path d="M283.855 0.601883C271.909 0.581824 260.041 2.51572 248.719 6.32699C243.299 8.15587 238.013 10.358 232.897 12.9176C227.763 15.4932 222.778 18.3565 217.967 21.4938C213.3 24.5219 208.645 27.8539 203.73 31.6783C199.346 35.0928 194.853 38.8275 189.994 43.0966C180.955 51.0379 171.944 59.7152 163.23 68.1067C154.105 76.8941 144.668 85.9826 134.994 94.439C129.78 98.9977 124.929 103.001 120.166 106.676C114.81 110.809 109.709 114.422 104.565 117.721C86.934 129.032 71.4897 141.995 58.6624 156.252C46.9231 169.156 37.169 183.735 29.7202 199.51C23.0744 213.59 18.7752 228.661 16.9928 244.128C16.1894 251.356 16.0168 258.64 16.477 265.898C16.9275 272.933 18.018 279.913 19.735 286.75C28.2095 318.595 41.1223 348.179 58.1134 374.68C74.5521 400.458 95.1305 423.349 119.02 442.43C142.785 461.349 169.597 476.084 198.308 486.006C227.846 496.238 259.319 501.423 291.85 501.423C300.032 501.422 308.209 500.997 316.347 500.15C340.057 497.675 363.247 491.573 385.105 482.058C399.383 475.836 413.014 468.226 425.802 459.337C438.558 450.463 450.432 440.385 461.262 429.243C483.212 406.639 500.641 380.05 512.612 350.906C515.647 343.526 518.358 335.908 520.67 328.262C523.008 320.53 524.995 312.583 526.574 304.643C528.175 296.599 529.397 288.365 530.205 280.172C531.026 271.857 531.443 263.379 531.443 254.971C531.443 246.582 531.063 238.227 530.313 230.138C529.578 222.205 528.467 214.312 527.012 206.676C525.585 199.191 523.788 191.75 521.671 184.561C519.597 177.516 517.157 170.519 514.423 163.765C511.745 157.149 508.706 150.587 505.399 144.264C502.159 138.07 498.569 131.933 494.73 126.027C490.972 120.245 486.873 114.526 482.547 109.031C478.314 103.653 473.749 98.3428 468.981 93.2503C464.315 88.2673 459.329 83.3584 454.162 78.6601C449.106 74.0641 443.744 69.547 438.222 65.2381C427.184 56.6552 415.584 48.8199 403.501 41.7845C380.289 28.2223 354.347 16.7829 326.394 7.78355C319.142 5.42513 311.727 3.60155 304.208 2.32748C297.481 1.19804 290.673 0.62132 283.852 0.603086M283.852 0.00120368C296.931 0.00120368 311.075 2.21854 326.579 7.21056C433.532 41.6491 532.044 118.53 532.044 254.977C532.044 391.424 424.506 502.027 291.85 502.027C159.195 502.027 53.5247 416.067 19.1524 286.899C5.43788 232.592 31.231 164.053 104.239 117.217C166.667 77.1698 206.703 0 283.855 0L283.852 0.00120368Z" fill="url(#paint2_linear_4618_54638)"/>
<mask id="mask0_4618_54638" style="mask-type:alpha" maskUnits="userSpaceOnUse" x="27" y="34" width="462" height="433">
<path d="M304.871 40.715C400.409 70.3312 488.408 136.446 488.408 253.781C488.408 371.117 392.345 466.229 273.847 466.229C155.348 466.229 60.9547 392.308 30.2509 281.232C17.9995 234.531 41.039 175.591 106.258 135.315C171.478 95.0385 209.335 11.0987 304.871 40.715Z" fill="#D9D9D9"/>
</mask>
<g mask="url(#mask0_4618_54638)">
<path d="M415.002 393.682L414.99 417.801C414.99 419.45 414.081 420.95 412.644 421.753C398.22 429.798 386.705 442.954 380.627 458.312C379.93 460.066 378.179 460.842 376.315 461.136C340.033 466.866 294.407 468.249 268.774 458.786C266.553 457.967 260.439 452.586 260.439 452.586C260.439 452.586 265.464 422.967 263.244 408.26C262.875 405.812 264.556 403.525 266.999 403.145C312.779 396.004 363.074 399.369 409.542 389.279C412.354 388.668 415.006 390.811 415.002 393.682Z" fill="#E8E8E8"/>
<path d="M415.002 396.176C415.307 402.341 414.915 411.773 414.853 418.141C414.837 419.673 413.96 421.008 412.652 421.807C398.643 430.377 392.85 435.207 379.601 459.768C379.107 460.681 374.361 461.402 369.728 462.114C363.14 463.129 355.906 463.971 353.964 463.971C385.378 445.331 396.849 418.905 385.73 408.78C408.269 399.815 396.077 404.629 415.002 396.176Z" fill="#D5D5D5"/>
<path d="M381.453 195.753C387.943 184.92 406.761 177.807 418.757 181.767C430.749 185.726 437.423 193.865 442.185 205.565C446.948 217.264 450.112 237.979 450.371 249.032C450.899 271.797 446.203 317.415 441.39 339.67C439.068 350.417 431.113 376.69 429.214 381.939C427.526 386.604 427.632 386.952 426.801 387.779C414.183 400.398 374.118 414.659 349.397 417.593C310.092 422.254 260.361 410.562 232.887 403.027C224.564 400.743 251.235 409.309 252.066 409.893C253.397 410.825 255.218 409.693 255.019 408.079C254.889 407.057 254.823 405.768 254.866 404.151C255.05 397.406 260.831 391.954 267.124 389.533C273.422 387.113 281.901 390.332 286.977 385.891C334.652 344.154 343.671 355.779 356.893 326.893C370.115 298.007 373.138 265.608 374.846 233.883C375.598 219.943 376.824 203.485 381.453 195.753Z" fill="#F2F2F2"/>
<path d="M384.418 404.017C339.179 423.538 282.215 411.549 280.593 411.467C308.298 420.005 339.845 418.787 348.916 417.655C359.874 416.284 371.654 413.452 382.432 409.923C388.879 407.812 398.353 404.264 404.071 401.639C409.867 398.98 414.136 396.971 419.458 393.504C421.687 392.051 425.231 389.646 427.209 387.312C424.738 386.595 416.968 383.466 416.098 383.09C416.094 383.086 407.349 394.119 384.418 404.017Z" fill="#D5D5D5"/>
<mask id="mask1_4618_54638" style="mask-type:luminance" maskUnits="userSpaceOnUse" x="171" y="80" width="331" height="299">
<path d="M235.75 341.497L452.616 378.283C452.772 378.236 501.548 203.91 501.501 203.754L346.308 80.9604C346.261 80.8037 328.175 88.551 328.022 88.598L171.811 137.592C171.654 137.639 171.568 137.808 171.615 137.964L235.374 341.309C235.425 341.462 235.594 341.548 235.75 341.497Z" fill="white"/>
</mask>
<g mask="url(#mask1_4618_54638)">
<path d="M191.048 191.546C192.047 209.422 200.416 230.403 227.248 241.633C230.859 243.145 235.41 246.235 236.373 249.145C240.094 260.378 239.526 270.006 245.346 280.706C252.172 293.259 252.004 300.129 257.585 307.062C258.869 308.66 270.391 301.124 303.481 285.821C314.659 280.651 321.634 295.797 327.019 284.721C332.404 273.648 343.311 269.261 344.244 256.982C344.972 247.379 343.727 233.506 348.129 225.081C351.791 218.07 358.221 211.376 366.27 210.389C366.556 210.354 372.003 207.51 371.753 207.373C357.755 199.688 402.473 205.395 402.473 205.395C402.473 205.395 372.896 188.706 344.827 168.5C322.852 152.68 317.365 144.94 306.544 137.785C298.198 132.262 281.686 125.447 264.897 128.067C264.587 128.114 264.552 128.553 264.85 128.647C267.329 129.45 269.929 128.937 270.505 126.332C271.155 123.379 267.607 119.403 264.579 119.439C261.932 119.466 258.975 121.009 257.945 124.084C257.945 124.084 258.991 122.169 259.065 122.032C260.048 120.296 259.386 118.044 258.932 117.128C258.027 115.303 256.002 112.353 253.038 112.326C250.382 112.302 248.447 114.742 248.471 116.548C248.51 119.905 252.846 125.572 249.419 126.645C218.314 136.14 188.969 154.251 191.048 191.546Z" fill="#D08A5A"/>
</g>
<mask id="mask2_4618_54638" style="mask-type:luminance" maskUnits="userSpaceOnUse" x="184" y="132" width="140" height="122">
<path d="M214.605 253.089L323.646 211.341C323.799 211.282 323.877 211.121 323.826 210.98L293.905 132.822C293.85 132.681 293.681 132.614 293.529 132.673L184.491 174.418C184.338 174.476 184.26 174.637 184.311 174.778L214.229 252.936C214.287 253.081 214.452 253.148 214.605 253.089Z" fill="white"/>
</mask>
<g mask="url(#mask2_4618_54638)">
<path d="M227.369 162.699C229.55 162.409 236.549 161.716 241.225 156.839C244.687 153.224 249.309 149.903 254.071 147.803C260.122 145.136 269.22 144.874 274.558 146.08C280.609 147.451 290.944 152.092 298.045 157.262C304.82 162.197 310.049 171.417 310.805 180.019C311.725 190.5 307.613 199.802 301.578 207.859C293.921 218.081 285.7 223.913 276.548 228.656C256.609 238.993 243.144 238.691 232.088 237.328C224.6 236.408 214.558 232.769 206.964 225.55C204.763 223.459 202.911 220.063 201.211 217.584C196.891 211.286 195.72 198.431 196.641 190.081C197.823 179.337 200.929 166.2 227.369 162.699Z" fill="#F2D2B6"/>
</g>
<path d="M200.768 192.975C201.99 190.68 203.643 188.808 205.409 186.904C207.175 184.997 209.721 183.493 211.37 182.725C214.491 181.264 219.097 181.746 221.427 182.376C223.409 182.913 225.822 184.726 227.564 186.959C229.421 189.34 229.871 193.551 230.13 196.563C230.384 199.579 229.029 204.976 227.134 207.326C225.755 209.034 222.837 211.462 218.122 212.512C212.443 213.781 210.653 214.102 208.734 216.139C207.559 217.384 206.333 219.158 205.707 220.149C204.861 221.485 204.453 222.076 204.297 222.386C201.869 219.499 199.938 215.723 198.708 212.739C198.262 211.662 196.1 207.111 196.143 201.576C196.143 201.702 198.798 196.676 200.768 192.975Z" fill="#D9A171"/>
<path opacity="0.1686" d="M196.143 201.62C196.143 201.62 196.198 203.649 196.398 205.114C196.515 205.964 197.302 209.352 198.332 211.862C199.836 215.528 201.528 219.116 204.285 222.394C205.539 220.42 206.087 219.523 206.087 219.523C206.087 219.523 203.306 216.688 201.144 211.232C200.083 208.552 198.61 205.415 197.576 198.968C196.817 200.398 196.143 201.62 196.143 201.62Z" fill="#523618"/>
<path d="M224.553 191.095C221.733 186.583 211.053 186.876 211.053 186.876C211.053 186.876 205.115 195.623 208.754 201.811C212.392 207.999 218.384 209.872 222.626 206.73C227.165 203.374 228.359 197.181 224.553 191.095Z" fill="white"/>
<path opacity="0.1412" d="M221.599 196.59C222.335 198.235 223.863 201.321 223.596 205.951C225.132 204.431 226.146 202.696 226.6 200.585C227.051 198.494 226.812 196.085 225.986 193.97C224.623 194.839 223.706 195.458 221.599 196.59Z" fill="#111111"/>
<path d="M217.201 206.68C218.815 206.68 220.123 205.372 220.123 203.758C220.123 202.144 218.815 200.836 217.201 200.836C215.587 200.836 214.279 202.144 214.279 203.758C214.279 205.372 215.587 206.68 217.201 206.68Z" fill="#111111" stroke="#111111" stroke-miterlimit="10"/>
<path d="M216.508 205.955C217.237 205.955 217.828 205.364 217.828 204.635C217.828 203.906 217.237 203.315 216.508 203.315C215.779 203.315 215.188 203.906 215.188 204.635C215.188 205.364 215.779 205.955 216.508 205.955Z" fill="white"/>
<path d="M212.314 185.49C203.271 188.933 208.304 201.106 208.288 201.056C208.288 201.056 215.459 200.918 226.104 193.896C226.104 193.896 225.955 193.402 225.505 192.521C223.934 189.438 219.536 182.741 212.314 185.49Z" fill="#D39266"/>
<path opacity="0.1294" d="M226.068 193.779C226.06 193.751 226.049 193.728 226.037 193.692C226.005 193.606 225.958 193.493 225.9 193.356C225.755 193.023 225.52 192.553 225.304 192.134C225.12 191.789 224.901 191.409 224.658 191.009C224.212 190.297 223.687 189.564 223.146 188.891C222.727 188.385 222.269 187.892 221.764 187.43C221.529 187.218 221.263 186.999 220.965 186.764C220.703 186.56 220.409 186.352 220.107 186.161C219.398 185.718 218.627 185.358 217.793 185.123C217.385 185.017 216.962 184.935 216.571 184.884C215.321 184.739 213.955 184.884 212.462 185.436C212.349 185.483 212.231 185.526 212.118 185.577C212.082 185.593 212.047 185.608 212.008 185.624C211.616 185.8 211.217 186 210.798 186.235C210.79 186.239 210.786 186.243 210.778 186.251C212.529 186.274 215.78 187.743 219.559 192.96C220.452 194.194 221.118 195.416 221.607 196.591C223.025 195.827 224.529 194.938 226.111 193.892C226.103 193.896 226.092 193.853 226.068 193.779Z" fill="#111111"/>
<path d="M264.626 160.779C262.887 162.381 260.568 165.385 260.482 169.298C260.396 173.211 261.622 178.013 263.455 181.471C265.029 184.436 267.551 187.108 270.63 188.447C274.652 190.198 279.908 189.438 282.943 188.228C285.779 187.096 290.376 184.1 295.025 183.062C296.611 182.705 299.948 182.74 301.35 183.148C304.123 183.959 308.126 187.621 309.963 190.981C312.077 182.29 310.534 176.818 308.933 171.711C307.436 166.94 305.212 163.404 305.212 163.404C305.212 163.404 304.401 162.992 303.555 162.616C301.452 161.68 296.694 158.993 294.45 158.484C290.47 157.583 287.725 156.502 283.668 156.056C280.249 155.68 277.679 156.048 274.296 156.651C271.029 157.235 266.29 159.248 264.626 160.779Z" fill="#D9A171"/>
<path d="M283.496 167.848C280.758 162.878 269.404 162.58 269.404 162.58C269.404 162.58 262.601 171.569 266.114 178.376C269.627 185.184 275.878 187.522 280.562 184.416C285.571 181.091 287.193 174.554 283.496 167.848Z" fill="white"/>
<path opacity="0.1412" d="M280.049 173.544C280.739 175.342 282.184 178.722 281.639 183.642C283.355 182.11 284.53 180.316 285.133 178.092C285.732 175.887 285.611 173.305 284.855 171.002C283.359 171.848 282.348 172.456 280.049 173.544Z" fill="#111111"/>
<path d="M274.08 184.127C275.795 184.127 277.186 182.731 277.186 181.009C277.186 179.287 275.795 177.892 274.08 177.892C272.365 177.892 270.974 179.287 270.974 181.009C270.974 182.731 272.365 184.127 274.08 184.127Z" fill="#111111" stroke="#111111" stroke-miterlimit="10"/>
<path d="M273.375 183.641C274.149 183.641 274.777 183.01 274.777 182.231C274.777 181.453 274.149 180.821 273.375 180.821C272.6 180.821 271.973 181.453 271.973 182.231C271.973 183.01 272.6 183.641 273.375 183.641Z" fill="white"/>
<path d="M270.821 161.174C261.026 164.331 265.679 177.601 265.664 177.543C265.664 177.543 273.285 177.805 284.987 170.923C284.987 170.923 284.858 170.391 284.427 169.423C282.935 166.051 278.643 158.652 270.821 161.174Z" fill="#D39266"/>
<path opacity="0.1294" d="M284.948 170.798C284.94 170.771 284.932 170.743 284.92 170.708C284.92 170.704 284.92 170.704 284.92 170.7C284.889 170.606 284.85 170.485 284.795 170.336C284.658 169.972 284.439 169.455 284.231 169C284.055 168.62 283.847 168.205 283.608 167.767C283.174 166.979 282.661 166.172 282.124 165.424C281.709 164.864 281.247 164.308 280.738 163.787C280.499 163.552 280.232 163.298 279.927 163.031C279.661 162.8 279.359 162.561 279.054 162.338C278.325 161.825 277.526 161.394 276.653 161.1C276.226 160.967 275.783 160.854 275.368 160.775C274.052 160.552 272.588 160.626 270.974 161.128C270.849 161.171 270.723 161.21 270.598 161.257C270.559 161.273 270.52 161.284 270.481 161.3C270.054 161.465 269.615 161.657 269.161 161.884C269.153 161.888 269.145 161.892 269.137 161.895C270.994 162.021 274.358 163.772 278.078 169.553C278.96 170.92 279.594 172.263 280.044 173.544C281.591 172.811 283.24 171.95 284.983 170.923C284.983 170.923 284.971 170.876 284.948 170.798Z" fill="#111111"/>
<path d="M237.693 185.447C231.36 193.147 231.916 204.008 233.059 208.626C234.203 213.24 235.95 216.53 237.81 219.048C238.605 220.13 241.969 225.852 249.896 223.365C254.055 222.06 257.098 219.092 262.534 217.388C269.357 215.249 273.551 209.566 272.004 205.097C263.396 180.261 246.461 180.586 243.92 181.385C240.72 182.388 238.041 185.024 237.693 185.447Z" fill="#D9A171"/>
<path opacity="0.1608" d="M254.51 216.296C256.297 215.634 257.159 213.514 256.435 211.561C255.711 209.607 253.676 208.561 251.889 209.223C250.102 209.885 249.24 212.005 249.964 213.959C250.688 215.912 252.723 216.959 254.51 216.296Z" fill="#252525"/>
<path d="M254.241 215.498C256.038 214.832 256.908 212.709 256.184 210.755C255.46 208.802 253.417 207.758 251.62 208.424C249.822 209.09 248.952 211.214 249.676 213.167C250.4 215.121 252.444 216.164 254.241 215.498Z" fill="#252525"/>
<path d="M236.059 200.741C234.657 196.444 238.66 191.991 245.138 189.884C251.612 187.773 257.717 189.05 259.119 193.346C260.521 197.643 256.3 202.872 249.826 204.983C243.352 207.094 237.461 205.038 236.059 200.741Z" fill="#252525"/>
<mask id="mask3_4618_54638" style="mask-type:luminance" maskUnits="userSpaceOnUse" x="249" y="192" width="7" height="9">
<path d="M251.854 200.424L255.308 199.296C255.465 199.245 255.547 199.076 255.496 198.924L253.542 192.923C253.491 192.767 253.323 192.684 253.17 192.735L249.716 193.863C249.559 193.914 249.477 194.083 249.528 194.235L251.482 200.236C251.533 200.392 251.701 200.475 251.854 200.424Z" fill="white"/>
</mask>
<g mask="url(#mask3_4618_54638)">
<g opacity="0.1216">
<mask id="mask4_4618_54638" style="mask-type:luminance" maskUnits="userSpaceOnUse" x="249" y="192" width="7" height="9">
<path d="M251.854 200.424L255.308 199.296C255.465 199.245 255.547 199.076 255.496 198.924L253.542 192.923C253.491 192.767 253.323 192.684 253.17 192.735L249.716 193.863C249.559 193.914 249.477 194.083 249.528 194.235L251.482 200.236C251.533 200.392 251.701 200.475 251.854 200.424Z" fill="white"/>
</mask>
<g mask="url(#mask4_4618_54638)">
<path d="M250.793 196.589C250.883 193.965 251.839 192.88 252.857 192.927C253.872 192.974 254.318 194.568 253.77 196.636C253.484 197.713 252.983 199.405 252.211 200.251C251.616 200.905 250.719 198.794 250.793 196.589Z" fill="white"/>
</g>
</g>
</g>
<mask id="mask5_4618_54638" style="mask-type:luminance" maskUnits="userSpaceOnUse" x="240" y="195" width="7" height="9">
<path d="M240.544 197.729L242.96 203.561C243.023 203.714 243.195 203.785 243.348 203.722L246.704 202.331C246.857 202.269 246.928 202.096 246.865 201.944L244.449 196.112C244.386 195.959 244.214 195.888 244.061 195.951L240.704 197.341C240.552 197.404 240.481 197.58 240.544 197.729Z" fill="white"/>
</mask>
<g mask="url(#mask5_4618_54638)">
<g opacity="0.1216">
<mask id="mask6_4618_54638" style="mask-type:luminance" maskUnits="userSpaceOnUse" x="240" y="195" width="7" height="9">
<path d="M242.843 203.909L246.794 202.62C246.951 202.569 247.033 202.401 246.982 202.248L244.93 195.954C244.879 195.797 244.711 195.715 244.558 195.766L240.606 197.055C240.45 197.106 240.367 197.274 240.418 197.427L242.471 203.721C242.521 203.874 242.69 203.956 242.843 203.909Z" fill="white"/>
</mask>
<g mask="url(#mask6_4618_54638)">
<path d="M245.016 198.724C243.242 196.789 241.809 196.585 241.068 197.282C240.328 197.979 241.025 199.479 242.788 200.694C243.704 201.328 245.189 202.284 246.32 202.425C247.198 202.538 246.508 200.349 245.016 198.724Z" fill="white"/>
</g>
</g>
</g>
<mask id="mask7_4618_54638" style="mask-type:luminance" maskUnits="userSpaceOnUse" x="249" y="192" width="7" height="9">
<path d="M251.854 200.424L255.308 199.296C255.465 199.245 255.547 199.076 255.496 198.924L253.542 192.923C253.491 192.767 253.323 192.684 253.17 192.735L249.716 193.863C249.559 193.914 249.477 194.083 249.528 194.235L251.482 200.236C251.533 200.392 251.701 200.475 251.854 200.424Z" fill="white"/>
</mask>
<g mask="url(#mask7_4618_54638)">
<g opacity="0.1216">
<mask id="mask8_4618_54638" style="mask-type:luminance" maskUnits="userSpaceOnUse" x="249" y="192" width="7" height="9">
<path d="M251.854 200.424L255.308 199.296C255.465 199.245 255.547 199.076 255.496 198.924L253.542 192.923C253.491 192.767 253.323 192.684 253.17 192.735L249.716 193.863C249.559 193.914 249.477 194.083 249.528 194.235L251.482 200.236C251.533 200.392 251.701 200.475 251.854 200.424Z" fill="white"/>
</mask>
<g mask="url(#mask8_4618_54638)">
<path d="M250.793 196.589C250.883 193.965 251.839 192.88 252.857 192.927C253.872 192.974 254.318 194.568 253.77 196.636C253.484 197.713 252.983 199.405 252.211 200.251C251.616 200.905 250.719 198.794 250.793 196.589Z" fill="white"/>
</g>
</g>
</g>
<mask id="mask9_4618_54638" style="mask-type:luminance" maskUnits="userSpaceOnUse" x="240" y="195" width="7" height="9">
<path d="M240.544 197.729L242.96 203.561C243.023 203.714 243.195 203.785 243.348 203.722L246.704 202.331C246.857 202.269 246.928 202.096 246.865 201.944L244.449 196.112C244.386 195.959 244.214 195.888 244.061 195.951L240.704 197.341C240.552 197.404 240.481 197.58 240.544 197.729Z" fill="white"/>
</mask>
<g mask="url(#mask9_4618_54638)">
<g opacity="0.1216">
<mask id="mask10_4618_54638" style="mask-type:luminance" maskUnits="userSpaceOnUse" x="240" y="195" width="7" height="9">
<path d="M242.843 203.909L246.794 202.62C246.951 202.569 247.033 202.401 246.982 202.248L244.93 195.954C244.879 195.797 244.711 195.715 244.558 195.766L240.606 197.055C240.45 197.106 240.367 197.274 240.418 197.427L242.471 203.721C242.521 203.874 242.69 203.956 242.843 203.909Z" fill="white"/>
</mask>
<g mask="url(#mask10_4618_54638)">
<path d="M245.016 198.724C243.242 196.789 241.809 196.585 241.068 197.282C240.328 197.979 241.025 199.479 242.788 200.694C243.704 201.328 245.189 202.284 246.32 202.425C247.198 202.538 246.508 200.349 245.016 198.724Z" fill="white"/>
</g>
</g>
</g>
<mask id="mask11_4618_54638" style="mask-type:luminance" maskUnits="userSpaceOnUse" x="249" y="192" width="7" height="9">
<path d="M251.854 200.424L255.308 199.296C255.465 199.245 255.547 199.076 255.496 198.924L253.542 192.923C253.491 192.767 253.323 192.684 253.17 192.735L249.716 193.863C249.559 193.914 249.477 194.083 249.528 194.235L251.482 200.236C251.533 200.392 251.701 200.475 251.854 200.424Z" fill="white"/>
</mask>
<g mask="url(#mask11_4618_54638)">
<g opacity="0.1216">
<mask id="mask12_4618_54638" style="mask-type:luminance" maskUnits="userSpaceOnUse" x="249" y="192" width="7" height="9">
<path d="M251.854 200.424L255.308 199.296C255.465 199.245 255.547 199.076 255.496 198.924L253.542 192.923C253.491 192.767 253.323 192.684 253.17 192.735L249.716 193.863C249.559 193.914 249.477 194.083 249.528 194.235L251.482 200.236C251.533 200.392 251.701 200.475 251.854 200.424Z" fill="white"/>
</mask>
<g mask="url(#mask12_4618_54638)">
<path d="M250.793 196.589C250.883 193.965 251.839 192.88 252.857 192.927C253.872 192.974 254.318 194.568 253.77 196.636C253.484 197.713 252.983 199.405 252.211 200.251C251.616 200.905 250.719 198.794 250.793 196.589Z" fill="white"/>
</g>
</g>
</g>
<mask id="mask13_4618_54638" style="mask-type:luminance" maskUnits="userSpaceOnUse" x="240" y="195" width="7" height="9">
<path d="M240.544 197.729L242.96 203.561C243.023 203.714 243.195 203.785 243.348 203.722L246.704 202.331C246.857 202.269 246.928 202.096 246.865 201.944L244.449 196.112C244.386 195.959 244.214 195.888 244.061 195.951L240.704 197.341C240.552 197.404 240.481 197.58 240.544 197.729Z" fill="white"/>
</mask>
<g mask="url(#mask13_4618_54638)">
<g opacity="0.1216">
<mask id="mask14_4618_54638" style="mask-type:luminance" maskUnits="userSpaceOnUse" x="240" y="195" width="7" height="9">
<path d="M242.843 203.909L246.794 202.62C246.951 202.569 247.033 202.401 246.982 202.248L244.93 195.954C244.879 195.797 244.711 195.715 244.558 195.766L240.606 197.055C240.45 197.106 240.367 197.274 240.418 197.427L242.471 203.721C242.521 203.874 242.69 203.956 242.843 203.909Z" fill="white"/>
</mask>
<g mask="url(#mask14_4618_54638)">
<path d="M245.016 198.724C243.242 196.789 241.809 196.585 241.068 197.282C240.328 197.979 241.025 199.479 242.788 200.694C243.704 201.328 245.189 202.284 246.32 202.425C247.198 202.538 246.508 200.349 245.016 198.724Z" fill="white"/>
</g>
</g>
</g>
<mask id="mask15_4618_54638" style="mask-type:luminance" maskUnits="userSpaceOnUse" x="-160" y="-78" width="918" height="794">
<path d="M-159.004 162.754L577.146 -77.1806C577.302 -77.2316 577.467 -77.1454 577.518 -76.9926L757.412 475.019C757.463 475.176 757.377 475.341 757.224 475.392L21.074 715.33C20.9174 715.381 20.7529 715.295 20.702 715.142L-159.192 163.13C-159.243 162.974 -159.157 162.805 -159.004 162.754Z" fill="white"/>
</mask>
<g mask="url(#mask15_4618_54638)">
<g opacity="0.3216">
<mask id="mask16_4618_54638" style="mask-type:luminance" maskUnits="userSpaceOnUse" x="247" y="191" width="9" height="11">
<path d="M250.479 201.099L254.998 199.626C255.155 199.575 255.237 199.407 255.186 199.254L252.598 191.307C252.547 191.15 252.378 191.068 252.226 191.119L247.706 192.592C247.549 192.643 247.467 192.811 247.518 192.964L250.107 200.911C250.154 201.064 250.322 201.15 250.479 201.099Z" fill="white"/>
</mask>
<g mask="url(#mask16_4618_54638)">
<path d="M252.508 191.03C252.75 193.764 252.374 196.505 252.002 199.224C251.952 199.607 251.893 199.999 251.709 200.34C251.525 200.681 251.176 200.959 250.788 200.951C250.35 200.943 249.989 200.567 249.856 200.148C249.719 199.733 249.762 199.282 249.805 198.848C249.931 197.582 250.052 196.317 250.177 195.052C250.256 194.238 250.342 193.407 250.679 192.667C251.015 191.923 251.666 191.269 252.508 191.03Z" fill="#252525"/>
</g>
</g>
</g>
<mask id="mask17_4618_54638" style="mask-type:luminance" maskUnits="userSpaceOnUse" x="-160" y="-78" width="918" height="794">
<path d="M-159.004 162.754L577.146 -77.1806C577.302 -77.2316 577.467 -77.1454 577.518 -76.9926L757.412 475.019C757.463 475.176 757.377 475.341 757.224 475.392L21.074 715.33C20.9174 715.381 20.7529 715.295 20.702 715.142L-159.192 163.13C-159.243 162.974 -159.157 162.805 -159.004 162.754Z" fill="white"/>
</mask>
<g mask="url(#mask17_4618_54638)">
<g opacity="0.3216">
<mask id="mask18_4618_54638" style="mask-type:luminance" maskUnits="userSpaceOnUse" x="239" y="194" width="9" height="10">
<path d="M242.78 203.727L247.421 202.215C247.578 202.165 247.66 201.996 247.609 201.843L245.204 194.464C245.153 194.308 244.985 194.225 244.832 194.276L240.191 195.788C240.035 195.839 239.952 196.007 240.003 196.16L242.408 203.539C242.455 203.692 242.623 203.778 242.78 203.727Z" fill="white"/>
</mask>
<g mask="url(#mask18_4618_54638)">
<path d="M240.026 196.172C242.012 198.048 243.998 199.924 245.979 201.804C246.183 201.996 246.391 202.192 246.653 202.286C246.916 202.38 247.244 202.344 247.421 202.129C247.671 201.82 247.487 201.361 247.28 201.021C246.015 198.964 244.103 197.374 242.047 196.109C241.667 195.878 241.264 195.647 240.818 195.639C240.375 195.627 239.823 195.98 240.026 196.172Z" fill="#252525"/>
</g>
</g>
</g>
<mask id="mask19_4618_54638" style="mask-type:luminance" maskUnits="userSpaceOnUse" x="-178" y="-53" width="914" height="787">
<path d="M-177.689 179.189L561.097 -52.5009C561.253 -52.5479 561.418 -52.4617 561.469 -52.305L735.178 501.681C735.225 501.838 735.139 502.002 734.982 502.053L-3.80284 733.743C-3.95949 733.79 -4.12399 733.704 -4.1749 733.547L-177.885 179.561C-177.932 179.405 -177.845 179.24 -177.689 179.189Z" fill="white"/>
</mask>
<g mask="url(#mask19_4618_54638)">
<g opacity="0.1412">
<mask id="mask20_4618_54638" style="mask-type:luminance" maskUnits="userSpaceOnUse" x="236" y="74" width="178" height="177">
<path d="M278.709 250.508L413.239 208.321V208.317L371.415 74.9365L236.885 117.128L278.705 250.508H278.709Z" fill="white"/>
</mask>
<g mask="url(#mask20_4618_54638)">
<path d="M396.766 202.508C382.557 192.818 366.657 184.334 349.914 172.075C337.53 163.011 326.133 154.171 319.62 148.198C308.458 137.956 297.571 130.847 283.025 128.489C280.46 128.074 278.137 127.765 276.159 127.62C273.23 127.404 271.428 127.459 270.003 127.549C270.234 127.083 270.531 126.633 270.555 126.037C270.708 121.972 266.603 119.551 265.095 119.473C263.58 119.391 263.259 119.551 262.413 119.794C261.097 120.17 259.937 120.957 259.068 122.034C260.063 120.295 259.342 117.851 258.837 116.943C257.85 115.157 256.001 112.356 253.037 112.329C250.381 112.305 248.447 114.745 248.47 116.551C248.505 119.594 251.96 123.241 250.487 124.941C250.487 124.941 250.436 124.988 250.436 124.992C251.411 130.882 249.132 137.306 244.362 140.952C253.229 137.874 263.274 139.793 271.487 144.336C279.704 148.88 287.118 153.654 293.055 160.928C298.526 167.629 301.98 178.435 302.838 184.835C304.103 194.286 303.277 206.009 289.718 220.654C300.073 214.195 310.048 210.776 327.3 215.119C334.377 216.902 340.679 224.175 345.547 229.541C345.962 228.037 346.44 226.545 347.012 225.068" fill="#523618"/>
</g>
</g>
</g>
<path d="M419.391 247.14L412.96 247.818L416.007 252.161L419.391 247.14Z" fill="#111111"/>
<path d="M269.126 402.078C269.921 401.491 271.049 401.812 271.93 402.255C273.779 403.187 275.4 404.573 276.606 406.257C274.257 407.115 271.907 407.977 269.557 408.835C269.631 406.582 269.412 404.315 269.126 402.078Z" fill="#BDBDBD"/>
<path d="M191.424 348.356C186.822 351.873 181.919 353.209 178.351 357.772C174.783 362.335 170.683 368.151 170.322 375.855C170.056 381.484 175.222 390.641 178.386 395.302C183.709 403.135 189.435 411.325 198 415.371C203.369 417.905 209.397 418.579 215.299 419.218C224.687 420.232 234.078 421.243 243.466 422.257C250.406 423.005 258.082 423.573 263.71 419.441C271.296 413.875 271.453 402.427 268.386 393.532C287.365 402.066 308.945 401.126 329.741 401.792C345.231 402.289 370.915 395.157 385.621 383.885C404.804 369.181 408.375 351.035 405.207 335.024C403.394 325.87 385.738 327.206 376.441 326.462C342.168 323.72 307.895 320.978 273.619 318.236C263.33 317.414 252.716 316.627 242.921 319.874C236.224 322.094 230.279 326.086 224.428 330.034C210.513 339.426 197.651 343.601 191.424 348.356Z" fill="#D08A5A"/>
<path opacity="0.1608" d="M199.264 357.334C188.533 359.864 188.196 357.162 179.925 369.832C173.897 379.064 184.061 402.039 192.07 410.049C186.618 406.904 179.208 397.602 174.191 388.233C173.909 387.708 173.255 386.318 172.429 384.5C171.685 382.867 170.925 380.317 170.764 379.624C170.557 378.704 170.271 377.368 170.314 376.291C170.474 372.229 171.211 369.813 172.918 366.08C175.268 360.933 179.486 354.647 183.712 357.052C192.849 362.253 192.649 354.992 203.138 355.744C199.993 356.915 196.852 358.082 199.264 357.334Z" fill="#141414"/>
<path opacity="0.1608" d="M238.088 351.031C229.832 351.728 230.459 354.004 219.25 363.71C209.4 372.24 221.658 420.941 227.075 420.486C230.447 437.219 213.453 397.668 211.636 389.509C210.571 384.723 208.734 374.332 209.141 369.827C209.463 366.302 216.453 356.154 217.049 358.308C218.51 363.608 223.703 350.408 227.059 348.105C234.493 343.01 233.925 347.573 241.225 350.103C238.707 350.741 236.188 351.372 238.088 351.031Z" fill="#141414"/>
<path opacity="0.1608" d="M265.843 389.733C269.376 393.266 263.505 412.599 259.127 416.978C256.393 419.712 265.51 414.409 264.03 417.981C266.345 417.515 266.767 416.324 268.142 414.174C269.344 412.294 270.261 408.236 270.261 404.39C270.257 400.254 269.125 392.546 265.843 389.733Z" fill="#141414"/>
<path opacity="0.1608" d="M289.766 399.583C294.794 400.393 300.195 400.762 305.557 401.102C311.525 401.482 327.109 401.753 333.92 401.753C341.533 401.753 355.883 398.31 364.06 395.2C380.412 388.984 390.234 381.711 397.479 371.95C404.294 362.769 407.592 351.493 405.669 337.671C399.265 384.582 343.495 403.014 289.766 399.583Z" fill="#141414"/>
<path opacity="0.1608" d="M184.092 402.716C183.309 403.645 183.348 404.933 184.021 405.948C184.695 406.962 186.626 409.512 187.769 410.417C195.665 416.652 211.922 423.404 225.912 423.248C235.041 423.146 243.363 419.895 252.493 419.801C255.305 419.774 258.214 420.052 260.854 419.084C263.494 418.113 265.765 415.822 265.033 413.107C259.883 414.717 255.735 415.79 250.899 416.64C239.29 418.689 229.209 418.606 218.533 417.005C215.717 416.582 212.615 416.076 209.831 415.442C205.609 414.474 201.963 413.44 198.25 411.893C196.131 411.012 194.232 410.123 192.332 409.03C191.784 408.713 191.224 408.368 190.679 408.035C189.873 407.542 188.451 406.551 187.213 405.564C186.587 405.062 185.991 404.534 185.615 404.197C184.993 403.641 184.574 403.21 184.574 403.21C184.448 403.088 184.284 402.908 184.092 402.716Z" fill="#141414"/>
<g opacity="0.1686">
<mask id="mask21_4618_54638" style="mask-type:luminance" maskUnits="userSpaceOnUse" x="235" y="215" width="135" height="94">
<path d="M267.786 308.331L368.137 266.211C368.317 266.136 369.582 265.932 369.511 265.764L347.199 215.403C347.129 215.23 346.921 215.156 346.741 215.23L235.424 256.571C235.244 256.646 237.896 266.641 237.966 266.81L267.328 308.163C267.398 308.331 267.602 308.409 267.786 308.331Z" fill="white"/>
</mask>
<g mask="url(#mask21_4618_54638)">
<path d="M238.868 255.29C246.849 263.41 245.909 264.232 257.608 273.64C275.2 287.791 298.135 281.023 307.217 278.133C329.639 271.004 335.913 252.701 343.66 230.646C343.801 230.247 348.81 225.876 348.743 226.291C345.082 248.279 335.349 272.191 316.942 285.786C311.741 289.624 305.988 293.001 299.655 294.34C286.104 297.207 271.143 298.856 261.567 289.828C254.498 283.162 244.198 268.376 240.986 260.194" fill="#111111"/>
</g>
</g>
<path d="M168.912 400.121C169.178 406.387 158.569 412.133 156.105 417.899C153.642 423.664 155.549 433.381 160.495 437.235C158.408 434.083 152.4 433.636 150.955 437.13C149.51 440.623 151.413 446.499 154.39 448.829C157.366 451.159 161.604 452.088 165.285 452.957C240.438 470.669 280.734 464.602 280.734 464.602C280.734 464.602 278.31 463.454 279.215 461.053C280.119 458.648 283.029 457.438 284.929 455.711C289.389 451.657 288.105 445.805 286.354 443.107C284.604 440.408 282.222 440.126 279.637 439.621C282.391 440.761 289.899 429.856 286.284 424.816C283.339 420.711 276.869 417.017 276.066 407.386C261.865 412.521 245.349 416.136 227.768 414.538C210.187 412.94 190.104 408.8 179.549 395.393C175.734 390.544 174.45 387.654 171.736 383.537C171.556 384.9 168.277 385.229 168.912 400.121Z" fill="#FFF5F8"/>
<path opacity="0.1608" d="M286.24 424.697C286.757 430.216 285.222 433.647 281.419 437.446C277.593 441.273 269.905 442.252 264.504 442.616C269.666 442.616 277.667 441.245 281.114 439.393C283.503 438.108 285.277 434.877 286.354 432.386C287.431 429.895 287.697 426.785 286.24 424.697Z" fill="#141414"/>
<path opacity="0.1608" d="M166.765 405.588C168.48 410.398 169.843 413.159 174.1 415.779C176.25 417.103 177.511 417.174 179.959 418.349C184.079 420.323 189.069 422.41 194.368 423.558C191.246 422.79 184.655 418.971 181.745 416.95C179.062 415.086 174.554 413.966 172.201 411.138C169.722 408.165 168.833 406.802 168.163 403.348C167.924 404.053 168.026 403.669 167.618 404.343C167.195 405.036 167.192 404.879 166.765 405.588Z" fill="#141414"/>
<path opacity="0.1608" d="M286.209 442.887C287.827 447.172 286.973 452.562 283.112 455.017C274.061 460.775 249.798 459.071 244.754 459.071C248.177 459.467 271.437 462.451 279.36 459.322C282.074 458.249 285.861 455.574 287.275 452.432C288.689 449.291 288.027 445.989 286.209 442.887Z" fill="#141414"/>
<path opacity="0.1608" d="M156.727 416.633C155.474 421.834 156.449 427.482 159.116 432.12C161.784 436.757 164.764 438.132 172.475 441.163C159.637 437.489 151.55 434.098 152.831 442.123C153.469 446.122 157.397 448.934 161.177 450.399C168.955 453.415 177.316 455.44 185.443 457.328C179.294 456.145 174.755 455.162 168.637 453.74C163.55 452.557 157.346 451.515 154.072 448.57C153.379 447.947 152.878 447.183 152.29 446.341C150.751 444.14 149.854 439.287 151.06 436.902C152.271 434.505 155.909 433.984 158.893 435.715C158.122 434.665 157.178 433.369 156.622 431.822C154.867 426.949 154.056 421.356 156.727 416.633Z" fill="#141414"/>
<path opacity="0.1608" d="M168.923 393.102C179.267 410.813 202.413 418.231 211.037 419.951C234.363 424.608 250.209 423.076 272.729 413.093C255.34 419.696 236.165 421.521 217.844 418.321C199.526 415.125 182.815 405.87 168.923 393.102Z" fill="#141414"/>
<path d="M171.567 382.28C168.512 383.224 166.71 386.651 167.458 389.757C168.207 392.863 170.486 395.35 172.793 397.563C196.123 419.982 225.324 424.436 257.027 417.977C258.108 417.758 270.52 414.518 275.881 411.314C279.547 409.125 275.815 403.003 272.748 404.636C264.759 408.894 248.157 413.668 233.662 412.983C221.423 412.403 205.417 409.188 194.388 403.853C183.359 398.519 177.199 392.119 171.567 382.28Z" fill="white"/>
<path d="M382.154 195.529C385.886 188.076 402.946 183.003 416.18 187.574C428.105 191.691 440.881 214.149 439.373 254.049C438.222 284.513 432.202 325.243 430.784 332.199C425.395 358.606 416.18 382.67 416.18 382.67L427.228 386.94C427.228 386.94 413.787 380.387 409.573 378.198C406.6 376.654 398.47 372.005 398.47 372.005C398.47 372.005 398.317 372.319 397.248 373.595C406.964 380.43 427.173 387.308 427.173 387.308C427.173 387.308 427.357 387.151 427.816 385.937C428.575 383.912 430.087 379.369 432.774 370.787C436.06 360.286 441.793 339.841 444.276 323.52C447.629 301.488 448.831 286.805 449.25 278.999C449.83 268.181 450.668 260.21 450.363 248.393C450.124 239.028 449.184 231.994 447.41 223.737C445.224 213.562 443.313 206.762 438.304 197.64C436.201 193.81 433.118 190.3 429.88 187.703C426.641 185.107 423.245 183.43 419.662 182.079C416.133 180.747 412.988 180.587 409.984 180.689C406.216 180.818 401.544 181.75 396.86 183.681C392.164 185.616 387.48 188.436 383.74 192.642C382.902 193.583 382.585 194.515 382.154 195.529Z" fill="#D5D5D5"/>
<path d="M212.811 290.451C216.716 309.314 235.041 341.173 235.041 341.173L291.641 350.98C291.641 350.98 303.097 338.787 348.97 345.191C350.517 345.407 385.702 349.848 396.966 350.24C402.801 350.444 406.048 349.437 406.048 349.437C406.048 349.437 406.17 347.815 406.213 346.75C406.256 345.638 406.213 339.943 406.213 339.943C406.213 339.943 370.287 301.857 374.725 298.48C374.916 298.335 376.749 302.71 366.465 271.702C380.09 260.21 400.636 249.807 419.407 247.187C419.407 247.187 411.711 222.868 406.099 210.561C398.345 193.551 381.245 189.356 371.059 192.243C360.003 195.372 351.649 208.697 348.292 216.617C338.658 239.369 340.068 242.941 334.769 254.084C329.576 264.996 317.674 284.729 287.729 285.763C278.858 286.068 265.844 284.423 251.69 270.268C240.845 259.423 237.469 251.57 236.384 249.055C236.216 248.663 235.942 248.213 235.942 248.213C235.942 248.213 229.464 248.742 224.835 255.753C222.551 259.207 219.019 276.069 219.019 276.069" fill="#232D40"/>
<g opacity="0.1412">
<mask id="mask22_4618_54638" style="mask-type:luminance" maskUnits="userSpaceOnUse" x="331" y="231" width="117" height="240">
<path d="M401.541 470.189L447.771 455.736C447.908 455.693 447.986 455.552 447.943 455.423L377.952 231.515C377.913 231.386 377.768 231.311 377.631 231.355L331.401 245.807C331.264 245.85 331.186 245.991 331.229 246.121L401.22 470.028C401.263 470.161 401.404 470.232 401.541 470.189Z" fill="white"/>
</mask>
<g mask="url(#mask22_4618_54638)">
<path d="M354.876 242.898C354.876 242.898 362.431 277.06 369.038 321.283C370.749 332.756 376.706 320.52 376.706 334.976C376.706 339.441 386.09 344.572 380.286 318.671C377.462 306.071 374.11 291.704 371.47 275.548V275.744C371.063 270.699 372.269 281.368 366.798 271.831C366.798 271.831 363.892 267.793 359.638 256.332L354.876 242.898Z" fill="#111111"/>
</g>
</g>
<g opacity="0.2784">
<mask id="mask23_4618_54638" style="mask-type:luminance" maskUnits="userSpaceOnUse" x="237" y="277" width="9" height="22">
<path d="M241.401 298.124L244.828 297.529C244.969 297.505 245.063 297.372 245.04 297.231L241.609 277.479C241.586 277.338 241.452 277.244 241.311 277.268L237.885 277.863C237.744 277.887 237.65 278.02 237.673 278.161L241.104 297.913C241.127 298.054 241.26 298.148 241.401 298.124Z" fill="white"/>
</mask>
<g mask="url(#mask23_4618_54638)">
<path d="M241.561 277.221C240.731 283.5 240.625 284.643 240.931 290.225C240.97 290.941 241.33 296.425 241.401 298.121C241.432 298.869 242.642 302.061 242.599 303.029C242.576 303.557 244.111 303.98 244.083 304.748C243.704 300.334 242.27 292.414 242.02 287.691C241.796 283.468 241.448 280.335 241.561 277.221Z" fill="#111111"/>
</g>
</g>
<path d="M250.339 330.057C265.213 330.057 270.673 330.558 285.215 330.081C280.946 335.306 272.67 341.502 270.841 347.996C263.055 348.944 255.446 351.305 248.494 354.932C249.352 346.727 250.687 338.572 250.339 330.057Z" fill="#8F8F8F"/>
<path d="M154.328 355.829C140.577 326.669 129.529 293.796 120.588 263.007C120.247 261.835 121.05 260.539 122.334 260.461C157.206 258.267 198.282 258.118 226.379 260.343C231.145 260.719 257.796 339.175 262.347 363.714C224.029 363.714 191.233 360.987 157.747 358.128C156.251 357.999 154.935 357.122 154.328 355.829Z" fill="#B3BCC9"/>
<path opacity="0.1686" d="M157.745 358.128C190.287 360.905 222.183 363.557 259.126 363.706C233.423 355.535 210.613 341.623 178.268 321.139C147.367 301.567 126.704 270.542 120.59 261.878C120.484 262.239 120.473 262.63 120.582 263.006C129.524 293.792 140.572 326.665 154.323 355.829C154.933 357.122 156.249 357.999 157.745 358.128Z" fill="#141414"/>
<path d="M284.431 323.07C272.169 332.466 266.694 336.359 257.956 349.586C253.859 355.79 248.494 366.98 248.494 366.98C248.494 366.98 247.432 371.567 247.397 373.545C247.358 375.707 248.255 383.478 248.255 383.478C248.251 383.756 248.545 383.936 248.788 383.807C250.013 383.156 254.102 381.543 258.402 379.22C268.636 373.69 284.169 364.591 294.716 358.128C295.663 357.549 296.643 356.938 297.246 356.002C298.393 354.216 297.794 351.764 296.517 350.064C295.244 348.368 293.415 347.185 291.81 345.795C286.088 340.84 283.26 331.134 284.431 323.07Z" fill="#F2DFA7"/>
<path opacity="0.1608" d="M285.018 323.07C284.035 323.387 281.556 325.138 277.455 328.44C274.295 330.989 269.799 334.616 266.572 338.255C262.972 342.313 259.013 347.577 256.855 351.278C265.42 342.336 280.389 331.973 284.63 331.957C285.182 334.248 285.582 333.547 286.134 335.838C280.921 339.242 274.737 341.122 262.338 351.752C259.463 354.216 255.022 359.347 252.277 362.488C249.531 365.629 248.485 366.98 248.485 366.98C248.485 366.98 247.824 369.342 247.71 370.658C253.495 365.7 263.36 356.084 270.171 351.4C281.525 343.593 289.342 341.694 291.711 342.199C289.267 343.609 282.163 348.231 275.008 353.174C272.431 354.956 268.53 357.149 265.444 360.514C258.895 367.662 251.438 374.281 248.286 383.732C248.243 383.857 248.395 383.951 248.482 383.85C255.026 376.263 263.098 368.469 271.612 361.912C281.873 354.016 292.78 347.745 302.45 343.484C292.569 355.069 276.809 365.292 265.632 375.213C272.035 371.637 289.252 361.607 295.111 357.874C295.565 357.584 300.801 352.124 301.201 351.819C301.526 351.568 302.501 345.211 302.826 344.949C303.124 344.706 296.035 352.128 296.395 351.791C296.556 351.638 296.669 351.838 296.669 351.838C296.669 351.838 297.457 345.728 297.844 345.376C289.796 339.418 287.912 332.65 285.018 323.07Z" fill="#111111"/>
<path d="M282.234 324.735C282.234 324.735 291.939 313.576 316.107 313.576C316.573 313.576 318.34 313.83 320.643 313.38C324.947 312.538 341.556 304.391 372.062 296.62C371.65 287.69 368.486 278.905 365.878 270.347C379.393 258.718 397.785 250.258 415.452 247.845C422.341 270.425 426.214 299.319 420.524 324.061C419.388 328.996 415.949 338.839 414.481 339.689C411.261 341.557 404.588 342.752 399.982 343.077C385.237 344.122 381.829 343.762 367.056 344.35C358.244 344.698 333.446 353.429 320.964 350.025C309.034 357.521 302.102 358.704 294.61 358.704C294.344 358.704 293.651 358.853 293.588 358.838C291.383 358.344 284.792 353.123 279.273 344.017C275.647 338.04 282.234 324.735 282.234 324.735Z" fill="#D08A5A"/>
<path opacity="0.1608" d="M279.986 345.164C281.753 348.532 289.68 354.364 295.362 354.932C302.381 355.633 310.781 355.774 318.399 351.58C317.059 352.367 311.063 356.213 304.022 357.729C302.451 358.066 299.099 358.559 296.612 358.669C296.106 358.692 295.597 358.677 295.1 358.7C294.794 358.712 294.649 358.677 294.505 358.708C294.383 358.736 294.187 358.751 294.078 358.767C293.741 358.818 293.557 358.833 293.557 358.833C293.557 358.833 292.958 358.72 291.924 358.078C290.075 356.922 287.8 354.96 286.343 353.338C283.546 350.209 282.035 348.442 279.986 345.164Z" fill="#141414"/>
<path opacity="0.1608" d="M376.357 296.162C374.184 295.833 368.422 297.498 362.415 299.209C355.577 301.16 351.241 302.397 343.882 304.99C341.928 305.68 337.197 307.34 333.476 308.727C329.282 310.294 326.677 311.32 323.885 312.362C319.996 313.811 320.203 313.149 313.212 317.508C315.163 316.521 340.22 307.493 342.413 306.698C363.492 299.084 353.164 301.696 376.357 296.162Z" fill="#141414"/>
<path d="M203.517 152.755C199.064 157.436 193.323 165.206 191.787 173.992C191.008 178.441 189.864 182.091 189.864 189.741C189.864 193.583 186.394 195.021 185.76 196.709C184.981 198.788 185.74 208.929 188.791 214.675C190.793 218.443 195.504 218.764 196.558 221.18C198.214 224.98 202.675 231.481 205.608 234.411C210.484 239.287 212.302 238.68 217.992 239.072C231.77 240.02 237.762 227.792 228.402 226.632C222.676 225.92 223.15 233.702 213.751 234.172C211.111 234.301 203.607 228.011 199.577 219.261C193.366 205.78 190.326 198.193 193.123 184.481C195.355 173.522 212.725 154.244 226.131 147.025C247.08 135.745 261.433 132.38 283.35 136.579C288.566 137.578 303.899 142.971 299.877 148.408C295.134 154.815 296.532 160.773 297.911 163.789C300.539 169.546 304.784 177.791 313.299 177.791C319.471 177.791 328.33 174.642 329.63 163.604C330.809 153.597 323.529 145.811 316.824 142.489C314.807 141.491 311.779 141.404 308.685 139.262C300.328 133.477 294.104 131.252 283.82 127.794C267.657 122.361 251.337 123.626 235.706 130.481C220.076 137.335 210.026 145.909 203.517 152.755Z" fill="#252525"/>
<path opacity="0.6" d="M316.816 142.483C314.799 141.484 311.771 141.398 308.677 139.255C300.32 133.47 294.097 131.245 283.812 127.787C267.649 122.354 251.329 123.62 235.698 130.474C220.068 137.328 210.03 145.91 203.521 152.756C199.499 156.986 194.415 163.747 192.343 171.494C192.253 171.854 192.159 172.214 192.077 172.575C192.077 172.583 192.073 172.59 192.073 172.598C201.547 152.705 219.778 142.318 227.642 138.119C239.474 131.806 259.671 124.959 282.989 131.594C295.69 135.209 309.284 141.981 314.979 151.46C320.168 160.096 319.479 170.425 311.047 177.576C311.047 177.576 311.047 177.576 311.051 177.576C312.966 177.463 314.908 177.482 316.816 177.447C322.401 176.394 328.561 172.653 329.626 163.594C330.797 153.59 323.517 145.804 316.816 142.483Z" fill="#141414"/>
<path opacity="0.1608" d="M351.198 210.781C358.185 206.966 375.801 208.795 383.83 217.541C394.428 229.084 398.423 238.241 402.143 255.005C408.515 283.73 412.706 290.357 409.076 322.048C407.842 332.807 401.027 336.375 370.232 339.45C358.671 340.605 341.599 348.442 336.065 349.496C334.577 349.778 333.104 349.97 331.683 350.083C327.414 350.428 323.556 350.087 320.807 349.472C318.281 348.908 316.769 348.074 316.041 347.733C316.726 348.274 318.911 349.743 322.311 350.33C324.978 350.792 328.651 350.957 332.603 350.581C341.439 349.747 351.3 347.31 351.825 347.205C357.249 346.1 358.663 345.442 362.137 344.992C366.308 344.451 374.552 344.169 377.321 344.02C383.035 343.719 384.641 343.793 386.466 343.793C389.141 343.793 391.886 343.558 393.747 343.468C398.239 343.249 400.393 342.994 404.427 342.563C407.341 342.254 411.555 340.95 412.542 340.581C412.596 340.562 413.29 340.284 413.795 340.041C414.284 339.806 414.582 339.606 414.625 339.571C415.24 339.097 415.839 337.742 416.63 335.921C417.59 333.7 418.565 330.88 419.141 328.992C422.689 317.375 424.318 302.315 422.932 286.386C421.984 275.517 421.146 266.978 415.659 247.798C417.096 247.489 416.995 247.5 419.411 247.175C418.894 245.366 417.895 242.765 416.525 238.363C415.072 233.702 412.914 228.054 411.484 223.969C408.676 215.939 405.042 207.076 401.18 202.666C396.751 197.609 392.074 194.229 385.189 192.427C380.987 191.327 372.704 189.682 365.482 194.754C358.879 199.395 355.084 203.809 351.198 210.781Z" fill="#141414"/>
<path opacity="0.6" d="M188.616 193.345C188.432 199.173 189.227 211.659 194.42 219.199C191.788 217.742 189.43 217.155 187.727 212.266C187.312 211.08 186.83 209.893 186.528 208.146C186.211 206.317 185.064 201.401 185.663 197.062C185.815 195.949 187.633 194.688 188.616 193.345Z" fill="#141414"/>
<path opacity="0.6" d="M205.605 234.416C209.353 237.016 217.523 237.882 222.841 236.308C228.947 234.498 229.386 232.226 232.096 228.298C233.737 230.499 232.656 233.092 230.384 235.364C228.947 236.801 226.534 237.937 224.149 238.575C222.876 238.912 222.058 239.026 220.507 239.104C219.645 239.147 219.191 239.171 218.216 239.092C215.87 238.897 211.562 239.006 209.576 237.628C208.268 236.715 207.085 236.084 205.605 234.416Z" fill="#141414"/>
<path d="M202.769 442.582C202.056 441.442 201.739 440.913 201.304 439.624C200.866 438.34 200.983 436.754 201.939 435.763C202.883 434.787 204.543 434.662 205.573 435.485C206.603 436.307 206.858 437.968 206.133 439.115C205.479 437.658 207.085 435.81 208.659 436.017C210.234 436.225 211.256 438.023 210.974 439.621C210.692 441.219 209.188 442.174 207.876 443.106C204.751 445.335 204.042 444.61 202.769 442.582Z" fill="#FF0069"/>
<path d="M212.134 419.202C211.535 418.674 210.924 417.933 210.548 417.228C210.172 416.523 210.066 415.619 210.497 414.945C210.928 414.271 211.981 414.017 212.557 414.569C212.334 417.409 214.981 417.275 214.676 420.107C214.449 422.199 213.125 424.188 211.637 425.677C207.658 429.656 204.677 435.367 204.243 446.169C204.223 446.686 203.146 446.271 202.919 446.247C201.771 446.13 203.976 434.384 204.987 432.198C206.401 429.143 206.663 428.532 208.837 425.963C209.886 424.721 211.226 423.628 211.97 422.187C212.714 420.742 212.78 419.774 212.134 419.202Z" fill="#D9D9D9"/>
<path d="M239.913 420.996C241.879 420.264 243.093 417.925 242.557 415.897C242.76 415.473 243.387 415.379 243.779 415.642C244.17 415.904 244.343 416.41 244.319 416.884C244.299 417.354 244.119 417.804 243.943 418.239C243.645 418.975 243.332 419.731 242.764 420.283C242.2 420.832 241.3 421.125 239.913 420.996Z" fill="#E1E1E1"/>
<path d="M240.802 421.964C241.589 422.657 241.863 423.868 241.46 424.831C241.938 425.219 242.725 425.015 243.065 424.498C243.402 423.981 243.336 423.276 243.034 422.744C242.729 422.211 242.219 421.819 241.691 421.51C241.503 421.514 241.319 421.518 240.802 421.964Z" fill="#D9D9D9" stroke="#D9D9D9" stroke-miterlimit="10"/>
<path d="M253.629 419.183C254.165 418.258 254.698 417.334 255.235 416.41C255.348 416.218 255.481 416.006 255.701 415.959C255.959 415.904 256.21 416.136 256.276 416.39C256.339 416.649 256.269 416.915 256.178 417.166C255.932 417.886 255.575 418.564 253.629 419.183Z" fill="#D9D9D9"/>
<path d="M219.046 420.84C218.815 420.146 218.302 419.653 217.988 419.007C217.675 418.36 217.671 417.346 218.235 417.044C218.732 416.782 219.296 417.291 219.528 417.89C219.755 418.486 219.782 419.171 219.99 419.782C220.197 420.393 220.714 420.945 219.046 420.84Z" fill="#D9D9D9"/>
<path d="M171.568 382.28C170.577 384.622 170.823 386.016 172.206 388.151C173.898 390.763 180.646 396.584 184.578 397.884C178.429 392.326 174.552 387.344 171.568 382.28Z" fill="#BDBDBD"/>
<path d="M176.279 450.371C175.402 449.999 174.458 449.74 173.734 449.125C173.009 448.51 172.516 447.527 172.751 446.607C172.982 445.702 173.957 445.052 174.881 445.189C175.805 445.326 176.553 446.227 176.514 447.159C175.594 446.517 175.923 444.86 176.965 444.441C178.006 444.022 179.271 444.739 179.667 445.788C180.063 446.838 179.581 447.974 179.005 448.933C177.991 450.625 178.108 451.146 176.279 450.371Z" fill="#FF0069"/>
<path d="M230.608 439.307C229.554 437.893 228.795 437.43 228.043 435.817C227.291 434.203 227.212 432.115 228.325 430.686C229.413 429.28 231.563 428.88 233.024 429.809C234.485 430.737 235.057 432.867 234.27 434.469C233.208 432.66 235.041 430.02 237.125 430.071C239.208 430.122 240.798 432.319 240.657 434.446C240.516 436.573 238.695 438.038 237.109 439.436C234.27 441.935 232.398 441.708 230.608 439.307Z" fill="#FF0069"/>
<path d="M171.077 431.267C169.899 430.35 168.516 429.657 167.627 428.443C166.734 427.229 166.327 425.513 167.008 424.146C167.678 422.799 169.393 422.11 170.756 422.638C172.119 423.163 172.946 424.836 172.562 426.293C171.383 424.969 172.464 422.478 174.199 422.172C175.934 421.867 177.618 423.426 177.853 425.212C178.088 426.998 177.007 428.674 175.742 429.935C173.937 431.741 173.58 433.214 171.077 431.267Z" fill="#FF0069"/>
<path d="M270.865 429.308C270.042 428.063 268.895 426.833 268.338 425.435C267.782 424.036 267.822 422.274 268.824 421.122C269.811 419.99 271.644 419.755 272.831 420.609C274.017 421.463 274.393 423.288 273.657 424.6C272.85 423.022 274.526 420.883 276.281 421.028C278.036 421.173 279.273 423.104 279.046 424.89C278.823 426.676 276.845 428.56 275.224 429.308C273.602 430.056 272.204 431.337 270.865 429.308Z" fill="#FF0069"/>
<path d="M263.988 453.247C263.49 452.374 262.868 451.888 262.539 450.928C262.214 449.969 262.296 448.782 263.012 448.042C263.717 447.313 264.955 447.219 265.727 447.834C266.494 448.449 266.686 449.691 266.146 450.548C265.656 449.46 266.858 448.077 268.033 448.234C269.208 448.39 269.976 449.734 269.764 450.928C269.553 452.123 268.468 452.894 267.45 453.533C265.492 454.763 264.998 455.017 263.988 453.247Z" fill="#FF0069"/>
<path d="M228.008 463.787C228.008 463.787 226.895 462.636 226.57 461.676C226.245 460.717 226.327 459.53 227.044 458.79C227.749 458.061 228.987 457.967 229.758 458.582C230.526 459.197 230.718 460.439 230.177 461.296C229.688 460.208 230.89 458.825 232.065 458.982C233.24 459.138 234.008 460.482 233.796 461.676C233.585 462.871 231.196 464.101 231.196 464.101L228.008 463.787Z" fill="#FF0069"/>
</g>
<mask id="mask24_4618_54638" style="mask-type:luminance" maskUnits="userSpaceOnUse" x="170" y="292" width="39" height="43">
<path fill-rule="evenodd" clip-rule="evenodd" d="M208.064 318.068C208.554 318.034 208.919 318.947 208.862 320.062C208.809 321.093 208.414 321.927 207.961 321.967L207.719 321.989L207.301 322.026C202.541 322.469 186.987 324.597 172.388 334.16C172.377 334.321 170.231 335.047 170.282 334.047C170.282 334.047 187.299 319.566 208.064 318.068ZM191.862 292.26C192.696 292.036 193.584 292.131 194.351 292.526C195.43 293.197 196.269 294.191 196.748 295.367C197.285 296.856 196.433 298.617 195.914 299.599C195.073 301.043 194.103 303.303 193.633 304.352C193.331 305.048 192.922 305.455 192.099 304.853C191.777 304.653 191.506 304.38 191.308 304.056C191.111 303.732 190.992 303.366 190.962 302.988C190.886 302.14 191.27 300.561 192.426 298.573C193.29 296.926 194.207 294.993 193.619 294.734C192.06 294.024 183.889 301.629 184.084 306.102C184.191 308.669 189.817 309.646 191.457 310.378C191.817 310.511 192.134 310.739 192.375 311.038C192.616 311.336 192.771 311.695 192.823 312.074C192.902 312.96 192.476 314.076 191.551 315.501C190.278 317.158 188.435 318.285 186.378 318.664C184.552 318.978 182.68 318.884 180.896 318.388C179.112 317.892 177.461 317.007 176.061 315.796C175.449 315.264 175.688 314.779 176.225 314.463C176.616 314.289 177.025 314.158 177.443 314.071C178.501 313.786 179.625 313.881 180.619 314.341C182.277 315.226 185.064 316.564 187.36 316.049C188.144 315.923 188.864 315.541 189.407 314.962C189.521 314.854 189.608 314.72 189.661 314.573C189.714 314.425 189.733 314.267 189.715 314.111C189.697 313.955 189.643 313.806 189.557 313.674C189.471 313.543 189.356 313.433 189.221 313.353C186.177 311.838 180.482 310.994 180.13 307.067C179.662 301.831 185.433 295.865 188.87 293.6C189.767 292.957 190.785 292.502 191.862 292.26Z" fill="white"/>
</mask>
<g mask="url(#mask24_4618_54638)">
<mask id="mask25_4618_54638" style="mask-type:luminance" maskUnits="userSpaceOnUse" x="165" y="290" width="46" height="46">
<path d="M207.051 290.029L165.836 293.717L169.591 335.685L210.805 331.997L207.051 290.029Z" fill="white"/>
</mask>
<g mask="url(#mask25_4618_54638)">
<mask id="mask26_4618_54638" style="mask-type:luminance" maskUnits="userSpaceOnUse" x="166" y="290" width="44" height="45">
<path d="M170.341 334.788L209.908 331.248L206.3 290.926L166.734 294.466L170.341 334.788Z" fill="white"/>
</mask>
<g mask="url(#mask26_4618_54638)">
<path d="M165.836 293.717L207.051 290.029L210.805 331.997L169.591 335.685L165.836 293.717Z" fill="#0057FF"/>
</g>
</g>
</g>
<defs>
<filter id="filter0_b_4618_54638" x="-99.438" y="-88.0864" width="715.711" height="673.13" filterUnits="userSpaceOnUse" color-interpolation-filters="sRGB">
<feFlood flood-opacity="0" result="BackgroundImageFix"/>
<feGaussianBlur in="BackgroundImageFix" stdDeviation="50"/>
<feComposite in2="SourceAlpha" operator="in" result="effect1_backgroundBlur_4618_54638"/>
<feBlend mode="normal" in="SourceGraphic" in2="effect1_backgroundBlur_4618_54638" result="shape"/>
</filter>
<filter id="filter1_b_4618_54638" x="-21.9619" y="-16.7075" width="561.312" height="531.713" filterUnits="userSpaceOnUse" color-interpolation-filters="sRGB">
<feFlood flood-opacity="0" result="BackgroundImageFix"/>
<feGaussianBlur in="BackgroundImageFix" stdDeviation="25"/>
<feComposite in2="SourceAlpha" operator="in" result="effect1_backgroundBlur_4618_54638"/>
<feBlend mode="normal" in="SourceGraphic" in2="effect1_backgroundBlur_4618_54638" result="shape"/>
</filter>
<linearGradient id="paint0_linear_4618_54638" x1="657.229" y1="537.325" x2="-149.453" y2="-305.226" gradientUnits="userSpaceOnUse">
<stop offset="0.0541064" stop-color="white"/>
<stop offset="0.63085" stop-color="#F9F9FF" stop-opacity="0.65"/>
<stop offset="0.792052" stop-color="#E4EEFF" stop-opacity="0.33"/>
</linearGradient>
<linearGradient id="paint1_linear_4618_54638" x1="615.437" y1="512.711" x2="-121.122" y2="-241.466" gradientUnits="userSpaceOnUse">
<stop offset="0.0541064" stop-color="#FFF5FD"/>
<stop offset="0.334245" stop-color="#F0F1FE" stop-opacity="0.65"/>
<stop offset="0.733105" stop-color="#D6E4FF" stop-opacity="0.33"/>
</linearGradient>
<linearGradient id="paint2_linear_4618_54638" x1="509.838" y1="294.188" x2="70.7248" y2="131.131" gradientUnits="userSpaceOnUse">
<stop stop-color="white"/>
<stop offset="1" stop-color="white" stop-opacity="0.353"/>
</linearGradient>
</defs>
</svg>
