<?xml version="1.0" encoding="UTF-8" standalone="no"?>
<!DOCTYPE svg PUBLIC "-//W3C//DTD SVG 1.1//EN" "http://www.w3.org/Graphics/SVG/1.1/DTD/svg11.dtd">
<svg width="100%" height="100%" viewBox="0 0 104 104" version="1.1" xmlns="http://www.w3.org/2000/svg" xmlnsXlink="http://www.w3.org/1999/xlink" xmlSpace="preserve" style="fill-rule:evenodd;clip-rule:evenodd;stroke-miterlimit:10;">
    <g transform="matrix(0.978806,0,0,0.997394,1.09859,-0.796416)">
        <ellipse cx="52" cy="53" rx="52" ry="51" style="fill:url(#_Linear1);"/>
        <clipPath id="_clip2">
            <ellipse cx="52" cy="53" rx="52" ry="51"/>
        </clipPath>
        <g clip-path="url(#_clip2)">
            <g>
                <path d="M77.127,31.554C79.19,40 75.884,54.142 78.611,59.449C87.175,76.134 90.071,78.311 86.611,82.24C76.24,94 61.488,96.313 47.569,95.5C30.08,94.479 27.487,92.89 23.449,84.9C20.433,78.927 23.094,71.5 28.207,58.794C30.607,52.844 27.837,39.682 28.396,34.685C29.696,23.043 38.684,16.447 45.272,15.585C45.093,15.794 44.873,15.964 44.625,16.084C44.378,16.205 44.108,16.273 43.833,16.286C43.558,16.298 43.284,16.253 43.027,16.155C42.77,16.057 42.535,15.907 42.338,15.715C41.03,14.468 41.822,13.451 42.921,13.089C43.446,12.909 44.013,12.896 44.545,13.051C45.078,13.206 45.549,13.522 45.894,13.956L45.236,13.351C45.016,13.112 44.852,12.827 44.757,12.517C44.661,12.207 44.635,11.879 44.682,11.558C44.703,11.049 44.856,10.555 45.127,10.123C45.398,9.692 45.778,9.339 46.227,9.1C46.645,8.964 47.099,8.988 47.5,9.167C47.901,9.346 48.222,9.667 48.4,10.069C48.8,11.29 47.724,13.469 49.1,13.436C61.534,13.046 73.171,15.351 77.129,31.559L77.127,31.554Z" style="fill:rgb(208,138,90);fill-rule:nonzero;"/>
                <path d="M31.497,40.591C31.259,30.403 45.164,29.111 52.235,28.944C59.306,28.777 74.135,29.401 74.369,39.589C74.603,49.777 65.202,58.261 53.363,58.537C41.524,58.813 31.735,50.779 31.497,40.591Z" style="fill-opacity:0.05;fill-rule:nonzero;"/>
                <g>
                    <path d="M38.704,52.343C42.169,54.595 46.541,56.857 54.335,56.729L54.335,24.156C52.642,24.467 50.896,24.316 49.282,23.717C40.294,21.317 36.129,24.891 33.948,28.694C32.248,31.651 30.559,36.64 31.048,39.725C31.168,41.061 31.41,42.383 31.771,43.675C33.141,47.206 35.561,50.231 38.704,52.343Z" style="fill:rgb(242,210,182);fill-rule:nonzero;"/>
                </g>
                <g>
                    <path d="M56.218,23.716C54.604,24.314 52.859,24.465 51.165,24.155L51.165,56.729C58.959,56.857 63.331,54.595 66.796,52.343C69.939,50.231 72.358,47.206 73.727,43.676C74.089,42.385 74.331,41.062 74.45,39.726C74.941,36.643 73.25,31.652 71.55,28.695C69.369,24.895 65.204,21.317 56.216,23.718L56.218,23.716Z" style="fill:rgb(242,210,182);fill-rule:nonzero;"/>
                </g>
                <path d="M53.425,35.672C57.562,35.727 59.339,40.964 59.7,42.747C60.061,44.53 60.981,47.847 60.027,49.595C59.781,50.046 59.464,50.952 56.29,51.128C54.422,51.228 53.1,50.828 50.943,51.134C48.234,51.512 46.319,50.734 45.919,48.965C45.391,46.638 46.035,44.528 46.532,42.495C47.894,36.935 51.013,35.64 53.425,35.672Z" style="fill:rgb(217,161,113);fill-rule:nonzero;"/>
                <path d="M61.555,28.942C61.045,29.183 60.587,29.522 60.208,29.94C59.83,30.358 59.537,30.847 59.348,31.379C58.94,32.797 58.87,34.291 59.143,35.741C59.36,36.914 59.957,37.983 60.843,38.781C62.024,39.65 63.483,40.057 64.943,39.924C66.427,39.608 67.937,39.43 69.453,39.392C70.183,39.481 70.891,39.703 71.541,40.046C72.661,40.975 73.465,42.229 73.841,43.634C74.416,42.238 74.754,40.755 74.841,39.248C74.989,37.717 74.854,36.173 74.441,34.691C74.275,33.898 74.047,33.12 73.759,32.362C73.759,32.362 72.301,31.483 71.659,31.121C70.588,30.427 69.474,29.8 68.324,29.245C67.315,28.838 66.247,28.592 65.16,28.518C63.94,28.396 62.707,28.541 61.547,28.942L61.555,28.942Z" style="fill:rgb(217,161,113);fill-rule:nonzero;"/>
                <path d="M73.776,32.369C73.994,32.952 74.175,33.547 74.32,34.152C74.788,35.781 74.969,37.478 74.856,39.168C74.805,39.72 74.702,40.541 74.608,40.986C74.429,41.888 74.171,42.773 73.836,43.63C73.723,43.099 73.526,42.589 73.253,42.119C73.564,41.388 73.802,40.628 73.966,39.851C74.21,38.304 74.225,36.73 74.009,35.178C73.84,34.12 73.589,33.076 73.258,32.057C73.523,32.215 73.772,32.361 73.776,32.369Z" style="fill:rgb(82,54,24);fill-opacity:0.1;fill-rule:nonzero;"/>
                <path d="M73.757,32.361C74.379,34.226 74.722,36.172 74.776,38.137C74.844,40.347 74.383,42.541 73.432,44.537C74.42,43.237 74.988,41.668 75.061,40.037C75.22,38.362 75.169,36.674 74.911,35.011C74.872,34.523 74.761,34.043 74.58,33.587C74.413,33.116 74.13,32.694 73.758,32.36L73.757,32.361Z" style="fill:rgb(208,138,90);fill-rule:nonzero;"/>
                <g>
                    <path d="M43.698,29.366C44.219,29.583 44.693,29.9 45.091,30.3C45.489,30.7 45.803,31.175 46.017,31.697C46.491,33.094 46.632,34.584 46.427,36.045C46.268,37.226 45.722,38.322 44.875,39.16C43.736,40.083 42.3,40.557 40.835,40.495C39.338,40.248 37.821,40.141 36.304,40.174C35.58,40.297 34.884,40.551 34.251,40.925C33.18,41.88 32.437,43.149 32.129,44.55C31.488,43.206 31.077,41.763 30.913,40.283C30.694,38.761 30.756,37.212 31.098,35.712C31.227,34.912 31.408,34.121 31.64,33.344C31.64,33.344 33.086,32.408 33.707,32.018C34.745,31.275 35.828,30.596 36.95,29.987C37.94,29.533 38.995,29.238 40.077,29.114C41.289,28.933 42.527,29.019 43.702,29.366L43.698,29.366Z" style="fill:rgb(217,161,113);fill-rule:nonzero;"/>
                    <path d="M31.635,33.34C31.635,33.34 31.403,34.085 31.188,35.17C30.799,36.818 30.697,38.521 30.888,40.204C30.963,40.754 31.107,41.569 31.221,42.004C31.439,42.877 31.74,43.727 32.121,44.542C32.201,44.027 32.37,43.531 32.621,43.074C32.277,42.358 32.004,41.611 31.805,40.842C31.489,39.308 31.402,37.736 31.545,36.177C31.671,35.102 31.879,34.037 32.166,32.993L31.635,33.34Z" style="fill:rgb(82,54,24);fill-opacity:0.1;fill-rule:nonzero;"/>
                </g>
                <path d="M31.676,32.995C31.133,34.948 30.871,36.968 30.898,38.995C30.806,40.953 31.246,42.899 32.171,44.626C31.02,43.401 30.985,42.567 30.701,40.91C30.466,39.244 30.437,37.555 30.616,35.882C30.633,35.392 30.722,34.908 30.88,34.444C31.03,33.906 31.302,33.41 31.676,32.995Z" style="fill:rgb(208,138,90);fill-rule:nonzero;"/>
                <path d="M48.917,41.334C49.138,41.96 49.489,42.531 49.948,43.01C50.407,43.489 50.962,43.865 51.577,44.112C52.194,44.346 52.854,44.444 53.512,44.4C54.17,44.356 54.811,44.17 55.391,43.856C55.897,43.616 56.325,43.239 56.628,42.768C56.93,42.296 57.095,41.75 57.103,41.19C56.269,41.73 55.297,42.018 54.303,42.017C53.322,42.011 52.344,41.908 51.383,41.71C50.574,41.572 49.768,41.434 48.917,41.334Z" style="fill-opacity:0.14;fill-rule:nonzero;"/>
                <path d="M57.517,40.745C57.476,39.133 55.6,38.111 53.169,38.172C50.738,38.233 48.837,39.388 48.878,41.001C48.919,42.614 50.962,43.87 53.39,43.81C55.818,43.75 57.557,42.358 57.517,40.746L57.517,40.745Z" style="fill:rgb(37,37,37);fill-rule:nonzero;"/>
                <g>
                    <path d="M52.065,41.101C51.722,40.23 51.271,39.978 50.936,40.114C50.601,40.25 50.636,40.841 51.07,41.471C51.314,41.876 51.639,42.227 52.024,42.501C52.302,42.651 52.355,41.833 52.065,41.101Z" style="fill:rgb(71,71,71);fill-rule:nonzero;"/>
                </g>
                <g>
                    <path d="M54.264,41.132C54.63,40.271 55.089,40.032 55.42,40.178C55.751,40.324 55.696,40.913 55.247,41.531C54.991,41.928 54.657,42.269 54.264,42.531C53.984,42.674 53.955,41.855 54.264,41.132Z" style="fill:rgb(71,71,71);fill-rule:nonzero;"/>
                </g>
                <g>
                    <path d="M52.065,41.101C51.722,40.23 51.271,39.978 50.936,40.114C50.601,40.25 50.636,40.841 51.07,41.471C51.314,41.876 51.639,42.227 52.024,42.501C52.302,42.651 52.355,41.833 52.065,41.101Z" style="fill:rgb(71,71,71);fill-rule:nonzero;"/>
                </g>
                <g>
                    <path d="M54.264,41.132C54.63,40.271 55.089,40.032 55.42,40.178C55.751,40.324 55.696,40.913 55.247,41.531C54.991,41.928 54.657,42.269 54.264,42.531C53.984,42.674 53.955,41.855 54.264,41.132Z" style="fill:rgb(71,71,71);fill-rule:nonzero;"/>
                </g>
                <g>
                    <path d="M52.065,41.101C51.722,40.23 51.271,39.978 50.936,40.114C50.601,40.25 50.636,40.841 51.07,41.471C51.314,41.876 51.639,42.227 52.024,42.501C52.302,42.651 52.355,41.833 52.065,41.101Z" style="fill:rgb(71,71,71);fill-rule:nonzero;"/>
                </g>
                <g>
                    <path d="M54.264,41.132C54.63,40.271 55.089,40.032 55.42,40.178C55.751,40.324 55.696,40.913 55.247,41.531C54.991,41.928 54.657,42.269 54.264,42.531C53.984,42.674 53.955,41.855 54.264,41.132Z" style="fill:rgb(71,71,71);fill-rule:nonzero;"/>
                </g>
                <path d="M50.826,39.435C51.106,40.375 51.49,41.281 51.971,42.135C52.028,42.262 52.106,42.377 52.203,42.476C52.253,42.532 52.32,42.57 52.393,42.585C52.467,42.6 52.543,42.591 52.611,42.559C52.679,42.526 52.734,42.473 52.769,42.406C52.803,42.34 52.816,42.264 52.803,42.19C52.789,42.034 52.742,41.882 52.665,41.745C52.472,41.335 52.281,40.923 52.088,40.512C51.98,40.241 51.826,39.99 51.635,39.769C51.532,39.66 51.406,39.574 51.266,39.517C51.126,39.46 50.976,39.433 50.825,39.438L50.826,39.435Z" style="fill:rgb(37,37,37);fill-opacity:0.67;fill-rule:nonzero;"/>
                <path d="M55.635,39.68C55.19,40.547 54.746,41.413 54.303,42.28C54.263,42.371 54.205,42.453 54.134,42.522C54.097,42.556 54.051,42.578 54.002,42.584C53.952,42.591 53.902,42.583 53.858,42.561C53.736,42.488 53.743,42.309 53.773,42.171C53.983,41.331 54.387,40.552 54.953,39.897C55.043,39.767 55.166,39.664 55.31,39.597C55.458,39.54 55.686,39.597 55.639,39.682L55.635,39.68Z" style="fill:rgb(37,37,37);fill-opacity:0.46;fill-rule:nonzero;"/>
                <path d="M47.765,45.323C50.909,47.002 56.615,46.728 58.955,45.323C58.408,46.276 57.795,47.191 57.123,48.06C56.205,48.952 55.034,49.539 53.77,49.741C52.187,49.576 50.701,48.897 49.54,47.808C49.071,47.302 47.749,45.318 47.765,45.326L47.765,45.323Z" style="fill:rgb(37,37,37);fill-opacity:0.14;fill-rule:nonzero;"/>
                <path d="M47.24,44.908C50.573,46.622 56.773,46.344 59.226,44.955C59.279,44.925 57.855,46.74 57.254,47.386C56.261,48.341 55.016,48.99 53.665,49.258C52.004,48.996 50.465,48.228 49.256,47.058C48.753,46.547 47.222,44.9 47.24,44.908Z" style="fill:rgb(37,37,37);fill-rule:nonzero;"/>
                <path d="M51.192,48.523C51.207,48.404 51.245,48.289 51.304,48.185C51.363,48.081 51.442,47.99 51.537,47.916C51.687,47.799 51.859,47.713 52.042,47.664C52.225,47.614 52.417,47.602 52.605,47.628C52.958,47.636 53.647,47.943 53.586,48.241C53.486,47.971 53.848,47.723 54.23,47.703C54.656,47.672 55.076,47.811 55.4,48.089C55.485,48.168 55.547,48.269 55.58,48.38C55.613,48.491 55.617,48.609 55.589,48.721C54.971,49.103 54.266,49.323 53.54,49.361C52.703,49.267 51.9,48.98 51.192,48.523Z" style="fill:rgb(224,162,162);fill-rule:nonzero;"/>
                <g>
                    <path d="M60.651,33.818C60.47,29.918 64.551,29.949 64.551,29.949C64.551,29.949 68.162,31.901 68.013,34.685C67.864,37.469 66.137,39.185 64.113,38.862C61.948,38.515 60.78,36.602 60.653,33.818L60.651,33.818Z" style="fill:white;fill-rule:nonzero;"/>
                    <path d="M62.889,30.067C66.644,28.9 67.872,33.562 67.864,33.545C67.226,33.256 66.571,33.005 65.902,32.794C64.146,32.276 62.256,32.464 60.636,33.318C60.592,32.603 60.79,31.893 61.199,31.304C61.607,30.715 62.203,30.28 62.888,30.071L62.889,30.067Z" style="fill:rgb(211,146,102);fill-rule:nonzero;"/>
                    <path d="M63.14,35.591C63.766,35.591 64.273,35.084 64.273,34.458C64.273,33.832 63.766,33.325 63.14,33.325C62.515,33.325 62.007,33.832 62.007,34.458C62.007,35.084 62.515,35.591 63.14,35.591Z" style="fill-rule:nonzero;stroke:black;stroke-width:0.2px;"/>
                    <path d="M63.077,34.562C63.36,34.562 63.589,34.333 63.589,34.05C63.589,33.767 63.36,33.538 63.077,33.538C62.794,33.538 62.565,33.767 62.565,34.05C62.565,34.333 62.794,34.562 63.077,34.562Z" style="fill:white;fill-rule:nonzero;"/>
                    <path d="M67.978,34.036C68.028,34.432 68.022,34.834 67.96,35.228C67.871,35.969 67.626,36.683 67.241,37.322C66.926,37.881 66.445,38.327 65.865,38.6C65.284,38.873 64.633,38.959 64.002,38.845C67.755,36.451 66.067,31.492 65.192,30.1C65.931,30.493 66.568,31.054 67.052,31.737C67.535,32.421 67.852,33.208 67.976,34.036L67.978,34.036Z" style="fill-opacity:0.14;fill-rule:nonzero;"/>
                </g>
                <path d="M44.628,34.193C44.628,30.288 40.554,30.511 40.554,30.511C40.554,30.511 37.039,32.629 37.315,35.403C37.591,38.177 39.401,39.81 41.405,39.393C43.552,38.947 44.628,36.979 44.628,34.193Z" style="fill:white;fill-rule:nonzero;"/>
                <path d="M42.216,30.551C38.408,29.559 37.401,34.273 37.408,34.253C38.033,33.934 38.676,33.653 39.333,33.41C41.063,32.811 42.959,32.91 44.617,33.686C44.628,32.97 44.397,32.27 43.961,31.702C43.526,31.133 42.911,30.727 42.216,30.551Z" style="fill:rgb(211,146,102);fill-rule:nonzero;"/>
                <path d="M42.169,36.08C42.795,36.08 43.302,35.573 43.302,34.947C43.302,34.321 42.795,33.814 42.169,33.814C41.543,33.814 41.036,34.321 41.036,34.947C41.036,35.573 41.543,36.08 42.169,36.08Z" style="fill-rule:nonzero;stroke:black;stroke-width:0.2px;"/>
                <path d="M42.214,35.05C42.497,35.05 42.726,34.821 42.726,34.538C42.726,34.255 42.497,34.026 42.214,34.026C41.931,34.026 41.702,34.255 41.702,34.538C41.702,34.821 41.931,35.05 42.214,35.05Z" style="fill:white;fill-rule:nonzero;"/>
                <path d="M37.317,34.75C37.286,35.148 37.311,35.549 37.39,35.94C37.514,36.676 37.792,37.377 38.206,37.997C38.547,38.539 39.047,38.962 39.638,39.208C40.229,39.454 40.882,39.51 41.506,39.368C37.645,37.152 39.1,32.118 39.906,30.688C39.186,31.115 38.576,31.705 38.124,32.41C37.673,33.116 37.393,33.917 37.306,34.75L37.317,34.75Z" style="fill-opacity:0.14;fill-rule:nonzero;"/>
                <path d="M48.448,10.239C48.499,10.973 48.475,11.71 48.375,12.439C48.354,12.71 48.408,12.982 48.531,13.225C48.591,13.288 48.663,13.339 48.743,13.373C48.823,13.407 48.909,13.425 48.996,13.425C48.388,14.01 47.969,14.763 47.79,15.588C47.59,18.908 48.308,22.84 50.859,23.997C37.459,23.384 28.699,37.916 44.188,54.956C39.379,55.856 22.373,81.537 52.134,92.465C50.761,91.511 33.713,87.4 32.6,86.188C30.346,83.741 20.758,89.293 22.491,80.494C22.72,75.598 23.677,70.764 25.329,66.15C25.898,64.568 27.845,59.79 28.442,58.124C28.665,57.495 28.814,56.842 28.889,56.179C29.618,51.51 28.907,45.915 28.465,39.707C28.287,37.791 28.294,35.863 28.487,33.948C28.623,32.834 28.857,31.733 29.187,30.66C29.379,29.962 29.613,29.275 29.887,28.605C30.239,27.699 30.657,26.82 31.136,25.975C32.264,23.945 33.71,22.108 35.419,20.535C35.529,20.435 36.919,19.274 37.076,19.152C37.961,18.515 38.882,17.93 39.835,17.4C40.824,16.893 41.85,16.462 42.904,16.112C42.631,15.978 42.387,15.791 42.185,15.562C41.877,15.247 41.69,14.834 41.657,14.394C41.663,13.586 42.585,13.029 43.487,12.956C44.11,12.904 44.733,13.06 45.258,13.399C45.067,13.186 44.912,12.943 44.799,12.68C44.672,12.265 44.632,11.828 44.682,11.396C44.732,10.965 44.872,10.549 45.091,10.174C45.21,9.919 45.378,9.69 45.586,9.501C45.794,9.312 46.038,9.166 46.303,9.073C46.584,9.007 46.876,9.005 47.157,9.066C47.439,9.128 47.703,9.253 47.93,9.43C48.196,9.627 48.38,9.916 48.448,10.239Z" style="fill:rgb(82,54,24);fill-opacity:0.14;fill-rule:nonzero;"/>
                <path d="M25.607,65.41C15.137,66.615 11.327,86.482 11.327,86.482C11.327,86.482 22.653,102.182 33.138,106.482C74.675,123.548 94.853,86.748 94.853,86.748C94.853,86.748 92.577,74.462 88.034,69.462C84.023,65.051 81.056,64.125 81.056,64.125C81.056,64.125 73.827,90.931 53.401,90.773C37.628,90.773 26.739,77.299 25.608,65.411L25.607,65.41Z" style="fill:rgb(35,45,64);fill-rule:nonzero;"/>
                <path d="M27.669,111.812C41.918,107.782 56.591,105.441 71.386,104.836C71.964,104.812 72.45,105.162 72.45,105.599C72.416,105.822 72.299,106.024 72.123,106.165C71.947,106.306 71.724,106.376 71.499,106.36C67.045,106.55 47.73,107.58 30.165,111.811C30.165,111.876 27.665,112.201 27.665,111.811M66.96,96.017C67.231,95.443 67.573,94.905 67.979,94.417C68.074,94.464 67.868,95.165 67.326,96.108C66.88,96.884 66.347,97.606 65.736,98.26C65.849,97.985 66.547,96.745 66.96,96.019M37.649,96.767C37.985,96.708 38.331,96.776 38.618,96.959C39.018,97.26 39.313,97.68 39.461,98.159C39.523,98.747 39.352,99.335 38.984,99.797C38.632,100.297 38.215,101.057 37.977,101.486L37.961,101.514C37.945,101.542 37.931,101.568 37.919,101.591C37.777,101.854 37.601,102 37.298,101.733C37.178,101.643 37.081,101.526 37.015,101.391C36.948,101.257 36.914,101.108 36.916,100.958C36.998,100.338 37.251,99.754 37.648,99.271C38.048,98.652 38.475,97.924 38.253,97.8C37.664,97.466 34.183,100.173 34.102,101.941C34.055,102.956 36.232,103.541 36.853,103.885C36.99,103.95 37.107,104.051 37.192,104.177C37.276,104.303 37.325,104.45 37.332,104.601C37.269,105.091 37.051,105.548 36.711,105.906C36.152,106.515 35.386,106.894 34.563,106.97C33.834,107.03 33.1,106.927 32.415,106.669C31.73,106.411 31.111,106.004 30.603,105.477C30.381,105.246 30.492,105.064 30.714,104.957C30.874,104.902 31.039,104.865 31.206,104.846C31.632,104.771 32.071,104.848 32.446,105.064C33.188,105.643 34.099,105.962 35.039,105.974C35.353,105.953 35.65,105.828 35.884,105.618C35.933,105.58 35.972,105.53 35.999,105.474C36.025,105.418 36.038,105.356 36.037,105.294C36.035,105.231 36.019,105.17 35.99,105.115C35.961,105.06 35.919,105.013 35.868,104.977C34.723,104.277 32.512,103.739 32.512,102.177C32.512,100.098 34.992,97.95 36.424,97.177C36.8,96.956 37.216,96.813 37.648,96.756L37.649,96.767ZM67.449,93.094C67.749,92.764 68.036,92.635 68.339,92.869C68.504,92.989 68.638,93.146 68.729,93.328C68.82,93.51 68.866,93.712 68.863,93.915C68.867,94.137 68.834,94.358 68.768,94.57C68.073,96.556 66.813,98.296 65.143,99.576C64.852,100.232 64.675,100.933 64.619,101.649C64.619,102.015 64.714,102.262 64.919,102.234C65.651,102.134 66.572,100.99 67.178,99.809C67.225,99.711 67.293,99.625 67.378,99.556C67.71,99.03 68.104,98.446 68.515,97.905C68.427,97.847 68.354,97.769 68.302,97.678C68.25,97.587 68.22,97.484 68.215,97.379C68.284,96.939 68.458,96.522 68.721,96.162C68.984,95.802 69.329,95.511 69.727,95.311C70.061,95.267 70.204,95.432 70.204,95.782C70.17,96.214 70.074,96.639 69.919,97.044C70.39,96.846 70.826,96.572 71.207,96.231C71.478,96.011 71.636,95.96 71.844,96.131C71.979,96.245 72.09,96.385 72.169,96.543C72.248,96.701 72.295,96.873 72.305,97.049C72.292,97.281 72.203,97.503 72.05,97.678C71.192,98.74 70.286,100.067 70.286,100.969C70.286,101.369 70.413,101.594 70.636,101.569C71.176,101.498 71.813,100.558 72.305,99.437C72.432,99.144 72.655,99.101 72.797,99.356C72.86,99.517 72.888,99.689 72.88,99.861C72.872,100.033 72.828,100.202 72.75,100.356C72.555,100.817 72.251,101.224 71.864,101.541C71.477,101.858 71.018,102.076 70.527,102.176C70.339,102.224 70.143,102.226 69.954,102.182C69.766,102.137 69.59,102.049 69.443,101.922C69.296,101.796 69.182,101.637 69.109,101.457C69.037,101.277 69.009,101.083 69.027,100.89C69.253,99.658 69.821,98.515 70.665,97.59C70.302,97.786 69.91,97.921 69.504,97.99C68.544,99.478 67.764,101.075 67.182,102.747C67.119,103.03 66.911,103.196 66.626,102.947C66.418,102.785 66.282,102.549 66.246,102.288C65.859,102.57 65.411,102.756 64.939,102.834C64.635,102.923 64.309,102.889 64.03,102.739C63.751,102.589 63.542,102.336 63.448,102.034C62.916,102.717 62.159,103.189 61.312,103.365C60.23,103.507 59.643,103.021 59.643,102.194C59.652,101.84 59.733,101.492 59.88,101.17C60.135,100.616 60.659,99.722 61.025,99.123C61.375,98.571 61.757,98.063 61.625,98.081C61.493,98.099 61.164,98.295 60.225,99.321C59.097,100.637 58.194,102.131 57.553,103.741C57.395,104.053 57.171,104.129 56.916,103.917C56.794,103.825 56.698,103.703 56.636,103.563C56.575,103.423 56.551,103.269 56.566,103.117C56.602,102.714 56.699,102.32 56.853,101.946C57.19,101.193 57.583,100.466 58.03,99.772C58.459,99.028 58.906,98.388 58.762,98.407C58.092,98.806 57.513,99.341 57.062,99.977C56.123,101.193 55.37,102.541 54.827,103.978C54.714,104.237 54.54,104.354 54.269,104.16C54.156,104.083 54.062,103.98 53.996,103.86C53.591,104.213 53.097,104.448 52.568,104.542C51.631,104.667 51.152,104.285 51.089,103.607C50.587,104.289 49.851,104.762 49.022,104.936C48.817,104.989 48.6,104.965 48.412,104.869C48.224,104.773 48.076,104.612 47.998,104.416C47.508,104.901 46.884,105.228 46.206,105.355C46.007,105.406 45.798,105.409 45.598,105.361C45.398,105.314 45.212,105.219 45.057,105.084C44.901,104.949 44.781,104.779 44.706,104.587C44.631,104.396 44.604,104.189 44.627,103.984C44.897,102.701 45.488,101.507 46.346,100.515C45.957,100.723 45.539,100.871 45.106,100.954C43.961,103.554 42.179,105.867 40.16,106.134C39.887,106.214 39.6,106.226 39.321,106.171C39.043,106.116 38.782,105.994 38.56,105.816C38.338,105.639 38.163,105.411 38.048,105.151C37.933,104.891 37.883,104.607 37.901,104.324C37.923,103.689 38.086,103.066 38.378,102.502C38.645,101.84 39.053,101.244 39.576,100.758C40.098,100.271 40.721,99.905 41.4,99.686C41.586,99.651 41.779,99.668 41.956,99.735C42.341,99.876 42.67,100.139 42.893,100.483C43.13,100.94 42.877,101.523 42.575,102.162C42.565,102.186 42.553,102.209 42.541,102.233L42.529,102.257C42.435,102.441 42.355,102.63 42.288,102.825C42.177,103.161 42.114,103.246 41.716,103.1C41.548,103.043 41.403,102.932 41.302,102.786C41.202,102.64 41.151,102.465 41.158,102.287C41.228,101.894 41.351,101.512 41.524,101.152C41.682,100.81 41.842,100.484 41.763,100.432C41.555,100.305 40.539,101.375 39.87,102.762C39.589,103.309 39.427,103.908 39.393,104.522C39.393,105.165 39.664,105.556 40.125,105.522C41.683,105.376 43.384,102.922 44.211,100.93C44.076,100.899 43.956,100.819 43.874,100.707C43.792,100.594 43.754,100.456 43.766,100.317C43.839,99.857 44.022,99.422 44.299,99.047C44.575,98.673 44.938,98.37 45.356,98.165C45.69,98.121 45.817,98.303 45.817,98.64C45.781,99.094 45.68,99.54 45.517,99.965C46.023,99.765 46.491,99.481 46.901,99.124C47.138,98.924 47.393,98.829 47.601,99.015C47.738,99.14 47.848,99.291 47.924,99.46C48.001,99.629 48.042,99.811 48.046,99.996C48.034,100.237 47.938,100.467 47.775,100.645C47.052,101.475 46.472,102.42 46.058,103.44C45.979,103.665 45.936,103.902 45.931,104.14C45.931,104.522 46.058,104.74 46.297,104.719C46.797,104.695 47.616,103.74 48.113,102.708C48.666,101.278 49.38,99.916 50.243,98.648C50.274,98.587 50.318,98.535 50.374,98.495C50.429,98.456 50.493,98.43 50.561,98.421C50.628,98.412 50.697,98.42 50.761,98.444C50.825,98.467 50.882,98.506 50.927,98.557C51.087,98.744 51.171,98.984 51.164,99.229C50.953,100.05 50.62,100.834 50.177,101.557L50.132,101.646C49.881,102.135 49.632,102.621 49.448,103.034C49.161,103.683 49.114,104.254 49.464,104.209C49.877,104.154 50.72,103.003 51.533,101.673C52.47,100.081 52.884,98.987 53.455,98.208C53.678,97.888 53.932,97.793 54.123,98.028C54.292,98.245 54.377,98.516 54.36,98.791C54.236,99.583 53.932,100.336 53.47,100.991C52.95,101.746 52.583,102.595 52.388,103.491C52.388,103.766 52.483,103.906 52.688,103.879C53.072,103.828 53.61,103.189 54.096,102.443C54.773,100.822 55.578,99.257 56.505,97.764C56.713,97.446 56.95,97.43 57.105,97.683C57.246,97.89 57.324,98.133 57.328,98.383C57.326,98.524 57.31,98.664 57.281,98.802C57.833,98.128 58.551,97.611 59.366,97.302C59.874,97.235 60.209,97.741 60.209,98.382C60.768,97.747 61.484,97.271 62.285,97C62.746,96.955 63.001,97.334 63.001,97.839C62.865,98.679 62.527,99.474 62.016,100.155C61.577,100.738 61.283,101.417 61.158,102.135C61.158,102.487 61.316,102.711 61.571,102.677C62.063,102.612 62.843,101.437 63.432,100.428C63.464,100.37 63.506,100.317 63.555,100.272C64.348,97.637 65.675,95.193 67.455,93.093L67.449,93.094Z" style="fill:white;"/>
            </g>
        </g>
    </g>
    <defs>
        <linearGradient id="_Linear1" x1="0" y1="0" x2="1" y2="0" gradientUnits="userSpaceOnUse" gradientTransform="matrix(6.2457e-15,102,-102,6.2457e-15,52,2)"><stop offset="0" style="stop-color:rgb(240,242,254);stop-opacity:1"/><stop offset="1" style="stop-color:rgb(231,238,255);stop-opacity:1"/></linearGradient>
    </defs>
</svg>
