<svg width="284" height="313" viewBox="0 0 284 313" fill="none" xmlns="http://www.w3.org/2000/svg">
<g clip-path="url(#clip0_4618_67726)">
<path d="M48.6991 111.728V88.7338H3.63696V70.3701L55.3343 4.0123H69.3777V70.2158H82.9583V88.7338H69.3777V111.727L48.6991 111.728ZM24.3155 70.2158H51.0131V35.3396L24.3155 70.2158ZM175.859 46.913C175.927 53.2885 174.909 59.629 172.85 65.6632C171.013 71.0738 168.187 76.0965 164.517 80.4762C161.043 84.585 156.728 87.9004 151.863 90.1984C146.89 92.4862 141.481 93.6707 136.007 93.6707C130.533 93.6707 125.123 92.4862 120.15 90.1984C115.317 87.885 111.03 84.5711 107.573 80.4762C103.903 76.0965 101.078 71.0738 99.2403 65.6632C97.1812 59.629 96.1637 53.2885 96.2312 46.913C96.1637 40.5375 97.1812 34.1969 99.2403 28.1627C101.078 22.7522 103.903 17.7295 107.573 13.3497C111.04 9.24513 115.323 5.90651 120.149 3.546C125.109 1.20864 130.523 -0.00341797 136.006 -0.00341797C141.488 -0.00341797 146.903 1.20864 151.862 3.546C156.72 5.89091 161.03 9.23039 164.515 13.348C168.185 17.7277 171.01 22.7504 172.848 28.161C174.908 34.1956 175.926 40.5367 175.859 46.913ZM155.026 46.913C155.062 43.0875 154.595 39.2738 153.636 35.5701C152.839 32.4099 151.508 29.409 149.701 26.6963C148.149 24.3651 146.092 22.4135 143.683 20.9868C141.361 19.6475 138.724 18.9547 136.044 18.9804C133.314 18.9415 130.623 19.6342 128.251 20.9868C125.841 22.4135 123.784 24.3651 122.233 26.6963C120.426 29.409 119.095 32.4099 118.297 35.5701C117.339 39.2738 116.872 43.0875 116.908 46.913C116.869 50.7133 117.336 54.5019 118.297 58.1787C119.105 61.3115 120.435 64.2855 122.233 66.9754C123.784 69.3066 125.841 71.2582 128.251 72.6849C130.623 74.0374 133.314 74.7302 136.044 74.6913C138.724 74.717 141.361 74.0242 143.683 72.6849C146.092 71.2582 148.149 69.3066 149.701 66.9754C151.498 64.2855 152.829 61.3115 153.636 58.1787C154.598 54.5019 155.065 50.7133 155.026 46.913ZM231.568 111.728V88.7338H186.506V70.3701L238.204 4.0123H252.248V70.2158H265.828V88.7338H252.248V111.727L231.568 111.728ZM207.187 70.2158H233.884V35.3396L207.187 70.2158Z" fill="#5C8FFF"/>
</g>
<path d="M150.906 45.9007C144.543 45.89 138.22 46.9202 132.19 48.9504C129.303 49.9246 126.486 51.0976 123.761 52.4611C121.027 53.8331 118.371 55.3583 115.808 57.0295C113.323 58.6425 110.843 60.4174 108.225 62.4546C105.889 64.2734 103.496 66.2628 100.907 68.5369C96.0925 72.7671 91.2926 77.3894 86.6511 81.8594C81.79 86.5403 76.7631 91.3816 71.6102 95.8862C68.8324 98.3145 66.2486 100.447 63.7115 102.405C60.8581 104.606 58.1409 106.531 55.4009 108.288C46.0092 114.313 37.7823 121.219 30.9494 128.813C24.6961 135.687 19.5002 143.453 15.5324 151.856C11.9922 159.356 9.70212 167.384 8.75267 175.623C8.32471 179.473 8.23278 183.353 8.4779 187.22C8.71789 190.967 9.29879 194.685 10.2134 198.327C14.7276 215.291 21.6061 231.049 30.657 245.166C39.4136 258.898 50.3753 271.091 63.1008 281.255C75.7602 291.333 90.0426 299.183 105.336 304.468C121.071 309.918 137.836 312.68 155.165 312.68C159.523 312.679 163.879 312.453 168.214 312.002C180.844 310.683 193.197 307.433 204.84 302.364C212.446 299.05 219.707 294.997 226.519 290.262C233.313 285.534 239.639 280.166 245.408 274.231C257.1 262.19 266.384 248.027 272.761 232.502C274.378 228.571 275.822 224.513 277.053 220.44C278.299 216.321 279.357 212.088 280.199 207.858C281.051 203.573 281.702 199.187 282.133 194.823C282.57 190.394 282.792 185.878 282.792 181.399C282.792 176.931 282.589 172.48 282.19 168.171C281.799 163.945 281.207 159.741 280.432 155.673C279.672 151.686 278.714 147.722 277.587 143.893C276.482 140.14 275.182 136.413 273.726 132.815C272.299 129.291 270.68 125.796 268.919 122.427C267.193 119.127 265.281 115.859 263.236 112.713C261.234 109.633 259.05 106.586 256.746 103.659C254.491 100.794 252.059 97.9657 249.519 95.253C247.034 92.5987 244.378 89.9837 241.626 87.481C238.932 85.0328 236.076 82.6266 233.134 80.3313C227.255 75.7594 221.076 71.5856 214.64 67.838C202.274 60.6136 188.456 54.5201 173.566 49.7262C169.703 48.47 165.753 47.4986 161.748 46.8199C158.164 46.2183 154.538 45.911 150.904 45.9013M150.904 45.5807C157.871 45.5807 165.406 46.7619 173.664 49.421C230.637 67.7659 283.112 108.719 283.112 181.402C283.112 254.085 225.828 313.002 155.165 313.002C84.5014 313.002 28.2126 267.212 9.90303 198.407C2.59754 169.478 16.3371 132.968 55.2275 108.02C88.4818 86.6872 109.808 45.5801 150.906 45.5801L150.904 45.5807Z" fill="url(#paint0_linear_4618_67726)"/>
<g filter="url(#filter0_b_4618_67726)">
<path d="M165.668 55.2978C222.647 72.6137 275.131 111.269 275.131 179.873C275.131 248.477 217.838 304.087 147.164 304.087C76.4907 304.087 20.1936 260.867 1.88148 195.923C-5.42533 168.618 8.31564 134.157 47.2132 110.608C86.1107 87.0596 108.689 37.9818 165.668 55.2978Z" fill="url(#paint1_linear_4618_67726)" fill-opacity="0.4"/>
</g>
<g filter="url(#filter1_b_4618_67726)">
<path d="M165.673 55.3417C222.574 72.6529 274.985 111.298 274.985 179.883C274.985 248.468 217.771 304.062 147.195 304.062C76.6188 304.062 20.3994 260.854 2.11253 195.928C-5.18421 168.631 8.53781 134.179 47.3817 110.637C86.2256 87.0948 108.772 38.0304 165.673 55.3417Z" fill="url(#paint2_linear_4618_67726)" fill-opacity="0.4"/>
</g>
<g filter="url(#filter2_b_4618_67726)">
<path d="M163.264 66.2317C214.199 82.0424 261.114 117.338 261.114 179.978C261.114 242.618 209.9 293.393 146.724 293.393C83.5477 293.393 33.2231 253.93 16.8538 194.632C10.3221 169.701 22.6053 138.235 57.3762 116.734C92.1472 95.2324 112.33 50.421 163.264 66.2317Z" fill="url(#paint3_linear_4618_67726)" fill-opacity="0.5"/>
</g>
<mask id="mask0_4618_67726" style="mask-type:alpha" maskUnits="userSpaceOnUse" x="14" y="63" width="247" height="232">
<path d="M162.349 67.0381C213.318 82.8383 260.265 118.11 260.265 180.709C260.265 243.307 209.016 294.049 145.797 294.049C82.5783 294.049 32.2197 254.612 15.8393 195.353C9.30321 170.438 21.5947 138.994 56.3891 117.507C91.1836 96.0195 111.38 51.2379 162.349 67.0381Z" fill="#D9D9D9"/>
</mask>
<g mask="url(#mask0_4618_67726)">
<path d="M221.103 255.345L221.096 268.213C221.096 269.093 220.612 269.893 219.845 270.321C212.15 274.613 206.007 281.632 202.764 289.825C202.392 290.761 201.458 291.175 200.463 291.332C181.107 294.389 156.766 295.127 143.09 290.078C141.906 289.641 138.644 286.77 138.644 286.77C138.644 286.77 141.325 270.969 140.14 263.123C139.944 261.817 140.84 260.596 142.144 260.394C166.567 256.585 193.399 258.379 218.19 252.997C219.69 252.671 221.105 253.814 221.103 255.345Z" fill="#E8E8E8"/>
<path d="M221.103 256.677C221.266 259.966 221.057 264.997 221.023 268.395C221.015 269.212 220.547 269.925 219.849 270.351C212.375 274.923 209.285 277.499 202.216 290.603C201.953 291.09 199.421 291.474 196.949 291.855C193.435 292.396 189.575 292.845 188.539 292.845C205.298 282.901 211.418 268.803 205.486 263.401C217.511 258.618 211.007 261.186 221.103 256.677Z" fill="#D5D5D5"/>
<path d="M203.205 149.751C206.667 143.971 216.707 140.177 223.106 142.289C229.504 144.402 233.064 148.744 235.605 154.985C238.146 161.227 239.834 172.279 239.972 178.175C240.254 190.32 237.749 214.657 235.181 226.53C233.942 232.264 229.698 246.281 228.685 249.081C227.785 251.569 227.841 251.755 227.398 252.196C220.666 258.929 199.291 266.537 186.103 268.102C165.134 270.588 138.602 264.351 123.945 260.331C119.505 259.113 133.734 263.682 134.177 263.994C134.887 264.491 135.859 263.887 135.752 263.026C135.683 262.481 135.648 261.793 135.671 260.93C135.769 257.332 138.853 254.424 142.211 253.132C145.57 251.841 150.094 253.558 152.802 251.189C178.236 228.923 183.048 235.124 190.102 219.714C197.156 204.303 198.769 187.018 199.68 170.093C200.081 162.656 200.735 153.876 203.205 149.751Z" fill="#F2F2F2"/>
<path d="M204.787 260.859C180.652 271.273 150.262 264.877 149.396 264.833C164.177 269.388 181.007 268.739 185.846 268.135C191.692 267.403 197.977 265.893 203.727 264.01C207.167 262.884 212.221 260.991 215.271 259.591C218.364 258.172 220.641 257.1 223.481 255.25C224.67 254.475 226.561 253.192 227.616 251.947C226.297 251.564 222.152 249.895 221.688 249.694C221.686 249.692 217.02 255.579 204.787 260.859Z" fill="#D5D5D5"/>
<mask id="mask1_4618_67726" style="mask-type:luminance" maskUnits="userSpaceOnUse" x="91" y="88" width="177" height="160">
<path d="M125.473 227.504L241.17 247.129C241.254 247.104 267.275 154.102 267.25 154.018L184.455 88.5081C184.43 88.4245 174.781 92.5577 174.7 92.5827L91.3613 118.721C91.2777 118.746 91.2318 118.836 91.2568 118.92L125.272 227.404C125.3 227.485 125.389 227.531 125.473 227.504Z" fill="white"/>
</mask>
<g mask="url(#mask1_4618_67726)">
<path d="M101.625 147.505C102.157 157.042 106.622 168.235 120.937 174.226C122.863 175.033 125.291 176.681 125.805 178.234C127.79 184.227 127.487 189.363 130.592 195.072C134.234 201.769 134.144 205.434 137.122 209.132C137.807 209.985 143.954 205.965 161.607 197.801C167.571 195.043 171.292 203.123 174.165 197.214C177.038 191.306 182.857 188.966 183.354 182.415C183.743 177.292 183.078 169.89 185.427 165.396C187.38 161.655 190.811 158.084 195.105 157.558C195.257 157.539 198.164 156.022 198.03 155.949C190.562 151.849 214.419 154.894 214.419 154.894C214.419 154.894 198.64 145.99 183.665 135.21C171.942 126.77 169.014 122.641 163.241 118.823C158.789 115.877 149.98 112.241 141.022 113.639C140.857 113.664 140.839 113.898 140.997 113.949C142.32 114.377 143.707 114.103 144.014 112.714C144.361 111.138 142.468 109.017 140.853 109.036C139.441 109.051 137.863 109.874 137.314 111.514C137.314 111.514 137.872 110.492 137.911 110.419C138.436 109.494 138.083 108.292 137.84 107.803C137.358 106.829 136.277 105.256 134.696 105.241C133.279 105.229 132.247 106.531 132.259 107.494C132.28 109.285 134.593 112.308 132.765 112.881C116.171 117.946 100.515 127.608 101.625 147.505Z" fill="#D08A5A"/>
</g>
<mask id="mask2_4618_67726" style="mask-type:luminance" maskUnits="userSpaceOnUse" x="98" y="116" width="75" height="65">
<path d="M114.191 180.339L172.365 158.066C172.446 158.035 172.488 157.949 172.461 157.874L156.498 116.177C156.468 116.102 156.378 116.066 156.297 116.097L98.1256 138.368C98.0441 138.399 98.0023 138.485 98.0295 138.56L113.991 180.257C114.022 180.335 114.11 180.37 114.191 180.339Z" fill="white"/>
</mask>
<g mask="url(#mask2_4618_67726)">
<path d="M121.001 132.116C122.165 131.961 125.898 131.592 128.393 128.99C130.24 127.061 132.706 125.29 135.246 124.17C138.474 122.747 143.328 122.607 146.176 123.25C149.404 123.981 154.918 126.458 158.706 129.216C162.321 131.849 165.11 136.768 165.514 141.356C166.005 146.948 163.811 151.911 160.591 156.209C156.506 161.663 152.12 164.774 147.237 167.304C136.6 172.819 129.417 172.658 123.518 171.931C119.524 171.44 114.166 169.498 110.115 165.647C108.941 164.532 107.952 162.72 107.046 161.397C104.741 158.037 104.116 151.179 104.607 146.724C105.238 140.993 106.895 133.984 121.001 132.116Z" fill="#F2D2B6"/>
</g>
<path d="M106.81 148.269C107.462 147.045 108.343 146.046 109.286 145.03C110.228 144.013 111.586 143.21 112.466 142.801C114.131 142.021 116.588 142.279 117.831 142.615C118.889 142.901 120.176 143.869 121.105 145.06C122.096 146.33 122.336 148.576 122.474 150.183C122.61 151.792 121.887 154.672 120.876 155.925C120.14 156.837 118.584 158.132 116.068 158.692C113.038 159.369 112.083 159.54 111.06 160.627C110.433 161.291 109.779 162.238 109.444 162.767C108.993 163.479 108.776 163.795 108.692 163.96C107.397 162.42 106.367 160.406 105.711 158.813C105.473 158.239 104.319 155.811 104.342 152.858C104.342 152.925 105.759 150.244 106.81 148.269Z" fill="#D9A171"/>
<path opacity="0.1686" d="M104.342 152.881C104.342 152.881 104.372 153.963 104.478 154.745C104.541 155.198 104.961 157.006 105.51 158.345C106.313 160.301 107.215 162.215 108.686 163.964C109.355 162.911 109.647 162.432 109.647 162.432C109.647 162.432 108.164 160.92 107.01 158.009C106.444 156.579 105.659 154.906 105.107 151.466C104.702 152.229 104.342 152.881 104.342 152.881Z" fill="#523618"/>
<path d="M119.499 147.266C117.994 144.859 112.296 145.016 112.296 145.016C112.296 145.016 109.129 149.682 111.07 152.983C113.011 156.285 116.208 157.284 118.471 155.608C120.892 153.817 121.53 150.513 119.499 147.266Z" fill="white"/>
<path opacity="0.1412" d="M117.923 150.198C118.316 151.076 119.131 152.722 118.989 155.192C119.808 154.382 120.349 153.456 120.591 152.33C120.832 151.214 120.704 149.929 120.263 148.8C119.536 149.264 119.047 149.594 117.923 150.198Z" fill="#111111"/>
<path d="M115.577 155.581C116.438 155.581 117.135 154.883 117.135 154.022C117.135 153.161 116.438 152.463 115.577 152.463C114.716 152.463 114.018 153.161 114.018 154.022C114.018 154.883 114.716 155.581 115.577 155.581Z" fill="#111111" stroke="#111111" stroke-miterlimit="10"/>
<path d="M115.207 155.193C115.595 155.193 115.91 154.878 115.91 154.489C115.91 154.101 115.595 153.786 115.207 153.786C114.818 153.786 114.503 154.101 114.503 154.489C114.503 154.878 114.818 155.193 115.207 155.193Z" fill="white"/>
<path d="M112.97 144.275C108.145 146.112 110.83 152.607 110.822 152.579C110.822 152.579 114.648 152.506 120.327 148.76C120.327 148.76 120.247 148.496 120.007 148.026C119.169 146.382 116.823 142.809 112.97 144.275Z" fill="#D39266"/>
<path opacity="0.1294" d="M120.307 148.698C120.303 148.684 120.297 148.671 120.291 148.652C120.274 148.606 120.249 148.546 120.217 148.473C120.14 148.295 120.015 148.044 119.9 147.821C119.802 147.637 119.685 147.434 119.555 147.221C119.317 146.841 119.037 146.45 118.749 146.091C118.525 145.821 118.28 145.558 118.011 145.311C117.886 145.198 117.744 145.081 117.585 144.956C117.445 144.847 117.288 144.736 117.127 144.634C116.749 144.398 116.337 144.206 115.892 144.08C115.675 144.024 115.449 143.98 115.24 143.953C114.574 143.876 113.845 143.953 113.049 144.248C112.988 144.273 112.925 144.296 112.865 144.323C112.846 144.331 112.827 144.339 112.806 144.348C112.597 144.442 112.384 144.548 112.161 144.674C112.156 144.676 112.154 144.678 112.15 144.682C113.084 144.695 114.818 145.478 116.835 148.262C117.311 148.92 117.666 149.572 117.927 150.199C118.684 149.791 119.486 149.317 120.33 148.759C120.326 148.761 120.32 148.738 120.307 148.698Z" fill="#111111"/>
<path d="M140.878 131.093C139.95 131.947 138.713 133.55 138.667 135.638C138.621 137.725 139.275 140.287 140.253 142.132C141.093 143.714 142.438 145.139 144.081 145.854C146.227 146.788 149.031 146.382 150.65 145.736C152.163 145.133 154.616 143.534 157.096 142.98C157.942 142.79 159.722 142.809 160.47 143.026C161.949 143.459 164.085 145.413 165.065 147.205C166.193 142.569 165.37 139.65 164.515 136.925C163.717 134.38 162.53 132.493 162.53 132.493C162.53 132.493 162.098 132.273 161.646 132.073C160.524 131.573 157.986 130.14 156.789 129.868C154.666 129.388 153.201 128.811 151.036 128.573C149.212 128.372 147.842 128.569 146.036 128.89C144.294 129.202 141.766 130.276 140.878 131.093Z" fill="#D9A171"/>
<path d="M150.945 134.865C149.484 132.213 143.427 132.054 143.427 132.054C143.427 132.054 139.798 136.85 141.672 140.481C143.546 144.113 146.881 145.361 149.38 143.704C152.052 141.929 152.917 138.442 150.945 134.865Z" fill="white"/>
<path opacity="0.1412" d="M149.106 137.903C149.474 138.863 150.245 140.666 149.954 143.29C150.869 142.473 151.496 141.516 151.818 140.329C152.138 139.153 152.073 137.776 151.67 136.547C150.872 136.999 150.332 137.323 149.106 137.903Z" fill="#111111"/>
<path d="M145.922 143.549C146.837 143.549 147.578 142.804 147.578 141.885C147.578 140.967 146.837 140.222 145.922 140.222C145.006 140.222 144.265 140.967 144.265 141.885C144.265 142.804 145.006 143.549 145.922 143.549Z" fill="#111111" stroke="#111111" stroke-miterlimit="10"/>
<path d="M145.545 143.29C145.958 143.29 146.293 142.953 146.293 142.538C146.293 142.123 145.958 141.786 145.545 141.786C145.132 141.786 144.797 142.123 144.797 142.538C144.797 142.953 145.132 143.29 145.545 143.29Z" fill="white"/>
<path d="M144.183 131.304C138.957 132.988 141.439 140.068 141.431 140.036C141.431 140.036 145.497 140.176 151.74 136.505C151.74 136.505 151.671 136.221 151.441 135.705C150.645 133.906 148.355 129.959 144.183 131.304Z" fill="#D39266"/>
<path opacity="0.1294" d="M151.72 136.44C151.715 136.425 151.711 136.41 151.705 136.392C151.705 136.39 151.705 136.39 151.705 136.388C151.688 136.337 151.667 136.273 151.638 136.193C151.565 135.999 151.448 135.723 151.337 135.481C151.243 135.278 151.133 135.056 151.005 134.822C150.773 134.402 150.499 133.972 150.213 133.573C149.992 133.274 149.745 132.977 149.474 132.699C149.346 132.574 149.204 132.438 149.041 132.296C148.899 132.173 148.738 132.045 148.575 131.926C148.186 131.653 147.76 131.423 147.294 131.266C147.067 131.195 146.83 131.134 146.609 131.093C145.907 130.973 145.125 131.013 144.265 131.281C144.198 131.304 144.131 131.324 144.064 131.35C144.043 131.358 144.022 131.364 144.001 131.373C143.774 131.46 143.54 131.563 143.297 131.684C143.293 131.686 143.289 131.688 143.285 131.69C144.275 131.757 146.07 132.691 148.055 135.775C148.525 136.505 148.863 137.221 149.104 137.905C149.929 137.514 150.809 137.054 151.738 136.507C151.738 136.507 151.732 136.482 151.72 136.44Z" fill="#111111"/>
<path d="M126.509 144.253C123.13 148.361 123.427 154.155 124.037 156.619C124.647 159.08 125.579 160.836 126.571 162.179C126.996 162.756 128.79 165.809 133.019 164.482C135.238 163.786 136.862 162.202 139.762 161.293C143.402 160.152 145.639 157.12 144.814 154.736C140.222 141.486 131.187 141.66 129.831 142.086C128.124 142.621 126.695 144.027 126.509 144.253Z" fill="#D9A171"/>
<path opacity="0.1608" d="M135.481 160.711C136.434 160.357 136.894 159.226 136.508 158.184C136.122 157.142 135.036 156.584 134.083 156.937C133.129 157.29 132.669 158.421 133.056 159.464C133.442 160.506 134.528 161.064 135.481 160.711Z" fill="#252525"/>
<path d="M135.337 160.285C136.296 159.929 136.76 158.797 136.374 157.754C135.988 156.712 134.897 156.156 133.939 156.511C132.98 156.866 132.516 157.999 132.902 159.041C133.288 160.083 134.378 160.64 135.337 160.285Z" fill="#252525"/>
<path d="M125.637 152.412C124.889 150.12 127.025 147.744 130.481 146.62C133.934 145.494 137.192 146.175 137.94 148.467C138.688 150.759 136.436 153.549 132.982 154.675C129.528 155.801 126.385 154.704 125.637 152.412Z" fill="#252525"/>
<mask id="mask3_4618_67726" style="mask-type:luminance" maskUnits="userSpaceOnUse" x="132" y="148" width="5" height="5">
<path d="M134.063 152.242L135.906 151.64C135.99 151.613 136.034 151.523 136.006 151.442L134.964 148.241C134.937 148.157 134.847 148.113 134.765 148.14L132.923 148.742C132.839 148.769 132.795 148.859 132.822 148.941L133.865 152.142C133.892 152.225 133.982 152.269 134.063 152.242Z" fill="white"/>
</mask>
<g mask="url(#mask3_4618_67726)">
<g opacity="0.1216">
<mask id="mask4_4618_67726" style="mask-type:luminance" maskUnits="userSpaceOnUse" x="132" y="148" width="5" height="5">
<path d="M134.063 152.241L135.906 151.639C135.99 151.612 136.033 151.522 136.006 151.44L134.964 148.239C134.936 148.156 134.847 148.112 134.765 148.139L132.922 148.741C132.839 148.768 132.795 148.858 132.822 148.939L133.865 152.14C133.892 152.224 133.982 152.268 134.063 152.241Z" fill="white"/>
</mask>
<g mask="url(#mask4_4618_67726)">
<path d="M133.497 150.195C133.545 148.795 134.055 148.216 134.598 148.242C135.139 148.267 135.378 149.117 135.085 150.22C134.933 150.795 134.665 151.698 134.254 152.149C133.936 152.498 133.457 151.372 133.497 150.195Z" fill="white"/>
</g>
</g>
</g>
<mask id="mask5_4618_67726" style="mask-type:luminance" maskUnits="userSpaceOnUse" x="128" y="149" width="4" height="6">
<path d="M128.03 150.804L129.319 153.915C129.352 153.997 129.444 154.035 129.526 154.001L131.316 153.259C131.398 153.226 131.435 153.134 131.402 153.052L130.113 149.941C130.079 149.86 129.987 149.822 129.906 149.855L128.115 150.597C128.034 150.631 127.996 150.725 128.03 150.804Z" fill="white"/>
</mask>
<g mask="url(#mask5_4618_67726)">
<g opacity="0.1216">
<mask id="mask6_4618_67726" style="mask-type:luminance" maskUnits="userSpaceOnUse" x="127" y="149" width="5" height="6">
<path d="M129.256 154.102L131.364 153.414C131.448 153.387 131.492 153.297 131.465 153.216L130.37 149.858C130.343 149.774 130.253 149.73 130.171 149.758L128.063 150.445C127.98 150.472 127.936 150.562 127.963 150.644L129.058 154.001C129.085 154.083 129.175 154.127 129.256 154.102Z" fill="white"/>
</mask>
<g mask="url(#mask6_4618_67726)">
<path d="M130.416 151.335C129.469 150.303 128.705 150.194 128.31 150.566C127.915 150.938 128.287 151.738 129.227 152.386C129.716 152.724 130.508 153.234 131.112 153.31C131.58 153.37 131.212 152.202 130.416 151.335Z" fill="white"/>
</g>
</g>
</g>
<mask id="mask7_4618_67726" style="mask-type:luminance" maskUnits="userSpaceOnUse" x="132" y="148" width="5" height="5">
<path d="M134.063 152.242L135.906 151.64C135.99 151.613 136.034 151.523 136.006 151.442L134.964 148.241C134.937 148.157 134.847 148.113 134.765 148.14L132.923 148.742C132.839 148.769 132.795 148.859 132.822 148.941L133.865 152.142C133.892 152.225 133.982 152.269 134.063 152.242Z" fill="white"/>
</mask>
<g mask="url(#mask7_4618_67726)">
<g opacity="0.1216">
<mask id="mask8_4618_67726" style="mask-type:luminance" maskUnits="userSpaceOnUse" x="132" y="148" width="5" height="5">
<path d="M134.063 152.241L135.906 151.639C135.99 151.612 136.033 151.522 136.006 151.44L134.964 148.239C134.936 148.156 134.847 148.112 134.765 148.139L132.922 148.741C132.839 148.768 132.795 148.858 132.822 148.939L133.865 152.14C133.892 152.224 133.982 152.268 134.063 152.241Z" fill="white"/>
</mask>
<g mask="url(#mask8_4618_67726)">
<path d="M133.497 150.195C133.545 148.795 134.055 148.216 134.598 148.242C135.139 148.267 135.378 149.117 135.085 150.22C134.933 150.795 134.665 151.698 134.254 152.149C133.936 152.498 133.457 151.372 133.497 150.195Z" fill="white"/>
</g>
</g>
</g>
<mask id="mask9_4618_67726" style="mask-type:luminance" maskUnits="userSpaceOnUse" x="128" y="149" width="4" height="6">
<path d="M128.03 150.804L129.319 153.915C129.352 153.997 129.444 154.035 129.526 154.001L131.316 153.259C131.398 153.226 131.435 153.134 131.402 153.052L130.113 149.941C130.079 149.86 129.987 149.822 129.906 149.855L128.115 150.597C128.034 150.631 127.996 150.725 128.03 150.804Z" fill="white"/>
</mask>
<g mask="url(#mask9_4618_67726)">
<g opacity="0.1216">
<mask id="mask10_4618_67726" style="mask-type:luminance" maskUnits="userSpaceOnUse" x="127" y="149" width="5" height="6">
<path d="M129.256 154.102L131.364 153.414C131.448 153.387 131.492 153.297 131.465 153.216L130.37 149.858C130.343 149.774 130.253 149.73 130.171 149.758L128.063 150.445C127.98 150.472 127.936 150.562 127.963 150.644L129.058 154.001C129.085 154.083 129.175 154.127 129.256 154.102Z" fill="white"/>
</mask>
<g mask="url(#mask10_4618_67726)">
<path d="M130.416 151.335C129.469 150.303 128.705 150.194 128.31 150.566C127.915 150.938 128.287 151.738 129.227 152.386C129.716 152.724 130.508 153.234 131.112 153.31C131.58 153.37 131.212 152.202 130.416 151.335Z" fill="white"/>
</g>
</g>
</g>
<mask id="mask11_4618_67726" style="mask-type:luminance" maskUnits="userSpaceOnUse" x="132" y="148" width="5" height="5">
<path d="M134.063 152.242L135.906 151.64C135.99 151.613 136.034 151.523 136.006 151.442L134.964 148.241C134.937 148.157 134.847 148.113 134.765 148.14L132.923 148.742C132.839 148.769 132.795 148.859 132.822 148.941L133.865 152.142C133.892 152.225 133.982 152.269 134.063 152.242Z" fill="white"/>
</mask>
<g mask="url(#mask11_4618_67726)">
<g opacity="0.1216">
<mask id="mask12_4618_67726" style="mask-type:luminance" maskUnits="userSpaceOnUse" x="132" y="148" width="5" height="5">
<path d="M134.063 152.241L135.906 151.639C135.99 151.612 136.033 151.522 136.006 151.44L134.964 148.239C134.936 148.156 134.847 148.112 134.765 148.139L132.922 148.741C132.839 148.768 132.795 148.858 132.822 148.939L133.865 152.14C133.892 152.224 133.982 152.268 134.063 152.241Z" fill="white"/>
</mask>
<g mask="url(#mask12_4618_67726)">
<path d="M133.497 150.195C133.545 148.795 134.055 148.216 134.598 148.242C135.139 148.267 135.378 149.117 135.085 150.22C134.933 150.795 134.665 151.698 134.254 152.149C133.936 152.498 133.457 151.372 133.497 150.195Z" fill="white"/>
</g>
</g>
</g>
<mask id="mask13_4618_67726" style="mask-type:luminance" maskUnits="userSpaceOnUse" x="128" y="149" width="4" height="6">
<path d="M128.03 150.804L129.319 153.915C129.352 153.997 129.444 154.035 129.526 154.001L131.316 153.259C131.398 153.226 131.435 153.134 131.402 153.052L130.113 149.941C130.079 149.86 129.987 149.822 129.906 149.855L128.115 150.597C128.034 150.631 127.996 150.725 128.03 150.804Z" fill="white"/>
</mask>
<g mask="url(#mask13_4618_67726)">
<g opacity="0.1216">
<mask id="mask14_4618_67726" style="mask-type:luminance" maskUnits="userSpaceOnUse" x="127" y="149" width="5" height="6">
<path d="M129.256 154.102L131.364 153.414C131.448 153.387 131.492 153.297 131.465 153.216L130.37 149.858C130.343 149.774 130.253 149.73 130.171 149.758L128.063 150.445C127.98 150.472 127.936 150.562 127.963 150.644L129.058 154.001C129.085 154.083 129.175 154.127 129.256 154.102Z" fill="white"/>
</mask>
<g mask="url(#mask14_4618_67726)">
<path d="M130.416 151.335C129.469 150.303 128.705 150.194 128.31 150.566C127.915 150.938 128.287 151.738 129.227 152.386C129.716 152.724 130.508 153.234 131.112 153.31C131.58 153.37 131.212 152.202 130.416 151.335Z" fill="white"/>
</g>
</g>
</g>
<mask id="mask15_4618_67726" style="mask-type:luminance" maskUnits="userSpaceOnUse" x="-86" y="4" width="490" height="423">
<path d="M-85.1282 132.147L307.606 4.14259C307.69 4.11543 307.777 4.1614 307.805 4.24289L403.777 298.74C403.805 298.824 403.759 298.911 403.677 298.939L10.943 426.945C10.8594 426.973 10.7716 426.927 10.7445 426.845L-85.2285 132.348C-85.2557 132.264 -85.2097 132.175 -85.1282 132.147Z" fill="white"/>
</mask>
<g mask="url(#mask15_4618_67726)">
<g opacity="0.3216">
<mask id="mask16_4618_67726" style="mask-type:luminance" maskUnits="userSpaceOnUse" x="131" y="147" width="5" height="6">
<path d="M133.33 152.604L135.741 151.819C135.825 151.791 135.869 151.702 135.842 151.62L134.46 147.38C134.433 147.297 134.343 147.253 134.262 147.28L131.851 148.066C131.767 148.093 131.723 148.183 131.75 148.264L133.132 152.504C133.157 152.585 133.246 152.631 133.33 152.604Z" fill="white"/>
</mask>
<g mask="url(#mask16_4618_67726)">
<path d="M134.412 147.232C134.542 148.691 134.341 150.154 134.143 151.604C134.116 151.809 134.084 152.018 133.986 152.199C133.888 152.381 133.702 152.529 133.495 152.525C133.261 152.521 133.069 152.321 132.998 152.097C132.925 151.875 132.948 151.635 132.971 151.403C133.038 150.728 133.102 150.053 133.169 149.378C133.211 148.944 133.257 148.501 133.437 148.106C133.616 147.709 133.963 147.36 134.412 147.232Z" fill="#252525"/>
</g>
</g>
</g>
<mask id="mask17_4618_67726" style="mask-type:luminance" maskUnits="userSpaceOnUse" x="-86" y="4" width="490" height="423">
<path d="M-85.1282 132.147L307.606 4.14259C307.69 4.11543 307.777 4.1614 307.805 4.24289L403.777 298.74C403.805 298.824 403.759 298.911 403.677 298.939L10.943 426.945C10.8594 426.973 10.7716 426.927 10.7445 426.845L-85.2285 132.348C-85.2557 132.264 -85.2097 132.175 -85.1282 132.147Z" fill="white"/>
</mask>
<g mask="url(#mask17_4618_67726)">
<g opacity="0.3216">
<mask id="mask18_4618_67726" style="mask-type:luminance" maskUnits="userSpaceOnUse" x="127" y="148" width="5" height="7">
<path d="M129.223 154.007L131.699 153.201C131.783 153.173 131.826 153.084 131.799 153.002L130.516 149.065C130.489 148.982 130.399 148.938 130.318 148.965L127.842 149.772C127.758 149.799 127.715 149.889 127.742 149.97L129.025 153.907C129.05 153.988 129.139 154.034 129.223 154.007Z" fill="white"/>
</mask>
<g mask="url(#mask18_4618_67726)">
<path d="M127.754 149.976C128.814 150.977 129.873 151.978 130.93 152.981C131.039 153.083 131.149 153.188 131.289 153.238C131.429 153.288 131.605 153.269 131.699 153.154C131.833 152.989 131.735 152.745 131.624 152.563C130.949 151.466 129.929 150.618 128.832 149.943C128.63 149.82 128.414 149.696 128.176 149.692C127.94 149.686 127.646 149.874 127.754 149.976Z" fill="#252525"/>
</g>
</g>
</g>
<mask id="mask19_4618_67726" style="mask-type:luminance" maskUnits="userSpaceOnUse" x="-96" y="17" width="488" height="420">
<path d="M-95.0962 140.917L299.044 17.3105C299.128 17.2855 299.215 17.3314 299.243 17.415L391.916 312.965C391.941 313.049 391.896 313.137 391.812 313.164L-2.32842 436.77C-2.412 436.795 -2.49976 436.749 -2.52692 436.666L-95.2007 141.115C-95.2258 141.032 -95.1798 140.944 -95.0962 140.917Z" fill="white"/>
</mask>
<g mask="url(#mask19_4618_67726)">
<g opacity="0.1412">
<mask id="mask20_4618_67726" style="mask-type:luminance" maskUnits="userSpaceOnUse" x="126" y="85" width="95" height="94">
<path d="M148.391 178.963L220.162 156.456V156.454L197.849 85.2959L126.078 107.805L148.389 178.963H148.391Z" fill="white"/>
</mask>
<g mask="url(#mask20_4618_67726)">
<path d="M211.374 153.355C203.794 148.186 195.311 143.66 186.378 137.119C179.772 132.284 173.691 127.568 170.217 124.381C164.262 118.917 158.453 115.125 150.693 113.867C149.325 113.645 148.086 113.48 147.031 113.403C145.468 113.288 144.507 113.317 143.746 113.365C143.869 113.117 144.028 112.876 144.041 112.559C144.122 110.39 141.932 109.098 141.128 109.057C140.319 109.013 140.148 109.098 139.697 109.228C138.995 109.429 138.376 109.849 137.912 110.423C138.443 109.495 138.059 108.191 137.789 107.707C137.263 106.754 136.276 105.26 134.695 105.245C133.278 105.233 132.246 106.534 132.258 107.498C132.277 109.121 134.12 111.067 133.334 111.974C133.334 111.974 133.307 111.999 133.307 112.001C133.828 115.143 132.612 118.57 130.067 120.516C134.797 118.873 140.156 119.897 144.538 122.321C148.922 124.745 152.877 127.292 156.044 131.173C158.963 134.748 160.806 140.513 161.264 143.927C161.939 148.969 161.498 155.223 154.264 163.036C159.789 159.591 165.11 157.766 174.314 160.084C178.09 161.035 181.452 164.915 184.049 167.778C184.27 166.975 184.525 166.179 184.83 165.391" fill="#523618"/>
</g>
</g>
</g>
<path d="M223.445 177.166L220.014 177.528L221.64 179.845L223.445 177.166Z" fill="#111111"/>
<path d="M143.279 259.825C143.703 259.512 144.304 259.683 144.775 259.919C145.761 260.417 146.626 261.156 147.269 262.055C146.016 262.512 144.762 262.972 143.508 263.43C143.548 262.228 143.431 261.018 143.279 259.825Z" fill="#BDBDBD"/>
<path d="M101.825 231.164C99.37 233.041 96.754 233.753 94.8506 236.188C92.9471 238.622 90.7595 241.725 90.5673 245.835C90.4252 248.838 93.1812 253.723 94.8694 256.21C97.7089 260.389 100.764 264.758 105.333 266.917C108.198 268.269 111.413 268.628 114.562 268.969C119.57 269.51 124.581 270.049 129.589 270.59C133.292 270.989 137.387 271.292 140.389 269.088C144.437 266.119 144.52 260.011 142.884 255.265C153.009 259.819 164.522 259.317 175.617 259.672C183.88 259.938 197.583 256.133 205.429 250.119C215.662 242.275 217.568 232.594 215.878 224.051C214.91 219.168 205.491 219.881 200.531 219.484C182.247 218.021 163.962 216.558 145.676 215.096C140.187 214.657 134.524 214.237 129.299 215.969C125.726 217.154 122.554 219.283 119.433 221.389C112.009 226.4 105.147 228.628 101.825 231.164Z" fill="#D08A5A"/>
<path opacity="0.1608" d="M106.007 235.954C100.282 237.304 100.103 235.862 95.6898 242.622C92.4742 247.547 97.8962 259.804 102.169 264.077C99.2606 262.4 95.3074 257.437 92.6309 252.439C92.4805 252.159 92.1315 251.417 91.6907 250.447C91.2937 249.576 90.8883 248.216 90.8027 247.846C90.6919 247.355 90.5394 246.642 90.5624 246.068C90.648 243.901 91.0409 242.611 91.9518 240.62C93.2055 237.874 95.4558 234.521 97.7103 235.804C102.585 238.579 102.478 234.704 108.074 235.106C106.396 235.73 104.72 236.353 106.007 235.954Z" fill="#141414"/>
<path opacity="0.1608" d="M126.72 232.591C122.315 232.963 122.649 234.177 116.67 239.355C111.415 243.906 117.955 269.888 120.844 269.646C122.643 278.572 113.577 257.472 112.608 253.119C112.039 250.566 111.059 245.022 111.277 242.619C111.448 240.739 115.178 235.324 115.495 236.474C116.275 239.301 119.045 232.259 120.836 231.03C124.802 228.312 124.499 230.746 128.393 232.096C127.05 232.437 125.706 232.773 126.72 232.591Z" fill="#141414"/>
<path opacity="0.1608" d="M141.527 253.239C143.412 255.124 140.28 265.438 137.944 267.774C136.485 269.232 141.35 266.403 140.56 268.309C141.795 268.06 142.02 267.425 142.754 266.278C143.395 265.275 143.884 263.11 143.884 261.058C143.882 258.851 143.278 254.739 141.527 253.239Z" fill="#141414"/>
<path opacity="0.1608" d="M154.29 258.494C156.973 258.927 159.854 259.123 162.714 259.305C165.899 259.508 174.212 259.652 177.846 259.652C181.908 259.652 189.563 257.815 193.926 256.156C202.649 252.84 207.889 248.959 211.755 243.752C215.39 238.854 217.15 232.838 216.124 225.464C212.708 250.491 182.954 260.325 154.29 258.494Z" fill="#141414"/>
<path opacity="0.1608" d="M97.9131 260.166C97.4952 260.661 97.5161 261.348 97.8755 261.889C98.2349 262.431 99.2649 263.791 99.8751 264.274C104.087 267.6 112.76 271.203 120.224 271.119C125.094 271.065 129.534 269.33 134.405 269.28C135.905 269.266 137.457 269.414 138.866 268.898C140.274 268.38 141.486 267.157 141.095 265.709C138.347 266.568 136.135 267.14 133.554 267.594C127.361 268.687 121.983 268.643 116.287 267.788C114.785 267.563 113.13 267.293 111.645 266.955C109.392 266.438 107.447 265.887 105.466 265.061C104.336 264.591 103.323 264.117 102.309 263.534C102.017 263.365 101.718 263.181 101.427 263.003C100.997 262.74 100.239 262.211 99.5784 261.685C99.2441 261.417 98.9265 261.135 98.7259 260.955C98.3937 260.659 98.1701 260.429 98.1701 260.429C98.1032 260.364 98.0155 260.268 97.9131 260.166Z" fill="#141414"/>
<g opacity="0.1686">
<mask id="mask21_4618_67726" style="mask-type:luminance" maskUnits="userSpaceOnUse" x="125" y="160" width="72" height="50">
<path d="M142.564 209.809L196.101 187.338C196.198 187.298 196.872 187.189 196.835 187.099L184.931 160.232C184.894 160.14 184.783 160.1 184.687 160.14L125.3 182.195C125.203 182.235 126.618 187.568 126.656 187.657L142.32 209.719C142.358 209.809 142.466 209.851 142.564 209.809Z" fill="white"/>
</mask>
<g mask="url(#mask21_4618_67726)">
<path d="M127.136 181.513C131.394 185.844 130.893 186.283 137.134 191.302C146.52 198.852 158.755 195.241 163.601 193.699C175.563 189.896 178.91 180.132 183.043 168.365C183.118 168.152 185.79 165.82 185.755 166.042C183.801 177.772 178.609 190.529 168.789 197.782C166.014 199.83 162.945 201.631 159.566 202.346C152.337 203.875 144.355 204.755 139.246 199.939C135.475 196.382 129.98 188.494 128.267 184.129" fill="#111111"/>
</g>
</g>
<path d="M89.8147 258.781C89.9568 262.124 84.2966 265.19 82.9824 268.265C81.6681 271.341 82.6856 276.525 85.3246 278.582C84.2109 276.899 81.0058 276.661 80.2348 278.525C79.4638 280.389 80.4792 283.523 82.0672 284.767C83.6551 286.01 85.9159 286.505 87.8799 286.969C127.974 296.418 149.472 293.181 149.472 293.181C149.472 293.181 148.178 292.569 148.661 291.288C149.144 290.005 150.696 289.36 151.709 288.438C154.089 286.275 153.404 283.154 152.47 281.714C151.536 280.274 150.266 280.124 148.887 279.854C150.355 280.462 154.361 274.645 152.432 271.956C150.861 269.766 147.409 267.795 146.981 262.657C139.405 265.396 130.594 267.325 121.214 266.473C111.835 265.62 101.121 263.411 95.4896 256.259C93.4545 253.672 92.7692 252.13 91.3212 249.934C91.2251 250.661 89.4762 250.836 89.8147 258.781Z" fill="#FFF5F8"/>
<path opacity="0.1608" d="M152.409 271.893C152.685 274.837 151.866 276.667 149.837 278.694C147.796 280.736 143.694 281.258 140.813 281.452C143.567 281.452 147.836 280.721 149.674 279.733C150.949 279.047 151.895 277.323 152.47 275.994C153.044 274.665 153.186 273.006 152.409 271.893Z" fill="#141414"/>
<path opacity="0.1608" d="M88.6694 261.698C89.5846 264.264 90.3117 265.737 92.5829 267.135C93.73 267.841 94.4028 267.879 95.7087 268.506C97.9067 269.559 100.569 270.673 103.396 271.285C101.73 270.876 98.2139 268.838 96.6614 267.76C95.2302 266.765 92.8253 266.168 91.5695 264.659C90.2469 263.073 89.7726 262.346 89.4154 260.503C89.2879 260.879 89.3422 260.674 89.1249 261.034C88.8993 261.404 88.8972 261.32 88.6694 261.698Z" fill="#141414"/>
<path opacity="0.1608" d="M152.393 281.596C153.256 283.882 152.8 286.757 150.74 288.068C145.911 291.139 132.968 290.23 130.276 290.23C132.103 290.441 144.512 292.034 148.738 290.364C150.186 289.791 152.207 288.364 152.961 286.688C153.715 285.013 153.362 283.251 152.393 281.596Z" fill="#141414"/>
<path opacity="0.1608" d="M83.3145 267.59C82.6459 270.365 83.1661 273.378 84.589 275.852C86.0119 278.326 87.602 279.059 91.716 280.677C84.8669 278.717 80.5523 276.907 81.2355 281.189C81.5761 283.322 83.6718 284.823 85.6881 285.604C89.8376 287.213 94.2985 288.293 98.6341 289.3C95.3537 288.669 92.9321 288.145 89.6684 287.386C86.9542 286.755 83.6446 286.2 81.8979 284.628C81.528 284.296 81.2606 283.888 80.9472 283.439C80.126 282.265 79.6476 279.676 80.2911 278.403C80.9367 277.125 82.8778 276.847 84.4699 277.77C84.0583 277.21 83.5548 276.519 83.2581 275.693C82.322 273.094 81.8895 270.11 83.3145 267.59Z" fill="#141414"/>
<path opacity="0.1608" d="M89.8208 255.037C95.3389 264.486 107.687 268.443 112.288 269.361C124.733 271.845 133.187 271.028 145.201 265.702C135.924 269.225 125.694 270.199 115.92 268.491C106.147 266.786 97.2319 261.849 89.8208 255.037Z" fill="#141414"/>
<path d="M91.2314 249.263C89.6016 249.766 88.6405 251.595 89.0396 253.252C89.4387 254.909 90.6547 256.236 91.8854 257.416C104.332 269.377 119.911 271.753 136.824 268.307C137.401 268.19 144.022 266.462 146.883 264.753C148.839 263.585 146.847 260.319 145.211 261.19C140.949 263.461 132.092 266.008 124.359 265.643C117.83 265.334 109.29 263.618 103.406 260.772C97.5226 257.926 94.236 254.512 91.2314 249.263Z" fill="white"/>
<path d="M203.579 149.632C205.57 145.655 214.671 142.949 221.731 145.388C228.094 147.584 234.909 159.566 234.105 180.852C233.491 197.105 230.279 218.834 229.523 222.545C226.648 236.633 221.731 249.471 221.731 249.471L227.626 251.749C227.626 251.749 220.455 248.253 218.207 247.085C216.621 246.262 212.283 243.782 212.283 243.782C212.283 243.782 212.202 243.949 211.631 244.63C216.815 248.276 227.596 251.945 227.596 251.945C227.596 251.945 227.695 251.862 227.939 251.214C228.344 250.134 229.151 247.71 230.584 243.132C232.337 237.53 235.396 226.622 236.721 217.915C238.509 206.161 239.151 198.327 239.374 194.163C239.684 188.391 240.131 184.139 239.968 177.835C239.84 172.839 239.339 169.086 238.392 164.681C237.226 159.252 236.207 155.625 233.535 150.758C232.412 148.715 230.768 146.842 229.04 145.457C227.312 144.072 225.501 143.177 223.589 142.456C221.706 141.746 220.029 141.66 218.426 141.715C216.416 141.783 213.923 142.281 211.424 143.311C208.919 144.343 206.42 145.848 204.425 148.092C203.978 148.593 203.808 149.091 203.579 149.632Z" fill="#D5D5D5"/>
<path d="M113.235 200.272C115.318 210.335 125.094 227.332 125.094 227.332L155.29 232.564C155.29 232.564 161.402 226.059 185.875 229.476C186.7 229.591 205.472 231.96 211.481 232.169C214.594 232.278 216.326 231.741 216.326 231.741C216.326 231.741 216.391 230.876 216.414 230.308C216.437 229.714 216.414 226.676 216.414 226.676C216.414 226.676 197.248 206.357 199.615 204.556C199.717 204.478 200.695 206.812 195.209 190.269C202.478 184.139 213.439 178.589 223.453 177.191C223.453 177.191 219.348 164.217 216.353 157.651C212.216 148.576 203.094 146.338 197.659 147.878C191.761 149.548 187.304 156.657 185.514 160.882C180.374 173.02 181.126 174.926 178.299 180.871C175.528 186.692 169.179 197.219 153.203 197.771C148.47 197.934 141.527 197.056 133.976 189.505C128.191 183.719 126.39 179.529 125.811 178.188C125.721 177.979 125.575 177.738 125.575 177.738C125.575 177.738 122.119 178.02 119.649 181.761C118.431 183.604 116.546 192.599 116.546 192.599" fill="#232D40"/>
<g opacity="0.1412">
<mask id="mask22_4618_67726" style="mask-type:luminance" maskUnits="userSpaceOnUse" x="176" y="168" width="63" height="129">
<path d="M213.921 296.162L238.585 288.451C238.658 288.428 238.7 288.353 238.677 288.284L201.337 168.83C201.316 168.761 201.239 168.721 201.165 168.744L176.502 176.455C176.429 176.478 176.387 176.553 176.41 176.622L213.75 296.076C213.773 296.147 213.848 296.185 213.921 296.162Z" fill="white"/>
</mask>
<g mask="url(#mask22_4618_67726)">
<path d="M189.026 174.902C189.026 174.902 193.056 193.128 196.581 216.721C197.494 222.841 200.672 216.313 200.672 224.026C200.672 226.408 205.678 229.145 202.582 215.327C201.076 208.605 199.287 200.94 197.879 192.321V192.425C197.661 189.734 198.305 195.426 195.386 190.338C195.386 190.338 193.836 188.184 191.567 182.07L189.026 174.902Z" fill="#111111"/>
</g>
</g>
<g opacity="0.2784">
<mask id="mask23_4618_67726" style="mask-type:luminance" maskUnits="userSpaceOnUse" x="126" y="193" width="5" height="12">
<path d="M128.488 204.367L130.316 204.049C130.391 204.036 130.441 203.965 130.429 203.89L128.598 193.353C128.586 193.277 128.515 193.227 128.44 193.24L126.611 193.557C126.536 193.57 126.486 193.641 126.499 193.716L128.329 204.254C128.341 204.329 128.412 204.379 128.488 204.367Z" fill="white"/>
</mask>
<g mask="url(#mask23_4618_67726)">
<path d="M128.573 193.215C128.13 196.564 128.073 197.175 128.236 200.152C128.257 200.535 128.449 203.46 128.487 204.365C128.504 204.764 129.149 206.467 129.126 206.983C129.114 207.265 129.933 207.491 129.918 207.9C129.716 205.545 128.951 201.32 128.817 198.8C128.698 196.548 128.512 194.876 128.573 193.215Z" fill="#111111"/>
</g>
</g>
<path d="M133.256 221.402C141.191 221.402 144.104 221.67 151.862 221.415C149.584 224.202 145.169 227.508 144.194 230.973C140.04 231.478 135.98 232.738 132.271 234.673C132.729 230.296 133.442 225.945 133.256 221.402Z" fill="#8F8F8F"/>
<path d="M82.0341 235.151C74.6982 219.594 68.8039 202.056 64.0338 185.63C63.852 185.005 64.2804 184.314 64.9657 184.272C83.5698 183.102 105.484 183.022 120.473 184.209C123.016 184.41 137.234 226.266 139.662 239.357C119.219 239.357 101.723 237.903 83.8582 236.377C83.06 236.308 82.3579 235.84 82.0341 235.151Z" fill="#B3BCC9"/>
<path opacity="0.1686" d="M83.8573 236.379C101.218 237.861 118.234 239.275 137.944 239.355C124.231 234.996 112.062 227.574 94.8058 216.645C78.3203 206.204 67.2966 189.652 64.035 185.03C63.9786 185.223 63.9723 185.431 64.0308 185.632C68.801 202.056 74.6952 219.594 82.0311 235.153C82.3571 235.842 83.0591 236.31 83.8573 236.379Z" fill="#141414"/>
<path d="M151.444 217.675C144.902 222.688 141.981 224.765 137.32 231.821C135.134 235.131 132.271 241.101 132.271 241.101C132.271 241.101 131.705 243.548 131.686 244.603C131.666 245.756 132.144 249.902 132.144 249.902C132.142 250.051 132.299 250.147 132.428 250.078C133.082 249.731 135.264 248.87 137.558 247.631C143.017 244.68 151.304 239.826 156.931 236.379C157.436 236.069 157.959 235.743 158.28 235.244C158.893 234.291 158.573 232.983 157.892 232.076C157.213 231.171 156.237 230.54 155.38 229.798C152.328 227.155 150.819 221.977 151.444 217.675Z" fill="#F2DFA7"/>
<path opacity="0.1608" d="M151.757 217.675C151.233 217.844 149.91 218.778 147.723 220.54C146.036 221.9 143.638 223.835 141.916 225.776C139.996 227.941 137.884 230.749 136.732 232.724C141.302 227.953 149.288 222.424 151.55 222.416C151.845 223.638 152.058 223.264 152.353 224.487C149.572 226.303 146.273 227.306 139.657 232.977C138.124 234.291 135.754 237.028 134.29 238.704C132.825 240.38 132.267 241.101 132.267 241.101C132.267 241.101 131.914 242.361 131.854 243.063C134.94 240.418 140.203 235.288 143.836 232.789C149.894 228.624 154.064 227.611 155.328 227.88C154.024 228.632 150.234 231.098 146.417 233.735C145.042 234.686 142.961 235.856 141.314 237.651C137.821 241.465 133.843 244.996 132.161 250.038C132.138 250.105 132.219 250.155 132.265 250.101C135.757 246.053 140.063 241.895 144.605 238.397C150.079 234.184 155.898 230.839 161.057 228.566C155.786 234.747 147.378 240.2 141.415 245.493C144.831 243.585 154.016 238.234 157.142 236.243C157.384 236.088 160.178 233.175 160.391 233.012C160.564 232.878 161.084 229.487 161.258 229.347C161.417 229.218 157.635 233.177 157.827 232.998C157.913 232.916 157.973 233.023 157.973 233.023C157.973 233.023 158.393 229.763 158.6 229.575C154.306 226.397 153.301 222.786 151.757 217.675Z" fill="#111111"/>
<path d="M150.272 218.563C150.272 218.563 155.449 212.61 168.343 212.61C168.592 212.61 169.534 212.745 170.763 212.505C173.059 212.056 181.92 207.71 198.195 203.564C197.975 198.8 196.287 194.113 194.895 189.547C202.106 183.343 211.918 178.83 221.343 177.542C225.018 189.589 227.085 205.004 224.049 218.203C223.443 220.836 221.609 226.087 220.825 226.541C219.107 227.537 215.547 228.175 213.09 228.348C205.223 228.906 203.406 228.714 195.524 229.027C190.823 229.213 177.593 233.871 170.934 232.055C164.57 236.055 160.871 236.686 156.874 236.686C156.732 236.686 156.362 236.765 156.329 236.757C155.153 236.493 151.636 233.708 148.692 228.85C146.757 225.661 150.272 218.563 150.272 218.563Z" fill="#D08A5A"/>
<path opacity="0.1608" d="M149.073 229.461C150.015 231.258 154.244 234.37 157.276 234.673C161.02 235.047 165.502 235.122 169.565 232.884C168.851 233.304 165.652 235.356 161.895 236.165C161.057 236.344 159.269 236.608 157.942 236.666C157.673 236.679 157.401 236.67 157.136 236.683C156.973 236.689 156.895 236.67 156.818 236.687C156.753 236.702 156.649 236.71 156.59 236.718C156.411 236.746 156.312 236.754 156.312 236.754C156.312 236.754 155.993 236.693 155.441 236.351C154.455 235.734 153.241 234.687 152.464 233.822C150.972 232.153 150.165 231.21 149.073 229.461Z" fill="#141414"/>
<path opacity="0.1608" d="M200.486 203.319C199.327 203.144 196.253 204.032 193.048 204.945C189.4 205.986 187.087 206.646 183.161 208.029C182.118 208.397 179.594 209.283 177.609 210.023C175.371 210.858 173.982 211.406 172.492 211.962C170.417 212.735 170.528 212.382 166.799 214.707C167.839 214.181 181.207 209.364 182.377 208.94C193.622 204.878 188.113 206.272 200.486 203.319Z" fill="#141414"/>
<path d="M108.276 126.812C105.901 129.309 102.837 133.455 102.018 138.142C101.603 140.515 100.993 142.463 100.993 146.544C100.993 148.594 99.1413 149.36 98.8028 150.261C98.387 151.371 98.7924 156.78 100.42 159.846C101.488 161.856 104.001 162.027 104.563 163.317C105.447 165.344 107.827 168.812 109.392 170.375C111.993 172.977 112.963 172.653 115.999 172.862C123.349 173.367 126.546 166.844 121.552 166.225C118.498 165.845 118.75 169.997 113.736 170.248C112.328 170.317 108.324 166.961 106.174 162.293C102.86 155.1 101.239 151.053 102.731 143.737C103.922 137.891 113.188 127.606 120.34 123.755C131.517 117.737 139.174 115.942 150.867 118.182C153.65 118.715 161.83 121.592 159.684 124.492C157.154 127.911 157.9 131.089 158.635 132.698C160.037 135.77 162.302 140.168 166.845 140.168C170.137 140.168 174.864 138.488 175.557 132.6C176.186 127.261 172.302 123.107 168.725 121.335C167.649 120.802 166.034 120.756 164.383 119.613C159.924 116.527 156.604 115.34 151.118 113.495C142.495 110.597 133.788 111.272 125.449 114.929C117.11 118.585 111.749 123.159 108.276 126.812Z" fill="#252525"/>
<path opacity="0.6" d="M168.721 121.332C167.645 120.799 166.03 120.753 164.379 119.61C159.92 116.524 156.6 115.337 151.113 113.492C142.49 110.594 133.784 111.269 125.445 114.926C117.106 118.582 111.751 123.161 108.278 126.813C106.132 129.07 103.42 132.676 102.315 136.81C102.267 137.002 102.217 137.194 102.173 137.386C102.173 137.391 102.171 137.395 102.171 137.399C107.225 126.786 116.951 121.244 121.147 119.004C127.459 115.636 138.234 111.983 150.675 115.523C157.45 117.452 164.703 121.065 167.741 126.122C170.509 130.729 170.142 136.239 165.643 140.055C165.643 140.055 165.643 140.055 165.645 140.055C166.667 139.994 167.703 140.005 168.721 139.986C171.7 139.424 174.987 137.428 175.555 132.595C176.18 127.258 172.296 123.104 168.721 121.332Z" fill="#141414"/>
<path opacity="0.1608" d="M187.064 157.768C190.792 155.733 200.19 156.709 204.473 161.375C210.127 167.533 212.258 172.418 214.243 181.362C217.643 196.686 219.878 200.222 217.941 217.129C217.283 222.869 213.648 224.772 197.219 226.413C191.051 227.029 181.943 231.21 178.991 231.772C178.197 231.923 177.411 232.025 176.652 232.086C174.375 232.27 172.317 232.088 170.85 231.76C169.503 231.459 168.696 231.014 168.307 230.832C168.673 231.12 169.839 231.904 171.653 232.217C173.075 232.464 175.035 232.552 177.144 232.351C181.857 231.906 187.118 230.606 187.398 230.55C190.292 229.961 191.046 229.61 192.9 229.369C195.125 229.081 199.523 228.931 201 228.851C204.049 228.69 204.906 228.73 205.879 228.73C207.306 228.73 208.771 228.605 209.763 228.557C212.16 228.44 213.309 228.304 215.461 228.074C217.016 227.909 219.264 227.213 219.79 227.017C219.82 227.006 220.19 226.858 220.459 226.728C220.72 226.603 220.879 226.496 220.902 226.477C221.23 226.225 221.55 225.502 221.972 224.53C222.484 223.345 223.004 221.841 223.311 220.833C225.204 214.636 226.073 206.601 225.334 198.103C224.828 192.305 224.381 187.749 221.454 177.517C222.22 177.352 222.166 177.358 223.455 177.185C223.179 176.219 222.647 174.832 221.915 172.483C221.14 169.996 219.989 166.983 219.226 164.804C217.728 160.52 215.789 155.792 213.729 153.439C211.366 150.741 208.871 148.938 205.198 147.977C202.956 147.389 198.537 146.512 194.684 149.218C191.161 151.694 189.137 154.049 187.064 157.768Z" fill="#141414"/>
<path opacity="0.6" d="M100.327 148.466C100.229 151.575 100.653 158.237 103.423 162.259C102.019 161.482 100.761 161.168 99.8525 158.561C99.631 157.927 99.374 157.294 99.2132 156.362C99.0439 155.386 98.4317 152.764 98.7514 150.449C98.8329 149.855 99.8024 149.183 100.327 148.466Z" fill="#141414"/>
<path opacity="0.6" d="M109.39 170.378C111.39 171.766 115.748 172.227 118.586 171.387C121.843 170.422 122.077 169.21 123.523 167.114C124.398 168.289 123.822 169.672 122.61 170.884C121.843 171.651 120.556 172.257 119.283 172.597C118.604 172.777 118.168 172.838 117.34 172.879C116.881 172.902 116.638 172.915 116.118 172.873C114.866 172.769 112.568 172.827 111.509 172.092C110.811 171.605 110.18 171.268 109.39 170.378Z" fill="#141414"/>
<path d="M107.877 281.433C107.497 280.825 107.328 280.543 107.096 279.856C106.862 279.17 106.925 278.324 107.434 277.795C107.938 277.275 108.824 277.208 109.373 277.647C109.923 278.086 110.059 278.972 109.672 279.584C109.323 278.807 110.18 277.82 111.02 277.931C111.86 278.042 112.405 279.001 112.255 279.854C112.104 280.706 111.302 281.216 110.602 281.713C108.935 282.902 108.556 282.516 107.877 281.433Z" fill="#FF0069"/>
<path d="M112.873 268.96C112.554 268.678 112.228 268.283 112.027 267.907C111.827 267.531 111.77 267.048 112 266.689C112.23 266.33 112.792 266.194 113.099 266.488C112.98 268.003 114.392 267.932 114.229 269.443C114.108 270.559 113.402 271.62 112.608 272.414C110.485 274.537 108.895 277.584 108.663 283.347C108.653 283.623 108.078 283.401 107.957 283.389C107.345 283.326 108.521 277.06 109.06 275.894C109.815 274.264 109.955 273.938 111.114 272.567C111.674 271.905 112.389 271.322 112.786 270.553C113.183 269.782 113.218 269.265 112.873 268.96Z" fill="#D9D9D9"/>
<path d="M127.694 269.917C128.743 269.527 129.39 268.279 129.104 267.197C129.213 266.971 129.547 266.921 129.756 267.061C129.965 267.201 130.057 267.471 130.044 267.723C130.034 267.974 129.938 268.214 129.844 268.446C129.685 268.839 129.518 269.242 129.215 269.537C128.914 269.83 128.433 269.986 127.694 269.917Z" fill="#E1E1E1"/>
<path d="M128.168 270.434C128.588 270.804 128.734 271.449 128.519 271.963C128.774 272.17 129.193 272.061 129.375 271.785C129.555 271.51 129.519 271.134 129.358 270.85C129.195 270.566 128.924 270.357 128.642 270.192C128.542 270.194 128.444 270.196 128.168 270.434Z" fill="#D9D9D9" stroke="#D9D9D9" stroke-miterlimit="10"/>
<path d="M135.011 268.949C135.297 268.456 135.581 267.963 135.867 267.47C135.928 267.368 135.999 267.255 136.115 267.23C136.253 267.201 136.387 267.324 136.422 267.46C136.456 267.597 136.418 267.74 136.37 267.873C136.239 268.257 136.049 268.619 135.011 268.949Z" fill="#D9D9D9"/>
<path d="M116.561 269.833C116.437 269.464 116.164 269.201 115.997 268.856C115.83 268.511 115.828 267.971 116.128 267.81C116.394 267.67 116.694 267.941 116.818 268.261C116.939 268.578 116.953 268.944 117.064 269.27C117.175 269.595 117.45 269.89 116.561 269.833Z" fill="#D9D9D9"/>
<path d="M91.2312 249.262C90.7025 250.512 90.8342 251.256 91.5717 252.394C92.4744 253.788 96.0744 256.893 98.1722 257.587C94.8918 254.622 92.8233 251.964 91.2312 249.262Z" fill="#BDBDBD"/>
<path d="M93.7449 285.589C93.2769 285.391 92.7733 285.253 92.3868 284.925C92.0003 284.597 91.737 284.072 91.8624 283.581C91.9856 283.099 92.5059 282.752 92.999 282.825C93.4921 282.898 93.8912 283.379 93.8703 283.876C93.3793 283.533 93.5548 282.649 94.1106 282.426C94.6664 282.202 95.3412 282.585 95.5523 283.145C95.7633 283.705 95.5063 284.31 95.1991 284.822C94.658 285.725 94.7207 286.003 93.7449 285.589Z" fill="#FF0069"/>
<path d="M122.729 279.686C122.167 278.932 121.762 278.685 121.361 277.824C120.959 276.964 120.918 275.85 121.511 275.087C122.092 274.337 123.239 274.124 124.018 274.619C124.798 275.114 125.103 276.251 124.683 277.106C124.117 276.14 125.094 274.732 126.206 274.759C127.318 274.786 128.166 275.958 128.091 277.093C128.015 278.228 127.044 279.009 126.198 279.755C124.683 281.088 123.684 280.967 122.729 279.686Z" fill="#FF0069"/>
<path d="M90.9702 275.397C90.3413 274.908 89.6037 274.538 89.1294 273.89C88.653 273.243 88.4357 272.327 88.7993 271.598C89.1566 270.879 90.0717 270.512 90.7988 270.794C91.526 271.074 91.9668 271.966 91.7621 272.743C91.1331 272.037 91.7098 270.708 92.6354 270.545C93.5611 270.382 94.4595 271.214 94.5849 272.166C94.7102 273.119 94.1336 274.014 93.4587 274.686C92.4955 275.65 92.3053 276.435 90.9702 275.397Z" fill="#FF0069"/>
<path d="M144.206 274.351C143.767 273.687 143.155 273.031 142.858 272.285C142.562 271.539 142.583 270.599 143.118 269.984C143.644 269.38 144.622 269.255 145.255 269.71C145.888 270.166 146.089 271.14 145.696 271.84C145.265 270.998 146.16 269.857 147.096 269.934C148.032 270.011 148.692 271.042 148.571 271.994C148.452 272.947 147.397 273.952 146.532 274.351C145.667 274.75 144.921 275.434 144.206 274.351Z" fill="#FF0069"/>
<path d="M140.537 287.124C140.272 286.658 139.94 286.399 139.764 285.887C139.591 285.375 139.635 284.741 140.017 284.347C140.393 283.958 141.054 283.908 141.465 284.236C141.875 284.564 141.977 285.226 141.689 285.684C141.428 285.103 142.069 284.365 142.696 284.449C143.323 284.533 143.732 285.249 143.619 285.887C143.507 286.524 142.928 286.936 142.385 287.276C141.34 287.932 141.077 288.068 140.537 287.124Z" fill="#FF0069"/>
<path d="M121.342 292.746C121.342 292.746 120.749 292.132 120.575 291.62C120.402 291.108 120.446 290.475 120.828 290.08C121.204 289.691 121.864 289.641 122.276 289.969C122.685 290.297 122.788 290.96 122.5 291.417C122.238 290.836 122.88 290.099 123.507 290.182C124.133 290.266 124.543 290.983 124.43 291.62C124.317 292.257 123.043 292.913 123.043 292.913L121.342 292.746Z" fill="#FF0069"/>
</g>
<mask id="mask24_4618_67726" style="mask-type:luminance" maskUnits="userSpaceOnUse" x="90" y="201" width="22" height="23">
<path fill-rule="evenodd" clip-rule="evenodd" d="M110.702 215.005C110.964 214.987 111.158 215.474 111.128 216.069C111.1 216.619 110.889 217.064 110.647 217.085L110.518 217.097L110.295 217.117C107.756 217.353 99.4578 218.489 91.6692 223.59C91.6632 223.676 90.5182 224.063 90.5454 223.53C90.5454 223.53 99.6242 215.804 110.702 215.005ZM102.059 201.237C102.504 201.117 102.977 201.168 103.386 201.379C103.962 201.736 104.41 202.267 104.665 202.894C104.951 203.689 104.497 204.628 104.22 205.152C103.771 205.923 103.254 207.128 103.003 207.688C102.842 208.059 102.624 208.276 102.185 207.955C102.013 207.848 101.868 207.702 101.763 207.53C101.658 207.357 101.594 207.162 101.578 206.96C101.538 206.507 101.742 205.665 102.359 204.605C102.82 203.726 103.31 202.695 102.996 202.557C102.164 202.178 97.8048 206.235 97.9088 208.621C97.9662 209.991 100.967 210.512 101.842 210.903C102.034 210.974 102.204 211.095 102.332 211.254C102.46 211.414 102.543 211.605 102.571 211.808C102.613 212.28 102.386 212.876 101.893 213.636C101.213 214.52 100.23 215.121 99.1325 215.323C98.1588 215.491 97.16 215.44 96.2082 215.176C95.2565 214.911 94.3755 214.439 93.6288 213.793C93.302 213.509 93.4295 213.25 93.7163 213.082C93.9248 212.989 94.1427 212.919 94.3661 212.873C94.9303 212.72 95.5301 212.771 96.0603 213.017C96.9448 213.489 98.4316 214.203 99.6566 213.928C100.075 213.861 100.459 213.657 100.749 213.348C100.809 213.29 100.856 213.219 100.884 213.14C100.913 213.062 100.922 212.977 100.913 212.894C100.903 212.811 100.874 212.731 100.829 212.661C100.783 212.591 100.722 212.532 100.649 212.49C99.0257 211.681 95.987 211.231 95.7996 209.136C95.5497 206.343 98.6285 203.16 100.462 201.951C100.941 201.609 101.484 201.366 102.059 201.237Z" fill="white"/>
</mask>
<g mask="url(#mask24_4618_67726)">
<mask id="mask25_4618_67726" style="mask-type:luminance" maskUnits="userSpaceOnUse" x="88" y="200" width="25" height="25">
<path d="M110.162 200.047L88.1738 202.014L90.1769 224.404L112.165 222.437L110.162 200.047Z" fill="white"/>
</mask>
<g mask="url(#mask25_4618_67726)">
<mask id="mask26_4618_67726" style="mask-type:luminance" maskUnits="userSpaceOnUse" x="88" y="200" width="24" height="24">
<path d="M90.5772 223.925L111.686 222.037L109.761 200.525L88.6526 202.414L90.5772 223.925Z" fill="white"/>
</mask>
<g mask="url(#mask26_4618_67726)">
<path d="M88.1738 202.014L110.162 200.047L112.165 222.437L90.1769 224.404L88.1738 202.014Z" fill="#0057FF"/>
</g>
</g>
</g>
<defs>
<filter id="filter0_b_4618_67726" x="-100" y="-48.3271" width="475.131" height="452.414" filterUnits="userSpaceOnUse" color-interpolation-filters="sRGB">
<feFlood flood-opacity="0" result="BackgroundImageFix"/>
<feGaussianBlur in="BackgroundImageFix" stdDeviation="50"/>
<feComposite in2="SourceAlpha" operator="in" result="effect1_backgroundBlur_4618_67726"/>
<feBlend mode="normal" in="SourceGraphic" in2="effect1_backgroundBlur_4618_67726" result="shape"/>
</filter>
<filter id="filter1_b_4618_67726" x="-29.7664" y="21.7178" width="334.751" height="312.344" filterUnits="userSpaceOnUse" color-interpolation-filters="sRGB">
<feFlood flood-opacity="0" result="BackgroundImageFix"/>
<feGaussianBlur in="BackgroundImageFix" stdDeviation="15"/>
<feComposite in2="SourceAlpha" operator="in" result="effect1_backgroundBlur_4618_67726"/>
<feBlend mode="normal" in="SourceGraphic" in2="effect1_backgroundBlur_4618_67726" result="shape"/>
</filter>
<filter id="filter2_b_4618_67726" x="-14.8281" y="32.9219" width="305.942" height="290.471" filterUnits="userSpaceOnUse" color-interpolation-filters="sRGB">
<feFlood flood-opacity="0" result="BackgroundImageFix"/>
<feGaussianBlur in="BackgroundImageFix" stdDeviation="15"/>
<feComposite in2="SourceAlpha" operator="in" result="effect1_backgroundBlur_4618_67726"/>
<feBlend mode="normal" in="SourceGraphic" in2="effect1_backgroundBlur_4618_67726" result="shape"/>
</filter>
<linearGradient id="paint0_linear_4618_67726" x1="272.5" y1="259.5" x2="38.2462" y2="79.7691" gradientUnits="userSpaceOnUse">
<stop stop-color="#4C6189"/>
<stop offset="1" stop-color="#232E43"/>
</linearGradient>
<linearGradient id="paint1_linear_4618_67726" x1="350.331" y1="331.979" x2="-80.0329" y2="-117.521" gradientUnits="userSpaceOnUse">
<stop offset="0.0541064" stop-color="#22458B" stop-opacity="0.47"/>
<stop offset="0.63085" stop-color="#1B2D52" stop-opacity="0.58"/>
<stop offset="0.792052" stop-color="#15171B" stop-opacity="0.57"/>
</linearGradient>
<linearGradient id="paint2_linear_4618_67726" x1="408.447" y1="364.939" x2="11.6781" y2="-53.7884" gradientUnits="userSpaceOnUse">
<stop offset="0.0541064" stop-color="#22458B" stop-opacity="0.47"/>
<stop offset="0.466157" stop-color="#1B2D52" stop-opacity="0.58"/>
<stop offset="1" stop-color="#15171B" stop-opacity="0.57"/>
</linearGradient>
<linearGradient id="paint3_linear_4618_67726" x1="328.336" y1="318.86" x2="-64.8894" y2="-83.2322" gradientUnits="userSpaceOnUse">
<stop offset="0.0541064" stop-color="#1F2636" stop-opacity="0.89"/>
<stop offset="0.733105" stop-color="#7EA0E5" stop-opacity="0.4"/>
</linearGradient>
<clipPath id="clip0_4618_67726">
<rect width="262.192" height="111.728" fill="white" transform="translate(3.63696)"/>
</clipPath>
</defs>
</svg>
