<svg width="323" height="358" viewBox="0 0 323 358" fill="none" xmlns="http://www.w3.org/2000/svg">
<g clip-path="url(#clip0_652_16246)" filter="url(#filter0_b_652_16246)">
<path d="M55.411 127.47V101.236H4V80.2846L62.981 4.57759H79.003V80.1086H94.497V101.236H79.003V127.469L55.411 127.47ZM27.592 80.1086H58.051V40.3186L27.592 80.1086ZM200.487 53.5226C200.564 60.7963 199.403 68.0302 197.054 74.9146C194.958 81.0875 191.734 86.8178 187.547 91.8146C183.584 96.5022 178.66 100.285 173.11 102.907C167.436 105.517 161.265 106.868 155.02 106.868C148.774 106.868 142.603 105.517 136.929 102.907C131.414 100.267 126.523 96.4865 122.58 91.8146C118.393 86.8178 115.169 81.0875 113.073 74.9146C110.724 68.0302 109.563 60.7963 109.64 53.5226C109.563 46.2488 110.724 39.015 113.073 32.1306C115.169 25.9577 118.393 20.2274 122.58 15.2306C126.535 10.5477 131.422 6.73868 136.928 4.04559C142.586 1.37892 148.764 -0.00390625 155.018 -0.00390625C161.273 -0.00390625 167.451 1.37892 173.109 4.04559C178.651 6.72088 183.569 10.5309 187.544 15.2286C191.731 20.2254 194.955 25.9557 197.051 32.1286C199.401 39.0134 200.563 46.248 200.487 53.5226ZM176.718 53.5226C176.759 49.1581 176.226 44.8071 175.133 40.5816C174.223 36.9762 172.704 33.5524 170.643 30.4576C168.873 27.7979 166.526 25.5714 163.777 23.9436C161.129 22.4156 158.119 21.6252 155.062 21.6546C151.947 21.6102 148.877 22.4005 146.171 23.9436C143.422 25.5714 141.075 27.7979 139.305 30.4576C137.244 33.5524 135.725 36.9762 134.815 40.5816C133.722 44.8071 133.189 49.1581 133.23 53.5226C133.185 57.8583 133.718 62.1807 134.815 66.3756C135.736 69.9497 137.254 73.3427 139.305 76.4116C141.075 79.0713 143.422 81.2978 146.171 82.9256C148.877 84.4687 151.947 85.259 155.062 85.2146C158.119 85.244 161.129 84.4536 163.777 82.9256C166.526 81.2978 168.873 79.0713 170.643 76.4116C172.694 73.3427 174.212 69.9497 175.133 66.3756C176.23 62.1807 176.763 57.8583 176.718 53.5226ZM264.044 127.47V101.236H212.634V80.2846L271.616 4.57759H287.638V80.1086H303.132V101.236H287.638V127.469L264.044 127.47ZM236.228 80.1086H266.687V40.3186L236.228 80.1086Z" fill="#FFFAFC" fill-opacity="0.8"/>
</g>
<g filter="url(#filter1_b_652_16246)">
<path d="M188.721 63.3695C253.629 83.0951 313.415 127.13 313.415 205.28C313.415 283.43 248.151 346.777 167.642 346.777C87.1344 346.777 23.0035 297.543 2.14329 223.562C-6.18027 192.458 9.47276 153.202 53.7829 126.376C98.093 99.551 123.813 43.644 188.721 63.3695Z" fill="url(#paint0_linear_652_16246)" fill-opacity="0.4"/>
</g>
<g filter="url(#filter2_b_652_16246)">
<path d="M185.512 76.0008C243.573 93.9996 297.053 134.18 297.053 205.489C297.053 276.798 238.673 334.6 166.657 334.6C94.6412 334.6 37.2752 289.676 18.6154 222.171C11.1699 193.789 25.1718 157.969 64.8078 133.492C104.444 109.015 127.451 58.002 185.512 76.0008Z" fill="url(#paint1_linear_652_16246)"/>
</g>
<path d="M172.167 52.3658C164.907 52.3536 157.694 53.5289 150.814 55.8451C147.52 56.9566 144.307 58.2949 141.198 59.8505C138.078 61.4158 135.048 63.1559 132.124 65.0625C129.288 66.9028 126.459 68.9278 123.472 71.252C120.808 73.3271 118.077 75.5968 115.124 78.1913C109.631 83.0175 104.155 88.291 98.8591 93.3907C93.3131 98.7312 87.5779 104.255 81.6991 109.394C78.5299 112.164 75.582 114.597 72.6876 116.831C69.4321 119.342 66.3321 121.538 63.2061 123.543C52.4911 130.417 43.1051 138.295 35.3095 146.96C28.1752 154.802 22.2473 163.662 17.7204 173.249C13.6815 181.806 11.0687 190.965 9.9855 200.365C9.49725 204.758 9.39236 209.184 9.67202 213.595C9.94583 217.871 10.6086 222.113 11.652 226.268C16.8023 245.621 24.6498 263.6 34.9759 279.706C44.9663 295.372 57.4724 309.284 71.9908 320.88C86.4338 332.377 102.728 341.333 120.177 347.362C138.128 353.581 157.255 356.732 177.026 356.732C181.998 356.731 186.968 356.473 191.913 355.958C206.323 354.454 220.416 350.746 233.7 344.963C242.377 341.182 250.661 336.557 258.433 331.155C266.185 325.762 273.401 319.637 279.983 312.866C293.323 299.129 303.915 282.969 311.191 265.257C313.035 260.773 314.682 256.143 316.087 251.496C317.508 246.797 318.716 241.967 319.676 237.142C320.648 232.253 321.391 227.249 321.882 222.27C322.381 217.217 322.635 212.064 322.635 206.955C322.635 201.857 322.403 196.779 321.948 191.863C321.501 187.042 320.826 182.245 319.942 177.604C319.075 173.055 317.982 168.533 316.696 164.164C315.435 159.882 313.953 155.63 312.291 151.526C310.663 147.505 308.816 143.517 306.807 139.674C304.838 135.91 302.656 132.18 300.323 128.591C298.039 125.077 295.548 121.602 292.919 118.262C290.346 114.993 287.572 111.766 284.674 108.671C281.839 105.643 278.808 102.66 275.668 99.8044C272.596 97.0113 269.337 94.2661 265.981 91.6474C259.273 86.4313 252.223 81.6695 244.88 77.3939C230.773 69.1516 215.007 62.1995 198.019 56.7303C193.612 55.297 189.106 54.1888 184.536 53.4145C180.448 52.7281 176.31 52.3776 172.165 52.3665M172.165 52.0007C180.114 52.0007 188.709 53.3483 198.132 56.3821C263.131 77.3116 323 124.035 323 206.958C323 289.882 257.645 357.099 177.026 357.099C96.4065 357.099 32.1872 304.858 11.2979 226.359C2.96317 193.354 18.6385 151.7 63.0082 123.237C100.948 98.8987 125.279 52 172.167 52L172.165 52.0007Z" fill="url(#paint2_linear_652_16246)"/>
<mask id="mask0_652_16246" style="mask-type:alpha" maskUnits="userSpaceOnUse" x="16" y="72" width="281" height="264">
<path d="M184.939 76.7439C243.001 94.7427 296.481 134.923 296.481 206.232C296.481 277.541 238.1 335.343 166.085 335.343C94.069 335.343 36.703 290.419 18.0432 222.914C10.5976 194.532 24.5995 158.713 64.2356 134.235C103.872 109.758 126.878 58.7451 184.939 76.7439Z" fill="#D9D9D9"/>
</mask>
<g mask="url(#mask0_652_16246)">
<path d="M251.869 291.254L251.862 305.912C251.862 306.914 251.31 307.826 250.436 308.314C241.67 313.203 234.673 321.198 230.979 330.532C230.555 331.598 229.491 332.069 228.358 332.248C206.308 335.73 178.58 336.57 163.001 330.82C161.652 330.322 157.937 327.052 157.937 327.052C157.937 327.052 160.99 309.051 159.641 300.113C159.417 298.626 160.438 297.235 161.923 297.005C189.745 292.665 220.311 294.71 248.551 288.578C250.26 288.207 251.872 289.509 251.869 291.254Z" fill="#E8E8E8"/>
<path d="M251.869 292.77C252.055 296.517 251.817 302.249 251.779 306.119C251.769 307.05 251.236 307.861 250.441 308.347C241.927 313.555 238.407 316.49 230.355 331.417C230.055 331.972 227.17 332.41 224.355 332.843C220.351 333.459 215.955 333.971 214.774 333.971C233.866 322.643 240.837 306.583 234.08 300.43C247.778 294.981 240.368 297.907 251.869 292.77Z" fill="#D5D5D5"/>
<path d="M231.481 170.966C235.425 164.382 246.861 160.06 254.152 162.466C261.44 164.873 265.496 169.819 268.39 176.929C271.284 184.039 273.207 196.629 273.364 203.346C273.686 217.18 270.832 244.904 267.907 258.429C266.495 264.961 261.661 280.928 260.507 284.118C259.481 286.953 259.545 287.164 259.041 287.667C251.372 295.336 227.023 304.003 211.999 305.786C188.112 308.618 157.889 301.513 141.192 296.933C136.134 295.546 152.343 300.751 152.848 301.106C153.657 301.673 154.764 300.985 154.642 300.004C154.564 299.383 154.523 298.6 154.549 297.616C154.661 293.518 158.174 290.204 161.999 288.733C165.827 287.262 170.98 289.219 174.064 286.519C203.038 261.155 208.519 268.219 216.555 250.664C224.59 233.11 226.428 213.419 227.465 194.139C227.922 185.667 228.667 175.665 231.481 170.966Z" fill="#F2F2F2"/>
<path d="M233.283 297.535C205.79 309.399 171.17 302.113 170.185 302.063C187.022 307.252 206.194 306.512 211.707 305.824C218.367 304.991 225.526 303.27 232.076 301.125C235.994 299.842 241.752 297.685 245.227 296.091C248.749 294.474 251.344 293.253 254.578 291.147C255.933 290.264 258.087 288.802 259.289 287.383C257.787 286.948 253.064 285.046 252.536 284.817C252.534 284.815 247.219 291.52 233.283 297.535Z" fill="#D5D5D5"/>
<mask id="mask1_652_16246" style="mask-type:luminance" maskUnits="userSpaceOnUse" x="103" y="101" width="202" height="181">
<path d="M142.932 259.541L274.728 281.897C274.823 281.868 304.466 175.925 304.437 175.829L210.121 101.204C210.093 101.108 199.101 105.817 199.008 105.845L104.074 135.621C103.978 135.649 103.926 135.752 103.955 135.847L142.703 259.427C142.734 259.519 142.837 259.572 142.932 259.541Z" fill="white"/>
</mask>
<g mask="url(#mask1_652_16246)">
<path d="M115.765 168.41C116.372 179.274 121.458 192.025 137.764 198.849C139.959 199.768 142.725 201.646 143.31 203.415C145.571 210.242 145.226 216.093 148.763 222.596C152.912 230.225 152.809 234.4 156.201 238.613C156.982 239.584 163.984 235.004 184.094 225.704C190.887 222.562 195.126 231.767 198.399 225.035C201.672 218.306 208.3 215.64 208.867 208.178C209.309 202.341 208.553 193.91 211.228 188.79C213.453 184.529 217.361 180.461 222.253 179.862C222.426 179.84 225.737 178.112 225.585 178.029C217.078 173.359 244.255 176.827 244.255 176.827C244.255 176.827 226.28 166.684 209.221 154.404C195.866 144.79 192.532 140.086 185.955 135.737C180.883 132.381 170.848 128.239 160.645 129.832C160.457 129.86 160.435 130.127 160.616 130.184C162.123 130.672 163.703 130.36 164.053 128.777C164.448 126.983 162.292 124.566 160.452 124.588C158.843 124.605 157.046 125.542 156.42 127.411C156.42 127.411 157.056 126.247 157.101 126.164C157.698 125.109 157.296 123.741 157.02 123.184C156.47 122.074 155.239 120.282 153.438 120.265C151.824 120.251 150.648 121.734 150.662 122.831C150.686 124.871 153.321 128.316 151.238 128.968C132.335 134.738 114.501 145.744 115.765 168.41Z" fill="#D08A5A"/>
</g>
<mask id="mask2_652_16246" style="mask-type:luminance" maskUnits="userSpaceOnUse" x="111" y="132" width="86" height="74">
<path d="M130.081 205.812L196.349 180.44C196.442 180.404 196.49 180.307 196.459 180.221L178.274 132.722C178.241 132.636 178.139 132.595 178.046 132.631L111.78 158.001C111.687 158.036 111.64 158.134 111.671 158.22L129.853 205.719C129.888 205.807 129.988 205.848 130.081 205.812Z" fill="white"/>
</mask>
<g mask="url(#mask2_652_16246)">
<path d="M137.838 150.879C139.164 150.703 143.417 150.282 146.259 147.318C148.363 145.121 151.172 143.102 154.066 141.827C157.744 140.206 163.273 140.046 166.517 140.779C170.194 141.612 176.475 144.433 180.791 147.575C184.908 150.574 188.086 156.178 188.545 161.405C189.104 167.775 186.605 173.428 182.938 178.324C178.284 184.537 173.288 188.081 167.726 190.964C155.609 197.245 147.426 197.062 140.706 196.234C136.156 195.674 130.053 193.463 125.438 189.076C124.1 187.805 122.974 185.741 121.941 184.235C119.316 180.407 118.604 172.595 119.164 167.52C119.882 160.991 121.77 153.007 137.838 150.879Z" fill="#F2D2B6"/>
</g>
<path d="M121.672 169.279C122.415 167.884 123.419 166.746 124.493 165.589C125.566 164.43 127.113 163.516 128.115 163.049C130.012 162.162 132.811 162.454 134.228 162.838C135.432 163.164 136.898 164.266 137.957 165.623C139.085 167.07 139.359 169.629 139.516 171.459C139.671 173.292 138.847 176.572 137.695 178C136.858 179.038 135.084 180.514 132.219 181.152C128.767 181.923 127.68 182.118 126.513 183.356C125.799 184.113 125.054 185.191 124.674 185.793C124.159 186.605 123.912 186.965 123.817 187.153C122.341 185.398 121.168 183.104 120.42 181.29C120.149 180.635 118.835 177.869 118.861 174.506C118.861 174.582 120.475 171.528 121.672 169.279Z" fill="#D9A171"/>
<path opacity="0.1686" d="M118.861 174.532C118.861 174.532 118.895 175.765 119.016 176.655C119.087 177.172 119.566 179.231 120.192 180.756C121.106 182.984 122.134 185.165 123.81 187.157C124.571 185.957 124.905 185.412 124.905 185.412C124.905 185.412 123.215 183.689 121.901 180.373C121.256 178.745 120.361 176.838 119.732 172.92C119.271 173.789 118.861 174.532 118.861 174.532Z" fill="#523618"/>
<path d="M136.127 168.136C134.413 165.394 127.922 165.573 127.922 165.573C127.922 165.573 124.314 170.888 126.525 174.649C128.736 178.41 132.378 179.548 134.956 177.639C137.714 175.599 138.44 171.835 136.127 168.136Z" fill="white"/>
<path opacity="0.1412" d="M134.333 171.476C134.78 172.475 135.708 174.351 135.546 177.165C136.479 176.241 137.096 175.187 137.372 173.904C137.646 172.633 137.501 171.169 136.998 169.883C136.17 170.412 135.613 170.788 134.333 171.476Z" fill="black"/>
<path d="M131.659 177.608C132.64 177.608 133.435 176.813 133.435 175.832C133.435 174.851 132.64 174.056 131.659 174.056C130.679 174.056 129.884 174.851 129.884 175.832C129.884 176.813 130.679 177.608 131.659 177.608Z" fill="black" stroke="black" stroke-miterlimit="10"/>
<path d="M131.238 177.167C131.681 177.167 132.04 176.808 132.04 176.365C132.04 175.922 131.681 175.563 131.238 175.563C130.795 175.563 130.436 175.922 130.436 176.365C130.436 176.808 130.795 177.167 131.238 177.167Z" fill="white"/>
<path d="M128.689 164.73C123.193 166.822 126.252 174.22 126.242 174.189C126.242 174.189 130.601 174.106 137.07 169.838C137.07 169.838 136.979 169.538 136.706 169.003C135.751 167.129 133.078 163.059 128.689 164.73Z" fill="#D39266"/>
<path opacity="0.1294" d="M137.048 169.767C137.043 169.75 137.036 169.736 137.029 169.714C137.01 169.662 136.981 169.593 136.946 169.51C136.858 169.307 136.715 169.022 136.584 168.767C136.472 168.558 136.339 168.327 136.191 168.084C135.92 167.651 135.601 167.206 135.272 166.796C135.018 166.489 134.739 166.189 134.432 165.908C134.289 165.78 134.128 165.646 133.947 165.504C133.787 165.38 133.609 165.254 133.425 165.137C132.995 164.868 132.526 164.649 132.019 164.506C131.771 164.442 131.514 164.392 131.276 164.361C130.517 164.273 129.686 164.361 128.779 164.697C128.71 164.725 128.639 164.751 128.57 164.782C128.548 164.792 128.527 164.801 128.503 164.811C128.265 164.918 128.022 165.039 127.768 165.182C127.763 165.185 127.761 165.187 127.756 165.192C128.82 165.206 130.795 166.099 133.092 169.269C133.635 170.019 134.039 170.762 134.337 171.476C135.199 171.012 136.113 170.471 137.074 169.836C137.069 169.838 137.062 169.812 137.048 169.767Z" fill="black"/>
<path d="M160.481 149.712C159.424 150.686 158.015 152.511 157.963 154.889C157.91 157.267 158.655 160.186 159.769 162.287C160.726 164.089 162.259 165.713 164.13 166.527C166.574 167.591 169.768 167.129 171.613 166.393C173.336 165.706 176.13 163.885 178.956 163.254C179.919 163.037 181.947 163.059 182.799 163.306C184.485 163.799 186.917 166.024 188.033 168.067C189.319 162.785 188.381 159.46 187.407 156.356C186.498 153.456 185.146 151.307 185.146 151.307C185.146 151.307 184.654 151.057 184.139 150.828C182.861 150.26 179.969 148.627 178.606 148.317C176.187 147.77 174.519 147.113 172.053 146.841C169.975 146.613 168.414 146.837 166.357 147.203C164.372 147.558 161.492 148.781 160.481 149.712Z" fill="#D9A171"/>
<path d="M171.949 154.009C170.285 150.988 163.385 150.807 163.385 150.807C163.385 150.807 159.251 156.27 161.386 160.407C163.521 164.544 167.319 165.965 170.166 164.077C173.21 162.057 174.196 158.084 171.949 154.009Z" fill="white"/>
<path opacity="0.1412" d="M169.854 157.47C170.273 158.562 171.151 160.616 170.82 163.606C171.863 162.675 172.577 161.585 172.943 160.233C173.308 158.893 173.234 157.324 172.774 155.925C171.865 156.439 171.251 156.808 169.854 157.47Z" fill="black"/>
<path d="M166.226 163.901C167.269 163.901 168.114 163.053 168.114 162.007C168.114 160.96 167.269 160.112 166.226 160.112C165.184 160.112 164.339 160.96 164.339 162.007C164.339 163.053 165.184 163.901 166.226 163.901Z" fill="black" stroke="black" stroke-miterlimit="10"/>
<path d="M165.798 163.606C166.268 163.606 166.65 163.223 166.65 162.749C166.65 162.276 166.268 161.893 165.798 161.893C165.327 161.893 164.946 162.276 164.946 162.749C164.946 163.223 165.327 163.606 165.798 163.606Z" fill="white"/>
<path d="M164.246 149.953C158.294 151.871 161.121 159.936 161.112 159.9C161.112 159.9 165.743 160.06 172.855 155.877C172.855 155.877 172.777 155.554 172.515 154.966C171.608 152.916 168.999 148.42 164.246 149.953Z" fill="#D39266"/>
<path opacity="0.1294" d="M172.832 155.801C172.827 155.784 172.822 155.768 172.815 155.746C172.815 155.744 172.815 155.744 172.815 155.742C172.796 155.684 172.772 155.611 172.739 155.52C172.656 155.299 172.522 154.985 172.396 154.709C172.289 154.478 172.163 154.225 172.018 153.959C171.754 153.48 171.442 152.99 171.116 152.535C170.863 152.195 170.583 151.857 170.273 151.54C170.128 151.397 169.966 151.243 169.78 151.081C169.619 150.94 169.435 150.795 169.25 150.66C168.807 150.348 168.321 150.086 167.791 149.907C167.531 149.826 167.262 149.757 167.01 149.71C166.21 149.574 165.32 149.619 164.339 149.924C164.263 149.95 164.187 149.974 164.111 150.003C164.087 150.012 164.063 150.019 164.04 150.029C163.78 150.129 163.514 150.245 163.237 150.383C163.233 150.386 163.228 150.388 163.223 150.391C164.351 150.467 166.396 151.531 168.657 155.044C169.193 155.875 169.578 156.691 169.852 157.47C170.792 157.025 171.794 156.501 172.853 155.877C172.853 155.877 172.846 155.849 172.832 155.801Z" fill="black"/>
<path d="M144.113 164.704C140.264 169.384 140.602 175.984 141.297 178.791C141.992 181.595 143.053 183.594 144.184 185.125C144.667 185.782 146.712 189.259 151.529 187.748C154.057 186.955 155.906 185.151 159.21 184.115C163.356 182.816 165.905 179.362 164.965 176.646C159.734 161.552 149.442 161.75 147.897 162.235C145.952 162.845 144.324 164.447 144.113 164.704Z" fill="#D9A171"/>
<path opacity="0.1608" d="M154.333 183.452C155.419 183.05 155.943 181.761 155.503 180.574C155.063 179.387 153.826 178.751 152.74 179.153C151.654 179.556 151.131 180.844 151.57 182.031C152.01 183.218 153.247 183.854 154.333 183.452Z" fill="#252525"/>
<path d="M154.17 182.966C155.262 182.562 155.79 181.271 155.351 180.084C154.911 178.897 153.669 178.263 152.577 178.668C151.484 179.072 150.956 180.363 151.396 181.55C151.836 182.737 153.077 183.371 154.17 182.966Z" fill="#252525"/>
<path d="M143.12 173.999C142.268 171.388 144.701 168.681 148.637 167.4C152.572 166.117 156.282 166.893 157.134 169.505C157.987 172.116 155.421 175.294 151.486 176.577C147.552 177.86 143.972 176.61 143.12 173.999Z" fill="#252525"/>
<mask id="mask3_652_16246" style="mask-type:luminance" maskUnits="userSpaceOnUse" x="151" y="169" width="4" height="5">
<path d="M152.719 173.806L154.818 173.121C154.913 173.09 154.963 172.987 154.932 172.895L153.745 169.248C153.714 169.153 153.611 169.103 153.519 169.134L151.419 169.819C151.324 169.85 151.274 169.952 151.305 170.045L152.493 173.692C152.524 173.787 152.626 173.837 152.719 173.806Z" fill="white"/>
</mask>
<g mask="url(#mask3_652_16246)">
<g opacity="0.1216">
<mask id="mask4_652_16246" style="mask-type:luminance" maskUnits="userSpaceOnUse" x="151" y="169" width="4" height="5">
<path d="M152.719 173.806L154.818 173.121C154.913 173.09 154.963 172.987 154.932 172.895L153.745 169.248C153.714 169.153 153.611 169.103 153.519 169.134L151.419 169.819C151.324 169.85 151.274 169.952 151.305 170.045L152.493 173.692C152.524 173.787 152.626 173.837 152.719 173.806Z" fill="white"/>
</mask>
<g mask="url(#mask4_652_16246)">
<path d="M152.074 171.476C152.129 169.881 152.709 169.222 153.328 169.25C153.945 169.279 154.216 170.248 153.883 171.505C153.709 172.159 153.404 173.187 152.936 173.702C152.574 174.099 152.029 172.816 152.074 171.476Z" fill="white"/>
</g>
</g>
</g>
<mask id="mask5_652_16246" style="mask-type:luminance" maskUnits="userSpaceOnUse" x="145" y="171" width="5" height="5">
<path d="M145.845 172.168L147.314 175.713C147.352 175.805 147.457 175.848 147.55 175.81L149.589 174.965C149.682 174.927 149.725 174.822 149.687 174.73L148.218 171.185C148.18 171.092 148.076 171.05 147.983 171.088L145.943 171.933C145.85 171.971 145.807 172.078 145.845 172.168Z" fill="white"/>
</mask>
<g mask="url(#mask5_652_16246)">
<g opacity="0.1216">
<mask id="mask6_652_16246" style="mask-type:luminance" maskUnits="userSpaceOnUse" x="145" y="170" width="5" height="6">
<path d="M147.242 175.925L149.644 175.142C149.739 175.111 149.789 175.008 149.758 174.915L148.511 171.09C148.48 170.995 148.378 170.945 148.285 170.976L145.883 171.759C145.788 171.79 145.738 171.892 145.769 171.985L147.016 175.81C147.047 175.903 147.149 175.953 147.242 175.925Z" fill="white"/>
</mask>
<g mask="url(#mask6_652_16246)">
<path d="M148.563 172.773C147.485 171.597 146.614 171.474 146.164 171.897C145.714 172.321 146.137 173.233 147.209 173.971C147.765 174.356 148.668 174.937 149.355 175.023C149.889 175.092 149.47 173.761 148.563 172.773Z" fill="white"/>
</g>
</g>
</g>
<mask id="mask7_652_16246" style="mask-type:luminance" maskUnits="userSpaceOnUse" x="151" y="169" width="4" height="5">
<path d="M152.719 173.806L154.818 173.121C154.913 173.09 154.963 172.987 154.932 172.895L153.745 169.248C153.714 169.153 153.611 169.103 153.519 169.134L151.419 169.819C151.324 169.85 151.274 169.952 151.305 170.045L152.493 173.692C152.524 173.787 152.626 173.837 152.719 173.806Z" fill="white"/>
</mask>
<g mask="url(#mask7_652_16246)">
<g opacity="0.1216">
<mask id="mask8_652_16246" style="mask-type:luminance" maskUnits="userSpaceOnUse" x="151" y="169" width="4" height="5">
<path d="M152.719 173.806L154.818 173.121C154.913 173.09 154.963 172.987 154.932 172.895L153.745 169.248C153.714 169.153 153.611 169.103 153.519 169.134L151.419 169.819C151.324 169.85 151.274 169.952 151.305 170.045L152.493 173.692C152.524 173.787 152.626 173.837 152.719 173.806Z" fill="white"/>
</mask>
<g mask="url(#mask8_652_16246)">
<path d="M152.074 171.476C152.129 169.881 152.709 169.222 153.328 169.25C153.945 169.279 154.216 170.248 153.883 171.505C153.709 172.159 153.404 173.187 152.936 173.702C152.574 174.099 152.029 172.816 152.074 171.476Z" fill="white"/>
</g>
</g>
</g>
<mask id="mask9_652_16246" style="mask-type:luminance" maskUnits="userSpaceOnUse" x="145" y="171" width="5" height="5">
<path d="M145.845 172.168L147.314 175.713C147.352 175.805 147.457 175.848 147.55 175.81L149.589 174.965C149.682 174.927 149.725 174.822 149.687 174.73L148.218 171.185C148.18 171.092 148.076 171.05 147.983 171.088L145.943 171.933C145.85 171.971 145.807 172.078 145.845 172.168Z" fill="white"/>
</mask>
<g mask="url(#mask9_652_16246)">
<g opacity="0.1216">
<mask id="mask10_652_16246" style="mask-type:luminance" maskUnits="userSpaceOnUse" x="145" y="170" width="5" height="6">
<path d="M147.242 175.925L149.644 175.142C149.739 175.111 149.789 175.008 149.758 174.915L148.511 171.09C148.48 170.995 148.378 170.945 148.285 170.976L145.883 171.759C145.788 171.79 145.738 171.892 145.769 171.985L147.016 175.81C147.047 175.903 147.149 175.953 147.242 175.925Z" fill="white"/>
</mask>
<g mask="url(#mask10_652_16246)">
<path d="M148.563 172.773C147.485 171.597 146.614 171.474 146.164 171.897C145.714 172.321 146.137 173.233 147.209 173.971C147.765 174.356 148.668 174.937 149.355 175.023C149.889 175.092 149.47 173.761 148.563 172.773Z" fill="white"/>
</g>
</g>
</g>
<mask id="mask11_652_16246" style="mask-type:luminance" maskUnits="userSpaceOnUse" x="151" y="169" width="4" height="5">
<path d="M152.719 173.806L154.818 173.121C154.913 173.09 154.963 172.987 154.932 172.895L153.745 169.248C153.714 169.153 153.611 169.103 153.519 169.134L151.419 169.819C151.324 169.85 151.274 169.952 151.305 170.045L152.493 173.692C152.524 173.787 152.626 173.837 152.719 173.806Z" fill="white"/>
</mask>
<g mask="url(#mask11_652_16246)">
<g opacity="0.1216">
<mask id="mask12_652_16246" style="mask-type:luminance" maskUnits="userSpaceOnUse" x="151" y="169" width="4" height="5">
<path d="M152.719 173.806L154.818 173.121C154.913 173.09 154.963 172.987 154.932 172.895L153.745 169.248C153.714 169.153 153.611 169.103 153.519 169.134L151.419 169.819C151.324 169.85 151.274 169.952 151.305 170.045L152.493 173.692C152.524 173.787 152.626 173.837 152.719 173.806Z" fill="white"/>
</mask>
<g mask="url(#mask12_652_16246)">
<path d="M152.074 171.476C152.129 169.881 152.709 169.222 153.328 169.25C153.945 169.279 154.216 170.248 153.883 171.505C153.709 172.159 153.404 173.187 152.936 173.702C152.574 174.099 152.029 172.816 152.074 171.476Z" fill="white"/>
</g>
</g>
</g>
<mask id="mask13_652_16246" style="mask-type:luminance" maskUnits="userSpaceOnUse" x="145" y="171" width="5" height="5">
<path d="M145.845 172.168L147.314 175.713C147.352 175.805 147.457 175.848 147.55 175.81L149.589 174.965C149.682 174.927 149.725 174.822 149.687 174.73L148.218 171.185C148.18 171.092 148.076 171.05 147.983 171.088L145.943 171.933C145.85 171.971 145.807 172.078 145.845 172.168Z" fill="white"/>
</mask>
<g mask="url(#mask13_652_16246)">
<g opacity="0.1216">
<mask id="mask14_652_16246" style="mask-type:luminance" maskUnits="userSpaceOnUse" x="145" y="170" width="5" height="6">
<path d="M147.242 175.925L149.644 175.142C149.739 175.111 149.789 175.008 149.758 174.915L148.511 171.09C148.48 170.995 148.378 170.945 148.285 170.976L145.883 171.759C145.788 171.79 145.738 171.892 145.769 171.985L147.016 175.81C147.047 175.903 147.149 175.953 147.242 175.925Z" fill="white"/>
</mask>
<g mask="url(#mask14_652_16246)">
<path d="M148.563 172.773C147.485 171.597 146.614 171.474 146.164 171.897C145.714 172.321 146.137 173.233 147.209 173.971C147.765 174.356 148.668 174.937 149.355 175.023C149.889 175.092 149.47 173.761 148.563 172.773Z" fill="white"/>
</g>
</g>
</g>
<mask id="mask15_652_16246" style="mask-type:luminance" maskUnits="userSpaceOnUse" x="-98" y="5" width="558" height="482">
<path d="M-96.9735 150.914L350.41 5.09778C350.505 5.06684 350.605 5.1192 350.636 5.21204L459.964 340.689C459.995 340.784 459.942 340.884 459.849 340.915L12.466 486.734C12.3708 486.765 12.2708 486.713 12.2399 486.62L-97.0878 151.143C-97.1187 151.048 -97.0663 150.945 -96.9735 150.914Z" fill="white"/>
</mask>
<g mask="url(#mask15_652_16246)">
<g opacity="0.3216">
<mask id="mask16_652_16246" style="mask-type:luminance" maskUnits="userSpaceOnUse" x="150" y="168" width="5" height="7">
<path d="M151.884 174.218L154.63 173.323C154.726 173.292 154.776 173.189 154.745 173.097L153.171 168.267C153.14 168.172 153.038 168.122 152.945 168.153L150.199 169.048C150.103 169.079 150.053 169.181 150.084 169.274L151.658 174.104C151.686 174.196 151.789 174.249 151.884 174.218Z" fill="white"/>
</mask>
<g mask="url(#mask16_652_16246)">
<path d="M153.117 168.098C153.264 169.76 153.036 171.426 152.81 173.078C152.779 173.311 152.743 173.549 152.631 173.756C152.519 173.963 152.307 174.132 152.072 174.128C151.805 174.123 151.586 173.894 151.505 173.64C151.422 173.387 151.448 173.113 151.474 172.849C151.551 172.08 151.624 171.312 151.7 170.543C151.748 170.048 151.8 169.543 152.005 169.093C152.21 168.641 152.605 168.243 153.117 168.098Z" fill="#252525"/>
</g>
</g>
</g>
<mask id="mask17_652_16246" style="mask-type:luminance" maskUnits="userSpaceOnUse" x="-98" y="5" width="558" height="482">
<path d="M-96.9735 150.914L350.41 5.09778C350.505 5.06684 350.605 5.1192 350.636 5.21204L459.964 340.689C459.995 340.784 459.942 340.884 459.849 340.915L12.466 486.734C12.3708 486.765 12.2708 486.713 12.2399 486.62L-97.0878 151.143C-97.1187 151.048 -97.0663 150.945 -96.9735 150.914Z" fill="white"/>
</mask>
<g mask="url(#mask17_652_16246)">
<g opacity="0.3216">
<mask id="mask18_652_16246" style="mask-type:luminance" maskUnits="userSpaceOnUse" x="145" y="170" width="6" height="6">
<path d="M147.204 175.815L150.025 174.896C150.12 174.865 150.17 174.763 150.139 174.67L148.678 170.185C148.647 170.09 148.545 170.04 148.452 170.071L145.631 170.99C145.536 171.021 145.486 171.123 145.517 171.216L146.978 175.701C147.007 175.793 147.109 175.846 147.204 175.815Z" fill="white"/>
</mask>
<g mask="url(#mask18_652_16246)">
<path d="M145.531 171.223C146.738 172.363 147.945 173.504 149.149 174.646C149.273 174.763 149.399 174.882 149.559 174.939C149.718 174.996 149.918 174.975 150.025 174.844C150.177 174.656 150.066 174.377 149.939 174.17C149.171 172.92 148.009 171.954 146.76 171.185C146.529 171.045 146.283 170.904 146.012 170.9C145.743 170.892 145.408 171.107 145.531 171.223Z" fill="#252525"/>
</g>
</g>
</g>
<mask id="mask19_652_16246" style="mask-type:luminance" maskUnits="userSpaceOnUse" x="-109" y="20" width="556" height="478">
<path d="M-108.329 160.9L340.656 20.0937C340.752 20.0652 340.852 20.1175 340.883 20.2127L446.452 356.889C446.48 356.984 446.428 357.084 446.333 357.115L-2.6523 497.921C-2.74751 497.95 -2.84747 497.898 -2.87842 497.802L-108.448 161.126C-108.476 161.031 -108.424 160.931 -108.329 160.9Z" fill="white"/>
</mask>
<g mask="url(#mask19_652_16246)">
<g opacity="0.1412">
<mask id="mask20_652_16246" style="mask-type:luminance" maskUnits="userSpaceOnUse" x="143" y="97" width="108" height="108">
<path d="M169.04 204.243L250.798 178.605V178.602L225.38 97.5425L143.622 123.183L169.037 204.243H169.04Z" fill="white"/>
</mask>
<g mask="url(#mask20_652_16246)">
<path d="M240.787 175.072C232.152 169.183 222.489 164.028 212.314 156.577C204.788 151.069 197.861 145.697 193.903 142.067C187.12 135.842 180.503 131.522 171.663 130.089C170.104 129.837 168.692 129.649 167.49 129.56C165.71 129.43 164.615 129.463 163.749 129.518C163.889 129.234 164.07 128.961 164.084 128.599C164.177 126.128 161.683 124.657 160.767 124.609C159.845 124.559 159.65 124.657 159.136 124.805C158.336 125.033 157.632 125.512 157.103 126.166C157.708 125.109 157.27 123.624 156.963 123.072C156.363 121.986 155.24 120.284 153.438 120.268C151.824 120.253 150.649 121.736 150.663 122.834C150.684 124.683 152.784 126.899 151.889 127.932C151.889 127.932 151.858 127.961 151.858 127.963C152.45 131.543 151.065 135.447 148.166 137.663C153.555 135.792 159.66 136.959 164.651 139.72C169.645 142.481 174.15 145.383 177.758 149.803C181.084 153.876 183.183 160.443 183.704 164.332C184.473 170.076 183.971 177.2 175.731 186.1C182.024 182.175 188.086 180.097 198.571 182.737C202.871 183.82 206.701 188.24 209.66 191.501C209.912 190.587 210.202 189.681 210.55 188.783" fill="#523618"/>
</g>
</g>
</g>
<path d="M254.537 202.196L250.629 202.608L252.481 205.248L254.537 202.196Z" fill="black"/>
<path d="M163.216 296.357C163.699 296 164.384 296.195 164.92 296.464C166.043 297.031 167.029 297.873 167.762 298.897C166.334 299.418 164.906 299.942 163.478 300.463C163.523 299.095 163.39 297.716 163.216 296.357Z" fill="#BDBDBD"/>
<path d="M115.993 263.709C113.197 265.846 110.217 266.658 108.048 269.431C105.88 272.204 103.388 275.739 103.169 280.421C103.007 283.841 106.147 289.407 108.07 292.239C111.304 297 114.784 301.977 119.99 304.436C123.253 305.976 126.916 306.386 130.503 306.773C136.208 307.39 141.916 308.004 147.621 308.621C151.839 309.075 156.504 309.42 159.924 306.909C164.534 303.527 164.629 296.569 162.766 291.163C174.3 296.35 187.415 295.779 200.053 296.183C209.467 296.486 225.076 292.151 234.013 285.301C245.671 276.365 247.842 265.337 245.917 255.606C244.814 250.043 234.085 250.855 228.434 250.403C207.606 248.736 186.777 247.07 165.946 245.404C159.693 244.904 153.243 244.425 147.29 246.399C143.22 247.748 139.607 250.174 136.051 252.573C127.594 258.281 119.778 260.819 115.993 263.709Z" fill="#D08A5A"/>
<path opacity="0.1608" d="M120.758 269.165C114.237 270.702 114.032 269.06 109.005 276.76C105.342 282.371 111.519 296.334 116.386 301.201C113.073 299.29 108.57 293.637 105.521 287.943C105.349 287.624 104.952 286.779 104.45 285.675C103.997 284.682 103.536 283.132 103.438 282.711C103.312 282.152 103.138 281.34 103.164 280.685C103.262 278.217 103.709 276.748 104.747 274.48C106.175 271.352 108.739 267.532 111.307 268.993C116.86 272.154 116.738 267.741 123.112 268.198C121.201 268.91 119.292 269.619 120.758 269.165Z" fill="#141414"/>
<path opacity="0.1608" d="M144.353 265.334C139.336 265.758 139.716 267.141 132.904 273.04C126.918 278.224 134.368 307.821 137.66 307.545C139.709 317.714 129.382 293.677 128.277 288.719C127.63 285.81 126.514 279.495 126.761 276.758C126.956 274.615 131.205 268.448 131.567 269.757C132.455 272.978 135.611 264.956 137.65 263.556C142.168 260.46 141.823 263.233 146.26 264.77C144.729 265.158 143.199 265.542 144.353 265.334Z" fill="#141414"/>
<path opacity="0.1608" d="M161.221 288.854C163.368 291.002 159.8 302.751 157.139 305.412C155.478 307.074 161.019 303.851 160.119 306.021C161.526 305.738 161.783 305.015 162.618 303.708C163.349 302.565 163.906 300.099 163.906 297.762C163.903 295.248 163.216 290.564 161.221 288.854Z" fill="#141414"/>
<path opacity="0.1608" d="M175.759 294.841C178.815 295.334 182.098 295.558 185.356 295.765C188.983 295.996 198.454 296.16 202.593 296.16C207.22 296.16 215.941 294.068 220.911 292.178C230.848 288.4 236.817 283.98 241.221 278.048C245.362 272.468 247.366 265.616 246.198 257.215C242.306 285.725 208.413 296.926 175.759 294.841Z" fill="#141414"/>
<path opacity="0.1608" d="M111.538 296.745C111.062 297.309 111.085 298.092 111.495 298.709C111.904 299.325 113.078 300.875 113.773 301.425C118.571 305.214 128.451 309.318 136.953 309.223C142.501 309.161 147.559 307.185 153.107 307.128C154.816 307.111 156.584 307.28 158.189 306.693C159.793 306.102 161.173 304.71 160.728 303.06C157.598 304.038 155.078 304.691 152.138 305.207C145.083 306.452 138.957 306.402 132.469 305.429C130.757 305.171 128.872 304.864 127.18 304.479C124.614 303.891 122.398 303.262 120.142 302.322C118.854 301.787 117.7 301.246 116.545 300.582C116.212 300.389 115.872 300.18 115.541 299.978C115.051 299.678 114.187 299.075 113.435 298.476C113.054 298.171 112.692 297.85 112.463 297.645C112.085 297.307 111.83 297.045 111.83 297.045C111.754 296.971 111.654 296.862 111.538 296.745Z" fill="#141414"/>
<g opacity="0.1686">
<mask id="mask21_652_16246" style="mask-type:luminance" maskUnits="userSpaceOnUse" x="142" y="182" width="83" height="58">
<path d="M162.402 239.384L223.388 213.786C223.498 213.741 224.267 213.617 224.224 213.515L210.664 182.908C210.621 182.804 210.495 182.758 210.385 182.804L142.734 207.928C142.625 207.973 144.236 214.048 144.279 214.15L162.123 239.282C162.166 239.384 162.29 239.432 162.402 239.384Z" fill="white"/>
</mask>
<g mask="url(#mask21_652_16246)">
<path d="M144.827 207.15C149.677 212.084 149.106 212.584 156.216 218.301C166.907 226.902 180.846 222.788 186.365 221.032C199.991 216.7 203.805 205.576 208.512 192.173C208.598 191.93 211.642 189.273 211.602 189.526C209.376 202.889 203.462 217.421 192.275 225.683C189.114 228.016 185.618 230.067 181.769 230.882C173.534 232.624 164.442 233.626 158.622 228.139C154.326 224.088 148.066 215.102 146.114 210.13" fill="black"/>
</g>
</g>
<path d="M102.313 295.167C102.474 298.976 96.0266 302.468 94.5295 305.972C93.0324 309.475 94.1915 315.381 97.1976 317.723C95.929 315.807 92.2779 315.536 91.3996 317.659C90.5213 319.782 91.6781 323.353 93.487 324.769C95.2959 326.185 97.8712 326.749 100.109 327.278C145.781 338.042 170.271 334.355 170.271 334.355C170.271 334.355 168.797 333.657 169.347 332.198C169.897 330.736 171.666 330.001 172.82 328.951C175.531 326.488 174.75 322.931 173.686 321.291C172.622 319.651 171.175 319.48 169.604 319.173C171.278 319.865 175.84 313.239 173.643 310.175C171.854 307.681 167.922 305.436 167.434 299.583C158.803 302.703 148.766 304.9 138.082 303.929C127.397 302.958 115.192 300.442 108.777 292.294C106.459 289.347 105.678 287.591 104.029 285.089C103.919 285.917 101.927 286.117 102.313 295.167Z" fill="#FFF5F8"/>
<path opacity="0.1608" d="M173.617 310.104C173.931 313.457 172.998 315.543 170.687 317.851C168.362 320.177 163.689 320.772 160.407 320.994C163.544 320.994 168.407 320.16 170.501 319.035C171.953 318.254 173.032 316.29 173.686 314.776C174.341 313.262 174.503 311.372 173.617 310.104Z" fill="#141414"/>
<path opacity="0.1608" d="M101.008 298.49C102.05 301.413 102.879 303.091 105.466 304.684C106.773 305.488 107.539 305.531 109.027 306.245C111.53 307.445 114.563 308.713 117.783 309.411C115.886 308.944 111.88 306.624 110.112 305.395C108.481 304.262 105.742 303.581 104.311 301.863C102.805 300.056 102.265 299.228 101.858 297.128C101.712 297.557 101.774 297.324 101.527 297.733C101.27 298.154 101.267 298.059 101.008 298.49Z" fill="#141414"/>
<path opacity="0.1608" d="M173.598 321.158C174.581 323.762 174.062 327.038 171.716 328.53C166.215 332.029 151.47 330.994 148.404 330.994C150.485 331.234 164.62 333.048 169.435 331.146C171.085 330.494 173.386 328.868 174.246 326.959C175.105 325.05 174.703 323.043 173.598 321.158Z" fill="#141414"/>
<path opacity="0.1608" d="M94.9078 305.203C94.1462 308.364 94.7389 311.796 96.3598 314.614C97.9806 317.433 99.7919 318.268 104.478 320.111C96.6763 317.878 91.7613 315.817 92.5396 320.694C92.9276 323.124 95.3149 324.833 97.6117 325.723C102.339 327.556 107.42 328.787 112.359 329.934C108.622 329.215 105.864 328.618 102.146 327.754C99.0541 327.035 95.2839 326.402 93.2941 324.612C92.8728 324.233 92.5682 323.769 92.2111 323.257C91.2757 321.92 90.7307 318.97 91.4638 317.521C92.1992 316.064 94.4104 315.748 96.2241 316.8C95.7552 316.162 95.1816 315.374 94.8436 314.434C93.7773 311.472 93.2846 308.073 94.9078 305.203Z" fill="#141414"/>
<path opacity="0.1608" d="M102.319 290.901C108.605 301.665 122.672 306.174 127.913 307.219C142.089 310.049 151.719 309.118 165.405 303.051C154.837 307.064 143.184 308.173 132.05 306.228C120.918 304.286 110.762 298.661 102.319 290.901Z" fill="#141414"/>
<path d="M103.926 284.325C102.07 284.898 100.975 286.981 101.429 288.869C101.884 290.756 103.269 292.268 104.671 293.613C118.85 307.238 136.596 309.944 155.863 306.019C156.52 305.886 164.063 303.917 167.322 301.97C169.549 300.639 167.281 296.919 165.417 297.912C160.562 300.499 150.472 303.401 141.663 302.984C134.225 302.632 124.498 300.678 117.795 297.436C111.093 294.194 107.349 290.304 103.926 284.325Z" fill="white"/>
<path d="M231.907 170.831C234.175 166.301 244.543 163.218 252.586 165.996C259.833 168.498 267.597 182.147 266.681 206.395C265.981 224.909 262.323 249.662 261.461 253.89C258.186 269.938 252.586 284.563 252.586 284.563L259.3 287.157C259.3 287.157 251.131 283.175 248.57 281.845C246.764 280.907 241.822 278.081 241.822 278.081C241.822 278.081 241.73 278.272 241.08 279.048C246.985 283.201 259.267 287.381 259.267 287.381C259.267 287.381 259.379 287.286 259.657 286.548C260.119 285.317 261.037 282.556 262.67 277.341C264.667 270.959 268.152 258.534 269.661 248.615C271.698 235.226 272.429 226.302 272.684 221.558C273.036 214.983 273.545 210.139 273.36 202.958C273.214 197.267 272.643 192.992 271.565 187.974C270.237 181.79 269.075 177.657 266.031 172.114C264.753 169.786 262.88 167.653 260.911 166.075C258.943 164.497 256.879 163.478 254.701 162.657C252.557 161.847 250.646 161.75 248.82 161.812C246.53 161.89 243.691 162.457 240.844 163.63C237.99 164.806 235.144 166.52 232.871 169.076C232.361 169.648 232.169 170.214 231.907 170.831Z" fill="#D5D5D5"/>
<path d="M128.991 228.518C131.364 239.982 142.501 259.343 142.501 259.343L176.899 265.304C176.899 265.304 183.861 257.894 211.74 261.786C212.68 261.917 234.063 264.616 240.908 264.854C244.455 264.978 246.428 264.366 246.428 264.366C246.428 264.366 246.502 263.38 246.528 262.733C246.554 262.057 246.528 258.596 246.528 258.596C246.528 258.596 224.695 235.45 227.392 233.398C227.508 233.31 228.622 235.969 222.372 217.123C230.652 210.14 243.139 203.817 254.547 202.225C254.547 202.225 249.87 187.446 246.459 179.967C241.746 169.629 231.355 167.079 225.164 168.834C218.445 170.736 213.368 178.833 211.328 183.646C205.473 197.474 206.33 199.645 203.109 206.417C199.953 213.048 192.72 225.04 174.521 225.669C169.13 225.855 161.221 224.855 152.619 216.252C146.028 209.661 143.977 204.889 143.317 203.36C143.215 203.122 143.048 202.849 143.048 202.849C143.048 202.849 139.112 203.17 136.298 207.431C134.911 209.53 132.764 219.778 132.764 219.778" fill="#232D40"/>
<g opacity="0.1412">
<mask id="mask22_652_16246" style="mask-type:luminance" maskUnits="userSpaceOnUse" x="200" y="192" width="72" height="146">
<path d="M243.689 337.751L271.784 328.968C271.867 328.942 271.915 328.856 271.889 328.778L229.353 192.701C229.329 192.623 229.241 192.577 229.158 192.604L201.063 201.387C200.979 201.413 200.932 201.499 200.958 201.577L243.494 337.654C243.52 337.735 243.605 337.778 243.689 337.751Z" fill="white"/>
</mask>
<g mask="url(#mask22_652_16246)">
<path d="M215.329 199.619C215.329 199.619 219.92 220.38 223.936 247.256C224.976 254.228 228.596 246.792 228.596 255.578C228.596 258.291 234.299 261.41 230.772 245.669C229.055 238.011 227.018 229.28 225.414 219.461V219.58C225.166 216.514 225.899 222.998 222.574 217.202C222.574 217.202 220.808 214.748 218.223 207.783L215.329 199.619Z" fill="black"/>
</g>
</g>
<g opacity="0.2784">
<mask id="mask23_652_16246" style="mask-type:luminance" maskUnits="userSpaceOnUse" x="144" y="220" width="5" height="14">
<path d="M146.367 233.181L148.449 232.819C148.535 232.805 148.592 232.724 148.578 232.638L146.493 220.634C146.479 220.548 146.398 220.491 146.312 220.506L144.229 220.867C144.144 220.882 144.087 220.963 144.101 221.048L146.186 233.052C146.2 233.138 146.281 233.195 146.367 233.181Z" fill="white"/>
</mask>
<g mask="url(#mask23_652_16246)">
<path d="M146.464 220.477C145.959 224.293 145.895 224.988 146.081 228.38C146.104 228.815 146.323 232.148 146.366 233.179C146.385 233.633 147.121 235.573 147.095 236.161C147.08 236.482 148.013 236.739 147.997 237.206C147.766 234.523 146.895 229.71 146.742 226.84C146.607 224.274 146.395 222.369 146.464 220.477Z" fill="black"/>
</g>
</g>
<path d="M151.798 252.588C160.838 252.588 164.156 252.893 172.994 252.602C170.399 255.778 165.37 259.543 164.258 263.49C159.527 264.066 154.902 265.501 150.677 267.705C151.198 262.719 152.01 257.763 151.798 252.588Z" fill="#8F8F8F"/>
<path d="M93.4487 268.25C85.092 250.529 78.3776 230.551 72.9437 211.839C72.7366 211.127 73.2245 210.339 74.0052 210.292C95.1981 208.959 120.161 208.868 137.236 210.22C140.133 210.449 156.33 258.129 159.096 273.042C135.808 273.042 115.877 271.385 95.5266 269.647C94.6174 269.569 93.8176 269.036 93.4487 268.25Z" fill="#B3BCC9"/>
<path opacity="0.1686" d="M95.5261 269.648C115.303 271.335 134.687 272.947 157.139 273.037C141.518 268.072 127.656 259.617 107.998 247.168C89.2187 235.273 76.661 216.419 72.9456 211.153C72.8814 211.372 72.8742 211.61 72.9409 211.839C78.3747 230.548 85.0892 250.526 93.4459 268.25C93.8172 269.036 94.6169 269.569 95.5261 269.648Z" fill="#141414"/>
<path d="M172.517 248.341C165.065 254.052 161.738 256.418 156.427 264.456C153.938 268.227 150.677 275.027 150.677 275.027C150.677 275.027 150.032 277.815 150.011 279.017C149.987 280.331 150.532 285.053 150.532 285.053C150.529 285.222 150.708 285.332 150.855 285.253C151.6 284.858 154.085 283.877 156.699 282.466C162.918 279.105 172.358 273.575 178.768 269.648C179.344 269.295 179.939 268.924 180.305 268.355C181.003 267.27 180.638 265.78 179.862 264.747C179.089 263.716 177.977 262.997 177.001 262.152C173.524 259.141 171.806 253.242 172.517 248.341Z" fill="#F2DFA7"/>
<path opacity="0.1608" d="M172.874 248.341C172.277 248.534 170.77 249.598 168.278 251.605C166.357 253.154 163.625 255.359 161.664 257.57C159.476 260.036 157.07 263.235 155.758 265.484C160.964 260.05 170.061 253.752 172.638 253.742C172.974 255.135 173.217 254.709 173.552 256.101C170.384 258.17 166.626 259.312 159.091 265.772C157.344 267.27 154.644 270.388 152.976 272.297C151.307 274.206 150.672 275.027 150.672 275.027C150.672 275.027 150.27 276.463 150.201 277.262C153.716 274.249 159.712 268.405 163.851 265.558C170.751 260.814 175.502 259.66 176.942 259.967C175.457 260.824 171.139 263.633 166.79 266.637C165.224 267.72 162.854 269.053 160.978 271.097C156.998 275.441 152.467 279.464 150.551 285.208C150.524 285.284 150.617 285.341 150.67 285.279C154.647 280.669 159.552 275.932 164.727 271.947C170.963 267.148 177.592 263.337 183.468 260.748C177.463 267.789 167.885 274.001 161.092 280.031C164.984 277.857 175.447 271.761 179.008 269.493C179.284 269.317 182.466 265.999 182.709 265.813C182.906 265.661 183.499 261.797 183.697 261.638C183.878 261.49 179.569 266.001 179.788 265.796C179.886 265.703 179.955 265.825 179.955 265.825C179.955 265.825 180.433 262.112 180.669 261.897C175.778 258.277 174.633 254.164 172.874 248.341Z" fill="black"/>
<path d="M171.182 249.353C171.182 249.353 177.08 242.571 191.768 242.571C192.051 242.571 193.125 242.726 194.524 242.452C197.14 241.94 207.234 236.989 225.773 232.267C225.523 226.84 223.6 221.501 222.015 216.3C230.229 209.232 241.406 204.091 252.143 202.625C256.33 216.347 258.684 233.907 255.225 248.943C254.535 251.943 252.445 257.924 251.553 258.441C249.596 259.576 245.54 260.302 242.741 260.5C233.78 261.135 231.709 260.916 222.731 261.273C217.376 261.485 202.305 266.791 194.719 264.723C187.469 269.279 183.256 269.997 178.703 269.997C178.541 269.997 178.12 270.088 178.082 270.078C176.742 269.778 172.736 266.605 169.382 261.071C167.178 257.439 171.182 249.353 171.182 249.353Z" fill="#D08A5A"/>
<path opacity="0.1608" d="M169.816 261.769C170.889 263.816 175.707 267.36 179.16 267.705C183.426 268.131 188.531 268.217 193.16 265.668C192.346 266.146 188.702 268.483 184.423 269.405C183.468 269.609 181.431 269.909 179.92 269.976C179.613 269.99 179.303 269.981 179.001 269.995C178.815 270.002 178.727 269.981 178.639 270C178.565 270.016 178.446 270.026 178.38 270.035C178.175 270.066 178.063 270.076 178.063 270.076C178.063 270.076 177.699 270.007 177.071 269.616C175.947 268.914 174.564 267.722 173.679 266.736C171.979 264.834 171.061 263.761 169.816 261.769Z" fill="#141414"/>
<path opacity="0.1608" d="M228.384 231.988C227.063 231.788 223.562 232.8 219.911 233.84C215.755 235.026 213.12 235.778 208.648 237.354C207.46 237.773 204.585 238.782 202.324 239.624C199.775 240.577 198.192 241.2 196.495 241.833C194.131 242.714 194.257 242.312 190.009 244.961C191.194 244.361 206.422 238.875 207.755 238.391C220.565 233.764 214.289 235.352 228.384 231.988Z" fill="#141414"/>
<path d="M123.343 144.835C120.637 147.68 117.148 152.402 116.215 157.741C115.741 160.445 115.046 162.664 115.046 167.312C115.046 169.648 112.937 170.521 112.551 171.547C112.078 172.811 112.54 178.974 114.394 182.466C115.61 184.756 118.473 184.951 119.114 186.419C120.12 188.728 122.831 192.68 124.614 194.46C127.577 197.424 128.682 197.055 132.14 197.293C140.514 197.869 144.155 190.437 138.467 189.733C134.987 189.3 135.275 194.029 129.562 194.315C127.958 194.393 123.398 190.571 120.949 185.253C117.174 177.06 115.327 172.449 117.026 164.116C118.383 157.456 128.939 145.74 137.086 141.353C149.818 134.497 158.541 132.453 171.86 135.004C175.031 135.611 184.349 138.889 181.904 142.193C179.022 146.087 179.872 149.708 180.71 151.54C182.307 155.039 184.887 160.05 190.061 160.05C193.812 160.05 199.196 158.136 199.986 151.429C200.703 145.347 196.278 140.615 192.203 138.596C190.978 137.989 189.138 137.937 187.257 136.635C182.178 133.119 178.396 131.767 172.146 129.665C162.323 126.364 152.405 127.132 142.906 131.298C133.406 135.464 127.299 140.674 123.343 144.835Z" fill="#252525"/>
<path opacity="0.6" d="M192.198 138.591C190.973 137.984 189.133 137.932 187.253 136.63C182.173 133.114 178.391 131.762 172.141 129.66C162.318 126.359 152.4 127.128 142.901 131.293C133.402 135.459 127.301 140.674 123.345 144.835C120.901 147.406 117.812 151.514 116.552 156.222C116.498 156.441 116.441 156.66 116.391 156.879C116.391 156.884 116.388 156.889 116.388 156.894C122.146 144.804 133.225 138.491 138.005 135.94C145.195 132.102 157.47 127.942 171.641 131.974C179.36 134.171 187.621 138.287 191.082 144.047C194.236 149.296 193.817 155.573 188.693 159.919C188.693 159.919 188.693 159.919 188.695 159.919C189.859 159.85 191.039 159.862 192.198 159.84C195.593 159.2 199.337 156.927 199.984 151.421C200.696 145.342 196.271 140.61 192.198 138.591Z" fill="#141414"/>
<path opacity="0.1608" d="M213.094 180.1C217.34 177.781 228.046 178.893 232.926 184.208C239.366 191.223 241.794 196.788 244.055 206.976C247.928 224.433 250.475 228.461 248.268 247.72C247.518 254.259 243.377 256.427 224.662 258.296C217.636 258.998 207.26 263.761 203.897 264.401C202.993 264.573 202.098 264.689 201.234 264.758C198.639 264.968 196.295 264.761 194.624 264.387C193.089 264.044 192.17 263.537 191.728 263.33C192.144 263.659 193.472 264.551 195.538 264.908C197.159 265.189 199.392 265.289 201.793 265.061C207.163 264.554 213.156 263.073 213.475 263.009C216.772 262.338 217.631 261.938 219.742 261.664C222.277 261.336 227.287 261.164 228.97 261.074C232.442 260.89 233.418 260.936 234.527 260.936C236.153 260.936 237.822 260.793 238.952 260.738C241.682 260.605 242.991 260.45 245.443 260.188C247.214 260 249.775 259.208 250.375 258.984C250.408 258.972 250.829 258.803 251.136 258.655C251.434 258.512 251.615 258.391 251.641 258.37C252.014 258.082 252.379 257.258 252.859 256.151C253.443 254.802 254.035 253.088 254.385 251.94C256.542 244.88 257.532 235.728 256.689 226.047C256.113 219.442 255.604 214.253 252.269 202.596C253.143 202.408 253.081 202.415 254.549 202.218C254.235 201.118 253.628 199.537 252.795 196.862C251.912 194.029 250.601 190.597 249.732 188.114C248.025 183.235 245.817 177.848 243.47 175.168C240.778 172.095 237.936 170.04 233.752 168.945C231.198 168.277 226.164 167.277 221.775 170.359C217.762 173.18 215.455 175.863 213.094 180.1Z" fill="#141414"/>
<path opacity="0.6" d="M114.287 169.502C114.175 173.044 114.658 180.633 117.814 185.215C116.215 184.33 114.782 183.972 113.747 181.002C113.494 180.281 113.202 179.559 113.018 178.498C112.826 177.386 112.128 174.399 112.492 171.761C112.585 171.085 113.69 170.319 114.287 169.502Z" fill="#141414"/>
<path opacity="0.6" d="M124.612 194.463C126.89 196.043 131.855 196.569 135.087 195.612C138.798 194.513 139.064 193.132 140.711 190.745C141.708 192.082 141.052 193.658 139.671 195.039C138.798 195.912 137.331 196.603 135.882 196.991C135.108 197.195 134.611 197.264 133.668 197.312C133.145 197.338 132.869 197.352 132.276 197.305C130.85 197.186 128.232 197.252 127.025 196.415C126.23 195.86 125.512 195.477 124.612 194.463Z" fill="#141414"/>
<path d="M122.889 320.972C122.456 320.279 122.263 319.958 121.999 319.175C121.732 318.394 121.803 317.43 122.384 316.828C122.958 316.235 123.967 316.159 124.593 316.659C125.219 317.159 125.374 318.168 124.933 318.866C124.536 317.98 125.512 316.857 126.469 316.983C127.425 317.109 128.047 318.201 127.875 319.173C127.704 320.144 126.79 320.725 125.993 321.291C124.093 322.646 123.662 322.205 122.889 320.972Z" fill="#FF0069"/>
<path d="M128.58 306.764C128.216 306.443 127.844 305.993 127.616 305.565C127.387 305.136 127.323 304.586 127.585 304.177C127.847 303.767 128.487 303.613 128.837 303.948C128.701 305.674 130.31 305.593 130.125 307.314C129.986 308.585 129.182 309.794 128.278 310.699C125.859 313.117 124.048 316.588 123.784 323.153C123.772 323.467 123.117 323.215 122.979 323.2C122.282 323.129 123.622 315.99 124.236 314.662C125.095 312.805 125.255 312.434 126.576 310.873C127.214 310.118 128.028 309.454 128.48 308.578C128.932 307.7 128.973 307.112 128.58 306.764Z" fill="#D9D9D9"/>
<path d="M145.462 307.855C146.657 307.409 147.395 305.988 147.069 304.755C147.192 304.498 147.573 304.441 147.811 304.601C148.049 304.76 148.154 305.067 148.14 305.355C148.128 305.641 148.018 305.915 147.911 306.179C147.73 306.626 147.54 307.086 147.195 307.421C146.852 307.755 146.304 307.933 145.462 307.855Z" fill="#E1E1E1"/>
<path d="M146.002 308.442C146.48 308.863 146.647 309.599 146.402 310.185C146.692 310.42 147.171 310.296 147.378 309.982C147.582 309.668 147.542 309.24 147.359 308.916C147.173 308.592 146.864 308.354 146.542 308.166C146.428 308.168 146.316 308.171 146.002 308.442Z" fill="#D9D9D9" stroke="#D9D9D9" stroke-miterlimit="10"/>
<path d="M153.797 306.752C154.123 306.19 154.447 305.629 154.773 305.067C154.842 304.95 154.923 304.822 155.056 304.793C155.214 304.76 155.366 304.9 155.406 305.055C155.444 305.212 155.402 305.374 155.347 305.526C155.197 305.964 154.98 306.376 153.797 306.752Z" fill="#D9D9D9"/>
<path d="M132.781 307.759C132.64 307.338 132.329 307.038 132.138 306.645C131.948 306.252 131.945 305.636 132.288 305.453C132.59 305.293 132.933 305.603 133.074 305.967C133.212 306.329 133.228 306.745 133.354 307.117C133.481 307.488 133.795 307.823 132.781 307.759Z" fill="#D9D9D9"/>
<path d="M103.926 284.325C103.324 285.748 103.474 286.596 104.314 287.893C105.342 289.481 109.443 293.018 111.833 293.808C108.096 290.43 105.74 287.402 103.926 284.325Z" fill="#BDBDBD"/>
<path d="M106.79 325.707C106.257 325.481 105.683 325.324 105.243 324.95C104.802 324.576 104.503 323.979 104.645 323.42C104.786 322.87 105.378 322.475 105.94 322.558C106.502 322.641 106.956 323.189 106.933 323.755C106.373 323.365 106.573 322.358 107.206 322.103C107.839 321.848 108.608 322.284 108.849 322.922C109.089 323.56 108.796 324.25 108.446 324.833C107.83 325.862 107.901 326.178 106.79 325.707Z" fill="#FF0069"/>
<path d="M139.807 318.982C139.167 318.123 138.705 317.842 138.248 316.861C137.791 315.881 137.744 314.612 138.42 313.743C139.081 312.889 140.388 312.646 141.276 313.21C142.164 313.774 142.511 315.069 142.033 316.043C141.388 314.943 142.502 313.339 143.768 313.369C145.034 313.4 146 314.736 145.915 316.028C145.829 317.321 144.722 318.211 143.758 319.061C142.033 320.579 140.895 320.441 139.807 318.982Z" fill="#FF0069"/>
<path d="M103.629 314.095C102.912 313.538 102.072 313.117 101.532 312.379C100.989 311.641 100.742 310.599 101.156 309.768C101.563 308.949 102.605 308.53 103.433 308.852C104.262 309.171 104.764 310.187 104.531 311.072C103.814 310.268 104.471 308.754 105.526 308.568C106.58 308.383 107.604 309.33 107.746 310.415C107.889 311.501 107.232 312.52 106.463 313.286C105.366 314.383 105.15 315.278 103.629 314.095Z" fill="#FF0069"/>
<path d="M164.272 312.905C163.772 312.149 163.075 311.401 162.737 310.551C162.399 309.702 162.423 308.63 163.032 307.931C163.632 307.243 164.746 307.1 165.467 307.619C166.188 308.138 166.417 309.247 165.969 310.044C165.479 309.085 166.498 307.785 167.564 307.873C168.63 307.962 169.382 309.135 169.244 310.22C169.109 311.306 167.907 312.451 166.921 312.905C165.936 313.36 165.086 314.138 164.272 312.905Z" fill="#FF0069"/>
<path d="M160.093 327.454C159.791 326.923 159.412 326.628 159.212 326.045C159.015 325.462 159.065 324.74 159.5 324.291C159.929 323.848 160.681 323.791 161.15 324.164C161.616 324.538 161.733 325.293 161.404 325.814C161.107 325.152 161.838 324.312 162.552 324.407C163.266 324.502 163.732 325.319 163.604 326.045C163.475 326.771 162.816 327.24 162.197 327.628C161.007 328.375 160.707 328.53 160.093 327.454Z" fill="#FF0069"/>
<path d="M138.226 333.86C138.226 333.86 137.55 333.16 137.353 332.577C137.155 331.993 137.205 331.272 137.641 330.822C138.069 330.38 138.821 330.322 139.29 330.696C139.757 331.07 139.873 331.824 139.545 332.346C139.247 331.684 139.978 330.844 140.692 330.939C141.406 331.034 141.873 331.851 141.744 332.577C141.616 333.303 140.164 334.05 140.164 334.05L138.226 333.86Z" fill="#FF0069"/>
</g>
<mask id="mask24_652_16246" style="mask-type:luminance" maskUnits="userSpaceOnUse" x="103" y="229" width="24" height="27">
<path fill-rule="evenodd" clip-rule="evenodd" d="M126.106 245.302C126.404 245.281 126.626 245.836 126.591 246.513C126.559 247.14 126.319 247.646 126.044 247.671L125.897 247.684L125.643 247.707C122.75 247.976 113.297 249.27 104.425 255.081C104.418 255.179 103.114 255.62 103.145 255.012C103.145 255.012 113.487 246.212 126.106 245.302ZM116.26 229.617C116.767 229.481 117.306 229.538 117.773 229.779C118.428 230.186 118.938 230.791 119.229 231.505C119.555 232.41 119.038 233.481 118.722 234.077C118.211 234.955 117.622 236.328 117.336 236.966C117.153 237.389 116.904 237.636 116.404 237.27C116.208 237.148 116.043 236.983 115.923 236.786C115.803 236.589 115.731 236.367 115.713 236.137C115.667 235.621 115.9 234.662 116.603 233.454C117.128 232.453 117.685 231.278 117.328 231.121C116.38 230.689 111.414 235.311 111.533 238.029C111.598 239.59 115.017 240.183 116.014 240.628C116.232 240.709 116.425 240.847 116.572 241.029C116.718 241.21 116.812 241.428 116.844 241.659C116.892 242.197 116.633 242.876 116.071 243.741C115.297 244.748 114.177 245.433 112.927 245.664C111.818 245.855 110.68 245.797 109.596 245.496C108.511 245.194 107.508 244.656 106.657 243.921C106.285 243.597 106.43 243.302 106.757 243.11C106.994 243.005 107.243 242.925 107.497 242.872C108.14 242.699 108.823 242.757 109.427 243.036C110.435 243.574 112.128 244.388 113.524 244.074C114 243.998 114.438 243.766 114.768 243.414C114.837 243.348 114.89 243.267 114.922 243.177C114.955 243.088 114.966 242.992 114.955 242.897C114.944 242.802 114.911 242.711 114.859 242.631C114.807 242.551 114.737 242.484 114.655 242.436C112.805 241.515 109.344 241.002 109.13 238.616C108.845 235.434 112.353 231.808 114.441 230.431C114.987 230.041 115.605 229.764 116.26 229.617Z" fill="white"/>
</mask>
<g mask="url(#mask24_652_16246)">
<mask id="mask25_652_16246" style="mask-type:luminance" maskUnits="userSpaceOnUse" x="100" y="228" width="28" height="29">
<path d="M125.491 228.262L100.443 230.502L102.725 256.008L127.772 253.767L125.491 228.262Z" fill="white"/>
</mask>
<g mask="url(#mask25_652_16246)">
<mask id="mask26_652_16246" style="mask-type:luminance" maskUnits="userSpaceOnUse" x="100" y="228" width="28" height="28">
<path d="M103.181 255.463L127.227 253.311L125.035 228.806L100.989 230.958L103.181 255.463Z" fill="white"/>
</mask>
<g mask="url(#mask26_652_16246)">
<path d="M100.443 230.502L125.491 228.262L127.772 253.767L102.725 256.008L100.443 230.502Z" fill="#0057FF"/>
</g>
</g>
</g>
<defs>
<filter id="filter0_b_652_16246" x="-16" y="-20" width="339.132" height="167.47" filterUnits="userSpaceOnUse" color-interpolation-filters="sRGB">
<feFlood flood-opacity="0" result="BackgroundImageFix"/>
<feGaussianBlur in="BackgroundImageFix" stdDeviation="10"/>
<feComposite in2="SourceAlpha" operator="in" result="effect1_backgroundBlur_652_16246"/>
<feBlend mode="normal" in="SourceGraphic" in2="effect1_backgroundBlur_652_16246" result="shape"/>
</filter>
<filter id="filter1_b_652_16246" x="-100" y="-40.7598" width="513.416" height="487.537" filterUnits="userSpaceOnUse" color-interpolation-filters="sRGB">
<feFlood flood-opacity="0" result="BackgroundImageFix"/>
<feGaussianBlur in="BackgroundImageFix" stdDeviation="50"/>
<feComposite in2="SourceAlpha" operator="in" result="effect1_backgroundBlur_652_16246"/>
<feBlend mode="normal" in="SourceGraphic" in2="effect1_backgroundBlur_652_16246" result="shape"/>
</filter>
<filter id="filter2_b_652_16246" x="-33.3018" y="22.2329" width="380.355" height="362.367" filterUnits="userSpaceOnUse" color-interpolation-filters="sRGB">
<feFlood flood-opacity="0" result="BackgroundImageFix"/>
<feGaussianBlur in="BackgroundImageFix" stdDeviation="25"/>
<feComposite in2="SourceAlpha" operator="in" result="effect1_backgroundBlur_652_16246"/>
<feBlend mode="normal" in="SourceGraphic" in2="effect1_backgroundBlur_652_16246" result="shape"/>
</filter>
<linearGradient id="paint0_linear_652_16246" x1="399.079" y1="378.551" x2="-91.1694" y2="-133.496" gradientUnits="userSpaceOnUse">
<stop offset="0.0541064" stop-color="white"/>
<stop offset="0.63085" stop-color="#F9F9FF" stop-opacity="0.65"/>
<stop offset="0.792052" stop-color="#E4EEFF" stop-opacity="0.33"/>
</linearGradient>
<linearGradient id="paint1_linear_652_16246" x1="373.681" y1="363.592" x2="-73.9517" y2="-94.7473" gradientUnits="userSpaceOnUse">
<stop offset="0.0541064" stop-color="#FFF5FD"/>
<stop offset="0.334245" stop-color="#F0F1FE" stop-opacity="0.65"/>
<stop offset="0.733105" stop-color="#D6E4FF" stop-opacity="0.33"/>
</linearGradient>
<linearGradient id="paint2_linear_652_16246" x1="309.504" y1="230.788" x2="42.6403" y2="131.692" gradientUnits="userSpaceOnUse">
<stop stop-color="white"/>
<stop offset="1" stop-color="white" stop-opacity="0.353"/>
</linearGradient>
<clipPath id="clip0_652_16246">
<rect width="299.132" height="127.47" fill="white" transform="translate(4)"/>
</clipPath>
</defs>
</svg>
