<svg width="503" height="622" viewBox="0 0 503 622" fill="none" xmlns="http://www.w3.org/2000/svg">
  <path d="M248.779 171.287C245.429 158.856 227.854 163.795 214.136 162.434C200.418 161.074 174.247 178.639 162.967 186.11C151.687 193.581 141.001 204.912 127.602 224.841C117.782 239.449 90.8989 270.62 128.272 251.667C172.52 229.23 213.012 203.291 248.779 171.287Z" fill="#D08A5A"/>
  <path d="M329.718 412.255C312.463 387.992 301.616 358.26 308.715 325.014C303.855 335.048 325.205 337.985 274.172 381.997C263.062 391.579 202.186 368.491 170.771 326.969C149.628 299.028 83.3021 288.976 135.194 229.019C141.462 221.774 149.236 213.735 158.699 212.246C168.163 210.757 166.234 207.287 174.812 211.558C202.692 170.719 221.817 180.947 236.638 177.475C246.224 175.231 256.552 174.943 265.68 178.637C287.392 187.424 295.317 214.71 314.536 228.101C322.56 233.69 372.624 220.533 368.652 241.469C367.318 248.494 377.502 262.607 374.375 268.666C367.794 281.39 355.175 281.652 363.061 286.558C360.769 309.956 355.353 332.942 346.958 354.9" fill="#D08A5A"/>
  <path d="M302.052 90.8693C282.297 108.327 266.057 149.26 250.097 157.753C199.902 184.469 188.928 184.872 190.745 200.645C196.198 247.877 228.915 279.179 264.977 301.255C310.279 328.996 346.697 338.089 370.582 325.174C388.425 315.527 357.878 286.278 374.841 247.211C381.836 231.094 410.693 196.438 417.947 183.031C434.851 151.792 423.896 119.811 408.985 106.268C409.653 109.717 412.217 112.271 416.068 111.669C421.479 110.825 421.269 106.921 419.16 104.127C418.167 102.769 416.777 101.753 415.183 101.217C413.589 100.681 411.867 100.652 410.256 101.135C410.256 101.135 412.762 100.79 412.939 100.771C415.232 100.494 416.877 98.3243 417.422 97.2663C418.505 95.1611 419.856 91.2452 417.837 88.4561C417.032 87.3952 415.863 86.6696 414.556 86.4194C413.248 86.1691 411.894 86.412 410.755 87.101C407.657 89.448 406.554 96.7299 403.189 94.2751C372.913 71.7857 339.959 57.3712 302.052 90.8693Z" fill="#D08A5A"/>
  <path opacity="0.051" d="M398.798 192.182C417.017 167.231 384.638 139.932 367.328 127.281C350.018 114.631 312.028 90.5088 293.809 115.459C275.589 140.41 284.319 177.813 313.312 198.999C342.305 220.185 380.571 217.132 398.798 192.182Z" fill="black"/>
  <mask id="mask0_9902_54600" style="mask-type:luminance" maskUnits="userSpaceOnUse" x="317" y="113" width="111" height="115">
    <path d="M374.848 113.712L317.29 196.517L386.452 227.691L427.163 137.292L374.848 113.712Z" fill="white"/>
  </mask>
  <g mask="url(#mask0_9902_54600)">
    <path d="M383.989 119.487C410.354 128.999 414.478 145.083 413.302 158.319C412.386 168.605 407.956 183.959 401.415 190.792C398.842 193.483 395.868 197.254 392.809 199.382C383.347 205.811 372.14 209.179 360.701 209.03C348.249 208.665 334.86 206.904 315.808 193.15L370.751 111.858C375.2 117.017 381.822 118.705 383.989 119.487Z" fill="#F2D2B6"/>
  </g>
  <mask id="mask1_9902_54600" style="mask-type:luminance" maskUnits="userSpaceOnUse" x="265" y="72" width="111" height="125">
    <path d="M375.881 113.612L318.321 196.42L265.025 142.415L335.562 72.7645L375.881 113.612Z" fill="white"/>
  </mask>
  <g mask="url(#mask1_9902_54600)">
    <path d="M289.368 126.632C290.29 123.009 292.781 118.903 294.401 115.547C298.517 107.021 311.37 97.5283 320.703 93.1029C332.715 87.4066 349.27 85.7224 367.49 107.261C368.988 109.031 372.561 115.211 378.972 117.621L322.944 198.204C303.317 185.028 296.351 171.823 291.619 160.214C287.449 149.514 286.663 137.792 289.368 126.632Z" fill="#F2D2B6"/>
  </g>
  <path d="M352.721 141.964C342.326 134.935 328.843 144.898 324.855 148.714C320.868 152.531 312.843 159.193 312.191 165.2C312.027 166.748 311.242 169.555 318.837 175.484C323.31 178.975 327.292 180.267 332.14 184.756C338.224 190.389 344.35 191.759 348.4 188.059C353.739 183.178 355.788 176.813 358.073 170.886C364.304 154.689 358.783 146.061 352.721 141.964Z" fill="#D9A171"/>
  <path d="M344.132 111.135C344.987 112.618 345.54 114.256 345.76 115.953C345.979 117.65 345.861 119.375 345.411 121.026C343.974 125.263 341.564 129.104 338.375 132.241C335.81 134.788 332.478 136.417 328.893 136.876C324.3 137.312 319.32 134.83 316.703 132.617C314.255 130.555 310.68 126.045 306.399 123.482C304.429 122.44 302.284 121.769 300.072 121.501C297.037 121.402 291.084 123.689 288.134 126.443C289.408 120.722 290.959 117.937 293.225 113.791C295.505 109.723 298.516 106.112 302.106 103.137C303.895 101.452 305.811 99.9089 307.838 98.5205C307.838 98.5205 312.991 98.851 315.195 99.0604C319.457 99.4614 322.559 99.2791 326.747 100.161C329.966 100.893 333.049 102.132 335.879 103.831C338.937 105.485 342.984 109.052 344.132 111.135Z" fill="#D9A171"/>
  <path opacity="0.102" d="M307.775 98.5093L307.764 98.5181C306.214 99.5923 304.73 100.759 303.32 102.013C299.34 105.257 295.952 109.167 293.308 113.569C292.474 115.03 291.318 117.252 290.78 118.522C289.665 121.077 288.776 123.726 288.123 126.436C289.324 125.308 290.698 124.379 292.193 123.684C292.685 121.327 293.406 119.023 294.344 116.805C295.694 114.124 298.653 108.75 302.325 105.097C304.579 102.758 307.01 100.595 309.595 98.6273C308.675 98.5643 307.801 98.4939 307.775 98.5093Z" fill="#523618"/>
  <path d="M307.838 98.5176C302.029 103.273 298.888 106.155 295.305 111.126C291.766 116.043 288.389 122.822 287.578 129.379C287.064 124.311 288.929 119.87 291.305 115.361C293.811 110.916 296.859 106.799 300.377 103.104C301.319 101.956 302.428 100.955 303.667 100.135C304.904 99.2628 306.336 98.7074 307.838 98.5176Z" fill="#D08A5A"/>
  <mask id="mask2_9902_54600" style="mask-type:luminance" maskUnits="userSpaceOnUse" x="352" y="137" width="70" height="69">
    <path d="M381.959 137.307L421.345 166.083L392.292 205.868L352.906 177.092L381.959 137.307Z" fill="white"/>
  </mask>
  <g mask="url(#mask2_9902_54600)">
    <path d="M387.85 143.103C386.178 142.74 384.451 142.711 382.768 143.017C381.085 143.324 379.479 143.961 378.043 144.891C374.443 147.547 371.517 151.013 369.502 155.009C367.859 158.227 367.322 161.898 367.975 165.452C368.957 169.961 372.838 173.953 375.739 175.773C378.45 177.475 383.833 179.515 387.573 182.816C389.166 184.376 390.459 186.216 391.388 188.244C392.402 191.106 392.132 197.285 390.398 200.941C394.321 198.706 397.84 195.825 400.806 192.42C403.987 189.012 406.512 185.047 408.255 180.723C409.319 178.505 410.237 176.221 411.004 173.884C411.004 173.884 409.022 169.046 408.152 167.005C406.471 163.06 405.702 160.058 403.593 156.328C401.917 153.482 399.799 150.92 397.321 148.737C394.813 146.337 390.18 143.566 387.85 143.103Z" fill="#D9A171"/>
    <path opacity="0.102" d="M410.993 173.885C410.993 173.885 410.282 176.137 408.934 179.211C407.054 183.992 404.36 188.411 400.972 192.272C399.834 193.509 398.066 195.292 397.021 196.185C394.966 197.98 392.743 199.572 390.382 200.94C391.075 199.517 391.511 197.984 391.673 196.409C393.768 195.219 395.744 193.83 397.573 192.261C399.713 190.163 403.933 185.712 406.295 181.096C407.844 178.202 409.169 175.193 410.261 172.097C410.611 172.956 410.95 173.771 410.993 173.885Z" fill="#523618"/>
  </g>
  <path d="M411.499 172.953C408.741 179.931 406.703 184.308 403.052 189.235C399.449 194.102 396.138 198.276 390.137 201.037C395.121 199.987 396.655 197.961 400.228 194.332C403.698 190.593 406.692 186.438 409.141 181.963C409.948 180.715 410.565 179.354 410.974 177.925C411.529 176.33 411.708 174.629 411.499 172.953Z" fill="#D08A5A"/>
  <path opacity="0.141" d="M354.869 164.842C353.236 166.018 351.373 166.832 349.401 167.23C347.43 167.628 345.396 167.602 343.435 167.152C341.495 166.667 339.682 165.769 338.12 164.52C336.559 163.271 335.284 161.699 334.385 159.913C332.888 156.922 332.587 152.943 334.737 150.315C335.879 153.109 337.807 155.511 340.288 157.228C342.741 158.91 345.353 160.347 348.086 161.52C350.328 162.569 352.579 163.615 354.869 164.842Z" fill="black"/>
  <path d="M334.473 148.484C337.364 144.539 343.805 145.247 349.744 149.605C355.682 153.963 358.42 160.135 355.529 164.08C352.639 168.025 345.38 167.618 339.437 163.256C333.493 158.895 331.583 152.427 334.473 148.484Z" fill="#252525"/>
  <mask id="mask3_9902_54600" style="mask-type:luminance" maskUnits="userSpaceOnUse" x="344" y="156" width="9" height="9">
    <path d="M347.394 156.01L352.475 158.299L349.698 164.464L344.618 162.174L347.394 156.01Z" fill="white"/>
  </mask>
  <g mask="url(#mask3_9902_54600)">
    <path d="M347.431 158.816C349.79 157.238 351.348 157.394 351.953 158.314C352.558 159.235 351.435 160.634 349.273 161.462C347.964 162.047 346.55 162.359 345.117 162.379C344.158 162.264 345.447 160.137 347.431 158.816Z" fill="#474747"/>
  </g>
  <mask id="mask4_9902_54600" style="mask-type:luminance" maskUnits="userSpaceOnUse" x="335" y="150" width="10" height="9">
    <path d="M340.481 150.208L344.502 154.063L339.828 158.942L335.807 155.088L340.481 150.208Z" fill="white"/>
  </mask>
  <g mask="url(#mask4_9902_54600)">
    <path d="M341.908 155.085C342.48 152.304 341.759 150.918 340.679 150.708C339.598 150.497 338.719 152.06 338.766 154.371C338.714 155.803 338.955 157.232 339.476 158.567C339.934 159.409 341.417 157.423 341.908 155.085Z" fill="#474747"/>
  </g>
  <mask id="mask5_9902_54600" style="mask-type:luminance" maskUnits="userSpaceOnUse" x="344" y="156" width="9" height="9">
    <path d="M347.394 156.01L352.475 158.299L349.698 164.464L344.618 162.174L347.394 156.01Z" fill="white"/>
  </mask>
  <g mask="url(#mask5_9902_54600)">
    <path d="M347.431 158.816C349.79 157.238 351.348 157.394 351.953 158.314C352.558 159.235 351.435 160.634 349.273 161.462C347.964 162.047 346.55 162.359 345.117 162.379C344.158 162.264 345.447 160.137 347.431 158.816Z" fill="#474747"/>
  </g>
  <mask id="mask6_9902_54600" style="mask-type:luminance" maskUnits="userSpaceOnUse" x="335" y="150" width="10" height="9">
    <path d="M340.481 150.208L344.502 154.063L339.828 158.942L335.807 155.088L340.481 150.208Z" fill="white"/>
  </mask>
  <g mask="url(#mask6_9902_54600)">
    <path d="M341.908 155.085C342.48 152.304 341.759 150.918 340.679 150.708C339.598 150.497 338.719 152.06 338.766 154.371C338.714 155.803 338.955 157.232 339.476 158.567C339.934 159.409 341.417 157.423 341.908 155.085Z" fill="#474747"/>
  </g>
  <mask id="mask7_9902_54600" style="mask-type:luminance" maskUnits="userSpaceOnUse" x="344" y="156" width="9" height="9">
    <path d="M347.394 156.01L352.475 158.299L349.698 164.464L344.618 162.174L347.394 156.01Z" fill="white"/>
  </mask>
  <g mask="url(#mask7_9902_54600)">
    <path d="M347.431 158.816C349.79 157.238 351.348 157.394 351.953 158.314C352.558 159.235 351.435 160.634 349.273 161.462C347.964 162.047 346.55 162.359 345.117 162.379C344.158 162.264 345.447 160.137 347.431 158.816Z" fill="#474747"/>
  </g>
  <mask id="mask8_9902_54600" style="mask-type:luminance" maskUnits="userSpaceOnUse" x="335" y="150" width="10" height="9">
    <path d="M340.481 150.208L344.502 154.063L339.828 158.942L335.807 155.088L340.481 150.208Z" fill="white"/>
  </mask>
  <g mask="url(#mask8_9902_54600)">
    <path d="M341.908 155.085C342.48 152.304 341.759 150.918 340.679 150.708C339.598 150.497 338.719 152.06 338.766 154.371C338.714 155.803 338.955 157.232 339.476 158.567C339.934 159.409 341.417 157.423 341.908 155.085Z" fill="#474747"/>
  </g>
  <path opacity="0.671" d="M353.396 156.806C351.075 158.659 348.553 160.246 345.877 161.535C345.519 161.754 345.124 161.905 344.711 161.982C344.504 162.016 344.291 161.995 344.094 161.92C343.898 161.846 343.724 161.721 343.592 161.558C343.476 161.351 343.425 161.113 343.446 160.877C343.467 160.64 343.559 160.416 343.71 160.233C344.018 159.87 344.397 159.574 344.824 159.363C346.014 158.67 347.201 157.983 348.391 157.29C349.13 156.803 349.944 156.442 350.801 156.221C351.25 156.129 351.714 156.133 352.162 156.234C352.609 156.335 353.03 156.53 353.396 156.806Z" fill="#252525"/>
  <path opacity="0.671" d="M340.995 149.087C340.6 152.016 340.205 154.945 339.807 157.873C339.748 158.167 339.748 158.471 339.81 158.766C339.844 158.912 339.921 159.045 340.032 159.148C340.142 159.25 340.28 159.318 340.428 159.342C340.862 159.368 341.147 158.915 341.313 158.517C342.248 156.066 342.593 153.429 342.322 150.82C342.325 150.336 342.199 149.859 341.958 149.439C341.685 149.04 341.03 148.785 340.995 149.087Z" fill="#252525"/>
  <mask id="mask9_9902_54600" style="mask-type:luminance" maskUnits="userSpaceOnUse" x="310" y="102" width="35" height="36">
    <path d="M326.866 102.25L344.865 115.403L328.702 137.536L310.703 124.384L326.866 102.25Z" fill="white"/>
  </mask>
  <g mask="url(#mask9_9902_54600)">
    <path d="M337.946 124.84C345.15 115.443 334.935 108.462 334.935 108.462C334.935 108.462 322.569 107.069 318.117 114.255C313.664 121.442 315.004 128.712 320.6 131.409C326.592 134.292 332.804 131.552 337.946 124.84Z" fill="white"/>
    <path d="M338.861 111.623C331.529 102.213 320.406 111.694 320.463 111.658C322.554 112.044 324.62 112.554 326.651 113.185C336.177 116.911 338.859 123.604 338.859 123.604C338.859 123.604 343.657 117.782 338.861 111.623Z" fill="#D39266"/>
    <path d="M329.225 125.252C327.495 124.472 326.724 122.437 327.503 120.707C328.283 118.977 330.317 118.207 332.046 118.986C333.776 119.766 334.547 121.801 333.768 123.531C332.989 125.261 330.955 126.031 329.225 125.252Z" fill="black" stroke="black" stroke-width="1.11383" stroke-miterlimit="10"/>
    <path d="M330.866 122.628C330.085 122.276 329.737 121.357 330.089 120.576C330.441 119.795 331.359 119.447 332.14 119.799C332.921 120.151 333.269 121.07 332.918 121.851C332.566 122.632 331.647 122.98 330.866 122.628Z" fill="white"/>
    <path opacity="0.141" d="M319.328 112.693C318.519 113.592 317.84 114.6 317.311 115.688C316.252 117.686 315.627 119.886 315.478 122.143C315.341 124.067 315.741 129.327 320.898 131.537C315.696 119.081 328.484 109.657 333.065 107.699C328.219 106.627 322.667 109.402 319.328 112.693Z" fill="black"/>
  </g>
  <path d="M377.182 153.51C383.943 143.785 393.7 151.397 393.7 151.397C393.7 151.397 398.788 162.766 393.291 169.179C387.794 175.592 380.475 176.539 376.205 172.029C371.629 167.204 372.357 160.446 377.182 153.51Z" fill="white"/>
  <path d="M389.488 148.619C400.675 152.742 395.031 166.227 395.048 166.159C394.043 164.285 392.928 162.472 391.708 160.73C385.263 152.786 378.075 152.269 378.075 152.269C378.075 152.269 382.161 145.918 389.488 148.619Z" fill="#D39266"/>
  <path d="M380.584 162.783C378.854 162.003 378.084 159.968 378.863 158.238C379.642 156.508 381.676 155.737 383.406 156.517C385.136 157.297 385.906 159.332 385.127 161.062C384.348 162.792 382.314 163.562 380.584 162.783Z" fill="black" stroke="black" stroke-width="1.11383" stroke-miterlimit="10"/>
  <path d="M381.955 159.962C381.174 159.61 380.826 158.691 381.178 157.91C381.53 157.129 382.448 156.781 383.229 157.133C384.01 157.485 384.358 158.404 384.007 159.185C383.655 159.966 382.736 160.314 381.955 159.962Z" fill="white"/>
  <path opacity="0.141" d="M394.411 167.556C393.802 168.602 393.047 169.556 392.169 170.389C390.586 172.007 388.681 173.274 386.578 174.108C384.78 174.825 379.661 176.044 375.981 171.797C389.427 172.967 394.517 157.917 394.983 152.952C397.485 157.236 396.529 163.377 394.411 167.556Z" fill="black"/>
  <path opacity="0.141" d="M410.332 87.46C408.936 89.2029 407.718 91.082 406.698 93.0689C406.281 93.781 405.675 94.3635 404.948 94.7519C404.689 94.804 404.423 94.8032 404.165 94.7495C403.907 94.6958 403.663 94.5904 403.447 94.4396C403.447 94.4396 404.351 99.2103 402.707 101.915C397.467 110.529 388.868 119.074 380.511 117.537C414.937 139.214 411.899 191.471 343.855 207.074C354.274 217.633 351.854 310.118 258.846 285.792C263.918 285.795 364.441 313.616 369.306 312.539C371.559 312.035 368.112 332.615 369.821 332.048C370.926 331.682 365.845 331.79 368.06 330.801C369.151 330.313 374.436 330.365 374.997 330.063C375.294 329.907 375.748 329.686 376.262 329.386C377.045 328.961 377.8 328.487 378.522 327.966C379.293 327.384 379.985 326.705 380.581 325.945C381.22 325.128 381.706 324.203 382.015 323.214C382.884 321.223 382.611 317.451 382.596 317.228C382.349 314.737 381.902 312.27 381.259 309.85C376.938 295.69 367.664 278.435 370.601 260.846C371.761 254.453 373.96 248.293 377.111 242.612C392.337 216.723 401.393 208.713 412.208 192.035C414.725 188.534 416.987 184.856 418.978 181.031C420.564 178.018 421.882 174.871 422.916 171.627C423.647 169.552 424.248 167.435 424.718 165.286C425.409 162.421 425.892 159.51 426.163 156.576C427.175 144.083 425.025 136.083 424.918 135.616C424.815 135.185 423.363 129.876 423.188 129.304C422.095 126.191 420.822 123.143 419.376 120.177C417.792 117.205 415.984 114.357 413.966 111.66C414.88 111.801 415.813 111.759 416.711 111.536C418.024 111.286 419.206 110.58 420.048 109.541C421.432 107.517 420.093 104.536 417.982 102.795C416.521 101.587 414.703 100.895 412.809 100.828C413.654 100.627 414.46 100.29 415.197 99.83C416.304 99.0664 418.218 97.1258 418.81 93.0825C418.958 92.2423 418.936 91.3809 418.746 90.5491C418.555 89.7174 418.2 88.9323 417.701 88.2401C416.496 86.5965 414.567 86.4427 413.032 86.3114C412.024 86.3589 411.066 86.7664 410.332 87.46Z" fill="#523618"/>
  <path opacity="0.141" d="M349.718 176.309C344.259 175.816 339.001 174.012 334.389 171.05C329.777 168.088 325.948 164.056 323.228 159.297C323.127 159.116 322.97 172.872 329.521 176.767C339.872 182.906 349.782 176.317 349.718 176.309Z" fill="#141414"/>
  <path d="M353.467 175.451C341.879 174.311 327.941 164.831 322.954 155.707C322.853 155.526 323.361 170.472 330.487 176.183C341.455 181.131 353.522 175.453 353.467 175.451Z" fill="#252525"/>
  <path d="M337.977 178.102C338.134 177.16 337.983 176.192 337.545 175.343C337.106 174.494 336.405 173.81 335.546 173.393C334.63 172.832 332.377 172.465 332.038 173.325C332.736 172.81 332.231 171.576 331.292 170.888C330.262 170.103 328.963 169.758 327.68 169.928C327.162 169.978 326.653 170.098 326.167 170.287C326.167 170.287 327.502 174.583 330.487 176.185C332.838 177.296 335.381 177.947 337.977 178.102Z" fill="#E0A2A2"/>
  <path d="M369.763 244.757C330.081 278.047 282.097 276.675 256.288 249.424C223.158 214.438 238.339 169.827 240.244 163.453C233.717 168.575 233.892 175.861 232.873 184.101C231.103 198.439 230.32 213.239 234.332 227.12C239.487 244.958 252.643 260.162 269.206 268.559C285.77 276.956 305.451 278.648 323.429 273.999C341.407 269.35 357.588 258.536 369.763 244.757Z" fill="#BE7E51"/>
  <path d="M368.46 252.633C355.738 258.659 293.377 289.703 253.87 256.564C213.03 222.304 236.475 163.83 236.475 163.83C236.475 163.83 224.94 158.658 218.698 158.472C200.325 157.91 181.706 166.114 167.534 177.969C173.851 181.157 182.631 188.684 187.73 194.515C181.278 200.293 177.565 202.525 172.832 213.438C164.658 210.936 147.211 223.422 138.158 230.553C129.105 237.684 121.744 293.446 121.744 293.446C121.744 293.446 123.222 306.419 181.31 349.27C207.835 368.838 254.363 476.869 259.417 464.698C264.472 452.527 268.793 441.046 291.558 418.289C314.322 395.532 315.974 384.694 322.528 369.586C345.796 315.956 337.684 302.793 337.819 302.641C340.281 299.873 344.658 308.673 349.066 314.735C353.474 320.796 347.44 315.93 345.458 323.152C351.228 309.86 358.602 321.498 361.479 311.001C364.356 300.505 369.065 302.345 378.858 297.599C381.042 296.542 370.237 290.65 371.976 288.952C374.654 286.35 379.097 272.75 376.342 268.429C374.333 265.297 380.14 262.437 368.46 252.633Z" fill="white"/>
  <g opacity="0.141">
    <mask id="mask10_9902_54600" style="mask-type:luminance" maskUnits="userSpaceOnUse" x="175" y="170" width="264" height="441">
      <path d="M175.678 574.777L255.757 610.871C255.813 610.896 255.873 610.91 255.935 610.912C255.996 610.914 256.058 610.904 256.115 610.882C256.173 610.86 256.225 610.827 256.27 610.785C256.315 610.743 256.351 610.692 256.376 610.636L438.038 207.27C438.064 207.214 438.078 207.153 438.08 207.092C438.081 207.03 438.071 206.969 438.049 206.912C438.027 206.854 437.994 206.802 437.952 206.757C437.91 206.712 437.859 206.676 437.803 206.651L357.723 170.557C357.667 170.532 357.607 170.518 357.545 170.516C357.484 170.514 357.423 170.524 357.365 170.546C357.308 170.567 357.255 170.6 357.21 170.642C357.166 170.684 357.13 170.735 357.104 170.791L175.442 574.158C175.416 574.214 175.402 574.275 175.401 574.336C175.399 574.398 175.409 574.459 175.431 574.517C175.453 574.574 175.486 574.627 175.528 574.672C175.571 574.716 175.621 574.752 175.678 574.777Z" fill="white"/>
    </mask>
    <g mask="url(#mask10_9902_54600)">
      <path d="M347.717 274.506C315.866 316.516 283.062 348.088 252.249 465.01C231.001 537.017 256.29 482.548 256.29 482.548L255.749 469.01C255.749 469.01 249.188 477.752 252.249 472.51C252.651 476.506 253.249 467.51 275.488 435.691C275.727 435.35 283.97 424.982 298.7 410.703C303.796 404.936 307.745 399.589 309.413 397.316L313.877 389.73L317.448 383.036L320.124 396.425L321.589 397.375C320.955 395.584 315.647 383.836 315.217 381.985C314.655 372.167 323.42 381.092 328.484 371.016" fill="black"/>
    </g>
  </g>
  <path d="M379.702 284.878C381.788 278.483 379.199 272.243 374.426 269.855C369.653 267.466 363.196 268.502 357.408 271.487C351.619 274.472 345.242 278.351 341.723 284.316C325.104 312.429 319.264 335.909 314.132 357.366C307.731 384.146 322.758 407.541 332.246 415.954C345.823 378.201 367.901 320.964 379.702 284.878Z" fill="#D08A5A"/>
  <path opacity="0.141" d="M346.846 326.612C330.495 350.231 349.931 372.92 345.129 395.355C343.305 403.888 339.665 411.163 332.247 415.952C328.913 412.598 325.886 408.953 323.2 405.06C319.446 399.277 316.605 392.95 314.777 386.302C314.222 384.073 313.846 382.491 313.321 379.594C312.743 375.979 312.508 372.318 312.619 368.66C312.76 364.855 313.267 361.073 314.133 357.366C316.938 344.703 320.149 334.154 322.489 326.678C325.165 318.143 331.086 304.649 331.086 304.649L329.633 304.602C329.633 304.602 336.641 290.496 341.099 291.769C344.592 292.77 355.389 298.129 356.767 301.411C358.145 304.694 348.234 324.609 346.846 326.612Z" fill="#141414"/>
  <path d="M327.841 308.74C336.974 287.703 355.369 261.486 364.383 257.142C368.075 255.362 368.762 255.442 372.202 255.465C375.642 255.489 380.228 260.184 380.666 263.604C380.94 265.726 380.047 267.033 379.086 268.944C372.47 282.166 365.55 303.282 357.498 315.681C356.331 313.949 338.437 307.045 327.841 308.74Z" fill="white"/>
  <path d="M364.334 219.912C364.337 219.901 364.344 219.892 364.354 219.885C364.363 219.879 364.375 219.876 364.386 219.877C364.397 219.878 364.408 219.884 364.416 219.892C364.424 219.9 364.429 219.91 364.431 219.921C365.704 230.978 368.163 241.91 372.796 248.582C377.443 255.269 382.578 257.799 389.859 256.461C389.867 256.46 389.876 256.46 389.884 256.463C389.892 256.465 389.9 256.47 389.906 256.476C389.912 256.482 389.916 256.489 389.918 256.498C389.921 256.506 389.921 256.515 389.919 256.523C389.713 257.465 389.317 258.356 388.755 259.139C388.193 259.923 387.477 260.584 386.651 261.081C385.185 261.907 382.834 260.723 382.113 262.055C378.661 268.476 366.962 256.198 365.175 252.353C360.639 242.07 360.337 230.414 364.334 219.912Z" fill="#F2DFA7"/>
  <path opacity="0.141" d="M387.418 256.767C379.917 257.016 376.666 253.38 374.591 250.926C372.693 248.746 371.166 246.269 370.072 243.593C367.271 237.096 366.41 232.709 365.052 224.688C363.929 228.127 363.213 242.464 367.753 250.781C370.254 255.366 374.425 258.774 378.485 262.056C383.443 263.175 385.847 258.342 387.418 256.767Z" fill="#141414"/>
  <path d="M412.945 230.177C414.916 230.838 416.355 225.378 416.782 220.248C416.786 220.224 416.798 220.203 416.816 220.186C416.833 220.17 416.856 220.159 416.88 220.156C416.904 220.154 416.928 220.159 416.949 220.171C416.97 220.183 416.986 220.201 416.996 220.223C419.68 226.215 417.082 240.998 414.462 246.964C411.831 252.972 405.639 261.036 405.625 261.069L405.612 254.694" fill="#F2DFA7"/>
  <path opacity="0.141" d="M416.339 223.708C415.553 237.808 409.485 252.406 401.639 262.48C407.222 254.176 411.615 235.994 415.166 228.11C415.716 226.689 416.109 225.213 416.339 223.708Z" fill="#141414"/>
  <path d="M399.875 263.482C414.012 249.455 417.344 230.6 414.484 211.608C414.48 211.577 414.464 211.548 414.441 211.528C414.417 211.507 414.387 211.495 414.355 211.495C414.324 211.494 414.293 211.505 414.269 211.525C414.245 211.545 414.229 211.573 414.223 211.603C408.13 236.138 402.247 245.064 396.983 260.353C396.976 260.368 396.972 260.385 396.972 260.402C396.972 260.419 396.975 260.436 396.982 260.452C396.988 260.467 396.998 260.482 397.01 260.494C397.022 260.506 397.036 260.516 397.051 260.522C397.067 260.529 397.084 260.532 397.101 260.532C397.118 260.532 397.135 260.529 397.15 260.523C397.166 260.516 397.18 260.507 397.192 260.495C397.205 260.483 397.214 260.469 397.221 260.453C400.216 254.401 404.498 248.402 404.699 241.929C404.656 234.217 401.851 226.774 396.791 220.953C391.154 214.906 378.151 210.532 365.297 217.421C365.27 217.434 365.248 217.455 365.235 217.482C365.222 217.509 365.218 217.54 365.225 217.569C365.231 217.598 365.247 217.624 365.271 217.643C365.294 217.662 365.323 217.672 365.353 217.673C399.858 219.498 393.757 241.113 392.397 246.411C391.165 251.218 390.047 256.696 387.846 261.239C387.834 261.266 387.813 261.287 387.786 261.3C387.76 261.313 387.73 261.316 387.701 261.308C386.965 261.159 383.033 261.042 399.746 263.529C399.769 263.533 399.794 263.531 399.817 263.523C399.839 263.515 399.859 263.5 399.875 263.482Z" fill="#F2DFA7"/>
  <path opacity="0.141" d="M400.62 259.765C399.275 258.667 397.598 258.057 395.863 258.032C404.651 244.636 410.658 225.166 412.519 218.095C412.689 219.097 414.44 237.476 400.62 259.765Z" fill="#141414"/>
  <path d="M399.175 261.714C399.101 261.863 399.094 261.595 399.149 261.757C404.685 277.686 414.812 239.26 398.056 221.704C392.067 215.431 378.491 210.684 365.333 217.363C365.212 217.422 365.263 217.608 365.4 217.62C401.205 220.291 395.391 242.093 394.11 247.44C392.946 252.291 391.929 257.824 389.741 262.39C389.729 262.416 389.708 262.438 389.682 262.451C389.655 262.464 389.625 262.467 389.597 262.459C388.829 262.289 384.753 262.073 402.136 264.997C402.177 265.005 402.677 254.532 399.175 261.714Z" fill="#F2DFA7"/>
  <path opacity="0.141" d="M397.093 258.229C400.972 246.544 402.062 234.208 393.024 224.137C388.978 219.624 378.637 216.038 370.764 218.142C383.419 219.929 388.567 224.124 391.455 228.927C393.972 233.114 394.012 238.468 393.276 242.411C392.382 247.216 391.029 252.036 389.625 256.834C391.471 256.842 393.037 256.501 394.876 256.506C395.229 256.518 397.046 257.221 397.093 258.229Z" fill="#141414"/>
  <path d="M405.065 258.328C405.622 258.569 406.071 259.007 406.326 259.558C411.844 272.212 412.62 290.089 407.59 308.666C403.75 322.848 402.762 339.317 395.415 360.888C377.215 414.347 348.244 416.379 333.525 416.283C332.793 416.275 332.094 415.977 331.581 415.455C299.599 383.073 326.758 333.551 360.894 293.324C370.641 281.834 378.367 265.968 384.385 258.272C387.947 253.71 398.08 255.146 405.065 258.328Z" fill="#D08A5A"/>
  <path opacity="0.141" d="M410.95 286.728C410.753 298.939 407.449 308.42 405.294 318.992C401.634 336.957 400.328 347.203 395.454 360.906C391.955 370.744 387.425 381.536 381.647 390.003C379.203 393.714 376.42 397.19 373.331 400.385C367.944 405.889 361.477 410.22 354.338 413.108C347.538 415.744 338.386 416.497 333.332 416.292C332.798 416.22 332.292 416.013 331.861 415.69C329.108 412.981 326.613 410.022 324.407 406.852C341.728 383.089 367.43 368.158 380.918 342.018C394.407 315.878 403.492 287.261 403.963 257.854C405.371 258.475 405.659 258.525 406.179 259.245C406.339 259.513 406.474 259.795 406.583 260.088C406.799 260.584 407.005 261.102 407.292 261.86C408.36 264.79 409.192 267.801 409.781 270.864C410.697 276.1 411.089 281.415 410.95 286.728Z" fill="#141414"/>
  <path opacity="0.141" d="M334.528 172.987C333.84 173.013 333.166 173.188 332.553 173.5C331.94 173.813 331.402 174.256 330.978 174.798C331.375 174.187 331.809 173.6 332.277 173.04C332.361 173.003 332.811 172.571 334.528 172.987Z" fill="#141414"/>
</svg>
