<svg width="299" height="622" viewBox="0 0 299 622" fill="none" xmlns="http://www.w3.org/2000/svg">
<g clip-path="url(#clip0_15447_64915)">
<path d="M195.934 474.586C199.304 476.591 202.776 478.354 206.524 477.213C234.514 468.639 257.689 439.01 263.775 428.984C282.24 398.526 273.781 405.924 276.704 374.359C279.626 342.794 262.984 337.851 255.66 307.703C269.483 375.327 238.502 306.562 298.263 433.79C305.862 449.935 316.865 486.409 341.656 519.115C370.952 557.802 390.07 580.205 447.871 620.655C457.189 627.155 465.063 637.423 475.997 641.502C479.883 642.955 472.765 636.109 487.654 619.48C496.8 609.246 499.895 608.313 501.889 604.959C502.577 603.853 486.622 583.282 485.934 582.176C474.966 564.751 467.711 553.169 462.312 534.258C454.782 507.844 451.756 490.766 442.3 470.126C460.834 467.498 473.418 454.153 468.914 449.624C468.226 448.933 461.04 473.445 473.418 530.593C473.969 533.083 473.625 534.223 473.625 534.223C473.625 534.223 475.206 533.878 475.791 533.878C478.267 533.947 484.181 534.535 490.783 536.644C505.19 541.207 512.479 552.098 517.087 546.047C544.492 510.403 548.411 458.371 553.879 423.107C557.351 400.807 558.692 290.866 471.115 236.656C410.426 199.11 382.024 223.346 377.348 158.245C381.199 151.089 398.013 53.1791 394.781 8.13086C394.402 2.84124 394.918 -2.44838 393.13 -7.42685C385.222 -29.4151 366.31 -89.2604 359.502 -112.251C352.762 -135 352.694 -131.439 352.797 -149.59C352.934 -167.326 338.699 -131.404 321.094 -132.2C294.721 -133.375 295.615 -149.693 309.231 -126.945C331.96 -88.9838 322.607 -34.1515 320.957 -7.63427C318.24 36.6879 274.744 99.4719 258.824 106.663C242.216 91.3127 214.089 93.1451 197.034 107.977C180.014 122.843 173.756 147.735 177.916 170.035C182.283 193.475 196.553 213.735 204.874 236.069C219.797 276.138 214.811 346.874 204.874 379.545C201.607 375.051 196.14 392.959 182.49 394.377C152.472 397.454 105.915 393.824 118.568 412.562C129.228 428.362 166.329 456.988 195.9 474.62L195.934 474.586Z" fill="#D0895A"/>
<path d="M137.007 168.721C147.838 192.749 191.576 212.317 199.003 228.808C223.416 283.018 208.665 306.043 224.207 308.947C270.695 317.625 294.661 294.047 326.192 266.077C365.803 230.917 385.093 198.764 379.797 172.109C375.843 152.195 339.086 172.8 306.902 145.108C293.629 133.664 269.113 95.8763 258.454 85.0205C233.697 59.6787 200.069 60.7504 182.842 71.0185C186.315 71.3988 189.478 69.7047 190.063 65.8326C190.854 60.4047 187.071 59.4712 183.805 60.6467C180.916 61.6839 178.303 64.5189 178.372 68.2873C178.372 68.2873 178.785 65.798 178.819 65.6252C179.232 63.3434 177.65 61.1308 176.79 60.3011C175.105 58.6416 171.77 56.1869 168.538 57.3278C165.65 58.3304 164.48 61.753 165.168 63.6891C166.509 67.3538 173.111 70.5345 169.776 73.0238C139.552 95.3923 116.204 122.67 136.973 168.755L137.007 168.721Z" fill="#D0895A"/>
<path opacity="0.05" d="M261.644 106.006C243.248 81.2519 207.832 104.173 190.743 117.035C173.654 129.896 139.613 159.11 158.009 183.864C176.404 208.618 214.537 211.28 243.145 189.776C271.788 168.271 280.074 130.76 261.644 106.006Z" fill="black"/>
<path d="M187.437 96.9148C205.042 74.5117 221.753 75.6526 234.028 80.9768C243.587 85.1255 256.825 94.2873 261.261 102.792C263.014 106.146 265.662 110.191 266.694 113.821C270.338 126.371 268.722 139.301 265.593 147.875C261.226 159.768 254.659 173.39 235.369 187.392L175.849 107.287C182.21 104.625 185.993 98.7817 187.437 96.9493V96.9148Z" fill="#F1D1B5"/>
<path d="M196.897 199.493C187.854 200.081 175.028 197.972 164.094 190.919C160.931 188.879 157.802 185.18 155.12 182.552C148.277 175.88 143.326 160.495 142.054 150.089C140.437 136.709 144.082 120.287 170.455 109.673C172.622 108.809 179.258 106.838 183.625 101.445L243.145 181.55C224.336 196.174 209.482 198.629 196.897 199.459V199.493Z" fill="#F1D1B5"/>
<mask id="mask0_15447_64915" style="mask-type:luminance" maskUnits="userSpaceOnUse" x="204" y="76" width="69" height="70">
<path d="M204.525 105.968L243.414 76.7537L272.744 116.236L233.855 145.45L204.525 105.968Z" fill="white"/>
</mask>
<g mask="url(#mask0_15447_64915)">
<path d="M211.789 102.028C210.62 104.206 209.348 108.009 210.62 111.915C211.892 115.822 214.746 120.213 217.738 123.048C220.316 125.468 223.72 127.3 227.228 127.577C231.801 127.957 236.718 125.433 239.297 123.186C241.704 121.077 245.211 116.548 249.44 113.921C250.884 113.022 254.185 111.95 255.698 111.881C258.724 111.743 264.535 113.817 267.492 116.548C266.151 110.844 264.741 108.216 262.438 104.102C259.068 98.0518 255.251 95.1822 253.498 93.5227C250.644 90.8606 247.79 88.89 247.79 88.89C247.79 88.89 242.598 89.3741 240.397 89.5815C236.168 90.031 233.073 89.8926 228.913 90.7915C225.405 91.5866 222.998 92.7967 219.869 94.5599C216.843 96.2539 212.855 99.8495 211.755 101.958L211.789 102.028Z" fill="#D9A171"/>
<path opacity="0.1" d="M247.821 88.9548C247.821 88.9548 249.747 90.3032 252.291 92.4813C255.111 94.9014 259.202 98.4624 262.366 103.925C263.225 105.377 264.394 107.59 264.945 108.834C266.526 112.464 267.352 115.645 267.523 116.578C265.701 114.815 263.604 114.02 263.604 114.02C263.604 114.02 262.606 109.526 261.403 107.175C260.028 104.513 257.036 99.1538 253.357 95.5582C250.95 93.2073 248.234 90.6835 245.964 89.1278C246.858 89.024 247.752 88.9548 247.855 88.9548H247.821Z" fill="#523618"/>
</g>
<path d="M247.063 88.2015C252.909 92.9034 256.45 96.1187 260.061 101.063C263.637 105.937 266.628 110.328 267.522 116.897C267.969 111.815 266.491 109.775 264.084 105.28C261.677 100.786 258.376 96.8793 254.937 93.1109C253.94 92.0046 252.909 90.9328 251.636 90.1722C250.364 89.4116 249.401 88.5818 247.063 88.2015Z" fill="#D0895A"/>
<path d="M168.596 134.462C171.003 133.943 174.991 133.805 178.361 136.156C181.765 138.472 185.135 142.483 186.957 146.182C188.539 149.363 189.295 153.166 188.608 156.623C187.679 161.152 183.863 165.162 181.009 167.029C178.327 168.758 172.997 170.867 169.318 174.186C168.046 175.327 166.086 178.196 165.57 179.648C164.607 182.518 165.02 188.879 166.773 192.509C161.719 189.605 159.518 187.289 156.217 183.901C151.403 178.957 149.753 174.428 148.687 172.284C146.968 168.792 145.971 165.439 145.971 165.439C145.971 165.439 147.793 160.599 148.653 158.559C150.269 154.583 151.025 151.575 153.088 147.841C154.807 144.695 156.699 142.725 159.243 140.166C161.684 137.746 166.292 134.911 168.596 134.427V134.462Z" fill="#D9A171"/>
<path opacity="0.1" d="M145.939 165.509C145.939 165.509 146.592 167.722 147.967 170.799C149.48 174.187 151.715 179.166 156.013 183.764C157.148 184.974 158.936 186.737 159.968 187.636C162.993 190.194 165.882 192.096 166.707 192.511C165.572 190.263 165.263 187.809 165.263 187.809C165.263 187.809 161.24 185.561 159.349 183.729C157.182 181.655 152.953 177.264 150.546 172.666C148.965 169.658 147.383 166.443 146.523 163.815C146.214 164.68 145.87 165.475 145.87 165.509H145.939Z" fill="#523618"/>
<path d="M145.968 165.439C148.787 172.388 150.61 176.26 154.289 181.135C157.934 185.975 163.401 191.195 169.384 193.892C164.398 192.89 160.753 189.813 157.143 186.217C153.532 182.621 150.747 178.3 148.134 173.944C147.378 172.665 146.621 171.351 146.277 169.933C145.933 168.481 145.658 167.824 145.933 165.473L145.968 165.439Z" fill="#D0895A"/>
<path d="M200.397 135.287C190.666 143.169 196.202 159.004 198.678 163.913C201.153 168.857 205.142 178.503 210.643 180.888C212.053 181.51 214.494 183.066 222.369 177.569C227.01 174.319 229.383 170.897 235.091 167.578C242.209 163.429 245.303 157.966 242.965 152.988C239.87 146.454 234.438 142.616 229.452 138.675C215.87 127.957 206.036 130.689 200.397 135.287Z" fill="#D9A171"/>
<path opacity="0.14" d="M227.669 157.659C226.122 158.835 219.348 163.917 217.01 165.68C217.01 165.68 220.964 169.863 225.675 166.268C230.317 162.776 227.669 157.659 227.669 157.659Z" fill="black"/>
<path d="M227.258 156.378C225.608 157.623 218.387 163.051 215.877 164.918C215.877 164.918 219.866 169.066 224.886 165.229C229.837 161.529 227.224 156.378 227.224 156.378H227.258Z" fill="#252525"/>
<path d="M200.329 155.653C197.338 151.366 200.226 145.073 206.656 140.51C213.086 135.981 220.238 135.289 223.264 139.611C226.256 143.898 223.367 151.124 216.937 155.687C210.507 160.216 203.321 159.974 200.329 155.687V155.653Z" fill="#252525"/>
<path opacity="0.14" d="M223.814 140.545C225.086 144.694 224.502 149.361 222.267 152.957C220.032 156.552 216.112 159.076 211.848 159.664C208.307 160.148 204.181 159.111 202.255 155.999C205.487 155.895 208.547 154.547 211.126 152.715C213.705 150.882 215.94 148.566 218.106 146.25C219.929 144.314 221.751 142.412 223.78 140.511L223.814 140.545Z" fill="#252525"/>
<mask id="mask1_15447_64915" style="mask-type:luminance" maskUnits="userSpaceOnUse" x="214" y="141" width="5" height="9">
<path d="M214.845 141.24H218.524V149.849H214.845V141.24Z" fill="white"/>
</mask>
<g mask="url(#mask1_15447_64915)">
<path d="M215.187 146.01C214.396 143.071 215.084 141.55 216.219 141.239C217.354 140.928 218.385 142.553 218.488 145.042C218.557 146.321 218.557 148.395 218.007 149.571C217.56 150.504 215.875 148.464 215.222 146.01H215.187Z" fill="#252525"/>
</g>
<mask id="mask2_15447_64915" style="mask-type:luminance" maskUnits="userSpaceOnUse" x="204" y="148" width="10" height="7">
<path d="M205.08 148.838L213.337 151.114L212.364 154.682L204.107 152.406L205.08 148.838Z" fill="white"/>
</mask>
<g mask="url(#mask2_15447_64915)">
<path d="M209.554 150.364C206.941 148.808 205.291 149.084 204.706 150.122C204.121 151.159 205.394 152.576 207.766 153.337C209.004 153.717 210.964 154.27 212.236 154.063C213.233 153.89 211.72 151.712 209.554 150.398V150.364Z" fill="#252525"/>
</g>
<mask id="mask3_15447_64915" style="mask-type:luminance" maskUnits="userSpaceOnUse" x="214" y="141" width="5" height="9">
<path d="M214.845 141.24H218.524V149.849H214.845V141.24Z" fill="white"/>
</mask>
<g mask="url(#mask3_15447_64915)">
<path d="M215.187 146.01C214.396 143.071 215.084 141.55 216.219 141.239C217.354 140.928 218.385 142.553 218.488 145.042C218.557 146.321 218.557 148.395 218.007 149.571C217.56 150.504 215.875 148.464 215.222 146.01H215.187Z" fill="#252525"/>
</g>
<mask id="mask4_15447_64915" style="mask-type:luminance" maskUnits="userSpaceOnUse" x="204" y="148" width="10" height="7">
<path d="M205.08 148.838L213.337 151.114L212.364 154.682L204.107 152.406L205.08 148.838Z" fill="white"/>
</mask>
<g mask="url(#mask4_15447_64915)">
<path d="M209.554 150.364C206.941 148.808 205.291 149.084 204.706 150.122C204.121 151.159 205.394 152.576 207.766 153.337C209.004 153.717 210.964 154.27 212.236 154.063C213.233 153.89 211.72 151.712 209.554 150.398V150.364Z" fill="#252525"/>
</g>
<mask id="mask5_15447_64915" style="mask-type:luminance" maskUnits="userSpaceOnUse" x="214" y="141" width="5" height="9">
<path d="M214.845 141.24H218.524V149.849H214.845V141.24Z" fill="white"/>
</mask>
<g mask="url(#mask5_15447_64915)">
<path d="M215.187 146.01C214.396 143.071 215.084 141.55 216.219 141.239C217.354 140.928 218.385 142.553 218.488 145.042C218.557 146.321 218.557 148.395 218.007 149.571C217.56 150.504 215.875 148.464 215.222 146.01H215.187Z" fill="#484747"/>
</g>
<mask id="mask6_15447_64915" style="mask-type:luminance" maskUnits="userSpaceOnUse" x="204" y="148" width="10" height="7">
<path d="M205.08 148.838L213.337 151.114L212.364 154.682L204.107 152.406L205.08 148.838Z" fill="white"/>
</mask>
<g mask="url(#mask6_15447_64915)">
<path d="M209.554 150.364C206.941 148.808 205.291 149.084 204.706 150.122C204.121 151.159 205.394 152.576 207.766 153.337C209.004 153.717 210.964 154.27 212.236 154.063C213.233 153.89 211.72 151.712 209.554 150.398V150.364Z" fill="#484747"/>
</g>
<path opacity="0.67" d="M215.219 139.263C216.422 142.202 216.938 145.382 217.454 148.529C217.522 148.978 217.591 149.427 217.522 149.877C217.454 150.326 217.144 150.741 216.697 150.879C216.216 151.018 215.7 150.741 215.39 150.292C215.081 149.877 214.978 149.358 214.909 148.874C214.6 147.422 214.325 145.97 214.015 144.553C213.843 143.619 213.637 142.686 213.774 141.718C213.912 140.75 214.393 139.851 215.253 139.298L215.219 139.263Z" fill="#252525"/>
<path opacity="0.67" d="M203.193 149.221C206.012 150.639 208.832 152.021 211.651 153.439C211.926 153.577 212.236 153.716 212.545 153.75C212.855 153.75 213.233 153.612 213.336 153.301C213.508 152.886 213.164 152.436 212.82 152.125C210.723 150.258 208.075 149.152 205.393 148.461C204.912 148.322 204.362 148.219 203.88 148.357C203.399 148.495 202.918 149.083 203.193 149.221Z" fill="#252525"/>
<path d="M235.41 100.75C230.356 96.2898 217.599 100.542 217.599 100.542C217.599 100.542 213.611 113.3 220.247 119.488C226.883 125.677 234.792 125.746 238.746 120.387C243.009 114.648 242.219 106.696 235.41 100.715V100.75Z" fill="white"/>
<path opacity="0.14" d="M233.826 108.496C235.304 110.225 238.262 113.406 239.637 119.11C240.944 116.725 241.528 114.235 241.322 111.504C241.115 108.808 239.946 105.973 238.193 103.691C236.852 105.247 235.958 106.318 233.86 108.462L233.826 108.496Z" fill="black"/>
<path d="M227.325 120.111C225.293 120.111 223.646 118.454 223.646 116.411C223.646 114.368 225.293 112.712 227.325 112.712C229.357 112.712 231.004 114.368 231.004 116.411C231.004 118.454 229.357 120.111 227.325 120.111Z" fill="#252525" stroke="#252525" stroke-miterlimit="10"/>
<path d="M225.981 118.002C225.07 118.002 224.331 117.259 224.331 116.343C224.331 115.426 225.07 114.683 225.981 114.683C226.893 114.683 227.632 115.426 227.632 116.343C227.632 117.259 226.893 118.002 225.981 118.002Z" fill="white"/>
<path d="M218.597 98.3994C208.935 105.867 219.422 118.797 219.387 118.728C219.387 118.728 227.984 115.962 238.265 103.551C238.265 103.551 237.921 102.998 237.027 102.099C234.035 98.9526 226.299 92.4183 218.562 98.3994H218.597Z" fill="#D29166"/>
<path opacity="0.13" d="M217.017 99.8876C217.43 99.4382 217.842 99.0579 218.255 98.7121C218.289 98.7121 218.324 98.643 218.358 98.6084C218.496 98.5047 218.599 98.401 218.736 98.2973C220.318 97.0872 221.934 96.3958 223.481 96.1192C223.963 96.05 224.513 95.9809 225.029 95.9809C226.129 95.9809 227.195 96.1191 228.192 96.3957C228.639 96.534 229.052 96.6724 229.43 96.8107C229.98 97.0181 230.427 97.2255 230.84 97.433C231.527 97.7787 232.215 98.1936 232.834 98.6084C233.728 99.2307 234.622 99.9221 235.413 100.614C235.86 100.994 236.238 101.374 236.616 101.755C237.029 102.169 237.476 102.653 237.785 103.034C237.889 103.172 237.992 103.31 238.06 103.379C238.06 103.379 238.095 103.449 238.129 103.483C238.198 103.552 238.232 103.622 238.232 103.622C236.719 105.454 235.207 107.113 233.762 108.531C232.731 107.286 231.493 106.042 229.98 104.866C223.516 99.9222 219.08 99.2999 216.948 99.9222L217.017 99.8876Z" fill="black"/>
<path d="M179.634 144.173C175.198 139.679 162.923 142.825 162.923 142.825C162.923 142.825 158.35 154.545 164.195 160.768C170.04 166.991 177.433 167.579 181.525 162.808C185.892 157.726 185.651 150.189 179.634 144.138V144.173Z" fill="white"/>
<path opacity="0.14" d="M177.674 151.33C178.946 153.058 181.525 156.239 182.453 161.667C183.829 159.489 184.551 157.207 184.516 154.648C184.516 152.09 183.588 149.359 182.075 147.146C180.734 148.495 179.84 149.463 177.708 151.33H177.674Z" fill="black"/>
<path d="M171.079 161.841C169.161 161.841 167.606 160.278 167.606 158.35C167.606 156.421 169.161 154.858 171.079 154.858C172.997 154.858 174.552 156.421 174.552 158.35C174.552 160.278 172.997 161.841 171.079 161.841Z" fill="#252525" stroke="#252525" stroke-miterlimit="10"/>
<path d="M169.841 159.731C168.987 159.731 168.294 159.035 168.294 158.175C168.294 157.316 168.987 156.62 169.841 156.62C170.696 156.62 171.389 157.316 171.389 158.175C171.389 159.035 170.696 159.731 169.841 159.731Z" fill="white"/>
<path d="M164.023 140.891C154.498 147.287 163.507 160.079 163.472 160.044C163.472 160.044 171.725 158.004 182.178 147.01C182.178 147.01 181.868 146.492 181.112 145.558C178.499 142.377 171.656 135.774 164.023 140.891Z" fill="#D29166"/>
<path opacity="0.13" d="M162.44 142.17C162.853 141.756 163.266 141.444 163.678 141.133C163.713 141.133 163.747 141.064 163.781 141.064C163.885 140.96 164.022 140.891 164.16 140.822C165.741 139.785 167.289 139.266 168.767 139.093C169.249 139.059 169.73 139.024 170.246 139.059C171.277 139.128 172.274 139.335 173.203 139.647C173.615 139.785 173.994 139.958 174.337 140.131C174.819 140.373 175.231 140.58 175.61 140.787C176.229 141.168 176.848 141.583 177.398 141.997C178.189 142.62 179.014 143.346 179.701 144.072C180.08 144.452 180.424 144.867 180.733 145.213C181.077 145.628 181.489 146.112 181.73 146.492C181.833 146.63 181.902 146.769 181.971 146.838C181.971 146.838 182.005 146.907 182.04 146.941C182.074 147.011 182.108 147.08 182.108 147.08C180.561 148.705 179.048 150.157 177.604 151.401C176.71 150.157 175.644 148.912 174.303 147.737C168.561 142.654 164.435 141.825 162.406 142.239L162.44 142.17Z" fill="black"/>
<path opacity="0.14" d="M165.123 63.3422C165.57 65.2092 168.527 67.8713 169.558 69.0813C169.833 69.3925 170.487 70.2569 170.693 70.9829C170.934 71.8818 170.487 72.3312 170.487 72.3312C170.487 72.3312 174.682 72.9535 176.676 75.3736C183.037 83.0488 188.264 93.8354 184.137 101.165C195.037 96.3592 208.035 87.2321 216.046 85.9875C249.709 80.767 256.689 117.725 259.543 129.273C264.185 148.046 258.924 163.465 258.924 163.465C258.924 163.465 285.779 176.533 293.687 205.989C297.916 221.824 306.169 257.123 300.323 278.247C294.478 299.37 274.569 306.389 280.758 308.359C311.739 318.351 326.043 235.618 326.043 235.618C326.043 235.618 343.923 237.312 303.762 109.047C300.942 100.024 296.782 109.774 275.257 102.513C274.019 102.098 271.028 100.335 269.308 98.1224C266.661 94.6997 263.222 90.1016 259.234 85.7108C255.004 81.0435 250.569 77.7937 247.99 76.0305C243.898 73.2647 238.947 70.4297 233.239 68.3207C219.897 63.3768 208.998 64.2066 208.55 64.1721C208.103 64.1375 207.966 64.172 207.381 64.2066C205.353 64.3103 201.639 64.656 198.098 65.3129C193.903 66.1081 189.501 67.7676 189.501 67.7676C189.501 67.7676 190.052 66.7304 190.189 65.2438C190.292 64.1375 190.258 62.6163 189.398 61.4754C187.954 59.5393 184.619 59.885 182.315 61.3025C179.633 62.962 178.842 65.5203 178.842 65.5203C178.842 65.5203 179.048 64.6214 178.739 63.446C178.395 62.1668 177.192 59.6776 173.616 57.8106C172.79 57.3958 170.865 56.4969 168.596 57.1884C166.67 57.7761 165.638 59.4702 165.226 60.9222C164.916 61.9248 165.088 63.1003 165.123 63.2731V63.3422Z" fill="#523618"/>
<path d="M92.952 367.445C88.5851 359.009 88.8258 348.222 91.8173 337.332C94.8088 326.441 100.448 315.309 106.775 304.349C112.448 294.565 119.359 284.194 130.328 277.244C121.698 301.514 112.517 326.96 109.938 349.432C109.56 352.717 109.147 356.105 107.394 359.493C105.606 362.916 102.03 366.442 97.869 367.687C93.7084 368.931 89.7198 366.822 92.952 367.41V367.445Z" fill="#F1DEA6"/>
<path opacity="0.14" d="M126.504 287.688C126.504 287.688 126.607 287.688 126.607 287.722C119.18 308.673 113.129 326.651 109.965 347.326C109.174 352.546 109.587 355.312 108.487 359.046C107.386 362.814 106.596 364.923 101.197 369.487C100.441 370.144 99.306 370.524 98.3432 370.213C96.899 369.763 96.6928 367.966 96.7615 366.548C97.4836 352.477 101.128 338.579 106.527 325.372C111.856 312.303 118.905 299.892 126.539 287.688H126.504Z" fill="black"/>
<path d="M102.438 390.641C111.929 408.342 128.915 423.796 145.316 435.274C161.546 446.614 180.561 458.853 195.587 462.932C195.862 463.001 196.137 462.829 196.171 462.517C197.237 454.22 200.916 442.949 201.501 433.58C201.501 433.511 201.501 433.476 201.535 433.407C214.189 408.376 222.475 382.896 229.009 355.584C229.043 355.411 229.009 355.204 228.837 355.1C224.745 352.058 219.862 350.156 214.808 349.637C213.432 349.499 213.02 343.345 211.885 344.14C210.406 345.212 208.584 350.502 208.206 352.3C205.146 366.163 201.26 383.277 193.386 392.162C193.317 392.231 184.549 385.558 175.437 381.755C160.514 375.532 140.537 369.309 133.625 366.958C133.419 366.889 133.178 366.958 133.075 367.2C127.092 378.506 114.37 389.88 102.438 390.675" fill="#D0895A"/>
<path d="M109.965 319.078C112.991 318.871 118.217 319.597 121.106 320.461C130.218 323.089 134.86 329.105 136.407 333.392C136.51 333.703 136.304 334.048 135.96 334.048C134.138 334.048 132.968 334.048 131.868 334.048C129.117 334.048 127.708 334.048 125.885 334.256C125.335 334.325 123.994 334.394 123.616 334.429C123.547 334.429 123.478 334.429 123.41 334.394C122.756 334.083 118.974 332.493 116.154 333.011C114.057 333.426 110.481 335.155 108.865 336.538C106.871 338.232 105.598 339.546 103.363 340.652C103.088 340.79 102.744 340.652 102.676 340.341C101.988 337.229 101.369 334.118 101.3 330.937C101.231 327.653 100.681 324.057 102.366 321.257C102.435 321.153 102.538 321.084 102.641 321.049C103.226 320.876 105.495 319.459 110.034 319.148" fill="#F1F1F1"/>
<path d="M95.1558 390.987C102.824 391.057 109.563 390.054 116.165 386.113C122.388 382.413 129.3 374.012 132.669 367.927C132.876 367.547 132.498 367.098 132.085 367.236C130.847 367.72 129.747 368.135 128.956 368.446C118.297 372.664 119.087 372.007 111.248 375.119C109.013 376.017 97.8034 381.238 95.981 382.863C92.3018 386.113 93.8491 386.389 95.1901 390.987" fill="#F1F1F1"/>
<g opacity="0.14">
<path d="M128.583 368.623C129.408 368.277 129.615 368.173 129.924 368.07C129.924 368.07 130.062 368.035 130.199 367.966C131.059 367.655 131.024 367.689 131.334 367.551C131.54 367.447 131.781 367.378 131.987 367.274C132.056 367.274 132.159 367.205 132.297 367.24C132.468 367.24 132.537 367.378 132.572 367.413C132.572 367.447 132.675 367.551 132.675 367.655C132.675 367.793 132.675 367.897 132.572 368.07C132.537 368.173 132.503 368.208 132.469 368.242C132.297 368.519 132.297 368.554 132.125 368.83C131.471 369.936 130.749 371.008 130.749 371.008C130.44 371.458 130.096 372.011 129.615 372.702C129.374 373.013 128.789 373.878 127.93 374.984C126.726 376.54 125.695 377.681 125.351 378.096C124.251 379.34 122.531 381.242 120.021 383.351C119.058 384.18 118.199 384.803 117.58 385.252C118.646 383.973 119.781 382.383 120.812 380.446C122.91 376.574 123.7 372.91 124.044 370.351C124.835 370.075 125.557 369.798 126.245 369.556C126.829 369.349 127.551 369.072 128.514 368.657L128.583 368.623Z" fill="black"/>
</g>
<path d="M117.124 335.224C125.48 333.53 138.064 333.979 143.153 334.256C144.632 334.325 146.042 334.913 147.142 335.916C149.515 338.025 155.532 342.726 155.188 344.075C154.122 348.258 150.615 355.864 147.52 358.526C136.964 367.515 114.03 375.64 97.2842 381.966C96.9403 382.105 96.5621 381.863 96.5965 381.482C97.6968 370.696 98.7971 359.287 99.8974 348.535C100.104 346.529 100.207 342.657 100.241 341.551C100.241 341.378 100.344 341.205 100.516 341.136C102.27 340.375 112.001 336.227 117.09 335.224" fill="#F1DEA6"/>
<g opacity="0.14">
<path d="M102.754 340.822C110.628 335.706 145.012 336.397 147.66 336.466C147.763 336.466 147.866 336.501 147.935 336.57C148.141 336.743 148.554 337.088 148.967 337.434C149.276 337.711 149.104 338.229 148.692 338.264C131.809 339.647 116.198 342.136 111.006 343.519C108.565 344.176 107.12 345.04 106.398 346.147C105.676 347.218 105.298 349.189 105.298 351.229C105.298 353.441 118.295 349.12 122.078 348.255C130.571 346.285 155.156 343.554 155.225 343.761C155.225 343.83 155.225 343.934 155.225 343.934C155.053 344.729 129.677 352.128 122.078 354.444C116.645 356.103 104.748 361.151 103.923 361.808C103.82 361.877 103.751 362.015 103.716 362.119C103.51 362.845 103.132 365.818 103.407 366.994C103.476 367.236 103.991 368.066 104.163 368.238C107.636 371.488 137.241 361.704 145.803 358.766C146.319 358.593 146.663 359.284 146.25 359.595C144.256 361.082 139.683 364.228 132.909 367.478C127.476 370.071 128.439 369.898 96.9426 382.171C96.6675 382.275 96.53 382.794 96.4612 382.482C94.0543 371.35 95.7735 360.079 97.9397 348.843C98.3867 346.492 98.9025 344.072 100.072 341.998C101.241 339.889 102.169 341.203 102.788 340.788" fill="black"/>
</g>
<path d="M18.3074 312.267C14.1124 321.083 17.5165 352.268 19.7171 364.61C21.4708 374.429 26.3534 395.968 30.8234 400.497C33.918 403.608 39.3165 405.475 43.5458 406.547C56.0618 409.762 68.1308 409.244 80.8876 407.169C85.0481 406.478 92.2345 404.023 93.3348 400.67C98.5269 385.112 100.384 370.073 101.553 360.6C103.1 347.773 107.089 322.051 103.1 311.576C101.037 306.148 90.0682 302.241 62.2166 303.209C33.024 304.212 21.5051 305.56 18.3074 312.267Z" fill="#F1F1F1"/>
<path d="M28.3379 309.606C28.3379 308.327 42.7451 307.255 60.522 307.255C78.2989 307.255 92.7061 308.292 92.7061 309.606C92.7061 310.92 78.2989 311.957 60.522 311.957C42.7451 311.957 28.3379 310.885 28.3379 309.606Z" fill="#252525"/>
<g opacity="0.14">
<path d="M76.7218 407.791C79.4382 407.48 78.0972 407.688 82.2577 406.927C82.7391 406.823 83.8051 406.547 84.5271 406.339C85.4211 406.063 86.8653 405.544 88.447 404.887C90.1318 404.161 91.576 403.193 92.3324 402.363C92.9857 401.672 93.3296 400.877 93.364 400.739C93.9829 398.906 94.8425 396.382 96.0116 392.026C99.0719 380.237 100 373.08 101.479 361.913C103.301 348.223 105.399 333.011 104.711 319.735C104.539 316.381 103.679 312.647 103.06 311.23C102.923 310.953 102.579 310.884 102.338 311.057C94.9801 316.381 92.2293 317.038 87.4842 318.732C87.3123 318.801 87.1747 318.974 87.1747 319.147C86.9684 322.604 84.9742 354.1 82.7048 370.384" fill="black"/>
</g>
<g opacity="0.14">
<path d="M28.9648 305.941C27.8645 306.702 26.7298 307.601 25.9389 308.673C25.1481 309.744 24.7355 311.196 25.2169 312.441C25.939 314.343 29.8588 315.933 31.8531 316.313C35.4291 317.005 37.1827 317.212 40.9307 317.523C33.813 317.973 27.0049 316.832 21.8816 315.207C21.1595 314.965 17.8585 313.375 18.0305 312.891C18.3055 312.234 18.9589 310.885 19.8185 310.125C22.0879 307.981 24.426 307.048 28.9304 305.941" fill="black"/>
</g>
<g opacity="0.14">
<path d="M22.7094 317.833C22.9157 317.556 22.8126 317.176 22.4688 317.072C21.7811 316.865 20.8183 316.554 20.0619 316.173C19.271 315.793 18.5489 315.309 18.0331 314.998C17.758 314.825 17.3798 314.998 17.3111 315.275C16.9328 317.003 15.97 321.982 16.3139 328.274C16.8984 339.406 17.483 349.744 18.5146 356.796C20.1994 368.517 25.3227 393.444 30.2053 399.736C32.406 402.571 33.2999 402.363 35.4662 403.642C35.7756 403.815 36.5321 404.126 37.2886 404.438C37.7356 404.61 38.1482 404.057 37.8387 403.677C35.6725 401.084 31.3056 394.999 27.6608 384.351C23.8441 373.115 21.2653 352.682 20.3713 342.967C18.7552 324.955 21.4716 319.32 22.6751 317.764L22.7094 317.833Z" fill="black"/>
</g>
<g opacity="0.14">
<path d="M76.6153 303.173C80.3976 303.657 82.4951 304.106 90.9194 306.18C92.5354 306.561 94.1171 307.114 95.0799 308.393C95.8019 309.326 95.2174 311.297 94.5985 312.576C94.4266 312.957 94.8048 313.371 95.183 313.233C98.0713 312.161 100.306 310.502 101.2 309.776C101.441 309.603 101.441 309.257 101.2 309.05C100.822 308.739 100.306 308.289 99.9281 308.013C99.3092 307.598 98.5871 307.218 98.3808 307.114C91.7446 303.691 78.5409 303.173 76.5809 303.173" fill="black"/>
</g>
<g opacity="0.14">
<path d="M119.537 320.049C123.25 323.437 124.626 329.418 123.491 334.362C124.179 334.293 125.279 334.258 126.173 334.189C128.064 334.051 127.411 334.12 130.265 334.051C130.574 334.051 131.778 334.051 131.984 334.051C132.397 334.051 132.672 334.051 133.462 334.051C133.806 334.051 134.528 334.051 135.01 334.051C135.388 334.051 136.007 334.051 136.66 334.051C134.288 326.687 127.583 321.95 119.537 320.083" fill="black"/>
</g>
<path opacity="0.14" d="M507.501 268.772C468.268 289.584 431.545 312.575 395.132 338.021C358.718 363.466 318.763 403.225 297.582 429.258C312.574 384.487 350.191 354.512 384.026 324.71C417.86 294.909 460.153 272.609 507.501 268.772Z" fill="#131313"/>
<path d="M272.112 94.1481C279.196 86.5767 280.365 85.0209 280.365 85.0209C280.365 85.0209 301.339 102.204 319.116 106.698C343.77 112.921 380.63 107.839 389.674 104.312C389.674 125.333 374.751 152.541 383.381 164.331C407.416 197.175 445.927 202.603 511.086 268.118C403.84 305.733 303.024 404.162 298.245 433.79C292.365 423.107 282.221 399.875 280.743 396.556C280.502 396.002 280.812 399.183 277.923 406.547C274.347 415.813 267.058 425.216 267.058 425.216C267.058 425.216 232.329 374.948 208.535 351.023C210.804 337.575 209.188 324.091 208.122 292.353C207.607 276.899 207.778 261.169 208.569 254.323C224.008 273.788 232.432 275.897 249.625 280.806C269.052 286.372 294.634 280.495 305.534 264.868C321.11 242.603 321.007 210.866 318.36 192.127C312.377 149.776 268.983 97.7437 268.983 97.7437L272.044 94.1136L272.112 94.1481Z" fill="white"/>
<path d="M52.3788 188.599C57.8116 195.928 58.6025 206.507 54.3388 214.597C51.6224 219.714 47.2211 223.69 43.37 228.012C39.519 232.333 36.0117 237.484 35.8054 243.293C35.5991 249.689 39.4846 255.566 44.0577 259.957C48.6653 264.347 54.1325 267.805 58.5681 272.403C62.3848 276.344 65.445 281.565 65.5825 286.993C65.5825 287.511 66.2703 287.615 66.4766 287.131C69.7431 278.211 68.0927 267.528 62.1785 260.095C59.187 256.396 55.1984 253.319 53.4792 248.859C51.8287 244.537 52.6539 239.628 54.27 235.272C55.8861 230.95 58.2242 226.905 59.7028 222.514C63.5195 211.071 60.6311 197.588 52.4132 188.599" fill="#FDEFE3"/>
<path opacity="0.14" d="M266.499 424.419C266.499 424.419 262.167 432.336 255.462 440.461C248.894 448.412 240.917 456.364 234.109 461.861C228.641 466.252 223.209 469.882 217.466 472.752C215.713 473.616 213.925 474.515 211.312 475.552C209.936 476.071 208.114 476.762 206.36 477.246C205.363 477.523 204.538 477.73 202.715 477.488C201.649 477.35 201.271 477.384 199.965 476.693C199.483 476.451 198.692 476.174 197.867 475.69C194.807 473.892 186.933 469.225 186.623 468.845C195.495 473.305 197.764 475.587 203.541 474.618C210.968 473.374 219.667 464.765 229.088 452.423C272.585 395.309 272.482 377.089 272.482 364.988C276.161 373.217 293.113 417.366 303.497 444.54C303.669 444.99 303.841 445.439 304.013 445.889C308.551 457.816 311.715 466.148 311.715 466.148L300.196 438.11L298.305 433.857L295.657 428.81L292.597 422.587C292.597 422.587 290.981 419.233 288.987 414.911C287.439 411.592 285.926 408.135 284.448 404.92C282.488 400.702 280.7 396.311 280.665 396.45C280.528 397.936 280.115 400.425 279.187 403.157C278.637 404.816 277.605 407.478 276.918 409.172C275.852 411.662 275.542 412.076 274.201 414.497C272.654 417.332 269.215 422.656 267.118 425.318C267.118 425.318 267.049 425.214 266.808 424.903L266.533 424.488L266.499 424.419Z" fill="#131313"/>
<path opacity="0.14" d="M190.05 390.021C195.792 392.683 196.789 394.412 198.887 397.731C203.391 404.922 205.523 413.599 204.87 422.07C203.804 410.108 198.405 398.353 190.05 390.021Z" fill="black"/>
</g>
<defs>
<clipPath id="clip0_15447_64915">
<rect width="299" height="622" fill="white"/>
</clipPath>
</defs>
</svg>
