<svg width="585" height="820" viewBox="0 0 585 820" fill="none" xmlns="http://www.w3.org/2000/svg">
<path d="M542.044 696.109C546.211 700.353 537.51 712.389 529.911 721.179C520.958 731.538 509.551 740.938 498.079 747.422C495.092 749.105 492.041 750.627 489.306 751.264C482.88 752.766 480.123 750.271 473.79 746.067C486.212 726.073 474.51 716.867 487.054 703.404C489.126 701.178 492.847 697.859 494.466 694.634C496.086 691.409 498.964 687.808 502.448 685.549C506.003 683.236 509.457 682.766 512.027 683.202C514.596 683.631 516.546 684.825 519.022 685.381C521.267 685.884 523.908 685.85 526.298 686.152C534.905 687.238 542.8 691.992 542.044 696.109Z" fill="#F2DFA7"/>
<path d="M484.427 781.59C482.779 787.135 485.427 790.045 496.201 797.146C505.694 803.401 518.943 809.107 536.553 814.498C540.152 815.597 558.043 820.163 560.749 818.93C569.543 814.907 581.375 810.917 584.016 804.682C587.226 797.119 551.005 784.715 533.632 768.629C531.249 766.424 529.321 763.742 526.01 761.449C522.7 759.155 517.978 757.017 513.423 756.346C508.767 755.662 505.211 756.614 503.002 758.036C500.793 759.457 499.583 761.328 497.525 762.823C495.661 764.177 493.128 765.21 491.005 766.444C483.383 770.896 481.448 778.13 484.427 781.59Z" fill="#F2DFA7"/>
<path opacity="0.1412" d="M561.181 786.867C566.175 789.851 572.854 793.136 577.899 796.683C578.136 796.851 578.367 797.011 578.59 797.179C580.778 798.782 582.606 800.431 583.786 802.141C581.13 799.667 577.661 798.031 574.883 796.696C560.094 789.609 546.283 783.354 534.142 772.76C532.084 770.963 526.42 766.122 524.434 768.402C520.476 772.941 522.491 777.138 526.679 780.571C545.031 795.61 559.144 800.994 581.454 808.135C576.46 810.448 565.261 808.591 559.986 806.901C545.772 802.349 535.733 798.708 521.922 789.998C518.202 787.651 512.228 783.675 511.192 784.99C509.191 787.524 508.853 787.323 506.91 790.407C505.204 793.116 505.96 794.779 508.457 796.891C510.954 799.003 521.965 804.789 525.039 806.09C536.654 811.005 540.785 813.982 553.401 816.979C553.574 817.019 558.057 817.75 558.237 817.77C560.519 818.018 559.893 817.958 562.563 818.105C562.203 818.226 560.619 818.983 560.324 819.044C559.122 819.285 557.151 819.024 555.632 818.809C550.27 818.052 543.491 816.436 536.964 814.612C526.715 811.749 515.373 807.29 507.716 803.582C504.816 802.181 496.46 797.756 496.46 797.756C496.46 797.756 499.382 790.97 500.605 788.188C505.219 777.728 512.941 768.308 523.218 762.28C524.232 761.683 525.132 760.865 525.132 760.865C525.132 760.865 526.168 761.462 527.946 762.957C530.335 764.962 532.818 768.174 537.007 771.533C541.462 775.107 548.32 779.438 553.675 782.603C556.856 784.48 559 785.566 561.181 786.867Z" fill="black"/>
<g opacity="0.1412">
<mask id="mask0_128_1861" style="mask-type:luminance" maskUnits="userSpaceOnUse" x="464" y="684" width="83" height="83">
<path d="M546.384 707.963L514.092 766.672C513.948 766.933 513.603 767.034 513.322 766.899L464.794 743.734C464.513 743.6 464.405 743.278 464.549 743.017L496.841 684.308C496.985 684.047 497.331 683.946 497.611 684.08L546.139 707.246C546.42 707.38 546.528 707.702 546.384 707.963Z" fill="white"/>
</mask>
<g mask="url(#mask0_128_1861)">
<path d="M496.186 691.932C496.244 691.617 495.913 692.006 493.933 695.566C493.53 696.297 491.911 698.422 490.256 700.105C488.637 701.748 486.118 704.262 485.434 705.047C475.546 716.425 469.364 734.334 468.486 736.017C468.428 736.124 468.414 736.238 468.442 736.359C468.514 736.647 468.666 737.244 468.802 737.814C468.917 738.276 469.608 738.39 469.839 737.968C479.871 719.73 490.27 705.932 494.603 701.486C496.647 699.388 499.576 696.37 501.008 695.707C503.332 694.627 509.673 696.666 511.163 698.523C512.753 700.501 498.036 713.22 495.035 716.552C488.306 724.022 471.933 747.073 472.134 747.227C472.206 747.281 472.3 747.328 472.314 747.335C473.257 747.563 494.855 725.973 501.591 719.697C504.664 716.834 519.41 702.941 522.39 701.164C523.318 700.608 525.794 701.842 526.628 702.284C527.535 702.754 529.226 704.584 529.298 704.832C530.853 709.941 501.015 738.43 493.221 745.457C492.753 745.88 493.286 746.584 493.869 746.315C496.553 745.095 502.123 745.518 509.371 740.087C514.991 735.876 527.211 726.683 539.029 709.19C539.216 708.915 541.245 705.288 541.245 705.288C541.245 705.288 533.854 700.896 526.902 698.087C521.44 695.874 514.847 693.407 508.888 692.817C507.492 692.676 500.986 691.516 498.115 691.644" fill="black"/>
</g>
</g>
<path d="M405.169 260.625C404.226 260.068 403.283 259.512 402.348 258.948C402.211 259.854 401.168 262.1 401.031 262.998C402.182 262.764 404.384 261.711 405.169 260.625Z" fill="#141414"/>
<path d="M195.411 632.104C199.053 634.115 202.809 635.892 206.861 634.746C237.174 626.15 262.262 596.427 268.854 586.35C288.84 555.782 279.7 563.224 282.859 531.557C286.019 499.896 268.02 494.935 260.06 464.689C275.036 532.529 241.463 463.529 306.177 591.204C314.396 607.416 326.328 643.992 353.15 676.819C384.859 715.62 405.572 738.109 468.148 778.687C478.223 785.217 486.766 795.516 498.619 799.62C502.836 801.081 495.107 794.222 511.242 777.507C521.138 767.255 524.506 766.303 526.665 762.95C527.392 761.824 510.148 741.2 509.4 740.093C497.511 722.62 489.659 710.994 483.815 692.026C475.661 665.541 472.394 648.384 462.153 627.679C482.203 625.037 495.834 611.647 490.955 607.101C490.192 606.391 482.434 630.984 495.82 688.331C496.403 690.826 496.057 691.972 496.057 691.972C496.057 691.972 497.784 691.617 498.41 691.637C501.109 691.711 507.493 692.294 514.646 694.399C530.249 698.985 538.122 709.894 543.138 703.847C572.811 668.083 577.05 615.871 582.973 580.483C586.715 558.115 588.169 447.786 493.351 393.416C427.652 355.741 396.893 380.059 391.812 314.733C395.986 307.539 414.201 209.325 410.674 164.114C410.264 158.81 410.818 153.487 408.875 148.492C400.318 126.426 379.85 66.3831 372.474 43.3048C365.176 20.4679 365.09 24.0617 365.227 5.85786C365.363 -11.9236 349.962 24.0885 330.891 23.2906C302.327 22.0972 303.32 5.72375 318.059 28.554C342.657 66.658 332.524 121.665 330.761 148.25C327.803 192.731 280.736 255.717 263.5 262.924C245.522 247.537 215.044 249.36 196.599 264.259C178.153 279.157 171.403 304.166 175.901 326.521C180.636 350.041 196.08 370.351 205.076 392.772C221.219 432.981 215.821 503.946 205.112 536.72C201.557 532.201 195.641 550.183 180.881 551.598C148.395 554.702 97.981 551.028 111.684 569.856C123.227 585.713 163.421 614.43 195.411 632.104Z" fill="#D08A5A"/>
<path d="M131.619 325.233C143.342 349.337 190.719 368.983 198.765 385.517C225.213 439.907 209.243 462.999 226.062 465.909C276.418 474.612 302.355 450.971 336.504 422.884C379.404 387.596 400.297 355.338 394.561 328.606C390.279 308.632 350.495 329.317 315.633 301.511C301.254 290.046 274.713 252.129 263.19 241.207C236.375 215.769 199.981 216.841 181.313 227.16C185.069 227.536 188.517 225.833 189.121 221.957C189.97 216.513 185.883 215.561 182.327 216.768C179.218 217.82 176.368 220.65 176.433 224.431C176.433 224.431 176.872 221.924 176.908 221.749C177.347 219.463 175.634 217.244 174.72 216.412C172.892 214.756 169.294 212.296 165.782 213.415C162.644 214.414 161.37 217.841 162.148 219.812C163.587 223.479 170.733 226.684 167.135 229.185C134.404 251.607 109.129 278.976 131.619 325.233Z" fill="#D08A5A"/>
<path opacity="0.051" d="M266.566 262.294C246.645 237.446 208.286 260.464 189.776 273.344C171.266 286.224 134.404 315.558 154.332 340.406C174.253 365.255 215.534 367.91 246.523 346.34C277.519 324.771 286.487 287.143 266.566 262.294Z" fill="black"/>
<mask id="mask1_128_1861" style="mask-type:luminance" maskUnits="userSpaceOnUse" x="173" y="233" width="102" height="111">
<path d="M173.684 255.408L244.68 343.953H274.317V233.952H173.684V255.408Z" fill="white"/>
</mask>
<g mask="url(#mask1_128_1861)">
<path d="M186.206 253.182C205.263 230.694 223.363 231.834 236.663 237.197C246.997 241.368 261.362 250.56 266.162 259.069C268.055 262.421 270.92 266.498 272.057 270.145C275.986 282.731 274.244 295.725 270.848 304.307C266.127 316.248 259.023 329.893 238.124 343.94L173.669 263.555C180.578 260.906 184.637 255.033 186.206 253.182Z" fill="#F2D2B6"/>
</g>
<mask id="mask2_128_1861" style="mask-type:luminance" maskUnits="userSpaceOnUse" x="123" y="249" width="122" height="122">
<path d="M173.684 255.408L244.68 343.953L236.275 370.424L123.055 339.226L151.597 249.32L173.684 255.408Z" fill="white"/>
</mask>
<g mask="url(#mask2_128_1861)">
<path d="M196.462 356.096C186.66 356.693 172.799 354.56 160.953 347.487C157.52 345.435 154.137 341.714 151.223 339.079C143.824 332.374 138.434 316.939 137.074 306.52C135.325 293.11 139.283 276.616 167.833 265.975C170.179 265.097 177.376 263.139 182.075 257.735L246.53 338.12C226.148 352.79 210.092 355.264 196.462 356.096Z" fill="#F2D2B6"/>
</g>
<mask id="mask3_128_1861" style="mask-type:luminance" maskUnits="userSpaceOnUse" x="204" y="232" width="75" height="70">
<path d="M204.738 262.261L246.832 232.96L278.599 272.58L236.505 301.88L204.738 262.261Z" fill="white"/>
</mask>
<g mask="url(#mask3_128_1861)">
<path d="M212.568 258.325C211.302 260.524 209.942 264.312 211.309 268.262C212.676 272.211 215.771 276.603 219.017 279.445C221.802 281.879 225.494 283.696 229.287 283.998C234.238 284.387 239.578 281.839 242.37 279.593C244.983 277.494 248.783 272.935 253.367 270.313C254.936 269.422 258.513 268.322 260.161 268.255C263.428 268.128 269.711 270.206 272.921 272.948C271.481 267.222 269.934 264.587 267.444 260.444C263.802 254.389 259.65 251.486 257.757 249.843C254.684 247.181 251.589 245.19 251.589 245.19C251.589 245.19 245.983 245.666 243.601 245.894C239.009 246.343 235.67 246.196 231.165 247.121C227.372 247.905 224.76 249.146 221.363 250.903C218.103 252.599 213.777 256.22 212.568 258.325Z" fill="#D9A171"/>
<path opacity="0.102" d="M251.589 245.19C251.589 245.19 253.684 246.538 256.426 248.737C259.463 251.171 263.917 254.745 267.35 260.229C268.264 261.691 269.538 263.91 270.128 265.171C271.834 268.811 272.741 272.016 272.921 272.948C270.942 271.192 268.667 270.374 268.667 270.374C268.667 270.374 267.581 265.855 266.271 263.494C264.788 260.819 261.543 255.455 257.541 251.835C254.921 249.461 251.992 246.96 249.524 245.371C250.517 245.284 251.46 245.203 251.589 245.19Z" fill="#523618"/>
</g>
<path d="M250.79 244.432C257.102 249.139 260.966 252.384 264.881 257.339C268.746 262.234 271.999 266.639 272.949 273.21C273.446 268.114 271.848 266.049 269.236 261.55C266.623 257.051 263.039 253.108 259.318 249.347C258.239 248.254 257.123 247.154 255.742 246.403C254.367 245.653 253.338 244.814 250.79 244.432Z" fill="#D08A5A"/>
<path d="M165.811 290.837C168.43 290.328 172.72 290.193 176.397 292.527C180.075 294.867 183.716 298.876 185.717 302.584C187.43 305.762 188.257 309.577 187.487 313.05C186.48 317.583 182.349 321.633 179.247 323.49C176.347 325.227 170.575 327.332 166.581 330.684C165.213 331.831 163.069 334.714 162.536 336.169C161.478 339.052 161.939 345.435 163.853 349.083C158.369 346.173 155.987 343.86 152.439 340.46C147.243 335.485 145.429 330.953 144.278 328.794C142.407 325.294 141.342 321.935 141.342 321.935C141.342 321.935 143.313 317.087 144.227 315.028C145.991 311.052 146.782 308.029 149.02 304.267C150.899 301.102 152.921 299.118 155.692 296.583C158.348 294.156 163.299 291.327 165.811 290.837Z" fill="#D9A171"/>
<path opacity="0.102" d="M141.299 321.995L141.306 322.008C141.349 322.122 142.018 324.228 143.501 327.305C145.149 330.711 147.56 335.7 152.23 340.326C153.475 341.553 155.397 343.323 156.527 344.215C159.794 346.776 162.939 348.674 163.839 349.096C162.594 346.83 162.292 344.383 162.292 344.383C162.292 344.383 157.952 342.13 155.886 340.286C153.555 338.201 148.956 333.782 146.358 329.176C144.659 326.159 142.932 322.947 141.997 320.292C141.637 321.15 141.291 321.975 141.299 321.995Z" fill="#523618"/>
<path d="M141.327 321.948C144.379 328.921 146.358 332.79 150.345 337.698C154.289 342.539 160.197 347.782 166.696 350.497C161.313 349.492 157.34 346.394 153.447 342.787C149.553 339.18 146.516 334.855 143.702 330.463C142.882 329.183 142.069 327.875 141.687 326.434C141.299 324.985 141.004 324.328 141.327 321.948Z" fill="#D08A5A"/>
<path d="M200.276 291.689C189.747 299.587 195.742 315.471 198.405 320.419C201.068 325.367 205.393 335.043 211.366 337.436C212.906 338.053 215.548 339.629 224.062 334.09C229.078 330.832 231.669 327.392 237.822 324.06C245.544 319.883 248.898 314.405 246.364 309.43C243.025 302.866 237.124 299.017 231.74 295.081C217.045 284.327 206.408 287.082 200.276 291.689Z" fill="#D9A171"/>
<path opacity="0.1412" d="M229.769 314.137C228.085 315.31 220.765 320.406 218.218 322.176C218.218 322.176 222.507 326.373 227.617 322.759C232.633 319.266 229.769 314.137 229.769 314.137Z" fill="black"/>
<path d="M229.337 312.849C227.545 314.096 219.736 319.527 217.023 321.418C217.023 321.418 221.356 325.589 226.796 321.74C232.144 318.019 229.337 312.849 229.337 312.849Z" fill="#141414"/>
<path d="M200.197 312.105C196.951 307.8 200.096 301.478 207.062 296.918C214.022 292.359 221.78 291.695 225.033 296C228.279 300.304 225.155 307.566 218.196 312.125C211.229 316.684 203.45 316.41 200.197 312.105Z" fill="#141414"/>
<path opacity="0.1412" d="M225.616 296.945C226.998 301.122 226.364 305.776 223.925 309.39C221.485 313.003 217.275 315.525 212.662 316.128C208.84 316.631 204.371 315.565 202.291 312.467C205.789 312.366 209.092 311.025 211.906 309.188C214.72 307.351 217.109 305.025 219.477 302.718C221.456 300.787 223.435 298.863 225.616 296.945Z" fill="#252525"/>
<mask id="mask4_128_1861" style="mask-type:luminance" maskUnits="userSpaceOnUse" x="215" y="297" width="5" height="10">
<path d="M215.908 297.643H219.873V306.279H215.908V297.643Z" fill="white"/>
</mask>
<g mask="url(#mask4_128_1861)">
<path d="M216.282 302.457C215.426 299.507 216.174 297.971 217.405 297.676C218.636 297.381 219.751 299.004 219.859 301.491C219.917 302.785 219.931 304.844 219.319 306.044C218.844 306.976 216.995 304.931 216.282 302.457Z" fill="#252525"/>
</g>
<mask id="mask5_128_1861" style="mask-type:luminance" maskUnits="userSpaceOnUse" x="204" y="305" width="11" height="7">
<path d="M205.302 305.234L214.242 307.517L213.193 311.08L204.254 308.797L205.302 305.234Z" fill="white"/>
</mask>
<g mask="url(#mask5_128_1861)">
<path d="M210.158 306.801C207.329 305.253 205.544 305.514 204.918 306.547C204.285 307.572 205.674 309.007 208.222 309.758C209.553 310.147 211.669 310.71 213.079 310.476C214.166 310.301 212.54 308.102 210.158 306.801Z" fill="#252525"/>
</g>
<mask id="mask6_128_1861" style="mask-type:luminance" maskUnits="userSpaceOnUse" x="215" y="297" width="5" height="10">
<path d="M215.908 297.643H219.873V306.279H215.908V297.643Z" fill="white"/>
</mask>
<g mask="url(#mask6_128_1861)">
<path d="M216.282 302.457C215.426 299.507 216.174 297.971 217.405 297.676C218.636 297.381 219.751 299.004 219.859 301.491C219.917 302.785 219.931 304.844 219.319 306.044C218.844 306.976 216.995 304.931 216.282 302.457Z" fill="#252525"/>
</g>
<mask id="mask7_128_1861" style="mask-type:luminance" maskUnits="userSpaceOnUse" x="204" y="305" width="11" height="7">
<path d="M205.302 305.234L214.242 307.517L213.193 311.08L204.254 308.797L205.302 305.234Z" fill="white"/>
</mask>
<g mask="url(#mask7_128_1861)">
<path d="M210.158 306.801C207.329 305.253 205.544 305.514 204.918 306.547C204.285 307.572 205.674 309.007 208.222 309.758C209.553 310.147 211.669 310.71 213.079 310.476C214.166 310.301 212.54 308.102 210.158 306.801Z" fill="#252525"/>
</g>
<mask id="mask8_128_1861" style="mask-type:luminance" maskUnits="userSpaceOnUse" x="215" y="297" width="5" height="10">
<path d="M215.908 297.643H219.873V306.279H215.908V297.643Z" fill="white"/>
</mask>
<g mask="url(#mask8_128_1861)">
<path d="M216.282 302.457C215.426 299.507 216.174 297.971 217.405 297.676C218.636 297.381 219.751 299.004 219.859 301.491C219.917 302.785 219.931 304.844 219.319 306.044C218.844 306.976 216.995 304.931 216.282 302.457Z" fill="#474747"/>
</g>
<mask id="mask9_128_1861" style="mask-type:luminance" maskUnits="userSpaceOnUse" x="204" y="305" width="11" height="7">
<path d="M205.302 305.234L214.242 307.517L213.193 311.08L204.254 308.797L205.302 305.234Z" fill="white"/>
</mask>
<g mask="url(#mask9_128_1861)">
<path d="M210.158 306.801C207.329 305.253 205.544 305.514 204.918 306.547C204.285 307.572 205.674 309.007 208.222 309.758C209.553 310.147 211.669 310.71 213.079 310.476C214.166 310.301 212.54 308.102 210.158 306.801Z" fill="#474747"/>
</g>
<path opacity="0.6706" d="M216.289 295.685C217.577 298.642 218.139 301.826 218.693 304.978C218.772 305.42 218.851 305.876 218.75 306.319C218.65 306.761 218.34 307.19 217.872 307.311C217.347 307.452 216.778 307.157 216.462 306.734C216.145 306.319 216.03 305.802 215.922 305.306C215.605 303.858 215.289 302.41 214.972 300.955C214.771 300.023 214.562 299.071 214.699 298.125C214.835 297.18 215.368 296.241 216.289 295.685Z" fill="#141414"/>
<path opacity="0.6706" d="M203.263 305.668C206.322 307.076 209.38 308.491 212.439 309.899C212.748 310.04 213.072 310.187 213.418 310.208C213.763 310.221 214.144 310.073 214.274 309.772C214.461 309.343 214.072 308.893 213.698 308.585C211.431 306.728 208.567 305.615 205.652 304.904C205.112 304.777 204.544 304.656 204.011 304.797C203.479 304.944 202.946 305.527 203.263 305.668Z" fill="#141414"/>
<path d="M238.153 257.024C232.698 252.565 218.866 256.83 218.866 256.83C218.866 256.83 214.541 269.643 221.723 275.838C228.905 282.033 237.455 282.121 241.766 276.757C246.379 271.011 245.508 263.038 238.153 257.024Z" fill="white"/>
<path opacity="0.1412" d="M236.455 264.795C238.067 266.532 241.269 269.723 242.738 275.449C244.148 273.042 244.789 270.561 244.558 267.826C244.328 265.117 243.069 262.274 241.161 260.001C239.715 261.557 238.758 262.643 236.455 264.795Z" fill="black"/>
<path d="M229.423 276.468C227.225 276.468 225.443 274.808 225.443 272.761C225.443 270.713 227.225 269.053 229.423 269.053C231.621 269.053 233.403 270.713 233.403 272.761C233.403 274.808 231.621 276.468 229.423 276.468Z" fill="#252525" stroke="#252525" stroke-width="0.883935" stroke-miterlimit="10"/>
<path d="M227.97 274.343C226.976 274.343 226.17 273.592 226.17 272.667C226.17 271.741 226.976 270.99 227.97 270.99C228.963 270.99 229.769 271.741 229.769 272.667C229.769 273.592 228.963 274.343 227.97 274.343Z" fill="white"/>
<path d="M219.973 254.684C209.516 262.18 220.866 275.148 220.822 275.094C220.822 275.094 230.135 272.305 241.276 259.867C241.276 259.867 240.887 259.324 239.951 258.412C236.691 255.241 228.321 248.697 219.973 254.684Z" fill="#D39266"/>
<path opacity="0.1294" d="M218.254 256.173C218.261 256.166 218.268 256.159 218.276 256.146C218.729 255.71 219.175 255.314 219.614 254.959C219.657 254.925 219.693 254.892 219.737 254.865C219.866 254.758 220.003 254.664 220.132 254.57C221.867 253.356 223.594 252.679 225.285 252.398C225.818 252.317 226.401 252.264 226.976 252.243C228.157 252.223 229.308 252.378 230.409 252.659C230.877 252.787 231.345 252.927 231.762 253.082C232.345 253.289 232.842 253.497 233.288 253.698C234.044 254.054 234.771 254.449 235.447 254.865C236.419 255.482 237.39 256.186 238.254 256.89C238.736 257.286 239.168 257.668 239.542 258.023C239.988 258.452 240.478 258.942 240.802 259.29C240.931 259.431 241.032 259.552 241.111 259.646C241.111 259.646 241.111 259.652 241.118 259.652C241.147 259.686 241.169 259.719 241.19 259.746C241.248 259.827 241.284 259.874 241.284 259.874C239.628 261.724 238.009 263.36 236.462 264.802C235.361 263.555 234.015 262.308 232.36 261.134C225.364 256.159 220.55 255.562 218.254 256.173Z" fill="black"/>
<path d="M177.779 300.593C172.964 296.087 159.694 299.252 159.694 299.252C159.694 299.252 154.757 311.012 161.068 317.261C167.38 323.51 175.404 324.1 179.816 319.32C184.537 314.21 184.271 306.674 177.779 300.593Z" fill="white"/>
<path opacity="0.1412" d="M175.649 307.78C177.038 309.503 179.823 312.695 180.809 318.159C182.299 315.98 183.076 313.694 183.04 311.113C183.011 308.558 182.025 305.816 180.391 303.57C178.938 304.937 177.966 305.903 175.649 307.78Z" fill="black"/>
<path d="M168.51 318.32C166.443 318.32 164.767 316.759 164.767 314.834C164.767 312.908 166.443 311.347 168.51 311.347C170.576 311.347 172.252 312.908 172.252 314.834C172.252 316.759 170.576 318.32 168.51 318.32Z" fill="#252525" stroke="#252525" stroke-width="0.883935" stroke-miterlimit="10"/>
<path d="M167.149 316.242C166.215 316.242 165.458 315.537 165.458 314.666C165.458 313.796 166.215 313.091 167.149 313.091C168.083 313.091 168.84 313.796 168.84 314.666C168.84 315.537 168.083 316.242 167.149 316.242Z" fill="white"/>
<path d="M160.88 297.307C150.553 303.717 160.305 316.564 160.269 316.51C160.269 316.51 169.2 314.452 180.513 303.449C180.513 303.449 180.189 302.913 179.369 302.007C176.533 298.829 169.128 292.191 160.88 297.307Z" fill="#D39266"/>
<path opacity="0.1294" d="M159.168 298.601C159.175 298.595 159.182 298.588 159.189 298.581C159.65 298.199 160.089 297.857 160.528 297.549C160.571 297.522 160.607 297.495 160.65 297.468C160.78 297.381 160.917 297.294 161.046 297.213C162.752 296.181 164.429 295.644 166.026 295.483C166.53 295.437 167.084 295.423 167.624 295.437C168.732 295.484 169.805 295.705 170.819 296.033C171.251 296.181 171.676 296.342 172.065 296.509C172.597 296.744 173.051 296.965 173.454 297.18C174.137 297.555 174.792 297.971 175.397 298.407C176.267 299.044 177.131 299.761 177.887 300.472C178.311 300.874 178.686 301.256 179.017 301.612C179.405 302.041 179.83 302.53 180.111 302.879C180.226 303.02 180.312 303.14 180.377 303.234C180.406 303.268 180.42 303.301 180.442 303.328C180.492 303.409 180.521 303.456 180.521 303.456C178.837 305.092 177.21 306.527 175.656 307.794C174.706 306.553 173.533 305.306 172.065 304.106C165.846 299.017 161.363 298.165 159.168 298.601Z" fill="black"/>
<path opacity="0.1412" d="M162.047 219.497C162.536 221.367 165.731 224.029 166.84 225.27C167.128 225.585 167.854 226.436 168.07 227.16C168.329 228.059 167.833 228.528 167.833 228.528C167.833 228.528 172.36 229.158 174.519 231.572C181.399 239.263 187.048 250.091 182.615 257.446C194.411 252.639 208.48 243.48 217.16 242.226C253.597 236.976 261.154 274.075 264.255 285.647C269.293 304.475 263.601 319.95 263.601 319.95C263.601 319.95 292.683 333.058 301.233 362.6C305.824 378.477 314.755 413.886 308.429 435.093C302.103 456.301 280.535 463.314 287.242 465.319C320.786 475.35 336.259 392.336 336.259 392.336C336.259 392.336 355.619 394.046 312.15 265.352C309.084 256.286 304.579 266.096 281.297 258.808C279.952 258.385 276.735 256.628 274.871 254.389C272.014 250.963 268.271 246.336 263.968 241.938C259.376 237.245 254.569 233.986 251.798 232.243C247.365 229.46 242.017 226.631 235.821 224.498C221.377 219.523 209.589 220.382 209.078 220.335C208.61 220.295 208.452 220.348 207.818 220.375C205.609 220.469 201.593 220.817 197.779 221.495C193.252 222.299 188.473 223.962 188.473 223.962C188.473 223.962 189.071 222.93 189.2 221.434C189.294 220.341 189.258 218.793 188.351 217.659C186.789 215.708 183.176 216.07 180.686 217.499C177.793 219.161 176.922 221.729 176.922 221.729C176.922 221.729 177.145 220.817 176.8 219.658C176.411 218.37 175.123 215.869 171.251 214.019C170.366 213.596 168.258 212.691 165.803 213.402C163.731 214.005 162.601 215.675 162.155 217.15C161.838 218.169 162.003 219.329 162.047 219.497Z" fill="#523618"/>
<path d="M83.9115 524.631C79.1976 516.156 79.4351 505.361 82.6737 494.412C85.9122 483.463 92.0223 472.306 98.8809 461.336C105.013 451.527 112.512 441.114 124.386 434.155C115.038 458.5 105.099 484.026 102.306 506.581C101.896 509.88 101.464 513.273 99.5357 516.692C97.607 520.112 93.7279 523.659 89.2299 524.912C84.7319 526.166 80.3923 524.054 83.9115 524.631Z" fill="#F2DFA7"/>
<path opacity="0.1412" d="M120.255 444.608C120.291 444.554 120.385 444.594 120.363 444.655C112.339 465.661 105.775 483.697 102.328 504.469C101.464 509.692 101.932 512.475 100.745 516.243C99.5571 520.011 98.6863 522.13 92.8425 526.709C92.0221 527.353 90.7914 527.749 89.7478 527.433C88.1717 526.971 87.9486 525.174 88.0206 523.746C88.7978 509.618 92.7417 495.686 98.5855 482.423C104.365 469.329 111.979 456.851 120.255 444.608Z" fill="black"/>
<path d="M94.1815 547.877C104.444 565.645 122.832 581.14 140.608 592.665C158.175 604.057 178.78 616.334 195.023 620.424C195.325 620.498 195.62 620.31 195.663 620.021C196.815 611.681 200.788 600.403 201.435 590.976C201.442 590.915 201.457 590.855 201.486 590.801C215.181 565.678 224.17 540.126 231.223 512.729C231.273 512.542 231.194 512.341 231.028 512.227C226.61 509.189 221.313 507.272 215.85 506.742C214.361 506.594 213.907 500.419 212.691 501.224C211.086 502.29 209.114 507.62 208.697 509.41C205.401 523.323 201.169 540.474 192.648 549.392C192.583 549.459 183.098 542.767 173.209 538.939C157.067 532.683 135.419 526.461 127.949 524.088C127.711 524.014 127.459 524.108 127.344 524.315C120.867 535.667 107.078 547.065 94.1815 547.877Z" fill="#D08A5A"/>
<path d="M110.071 492.273C119.103 490.57 132.741 491.026 138.247 491.301C139.852 491.381 141.37 491.964 142.579 492.957C145.141 495.062 151.676 499.776 151.302 501.157C150.15 505.347 146.365 512.991 143.004 515.646C131.575 524.678 106.732 532.831 88.6177 539.167C88.2363 539.301 87.8332 539.08 87.8764 538.698C89.0639 527.883 90.2585 516.417 91.446 505.642C91.6691 503.618 91.7914 499.749 91.8274 498.643C91.8346 498.455 91.9497 498.294 92.1368 498.22C94.0368 497.456 104.587 493.305 110.071 492.273Z" fill="#F2DFA7"/>
<g opacity="0.1412">
<path d="M94.5265 497.912C103.062 492.776 140.277 493.473 143.141 493.533C143.256 493.533 143.357 493.574 143.45 493.641C143.673 493.815 144.127 494.17 144.551 494.506C144.904 494.78 144.717 495.31 144.256 495.35C125.976 496.725 109.071 499.226 103.465 500.634C100.817 501.298 99.2691 502.163 98.4631 503.276C97.6787 504.362 97.2613 506.333 97.2613 508.391C97.2613 510.624 111.324 506.273 115.433 505.401C124.645 503.437 151.259 500.674 151.309 500.889C151.331 500.962 151.331 501.056 151.324 501.07C151.129 501.868 123.673 509.297 115.44 511.603C109.553 513.253 96.6783 518.335 95.7715 518.979C95.6564 519.059 95.57 519.173 95.534 519.3C95.3109 520.018 94.8863 523.008 95.1886 524.208C95.2534 524.463 95.8363 525.295 96.0162 525.449C99.7801 528.714 131.827 518.878 141.097 515.934C141.651 515.76 142.04 516.444 141.572 516.773C139.42 518.275 134.461 521.419 127.142 524.671C121.263 527.286 122.313 527.085 88.1789 539.408C87.8838 539.516 87.7255 540.025 87.6607 539.737C85.0411 528.56 86.9194 517.249 89.2584 505.998C89.7478 503.631 90.2876 501.224 91.5758 499.119C92.8568 497.02 93.8428 498.321 94.5265 497.912Z" fill="black"/>
</g>
<path d="M3.06219 469.268C-1.48619 478.099 2.19855 509.411 4.57349 521.801C6.45905 531.644 11.7415 553.261 16.6137 557.8C19.9602 560.918 25.7968 562.782 30.3812 563.868C43.9255 567.086 57.0164 566.583 70.8199 564.498C75.3179 563.814 83.0977 561.34 84.3068 557.974C89.9274 542.372 91.9569 527.272 93.1948 517.772C94.8644 504.912 99.1825 479.084 94.8716 468.578C92.6334 463.127 80.7515 459.204 50.6113 460.17C19.0174 461.169 6.53104 462.53 3.06219 469.268Z" fill="#F2F2F2"/>
<path d="M13.9583 466.593C13.9583 465.292 29.568 464.233 48.8195 464.233C68.0709 464.233 83.6807 465.285 83.6807 466.593C83.6807 467.894 68.0709 468.953 48.8195 468.953C29.568 468.953 13.9583 467.9 13.9583 466.593Z" fill="#252525"/>
<g opacity="0.1412">
<path d="M66.322 565.081C69.2727 564.76 67.819 564.961 72.3026 564.23C72.8351 564.143 73.9939 563.848 74.7639 563.64C75.7499 563.365 77.2827 562.855 79.0244 562.172C80.8595 561.454 82.4068 560.468 83.2489 559.63C83.947 558.933 84.3212 558.155 84.3644 558.014C85.0193 556.177 85.9765 553.656 87.2143 549.271C90.5464 537.444 91.5252 530.249 93.1301 519.059C95.0948 505.321 97.3618 490.047 96.6421 476.724C96.4622 473.365 95.5122 469.603 94.8429 468.202C94.7062 467.927 94.3319 467.84 94.0657 468.021C86.106 473.378 83.1266 474.022 77.9809 475.725C77.7865 475.792 77.6498 475.953 77.6354 476.141C77.4051 479.607 75.246 511.194 72.8063 527.554" fill="black"/>
</g>
<g opacity="0.1412">
<path d="M14.6061 462.885C13.4258 463.649 12.1952 464.555 11.346 465.634C10.4968 466.714 10.0505 468.155 10.5543 469.409C11.3315 471.333 15.592 472.896 17.7583 473.291C21.6229 474.002 23.5301 474.19 27.6035 474.511C19.8814 474.947 12.5118 473.814 6.96308 472.198C6.18583 471.97 2.5947 470.348 2.80341 469.858C3.08408 469.201 3.8253 467.86 4.7321 467.076C7.179 464.93 9.70506 463.978 14.6061 462.885Z" fill="black"/>
</g>
<g opacity="0.1412">
<path d="M7.82668 474.853C8.04978 474.585 7.92025 474.196 7.5676 474.103C6.84073 473.901 5.77559 473.579 4.94796 473.197C4.09154 472.802 3.29268 472.346 2.76731 472.031C2.46505 471.85 2.06926 471.997 1.99009 472.319C1.56548 474.062 0.54353 479.044 0.90337 485.36C1.53669 496.524 2.18435 506.896 3.28546 513.97C5.11345 525.73 10.6549 550.733 15.9446 557.069C18.3123 559.912 19.2911 559.704 21.6517 560.992C21.9971 561.179 22.7888 561.488 23.6236 561.803C24.1202 561.984 24.552 561.434 24.2066 561.052C21.846 558.457 17.1321 552.362 13.2027 541.648C9.0717 530.37 6.26498 509.887 5.31501 500.138C3.5446 482.048 6.51686 476.409 7.82668 474.853Z" fill="black"/>
</g>
<g opacity="0.1412">
<path d="M66.2142 460.123C70.3092 460.592 72.569 461.048 81.7161 463.126C83.4721 463.522 85.1705 464.072 86.2213 465.353C86.9985 466.298 86.3652 468.249 85.6887 469.543C85.4872 469.925 85.9046 470.348 86.3292 470.2C89.4526 469.114 91.8779 467.465 92.8567 466.734C93.1086 466.546 93.123 466.197 92.8783 465.996C92.4753 465.674 91.8996 465.218 91.4966 464.97C90.8129 464.548 90.0572 464.186 89.8125 464.072C82.6229 460.632 68.3229 460.123 66.2142 460.123Z" fill="black"/>
</g>
<g opacity="0.1412">
<path d="M112.677 477.046C116.707 480.459 118.182 486.46 116.944 491.401C117.707 491.348 118.873 491.281 119.859 491.213C121.91 491.066 121.198 491.146 124.307 491.059C124.638 491.046 125.962 491.026 126.171 491.032C126.61 491.046 126.926 491.039 127.768 491.039C128.157 491.039 128.92 491.053 129.431 491.053C129.841 491.053 130.51 491.059 131.208 491.059C128.625 483.657 121.363 478.93 112.677 477.046Z" fill="black"/>
</g>
<path d="M102.335 476.074C105.609 475.859 111.259 476.61 114.411 477.455C124.285 480.097 129.287 486.118 130.978 490.416C131.1 490.731 130.856 491.066 130.489 491.066C128.524 491.059 127.243 491.032 126.041 491.032C123.069 491.032 121.521 491.059 119.549 491.24C118.945 491.294 117.506 491.381 117.074 491.408C116.987 491.415 116.915 491.401 116.836 491.368C116.124 491.066 112.05 489.45 108.977 489.986C106.696 490.389 102.831 492.132 101.068 493.54C98.909 495.257 97.52 496.551 95.1091 497.664C94.814 497.804 94.4543 497.637 94.3823 497.335C93.6554 494.224 92.9645 491.093 92.8997 487.908C92.8349 484.609 92.2376 481.015 94.0368 478.206C94.1015 478.105 94.2095 478.018 94.3319 477.985C94.958 477.797 97.4265 476.396 102.335 476.074Z" fill="#F2F2F2"/>
<path d="M86.2789 548.239C94.584 548.292 101.874 547.287 109.028 543.344C115.75 539.643 123.256 531.208 126.89 525.093C127.121 524.698 126.696 524.255 126.25 524.416C124.926 524.892 123.702 525.321 122.846 525.637C111.309 529.867 112.144 529.204 103.666 532.321C101.234 533.213 89.0928 538.476 87.1353 540.092C83.1627 543.364 84.8396 543.632 86.2789 548.239Z" fill="#F2F2F2"/>
<g opacity="0.1412">
<path d="M122.04 524.644C122.803 524.342 123.573 523.786 124.242 523.518C124.983 523.223 128.625 521.339 129.078 521.158C127.459 524.255 126.819 525.315 126.711 525.469C126.516 525.75 124.796 529.411 123.782 530.645C122.515 532.187 120.593 534.588 119.248 535.955C117.189 538.041 111.655 542.989 110.734 543.619C110.734 543.619 117.405 533.26 117.945 526.669C117.945 526.669 121.493 524.865 122.04 524.644Z" fill="black"/>
</g>
<path opacity="0.1412" d="M370.588 38.3499C370.696 38.37 370.869 38.3633 370.869 38.3633C370.869 38.3633 390.214 97.0716 398.922 121.236C402.089 130.02 407.191 143.758 409.199 149.403C409.796 151.086 409.782 151.643 409.782 151.643C409.782 151.643 410.019 152.655 410.214 154.593C410.43 156.678 410.387 159.005 410.595 163.142C410.79 167.044 411.106 172.22 411.106 177.879C411.106 185.047 410.617 196.499 409.357 210.639C408.875 216.091 408.012 224.975 407.227 230.647C405.781 241.113 404.14 253.196 402.916 262.093C401.419 272.915 395.979 282.067 388.026 290.756C377.044 302.758 359.987 309.711 343.075 309.088C377.526 252.458 391.624 185.288 382.607 120.733C378.447 91.0103 374.518 69.2931 370.588 38.3499Z" fill="#141414"/>
<path opacity="0.1412" d="M532.79 425.626C490.314 446.498 450.552 469.59 411.106 495.109C371.661 520.628 328.422 560.516 305.493 586.651C321.722 541.715 362.463 511.67 399.102 481.76C435.748 451.842 481.556 429.468 532.79 425.626Z" fill="#141414"/>
<path d="M277.879 250.406C285.536 242.796 286.803 241.261 286.803 241.261C286.803 241.261 309.523 258.506 328.775 263.018C355.475 269.274 395.388 264.165 405.169 260.631C405.169 281.725 389.026 309.007 398.368 320.835C424.384 353.796 466.082 359.234 536.64 424.976C420.512 462.731 311.351 561.474 306.17 591.197C299.786 580.476 288.833 557.17 287.213 553.844C286.94 553.281 287.278 556.472 284.183 563.881C280.297 573.168 272.417 582.601 272.417 582.601C272.417 582.601 234.821 532.16 209.049 508.15C211.503 494.673 209.747 481.143 208.617 449.274C208.063 433.759 208.257 418.002 209.107 411.117C225.839 430.635 234.957 432.747 253.576 437.695C274.619 443.293 302.305 437.393 314.129 421.717C330.977 399.376 330.898 367.541 328.026 348.734C321.535 306.245 274.569 254.04 274.569 254.04L277.879 250.406Z" fill="#232D40"/>
<path d="M39.9821 345.167C45.869 352.536 46.7327 363.123 42.1124 371.242C39.1833 376.392 34.4118 380.361 30.2377 384.686C26.0635 389.017 22.2636 394.18 22.0477 400.006C21.8102 406.437 26.0131 412.323 31.0005 416.742C35.9879 421.161 41.9109 424.614 46.7039 429.22C50.8349 433.189 54.1453 438.419 54.2893 443.857C54.3037 444.373 55.045 444.487 55.2393 444.004C58.7585 435.04 57.0025 424.339 50.5686 416.889C47.3444 413.162 43.0047 410.091 41.1551 405.619C39.3631 401.28 40.27 396.359 42.0116 392.001C43.7532 387.649 46.3008 383.593 47.8913 379.188C52.0151 367.709 48.8917 354.192 39.9821 345.167Z" fill="#FFF1E4"/>
<path opacity="0.1412" d="M271.805 581.777C271.805 581.777 267.098 589.715 259.866 597.855C252.769 605.834 244.105 613.826 236.735 619.311C230.819 623.709 224.918 627.37 218.721 630.253C216.829 631.132 214.9 632.037 212.057 633.049C210.553 633.586 208.603 634.27 206.703 634.746C205.609 635.021 204.738 635.235 202.752 634.987C201.615 634.846 201.197 634.873 199.758 634.189C199.254 633.948 198.391 633.68 197.469 633.183C194.152 631.386 185.638 626.7 185.292 626.304C194.914 630.79 197.34 633.076 203.594 632.104C211.633 630.857 221.068 622.207 231.258 609.823C278.368 552.53 278.232 534.232 278.232 522.11C282.219 530.35 300.571 574.656 311.805 601.932C311.992 602.388 312.179 602.837 312.359 603.279C317.281 615.241 320.714 623.602 320.714 623.602L308.235 595.475L306.184 591.197L303.32 586.128L300.016 579.873C300.016 579.873 298.275 576.493 296.116 572.155C294.453 568.816 292.82 565.37 291.215 562.145C289.106 557.907 287.149 553.495 287.127 553.643C286.969 555.131 286.515 557.626 285.529 560.381C284.939 562.031 283.831 564.706 283.054 566.402C281.902 568.917 281.549 569.326 280.117 571.74C278.44 574.569 274.72 579.92 272.431 582.608C272.431 582.608 272.345 582.488 272.114 582.186L271.805 581.777Z" fill="#141414"/>
</svg>
