<svg width="779" height="501" viewBox="0 0 779 501" fill="none" xmlns="http://www.w3.org/2000/svg">
<path d="M548 261.421C548 290.851 544.072 318.051 536.217 343.022C528.755 367.547 518.15 388.951 504.403 407.233C491.049 425.069 474.946 439.116 456.093 449.371C437.633 459.181 417.602 464.086 396 464.086C374.005 464.086 353.778 459.181 335.318 449.371C316.858 439.116 300.755 425.069 287.008 407.233C273.654 388.951 263.049 367.547 255.194 343.022C247.731 318.051 244 290.851 244 261.421C244 231.991 247.731 205.013 255.194 180.488C263.049 155.517 273.654 134.114 287.008 116.277C300.755 97.9953 316.858 83.7262 335.318 73.4703C353.778 63.2144 374.005 58.0864 396 58.0864C417.602 58.0864 437.633 63.2144 456.093 73.4703C474.946 83.7262 491.049 97.9953 504.403 116.277C518.15 134.114 528.755 155.517 536.217 180.488C544.072 205.013 548 231.991 548 261.421ZM468.465 261.421C468.465 243.584 466.698 227.309 463.163 212.594C459.628 197.433 454.522 184.502 447.845 173.8C441.561 163.098 433.902 154.849 424.868 149.052C416.227 143.255 406.605 140.357 396 140.357C385.003 140.357 374.987 143.255 365.954 149.052C357.313 154.849 349.654 163.098 342.977 173.8C336.693 184.502 331.783 197.433 328.248 212.594C324.713 227.309 322.946 243.584 322.946 261.421C322.946 279.257 324.713 295.533 328.248 310.248C331.783 324.963 336.693 337.671 342.977 348.373C349.654 359.075 357.313 367.324 365.954 373.121C374.987 378.918 385.003 381.816 396 381.816C406.605 381.816 416.227 378.918 424.868 373.121C433.902 367.324 441.561 359.075 447.845 348.373C454.522 337.671 459.628 324.963 463.163 310.248C466.698 295.533 468.465 279.257 468.465 261.421Z" fill="#5C8FFF"/>
<path d="M660.42 165.452V300.19H564.724L658.861 165.452H660.42ZM660.42 365.064V454.887H730.632V365.064H779V300.19H730.632V66.7549H664.581L506.475 292.982V365.064H660.42Z" fill="#5C8FFF"/>
<path d="M153.946 167.593V302.332H58.2499L152.386 167.593H153.946ZM153.946 367.205V457.028H224.157V367.205H272.525V302.332H224.157V68.8965H158.106L0 295.124V367.205H153.946Z" fill="#5C8FFF"/>
<path d="M394.456 0.600652C382.589 0.580634 370.8 2.51058 359.553 6.31405C354.169 8.13919 348.917 10.3368 343.836 12.8912C338.736 15.4615 333.784 18.319 329.004 21.4499C324.369 24.4718 319.744 27.797 314.863 31.6135C310.507 35.021 306.044 38.748 301.217 43.0085C292.238 50.9335 283.287 59.5931 274.631 67.9673C265.566 76.7369 256.191 85.8067 246.582 94.2459C241.402 98.7952 236.583 102.79 231.852 106.458C226.531 110.582 221.464 114.188 216.354 117.48C198.84 128.768 183.498 141.705 170.756 155.932C159.095 168.81 149.405 183.36 142.006 199.102C135.404 213.153 131.133 228.193 129.363 243.629C128.565 250.842 128.393 258.111 128.85 265.354C129.298 272.375 130.381 279.34 132.087 286.164C140.505 317.944 153.332 347.467 170.211 373.914C186.54 399.639 206.982 422.483 230.713 441.525C254.321 460.405 280.955 475.111 309.476 485.012C338.818 495.223 370.082 500.397 402.398 500.397C410.526 500.396 418.648 499.973 426.732 499.127C450.286 496.657 473.322 490.567 495.035 481.072C509.218 474.863 522.759 467.268 535.462 458.398C548.133 449.542 559.929 439.485 570.687 428.365C592.491 405.808 609.805 379.273 621.697 350.188C624.712 342.824 627.405 335.221 629.701 327.591C632.024 319.874 633.997 311.944 635.566 304.02C637.156 295.992 638.37 287.775 639.173 279.599C639.989 271.301 640.403 262.84 640.403 254.45C640.403 246.078 640.025 237.74 639.28 229.667C638.55 221.75 637.447 213.873 636.001 206.254C634.584 198.784 632.799 191.357 630.696 184.184C628.635 177.153 626.212 170.17 623.496 163.43C620.835 156.828 617.816 150.279 614.532 143.969C611.313 137.787 607.747 131.663 603.934 125.769C600.2 119.999 596.128 114.292 591.831 108.808C587.625 103.441 583.091 98.1417 578.355 93.0596C573.72 88.0868 568.767 83.1879 563.634 78.4992C558.612 73.9126 553.285 69.4047 547.799 65.1046C536.835 56.5393 525.312 48.72 513.309 41.699C490.25 28.1646 464.48 16.7486 436.713 7.76763C429.509 5.41403 422.143 3.59419 414.674 2.32272C407.992 1.19559 401.229 0.620049 394.453 0.601853M394.453 0.00120122C407.446 0.00120122 421.496 2.214 436.897 7.19581C543.141 41.5639 641 118.288 641 254.455C641 390.623 534.174 501 402.398 501C270.622 501 165.652 415.216 131.508 286.313C117.884 232.116 143.506 163.717 216.031 116.977C278.045 77.012 317.816 0 394.456 0L394.453 0.00120122Z" fill="url(#paint0_linear_4618_66039)"/>
<g filter="url(#filter0_b_4618_66039)">
<path d="M418.093 16.7946C524.897 49.2521 623.273 121.709 623.273 250.302C623.273 378.894 515.883 483.13 383.41 483.13C250.938 483.13 145.413 402.117 111.088 280.385C97.3924 229.204 123.149 164.61 196.059 120.47C268.97 76.3296 311.29 -15.6629 418.093 16.7946Z" fill="url(#paint1_linear_4618_66039)" fill-opacity="0.4"/>
</g>
<g filter="url(#filter1_b_4618_66039)">
<path d="M418.103 16.8792C524.76 49.3277 623 121.765 623 250.322C623 378.879 515.758 483.086 383.468 483.086C251.178 483.086 145.799 402.096 111.522 280.397C97.8447 229.23 123.566 164.654 196.375 120.526C269.185 76.3979 311.448 -15.5694 418.103 16.8792Z" fill="url(#paint2_linear_4618_66039)" fill-opacity="0.4"/>
</g>
<g filter="url(#filter2_b_4618_66039)">
<path d="M413.588 37.2904C509.061 66.9263 597 133.085 597 250.498C597 367.912 501.003 463.086 382.584 463.086C264.165 463.086 169.836 389.117 139.153 277.967C126.909 231.235 149.933 172.256 215.109 131.953C280.284 91.65 318.115 7.65446 413.588 37.2904Z" fill="url(#paint3_linear_4618_66039)" fill-opacity="0.5"/>
</g>
<mask id="mask0_4618_66039" style="mask-type:alpha" maskUnits="userSpaceOnUse" x="134" y="32" width="462" height="433">
<path d="M411.871 38.8014C507.409 68.4176 595.407 134.532 595.407 251.868C595.407 369.204 499.345 464.315 380.846 464.315C262.348 464.315 167.954 390.394 137.251 279.318C124.999 232.617 148.039 173.677 213.258 133.401C278.478 93.1249 316.334 9.18514 411.871 38.8014Z" fill="#D9D9D9"/>
</mask>
<g mask="url(#mask0_4618_66039)">
<path d="M522.001 391.768L521.99 415.887C521.99 417.536 521.081 419.036 519.644 419.839C505.219 427.884 493.705 441.04 487.627 456.398C486.93 458.152 485.179 458.928 483.315 459.222C447.033 464.952 401.406 466.334 375.773 456.872C373.553 456.053 367.439 450.671 367.439 450.671C367.439 450.671 372.464 421.053 370.243 406.346C369.875 403.898 371.555 401.611 373.999 401.231C419.778 394.09 470.073 397.455 516.542 387.365C519.354 386.754 522.005 388.897 522.001 391.768Z" fill="#E8E8E8"/>
<path d="M522.001 394.262C522.307 400.427 521.915 409.859 521.852 416.227C521.837 417.759 520.959 419.094 519.651 419.893C505.642 428.463 499.85 433.292 486.601 457.854C486.107 458.767 481.36 459.488 476.727 460.2C470.14 461.215 462.906 462.057 460.964 462.057C492.377 443.417 503.849 416.991 492.73 406.866C515.269 397.901 503.077 402.715 522.001 394.262Z" fill="#D5D5D5"/>
<path d="M488.453 193.839C494.943 183.005 513.761 175.893 525.757 179.853C537.749 183.812 544.423 191.951 549.185 203.651C553.948 215.35 557.112 236.065 557.371 247.118C557.899 269.882 553.203 315.501 548.39 337.755C546.068 348.503 538.113 374.776 536.214 380.025C534.526 384.69 534.632 385.038 533.801 385.865C521.183 398.484 481.118 412.745 456.397 415.679C417.092 420.34 367.361 408.648 339.887 401.112C331.564 398.829 358.235 407.395 359.066 407.979C360.397 408.911 362.218 407.779 362.019 406.165C361.889 405.143 361.823 403.854 361.866 402.237C362.05 395.492 367.831 390.04 374.124 387.619C380.422 385.199 388.901 388.418 393.977 383.977C441.652 342.24 450.671 353.865 463.893 324.979C477.115 296.093 480.138 263.694 481.846 231.969C482.598 218.029 483.824 201.571 488.453 193.839Z" fill="#F2F2F2"/>
<path d="M491.418 402.103C446.179 421.624 389.215 409.635 387.593 409.552C415.298 418.091 446.845 416.873 455.915 415.741C466.874 414.37 478.654 411.538 489.432 408.009C495.879 405.898 505.353 402.35 511.071 399.725C516.867 397.066 521.136 395.057 526.458 391.59C528.687 390.137 532.231 387.732 534.209 385.398C531.738 384.681 523.968 381.552 523.098 381.176C523.094 381.172 514.349 392.205 491.418 402.103Z" fill="#D5D5D5"/>
<mask id="mask1_4618_66039" style="mask-type:luminance" maskUnits="userSpaceOnUse" x="278" y="79" width="331" height="298">
<path d="M342.75 339.583L559.615 376.369C559.772 376.322 608.547 201.996 608.5 201.839L453.307 79.0458C453.26 78.8891 435.174 86.6364 435.021 86.6834L278.81 135.678C278.654 135.725 278.568 135.893 278.615 136.05L342.374 339.395C342.425 339.547 342.594 339.634 342.75 339.583Z" fill="white"/>
</mask>
<g mask="url(#mask1_4618_66039)">
<path d="M298.048 189.631C299.047 207.507 307.416 228.489 334.248 239.718C337.858 241.23 342.409 244.32 343.373 247.23C347.093 258.464 346.526 268.091 352.345 278.791C359.172 291.345 359.003 298.215 364.584 305.147C365.869 306.745 377.391 299.209 410.481 283.907C421.659 278.737 428.634 293.883 434.019 282.806C439.404 271.734 450.311 267.347 451.243 255.068C451.972 245.464 450.726 231.591 455.128 223.166C458.79 216.155 465.221 209.461 473.269 208.474C473.555 208.439 479.003 205.596 478.752 205.459C464.755 197.774 509.473 203.481 509.473 203.481C509.473 203.481 479.896 186.791 451.827 166.585C429.852 150.765 424.365 143.026 413.544 135.87C405.198 130.347 388.686 123.532 371.896 126.153C371.587 126.2 371.552 126.638 371.849 126.732C374.328 127.535 376.929 127.022 377.505 124.418C378.155 121.464 374.606 117.489 371.579 117.524C368.931 117.552 365.975 119.095 364.945 122.169C364.945 122.169 365.99 120.254 366.065 120.117C367.048 118.382 366.386 116.13 365.932 115.213C365.027 113.388 363.002 110.439 360.037 110.411C357.382 110.388 355.447 112.828 355.471 114.634C355.51 117.99 359.845 123.658 356.418 124.731C325.314 134.225 295.968 152.336 298.048 189.631Z" fill="#D08A5A"/>
</g>
<mask id="mask2_4618_66039" style="mask-type:luminance" maskUnits="userSpaceOnUse" x="291" y="130" width="140" height="122">
<path d="M321.605 251.175L430.646 209.427C430.799 209.368 430.877 209.207 430.826 209.066L400.905 130.908C400.85 130.767 400.681 130.7 400.529 130.759L291.491 172.504C291.338 172.562 291.26 172.723 291.311 172.864L321.229 251.022C321.287 251.167 321.452 251.234 321.605 251.175Z" fill="white"/>
</mask>
<g mask="url(#mask2_4618_66039)">
<path d="M334.369 160.785C336.55 160.495 343.549 159.802 348.225 154.925C351.687 151.31 356.309 147.989 361.071 145.889C367.122 143.222 376.22 142.96 381.558 144.166C387.609 145.537 397.944 150.178 405.045 155.348C411.82 160.283 417.049 169.503 417.805 178.104C418.725 188.586 414.613 197.888 408.578 205.945C400.921 216.167 392.7 221.999 383.548 226.742C363.609 237.079 350.144 236.777 339.088 235.414C331.6 234.494 321.558 230.855 313.964 223.636C311.763 221.545 309.911 218.149 308.211 215.67C303.891 209.372 302.72 196.517 303.64 188.167C304.823 177.423 307.929 164.286 334.369 160.785Z" fill="#F2D2B6"/>
</g>
<path d="M307.768 191.061C308.99 188.765 310.643 186.893 312.409 184.99C314.175 183.082 316.721 181.578 318.37 180.81C321.491 179.35 326.097 179.831 328.427 180.462C330.409 180.998 332.822 182.812 334.564 185.044C336.421 187.426 336.871 191.636 337.13 194.648C337.384 197.664 336.029 203.061 334.134 205.411C332.755 207.119 329.837 209.548 325.122 210.597C319.443 211.866 317.653 212.187 315.734 214.224C314.559 215.47 313.333 217.244 312.707 218.235C311.861 219.57 311.453 220.162 311.297 220.471C308.869 217.585 306.938 213.809 305.708 210.824C305.262 209.747 303.1 205.196 303.143 199.662C303.143 199.787 305.798 194.762 307.768 191.061Z" fill="#D9A171"/>
<path opacity="0.1686" d="M303.143 199.705C303.143 199.705 303.198 201.734 303.398 203.199C303.515 204.049 304.302 207.437 305.332 209.948C306.836 213.614 308.528 217.201 311.285 220.48C312.539 218.506 313.087 217.609 313.087 217.609C313.087 217.609 310.306 214.773 308.144 209.317C307.083 206.638 305.61 203.501 304.576 197.054C303.817 198.483 303.143 199.705 303.143 199.705Z" fill="#523618"/>
<path d="M331.553 189.181C328.733 184.669 318.053 184.962 318.053 184.962C318.053 184.962 312.115 193.708 315.754 199.897C319.392 206.085 325.384 207.958 329.626 204.816C334.165 201.46 335.359 195.267 331.553 189.181Z" fill="white"/>
<path opacity="0.1412" d="M328.599 194.676C329.335 196.321 330.863 199.407 330.597 204.037C332.132 202.517 333.146 200.782 333.6 198.671C334.051 196.579 333.812 194.171 332.986 192.056C331.623 192.925 330.706 193.544 328.599 194.676Z" fill="#111111"/>
<path d="M324.201 204.766C325.815 204.766 327.123 203.457 327.123 201.844C327.123 200.23 325.815 198.922 324.201 198.922C322.587 198.922 321.279 200.23 321.279 201.844C321.279 203.457 322.587 204.766 324.201 204.766Z" fill="#111111" stroke="#111111" stroke-miterlimit="10"/>
<path d="M323.508 204.041C324.237 204.041 324.828 203.45 324.828 202.721C324.828 201.992 324.237 201.401 323.508 201.401C322.779 201.401 322.188 201.992 322.188 202.721C322.188 203.45 322.779 204.041 323.508 204.041Z" fill="white"/>
<path d="M319.314 183.576C310.271 187.019 315.304 199.192 315.288 199.141C315.288 199.141 322.459 199.004 333.104 191.982C333.104 191.982 332.955 191.488 332.505 190.607C330.934 187.524 326.536 180.827 319.314 183.576Z" fill="#D39266"/>
<path opacity="0.1294" d="M333.068 191.865C333.06 191.837 333.048 191.814 333.037 191.778C333.005 191.692 332.958 191.579 332.9 191.442C332.755 191.109 332.52 190.639 332.304 190.219C332.12 189.875 331.901 189.495 331.658 189.095C331.212 188.383 330.687 187.65 330.146 186.976C329.727 186.471 329.269 185.978 328.764 185.516C328.529 185.304 328.263 185.085 327.965 184.85C327.703 184.646 327.409 184.438 327.107 184.246C326.398 183.804 325.627 183.444 324.793 183.209C324.385 183.103 323.962 183.021 323.571 182.97C322.321 182.825 320.954 182.97 319.462 183.522C319.349 183.569 319.231 183.612 319.118 183.663C319.082 183.679 319.047 183.694 319.008 183.71C318.616 183.886 318.217 184.086 317.798 184.321C317.79 184.325 317.786 184.329 317.778 184.337C319.529 184.36 322.78 185.829 326.559 191.046C327.452 192.28 328.118 193.502 328.607 194.677C330.025 193.913 331.529 193.024 333.111 191.978C333.103 191.982 333.092 191.939 333.068 191.865Z" fill="#111111"/>
<path d="M371.626 158.865C369.887 160.467 367.568 163.471 367.482 167.384C367.396 171.297 368.622 176.098 370.455 179.557C372.029 182.522 374.551 185.193 377.63 186.533C381.652 188.283 386.908 187.524 389.943 186.313C392.778 185.181 397.376 182.185 402.025 181.147C403.611 180.791 406.948 180.826 408.35 181.233C411.123 182.044 415.126 185.706 416.962 189.067C419.077 180.376 417.534 174.904 415.932 169.796C414.436 165.026 412.212 161.489 412.212 161.489C412.212 161.489 411.401 161.078 410.555 160.702C408.452 159.766 403.694 157.079 401.449 156.57C397.47 155.669 394.725 154.588 390.667 154.141C387.248 153.765 384.679 154.133 381.295 154.737C378.029 155.32 373.29 157.333 371.626 158.865Z" fill="#D9A171"/>
<path d="M390.495 165.934C387.758 160.964 376.404 160.666 376.404 160.666C376.404 160.666 369.601 169.655 373.114 176.462C376.627 183.269 382.878 185.608 387.562 182.502C392.571 179.176 394.193 172.639 390.495 165.934Z" fill="white"/>
<path opacity="0.1412" d="M387.049 171.63C387.739 173.428 389.184 176.808 388.639 181.728C390.355 180.196 391.53 178.402 392.133 176.178C392.732 173.973 392.611 171.391 391.855 169.088C390.359 169.934 389.348 170.541 387.049 171.63Z" fill="#111111"/>
<path d="M381.08 182.213C382.795 182.213 384.186 180.817 384.186 179.095C384.186 177.373 382.795 175.978 381.08 175.978C379.365 175.978 377.974 177.373 377.974 179.095C377.974 180.817 379.365 182.213 381.08 182.213Z" fill="#111111" stroke="#111111" stroke-miterlimit="10"/>
<path d="M380.375 181.727C381.149 181.727 381.777 181.096 381.777 180.317C381.777 179.539 381.149 178.907 380.375 178.907C379.601 178.907 378.973 179.539 378.973 180.317C378.973 181.096 379.601 181.727 380.375 181.727Z" fill="white"/>
<path d="M377.822 159.26C368.027 162.417 372.679 175.687 372.664 175.628C372.664 175.628 380.285 175.891 391.987 169.009C391.987 169.009 391.858 168.476 391.427 167.509C389.935 164.137 385.643 156.738 377.822 159.26Z" fill="#D39266"/>
<path opacity="0.1294" d="M391.948 168.884C391.94 168.857 391.933 168.829 391.921 168.794C391.921 168.79 391.921 168.79 391.921 168.786C391.889 168.692 391.85 168.571 391.795 168.422C391.658 168.058 391.439 167.541 391.231 167.086C391.055 166.706 390.848 166.291 390.609 165.853C390.174 165.065 389.661 164.258 389.124 163.51C388.709 162.95 388.247 162.394 387.738 161.873C387.499 161.638 387.233 161.384 386.927 161.117C386.661 160.886 386.359 160.647 386.054 160.424C385.325 159.911 384.527 159.48 383.653 159.186C383.226 159.053 382.784 158.94 382.369 158.861C381.053 158.638 379.588 158.712 377.974 159.214C377.849 159.257 377.724 159.296 377.598 159.343C377.559 159.359 377.52 159.37 377.481 159.386C377.054 159.551 376.615 159.742 376.161 159.97C376.153 159.974 376.145 159.977 376.138 159.981C377.994 160.107 381.358 161.857 385.079 167.639C385.96 169.006 386.594 170.349 387.045 171.63C388.592 170.897 390.241 170.036 391.983 169.009C391.983 169.009 391.972 168.962 391.948 168.884Z" fill="#111111"/>
<path d="M344.692 183.533C338.359 191.233 338.916 202.094 340.059 206.712C341.203 211.326 342.95 214.616 344.81 217.134C345.605 218.215 348.969 223.938 356.896 221.451C361.055 220.146 364.098 217.178 369.534 215.474C376.357 213.335 380.551 207.652 379.004 203.183C370.396 178.347 353.461 178.672 350.919 179.471C347.72 180.474 345.041 183.11 344.692 183.533Z" fill="#D9A171"/>
<path opacity="0.1608" d="M361.51 214.382C363.297 213.72 364.159 211.6 363.435 209.646C362.711 207.693 360.676 206.646 358.889 207.309C357.102 207.971 356.24 210.091 356.964 212.045C357.688 213.998 359.723 215.045 361.51 214.382Z" fill="#252525"/>
<path d="M361.241 213.584C363.038 212.918 363.908 210.795 363.184 208.841C362.46 206.888 360.416 205.844 358.619 206.51C356.822 207.176 355.952 209.3 356.676 211.253C357.4 213.206 359.444 214.25 361.241 213.584Z" fill="#252525"/>
<path d="M343.059 198.827C341.657 194.53 345.66 190.077 352.137 187.97C358.611 185.859 364.717 187.135 366.119 191.432C367.521 195.729 363.299 200.958 356.825 203.069C350.351 205.18 344.461 203.124 343.059 198.827Z" fill="#252525"/>
<mask id="mask3_4618_66039" style="mask-type:luminance" maskUnits="userSpaceOnUse" x="356" y="190" width="7" height="9">
<path d="M358.854 198.51L362.308 197.382C362.465 197.331 362.547 197.162 362.496 197.01L360.542 191.009C360.491 190.853 360.322 190.77 360.169 190.821L356.715 191.949C356.559 192 356.476 192.169 356.527 192.321L358.481 198.322C358.532 198.478 358.701 198.561 358.854 198.51Z" fill="white"/>
</mask>
<g mask="url(#mask3_4618_66039)">
<g opacity="0.1216">
<mask id="mask4_4618_66039" style="mask-type:luminance" maskUnits="userSpaceOnUse" x="356" y="190" width="7" height="9">
<path d="M358.854 198.51L362.308 197.382C362.465 197.331 362.547 197.162 362.496 197.01L360.542 191.009C360.491 190.853 360.322 190.77 360.169 190.821L356.715 191.949C356.559 192 356.476 192.169 356.527 192.321L358.481 198.322C358.532 198.478 358.701 198.561 358.854 198.51Z" fill="white"/>
</mask>
<g mask="url(#mask4_4618_66039)">
<path d="M357.793 194.675C357.883 192.051 358.838 190.966 359.857 191.013C360.871 191.06 361.317 192.654 360.769 194.722C360.483 195.799 359.982 197.491 359.21 198.337C358.615 198.991 357.718 196.88 357.793 194.675Z" fill="white"/>
</g>
</g>
</g>
<mask id="mask5_4618_66039" style="mask-type:luminance" maskUnits="userSpaceOnUse" x="347" y="194" width="7" height="8">
<path d="M347.544 195.815L349.96 201.647C350.023 201.8 350.195 201.87 350.348 201.808L353.704 200.417C353.857 200.355 353.928 200.182 353.865 200.03L351.448 194.198C351.386 194.045 351.213 193.974 351.061 194.037L347.704 195.427C347.552 195.49 347.481 195.666 347.544 195.815Z" fill="white"/>
</mask>
<g mask="url(#mask5_4618_66039)">
<g opacity="0.1216">
<mask id="mask6_4618_66039" style="mask-type:luminance" maskUnits="userSpaceOnUse" x="347" y="193" width="7" height="10">
<path d="M349.843 201.995L353.794 200.706C353.951 200.655 354.033 200.487 353.982 200.334L351.93 194.04C351.879 193.883 351.711 193.801 351.558 193.852L347.606 195.141C347.45 195.191 347.367 195.36 347.418 195.513L349.471 201.807C349.521 201.96 349.69 202.042 349.843 201.995Z" fill="white"/>
</mask>
<g mask="url(#mask6_4618_66039)">
<path d="M352.016 196.809C350.242 194.875 348.808 194.671 348.068 195.368C347.328 196.065 348.025 197.565 349.788 198.78C350.704 199.414 352.188 200.37 353.32 200.511C354.198 200.624 353.508 198.435 352.016 196.809Z" fill="white"/>
</g>
</g>
</g>
<mask id="mask7_4618_66039" style="mask-type:luminance" maskUnits="userSpaceOnUse" x="356" y="190" width="7" height="9">
<path d="M358.854 198.51L362.308 197.382C362.465 197.331 362.547 197.162 362.496 197.01L360.542 191.009C360.491 190.853 360.322 190.77 360.169 190.821L356.715 191.949C356.559 192 356.476 192.169 356.527 192.321L358.481 198.322C358.532 198.478 358.701 198.561 358.854 198.51Z" fill="white"/>
</mask>
<g mask="url(#mask7_4618_66039)">
<g opacity="0.1216">
<mask id="mask8_4618_66039" style="mask-type:luminance" maskUnits="userSpaceOnUse" x="356" y="190" width="7" height="9">
<path d="M358.854 198.51L362.308 197.382C362.465 197.331 362.547 197.162 362.496 197.01L360.542 191.009C360.491 190.853 360.322 190.77 360.169 190.821L356.715 191.949C356.559 192 356.476 192.169 356.527 192.321L358.481 198.322C358.532 198.478 358.701 198.561 358.854 198.51Z" fill="white"/>
</mask>
<g mask="url(#mask8_4618_66039)">
<path d="M357.793 194.675C357.883 192.051 358.838 190.966 359.857 191.013C360.871 191.06 361.317 192.654 360.769 194.722C360.483 195.799 359.982 197.491 359.21 198.337C358.615 198.991 357.718 196.88 357.793 194.675Z" fill="white"/>
</g>
</g>
</g>
<mask id="mask9_4618_66039" style="mask-type:luminance" maskUnits="userSpaceOnUse" x="347" y="194" width="7" height="8">
<path d="M347.544 195.815L349.96 201.647C350.023 201.8 350.195 201.87 350.348 201.808L353.704 200.417C353.857 200.355 353.928 200.182 353.865 200.03L351.448 194.198C351.386 194.045 351.213 193.974 351.061 194.037L347.704 195.427C347.552 195.49 347.481 195.666 347.544 195.815Z" fill="white"/>
</mask>
<g mask="url(#mask9_4618_66039)">
<g opacity="0.1216">
<mask id="mask10_4618_66039" style="mask-type:luminance" maskUnits="userSpaceOnUse" x="347" y="193" width="7" height="10">
<path d="M349.843 201.995L353.794 200.706C353.951 200.655 354.033 200.487 353.982 200.334L351.93 194.04C351.879 193.883 351.711 193.801 351.558 193.852L347.606 195.141C347.45 195.191 347.367 195.36 347.418 195.513L349.471 201.807C349.521 201.96 349.69 202.042 349.843 201.995Z" fill="white"/>
</mask>
<g mask="url(#mask10_4618_66039)">
<path d="M352.016 196.809C350.242 194.875 348.808 194.671 348.068 195.368C347.328 196.065 348.025 197.565 349.788 198.78C350.704 199.414 352.188 200.37 353.32 200.511C354.198 200.624 353.508 198.435 352.016 196.809Z" fill="white"/>
</g>
</g>
</g>
<mask id="mask11_4618_66039" style="mask-type:luminance" maskUnits="userSpaceOnUse" x="356" y="190" width="7" height="9">
<path d="M358.854 198.51L362.308 197.382C362.465 197.331 362.547 197.162 362.496 197.01L360.542 191.009C360.491 190.853 360.322 190.77 360.169 190.821L356.715 191.949C356.559 192 356.476 192.169 356.527 192.321L358.481 198.322C358.532 198.478 358.701 198.561 358.854 198.51Z" fill="white"/>
</mask>
<g mask="url(#mask11_4618_66039)">
<g opacity="0.1216">
<mask id="mask12_4618_66039" style="mask-type:luminance" maskUnits="userSpaceOnUse" x="356" y="190" width="7" height="9">
<path d="M358.854 198.51L362.308 197.382C362.465 197.331 362.547 197.162 362.496 197.01L360.542 191.009C360.491 190.853 360.322 190.77 360.169 190.821L356.715 191.949C356.559 192 356.476 192.169 356.527 192.321L358.481 198.322C358.532 198.478 358.701 198.561 358.854 198.51Z" fill="white"/>
</mask>
<g mask="url(#mask12_4618_66039)">
<path d="M357.793 194.675C357.883 192.051 358.838 190.966 359.857 191.013C360.871 191.06 361.317 192.654 360.769 194.722C360.483 195.799 359.982 197.491 359.21 198.337C358.615 198.991 357.718 196.88 357.793 194.675Z" fill="white"/>
</g>
</g>
</g>
<mask id="mask13_4618_66039" style="mask-type:luminance" maskUnits="userSpaceOnUse" x="347" y="194" width="7" height="8">
<path d="M347.544 195.815L349.96 201.647C350.023 201.8 350.195 201.87 350.348 201.808L353.704 200.417C353.857 200.355 353.928 200.182 353.865 200.03L351.448 194.198C351.386 194.045 351.213 193.974 351.061 194.037L347.704 195.427C347.552 195.49 347.481 195.666 347.544 195.815Z" fill="white"/>
</mask>
<g mask="url(#mask13_4618_66039)">
<g opacity="0.1216">
<mask id="mask14_4618_66039" style="mask-type:luminance" maskUnits="userSpaceOnUse" x="347" y="193" width="7" height="10">
<path d="M349.843 201.995L353.794 200.706C353.951 200.655 354.033 200.487 353.982 200.334L351.93 194.04C351.879 193.883 351.711 193.801 351.558 193.852L347.606 195.141C347.45 195.191 347.367 195.36 347.418 195.513L349.471 201.807C349.521 201.96 349.69 202.042 349.843 201.995Z" fill="white"/>
</mask>
<g mask="url(#mask14_4618_66039)">
<path d="M352.016 196.809C350.242 194.875 348.808 194.671 348.068 195.368C347.328 196.065 348.025 197.565 349.788 198.78C350.704 199.414 352.188 200.37 353.32 200.511C354.198 200.624 353.508 198.435 352.016 196.809Z" fill="white"/>
</g>
</g>
</g>
<mask id="mask15_4618_66039" style="mask-type:luminance" maskUnits="userSpaceOnUse" x="-53" y="-80" width="918" height="794">
<path d="M-52.0041 160.84L684.146 -79.0947C684.302 -79.1456 684.467 -79.0595 684.518 -78.9067L864.411 473.105C864.462 473.262 864.376 473.427 864.224 473.477L128.074 713.416C127.917 713.467 127.753 713.381 127.702 713.228L-52.1921 161.216C-52.243 161.06 -52.1569 160.891 -52.0041 160.84Z" fill="white"/>
</mask>
<g mask="url(#mask15_4618_66039)">
<g opacity="0.3216">
<mask id="mask16_4618_66039" style="mask-type:luminance" maskUnits="userSpaceOnUse" x="354" y="189" width="9" height="11">
<path d="M357.479 199.185L361.998 197.712C362.155 197.661 362.237 197.493 362.186 197.34L359.597 189.393C359.547 189.236 359.378 189.154 359.225 189.205L354.706 190.678C354.549 190.729 354.467 190.897 354.518 191.05L357.107 198.997C357.154 199.15 357.322 199.236 357.479 199.185Z" fill="white"/>
</mask>
<g mask="url(#mask16_4618_66039)">
<path d="M359.507 189.116C359.75 191.85 359.374 194.591 359.002 197.31C358.951 197.693 358.892 198.085 358.708 198.426C358.524 198.767 358.176 199.045 357.788 199.037C357.349 199.029 356.989 198.653 356.856 198.234C356.719 197.819 356.762 197.368 356.805 196.934C356.93 195.668 357.052 194.403 357.177 193.138C357.255 192.324 357.341 191.493 357.678 190.753C358.015 190.009 358.665 189.355 359.507 189.116Z" fill="#252525"/>
</g>
</g>
</g>
<mask id="mask17_4618_66039" style="mask-type:luminance" maskUnits="userSpaceOnUse" x="-53" y="-80" width="918" height="794">
<path d="M-52.0041 160.84L684.146 -79.0947C684.302 -79.1456 684.467 -79.0595 684.518 -78.9067L864.411 473.105C864.462 473.262 864.376 473.427 864.224 473.477L128.074 713.416C127.917 713.467 127.753 713.381 127.702 713.228L-52.1921 161.216C-52.243 161.06 -52.1569 160.891 -52.0041 160.84Z" fill="white"/>
</mask>
<g mask="url(#mask17_4618_66039)">
<g opacity="0.3216">
<mask id="mask18_4618_66039" style="mask-type:luminance" maskUnits="userSpaceOnUse" x="346" y="192" width="9" height="10">
<path d="M349.78 201.813L354.421 200.301C354.577 200.251 354.659 200.082 354.609 199.929L352.204 192.55C352.153 192.394 351.984 192.311 351.832 192.362L347.191 193.874C347.034 193.925 346.952 194.093 347.003 194.246L349.407 201.625C349.454 201.778 349.623 201.864 349.78 201.813Z" fill="white"/>
</mask>
<g mask="url(#mask18_4618_66039)">
<path d="M347.026 194.258C349.012 196.134 350.997 198.01 352.979 199.89C353.183 200.082 353.39 200.278 353.653 200.372C353.915 200.466 354.244 200.43 354.42 200.215C354.671 199.905 354.487 199.447 354.279 199.106C353.014 197.05 351.103 195.46 349.047 194.195C348.667 193.964 348.264 193.733 347.817 193.725C347.375 193.713 346.823 194.066 347.026 194.258Z" fill="#252525"/>
</g>
</g>
</g>
<mask id="mask19_4618_66039" style="mask-type:luminance" maskUnits="userSpaceOnUse" x="-71" y="-55" width="914" height="787">
<path d="M-70.689 177.275L668.096 -54.4149C668.253 -54.4619 668.418 -54.3758 668.469 -54.2191L842.178 499.767C842.225 499.924 842.139 500.088 841.982 500.139L103.197 731.829C103.04 731.876 102.876 731.79 102.825 731.633L-70.8848 177.647C-70.9318 177.491 -70.8456 177.326 -70.689 177.275Z" fill="white"/>
</mask>
<g mask="url(#mask19_4618_66039)">
<g opacity="0.1412">
<mask id="mask20_4618_66039" style="mask-type:luminance" maskUnits="userSpaceOnUse" x="343" y="73" width="178" height="176">
<path d="M385.709 248.594L520.239 206.407V206.403L478.415 73.0225L343.885 115.213L385.705 248.594H385.709Z" fill="white"/>
</mask>
<g mask="url(#mask20_4618_66039)">
<path d="M503.766 200.593C489.557 190.904 473.657 182.42 456.914 170.161C444.53 161.097 433.133 152.257 426.62 146.284C415.458 136.042 404.571 128.933 390.025 126.575C387.46 126.16 385.137 125.851 383.159 125.706C380.23 125.49 378.428 125.545 377.003 125.635C377.234 125.169 377.531 124.719 377.555 124.123C377.708 120.058 373.603 117.637 372.095 117.559C370.58 117.477 370.259 117.637 369.413 117.88C368.097 118.256 366.937 119.043 366.068 120.12C367.063 118.381 366.342 115.937 365.837 115.029C364.85 113.243 363.001 110.442 360.037 110.415C357.381 110.391 355.447 112.831 355.47 114.637C355.505 117.68 358.96 121.327 357.487 123.027C357.487 123.027 357.436 123.074 357.436 123.078C358.411 128.968 356.132 135.392 351.362 139.038C360.229 135.96 370.274 137.879 378.487 142.422C386.704 146.966 394.118 151.74 400.055 159.013C405.526 165.715 408.98 176.521 409.838 182.921C411.103 192.372 410.277 204.095 396.718 218.74C407.073 212.281 417.048 208.862 434.3 213.205C441.377 214.987 447.679 222.261 452.547 227.627C452.962 226.123 453.44 224.63 454.012 223.154" fill="#523618"/>
</g>
</g>
</g>
<path d="M526.391 245.226L519.961 245.903L523.008 250.247L526.391 245.226Z" fill="#111111"/>
<path d="M376.126 400.164C376.921 399.576 378.049 399.897 378.93 400.34C380.779 401.272 382.4 402.659 383.607 404.343C381.257 405.201 378.907 406.062 376.557 406.92C376.631 404.668 376.412 402.4 376.126 400.164Z" fill="#BDBDBD"/>
<path d="M298.424 346.442C293.822 349.959 288.919 351.295 285.351 355.858C281.783 360.421 277.683 366.237 277.322 373.941C277.056 379.57 282.222 388.727 285.386 393.388C290.709 401.221 296.435 409.411 305 413.457C310.369 415.991 316.397 416.665 322.299 417.303C331.686 418.318 341.078 419.328 350.466 420.343C357.406 421.091 365.082 421.659 370.71 417.527C378.296 411.961 378.453 400.512 375.386 391.618C394.365 400.152 415.945 399.212 436.741 399.878C452.231 400.375 477.915 393.243 492.621 381.971C511.804 367.267 515.375 349.121 512.207 333.109C510.394 323.956 492.738 325.292 483.441 324.548C449.168 321.806 414.895 319.064 380.618 316.322C370.33 315.5 359.716 314.713 349.921 317.96C343.224 320.18 337.279 324.172 331.428 328.12C317.513 337.512 304.651 341.687 298.424 346.442Z" fill="#D08A5A"/>
<path opacity="0.1608" d="M306.264 355.419C295.533 357.95 295.196 355.247 286.925 367.918C280.897 377.149 291.06 400.125 299.069 408.135C293.618 404.989 286.208 395.687 281.191 386.318C280.909 385.794 280.255 384.403 279.429 382.586C278.684 380.953 277.925 378.403 277.764 377.709C277.556 376.789 277.271 375.453 277.314 374.376C277.474 370.315 278.21 367.898 279.918 364.165C282.268 359.019 286.486 352.732 290.712 355.137C299.849 360.339 299.649 353.077 310.137 353.829C306.992 355 303.851 356.167 306.264 355.419Z" fill="#141414"/>
<path opacity="0.1608" d="M345.088 349.117C336.832 349.814 337.459 352.09 326.25 361.795C316.4 370.326 328.658 419.027 334.075 418.572C337.447 435.305 320.453 395.754 318.636 387.595C317.571 382.809 315.734 372.418 316.141 367.913C316.463 364.388 323.453 354.24 324.049 356.394C325.51 361.694 330.703 348.494 334.059 346.191C341.493 341.096 340.925 345.659 348.225 348.189C345.707 348.827 343.188 349.458 345.088 349.117Z" fill="#141414"/>
<path opacity="0.1608" d="M372.843 387.819C376.376 391.352 370.505 410.685 366.127 415.064C363.393 417.797 372.51 412.494 371.03 416.066C373.345 415.6 373.768 414.41 375.142 412.259C376.345 410.379 377.261 406.321 377.261 402.475C377.257 398.339 376.125 390.631 372.843 387.819Z" fill="#141414"/>
<path opacity="0.1608" d="M396.766 397.669C401.794 398.479 407.195 398.848 412.557 399.188C418.525 399.568 434.109 399.838 440.92 399.838C448.533 399.838 462.883 396.396 471.061 393.286C487.412 387.07 497.234 379.797 504.48 370.036C511.294 360.855 514.592 349.579 512.669 335.757C506.265 382.668 450.495 401.1 396.766 397.669Z" fill="#141414"/>
<path opacity="0.1608" d="M291.092 400.802C290.308 401.73 290.348 403.019 291.021 404.033C291.695 405.047 293.626 407.597 294.769 408.502C302.665 414.737 318.922 421.49 332.911 421.333C342.041 421.231 350.363 417.981 359.492 417.887C362.304 417.859 365.214 418.137 367.854 417.17C370.494 416.198 372.765 413.907 372.033 411.193C366.883 412.803 362.735 413.876 357.898 414.726C346.29 416.774 336.209 416.692 325.533 415.09C322.717 414.667 319.615 414.162 316.831 413.527C312.609 412.56 308.962 411.526 305.25 409.979C303.131 409.097 301.231 408.208 299.332 407.116C298.784 406.798 298.224 406.454 297.679 406.121C296.872 405.627 295.451 404.636 294.213 403.649C293.587 403.148 292.991 402.619 292.615 402.282C291.993 401.726 291.573 401.295 291.573 401.295C291.448 401.174 291.284 400.994 291.092 400.802Z" fill="#141414"/>
<g opacity="0.1686">
<mask id="mask21_4618_66039" style="mask-type:luminance" maskUnits="userSpaceOnUse" x="342" y="213" width="135" height="94">
<path d="M374.786 306.417L475.137 264.296C475.317 264.222 476.582 264.018 476.512 263.849L454.2 213.488C454.129 213.316 453.922 213.241 453.741 213.316L342.424 254.657C342.244 254.731 344.896 264.727 344.966 264.895L374.328 306.248C374.398 306.417 374.602 306.495 374.786 306.417Z" fill="white"/>
</mask>
<g mask="url(#mask21_4618_66039)">
<path d="M345.868 253.376C353.849 261.495 352.909 262.318 364.608 271.726C382.2 285.877 405.135 279.109 414.217 276.218C436.639 269.09 442.913 250.787 450.66 228.732C450.801 228.332 455.81 223.961 455.743 224.376C452.081 246.365 442.349 270.277 423.942 283.872C418.741 287.71 412.988 291.086 406.655 292.426C393.104 295.293 378.143 296.942 368.567 287.914C361.498 281.247 351.198 266.462 347.986 258.28" fill="#111111"/>
</g>
</g>
<path d="M275.912 398.206C276.178 404.473 265.569 410.219 263.105 415.985C260.642 421.75 262.549 431.467 267.496 435.321C265.408 432.168 259.4 431.722 257.955 435.216C256.51 438.709 258.413 444.584 261.39 446.915C264.366 449.245 268.604 450.174 272.285 451.043C347.438 468.755 387.734 462.688 387.734 462.688C387.734 462.688 385.31 461.54 386.215 459.139C387.119 456.734 390.029 455.524 391.929 453.797C396.389 449.743 395.105 443.891 393.354 441.193C391.604 438.494 389.222 438.212 386.638 437.707C389.391 438.846 396.899 427.942 393.284 422.901C390.339 418.797 383.869 415.103 383.066 405.472C368.865 410.607 352.349 414.222 334.768 412.624C317.187 411.026 297.104 406.886 286.549 393.479C282.734 388.63 281.45 385.74 278.736 381.623C278.556 382.986 275.278 383.315 275.912 398.206Z" fill="#FFF5F8"/>
<path opacity="0.1608" d="M393.24 422.783C393.757 428.302 392.222 431.733 388.419 435.532C384.593 439.359 376.905 440.338 371.504 440.702C376.666 440.702 384.667 439.331 388.113 437.479C390.503 436.194 392.277 432.963 393.354 430.472C394.431 427.981 394.697 424.871 393.24 422.783Z" fill="#141414"/>
<path opacity="0.1608" d="M273.765 403.673C275.48 408.483 276.843 411.245 281.1 413.865C283.25 415.189 284.511 415.259 286.959 416.434C291.079 418.408 296.069 420.496 301.368 421.643C298.246 420.876 291.655 417.057 288.745 415.036C286.062 413.172 281.555 412.051 279.201 409.223C276.722 406.251 275.833 404.888 275.163 401.433C274.924 402.138 275.026 401.754 274.618 402.428C274.196 403.121 274.192 402.965 273.765 403.673Z" fill="#141414"/>
<path opacity="0.1608" d="M393.21 440.973C394.827 445.258 393.973 450.647 390.112 453.103C381.061 458.86 356.798 457.157 351.754 457.157C355.177 457.552 378.437 460.537 386.36 457.407C389.074 456.334 392.861 453.659 394.275 450.518C395.689 447.377 395.027 444.075 393.21 440.973Z" fill="#141414"/>
<path opacity="0.1608" d="M263.727 414.718C262.474 419.92 263.449 425.568 266.117 430.205C268.784 434.842 271.764 436.217 279.475 439.249C266.637 435.575 258.55 432.183 259.831 440.208C260.469 444.207 264.397 447.02 268.177 448.484C275.955 451.5 284.316 453.525 292.443 455.413C286.294 454.23 281.755 453.247 275.637 451.825C270.55 450.643 264.346 449.601 261.072 446.655C260.379 446.033 259.878 445.269 259.29 444.427C257.751 442.225 256.854 437.373 258.06 434.987C259.271 432.59 262.909 432.069 265.893 433.801C265.122 432.751 264.178 431.454 263.622 429.907C261.867 425.035 261.056 419.442 263.727 414.718Z" fill="#141414"/>
<path opacity="0.1608" d="M275.923 391.188C286.267 408.899 309.413 416.317 318.037 418.037C341.363 422.694 357.209 421.162 379.729 411.178C362.34 417.782 343.165 419.607 324.844 416.407C306.526 413.211 289.815 403.956 275.923 391.188Z" fill="#141414"/>
<path d="M278.567 380.365C275.512 381.309 273.711 384.736 274.459 387.842C275.207 390.948 277.486 393.435 279.793 395.648C303.123 418.068 332.324 422.521 364.028 416.062C365.109 415.843 377.52 412.604 382.882 409.4C386.547 407.21 382.815 401.089 379.748 402.722C371.759 406.979 355.157 411.754 340.662 411.068C328.423 410.489 312.417 407.273 301.388 401.939C290.36 396.604 284.199 390.204 278.567 380.365Z" fill="white"/>
<path d="M489.154 193.615C492.886 186.161 509.946 181.089 523.18 185.66C535.105 189.776 547.881 212.235 546.373 252.134C545.222 282.599 539.202 323.329 537.784 330.285C532.395 356.692 523.18 380.756 523.18 380.756L534.228 385.025C534.228 385.025 520.787 378.472 516.573 376.283C513.6 374.74 505.47 370.091 505.47 370.091C505.47 370.091 505.317 370.404 504.248 371.681C513.964 378.516 534.173 385.393 534.173 385.393C534.173 385.393 534.357 385.237 534.816 384.022C535.575 381.997 537.087 377.454 539.774 368.873C543.06 358.372 548.793 337.926 551.276 321.605C554.629 299.574 555.831 284.89 556.25 277.084C556.83 266.266 557.668 258.295 557.362 246.479C557.124 237.114 556.184 230.079 554.409 221.823C552.224 211.647 550.313 204.848 545.304 195.726C543.201 191.895 540.118 188.386 536.88 185.789C533.641 183.192 530.245 181.516 526.661 180.165C523.133 178.833 519.988 178.672 516.984 178.774C513.216 178.903 508.544 179.836 503.86 181.766C499.164 183.701 494.48 186.521 490.74 190.728C489.902 191.668 489.585 192.6 489.154 193.615Z" fill="#D5D5D5"/>
<path d="M319.811 288.536C323.716 307.399 342.041 339.258 342.041 339.258L398.641 349.066C398.641 349.066 410.097 336.873 455.97 343.277C457.517 343.492 492.702 347.934 503.966 348.325C509.802 348.529 513.048 347.522 513.048 347.522C513.048 347.522 513.17 345.901 513.213 344.836C513.256 343.723 513.213 338.028 513.213 338.028C513.213 338.028 477.287 299.942 481.725 296.566C481.917 296.421 483.749 300.796 473.465 269.787C487.09 258.295 507.636 247.893 526.407 245.272C526.407 245.272 518.712 220.953 513.099 208.647C505.345 191.637 488.246 187.442 478.059 190.328C467.003 193.458 458.649 206.783 455.293 214.702C445.658 237.454 447.068 241.027 441.769 252.17C436.576 263.082 424.674 282.814 394.729 283.848C385.858 284.154 372.844 282.509 358.69 268.354C347.845 257.508 344.469 249.655 343.384 247.141C343.216 246.749 342.942 246.298 342.942 246.298C342.942 246.298 336.464 246.827 331.835 253.838C329.551 257.293 326.019 274.154 326.019 274.154" fill="#232D40"/>
<g opacity="0.1412">
<mask id="mask22_4618_66039" style="mask-type:luminance" maskUnits="userSpaceOnUse" x="438" y="229" width="117" height="240">
<path d="M508.541 468.275L554.77 453.822C554.907 453.779 554.986 453.638 554.943 453.509L484.952 229.601C484.913 229.472 484.768 229.397 484.631 229.44L438.401 243.893C438.264 243.936 438.186 244.077 438.229 244.207L508.22 468.114C508.263 468.247 508.404 468.318 508.541 468.275Z" fill="white"/>
</mask>
<g mask="url(#mask22_4618_66039)">
<path d="M461.876 240.984C461.876 240.984 469.431 275.146 476.038 319.369C477.749 330.841 483.706 318.606 483.706 333.062C483.706 337.527 493.09 342.658 487.286 316.757C484.462 304.157 481.109 289.79 478.47 273.634V273.83C478.062 268.785 479.269 279.454 473.797 269.917C473.797 269.917 470.891 265.879 466.638 254.418L461.876 240.984Z" fill="#111111"/>
</g>
</g>
<g opacity="0.2784">
<mask id="mask23_4618_66039" style="mask-type:luminance" maskUnits="userSpaceOnUse" x="344" y="275" width="9" height="22">
<path d="M348.401 296.21L351.828 295.615C351.969 295.591 352.063 295.458 352.04 295.317L348.609 275.565C348.586 275.424 348.452 275.33 348.311 275.354L344.884 275.949C344.743 275.973 344.649 276.106 344.673 276.247L348.104 295.999C348.127 296.14 348.26 296.234 348.401 296.21Z" fill="white"/>
</mask>
<g mask="url(#mask23_4618_66039)">
<path d="M348.561 275.307C347.731 281.586 347.625 282.729 347.931 288.311C347.97 289.027 348.33 294.511 348.401 296.207C348.432 296.955 349.642 300.147 349.599 301.114C349.575 301.643 351.111 302.066 351.083 302.834C350.703 298.42 349.27 290.5 349.019 285.777C348.796 281.554 348.448 278.421 348.561 275.307Z" fill="#111111"/>
</g>
</g>
<path d="M357.339 328.143C372.213 328.143 377.673 328.644 392.215 328.166C387.946 333.391 379.67 339.587 377.841 346.081C370.056 347.029 362.446 349.391 355.494 353.018C356.352 344.812 357.687 336.658 357.339 328.143Z" fill="#8F8F8F"/>
<path d="M261.328 353.915C247.577 324.755 236.529 291.881 227.588 261.092C227.247 259.921 228.05 258.624 229.334 258.546C264.206 256.353 305.282 256.204 333.379 258.429C338.145 258.805 364.796 337.261 369.347 361.799C331.029 361.799 298.232 359.073 264.747 356.214C263.251 356.084 261.935 355.207 261.328 353.915Z" fill="#B3BCC9"/>
<path opacity="0.1686" d="M264.745 356.214C297.287 358.991 329.182 361.643 366.126 361.792C340.423 353.621 317.613 339.709 285.267 319.224C254.367 299.653 233.703 268.628 227.59 259.964C227.484 260.325 227.472 260.716 227.582 261.092C236.523 291.878 247.572 324.751 261.322 353.915C261.933 355.207 263.249 356.085 264.745 356.214Z" fill="#141414"/>
<path d="M391.431 321.156C379.169 330.552 373.693 334.445 364.956 347.672C360.859 353.876 355.494 365.066 355.494 365.066C355.494 365.066 354.432 369.653 354.397 371.631C354.358 373.793 355.255 381.563 355.255 381.563C355.251 381.842 355.545 382.022 355.788 381.892C357.013 381.242 361.102 379.629 365.402 377.306C375.636 371.776 391.169 362.677 401.716 356.214C402.663 355.635 403.642 355.024 404.246 354.088C405.393 352.302 404.794 349.85 403.517 348.15C402.244 346.454 400.415 345.271 398.81 343.881C393.088 338.926 390.26 329.22 391.431 321.156Z" fill="#F2DFA7"/>
<path opacity="0.1608" d="M392.018 321.156C391.035 321.473 388.556 323.224 384.455 326.526C381.295 329.075 376.799 332.702 373.572 336.341C369.972 340.399 366.013 345.663 363.855 349.364C372.42 340.422 387.389 330.058 391.63 330.043C392.183 332.334 392.582 331.633 393.134 333.924C387.921 337.328 381.737 339.208 369.338 349.838C366.463 352.302 362.022 357.432 359.277 360.574C356.531 363.715 355.485 365.066 355.485 365.066C355.485 365.066 354.824 367.428 354.71 368.744C360.495 363.785 370.36 354.17 377.171 349.485C388.525 341.679 396.342 339.78 398.711 340.285C396.267 341.695 389.163 346.317 382.008 351.26C379.431 353.042 375.53 355.235 372.444 358.6C365.895 365.748 358.438 372.367 355.286 381.818C355.243 381.943 355.395 382.037 355.482 381.936C362.026 374.349 370.098 366.555 378.612 359.998C388.873 352.102 399.78 345.831 409.45 341.57C399.569 353.155 383.809 363.378 372.632 373.299C379.035 369.723 396.252 359.692 402.111 355.96C402.565 355.67 407.801 350.21 408.201 349.905C408.526 349.654 409.501 343.297 409.826 343.035C410.124 342.792 403.035 350.214 403.395 349.877C403.556 349.724 403.669 349.924 403.669 349.924C403.669 349.924 404.457 343.814 404.844 343.462C396.796 337.504 394.912 330.736 392.018 321.156Z" fill="#111111"/>
<path d="M389.234 322.821C389.234 322.821 398.939 311.662 423.108 311.662C423.574 311.662 425.34 311.916 427.643 311.466C431.947 310.624 448.557 302.477 479.062 294.706C478.65 285.776 475.486 276.991 472.878 268.433C486.393 256.804 504.785 248.344 522.452 245.931C529.341 268.511 533.214 297.405 527.524 322.147C526.388 327.082 522.949 336.925 521.481 337.775C518.261 339.643 511.588 340.837 506.982 341.163C492.237 342.208 488.829 341.848 474.056 342.435C465.244 342.784 440.446 351.514 427.964 348.111C416.034 355.607 409.102 356.79 401.61 356.79C401.344 356.79 400.651 356.939 400.588 356.923C398.383 356.43 391.792 351.209 386.273 342.103C382.647 336.126 389.234 322.821 389.234 322.821Z" fill="#D08A5A"/>
<path opacity="0.1608" d="M386.987 343.25C388.753 346.618 396.68 352.45 402.362 353.018C409.381 353.719 417.781 353.86 425.399 349.666C424.06 350.453 418.063 354.299 411.022 355.815C409.451 356.152 406.099 356.645 403.612 356.755C403.107 356.778 402.597 356.763 402.1 356.786C401.795 356.798 401.65 356.763 401.505 356.794C401.383 356.821 401.188 356.837 401.078 356.853C400.741 356.904 400.557 356.919 400.557 356.919C400.557 356.919 399.958 356.806 398.924 356.163C397.075 355.008 394.8 353.046 393.343 351.424C390.547 348.295 389.035 346.528 386.987 343.25Z" fill="#141414"/>
<path opacity="0.1608" d="M483.357 294.248C481.184 293.919 475.423 295.584 469.415 297.295C462.577 299.246 458.241 300.483 450.882 303.076C448.928 303.766 444.197 305.426 440.476 306.813C436.282 308.379 433.677 309.406 430.885 310.448C426.996 311.897 427.203 311.235 420.213 315.594C422.163 314.607 447.22 305.579 449.414 304.784C470.492 297.17 460.164 299.782 483.357 294.248Z" fill="#141414"/>
<path d="M310.517 150.841C306.064 155.521 300.322 163.292 298.787 172.077C298.008 176.527 296.864 180.177 296.864 187.826C296.864 191.669 293.394 193.106 292.76 194.794C291.98 196.874 292.74 207.014 295.791 212.76C297.792 216.528 302.504 216.849 303.557 219.266C305.214 223.065 309.675 229.567 312.608 232.497C317.484 237.373 319.302 236.766 324.992 237.157C338.77 238.105 344.762 225.877 335.402 224.718C329.676 224.005 330.15 231.788 320.751 232.258C318.111 232.387 310.607 226.097 306.577 217.347C300.366 203.865 297.326 196.279 300.123 182.566C302.355 171.607 319.725 152.329 333.13 145.11C354.08 133.83 368.433 130.466 390.35 134.665C395.566 135.663 410.899 141.057 406.877 146.493C402.134 152.901 403.532 158.858 404.911 161.874C407.539 167.632 411.784 175.876 420.299 175.876C426.471 175.876 435.33 172.727 436.63 161.69C437.809 151.683 430.528 143.896 423.824 140.575C421.807 139.576 418.779 139.49 415.685 137.347C407.327 131.562 401.104 129.338 390.82 125.879C374.657 120.447 358.337 121.712 342.706 128.566C327.076 135.42 317.026 143.994 310.517 150.841Z" fill="#252525"/>
<path opacity="0.6" d="M423.816 140.568C421.799 139.569 418.771 139.483 415.677 137.341C407.32 131.556 401.096 129.331 390.812 125.872C374.649 120.44 358.329 121.705 342.698 128.559C327.068 135.414 317.03 143.995 310.521 150.842C306.499 155.072 301.415 161.832 299.343 169.579C299.253 169.94 299.159 170.3 299.077 170.66C299.077 170.668 299.073 170.676 299.073 170.684C308.547 150.791 326.778 140.404 334.642 136.205C346.474 129.891 366.671 123.045 389.989 129.68C402.69 133.295 416.284 140.067 421.979 149.545C427.168 158.182 426.479 168.51 418.047 175.662C418.047 175.662 418.047 175.662 418.051 175.662C419.966 175.548 421.908 175.568 423.816 175.533C429.401 174.479 435.561 170.739 436.626 161.679C437.797 151.676 430.517 143.889 423.816 140.568Z" fill="#141414"/>
<path opacity="0.1608" d="M458.198 208.867C465.185 205.052 482.801 206.881 490.83 215.627C501.428 227.169 505.423 236.327 509.143 253.09C515.515 281.816 519.706 288.443 516.075 320.133C514.842 330.892 508.027 334.46 477.232 337.535C465.671 338.69 448.599 346.528 443.065 347.581C441.577 347.863 440.104 348.055 438.683 348.169C434.414 348.514 430.556 348.173 427.807 347.558C425.281 346.994 423.769 346.16 423.04 345.819C423.726 346.359 425.911 347.828 429.311 348.416C431.978 348.878 435.651 349.042 439.603 348.666C448.438 347.832 458.3 345.396 458.825 345.29C464.249 344.186 465.663 343.528 469.137 343.077C473.308 342.537 481.552 342.255 484.321 342.106C490.035 341.804 491.641 341.879 493.466 341.879C496.141 341.879 498.886 341.644 500.746 341.554C505.239 341.334 507.393 341.08 511.427 340.649C514.34 340.339 518.554 339.035 519.541 338.667C519.596 338.647 520.289 338.369 520.795 338.126C521.284 337.891 521.582 337.692 521.625 337.656C522.24 337.182 522.839 335.827 523.63 334.006C524.59 331.785 525.565 328.965 526.141 327.077C529.689 315.46 531.318 300.4 529.932 284.471C528.984 273.602 528.146 265.064 522.659 245.884C524.096 245.574 523.994 245.586 526.411 245.261C525.894 243.451 524.895 240.851 523.524 236.448C522.071 231.787 519.913 226.139 518.484 222.054C515.676 214.025 512.041 205.161 508.18 200.751C503.75 195.695 499.074 192.314 492.189 190.513C487.987 189.412 479.703 187.767 472.481 192.839C465.878 197.481 462.083 201.895 458.198 208.867Z" fill="#141414"/>
<path opacity="0.6" d="M295.616 191.431C295.432 197.259 296.227 209.745 301.42 217.285C298.788 215.828 296.43 215.24 294.727 210.352C294.312 209.166 293.83 207.979 293.528 206.232C293.211 204.403 292.064 199.487 292.663 195.148C292.816 194.035 294.633 192.774 295.616 191.431Z" fill="#141414"/>
<path opacity="0.6" d="M312.605 232.502C316.353 235.102 324.523 235.968 329.841 234.394C335.947 232.584 336.385 230.312 339.096 226.384C340.737 228.585 339.656 231.178 337.384 233.45C335.947 234.887 333.534 236.023 331.149 236.661C329.876 236.998 329.058 237.112 327.507 237.19C326.645 237.233 326.191 237.257 325.216 237.178C322.87 236.982 318.562 237.092 316.576 235.713C315.268 234.801 314.085 234.17 312.605 232.502Z" fill="#141414"/>
<path d="M309.769 440.667C309.056 439.527 308.739 438.999 308.304 437.71C307.866 436.425 307.983 434.839 308.939 433.848C309.883 432.873 311.543 432.747 312.573 433.57C313.603 434.392 313.858 436.053 313.133 437.201C312.479 435.744 314.085 433.895 315.66 434.103C317.234 434.31 318.256 436.108 317.974 437.706C317.692 439.304 316.188 440.26 314.876 441.192C311.751 443.421 311.042 442.696 309.769 440.667Z" fill="#FF0069"/>
<path d="M319.134 417.288C318.535 416.76 317.924 416.019 317.548 415.314C317.172 414.609 317.066 413.705 317.497 413.031C317.928 412.357 318.981 412.103 319.557 412.655C319.334 415.495 321.981 415.361 321.676 418.193C321.449 420.285 320.125 422.274 318.637 423.763C314.658 427.742 311.677 433.453 311.242 444.255C311.223 444.772 310.146 444.357 309.919 444.333C308.771 444.216 310.976 432.47 311.987 430.284C313.4 427.229 313.663 426.618 315.836 424.049C316.886 422.807 318.225 421.714 318.97 420.273C319.714 418.828 319.78 417.86 319.134 417.288Z" fill="#D9D9D9"/>
<path d="M346.913 419.082C348.879 418.349 350.093 416.011 349.556 413.982C349.76 413.559 350.387 413.465 350.778 413.727C351.17 413.99 351.342 414.495 351.319 414.969C351.299 415.439 351.119 415.889 350.943 416.324C350.645 417.06 350.332 417.816 349.764 418.369C349.2 418.917 348.299 419.211 346.913 419.082Z" fill="#E1E1E1"/>
<path d="M347.802 420.05C348.589 420.743 348.863 421.953 348.46 422.917C348.938 423.304 349.725 423.101 350.066 422.584C350.402 422.067 350.336 421.362 350.034 420.829C349.729 420.296 349.22 419.905 348.691 419.595C348.503 419.599 348.319 419.603 347.802 420.05Z" fill="#D9D9D9" stroke="#D9D9D9" stroke-miterlimit="10"/>
<path d="M360.629 417.268C361.165 416.344 361.698 415.42 362.234 414.495C362.348 414.303 362.481 414.092 362.7 414.045C362.959 413.99 363.21 414.221 363.276 414.476C363.339 414.734 363.268 415 363.178 415.251C362.931 415.972 362.575 416.649 360.629 417.268Z" fill="#D9D9D9"/>
<path d="M326.046 418.926C325.815 418.232 325.302 417.739 324.988 417.093C324.675 416.446 324.671 415.432 325.235 415.13C325.733 414.868 326.297 415.377 326.528 415.976C326.755 416.572 326.782 417.257 326.99 417.868C327.197 418.479 327.714 419.031 326.046 418.926Z" fill="#D9D9D9"/>
<path d="M278.567 380.365C277.577 382.707 277.823 384.102 279.206 386.236C280.898 388.849 287.646 394.669 291.578 395.969C285.429 390.412 281.552 385.43 278.567 380.365Z" fill="#BDBDBD"/>
<path d="M283.279 448.457C282.402 448.085 281.458 447.826 280.734 447.211C280.009 446.596 279.515 445.613 279.75 444.693C279.982 443.788 280.957 443.138 281.881 443.275C282.805 443.412 283.553 444.313 283.514 445.245C282.594 444.603 282.923 442.946 283.965 442.527C285.006 442.108 286.271 442.825 286.667 443.874C287.062 444.924 286.581 446.06 286.005 447.019C284.991 448.711 285.108 449.232 283.279 448.457Z" fill="#FF0069"/>
<path d="M337.608 437.393C336.554 435.979 335.795 435.516 335.043 433.903C334.291 432.289 334.212 430.201 335.325 428.772C336.413 427.366 338.564 426.966 340.024 427.894C341.485 428.823 342.057 430.953 341.27 432.555C340.208 430.746 342.041 428.106 344.125 428.157C346.208 428.208 347.799 430.405 347.658 432.532C347.517 434.659 345.695 436.124 344.109 437.522C341.27 440.021 339.398 439.793 337.608 437.393Z" fill="#FF0069"/>
<path d="M278.077 429.352C276.899 428.436 275.516 427.743 274.627 426.528C273.734 425.314 273.327 423.599 274.008 422.232C274.678 420.884 276.393 420.195 277.756 420.724C279.119 421.249 279.946 422.921 279.562 424.378C278.383 423.054 279.464 420.563 281.199 420.258C282.934 419.952 284.618 421.511 284.853 423.297C285.088 425.083 284.007 426.76 282.742 428.021C280.936 429.826 280.58 431.299 278.077 429.352Z" fill="#FF0069"/>
<path d="M377.864 427.394C377.042 426.148 375.894 424.918 375.338 423.52C374.782 422.122 374.821 420.359 375.824 419.208C376.811 418.076 378.644 417.841 379.83 418.695C381.017 419.548 381.393 421.374 380.657 422.686C379.85 421.107 381.526 418.969 383.281 419.114C385.035 419.259 386.273 421.19 386.046 422.976C385.823 424.762 383.845 426.646 382.223 427.394C380.602 428.142 379.204 429.422 377.864 427.394Z" fill="#FF0069"/>
<path d="M370.987 451.333C370.49 450.46 369.867 449.974 369.538 449.014C369.213 448.055 369.296 446.868 370.012 446.128C370.717 445.399 371.955 445.305 372.726 445.92C373.494 446.535 373.686 447.777 373.145 448.634C372.656 447.545 373.858 446.163 375.033 446.32C376.208 446.476 376.976 447.82 376.764 449.014C376.553 450.209 375.468 450.98 374.45 451.619C372.491 452.849 371.998 453.103 370.987 451.333Z" fill="#FF0069"/>
<path d="M335.007 461.873C335.007 461.873 333.895 460.722 333.57 459.762C333.245 458.803 333.327 457.616 334.044 456.876C334.749 456.147 335.986 456.053 336.758 456.668C337.526 457.283 337.718 458.525 337.177 459.382C336.687 458.293 337.89 456.911 339.065 457.068C340.24 457.224 341.007 458.568 340.796 459.762C340.584 460.957 338.195 462.187 338.195 462.187L335.007 461.873Z" fill="#FF0069"/>
</g>
<mask id="mask24_4618_66039" style="mask-type:luminance" maskUnits="userSpaceOnUse" x="277" y="290" width="39" height="43">
<path fill-rule="evenodd" clip-rule="evenodd" d="M315.064 316.155C315.554 316.12 315.919 317.034 315.862 318.148C315.809 319.18 315.414 320.013 314.961 320.054L314.719 320.075L314.301 320.113C309.541 320.556 293.987 322.684 279.388 332.247C279.377 332.408 277.231 333.133 277.282 332.133C277.282 332.133 294.299 317.653 315.064 316.155ZM298.862 290.347C299.696 290.122 300.584 290.217 301.351 290.612C302.43 291.283 303.269 292.278 303.748 293.453C304.285 294.943 303.433 296.704 302.914 297.685C302.073 299.13 301.103 301.389 300.633 302.439C300.331 303.134 299.922 303.541 299.099 302.939C298.777 302.739 298.506 302.466 298.308 302.142C298.111 301.818 297.992 301.452 297.962 301.074C297.886 300.226 298.27 298.647 299.426 296.66C300.29 295.012 301.207 293.08 300.619 292.821C299.06 292.111 290.889 299.716 291.084 304.188C291.191 306.756 296.817 307.732 298.457 308.465C298.817 308.598 299.134 308.825 299.375 309.124C299.616 309.423 299.771 309.781 299.823 310.161C299.902 311.046 299.476 312.163 298.551 313.588C297.278 315.245 295.435 316.371 293.378 316.75C291.552 317.064 289.68 316.97 287.896 316.474C286.112 315.978 284.461 315.093 283.061 313.883C282.449 313.35 282.688 312.865 283.225 312.549C283.616 312.375 284.025 312.244 284.443 312.157C285.501 311.872 286.625 311.968 287.619 312.427C289.277 313.312 292.064 314.651 294.36 314.135C295.144 314.009 295.864 313.627 296.407 313.049C296.521 312.94 296.608 312.807 296.661 312.659C296.714 312.511 296.733 312.354 296.715 312.198C296.697 312.042 296.643 311.892 296.557 311.761C296.471 311.629 296.356 311.519 296.221 311.439C293.177 309.924 287.482 309.08 287.13 305.153C286.662 299.918 292.433 293.951 295.87 291.686C296.767 291.044 297.785 290.588 298.862 290.347Z" fill="white"/>
</mask>
<g mask="url(#mask24_4618_66039)">
<mask id="mask25_4618_66039" style="mask-type:luminance" maskUnits="userSpaceOnUse" x="272" y="288" width="46" height="46">
<path d="M314.051 288.116L272.836 291.803L276.591 333.771L317.806 330.084L314.051 288.116Z" fill="white"/>
</mask>
<g mask="url(#mask25_4618_66039)">
<mask id="mask26_4618_66039" style="mask-type:luminance" maskUnits="userSpaceOnUse" x="273" y="289" width="44" height="44">
<path d="M277.341 332.874L316.908 329.335L313.3 289.012L273.734 292.552L277.341 332.874Z" fill="white"/>
</mask>
<g mask="url(#mask26_4618_66039)">
<path d="M272.836 291.803L314.051 288.116L317.806 330.084L276.591 333.771L272.836 291.803Z" fill="#0057FF"/>
</g>
</g>
</g>
<defs>
<filter id="filter0_b_4618_66039" x="7.56177" y="-90" width="715.711" height="673.13" filterUnits="userSpaceOnUse" color-interpolation-filters="sRGB">
<feFlood flood-opacity="0" result="BackgroundImageFix"/>
<feGaussianBlur in="BackgroundImageFix" stdDeviation="50"/>
<feComposite in2="SourceAlpha" operator="in" result="effect1_backgroundBlur_4618_66039"/>
<feBlend mode="normal" in="SourceGraphic" in2="effect1_backgroundBlur_4618_66039" result="shape"/>
</filter>
<filter id="filter1_b_4618_66039" x="78" y="-19.9136" width="575" height="533" filterUnits="userSpaceOnUse" color-interpolation-filters="sRGB">
<feFlood flood-opacity="0" result="BackgroundImageFix"/>
<feGaussianBlur in="BackgroundImageFix" stdDeviation="15"/>
<feComposite in2="SourceAlpha" operator="in" result="effect1_backgroundBlur_4618_66039"/>
<feBlend mode="normal" in="SourceGraphic" in2="effect1_backgroundBlur_4618_66039" result="shape"/>
</filter>
<filter id="filter2_b_4618_66039" x="106" y="1.08643" width="521" height="492" filterUnits="userSpaceOnUse" color-interpolation-filters="sRGB">
<feFlood flood-opacity="0" result="BackgroundImageFix"/>
<feGaussianBlur in="BackgroundImageFix" stdDeviation="15"/>
<feComposite in2="SourceAlpha" operator="in" result="effect1_backgroundBlur_4618_66039"/>
<feBlend mode="normal" in="SourceGraphic" in2="effect1_backgroundBlur_4618_66039" result="shape"/>
</filter>
<linearGradient id="paint0_linear_4618_66039" x1="147.25" y1="85.8241" x2="615.452" y2="424.561" gradientUnits="userSpaceOnUse">
<stop stop-color="#232E43"/>
<stop offset="1" stop-color="#4C6189"/>
</linearGradient>
<linearGradient id="paint1_linear_4618_66039" x1="764.229" y1="535.412" x2="-42.4537" y2="-307.14" gradientUnits="userSpaceOnUse">
<stop offset="0.0541064" stop-color="#22458B" stop-opacity="0.47"/>
<stop offset="0.63085" stop-color="#1B2D52" stop-opacity="0.58"/>
<stop offset="0.792052" stop-color="#15171B" stop-opacity="0.57"/>
</linearGradient>
<linearGradient id="paint2_linear_4618_66039" x1="873.163" y1="597.195" x2="129.452" y2="-187.677" gradientUnits="userSpaceOnUse">
<stop offset="0.0541064" stop-color="#22458B" stop-opacity="0.47"/>
<stop offset="0.466157" stop-color="#1B2D52" stop-opacity="0.58"/>
<stop offset="1" stop-color="#15171B" stop-opacity="0.57"/>
</linearGradient>
<linearGradient id="paint3_linear_4618_66039" x1="723.002" y1="510.823" x2="-14.0686" y2="-242.868" gradientUnits="userSpaceOnUse">
<stop offset="0.0541064" stop-color="#1F2636" stop-opacity="0.89"/>
<stop offset="0.733105" stop-color="#7EA0E5" stop-opacity="0.4"/>
</linearGradient>
</defs>
</svg>
