<svg width="242" height="622" viewBox="0 0 242 622" fill="none" xmlns="http://www.w3.org/2000/svg">
<g clip-path="url(#clip0_15438_62689)">
<path d="M69.7185 412.256C52.464 387.992 41.617 358.26 48.7155 325.014C43.8562 335.048 65.2064 337.985 14.1725 381.998C3.0632 391.579 -57.8126 368.491 -89.2284 326.97C-110.371 299.028 -176.697 288.977 -124.805 229.02C-118.537 221.774 -110.763 213.736 -101.3 212.246C-91.8361 210.757 -93.7648 207.287 -85.1873 211.558C-57.3072 170.719 -38.1823 180.947 -23.3615 177.475C-13.7748 175.231 -3.4466 174.943 5.681 178.637C27.3932 187.424 35.3175 214.71 54.5366 228.101C62.5611 233.69 112.625 220.533 108.653 241.47C107.319 248.494 117.503 262.608 114.375 268.666C107.794 281.39 95.1756 281.652 103.062 286.558C100.77 309.957 95.3544 332.942 86.9591 354.9" fill="#D08A5A"/>
<path d="M42.0531 90.8694C22.2978 108.327 6.05834 149.26 -9.9023 157.753C-60.097 184.469 -71.0711 184.872 -69.2536 200.646C-63.8009 247.878 -31.0836 279.179 4.97765 301.255C50.2797 328.996 86.6978 338.089 110.583 325.174C128.426 315.527 97.8794 286.278 114.842 247.211C121.837 231.094 150.694 196.438 157.948 183.031C174.852 151.792 163.897 119.811 148.986 106.268C149.654 109.718 152.218 112.271 156.069 111.67C161.48 110.826 161.27 106.921 159.161 104.127C158.168 102.77 156.778 101.753 155.184 101.217C153.59 100.681 151.868 100.653 150.257 101.135C150.257 101.135 152.763 100.79 152.94 100.771C155.233 100.494 156.878 98.3245 157.422 97.2665C158.506 95.1613 159.857 91.2453 157.838 88.4563C157.033 87.3953 155.864 86.6698 154.557 86.4195C153.249 86.1693 151.895 86.4122 150.756 87.1012C147.658 89.4482 146.555 96.7301 143.19 94.2753C112.914 71.7859 79.9598 57.3714 42.0531 90.8694Z" fill="#D08A5A"/>
<path opacity="0.051" d="M138.799 192.182C157.018 167.232 124.639 139.932 107.329 127.281C90.0192 114.631 52.0288 90.509 33.8096 115.46C15.5904 140.41 24.3202 177.813 53.3133 198.999C82.3064 220.185 120.572 217.132 138.799 192.182Z" fill="black"/>
<mask id="mask0_15438_62689" style="mask-type:luminance" maskUnits="userSpaceOnUse" x="57" y="113" width="111" height="115">
<path d="M114.848 113.712L57.2896 196.518L126.452 227.691L167.163 137.293L114.848 113.712Z" fill="white"/>
</mask>
<g mask="url(#mask0_15438_62689)">
<path d="M123.989 119.487C150.354 129 154.478 145.083 153.302 158.319C152.386 168.605 147.956 183.959 141.415 190.793C138.842 193.483 135.868 197.254 132.809 199.382C123.347 205.811 112.14 209.179 100.701 209.03C88.2488 208.665 74.86 206.904 55.8081 193.15L110.751 111.858C115.2 117.018 121.822 118.706 123.989 119.487Z" fill="#F2D2B6"/>
</g>
<mask id="mask1_15438_62689" style="mask-type:luminance" maskUnits="userSpaceOnUse" x="5" y="72" width="111" height="125">
<path d="M115.882 113.612L58.3223 196.42L5.02623 142.415L75.5631 72.7647L115.882 113.612Z" fill="white"/>
</mask>
<g mask="url(#mask1_15438_62689)">
<path d="M29.3685 126.632C30.2911 123.009 32.7822 118.903 34.4015 115.547C38.518 107.021 51.3705 97.5284 60.7035 93.1031C72.7164 87.4068 89.2711 85.7226 107.491 107.261C108.989 109.031 112.562 115.211 118.973 117.621L62.9451 198.204C43.3176 185.028 36.3516 171.823 31.6195 160.215C27.4499 149.514 26.6642 137.792 29.3685 126.632Z" fill="#F2D2B6"/>
</g>
<path d="M92.7215 141.964C82.3267 134.935 68.8435 144.899 64.8563 148.715C60.8692 152.531 52.844 159.193 52.1915 165.2C52.0278 166.748 51.2434 169.555 58.8384 175.484C63.3109 178.975 67.2932 180.267 72.1408 184.756C78.2246 190.389 84.3508 191.759 88.4014 188.059C93.7405 183.178 95.7889 176.814 98.0739 170.886C104.305 154.689 98.7844 146.061 92.7215 141.964Z" fill="#D9A171"/>
<path d="M84.1329 111.136C84.9879 112.618 85.5411 114.256 85.7607 115.953C85.9803 117.651 85.862 119.375 85.4124 121.026C83.9746 125.263 81.5646 129.104 78.3755 132.241C75.8115 134.788 72.4786 136.417 68.8939 136.876C64.3012 137.312 59.3211 134.83 56.7039 132.617C54.2559 130.555 50.6813 126.045 46.4004 123.482C44.43 122.44 42.2853 121.769 40.0729 121.501C37.0378 121.402 31.0851 123.689 28.1353 126.444C29.4086 120.723 30.9602 117.937 33.2256 113.791C35.506 109.724 38.5168 106.112 42.1069 103.137C43.8956 101.452 45.8122 99.9091 47.8394 98.5207C47.8394 98.5207 52.9922 98.8511 55.1959 99.0605C59.4582 99.4616 62.5597 99.2793 66.7485 100.161C69.9674 100.893 73.0497 102.132 75.8802 103.831C78.9384 105.485 82.9854 109.052 84.1329 111.136Z" fill="#D9A171"/>
<path opacity="0.102" d="M47.776 98.5095L47.7652 98.5183C46.2148 99.5925 44.7309 100.76 43.3214 102.013C39.3408 105.257 35.953 109.167 33.3086 113.569C32.4748 115.03 31.3187 117.252 30.7809 118.522C29.6662 121.077 28.7771 123.726 28.1239 126.436C29.3254 125.308 30.6992 124.379 32.1936 123.684C32.6862 121.327 33.4069 119.023 34.3454 116.806C35.695 114.124 38.6538 108.75 42.3261 105.097C44.5803 102.758 47.0107 100.595 49.5957 98.6274C48.6757 98.5645 47.8022 98.4941 47.776 98.5095Z" fill="#523618"/>
<path d="M47.8389 98.5178C42.0297 103.274 38.8886 106.155 35.3057 111.126C31.7674 116.043 28.39 122.822 27.5786 129.379C27.0649 124.311 28.9301 119.87 31.3056 115.361C33.8123 110.916 36.8597 106.8 40.3782 103.104C41.3201 101.956 42.4289 100.955 43.6677 100.135C44.9048 99.263 46.337 98.7076 47.8389 98.5178Z" fill="#D08A5A"/>
<mask id="mask2_15438_62689" style="mask-type:luminance" maskUnits="userSpaceOnUse" x="92" y="137" width="70" height="69">
<path d="M121.96 137.308L161.346 166.084L132.293 205.868L92.9071 177.092L121.96 137.308Z" fill="white"/>
</mask>
<g mask="url(#mask2_15438_62689)">
<path d="M127.851 143.103C126.179 142.74 124.452 142.711 122.769 143.018C121.086 143.324 119.48 143.961 118.044 144.891C114.444 147.548 111.518 151.014 109.503 155.009C107.86 158.227 107.323 161.898 107.976 165.452C108.958 169.961 112.839 173.953 115.74 175.773C118.451 177.475 123.834 179.515 127.574 182.816C129.167 184.377 130.46 186.216 131.389 188.244C132.403 191.106 132.133 197.285 130.399 200.941C134.322 198.706 137.841 195.826 140.807 192.421C143.988 189.012 146.513 185.047 148.256 180.723C149.32 178.505 150.238 176.221 151.005 173.884C151.005 173.884 149.023 169.046 148.153 167.005C146.472 163.06 145.703 160.058 143.594 156.329C141.918 153.482 139.8 150.92 137.322 148.737C134.814 146.337 130.181 143.566 127.851 143.103Z" fill="#D9A171"/>
<path opacity="0.102" d="M150.994 173.885C150.994 173.885 150.283 176.138 148.935 179.211C147.055 183.992 144.361 188.411 140.973 192.272C139.835 193.509 138.067 195.292 137.022 196.186C134.967 197.98 132.744 199.572 130.383 200.941C131.076 199.518 131.512 197.984 131.674 196.409C133.769 195.219 135.744 193.83 137.573 192.261C139.714 190.163 143.934 185.712 146.296 181.096C147.845 178.202 149.17 175.193 150.262 172.097C150.612 172.956 150.951 173.771 150.994 173.885Z" fill="#523618"/>
</g>
<path d="M151.5 172.954C148.742 179.931 146.704 184.308 143.053 189.235C139.45 194.102 136.139 198.277 130.138 201.037C135.122 199.987 136.656 197.962 140.229 194.332C143.699 190.593 146.693 186.438 149.142 181.963C149.949 180.715 150.566 179.354 150.975 177.925C151.53 176.331 151.709 174.629 151.5 172.954Z" fill="#D08A5A"/>
<path opacity="0.141" d="M94.8697 164.843C93.2375 166.018 91.3736 166.832 89.4021 167.23C87.4307 167.628 85.397 167.602 83.4364 167.152C81.4962 166.667 79.6833 165.77 78.1214 164.52C76.5596 163.271 75.2854 161.699 74.3857 159.913C72.8892 156.922 72.5884 152.943 74.738 150.316C75.8796 153.109 77.8083 155.511 80.2893 157.228C82.7423 158.91 85.354 160.348 88.0871 161.52C90.329 162.569 92.5799 163.615 94.8697 164.843Z" fill="black"/>
<path d="M74.4743 148.484C77.3648 144.539 83.8061 145.247 89.7447 149.605C95.6834 153.963 98.4208 160.135 95.5304 164.08C92.6399 168.025 85.3814 167.618 79.4375 163.257C73.4936 158.895 71.5838 152.427 74.4743 148.484Z" fill="#252525"/>
<mask id="mask3_15438_62689" style="mask-type:luminance" maskUnits="userSpaceOnUse" x="84" y="156" width="9" height="9">
<path d="M87.3943 156.01L92.4746 158.3L89.6984 164.464L84.6181 162.174L87.3943 156.01Z" fill="white"/>
</mask>
<g mask="url(#mask3_15438_62689)">
<path d="M87.4315 158.816C89.7902 157.238 91.3479 157.394 91.9531 158.314C92.5582 159.235 91.4345 160.634 89.2728 161.462C87.9643 162.048 86.5502 162.359 85.1169 162.379C84.1579 162.264 85.447 160.137 87.4315 158.816Z" fill="#474747"/>
</g>
<mask id="mask4_15438_62689" style="mask-type:luminance" maskUnits="userSpaceOnUse" x="75" y="150" width="10" height="9">
<path d="M80.4826 150.209L84.5039 154.063L79.8302 158.942L75.8089 155.088L80.4826 150.209Z" fill="white"/>
</mask>
<g mask="url(#mask4_15438_62689)">
<path d="M81.9092 155.085C82.4813 152.304 81.76 150.918 80.6796 150.708C79.5991 150.498 78.7195 152.06 78.7667 154.371C78.7147 155.804 78.9563 157.232 79.4766 158.567C79.9346 159.409 81.4178 157.423 81.9092 155.085Z" fill="#474747"/>
</g>
<mask id="mask5_15438_62689" style="mask-type:luminance" maskUnits="userSpaceOnUse" x="84" y="156" width="9" height="9">
<path d="M87.3943 156.01L92.4746 158.3L89.6984 164.464L84.6181 162.174L87.3943 156.01Z" fill="white"/>
</mask>
<g mask="url(#mask5_15438_62689)">
<path d="M87.4315 158.816C89.7902 157.238 91.3479 157.394 91.9531 158.314C92.5582 159.235 91.4345 160.634 89.2728 161.462C87.9643 162.048 86.5502 162.359 85.1169 162.379C84.1579 162.264 85.447 160.137 87.4315 158.816Z" fill="#474747"/>
</g>
<mask id="mask6_15438_62689" style="mask-type:luminance" maskUnits="userSpaceOnUse" x="75" y="150" width="10" height="9">
<path d="M80.4826 150.209L84.5039 154.063L79.8302 158.942L75.8089 155.088L80.4826 150.209Z" fill="white"/>
</mask>
<g mask="url(#mask6_15438_62689)">
<path d="M81.9092 155.085C82.4813 152.304 81.76 150.918 80.6796 150.708C79.5991 150.498 78.7195 152.06 78.7667 154.371C78.7147 155.804 78.9563 157.232 79.4766 158.567C79.9346 159.409 81.4178 157.423 81.9092 155.085Z" fill="#474747"/>
</g>
<mask id="mask7_15438_62689" style="mask-type:luminance" maskUnits="userSpaceOnUse" x="84" y="156" width="9" height="9">
<path d="M87.3943 156.01L92.4746 158.3L89.6984 164.464L84.6181 162.174L87.3943 156.01Z" fill="white"/>
</mask>
<g mask="url(#mask7_15438_62689)">
<path d="M87.4315 158.816C89.7902 157.238 91.3479 157.394 91.9531 158.314C92.5582 159.235 91.4345 160.634 89.2728 161.462C87.9643 162.048 86.5502 162.359 85.1169 162.379C84.1579 162.264 85.447 160.137 87.4315 158.816Z" fill="#474747"/>
</g>
<mask id="mask8_15438_62689" style="mask-type:luminance" maskUnits="userSpaceOnUse" x="75" y="150" width="10" height="9">
<path d="M80.4826 150.209L84.5039 154.063L79.8302 158.942L75.8089 155.088L80.4826 150.209Z" fill="white"/>
</mask>
<g mask="url(#mask8_15438_62689)">
<path d="M81.9092 155.085C82.4813 152.304 81.76 150.918 80.6796 150.708C79.5991 150.498 78.7195 152.06 78.7667 154.371C78.7147 155.804 78.9563 157.232 79.4766 158.567C79.9346 159.409 81.4178 157.423 81.9092 155.085Z" fill="#474747"/>
</g>
<path opacity="0.671" d="M93.397 156.806C91.076 158.66 88.5539 160.246 85.8782 161.535C85.5199 161.754 85.1246 161.905 84.7119 161.982C84.5046 162.016 84.2918 161.995 84.0953 161.921C83.8987 161.846 83.7253 161.721 83.5927 161.558C83.4767 161.351 83.426 161.113 83.4471 160.877C83.4682 160.641 83.56 160.416 83.7108 160.233C84.019 159.87 84.3982 159.574 84.8249 159.363C86.0151 158.67 87.2022 157.983 88.3924 157.29C89.1311 156.803 89.9454 156.442 90.8022 156.221C91.2514 156.129 91.7151 156.133 92.1625 156.234C92.6099 156.335 93.0307 156.53 93.397 156.806Z" fill="#252525"/>
<path opacity="0.671" d="M80.9958 149.087C80.6014 152.016 80.2055 154.945 79.808 157.873C79.7485 158.167 79.7495 158.471 79.8108 158.766C79.8452 158.912 79.9224 159.045 80.0326 159.148C80.1427 159.25 80.2808 159.318 80.4293 159.342C80.8632 159.368 81.1476 158.916 81.3143 158.518C82.249 156.066 82.5945 153.43 82.323 150.82C82.3257 150.336 82.2001 149.859 81.9589 149.44C81.6863 149.04 81.0308 148.785 80.9958 149.087Z" fill="#252525"/>
<mask id="mask9_15438_62689" style="mask-type:luminance" maskUnits="userSpaceOnUse" x="50" y="102" width="35" height="36">
<path d="M66.8672 102.25L84.8662 115.403L68.7034 137.536L50.7044 124.384L66.8672 102.25Z" fill="white"/>
</mask>
<g mask="url(#mask9_15438_62689)">
<path d="M77.9468 124.84C85.1508 115.443 74.9361 108.462 74.9361 108.462C74.9361 108.462 62.5703 107.069 58.1178 114.256C53.6653 121.442 55.0046 128.712 60.6012 131.409C66.5928 134.292 72.8053 131.552 77.9468 124.84Z" fill="white"/>
<path d="M78.862 111.623C71.5304 102.213 60.4075 111.694 60.4643 111.659C62.5551 112.044 64.6213 112.554 66.6517 113.185C76.1776 116.911 78.8597 123.604 78.8597 123.604C78.8597 123.604 83.6581 117.783 78.862 111.623Z" fill="#D39266"/>
<path d="M69.2258 125.252C67.4959 124.472 66.7252 122.438 67.5044 120.707C68.2835 118.977 70.3175 118.207 72.0474 118.987C73.7773 119.766 74.548 121.801 73.7689 123.531C72.9897 125.261 70.9557 126.032 69.2258 125.252Z" fill="black" stroke="black" stroke-width="1.11383" stroke-miterlimit="10"/>
<path d="M70.8673 122.628C70.0862 122.276 69.7382 121.357 70.09 120.576C70.4418 119.795 71.3602 119.447 72.1413 119.799C72.9224 120.151 73.2705 121.07 72.9186 121.851C72.5668 122.632 71.6484 122.98 70.8673 122.628Z" fill="white"/>
<path opacity="0.141" d="M59.3289 112.694C58.5196 113.592 57.8406 114.6 57.3121 115.688C56.2528 117.686 55.6281 119.886 55.4792 122.143C55.3423 124.067 55.7421 129.327 60.8994 131.537C55.6969 119.081 68.4846 109.657 73.0664 107.7C68.2204 106.627 62.6681 109.402 59.3289 112.694Z" fill="black"/>
</g>
<path d="M117.184 153.51C123.945 143.785 133.702 151.397 133.702 151.397C133.702 151.397 138.79 162.767 133.293 169.18C127.796 175.593 120.477 176.54 116.207 172.029C111.631 167.204 112.359 160.446 117.184 153.51Z" fill="white"/>
<path d="M129.489 148.619C140.676 152.743 135.032 166.227 135.049 166.16C134.044 164.285 132.929 162.472 131.709 160.73C125.264 152.786 118.076 152.269 118.076 152.269C118.076 152.269 122.162 145.918 129.489 148.619Z" fill="#D39266"/>
<path d="M120.585 162.783C118.855 162.003 118.085 159.968 118.864 158.238C119.643 156.508 121.677 155.738 123.407 156.517C125.137 157.297 125.907 159.332 125.128 161.062C124.349 162.792 122.315 163.563 120.585 162.783Z" fill="black" stroke="black" stroke-width="1.11383" stroke-miterlimit="10"/>
<path d="M121.957 159.962C121.176 159.61 120.828 158.691 121.18 157.91C121.532 157.129 122.45 156.781 123.231 157.133C124.012 157.485 124.36 158.404 124.008 159.185C123.657 159.966 122.738 160.314 121.957 159.962Z" fill="white"/>
<path opacity="0.141" d="M134.413 167.556C133.804 168.602 133.049 169.556 132.171 170.389C130.588 172.007 128.683 173.274 126.58 174.108C124.782 174.825 119.663 176.044 115.983 171.798C129.429 172.967 134.519 157.917 134.985 152.953C137.487 157.236 136.531 163.377 134.413 167.556Z" fill="black"/>
<path opacity="0.141" d="M150.333 87.4601C148.937 89.203 147.719 91.0822 146.699 93.0691C146.282 93.7811 145.676 94.3637 144.949 94.7521C144.69 94.8042 144.424 94.8034 144.166 94.7497C143.908 94.696 143.664 94.5906 143.448 94.4398C143.448 94.4398 144.352 99.2104 142.708 101.915C137.468 110.529 128.869 119.074 120.512 117.537C154.938 139.214 151.9 191.471 83.8555 207.074C94.2749 217.633 91.8546 310.119 -1.15262 285.792C3.91858 285.795 104.442 313.616 109.307 312.539C111.56 312.035 108.113 332.615 109.822 332.048C110.927 331.682 105.846 331.79 108.061 330.801C109.152 330.313 114.437 330.365 114.998 330.064C115.295 329.907 115.749 329.686 116.263 329.386C117.046 328.961 117.8 328.487 118.523 327.967C119.294 327.385 119.986 326.705 120.582 325.945C121.221 325.129 121.707 324.203 122.016 323.214C122.885 321.223 122.612 317.451 122.597 317.228C122.35 314.737 121.903 312.27 121.26 309.851C116.939 295.691 107.665 278.435 110.602 260.846C111.762 254.453 113.961 248.293 117.112 242.612C132.338 216.723 141.394 208.714 152.209 192.035C154.726 188.534 156.988 184.856 158.979 181.031C160.565 178.018 161.883 174.871 162.917 171.627C163.648 169.553 164.249 167.435 164.719 165.286C165.41 162.422 165.893 159.51 166.164 156.576C167.176 144.083 165.026 136.083 164.919 135.616C164.816 135.185 163.364 129.876 163.189 129.305C162.096 126.191 160.823 123.144 159.377 120.177C157.793 117.205 155.985 114.358 153.967 111.66C154.881 111.801 155.814 111.759 156.712 111.536C158.025 111.287 159.207 110.58 160.049 109.541C161.433 107.518 160.094 104.536 157.983 102.795C156.522 101.587 154.704 100.895 152.81 100.828C153.655 100.627 154.461 100.29 155.198 99.8301C156.305 99.0666 158.219 97.126 158.811 93.0827C158.959 92.2425 158.937 91.3811 158.747 90.5493C158.556 89.7176 158.201 88.9325 157.702 88.2403C156.497 86.5967 154.568 86.4429 153.033 86.3116C152.025 86.3591 151.067 86.7666 150.333 87.4601Z" fill="#523618"/>
<path opacity="0.141" d="M89.7186 176.309C84.2604 175.816 79.0016 174.012 74.3896 171.05C69.7776 168.089 65.9488 164.057 63.229 159.297C63.1277 159.117 62.9705 172.872 69.5221 176.767C79.8727 182.906 89.7829 176.317 89.7186 176.309Z" fill="#141414"/>
<path d="M93.4676 175.451C81.8795 174.312 67.9424 164.831 62.9547 155.707C62.8535 155.526 63.3623 170.472 70.4881 176.183C81.4556 181.131 93.5233 175.453 93.4676 175.451Z" fill="#252525"/>
<path d="M77.978 178.102C78.1355 177.16 77.9837 176.192 77.5455 175.343C77.1073 174.495 76.4062 173.81 75.547 173.393C74.6315 172.832 72.3784 172.465 72.0387 173.325C72.7371 172.81 72.2322 171.576 71.2931 170.888C70.2631 170.103 68.9643 169.758 67.6808 169.928C67.1626 169.978 66.6536 170.098 66.1684 170.287C66.1684 170.287 67.5025 174.583 70.4878 176.185C72.8394 177.296 75.3819 177.947 77.978 178.102Z" fill="#E0A2A2"/>
<path d="M109.764 244.757C70.0823 278.047 22.0975 276.675 -3.711 249.424C-36.8411 214.438 -21.6604 169.827 -19.755 163.453C-26.2824 168.575 -26.1066 175.862 -27.1256 184.101C-28.8963 198.439 -29.6792 213.239 -25.6672 227.121C-20.5115 244.959 -7.35599 260.162 9.20742 268.559C25.7708 276.956 45.4524 278.648 63.43 274C81.4077 269.351 97.5887 258.536 109.764 244.757Z" fill="#BE7E51"/>
<path d="M108.461 252.634C95.7388 258.659 33.3779 289.703 -6.12906 256.564C-46.9685 222.304 -23.5244 163.83 -23.5244 163.83C-23.5244 163.83 -35.0594 158.658 -41.3014 158.472C-59.6743 157.911 -78.2933 166.114 -92.4649 177.969C-86.1478 181.157 -77.3682 188.684 -72.2687 194.515C-78.7207 200.293 -82.4335 202.526 -87.1666 213.438C-95.3407 210.936 -112.788 223.423 -121.841 230.554C-130.894 237.685 -138.255 293.446 -138.255 293.446C-138.255 293.446 -136.777 306.419 -78.6895 349.27C-52.1638 368.839 -5.63647 476.869 -0.581645 464.698C4.47319 452.527 8.79431 441.046 31.5588 418.289C54.3232 395.532 55.9753 384.694 62.5293 369.587C85.7972 315.956 77.6852 302.794 77.8197 302.641C80.2821 299.873 84.6593 308.673 89.0673 314.735C93.4753 320.797 87.4411 315.93 85.4593 323.152C91.2287 309.86 98.6028 321.498 101.48 311.001C104.357 300.505 109.066 302.345 118.858 297.599C121.043 296.542 110.238 290.651 111.977 288.952C114.655 286.35 119.098 272.751 116.343 268.429C114.334 265.297 120.141 262.437 108.461 252.634Z" fill="#232D40"/>
<g opacity="0.141">
<mask id="mask10_15438_62689" style="mask-type:luminance" maskUnits="userSpaceOnUse" x="-85" y="170" width="264" height="441">
<path d="M-84.3213 574.777L-4.24234 610.871C-4.18626 610.896 -4.1257 610.91 -4.06417 610.912C-4.00264 610.914 -3.94135 610.904 -3.88378 610.882C-3.82622 610.86 -3.77356 610.827 -3.72877 610.785C-3.68398 610.743 -3.64794 610.692 -3.62278 610.636L178.039 207.27C178.065 207.214 178.079 207.153 178.081 207.092C178.082 207.031 178.072 206.969 178.05 206.912C178.028 206.854 177.995 206.802 177.953 206.757C177.911 206.712 177.86 206.676 177.804 206.651L97.7243 170.558C97.6683 170.532 97.6079 170.518 97.5464 170.516C97.485 170.514 97.4238 170.524 97.3663 170.546C97.3088 170.568 97.2561 170.6 97.2113 170.643C97.1665 170.685 97.1305 170.735 97.1053 170.791L-84.5574 574.158C-84.5827 574.214 -84.5967 574.275 -84.5985 574.336C-84.6003 574.398 -84.5899 574.459 -84.568 574.517C-84.5461 574.574 -84.513 574.627 -84.4706 574.672C-84.4283 574.716 -84.3776 574.752 -84.3213 574.777Z" fill="white"/>
</mask>
<g mask="url(#mask10_15438_62689)">
<path d="M87.7184 274.506C55.8671 316.517 23.0632 348.088 -7.75 465.01C-28.9978 537.017 -3.70869 482.548 -3.70869 482.548L-4.25 469.01C-4.25 469.01 -10.8108 477.752 -7.75 472.51C-7.34788 476.506 -6.75 467.51 15.4894 435.691C15.7282 435.35 23.9707 424.982 38.7006 410.703C43.7967 404.936 47.7462 399.589 49.4137 397.316L53.8778 389.73L57.4492 383.036L60.1248 396.425L61.5895 397.375C60.9564 395.584 55.6479 383.836 55.218 381.985C54.6555 372.167 63.421 381.093 68.4854 371.016" fill="black"/>
</g>
</g>
<path d="M119.703 284.878C121.789 278.483 119.2 272.243 114.427 269.855C109.654 267.467 103.197 268.502 97.4086 271.487C91.6199 274.472 85.2425 278.351 81.7235 284.316C65.1048 312.429 59.2649 335.91 54.1333 357.366C47.7317 384.147 62.759 407.541 72.2475 415.954C85.8244 378.201 107.902 320.964 119.703 284.878Z" fill="#D08A5A"/>
<path opacity="0.141" d="M86.8465 326.612C70.4957 350.231 89.9322 372.92 85.13 395.355C83.3062 403.888 79.6658 411.163 72.2478 415.952C68.9142 412.598 65.8866 408.953 63.2012 405.06C59.4473 399.277 56.6064 392.95 54.7783 386.302C54.2225 384.073 53.847 382.492 53.3224 379.594C52.7439 375.979 52.5088 372.318 52.6204 368.66C52.7615 364.855 53.2682 361.073 54.1335 357.366C56.9394 344.703 60.1498 334.154 62.4903 326.678C65.1656 318.143 71.0872 304.649 71.0872 304.649L69.6338 304.602C69.6338 304.602 76.642 290.497 81.0995 291.769C84.5929 292.77 95.3897 298.129 96.7676 301.411C98.1455 304.694 88.235 324.609 86.8465 326.612Z" fill="#141414"/>
<path d="M67.8417 308.74C76.9754 287.704 95.3697 261.486 104.384 257.142C108.075 255.362 108.763 255.442 112.203 255.466C115.643 255.489 120.229 260.184 120.667 263.604C120.941 265.726 120.048 267.034 119.087 268.944C112.471 282.166 105.551 303.282 97.4987 315.681C96.3322 313.949 78.4383 307.046 67.8417 308.74Z" fill="#232D40"/>
<path d="M104.335 219.912C104.338 219.901 104.345 219.892 104.355 219.886C104.364 219.879 104.376 219.876 104.387 219.878C104.398 219.879 104.409 219.884 104.417 219.892C104.425 219.9 104.43 219.91 104.431 219.922C105.705 230.978 108.164 241.91 112.797 248.582C117.444 255.27 122.579 257.799 129.86 256.462C129.868 256.46 129.877 256.46 129.885 256.463C129.893 256.465 129.901 256.47 129.907 256.476C129.913 256.482 129.917 256.49 129.919 256.498C129.922 256.506 129.922 256.515 129.92 256.523C129.714 257.465 129.318 258.356 128.756 259.139C128.194 259.923 127.478 260.584 126.652 261.082C125.186 261.907 122.835 260.723 122.114 262.055C118.662 268.476 106.963 256.198 105.176 252.353C100.64 242.07 100.338 230.415 104.335 219.912Z" fill="#F2DFA7"/>
<path opacity="0.141" d="M127.419 256.767C119.918 257.017 116.667 253.38 114.592 250.926C112.694 248.746 111.167 246.269 110.073 243.593C107.272 237.097 106.411 232.71 105.053 224.689C103.93 228.127 103.214 242.464 107.754 250.782C110.254 255.367 114.426 258.774 118.486 262.056C123.444 263.175 125.848 258.342 127.419 256.767Z" fill="#141414"/>
<path d="M152.946 230.177C154.917 230.839 156.356 225.378 156.783 220.248C156.787 220.225 156.799 220.203 156.817 220.186C156.834 220.17 156.857 220.159 156.881 220.157C156.905 220.154 156.929 220.159 156.95 220.171C156.971 220.183 156.987 220.201 156.997 220.224C159.681 226.215 157.083 240.999 154.463 246.964C151.832 252.972 145.64 261.036 145.626 261.069L145.613 254.694" fill="#F2DFA7"/>
<path opacity="0.141" d="M156.34 223.708C155.554 237.809 149.486 252.406 141.64 262.481C147.223 254.176 151.616 235.994 155.167 228.11C155.717 226.69 156.11 225.214 156.34 223.708Z" fill="#141414"/>
<path d="M139.876 263.482C154.013 249.456 157.345 230.6 154.485 211.608C154.481 211.577 154.465 211.548 154.442 211.528C154.418 211.507 154.388 211.495 154.356 211.495C154.325 211.494 154.294 211.505 154.27 211.525C154.246 211.545 154.23 211.573 154.224 211.604C148.131 236.139 142.248 245.064 136.984 260.353C136.977 260.369 136.973 260.385 136.973 260.402C136.973 260.419 136.976 260.436 136.983 260.452C136.989 260.468 136.999 260.482 137.011 260.494C137.023 260.506 137.037 260.516 137.052 260.522C137.068 260.529 137.085 260.532 137.102 260.533C137.119 260.533 137.136 260.529 137.151 260.523C137.167 260.517 137.181 260.507 137.193 260.495C137.206 260.483 137.215 260.469 137.222 260.454C140.217 254.401 144.499 248.402 144.7 241.929C144.657 234.217 141.852 226.774 136.792 220.953C131.155 214.906 118.152 210.532 105.298 217.421C105.271 217.434 105.249 217.456 105.236 217.482C105.223 217.509 105.219 217.54 105.226 217.569C105.232 217.598 105.248 217.624 105.272 217.643C105.295 217.662 105.324 217.673 105.354 217.673C139.859 219.499 133.758 241.113 132.398 246.411C131.166 251.218 130.048 256.696 127.847 261.239C127.835 261.266 127.814 261.287 127.787 261.3C127.761 261.313 127.731 261.316 127.702 261.309C126.966 261.16 123.034 261.042 139.747 263.529C139.77 263.533 139.795 263.531 139.818 263.523C139.84 263.515 139.86 263.5 139.876 263.482Z" fill="#F2DFA7"/>
<path opacity="0.141" d="M140.621 259.765C139.276 258.668 137.599 258.057 135.864 258.032C144.652 244.636 150.659 225.166 152.519 218.095C152.69 219.097 154.441 237.476 140.621 259.765Z" fill="#141414"/>
<path d="M139.176 261.714C139.102 261.863 139.095 261.596 139.15 261.757C144.686 277.686 154.813 239.26 138.057 221.704C132.068 215.431 118.492 210.684 105.334 217.363C105.213 217.422 105.264 217.609 105.401 217.62C141.206 220.291 135.392 242.093 134.111 247.44C132.947 252.292 131.93 257.824 129.742 262.39C129.73 262.417 129.709 262.438 129.683 262.451C129.656 262.464 129.626 262.467 129.598 262.459C128.83 262.289 124.754 262.073 142.137 264.998C142.178 265.006 142.678 254.532 139.176 261.714Z" fill="#F2DFA7"/>
<path opacity="0.141" d="M137.094 258.229C140.973 246.544 142.063 234.208 133.025 224.137C128.979 219.625 118.638 216.038 110.765 218.142C123.42 219.929 128.568 224.124 131.456 228.927C133.973 233.114 134.013 238.469 133.277 242.412C132.383 247.217 131.03 252.036 129.626 256.834C131.472 256.842 133.038 256.501 134.877 256.507C135.23 256.518 137.047 257.221 137.094 258.229Z" fill="#141414"/>
<path d="M145.066 258.329C145.623 258.569 146.072 259.007 146.327 259.558C151.845 272.212 152.621 290.089 147.591 308.666C143.751 322.848 142.763 339.317 135.416 360.889C117.216 414.348 88.2454 416.38 73.5257 416.283C72.7938 416.276 72.0948 415.978 71.5824 415.455C39.5999 383.073 66.7586 333.551 100.895 293.324C110.642 281.834 118.368 265.968 124.386 258.272C127.948 253.71 138.081 255.146 145.066 258.329Z" fill="#D08A5A"/>
<path opacity="0.141" d="M150.951 286.729C150.754 298.94 147.45 308.42 145.295 318.992C141.635 336.957 140.329 347.203 135.455 360.906C131.956 370.745 127.426 381.536 121.648 390.003C119.204 393.715 116.421 397.19 113.332 400.385C107.944 405.889 101.478 410.22 94.3386 413.108C87.5388 415.744 78.3873 416.497 73.3328 416.292C72.7992 416.22 72.2928 416.013 71.8616 415.69C69.1094 412.981 66.6141 410.022 64.4078 406.852C81.7288 383.089 107.431 368.158 120.919 342.018C134.408 315.878 143.493 287.261 143.964 257.854C145.372 258.476 145.66 258.525 146.18 259.245C146.34 259.513 146.475 259.796 146.584 260.088C146.8 260.584 147.006 261.102 147.293 261.86C148.361 264.79 149.193 267.801 149.782 270.864C150.698 276.1 151.09 281.415 150.951 286.729Z" fill="#141414"/>
<path opacity="0.141" d="M74.5293 172.988C73.8413 173.013 73.1672 173.188 72.5539 173.501C71.9407 173.813 71.4032 174.256 70.9789 174.799C71.3764 174.187 71.8101 173.6 72.2778 173.04C72.3615 173.003 72.8124 172.571 74.5293 172.988Z" fill="#141414"/>
</g>
<defs>
<clipPath id="clip0_15438_62689">
<rect width="242" height="622" fill="white"/>
</clipPath>
</defs>
</svg>
