<svg width="534" height="501" viewBox="0 0 534 501" fill="none" xmlns="http://www.w3.org/2000/svg">
<path d="M287.456 0.600652C275.589 0.580634 263.8 2.51058 252.553 6.31405C247.169 8.13919 241.917 10.3368 236.836 12.8912C231.736 15.4615 226.784 18.319 222.004 21.4499C217.369 24.4718 212.744 27.797 207.863 31.6135C203.507 35.021 199.044 38.748 194.217 43.0085C185.238 50.9335 176.287 59.5931 167.631 67.9673C158.566 76.7369 149.191 85.8067 139.582 94.2459C134.402 98.7952 129.583 102.79 124.852 106.458C119.531 110.582 114.464 114.188 109.354 117.48C91.8402 128.768 76.4983 141.705 63.756 155.932C52.0945 168.81 42.4051 183.36 35.0057 199.102C28.4039 213.153 24.1332 228.193 22.3626 243.629C21.5646 250.842 21.3931 258.111 21.8502 265.354C22.2978 272.375 23.3811 279.34 25.0866 286.164C33.505 317.944 46.3322 347.467 63.2107 373.914C79.5404 399.639 99.9823 422.483 123.713 441.525C147.321 460.405 173.955 475.111 202.476 485.012C231.818 495.223 263.082 500.397 295.398 500.397C303.526 500.396 311.648 499.973 319.732 499.127C343.286 496.657 366.322 490.567 388.035 481.072C402.218 474.863 415.759 467.268 428.462 458.398C441.133 449.542 452.929 439.485 463.687 428.365C485.491 405.808 502.805 379.273 514.697 350.188C517.712 342.824 520.405 335.221 522.701 327.591C525.024 319.874 526.997 311.944 528.566 304.02C530.156 295.992 531.37 287.775 532.173 279.599C532.989 271.301 533.403 262.84 533.403 254.45C533.403 246.078 533.025 237.74 532.28 229.667C531.55 221.75 530.447 213.873 529.001 206.254C527.584 198.784 525.799 191.357 523.696 184.184C521.635 177.153 519.212 170.17 516.496 163.43C513.835 156.828 510.816 150.279 507.532 143.969C504.313 137.787 500.747 131.663 496.934 125.769C493.2 119.999 489.128 114.292 484.831 108.808C480.625 103.441 476.091 98.1417 471.355 93.0596C466.72 88.0868 461.767 83.1879 456.634 78.4992C451.612 73.9126 446.285 69.4047 440.799 65.1046C429.835 56.5393 418.312 48.72 406.309 41.699C383.25 28.1646 357.48 16.7486 329.713 7.76763C322.509 5.41403 315.143 3.59419 307.674 2.32272C300.992 1.19559 294.229 0.620049 287.453 0.601853M287.453 0.00120122C300.446 0.00120122 314.496 2.214 329.897 7.19581C436.141 41.5639 534 118.288 534 254.455C534 390.623 427.174 501 295.398 501C163.622 501 58.6524 415.216 24.5079 286.313C10.8843 232.116 36.5064 163.717 109.031 116.977C171.045 77.012 210.816 0 287.456 0L287.453 0.00120122Z" fill="url(#paint0_linear_4618_66044)"/>
<g filter="url(#filter0_b_4618_66044)">
<path d="M311.093 16.7946C417.897 49.2521 516.273 121.709 516.273 250.302C516.273 378.894 408.883 483.13 276.41 483.13C143.938 483.13 38.413 402.117 4.08846 280.385C-9.6076 229.204 16.1488 164.61 89.0592 120.47C161.97 76.3296 204.29 -15.6629 311.093 16.7946Z" fill="url(#paint1_linear_4618_66044)" fill-opacity="0.4"/>
</g>
<g filter="url(#filter1_b_4618_66044)">
<path d="M311.103 16.8792C417.76 49.3277 516 121.765 516 250.322C516 378.879 408.758 483.086 276.468 483.086C144.178 483.086 38.7991 402.096 4.52182 280.397C-9.15534 229.23 16.5655 164.654 89.3753 120.526C162.185 76.3979 204.448 -15.5694 311.103 16.8792Z" fill="url(#paint2_linear_4618_66044)" fill-opacity="0.4"/>
</g>
<g filter="url(#filter2_b_4618_66044)">
<path d="M306.588 37.2904C402.061 66.9263 490 133.085 490 250.498C490 367.912 394.003 463.086 275.584 463.086C157.165 463.086 62.8357 389.117 32.1525 277.967C19.9095 231.235 42.9334 172.256 108.109 131.953C173.284 91.65 211.115 7.65446 306.588 37.2904Z" fill="url(#paint3_linear_4618_66044)" fill-opacity="0.5"/>
</g>
<mask id="mask0_4618_66044" style="mask-type:alpha" maskUnits="userSpaceOnUse" x="27" y="32" width="462" height="433">
<path d="M304.871 38.8014C400.409 68.4176 488.407 134.532 488.407 251.868C488.407 369.204 392.345 464.315 273.846 464.315C155.348 464.315 60.9544 390.394 30.2506 279.318C17.9992 232.617 41.0387 173.677 106.258 133.401C171.478 93.1249 209.334 9.18514 304.871 38.8014Z" fill="#D9D9D9"/>
</mask>
<g mask="url(#mask0_4618_66044)">
<path d="M415.001 391.768L414.99 415.887C414.99 417.536 414.081 419.036 412.644 419.839C398.219 427.884 386.705 441.04 380.627 456.398C379.93 458.152 378.179 458.928 376.315 459.222C340.033 464.952 294.406 466.334 268.773 456.872C266.553 456.053 260.439 450.671 260.439 450.671C260.439 450.671 265.464 421.053 263.243 406.346C262.875 403.898 264.555 401.611 266.999 401.231C312.778 394.09 363.073 397.455 409.542 387.365C412.354 386.754 415.005 388.897 415.001 391.768Z" fill="#E8E8E8"/>
<path d="M415.001 394.262C415.307 400.427 414.915 409.859 414.852 416.227C414.837 417.759 413.959 419.094 412.651 419.893C398.642 428.463 392.85 433.292 379.601 457.854C379.107 458.767 374.36 459.488 369.727 460.2C363.14 461.215 355.906 462.057 353.964 462.057C385.377 443.417 396.849 416.991 385.73 406.866C408.269 397.901 396.077 402.715 415.001 394.262Z" fill="#D5D5D5"/>
<path d="M381.453 193.839C387.943 183.005 406.761 175.893 418.757 179.853C430.749 183.812 437.423 191.951 442.185 203.651C446.948 215.35 450.112 236.065 450.371 247.118C450.899 269.882 446.203 315.501 441.39 337.755C439.068 348.503 431.113 374.776 429.214 380.025C427.526 384.69 427.632 385.038 426.801 385.865C414.183 398.484 374.118 412.745 349.397 415.679C310.092 420.34 260.361 408.648 232.887 401.112C224.564 398.829 251.235 407.395 252.066 407.979C253.397 408.911 255.218 407.779 255.019 406.165C254.889 405.143 254.823 403.854 254.866 402.237C255.05 395.492 260.831 390.04 267.124 387.619C273.422 385.199 281.901 388.418 286.977 383.977C334.652 342.24 343.671 353.865 356.893 324.979C370.115 296.093 373.138 263.694 374.846 231.969C375.598 218.029 376.824 201.571 381.453 193.839Z" fill="#F2F2F2"/>
<path d="M384.418 402.103C339.179 421.624 282.215 409.635 280.593 409.552C308.298 418.091 339.845 416.873 348.915 415.741C359.874 414.37 371.654 411.538 382.432 408.009C388.879 405.898 398.353 402.35 404.071 399.725C409.867 397.066 414.136 395.057 419.458 391.59C421.687 390.137 425.231 387.732 427.209 385.398C424.738 384.681 416.968 381.552 416.098 381.176C416.094 381.172 407.349 392.205 384.418 402.103Z" fill="#D5D5D5"/>
<mask id="mask1_4618_66044" style="mask-type:luminance" maskUnits="userSpaceOnUse" x="171" y="79" width="331" height="298">
<path d="M235.75 339.583L452.615 376.369C452.772 376.322 501.547 201.996 501.5 201.839L346.307 79.0458C346.26 78.8891 328.174 86.6364 328.021 86.6834L171.81 135.678C171.654 135.725 171.568 135.893 171.615 136.05L235.374 339.395C235.425 339.547 235.594 339.634 235.75 339.583Z" fill="white"/>
</mask>
<g mask="url(#mask1_4618_66044)">
<path d="M191.048 189.631C192.047 207.507 200.416 228.489 227.248 239.718C230.858 241.23 235.409 244.32 236.373 247.23C240.093 258.464 239.526 268.091 245.345 278.791C252.172 291.345 252.003 298.215 257.584 305.147C258.869 306.745 270.391 299.209 303.481 283.907C314.659 278.737 321.634 293.883 327.019 282.806C332.404 271.734 343.311 267.347 344.243 255.068C344.972 245.464 343.726 231.591 348.128 223.166C351.79 216.155 358.221 209.461 366.269 208.474C366.555 208.439 372.003 205.596 371.752 205.459C357.755 197.774 402.473 203.481 402.473 203.481C402.473 203.481 372.896 186.791 344.827 166.585C322.852 150.765 317.365 143.026 306.544 135.87C298.198 130.347 281.686 123.532 264.896 126.153C264.587 126.2 264.552 126.638 264.849 126.732C267.328 127.535 269.929 127.022 270.505 124.418C271.155 121.464 267.606 117.489 264.579 117.524C261.931 117.552 258.975 119.095 257.945 122.169C257.945 122.169 258.99 120.254 259.065 120.117C260.048 118.382 259.386 116.13 258.932 115.213C258.027 113.388 256.002 110.439 253.037 110.411C250.382 110.388 248.447 112.828 248.471 114.634C248.51 117.99 252.845 123.658 249.418 124.731C218.314 134.225 188.968 152.336 191.048 189.631Z" fill="#D08A5A"/>
</g>
<mask id="mask2_4618_66044" style="mask-type:luminance" maskUnits="userSpaceOnUse" x="184" y="130" width="140" height="122">
<path d="M214.605 251.175L323.646 209.427C323.799 209.368 323.877 209.207 323.826 209.066L293.905 130.908C293.85 130.767 293.681 130.7 293.529 130.759L184.491 172.504C184.338 172.562 184.26 172.723 184.311 172.864L214.229 251.022C214.287 251.167 214.452 251.234 214.605 251.175Z" fill="white"/>
</mask>
<g mask="url(#mask2_4618_66044)">
<path d="M227.369 160.785C229.55 160.495 236.549 159.802 241.225 154.925C244.687 151.31 249.309 147.989 254.071 145.889C260.122 143.222 269.22 142.96 274.558 144.166C280.609 145.537 290.944 150.178 298.045 155.348C304.82 160.283 310.049 169.503 310.805 178.104C311.725 188.586 307.613 197.888 301.578 205.945C293.921 216.167 285.7 221.999 276.548 226.742C256.609 237.079 243.144 236.777 232.088 235.414C224.6 234.494 214.558 230.855 206.964 223.636C204.763 221.545 202.911 218.149 201.211 215.67C196.891 209.372 195.72 196.517 196.64 188.167C197.823 177.423 200.929 164.286 227.369 160.785Z" fill="#F2D2B6"/>
</g>
<path d="M200.768 191.061C201.99 188.765 203.643 186.893 205.409 184.99C207.175 183.082 209.721 181.578 211.37 180.81C214.491 179.35 219.097 179.831 221.427 180.462C223.409 180.998 225.822 182.812 227.564 185.044C229.421 187.426 229.871 191.636 230.13 194.648C230.384 197.664 229.029 203.061 227.134 205.411C225.755 207.119 222.837 209.548 218.122 210.597C212.443 211.866 210.653 212.187 208.734 214.224C207.559 215.47 206.333 217.244 205.707 218.235C204.861 219.57 204.453 220.162 204.297 220.471C201.869 217.585 199.938 213.809 198.708 210.824C198.262 209.747 196.1 205.196 196.143 199.662C196.143 199.787 198.798 194.762 200.768 191.061Z" fill="#D9A171"/>
<path opacity="0.1686" d="M196.143 199.705C196.143 199.705 196.198 201.734 196.398 203.199C196.515 204.049 197.302 207.437 198.332 209.948C199.836 213.614 201.528 217.201 204.285 220.48C205.539 218.506 206.087 217.609 206.087 217.609C206.087 217.609 203.306 214.773 201.144 209.317C200.083 206.638 198.61 203.501 197.576 197.054C196.817 198.483 196.143 199.705 196.143 199.705Z" fill="#523618"/>
<path d="M224.553 189.181C221.733 184.669 211.053 184.962 211.053 184.962C211.053 184.962 205.115 193.708 208.754 199.897C212.392 206.085 218.384 207.958 222.626 204.816C227.165 201.46 228.359 195.267 224.553 189.181Z" fill="white"/>
<path opacity="0.1412" d="M221.599 194.676C222.335 196.321 223.863 199.407 223.597 204.037C225.132 202.517 226.146 200.782 226.6 198.671C227.051 196.579 226.812 194.171 225.986 192.056C224.623 192.925 223.706 193.544 221.599 194.676Z" fill="#111111"/>
<path d="M217.201 204.766C218.815 204.766 220.123 203.457 220.123 201.844C220.123 200.23 218.815 198.922 217.201 198.922C215.587 198.922 214.279 200.23 214.279 201.844C214.279 203.457 215.587 204.766 217.201 204.766Z" fill="#111111" stroke="#111111" stroke-miterlimit="10"/>
<path d="M216.508 204.041C217.237 204.041 217.828 203.45 217.828 202.721C217.828 201.992 217.237 201.401 216.508 201.401C215.779 201.401 215.188 201.992 215.188 202.721C215.188 203.45 215.779 204.041 216.508 204.041Z" fill="white"/>
<path d="M212.314 183.576C203.271 187.019 208.304 199.192 208.288 199.141C208.288 199.141 215.459 199.004 226.104 191.982C226.104 191.982 225.955 191.488 225.505 190.607C223.934 187.524 219.536 180.827 212.314 183.576Z" fill="#D39266"/>
<path opacity="0.1294" d="M226.068 191.865C226.06 191.837 226.048 191.814 226.037 191.778C226.005 191.692 225.958 191.579 225.9 191.442C225.755 191.109 225.52 190.639 225.304 190.219C225.12 189.875 224.901 189.495 224.658 189.095C224.212 188.383 223.687 187.65 223.146 186.976C222.727 186.471 222.269 185.978 221.764 185.516C221.529 185.304 221.263 185.085 220.965 184.85C220.703 184.646 220.409 184.438 220.107 184.246C219.398 183.804 218.627 183.444 217.793 183.209C217.385 183.103 216.962 183.021 216.571 182.97C215.321 182.825 213.954 182.97 212.462 183.522C212.349 183.569 212.231 183.612 212.118 183.663C212.082 183.679 212.047 183.694 212.008 183.71C211.616 183.886 211.217 184.086 210.798 184.321C210.79 184.325 210.786 184.329 210.778 184.337C212.529 184.36 215.78 185.829 219.559 191.046C220.452 192.28 221.118 193.502 221.607 194.677C223.025 193.913 224.529 193.024 226.111 191.978C226.103 191.982 226.092 191.939 226.068 191.865Z" fill="#111111"/>
<path d="M264.626 158.865C262.887 160.467 260.568 163.471 260.482 167.384C260.396 171.297 261.622 176.098 263.455 179.557C265.029 182.522 267.551 185.193 270.63 186.533C274.652 188.283 279.908 187.524 282.943 186.313C285.778 185.181 290.376 182.185 295.025 181.147C296.611 180.791 299.948 180.826 301.35 181.233C304.123 182.044 308.126 185.706 309.962 189.067C312.077 180.376 310.534 174.904 308.932 169.796C307.436 165.026 305.212 161.489 305.212 161.489C305.212 161.489 304.401 161.078 303.555 160.702C301.452 159.766 296.694 157.079 294.449 156.57C290.47 155.669 287.725 154.588 283.667 154.141C280.248 153.765 277.679 154.133 274.295 154.737C271.029 155.32 266.29 157.333 264.626 158.865Z" fill="#D9A171"/>
<path d="M283.495 165.934C280.758 160.964 269.404 160.666 269.404 160.666C269.404 160.666 262.601 169.655 266.114 176.462C269.627 183.269 275.878 185.608 280.562 182.502C285.571 179.176 287.193 172.639 283.495 165.934Z" fill="white"/>
<path opacity="0.1412" d="M280.049 171.63C280.739 173.428 282.184 176.808 281.639 181.728C283.355 180.196 284.53 178.402 285.133 176.178C285.732 173.973 285.611 171.391 284.855 169.088C283.359 169.934 282.348 170.541 280.049 171.63Z" fill="#111111"/>
<path d="M274.08 182.213C275.795 182.213 277.186 180.817 277.186 179.095C277.186 177.373 275.795 175.978 274.08 175.978C272.365 175.978 270.974 177.373 270.974 179.095C270.974 180.817 272.365 182.213 274.08 182.213Z" fill="#111111" stroke="#111111" stroke-miterlimit="10"/>
<path d="M273.375 181.727C274.149 181.727 274.777 181.096 274.777 180.317C274.777 179.539 274.149 178.907 273.375 178.907C272.601 178.907 271.973 179.539 271.973 180.317C271.973 181.096 272.601 181.727 273.375 181.727Z" fill="white"/>
<path d="M270.822 159.26C261.027 162.417 265.679 175.687 265.664 175.628C265.664 175.628 273.285 175.891 284.987 169.009C284.987 169.009 284.858 168.476 284.427 167.509C282.935 164.137 278.643 156.738 270.822 159.26Z" fill="#D39266"/>
<path opacity="0.1294" d="M284.948 168.884C284.94 168.857 284.933 168.829 284.921 168.794C284.921 168.79 284.921 168.79 284.921 168.786C284.889 168.692 284.85 168.571 284.795 168.422C284.658 168.058 284.439 167.541 284.231 167.086C284.055 166.706 283.848 166.291 283.609 165.853C283.174 165.065 282.661 164.258 282.124 163.51C281.709 162.95 281.247 162.394 280.738 161.873C280.499 161.638 280.233 161.384 279.927 161.117C279.661 160.886 279.359 160.647 279.054 160.424C278.325 159.911 277.527 159.48 276.653 159.186C276.226 159.053 275.784 158.94 275.369 158.861C274.053 158.638 272.588 158.712 270.974 159.214C270.849 159.257 270.724 159.296 270.598 159.343C270.559 159.359 270.52 159.37 270.481 159.386C270.054 159.551 269.615 159.742 269.161 159.97C269.153 159.974 269.145 159.977 269.138 159.981C270.994 160.107 274.358 161.857 278.079 167.639C278.96 169.006 279.594 170.349 280.045 171.63C281.592 170.897 283.241 170.036 284.983 169.009C284.983 169.009 284.972 168.962 284.948 168.884Z" fill="#111111"/>
<path d="M237.692 183.533C231.359 191.233 231.916 202.094 233.059 206.712C234.203 211.326 235.95 214.616 237.81 217.134C238.605 218.215 241.969 223.938 249.896 221.451C254.055 220.146 257.098 217.178 262.534 215.474C269.357 213.335 273.551 207.652 272.004 203.183C263.396 178.347 246.461 178.672 243.919 179.471C240.72 180.474 238.041 183.11 237.692 183.533Z" fill="#D9A171"/>
<path opacity="0.1608" d="M254.51 214.382C256.297 213.72 257.159 211.6 256.435 209.646C255.711 207.693 253.676 206.646 251.889 207.309C250.102 207.971 249.24 210.091 249.964 212.045C250.688 213.998 252.723 215.045 254.51 214.382Z" fill="#252525"/>
<path d="M254.241 213.584C256.038 212.918 256.908 210.795 256.184 208.841C255.46 206.888 253.416 205.844 251.619 206.51C249.822 207.176 248.952 209.3 249.676 211.253C250.4 213.206 252.444 214.25 254.241 213.584Z" fill="#252525"/>
<path d="M236.059 198.827C234.657 194.53 238.66 190.077 245.137 187.97C251.611 185.859 257.717 187.135 259.119 191.432C260.521 195.729 256.299 200.958 249.825 203.069C243.351 205.18 237.461 203.124 236.059 198.827Z" fill="#252525"/>
<mask id="mask3_4618_66044" style="mask-type:luminance" maskUnits="userSpaceOnUse" x="249" y="190" width="7" height="9">
<path d="M251.854 198.51L255.308 197.382C255.465 197.331 255.547 197.162 255.496 197.01L253.542 191.009C253.491 190.853 253.322 190.77 253.169 190.821L249.715 191.949C249.559 192 249.476 192.169 249.527 192.321L251.481 198.322C251.532 198.478 251.701 198.561 251.854 198.51Z" fill="white"/>
</mask>
<g mask="url(#mask3_4618_66044)">
<g opacity="0.1216">
<mask id="mask4_4618_66044" style="mask-type:luminance" maskUnits="userSpaceOnUse" x="249" y="190" width="7" height="9">
<path d="M251.854 198.51L255.308 197.382C255.465 197.331 255.547 197.162 255.496 197.01L253.542 191.009C253.491 190.853 253.322 190.77 253.169 190.821L249.715 191.949C249.559 192 249.476 192.169 249.527 192.321L251.481 198.322C251.532 198.478 251.701 198.561 251.854 198.51Z" fill="white"/>
</mask>
<g mask="url(#mask4_4618_66044)">
<path d="M250.793 194.675C250.883 192.051 251.838 190.966 252.857 191.013C253.871 191.06 254.317 192.654 253.769 194.722C253.483 195.799 252.982 197.491 252.21 198.337C251.615 198.991 250.718 196.88 250.793 194.675Z" fill="white"/>
</g>
</g>
</g>
<mask id="mask5_4618_66044" style="mask-type:luminance" maskUnits="userSpaceOnUse" x="240" y="194" width="7" height="8">
<path d="M240.544 195.815L242.96 201.647C243.023 201.8 243.195 201.87 243.348 201.808L246.704 200.417C246.857 200.355 246.928 200.182 246.865 200.03L244.448 194.198C244.386 194.045 244.213 193.974 244.061 194.037L240.704 195.427C240.552 195.49 240.481 195.666 240.544 195.815Z" fill="white"/>
</mask>
<g mask="url(#mask5_4618_66044)">
<g opacity="0.1216">
<mask id="mask6_4618_66044" style="mask-type:luminance" maskUnits="userSpaceOnUse" x="240" y="193" width="7" height="10">
<path d="M242.843 201.995L246.794 200.706C246.951 200.655 247.033 200.487 246.982 200.334L244.93 194.04C244.879 193.883 244.711 193.801 244.558 193.852L240.606 195.141C240.45 195.191 240.367 195.36 240.418 195.513L242.471 201.807C242.521 201.96 242.69 202.042 242.843 201.995Z" fill="white"/>
</mask>
<g mask="url(#mask6_4618_66044)">
<path d="M245.016 196.809C243.242 194.875 241.808 194.671 241.068 195.368C240.328 196.065 241.025 197.565 242.788 198.78C243.704 199.414 245.188 200.37 246.32 200.511C247.198 200.624 246.508 198.435 245.016 196.809Z" fill="white"/>
</g>
</g>
</g>
<mask id="mask7_4618_66044" style="mask-type:luminance" maskUnits="userSpaceOnUse" x="249" y="190" width="7" height="9">
<path d="M251.854 198.51L255.308 197.382C255.465 197.331 255.547 197.162 255.496 197.01L253.542 191.009C253.491 190.853 253.322 190.77 253.169 190.821L249.715 191.949C249.559 192 249.476 192.169 249.527 192.321L251.481 198.322C251.532 198.478 251.701 198.561 251.854 198.51Z" fill="white"/>
</mask>
<g mask="url(#mask7_4618_66044)">
<g opacity="0.1216">
<mask id="mask8_4618_66044" style="mask-type:luminance" maskUnits="userSpaceOnUse" x="249" y="190" width="7" height="9">
<path d="M251.854 198.51L255.308 197.382C255.465 197.331 255.547 197.162 255.496 197.01L253.542 191.009C253.491 190.853 253.322 190.77 253.169 190.821L249.715 191.949C249.559 192 249.476 192.169 249.527 192.321L251.481 198.322C251.532 198.478 251.701 198.561 251.854 198.51Z" fill="white"/>
</mask>
<g mask="url(#mask8_4618_66044)">
<path d="M250.793 194.675C250.883 192.051 251.838 190.966 252.857 191.013C253.871 191.06 254.317 192.654 253.769 194.722C253.483 195.799 252.982 197.491 252.21 198.337C251.615 198.991 250.718 196.88 250.793 194.675Z" fill="white"/>
</g>
</g>
</g>
<mask id="mask9_4618_66044" style="mask-type:luminance" maskUnits="userSpaceOnUse" x="240" y="194" width="7" height="8">
<path d="M240.544 195.815L242.96 201.647C243.023 201.8 243.195 201.87 243.348 201.808L246.704 200.417C246.857 200.355 246.928 200.182 246.865 200.03L244.448 194.198C244.386 194.045 244.213 193.974 244.061 194.037L240.704 195.427C240.552 195.49 240.481 195.666 240.544 195.815Z" fill="white"/>
</mask>
<g mask="url(#mask9_4618_66044)">
<g opacity="0.1216">
<mask id="mask10_4618_66044" style="mask-type:luminance" maskUnits="userSpaceOnUse" x="240" y="193" width="7" height="10">
<path d="M242.843 201.995L246.794 200.706C246.951 200.655 247.033 200.487 246.982 200.334L244.93 194.04C244.879 193.883 244.711 193.801 244.558 193.852L240.606 195.141C240.45 195.191 240.367 195.36 240.418 195.513L242.471 201.807C242.521 201.96 242.69 202.042 242.843 201.995Z" fill="white"/>
</mask>
<g mask="url(#mask10_4618_66044)">
<path d="M245.016 196.809C243.242 194.875 241.808 194.671 241.068 195.368C240.328 196.065 241.025 197.565 242.788 198.78C243.704 199.414 245.188 200.37 246.32 200.511C247.198 200.624 246.508 198.435 245.016 196.809Z" fill="white"/>
</g>
</g>
</g>
<mask id="mask11_4618_66044" style="mask-type:luminance" maskUnits="userSpaceOnUse" x="249" y="190" width="7" height="9">
<path d="M251.854 198.51L255.308 197.382C255.465 197.331 255.547 197.162 255.496 197.01L253.542 191.009C253.491 190.853 253.322 190.77 253.169 190.821L249.715 191.949C249.559 192 249.476 192.169 249.527 192.321L251.481 198.322C251.532 198.478 251.701 198.561 251.854 198.51Z" fill="white"/>
</mask>
<g mask="url(#mask11_4618_66044)">
<g opacity="0.1216">
<mask id="mask12_4618_66044" style="mask-type:luminance" maskUnits="userSpaceOnUse" x="249" y="190" width="7" height="9">
<path d="M251.854 198.51L255.308 197.382C255.465 197.331 255.547 197.162 255.496 197.01L253.542 191.009C253.491 190.853 253.322 190.77 253.169 190.821L249.715 191.949C249.559 192 249.476 192.169 249.527 192.321L251.481 198.322C251.532 198.478 251.701 198.561 251.854 198.51Z" fill="white"/>
</mask>
<g mask="url(#mask12_4618_66044)">
<path d="M250.793 194.675C250.883 192.051 251.838 190.966 252.857 191.013C253.871 191.06 254.317 192.654 253.769 194.722C253.483 195.799 252.982 197.491 252.21 198.337C251.615 198.991 250.718 196.88 250.793 194.675Z" fill="white"/>
</g>
</g>
</g>
<mask id="mask13_4618_66044" style="mask-type:luminance" maskUnits="userSpaceOnUse" x="240" y="194" width="7" height="8">
<path d="M240.544 195.815L242.96 201.647C243.023 201.8 243.195 201.87 243.348 201.808L246.704 200.417C246.857 200.355 246.928 200.182 246.865 200.03L244.448 194.198C244.386 194.045 244.213 193.974 244.061 194.037L240.704 195.427C240.552 195.49 240.481 195.666 240.544 195.815Z" fill="white"/>
</mask>
<g mask="url(#mask13_4618_66044)">
<g opacity="0.1216">
<mask id="mask14_4618_66044" style="mask-type:luminance" maskUnits="userSpaceOnUse" x="240" y="193" width="7" height="10">
<path d="M242.843 201.995L246.794 200.706C246.951 200.655 247.033 200.487 246.982 200.334L244.93 194.04C244.879 193.883 244.711 193.801 244.558 193.852L240.606 195.141C240.45 195.191 240.367 195.36 240.418 195.513L242.471 201.807C242.521 201.96 242.69 202.042 242.843 201.995Z" fill="white"/>
</mask>
<g mask="url(#mask14_4618_66044)">
<path d="M245.016 196.809C243.242 194.875 241.808 194.671 241.068 195.368C240.328 196.065 241.025 197.565 242.788 198.78C243.704 199.414 245.188 200.37 246.32 200.511C247.198 200.624 246.508 198.435 245.016 196.809Z" fill="white"/>
</g>
</g>
</g>
<mask id="mask15_4618_66044" style="mask-type:luminance" maskUnits="userSpaceOnUse" x="-160" y="-80" width="918" height="794">
<path d="M-159.004 160.84L577.146 -79.0947C577.302 -79.1456 577.467 -79.0595 577.518 -78.9067L757.411 473.105C757.462 473.262 757.376 473.427 757.224 473.477L21.0738 713.416C20.9171 713.467 20.7526 713.381 20.7017 713.228L-159.192 161.216C-159.243 161.06 -159.157 160.891 -159.004 160.84Z" fill="white"/>
</mask>
<g mask="url(#mask15_4618_66044)">
<g opacity="0.3216">
<mask id="mask16_4618_66044" style="mask-type:luminance" maskUnits="userSpaceOnUse" x="247" y="189" width="9" height="11">
<path d="M250.479 199.185L254.998 197.712C255.155 197.661 255.237 197.493 255.186 197.34L252.597 189.393C252.547 189.236 252.378 189.154 252.225 189.205L247.706 190.678C247.549 190.729 247.467 190.897 247.518 191.05L250.107 198.997C250.154 199.15 250.322 199.236 250.479 199.185Z" fill="white"/>
</mask>
<g mask="url(#mask16_4618_66044)">
<path d="M252.507 189.116C252.75 191.85 252.374 194.591 252.002 197.31C251.951 197.693 251.892 198.085 251.708 198.426C251.524 198.767 251.176 199.045 250.788 199.037C250.349 199.029 249.989 198.653 249.856 198.234C249.719 197.819 249.762 197.368 249.805 196.934C249.93 195.668 250.052 194.403 250.177 193.138C250.255 192.324 250.341 191.493 250.678 190.753C251.015 190.009 251.665 189.355 252.507 189.116Z" fill="#252525"/>
</g>
</g>
</g>
<mask id="mask17_4618_66044" style="mask-type:luminance" maskUnits="userSpaceOnUse" x="-160" y="-80" width="918" height="794">
<path d="M-159.004 160.84L577.146 -79.0947C577.302 -79.1456 577.467 -79.0595 577.518 -78.9067L757.411 473.105C757.462 473.262 757.376 473.427 757.224 473.477L21.0738 713.416C20.9171 713.467 20.7526 713.381 20.7017 713.228L-159.192 161.216C-159.243 161.06 -159.157 160.891 -159.004 160.84Z" fill="white"/>
</mask>
<g mask="url(#mask17_4618_66044)">
<g opacity="0.3216">
<mask id="mask18_4618_66044" style="mask-type:luminance" maskUnits="userSpaceOnUse" x="239" y="192" width="9" height="10">
<path d="M242.78 201.813L247.421 200.301C247.577 200.251 247.659 200.082 247.609 199.929L245.204 192.55C245.153 192.394 244.984 192.311 244.832 192.362L240.191 193.874C240.034 193.925 239.952 194.093 240.003 194.246L242.407 201.625C242.454 201.778 242.623 201.864 242.78 201.813Z" fill="white"/>
</mask>
<g mask="url(#mask18_4618_66044)">
<path d="M240.026 194.258C242.012 196.134 243.997 198.01 245.979 199.89C246.183 200.082 246.39 200.278 246.653 200.372C246.915 200.466 247.244 200.43 247.42 200.215C247.671 199.905 247.487 199.447 247.279 199.106C246.014 197.05 244.103 195.46 242.047 194.195C241.667 193.964 241.264 193.733 240.817 193.725C240.375 193.713 239.823 194.066 240.026 194.258Z" fill="#252525"/>
</g>
</g>
</g>
<mask id="mask19_4618_66044" style="mask-type:luminance" maskUnits="userSpaceOnUse" x="-178" y="-55" width="914" height="787">
<path d="M-177.689 177.275L561.096 -54.4149C561.253 -54.4619 561.418 -54.3758 561.469 -54.2191L735.178 499.767C735.225 499.924 735.139 500.088 734.982 500.139L-3.80296 731.829C-3.95961 731.876 -4.12411 731.79 -4.17502 731.633L-177.885 177.647C-177.932 177.491 -177.846 177.326 -177.689 177.275Z" fill="white"/>
</mask>
<g mask="url(#mask19_4618_66044)">
<g opacity="0.1412">
<mask id="mask20_4618_66044" style="mask-type:luminance" maskUnits="userSpaceOnUse" x="236" y="73" width="178" height="176">
<path d="M278.709 248.594L413.239 206.407V206.403L371.415 73.0225L236.885 115.213L278.705 248.594H278.709Z" fill="white"/>
</mask>
<g mask="url(#mask20_4618_66044)">
<path d="M396.766 200.593C382.557 190.904 366.657 182.42 349.914 170.161C337.53 161.097 326.133 152.257 319.62 146.284C308.458 136.042 297.571 128.933 283.025 126.575C280.46 126.16 278.137 125.851 276.159 125.706C273.23 125.49 271.428 125.545 270.003 125.635C270.234 125.169 270.531 124.719 270.555 124.123C270.708 120.058 266.603 117.637 265.095 117.559C263.58 117.477 263.259 117.637 262.413 117.88C261.097 118.256 259.937 119.043 259.068 120.12C260.063 118.381 259.342 115.937 258.837 115.029C257.85 113.243 256.001 110.442 253.037 110.415C250.381 110.391 248.447 112.831 248.47 114.637C248.505 117.68 251.96 121.327 250.487 123.027C250.487 123.027 250.436 123.074 250.436 123.078C251.411 128.968 249.132 135.392 244.362 139.038C253.229 135.96 263.274 137.879 271.487 142.422C279.704 146.966 287.118 151.74 293.055 159.013C298.526 165.715 301.98 176.521 302.838 182.921C304.103 192.372 303.277 204.095 289.718 218.74C300.073 212.281 310.048 208.862 327.3 213.205C334.377 214.987 340.679 222.261 345.547 227.627C345.962 226.123 346.44 224.63 347.012 223.154" fill="#523618"/>
</g>
</g>
</g>
<path d="M419.391 245.226L412.961 245.903L416.008 250.247L419.391 245.226Z" fill="#111111"/>
<path d="M269.126 400.164C269.921 399.576 271.049 399.897 271.93 400.34C273.779 401.272 275.4 402.659 276.607 404.343C274.257 405.201 271.907 406.062 269.557 406.92C269.631 404.668 269.412 402.4 269.126 400.164Z" fill="#BDBDBD"/>
<path d="M191.424 346.442C186.822 349.959 181.919 351.295 178.351 355.858C174.783 360.421 170.683 366.237 170.322 373.941C170.056 379.57 175.222 388.727 178.386 393.388C183.709 401.221 189.435 409.411 198 413.457C203.369 415.991 209.397 416.665 215.299 417.303C224.686 418.318 234.078 419.328 243.466 420.343C250.406 421.091 258.082 421.659 263.71 417.527C271.296 411.961 271.453 400.512 268.386 391.618C287.365 400.152 308.945 399.212 329.741 399.878C345.231 400.375 370.915 393.243 385.621 381.971C404.804 367.267 408.375 349.121 405.207 333.109C403.394 323.956 385.738 325.292 376.441 324.548C342.168 321.806 307.895 319.064 273.618 316.322C263.33 315.5 252.716 314.713 242.921 317.96C236.224 320.18 230.279 324.172 224.428 328.12C210.513 337.512 197.651 341.687 191.424 346.442Z" fill="#D08A5A"/>
<path opacity="0.1608" d="M199.264 355.419C188.533 357.95 188.196 355.247 179.925 367.918C173.897 377.149 184.06 400.125 192.069 408.135C186.618 404.989 179.208 395.687 174.191 386.318C173.909 385.794 173.255 384.403 172.429 382.586C171.684 380.953 170.925 378.403 170.764 377.709C170.556 376.789 170.271 375.453 170.314 374.376C170.474 370.315 171.21 367.898 172.918 364.165C175.268 359.019 179.486 352.732 183.712 355.137C192.849 360.339 192.649 353.077 203.137 353.829C199.992 355 196.851 356.167 199.264 355.419Z" fill="#141414"/>
<path opacity="0.1608" d="M238.088 349.117C229.832 349.814 230.459 352.09 219.25 361.795C209.4 370.326 221.658 419.027 227.075 418.572C230.447 435.305 213.453 395.754 211.636 387.595C210.571 382.809 208.734 372.418 209.141 367.913C209.463 364.388 216.453 354.24 217.049 356.394C218.51 361.694 223.703 348.494 227.059 346.191C234.493 341.096 233.925 345.659 241.225 348.189C238.707 348.827 236.188 349.458 238.088 349.117Z" fill="#141414"/>
<path opacity="0.1608" d="M265.843 387.819C269.376 391.352 263.505 410.685 259.127 415.064C256.393 417.797 265.51 412.494 264.03 416.066C266.345 415.6 266.768 414.41 268.142 412.259C269.345 410.379 270.261 406.321 270.261 402.475C270.257 398.339 269.125 390.631 265.843 387.819Z" fill="#141414"/>
<path opacity="0.1608" d="M289.766 397.669C294.794 398.479 300.195 398.848 305.557 399.188C311.525 399.568 327.109 399.838 333.92 399.838C341.533 399.838 355.883 396.396 364.061 393.286C380.412 387.07 390.234 379.797 397.48 370.036C404.294 360.855 407.592 349.579 405.669 335.757C399.265 382.668 343.495 401.1 289.766 397.669Z" fill="#141414"/>
<path opacity="0.1608" d="M184.092 400.802C183.308 401.73 183.348 403.019 184.021 404.033C184.695 405.047 186.626 407.597 187.769 408.502C195.665 414.737 211.922 421.49 225.911 421.333C235.041 421.231 243.363 417.981 252.492 417.887C255.304 417.859 258.214 418.137 260.854 417.17C263.494 416.198 265.765 413.907 265.033 411.193C259.883 412.803 255.735 413.876 250.898 414.726C239.29 416.774 229.209 416.692 218.533 415.09C215.717 414.667 212.615 414.162 209.831 413.527C205.609 412.56 201.962 411.526 198.25 409.979C196.131 409.097 194.231 408.208 192.332 407.116C191.784 406.798 191.224 406.454 190.679 406.121C189.872 405.627 188.451 404.636 187.213 403.649C186.587 403.148 185.991 402.619 185.615 402.282C184.993 401.726 184.573 401.295 184.573 401.295C184.448 401.174 184.284 400.994 184.092 400.802Z" fill="#141414"/>
<g opacity="0.1686">
<mask id="mask21_4618_66044" style="mask-type:luminance" maskUnits="userSpaceOnUse" x="235" y="213" width="135" height="94">
<path d="M267.786 306.417L368.137 264.296C368.317 264.222 369.582 264.018 369.512 263.849L347.2 213.488C347.129 213.316 346.922 213.241 346.741 213.316L235.424 254.657C235.244 254.731 237.896 264.727 237.966 264.895L267.328 306.248C267.398 306.417 267.602 306.495 267.786 306.417Z" fill="white"/>
</mask>
<g mask="url(#mask21_4618_66044)">
<path d="M238.868 253.376C246.849 261.495 245.909 262.318 257.608 271.726C275.2 285.877 298.135 279.109 307.217 276.218C329.639 269.09 335.913 250.787 343.66 228.732C343.801 228.332 348.81 223.961 348.743 224.376C345.081 246.365 335.349 270.277 316.942 283.872C311.741 287.71 305.988 291.086 299.655 292.426C286.104 295.293 271.143 296.942 261.567 287.914C254.498 281.247 244.198 266.462 240.986 258.28" fill="#111111"/>
</g>
</g>
<path d="M168.912 398.206C169.178 404.473 158.569 410.219 156.105 415.985C153.642 421.75 155.549 431.467 160.496 435.321C158.408 432.168 152.4 431.722 150.955 435.216C149.51 438.709 151.413 444.584 154.39 446.915C157.366 449.245 161.604 450.174 165.285 451.043C240.438 468.755 280.734 462.688 280.734 462.688C280.734 462.688 278.31 461.54 279.215 459.139C280.119 456.734 283.029 455.524 284.929 453.797C289.389 449.743 288.105 443.891 286.354 441.193C284.604 438.494 282.222 438.212 279.638 437.707C282.391 438.846 289.899 427.942 286.284 422.901C283.339 418.797 276.869 415.103 276.066 405.472C261.865 410.607 245.349 414.222 227.768 412.624C210.187 411.026 190.104 406.886 179.549 393.479C175.734 388.63 174.45 385.74 171.736 381.623C171.556 382.986 168.278 383.315 168.912 398.206Z" fill="#FFF5F8"/>
<path opacity="0.1608" d="M286.24 422.783C286.757 428.302 285.222 431.733 281.419 435.532C277.593 439.359 269.905 440.338 264.504 440.702C269.666 440.702 277.667 439.331 281.113 437.479C283.503 436.194 285.277 432.963 286.354 430.472C287.431 427.981 287.697 424.871 286.24 422.783Z" fill="#141414"/>
<path opacity="0.1608" d="M166.765 403.673C168.48 408.483 169.843 411.245 174.1 413.865C176.25 415.189 177.511 415.259 179.959 416.434C184.079 418.408 189.069 420.496 194.368 421.643C191.246 420.876 184.655 417.057 181.745 415.036C179.062 413.172 174.555 412.051 172.201 409.223C169.722 406.251 168.833 404.888 168.163 401.433C167.924 402.138 168.026 401.754 167.618 402.428C167.196 403.121 167.192 402.965 166.765 403.673Z" fill="#141414"/>
<path opacity="0.1608" d="M286.21 440.973C287.827 445.258 286.973 450.647 283.112 453.103C274.061 458.86 249.798 457.157 244.754 457.157C248.177 457.552 271.437 460.537 279.36 457.407C282.074 456.334 285.861 453.659 287.275 450.518C288.689 447.377 288.027 444.075 286.21 440.973Z" fill="#141414"/>
<path opacity="0.1608" d="M156.727 414.718C155.474 419.92 156.449 425.568 159.117 430.205C161.784 434.842 164.764 436.217 172.475 439.249C159.637 435.575 151.55 432.183 152.831 440.208C153.469 444.207 157.397 447.02 161.177 448.484C168.955 451.5 177.316 453.525 185.443 455.413C179.294 454.23 174.755 453.247 168.637 451.825C163.55 450.643 157.346 449.601 154.072 446.655C153.379 446.033 152.878 445.269 152.29 444.427C150.751 442.225 149.854 437.373 151.06 434.987C152.271 432.59 155.909 432.069 158.893 433.801C158.122 432.751 157.178 431.454 156.622 429.907C154.867 425.035 154.056 419.442 156.727 414.718Z" fill="#141414"/>
<path opacity="0.1608" d="M168.923 391.188C179.267 408.899 202.413 416.317 211.037 418.037C234.363 422.694 250.209 421.162 272.729 411.178C255.34 417.782 236.165 419.607 217.844 416.407C199.526 413.211 182.815 403.956 168.923 391.188Z" fill="#141414"/>
<path d="M171.567 380.365C168.512 381.309 166.711 384.736 167.459 387.842C168.207 390.948 170.486 393.435 172.793 395.648C196.123 418.068 225.324 422.521 257.028 416.062C258.109 415.843 270.52 412.604 275.882 409.4C279.547 407.21 275.815 401.089 272.748 402.722C264.759 406.979 248.157 411.754 233.662 411.068C221.423 410.489 205.417 407.273 194.388 401.939C183.36 396.604 177.199 390.204 171.567 380.365Z" fill="white"/>
<path d="M382.154 193.615C385.886 186.161 402.946 181.089 416.18 185.66C428.105 189.776 440.881 212.235 439.373 252.134C438.222 282.599 432.202 323.329 430.784 330.285C425.395 356.692 416.18 380.756 416.18 380.756L427.228 385.025C427.228 385.025 413.787 378.472 409.573 376.283C406.6 374.74 398.47 370.091 398.47 370.091C398.47 370.091 398.317 370.404 397.248 371.681C406.964 378.516 427.173 385.393 427.173 385.393C427.173 385.393 427.357 385.237 427.816 384.022C428.575 381.997 430.087 377.454 432.774 368.873C436.06 358.372 441.793 337.926 444.276 321.605C447.629 299.574 448.831 284.89 449.25 277.084C449.83 266.266 450.668 258.295 450.362 246.479C450.124 237.114 449.184 230.079 447.409 221.823C445.224 211.647 443.313 204.848 438.304 195.726C436.201 191.895 433.118 188.386 429.88 185.789C426.641 183.192 423.245 181.516 419.661 180.165C416.133 178.833 412.988 178.672 409.984 178.774C406.216 178.903 401.544 179.836 396.86 181.766C392.164 183.701 387.48 186.521 383.74 190.728C382.902 191.668 382.585 192.6 382.154 193.615Z" fill="#D5D5D5"/>
<path d="M212.811 288.536C216.716 307.399 235.041 339.258 235.041 339.258L291.641 349.066C291.641 349.066 303.097 336.873 348.97 343.277C350.517 343.492 385.702 347.934 396.966 348.325C402.802 348.529 406.048 347.522 406.048 347.522C406.048 347.522 406.17 345.901 406.213 344.836C406.256 343.723 406.213 338.028 406.213 338.028C406.213 338.028 370.287 299.942 374.725 296.566C374.917 296.421 376.749 300.796 366.465 269.787C380.09 258.295 400.636 247.893 419.407 245.272C419.407 245.272 411.712 220.953 406.099 208.647C398.345 191.637 381.246 187.442 371.059 190.328C360.003 193.458 351.649 206.783 348.293 214.702C338.658 237.454 340.068 241.027 334.769 252.17C329.576 263.082 317.674 282.814 287.729 283.848C278.858 284.154 265.844 282.509 251.69 268.354C240.845 257.508 237.469 249.655 236.384 247.141C236.216 246.749 235.942 246.298 235.942 246.298C235.942 246.298 229.464 246.827 224.835 253.838C222.551 257.293 219.019 274.154 219.019 274.154" fill="#232D40"/>
<g opacity="0.1412">
<mask id="mask22_4618_66044" style="mask-type:luminance" maskUnits="userSpaceOnUse" x="331" y="229" width="117" height="240">
<path d="M401.541 468.275L447.77 453.822C447.907 453.779 447.986 453.638 447.943 453.509L377.952 229.601C377.913 229.472 377.768 229.397 377.631 229.44L331.401 243.893C331.264 243.936 331.186 244.077 331.229 244.207L401.22 468.114C401.263 468.247 401.404 468.318 401.541 468.275Z" fill="white"/>
</mask>
<g mask="url(#mask22_4618_66044)">
<path d="M354.876 240.984C354.876 240.984 362.431 275.146 369.038 319.369C370.749 330.841 376.706 318.606 376.706 333.062C376.706 337.527 386.09 342.658 380.286 316.757C377.462 304.157 374.109 289.79 371.47 273.634V273.83C371.062 268.785 372.269 279.454 366.797 269.917C366.797 269.917 363.891 265.879 359.638 254.418L354.876 240.984Z" fill="#111111"/>
</g>
</g>
<g opacity="0.2784">
<mask id="mask23_4618_66044" style="mask-type:luminance" maskUnits="userSpaceOnUse" x="237" y="275" width="9" height="22">
<path d="M241.401 296.21L244.828 295.615C244.969 295.591 245.063 295.458 245.04 295.317L241.609 275.565C241.586 275.424 241.452 275.33 241.311 275.354L237.884 275.949C237.743 275.973 237.649 276.106 237.673 276.247L241.104 295.999C241.127 296.14 241.26 296.234 241.401 296.21Z" fill="white"/>
</mask>
<g mask="url(#mask23_4618_66044)">
<path d="M241.561 275.307C240.731 281.586 240.625 282.729 240.931 288.311C240.97 289.027 241.33 294.511 241.401 296.207C241.432 296.955 242.642 300.147 242.599 301.114C242.575 301.643 244.111 302.066 244.083 302.834C243.703 298.42 242.27 290.5 242.019 285.777C241.796 281.554 241.448 278.421 241.561 275.307Z" fill="#111111"/>
</g>
</g>
<path d="M250.339 328.143C265.213 328.143 270.673 328.644 285.215 328.166C280.946 333.391 272.67 339.587 270.841 346.081C263.056 347.029 255.446 349.391 248.494 353.018C249.352 344.812 250.687 336.658 250.339 328.143Z" fill="#8F8F8F"/>
<path d="M154.328 353.915C140.577 324.755 129.529 291.881 120.588 261.092C120.247 259.921 121.05 258.624 122.334 258.546C157.206 256.353 198.282 256.204 226.379 258.429C231.145 258.805 257.796 337.261 262.347 361.799C224.029 361.799 191.232 359.073 157.747 356.214C156.251 356.084 154.935 355.207 154.328 353.915Z" fill="#B3BCC9"/>
<path opacity="0.1686" d="M157.745 356.214C190.287 358.991 222.182 361.643 259.126 361.792C233.423 353.621 210.613 339.709 178.267 319.224C147.367 299.653 126.703 268.628 120.59 259.964C120.484 260.325 120.472 260.716 120.582 261.092C129.523 291.878 140.572 324.751 154.322 353.915C154.933 355.207 156.249 356.085 157.745 356.214Z" fill="#141414"/>
<path d="M284.431 321.156C272.169 330.552 266.693 334.445 257.956 347.672C253.859 353.876 248.494 365.066 248.494 365.066C248.494 365.066 247.432 369.653 247.397 371.631C247.358 373.793 248.255 381.563 248.255 381.563C248.251 381.842 248.545 382.022 248.788 381.892C250.013 381.242 254.102 379.629 258.402 377.306C268.636 371.776 284.169 362.677 294.716 356.214C295.663 355.635 296.642 355.024 297.246 354.088C298.393 352.302 297.794 349.85 296.517 348.15C295.244 346.454 293.415 345.271 291.81 343.881C286.088 338.926 283.26 329.22 284.431 321.156Z" fill="#F2DFA7"/>
<path opacity="0.1608" d="M285.018 321.156C284.035 321.473 281.556 323.224 277.455 326.526C274.295 329.075 269.799 332.702 266.572 336.341C262.972 340.399 259.013 345.663 256.855 349.364C265.42 340.422 280.389 330.058 284.63 330.043C285.183 332.334 285.582 331.633 286.134 333.924C280.921 337.328 274.737 339.208 262.338 349.838C259.463 352.302 255.022 357.432 252.277 360.574C249.531 363.715 248.485 365.066 248.485 365.066C248.485 365.066 247.824 367.428 247.71 368.744C253.495 363.785 263.36 354.17 270.171 349.485C281.525 341.679 289.342 339.78 291.711 340.285C289.267 341.695 282.163 346.317 275.008 351.26C272.431 353.042 268.53 355.235 265.444 358.6C258.895 365.748 251.438 372.367 248.286 381.818C248.243 381.943 248.395 382.037 248.482 381.936C255.026 374.349 263.098 366.555 271.612 359.998C281.873 352.102 292.78 345.831 302.45 341.57C292.569 353.155 276.809 363.378 265.632 373.299C272.035 369.723 289.252 359.692 295.111 355.96C295.565 355.67 300.801 350.21 301.201 349.905C301.526 349.654 302.501 343.297 302.826 343.035C303.124 342.792 296.035 350.214 296.395 349.877C296.556 349.724 296.669 349.924 296.669 349.924C296.669 349.924 297.457 343.814 297.844 343.462C289.796 337.504 287.912 330.736 285.018 321.156Z" fill="#111111"/>
<path d="M282.234 322.821C282.234 322.821 291.939 311.662 316.108 311.662C316.574 311.662 318.34 311.916 320.643 311.466C324.947 310.624 341.557 302.477 372.062 294.706C371.65 285.776 368.486 276.991 365.878 268.433C379.393 256.804 397.785 248.344 415.452 245.931C422.341 268.511 426.214 297.405 420.524 322.147C419.388 327.082 415.949 336.925 414.481 337.775C411.261 339.643 404.588 340.837 399.982 341.163C385.237 342.208 381.829 341.848 367.056 342.435C358.244 342.784 333.446 351.514 320.964 348.111C309.034 355.607 302.102 356.79 294.61 356.79C294.344 356.79 293.651 356.939 293.588 356.923C291.383 356.43 284.792 351.209 279.273 342.103C275.647 336.126 282.234 322.821 282.234 322.821Z" fill="#D08A5A"/>
<path opacity="0.1608" d="M279.987 343.25C281.753 346.618 289.68 352.45 295.362 353.018C302.381 353.719 310.781 353.86 318.399 349.666C317.06 350.453 311.063 354.299 304.022 355.815C302.451 356.152 299.099 356.645 296.612 356.755C296.107 356.778 295.597 356.763 295.1 356.786C294.795 356.798 294.65 356.763 294.505 356.794C294.383 356.821 294.188 356.837 294.078 356.853C293.741 356.904 293.557 356.919 293.557 356.919C293.557 356.919 292.958 356.806 291.924 356.163C290.075 355.008 287.8 353.046 286.343 351.424C283.547 348.295 282.035 346.528 279.987 343.25Z" fill="#141414"/>
<path opacity="0.1608" d="M376.357 294.248C374.184 293.919 368.423 295.584 362.415 297.295C355.577 299.246 351.241 300.483 343.882 303.076C341.928 303.766 337.197 305.426 333.476 306.813C329.282 308.379 326.677 309.406 323.885 310.448C319.996 311.897 320.203 311.235 313.213 315.594C315.163 314.607 340.22 305.579 342.414 304.784C363.492 297.17 353.164 299.782 376.357 294.248Z" fill="#141414"/>
<path d="M203.517 150.841C199.064 155.521 193.322 163.292 191.787 172.077C191.008 176.527 189.864 180.177 189.864 187.826C189.864 191.669 186.394 193.106 185.76 194.794C184.98 196.874 185.74 207.014 188.791 212.76C190.792 216.528 195.504 216.849 196.557 219.266C198.214 223.065 202.675 229.567 205.608 232.497C210.484 237.373 212.302 236.766 217.992 237.157C231.77 238.105 237.762 225.877 228.402 224.718C222.676 224.005 223.15 231.788 213.751 232.258C211.111 232.387 203.607 226.097 199.577 217.347C193.366 203.865 190.326 196.279 193.123 182.566C195.355 171.607 212.725 152.329 226.13 145.11C247.08 133.83 261.433 130.466 283.35 134.665C288.566 135.663 303.899 141.057 299.877 146.493C295.134 152.901 296.532 158.858 297.911 161.874C300.539 167.632 304.784 175.876 313.299 175.876C319.471 175.876 328.33 172.727 329.63 161.69C330.809 151.683 323.528 143.896 316.824 140.575C314.807 139.576 311.779 139.49 308.685 137.347C300.327 131.562 294.104 129.338 283.82 125.879C267.657 120.447 251.337 121.712 235.706 128.566C220.076 135.42 210.026 143.994 203.517 150.841Z" fill="#252525"/>
<path opacity="0.6" d="M316.816 140.568C314.799 139.569 311.771 139.483 308.677 137.341C300.32 131.556 294.096 129.331 283.812 125.872C267.649 120.44 251.329 121.705 235.698 128.559C220.068 135.414 210.03 143.995 203.521 150.842C199.499 155.072 194.415 161.832 192.343 169.579C192.253 169.94 192.159 170.3 192.077 170.66C192.077 170.668 192.073 170.676 192.073 170.684C201.547 150.791 219.778 140.404 227.642 136.205C239.474 129.891 259.671 123.045 282.989 129.68C295.69 133.295 309.284 140.067 314.979 149.545C320.168 158.182 319.479 168.51 311.047 175.662C311.047 175.662 311.047 175.662 311.051 175.662C312.966 175.548 314.908 175.568 316.816 175.533C322.401 174.479 328.561 170.739 329.626 161.679C330.797 151.676 323.517 143.889 316.816 140.568Z" fill="#141414"/>
<path opacity="0.1608" d="M351.198 208.867C358.185 205.052 375.801 206.881 383.83 215.627C394.428 227.169 398.423 236.327 402.143 253.09C408.515 281.816 412.706 288.443 409.075 320.133C407.842 330.892 401.027 334.46 370.232 337.535C358.671 338.69 341.599 346.528 336.065 347.581C334.577 347.863 333.104 348.055 331.683 348.169C327.414 348.514 323.556 348.173 320.807 347.558C318.281 346.994 316.769 346.16 316.04 345.819C316.726 346.359 318.911 347.828 322.311 348.416C324.978 348.878 328.651 349.042 332.603 348.666C341.438 347.832 351.3 345.396 351.825 345.29C357.249 344.186 358.663 343.528 362.137 343.077C366.308 342.537 374.552 342.255 377.321 342.106C383.035 341.804 384.641 341.879 386.466 341.879C389.141 341.879 391.886 341.644 393.746 341.554C398.239 341.334 400.393 341.08 404.427 340.649C407.34 340.339 411.554 339.035 412.541 338.667C412.596 338.647 413.289 338.369 413.795 338.126C414.284 337.891 414.582 337.692 414.625 337.656C415.24 337.182 415.839 335.827 416.63 334.006C417.59 331.785 418.565 328.965 419.141 327.077C422.689 315.46 424.318 300.4 422.932 284.471C421.984 273.602 421.146 265.064 415.659 245.884C417.096 245.574 416.994 245.586 419.411 245.261C418.894 243.451 417.895 240.851 416.524 236.448C415.071 231.787 412.913 226.139 411.484 222.054C408.676 214.025 405.041 205.161 401.18 200.751C396.75 195.695 392.074 192.314 385.189 190.513C380.987 189.412 372.703 187.767 365.481 192.839C358.878 197.481 355.083 201.895 351.198 208.867Z" fill="#141414"/>
<path opacity="0.6" d="M188.616 191.431C188.432 197.259 189.227 209.745 194.42 217.285C191.788 215.828 189.43 215.24 187.727 210.352C187.312 209.166 186.83 207.979 186.528 206.232C186.211 204.403 185.064 199.487 185.663 195.148C185.816 194.035 187.633 192.774 188.616 191.431Z" fill="#141414"/>
<path opacity="0.6" d="M205.605 232.502C209.353 235.102 217.523 235.968 222.841 234.394C228.947 232.584 229.385 230.312 232.096 226.384C233.737 228.585 232.656 231.178 230.384 233.45C228.947 234.887 226.534 236.023 224.149 236.661C222.876 236.998 222.058 237.112 220.507 237.19C219.645 237.233 219.191 237.257 218.216 237.178C215.87 236.982 211.562 237.092 209.576 235.713C208.268 234.801 207.085 234.17 205.605 232.502Z" fill="#141414"/>
<path d="M202.769 440.667C202.056 439.527 201.739 438.999 201.304 437.71C200.866 436.425 200.983 434.839 201.939 433.848C202.883 432.873 204.543 432.747 205.573 433.57C206.603 434.392 206.858 436.053 206.133 437.201C205.479 435.744 207.085 433.895 208.66 434.103C210.234 434.31 211.256 436.108 210.974 437.706C210.692 439.304 209.188 440.26 207.876 441.192C204.751 443.421 204.042 442.696 202.769 440.667Z" fill="#FF0069"/>
<path d="M212.134 417.288C211.535 416.76 210.924 416.019 210.548 415.314C210.172 414.609 210.066 413.705 210.497 413.031C210.928 412.357 211.981 412.103 212.557 412.655C212.334 415.495 214.981 415.361 214.676 418.193C214.449 420.285 213.125 422.274 211.637 423.763C207.658 427.742 204.677 433.453 204.242 444.255C204.223 444.772 203.146 444.357 202.919 444.333C201.771 444.216 203.976 432.47 204.987 430.284C206.4 427.229 206.663 426.618 208.836 424.049C209.886 422.807 211.225 421.714 211.97 420.273C212.714 418.828 212.78 417.86 212.134 417.288Z" fill="#D9D9D9"/>
<path d="M239.913 419.082C241.879 418.349 243.093 416.011 242.556 413.982C242.76 413.559 243.387 413.465 243.778 413.727C244.17 413.99 244.342 414.495 244.319 414.969C244.299 415.439 244.119 415.889 243.943 416.324C243.645 417.06 243.332 417.816 242.764 418.369C242.2 418.917 241.299 419.211 239.913 419.082Z" fill="#E1E1E1"/>
<path d="M240.802 420.05C241.589 420.743 241.863 421.953 241.46 422.917C241.938 423.304 242.725 423.101 243.066 422.584C243.402 422.067 243.336 421.362 243.034 420.829C242.729 420.296 242.22 419.905 241.691 419.595C241.503 419.599 241.319 419.603 240.802 420.05Z" fill="#D9D9D9" stroke="#D9D9D9" stroke-miterlimit="10"/>
<path d="M253.629 417.268C254.165 416.344 254.698 415.42 255.234 414.495C255.348 414.303 255.481 414.092 255.7 414.045C255.959 413.99 256.21 414.221 256.276 414.476C256.339 414.734 256.268 415 256.178 415.251C255.931 415.972 255.575 416.649 253.629 417.268Z" fill="#D9D9D9"/>
<path d="M219.046 418.926C218.815 418.232 218.302 417.739 217.988 417.093C217.675 416.446 217.671 415.432 218.235 415.13C218.733 414.868 219.297 415.377 219.528 415.976C219.755 416.572 219.782 417.257 219.99 417.868C220.197 418.479 220.714 419.031 219.046 418.926Z" fill="#D9D9D9"/>
<path d="M171.567 380.365C170.577 382.707 170.823 384.102 172.206 386.236C173.898 388.849 180.646 394.669 184.578 395.969C178.429 390.412 174.552 385.43 171.567 380.365Z" fill="#BDBDBD"/>
<path d="M176.279 448.457C175.402 448.085 174.458 447.826 173.734 447.211C173.009 446.596 172.515 445.613 172.75 444.693C172.982 443.788 173.957 443.138 174.881 443.275C175.805 443.412 176.553 444.313 176.514 445.245C175.594 444.603 175.923 442.946 176.965 442.527C178.006 442.108 179.271 442.825 179.667 443.874C180.062 444.924 179.581 446.06 179.005 447.019C177.991 448.711 178.108 449.232 176.279 448.457Z" fill="#FF0069"/>
<path d="M230.608 437.393C229.554 435.979 228.795 435.516 228.043 433.903C227.291 432.289 227.212 430.201 228.325 428.772C229.413 427.366 231.564 426.966 233.024 427.894C234.485 428.823 235.057 430.953 234.27 432.555C233.208 430.746 235.041 428.106 237.125 428.157C239.208 428.208 240.799 430.405 240.658 432.532C240.517 434.659 238.695 436.124 237.109 437.522C234.27 440.021 232.398 439.793 230.608 437.393Z" fill="#FF0069"/>
<path d="M171.077 429.352C169.899 428.436 168.516 427.743 167.627 426.528C166.734 425.314 166.327 423.599 167.008 422.232C167.678 420.884 169.393 420.195 170.756 420.724C172.119 421.249 172.946 422.921 172.562 424.378C171.383 423.054 172.464 420.563 174.199 420.258C175.934 419.952 177.618 421.511 177.853 423.297C178.088 425.083 177.007 426.76 175.742 428.021C173.936 429.826 173.58 431.299 171.077 429.352Z" fill="#FF0069"/>
<path d="M270.864 427.394C270.042 426.148 268.894 424.918 268.338 423.52C267.782 422.122 267.821 420.359 268.824 419.208C269.811 418.076 271.644 417.841 272.83 418.695C274.017 419.548 274.393 421.374 273.657 422.686C272.85 421.107 274.526 418.969 276.281 419.114C278.035 419.259 279.273 421.19 279.046 422.976C278.823 424.762 276.845 426.646 275.223 427.394C273.602 428.142 272.204 429.422 270.864 427.394Z" fill="#FF0069"/>
<path d="M263.987 451.333C263.49 450.46 262.867 449.974 262.538 449.014C262.213 448.055 262.296 446.868 263.012 446.128C263.717 445.399 264.955 445.305 265.726 445.92C266.494 446.535 266.686 447.777 266.145 448.634C265.656 447.545 266.858 446.163 268.033 446.32C269.208 446.476 269.976 447.82 269.764 449.014C269.553 450.209 268.468 450.98 267.45 451.619C265.491 452.849 264.998 453.103 263.987 451.333Z" fill="#FF0069"/>
<path d="M228.007 461.873C228.007 461.873 226.895 460.722 226.57 459.762C226.245 458.803 226.327 457.616 227.044 456.876C227.749 456.147 228.986 456.053 229.758 456.668C230.526 457.283 230.718 458.525 230.177 459.382C229.687 458.293 230.89 456.911 232.065 457.068C233.24 457.224 234.007 458.568 233.796 459.762C233.584 460.957 231.195 462.187 231.195 462.187L228.007 461.873Z" fill="#FF0069"/>
</g>
<mask id="mask24_4618_66044" style="mask-type:luminance" maskUnits="userSpaceOnUse" x="170" y="290" width="39" height="43">
<path fill-rule="evenodd" clip-rule="evenodd" d="M208.064 316.155C208.554 316.12 208.919 317.034 208.862 318.148C208.809 319.18 208.414 320.013 207.961 320.054L207.719 320.075L207.301 320.113C202.541 320.556 186.987 322.684 172.388 332.247C172.377 332.408 170.231 333.133 170.282 332.133C170.282 332.133 187.299 317.653 208.064 316.155ZM191.862 290.347C192.696 290.122 193.584 290.217 194.351 290.612C195.43 291.283 196.269 292.278 196.748 293.453C197.285 294.943 196.433 296.704 195.914 297.685C195.073 299.13 194.103 301.389 193.633 302.439C193.331 303.134 192.922 303.541 192.099 302.939C191.777 302.739 191.506 302.466 191.308 302.142C191.111 301.818 190.992 301.452 190.962 301.074C190.886 300.226 191.27 298.647 192.426 296.66C193.29 295.012 194.207 293.08 193.619 292.821C192.06 292.111 183.889 299.716 184.084 304.188C184.191 306.756 189.817 307.732 191.457 308.465C191.817 308.598 192.134 308.825 192.375 309.124C192.616 309.423 192.771 309.781 192.823 310.161C192.902 311.046 192.476 312.163 191.551 313.588C190.278 315.245 188.435 316.371 186.378 316.75C184.552 317.064 182.68 316.97 180.896 316.474C179.112 315.978 177.461 315.093 176.061 313.883C175.449 313.35 175.688 312.865 176.225 312.549C176.616 312.375 177.025 312.244 177.443 312.157C178.501 311.872 179.625 311.968 180.619 312.427C182.277 313.312 185.064 314.651 187.36 314.135C188.144 314.009 188.864 313.627 189.407 313.049C189.521 312.94 189.608 312.807 189.661 312.659C189.714 312.511 189.733 312.354 189.715 312.198C189.697 312.042 189.643 311.892 189.557 311.761C189.471 311.629 189.356 311.519 189.221 311.439C186.177 309.924 180.482 309.08 180.13 305.153C179.662 299.918 185.433 293.951 188.87 291.686C189.767 291.044 190.785 290.588 191.862 290.347Z" fill="white"/>
</mask>
<g mask="url(#mask24_4618_66044)">
<mask id="mask25_4618_66044" style="mask-type:luminance" maskUnits="userSpaceOnUse" x="165" y="288" width="46" height="46">
<path d="M207.051 288.116L165.836 291.803L169.591 333.771L210.806 330.084L207.051 288.116Z" fill="white"/>
</mask>
<g mask="url(#mask25_4618_66044)">
<mask id="mask26_4618_66044" style="mask-type:luminance" maskUnits="userSpaceOnUse" x="166" y="289" width="44" height="44">
<path d="M170.341 332.874L209.908 329.335L206.3 289.012L166.734 292.552L170.341 332.874Z" fill="white"/>
</mask>
<g mask="url(#mask26_4618_66044)">
<path d="M165.836 291.803L207.051 288.116L210.806 330.084L169.591 333.771L165.836 291.803Z" fill="#0057FF"/>
</g>
</g>
</g>
<defs>
<filter id="filter0_b_4618_66044" x="-99.4382" y="-90" width="715.711" height="673.13" filterUnits="userSpaceOnUse" color-interpolation-filters="sRGB">
<feFlood flood-opacity="0" result="BackgroundImageFix"/>
<feGaussianBlur in="BackgroundImageFix" stdDeviation="50"/>
<feComposite in2="SourceAlpha" operator="in" result="effect1_backgroundBlur_4618_66044"/>
<feBlend mode="normal" in="SourceGraphic" in2="effect1_backgroundBlur_4618_66044" result="shape"/>
</filter>
<filter id="filter1_b_4618_66044" x="-29" y="-19.9136" width="575" height="533" filterUnits="userSpaceOnUse" color-interpolation-filters="sRGB">
<feFlood flood-opacity="0" result="BackgroundImageFix"/>
<feGaussianBlur in="BackgroundImageFix" stdDeviation="15"/>
<feComposite in2="SourceAlpha" operator="in" result="effect1_backgroundBlur_4618_66044"/>
<feBlend mode="normal" in="SourceGraphic" in2="effect1_backgroundBlur_4618_66044" result="shape"/>
</filter>
<filter id="filter2_b_4618_66044" x="-1" y="1.08643" width="521" height="492" filterUnits="userSpaceOnUse" color-interpolation-filters="sRGB">
<feFlood flood-opacity="0" result="BackgroundImageFix"/>
<feGaussianBlur in="BackgroundImageFix" stdDeviation="15"/>
<feComposite in2="SourceAlpha" operator="in" result="effect1_backgroundBlur_4618_66044"/>
<feBlend mode="normal" in="SourceGraphic" in2="effect1_backgroundBlur_4618_66044" result="shape"/>
</filter>
<linearGradient id="paint0_linear_4618_66044" x1="40.2505" y1="85.8241" x2="508.452" y2="424.561" gradientUnits="userSpaceOnUse">
<stop stop-color="#232E43"/>
<stop offset="1" stop-color="#4C6189"/>
</linearGradient>
<linearGradient id="paint1_linear_4618_66044" x1="657.229" y1="535.412" x2="-149.454" y2="-307.14" gradientUnits="userSpaceOnUse">
<stop offset="0.0541064" stop-color="#22458B" stop-opacity="0.47"/>
<stop offset="0.63085" stop-color="#1B2D52" stop-opacity="0.58"/>
<stop offset="0.792052" stop-color="#15171B" stop-opacity="0.57"/>
</linearGradient>
<linearGradient id="paint2_linear_4618_66044" x1="766.163" y1="597.195" x2="22.4517" y2="-187.677" gradientUnits="userSpaceOnUse">
<stop offset="0.0541064" stop-color="#22458B" stop-opacity="0.47"/>
<stop offset="0.466157" stop-color="#1B2D52" stop-opacity="0.58"/>
<stop offset="1" stop-color="#15171B" stop-opacity="0.57"/>
</linearGradient>
<linearGradient id="paint3_linear_4618_66044" x1="616.002" y1="510.823" x2="-121.069" y2="-242.868" gradientUnits="userSpaceOnUse">
<stop offset="0.0541064" stop-color="#1F2636" stop-opacity="0.89"/>
<stop offset="0.733105" stop-color="#7EA0E5" stop-opacity="0.4"/>
</linearGradient>
</defs>
</svg>
