<svg width="778" height="822" viewBox="0 0 778 822" fill="none" xmlns="http://www.w3.org/2000/svg">
<path d="M659.724 360.452V494.845H564.274L658.169 360.452H659.724ZM659.724 559.552V649.145H729.756V559.552H778V494.845H729.756V262.008H663.874L506.173 487.655V559.552H659.724Z" fill="#5C8FFF"/>
<path opacity="0.4" d="M575.5 452.9C575.5 483.7 570.833 512.167 561.5 538.3C552.633 563.967 540.033 586.367 523.7 605.5C507.833 624.167 488.7 638.867 466.3 649.6C444.367 659.867 420.567 665 394.9 665C368.767 665 344.733 659.867 322.8 649.6C300.867 638.867 281.733 624.167 265.4 605.5C249.533 586.367 236.933 563.967 227.6 538.3C218.733 512.167 214.3 483.7 214.3 452.9C214.3 422.1 218.733 393.867 227.6 368.2C236.933 342.067 249.533 319.667 265.4 301C281.733 281.867 300.867 266.933 322.8 256.2C344.733 245.467 368.767 240.1 394.9 240.1C420.567 240.1 444.367 245.467 466.3 256.2C488.7 266.933 507.833 281.867 523.7 301C540.033 319.667 552.633 342.067 561.5 368.2C570.833 393.867 575.5 422.1 575.5 452.9ZM481 452.9C481 434.233 478.9 417.2 474.7 401.8C470.5 385.933 464.433 372.4 456.5 361.2C449.033 350 439.933 341.367 429.2 335.3C418.933 329.233 407.5 326.2 394.9 326.2C381.833 326.2 369.933 329.233 359.2 335.3C348.933 341.367 339.833 350 331.9 361.2C324.433 372.4 318.6 385.933 314.4 401.8C310.2 417.2 308.1 434.233 308.1 452.9C308.1 471.567 310.2 488.6 314.4 504C318.6 519.4 324.433 532.7 331.9 543.9C339.833 555.1 348.933 563.733 359.2 569.8C369.933 575.867 381.833 578.9 394.9 578.9C407.5 578.9 418.933 575.867 429.2 569.8C439.933 563.733 449.033 555.1 456.5 543.9C464.433 532.7 470.5 519.4 474.7 504C478.9 488.6 481 471.567 481 452.9Z" fill="#5C8FFF"/>
<path d="M153.551 362.588V496.981H58.1005L151.996 362.588H153.551ZM153.551 561.688V651.281H223.583V561.688H271.827V496.981H223.583V264.145H157.701L0 489.792V561.688H153.551Z" fill="#5C8FFF"/>
<g filter="url(#filter0_b_4618_56228)">
<path d="M418.093 211.708C524.897 244.166 623.273 316.623 623.273 445.215C623.273 573.807 515.882 678.043 383.41 678.043C250.937 678.043 145.413 597.031 111.088 475.299C97.3922 424.118 123.149 359.523 196.059 315.383C268.969 271.243 311.29 179.251 418.093 211.708Z" fill="url(#paint0_linear_4618_56228)" fill-opacity="0.4"/>
</g>
<g filter="url(#filter1_b_4618_56228)">
<path d="M412.813 232.492C508.351 262.109 596.35 328.223 596.35 445.559C596.35 562.895 500.287 658.006 381.789 658.006C263.29 658.006 168.897 584.085 138.193 473.009C125.941 426.308 148.981 367.368 214.2 327.092C279.42 286.816 317.276 202.876 412.813 232.492Z" fill="url(#paint1_linear_4618_56228)"/>
</g>
<path d="M390.854 193.602C378.908 193.582 367.04 195.516 355.718 199.327C350.298 201.156 345.012 203.358 339.896 205.918C334.762 208.493 329.777 211.357 324.966 214.494C320.299 217.522 315.644 220.854 310.73 224.678C306.345 228.093 301.852 231.827 296.993 236.097C287.954 244.038 278.943 252.715 270.229 261.107C261.104 269.894 251.667 278.983 241.993 287.439C236.779 291.998 231.928 296.001 227.165 299.676C221.809 303.809 216.708 307.422 211.564 310.721C193.933 322.032 178.489 334.995 165.661 349.252C153.922 362.156 144.168 376.735 136.719 392.51C130.073 406.59 125.774 421.661 123.992 437.128C123.188 444.356 123.016 451.64 123.476 458.898C123.927 465.933 125.017 472.913 126.734 479.75C135.209 511.595 148.121 541.179 165.112 567.68C181.551 593.458 202.129 616.349 226.019 635.43C249.784 654.349 276.596 669.084 305.307 679.006C334.845 689.238 366.318 694.423 398.849 694.423C407.031 694.422 415.208 693.997 423.346 693.15C447.057 690.675 470.246 684.573 492.104 675.058C506.382 668.836 520.013 661.226 532.801 652.337C545.557 643.463 557.431 633.385 568.261 622.243C590.211 599.639 607.64 573.05 619.611 543.906C622.646 536.526 625.357 528.908 627.669 521.262C630.007 513.53 631.994 505.583 633.573 497.643C635.174 489.599 636.396 481.365 637.204 473.172C638.025 464.857 638.442 456.379 638.442 447.971C638.442 439.582 638.062 431.227 637.312 423.138C636.577 415.205 635.466 407.312 634.011 399.676C632.584 392.191 630.787 384.75 628.67 377.561C626.596 370.516 624.156 363.519 621.423 356.765C618.744 350.149 615.705 343.587 612.398 337.264C609.158 331.07 605.568 324.933 601.73 319.027C597.971 313.245 593.872 307.526 589.546 302.031C585.313 296.653 580.748 291.343 575.98 286.25C571.314 281.267 566.328 276.358 561.161 271.66C556.105 267.064 550.743 262.547 545.221 258.238C534.183 249.655 522.583 241.82 510.5 234.785C487.288 221.222 461.346 209.783 433.393 200.784C426.141 198.425 418.726 196.602 411.207 195.327C404.48 194.198 397.672 193.621 390.851 193.603M390.851 193.001C403.93 193.001 418.074 195.219 433.578 200.211C540.531 234.649 639.043 311.53 639.043 447.977C639.043 584.424 531.505 695.027 398.849 695.027C266.194 695.027 160.524 609.067 126.151 479.899C112.437 425.592 138.23 357.053 211.238 310.217C273.666 270.17 313.702 193 390.854 193L390.851 193.001Z" fill="url(#paint2_linear_4618_56228)"/>
<mask id="mask0_4618_56228" style="mask-type:alpha" maskUnits="userSpaceOnUse" x="134" y="227" width="462" height="433">
<path d="M411.871 233.715C507.408 263.331 595.407 329.446 595.407 446.781C595.407 564.117 499.345 659.229 380.846 659.229C262.348 659.229 167.954 585.308 137.25 474.232C124.999 427.531 148.039 368.591 213.258 328.315C278.477 288.038 316.334 204.099 411.871 233.715Z" fill="#D9D9D9"/>
</mask>
<g mask="url(#mask0_4618_56228)">
<path d="M522.002 586.682L521.99 610.801C521.99 612.45 521.081 613.95 519.644 614.753C505.22 622.798 493.705 635.954 487.627 651.312C486.93 653.066 485.179 653.842 483.315 654.136C447.033 659.866 401.407 661.249 375.774 651.786C373.553 650.967 367.439 645.586 367.439 645.586C367.439 645.586 372.464 615.967 370.244 601.26C369.875 598.812 371.556 596.525 373.999 596.145C419.779 589.004 470.074 592.369 516.542 582.279C519.354 581.668 522.006 583.811 522.002 586.682Z" fill="#E8E8E8"/>
<path d="M522.002 589.176C522.307 595.341 521.915 604.773 521.853 611.141C521.837 612.673 520.96 614.008 519.652 614.807C505.643 623.377 499.85 628.207 486.601 652.768C486.107 653.681 481.361 654.402 476.728 655.114C470.14 656.129 462.906 656.971 460.964 656.971C492.378 638.331 503.849 611.905 492.73 601.78C515.269 592.815 503.077 597.629 522.002 589.176Z" fill="#D5D5D5"/>
<path d="M488.453 388.753C494.943 377.92 513.761 370.807 525.757 374.767C537.749 378.726 544.423 386.865 549.185 398.565C553.948 410.264 557.112 430.979 557.371 442.032C557.899 464.797 553.203 510.415 548.39 532.67C546.068 543.417 538.113 569.69 536.214 574.939C534.526 579.604 534.632 579.952 533.801 580.779C521.183 593.398 481.118 607.659 456.397 610.593C417.092 615.254 367.361 603.562 339.887 596.027C331.564 593.743 358.235 602.309 359.066 602.893C360.397 603.825 362.218 602.693 362.019 601.079C361.889 600.057 361.823 598.768 361.866 597.151C362.05 590.406 367.831 584.954 374.124 582.533C380.422 580.113 388.901 583.332 393.977 578.891C441.652 537.154 450.671 548.779 463.893 519.893C477.115 491.007 480.138 458.608 481.846 426.883C482.598 412.943 483.824 396.485 488.453 388.753Z" fill="#F2F2F2"/>
<path d="M491.418 597.017C446.179 616.538 389.215 604.549 387.593 604.467C415.298 613.005 446.845 611.787 455.916 610.655C466.874 609.284 478.654 606.452 489.432 602.923C495.879 600.812 505.353 597.264 511.071 594.639C516.867 591.98 521.136 589.971 526.458 586.504C528.687 585.051 532.231 582.646 534.209 580.312C531.738 579.595 523.968 576.466 523.098 576.09C523.094 576.086 514.349 587.119 491.418 597.017Z" fill="#D5D5D5"/>
<mask id="mask1_4618_56228" style="mask-type:luminance" maskUnits="userSpaceOnUse" x="278" y="273" width="331" height="299">
<path d="M342.75 534.497L559.616 571.283C559.772 571.236 608.548 396.91 608.501 396.754L453.308 273.96C453.261 273.804 435.175 281.551 435.022 281.598L278.811 330.592C278.654 330.639 278.568 330.808 278.615 330.964L342.374 534.309C342.425 534.462 342.594 534.548 342.75 534.497Z" fill="white"/>
</mask>
<g mask="url(#mask1_4618_56228)">
<path d="M298.048 384.546C299.047 402.422 307.416 423.403 334.248 434.633C337.859 436.145 342.41 439.235 343.373 442.145C347.094 453.378 346.526 463.006 352.346 473.706C359.172 486.259 359.004 493.129 364.585 500.062C365.869 501.66 377.391 494.124 410.481 478.821C421.659 473.651 428.634 488.797 434.019 477.721C439.404 466.648 450.311 462.261 451.244 449.982C451.972 440.379 450.727 426.506 455.129 418.081C458.791 411.07 465.221 404.376 473.27 403.389C473.556 403.354 479.003 400.51 478.753 400.373C464.755 392.688 509.473 398.395 509.473 398.395C509.473 398.395 479.896 381.706 451.827 361.5C429.852 345.68 424.365 337.94 413.544 330.785C405.198 325.262 388.686 318.447 371.897 321.067C371.587 321.114 371.552 321.553 371.85 321.647C374.329 322.45 376.929 321.937 377.505 319.332C378.155 316.379 374.607 312.403 371.579 312.439C368.932 312.466 365.975 314.009 364.945 317.084C364.945 317.084 365.991 315.169 366.065 315.032C367.048 313.296 366.386 311.044 365.932 310.128C365.027 308.303 363.002 305.353 360.038 305.326C357.382 305.302 355.447 307.742 355.471 309.548C355.51 312.905 359.846 318.572 356.419 319.645C325.314 329.14 295.969 347.251 298.048 384.546Z" fill="#D08A5A"/>
</g>
<mask id="mask2_4618_56228" style="mask-type:luminance" maskUnits="userSpaceOnUse" x="291" y="325" width="140" height="122">
<path d="M321.605 446.089L430.646 404.341C430.799 404.282 430.877 404.121 430.826 403.98L400.905 325.822C400.85 325.681 400.681 325.614 400.529 325.673L291.491 367.418C291.338 367.476 291.26 367.637 291.311 367.778L321.229 445.936C321.287 446.081 321.452 446.148 321.605 446.089Z" fill="white"/>
</mask>
<g mask="url(#mask2_4618_56228)">
<path d="M334.369 355.699C336.55 355.409 343.549 354.716 348.225 349.839C351.687 346.224 356.309 342.903 361.071 340.803C367.122 338.136 376.22 337.874 381.558 339.08C387.609 340.451 397.944 345.092 405.045 350.262C411.82 355.197 417.049 364.417 417.805 373.019C418.725 383.5 414.613 392.802 408.578 400.859C400.921 411.081 392.7 416.913 383.548 421.656C363.609 431.993 350.144 431.691 339.088 430.328C331.6 429.408 321.558 425.769 313.964 418.55C311.763 416.459 309.911 413.063 308.211 410.584C303.891 404.286 302.72 391.431 303.641 383.081C304.823 372.337 307.929 359.2 334.369 355.699Z" fill="#F2D2B6"/>
</g>
<path d="M307.768 385.975C308.99 383.68 310.643 381.808 312.409 379.904C314.175 377.997 316.721 376.493 318.37 375.725C321.491 374.264 326.097 374.746 328.427 375.376C330.409 375.913 332.822 377.726 334.564 379.959C336.421 382.34 336.871 386.551 337.13 389.563C337.384 392.579 336.029 397.976 334.134 400.326C332.755 402.034 329.837 404.462 325.122 405.512C319.443 406.781 317.653 407.102 315.734 409.139C314.559 410.384 313.333 412.158 312.707 413.149C311.861 414.485 311.453 415.076 311.297 415.386C308.869 412.499 306.938 408.723 305.708 405.739C305.262 404.662 303.1 400.111 303.143 394.576C303.143 394.702 305.798 389.676 307.768 385.975Z" fill="#D9A171"/>
<path opacity="0.1686" d="M303.143 394.62C303.143 394.62 303.198 396.649 303.398 398.114C303.515 398.964 304.302 402.352 305.332 404.862C306.836 408.528 308.528 412.116 311.285 415.394C312.539 413.42 313.087 412.523 313.087 412.523C313.087 412.523 310.306 409.688 308.144 404.232C307.083 401.552 305.61 398.415 304.576 391.968C303.817 393.398 303.143 394.62 303.143 394.62Z" fill="#523618"/>
<path d="M331.553 384.095C328.733 379.583 318.053 379.876 318.053 379.876C318.053 379.876 312.115 388.623 315.754 394.811C319.392 400.999 325.384 402.872 329.626 399.73C334.165 396.374 335.359 390.181 331.553 384.095Z" fill="white"/>
<path opacity="0.1412" d="M328.599 389.59C329.335 391.235 330.863 394.321 330.596 398.951C332.132 397.431 333.146 395.696 333.6 393.585C334.051 391.494 333.812 389.085 332.986 386.97C331.623 387.839 330.706 388.458 328.599 389.59Z" fill="#111111"/>
<path d="M324.201 399.68C325.815 399.68 327.123 398.372 327.123 396.758C327.123 395.144 325.815 393.836 324.201 393.836C322.587 393.836 321.279 395.144 321.279 396.758C321.279 398.372 322.587 399.68 324.201 399.68Z" fill="#111111" stroke="#111111" stroke-miterlimit="10"/>
<path d="M323.508 398.955C324.237 398.955 324.828 398.364 324.828 397.635C324.828 396.906 324.237 396.315 323.508 396.315C322.779 396.315 322.188 396.906 322.188 397.635C322.188 398.364 322.779 398.955 323.508 398.955Z" fill="white"/>
<path d="M319.314 378.49C310.271 381.933 315.304 394.106 315.288 394.056C315.288 394.056 322.459 393.918 333.104 386.896C333.104 386.896 332.955 386.402 332.505 385.521C330.934 382.438 326.536 375.741 319.314 378.49Z" fill="#D39266"/>
<path opacity="0.1294" d="M333.068 386.779C333.06 386.751 333.049 386.728 333.037 386.692C333.005 386.606 332.958 386.493 332.9 386.356C332.755 386.023 332.52 385.553 332.304 385.134C332.12 384.789 331.901 384.409 331.658 384.009C331.212 383.297 330.687 382.564 330.146 381.891C329.727 381.385 329.269 380.892 328.764 380.43C328.529 380.218 328.263 379.999 327.965 379.764C327.703 379.56 327.409 379.352 327.107 379.161C326.398 378.718 325.627 378.358 324.793 378.123C324.385 378.017 323.962 377.935 323.571 377.884C322.321 377.739 320.955 377.884 319.462 378.436C319.349 378.483 319.231 378.526 319.118 378.577C319.082 378.593 319.047 378.608 319.008 378.624C318.616 378.8 318.217 379 317.798 379.235C317.79 379.239 317.786 379.243 317.778 379.251C319.529 379.274 322.78 380.743 326.559 385.96C327.452 387.194 328.118 388.416 328.607 389.591C330.025 388.827 331.529 387.938 333.111 386.892C333.103 386.896 333.092 386.853 333.068 386.779Z" fill="#111111"/>
<path d="M371.626 353.779C369.887 355.381 367.568 358.385 367.482 362.298C367.396 366.211 368.622 371.013 370.455 374.471C372.029 377.436 374.551 380.108 377.63 381.447C381.652 383.198 386.908 382.438 389.943 381.228C392.779 380.096 397.376 377.1 402.025 376.062C403.611 375.705 406.948 375.74 408.35 376.148C411.123 376.959 415.126 380.621 416.963 383.981C419.077 375.29 417.534 369.818 415.933 364.711C414.436 359.94 412.212 356.404 412.212 356.404C412.212 356.404 411.401 355.992 410.555 355.616C408.452 354.68 403.694 351.993 401.45 351.484C397.47 350.583 394.725 349.502 390.668 349.056C387.249 348.68 384.679 349.048 381.296 349.651C378.029 350.235 373.29 352.248 371.626 353.779Z" fill="#D9A171"/>
<path d="M390.496 360.848C387.758 355.878 376.404 355.58 376.404 355.58C376.404 355.58 369.601 364.569 373.114 371.376C376.627 378.184 382.878 380.522 387.562 377.416C392.571 374.091 394.193 367.554 390.496 360.848Z" fill="white"/>
<path opacity="0.1412" d="M387.049 366.544C387.739 368.342 389.184 371.722 388.639 376.642C390.355 375.11 391.53 373.316 392.133 371.092C392.732 368.887 392.611 366.305 391.855 364.002C390.359 364.848 389.348 365.456 387.049 366.544Z" fill="#111111"/>
<path d="M381.08 377.127C382.795 377.127 384.186 375.731 384.186 374.009C384.186 372.287 382.795 370.892 381.08 370.892C379.365 370.892 377.974 372.287 377.974 374.009C377.974 375.731 379.365 377.127 381.08 377.127Z" fill="#111111" stroke="#111111" stroke-miterlimit="10"/>
<path d="M380.375 376.641C381.149 376.641 381.777 376.01 381.777 375.231C381.777 374.453 381.149 373.821 380.375 373.821C379.6 373.821 378.973 374.453 378.973 375.231C378.973 376.01 379.6 376.641 380.375 376.641Z" fill="white"/>
<path d="M377.821 354.174C368.026 357.331 372.679 370.601 372.664 370.543C372.664 370.543 380.285 370.805 391.987 363.923C391.987 363.923 391.858 363.391 391.427 362.423C389.935 359.051 385.643 351.652 377.821 354.174Z" fill="#D39266"/>
<path opacity="0.1294" d="M391.948 363.798C391.94 363.771 391.932 363.743 391.92 363.708C391.92 363.704 391.92 363.704 391.92 363.7C391.889 363.606 391.85 363.485 391.795 363.336C391.658 362.972 391.439 362.455 391.231 362C391.055 361.62 390.847 361.205 390.608 360.767C390.174 359.979 389.661 359.172 389.124 358.424C388.709 357.864 388.247 357.308 387.738 356.787C387.499 356.552 387.232 356.298 386.927 356.031C386.661 355.8 386.359 355.561 386.054 355.338C385.325 354.825 384.526 354.394 383.653 354.1C383.226 353.967 382.783 353.854 382.368 353.775C381.052 353.552 379.588 353.626 377.974 354.128C377.849 354.171 377.723 354.21 377.598 354.257C377.559 354.273 377.52 354.284 377.481 354.3C377.054 354.465 376.615 354.657 376.161 354.884C376.153 354.888 376.145 354.892 376.137 354.895C377.994 355.021 381.358 356.772 385.078 362.553C385.96 363.92 386.594 365.263 387.044 366.544C388.591 365.811 390.24 364.95 391.983 363.923C391.983 363.923 391.971 363.876 391.948 363.798Z" fill="#111111"/>
<path d="M344.693 378.447C338.36 386.147 338.916 397.008 340.059 401.626C341.203 406.24 342.95 409.53 344.81 412.048C345.605 413.13 348.969 418.852 356.896 416.365C361.055 415.06 364.098 412.092 369.534 410.388C376.357 408.249 380.551 402.566 379.004 398.097C370.396 373.261 353.461 373.586 350.92 374.385C347.72 375.388 345.041 378.024 344.693 378.447Z" fill="#D9A171"/>
<path opacity="0.1608" d="M361.51 409.296C363.297 408.634 364.159 406.514 363.435 404.561C362.711 402.607 360.676 401.561 358.889 402.223C357.102 402.885 356.24 405.005 356.964 406.959C357.688 408.912 359.723 409.959 361.51 409.296Z" fill="#252525"/>
<path d="M361.241 408.498C363.038 407.832 363.908 405.709 363.184 403.755C362.46 401.802 360.417 400.758 358.62 401.424C356.822 402.09 355.952 404.214 356.676 406.167C357.4 408.121 359.444 409.164 361.241 408.498Z" fill="#252525"/>
<path d="M343.059 393.741C341.657 389.444 345.659 384.991 352.137 382.884C358.611 380.773 364.717 382.05 366.119 386.346C367.521 390.643 363.299 395.872 356.825 397.983C350.351 400.094 344.461 398.038 343.059 393.741Z" fill="#252525"/>
<mask id="mask3_4618_56228" style="mask-type:luminance" maskUnits="userSpaceOnUse" x="356" y="385" width="7" height="9">
<path d="M358.853 393.424L362.307 392.296C362.464 392.245 362.546 392.076 362.495 391.924L360.541 385.923C360.49 385.767 360.322 385.684 360.169 385.735L356.715 386.863C356.558 386.914 356.476 387.083 356.527 387.235L358.481 393.236C358.532 393.392 358.7 393.475 358.853 393.424Z" fill="white"/>
</mask>
<g mask="url(#mask3_4618_56228)">
<g opacity="0.1216">
<mask id="mask4_4618_56228" style="mask-type:luminance" maskUnits="userSpaceOnUse" x="356" y="385" width="7" height="9">
<path d="M358.853 393.424L362.307 392.296C362.464 392.245 362.546 392.076 362.495 391.924L360.541 385.923C360.49 385.767 360.322 385.684 360.169 385.735L356.715 386.863C356.558 386.914 356.476 387.083 356.527 387.235L358.481 393.236C358.532 393.392 358.7 393.475 358.853 393.424Z" fill="white"/>
</mask>
<g mask="url(#mask4_4618_56228)">
<path d="M357.792 389.589C357.883 386.965 358.838 385.88 359.856 385.927C360.871 385.974 361.317 387.568 360.769 389.636C360.483 390.713 359.982 392.405 359.21 393.251C358.615 393.905 357.718 391.794 357.792 389.589Z" fill="white"/>
</g>
</g>
</g>
<mask id="mask5_4618_56228" style="mask-type:luminance" maskUnits="userSpaceOnUse" x="347" y="388" width="7" height="9">
<path d="M347.543 390.729L349.96 396.561C350.022 396.714 350.195 396.785 350.348 396.722L353.704 395.331C353.857 395.269 353.927 395.096 353.864 394.944L351.448 389.112C351.385 388.959 351.213 388.888 351.06 388.951L347.704 390.341C347.551 390.404 347.481 390.58 347.543 390.729Z" fill="white"/>
</mask>
<g mask="url(#mask5_4618_56228)">
<g opacity="0.1216">
<mask id="mask6_4618_56228" style="mask-type:luminance" maskUnits="userSpaceOnUse" x="347" y="388" width="7" height="9">
<path d="M349.842 396.909L353.794 395.62C353.951 395.569 354.033 395.401 353.982 395.248L351.93 388.954C351.879 388.797 351.71 388.715 351.558 388.766L347.606 390.055C347.449 390.106 347.367 390.274 347.418 390.427L349.47 396.721C349.521 396.874 349.689 396.956 349.842 396.909Z" fill="white"/>
</mask>
<g mask="url(#mask6_4618_56228)">
<path d="M352.016 391.724C350.242 389.789 348.808 389.585 348.068 390.282C347.328 390.979 348.025 392.479 349.787 393.694C350.704 394.328 352.188 395.284 353.32 395.425C354.197 395.538 353.508 393.349 352.016 391.724Z" fill="white"/>
</g>
</g>
</g>
<mask id="mask7_4618_56228" style="mask-type:luminance" maskUnits="userSpaceOnUse" x="356" y="385" width="7" height="9">
<path d="M358.853 393.424L362.307 392.296C362.464 392.245 362.546 392.076 362.495 391.924L360.541 385.923C360.49 385.767 360.322 385.684 360.169 385.735L356.715 386.863C356.558 386.914 356.476 387.083 356.527 387.235L358.481 393.236C358.532 393.392 358.7 393.475 358.853 393.424Z" fill="white"/>
</mask>
<g mask="url(#mask7_4618_56228)">
<g opacity="0.1216">
<mask id="mask8_4618_56228" style="mask-type:luminance" maskUnits="userSpaceOnUse" x="356" y="385" width="7" height="9">
<path d="M358.853 393.424L362.307 392.296C362.464 392.245 362.546 392.076 362.495 391.924L360.541 385.923C360.49 385.767 360.322 385.684 360.169 385.735L356.715 386.863C356.558 386.914 356.476 387.083 356.527 387.235L358.481 393.236C358.532 393.392 358.7 393.475 358.853 393.424Z" fill="white"/>
</mask>
<g mask="url(#mask8_4618_56228)">
<path d="M357.792 389.589C357.883 386.965 358.838 385.88 359.856 385.927C360.871 385.974 361.317 387.568 360.769 389.636C360.483 390.713 359.982 392.405 359.21 393.251C358.615 393.905 357.718 391.794 357.792 389.589Z" fill="white"/>
</g>
</g>
</g>
<mask id="mask9_4618_56228" style="mask-type:luminance" maskUnits="userSpaceOnUse" x="347" y="388" width="7" height="9">
<path d="M347.543 390.729L349.96 396.561C350.022 396.714 350.195 396.785 350.348 396.722L353.704 395.331C353.857 395.269 353.927 395.096 353.864 394.944L351.448 389.112C351.385 388.959 351.213 388.888 351.06 388.951L347.704 390.341C347.551 390.404 347.481 390.58 347.543 390.729Z" fill="white"/>
</mask>
<g mask="url(#mask9_4618_56228)">
<g opacity="0.1216">
<mask id="mask10_4618_56228" style="mask-type:luminance" maskUnits="userSpaceOnUse" x="347" y="388" width="7" height="9">
<path d="M349.842 396.909L353.794 395.62C353.951 395.569 354.033 395.401 353.982 395.248L351.93 388.954C351.879 388.797 351.71 388.715 351.558 388.766L347.606 390.055C347.449 390.106 347.367 390.274 347.418 390.427L349.47 396.721C349.521 396.874 349.689 396.956 349.842 396.909Z" fill="white"/>
</mask>
<g mask="url(#mask10_4618_56228)">
<path d="M352.016 391.724C350.242 389.789 348.808 389.585 348.068 390.282C347.328 390.979 348.025 392.479 349.787 393.694C350.704 394.328 352.188 395.284 353.32 395.425C354.197 395.538 353.508 393.349 352.016 391.724Z" fill="white"/>
</g>
</g>
</g>
<mask id="mask11_4618_56228" style="mask-type:luminance" maskUnits="userSpaceOnUse" x="356" y="385" width="7" height="9">
<path d="M358.853 393.424L362.307 392.296C362.464 392.245 362.546 392.076 362.495 391.924L360.541 385.923C360.49 385.767 360.322 385.684 360.169 385.735L356.715 386.863C356.558 386.914 356.476 387.083 356.527 387.235L358.481 393.236C358.532 393.392 358.7 393.475 358.853 393.424Z" fill="white"/>
</mask>
<g mask="url(#mask11_4618_56228)">
<g opacity="0.1216">
<mask id="mask12_4618_56228" style="mask-type:luminance" maskUnits="userSpaceOnUse" x="356" y="385" width="7" height="9">
<path d="M358.853 393.424L362.307 392.296C362.464 392.245 362.546 392.076 362.495 391.924L360.541 385.923C360.49 385.767 360.322 385.684 360.169 385.735L356.715 386.863C356.558 386.914 356.476 387.083 356.527 387.235L358.481 393.236C358.532 393.392 358.7 393.475 358.853 393.424Z" fill="white"/>
</mask>
<g mask="url(#mask12_4618_56228)">
<path d="M357.792 389.589C357.883 386.965 358.838 385.88 359.856 385.927C360.871 385.974 361.317 387.568 360.769 389.636C360.483 390.713 359.982 392.405 359.21 393.251C358.615 393.905 357.718 391.794 357.792 389.589Z" fill="white"/>
</g>
</g>
</g>
<mask id="mask13_4618_56228" style="mask-type:luminance" maskUnits="userSpaceOnUse" x="347" y="388" width="7" height="9">
<path d="M347.543 390.729L349.96 396.561C350.022 396.714 350.195 396.785 350.348 396.722L353.704 395.331C353.857 395.269 353.927 395.096 353.864 394.944L351.448 389.112C351.385 388.959 351.213 388.888 351.06 388.951L347.704 390.341C347.551 390.404 347.481 390.58 347.543 390.729Z" fill="white"/>
</mask>
<g mask="url(#mask13_4618_56228)">
<g opacity="0.1216">
<mask id="mask14_4618_56228" style="mask-type:luminance" maskUnits="userSpaceOnUse" x="347" y="388" width="7" height="9">
<path d="M349.842 396.909L353.794 395.62C353.951 395.569 354.033 395.401 353.982 395.248L351.93 388.954C351.879 388.797 351.71 388.715 351.558 388.766L347.606 390.055C347.449 390.106 347.367 390.274 347.418 390.427L349.47 396.721C349.521 396.874 349.689 396.956 349.842 396.909Z" fill="white"/>
</mask>
<g mask="url(#mask14_4618_56228)">
<path d="M352.016 391.724C350.242 389.789 348.808 389.585 348.068 390.282C347.328 390.979 348.025 392.479 349.787 393.694C350.704 394.328 352.188 395.284 353.32 395.425C354.197 395.538 353.508 393.349 352.016 391.724Z" fill="white"/>
</g>
</g>
</g>
<mask id="mask15_4618_56228" style="mask-type:luminance" maskUnits="userSpaceOnUse" x="-53" y="115" width="918" height="794">
<path d="M-52.0044 355.754L684.145 115.819C684.302 115.768 684.466 115.855 684.517 116.007L864.411 668.019C864.462 668.176 864.376 668.341 864.223 668.392L128.074 908.33C127.917 908.381 127.752 908.295 127.701 908.142L-52.1924 356.13C-52.2433 355.974 -52.1571 355.805 -52.0044 355.754Z" fill="white"/>
</mask>
<g mask="url(#mask15_4618_56228)">
<g opacity="0.3216">
<mask id="mask16_4618_56228" style="mask-type:luminance" maskUnits="userSpaceOnUse" x="354" y="384" width="9" height="11">
<path d="M357.478 394.099L361.998 392.626C362.155 392.575 362.237 392.407 362.186 392.254L359.597 384.307C359.546 384.15 359.378 384.068 359.225 384.119L354.705 385.592C354.549 385.643 354.467 385.811 354.517 385.964L357.106 393.911C357.153 394.064 357.322 394.15 357.478 394.099Z" fill="white"/>
</mask>
<g mask="url(#mask16_4618_56228)">
<path d="M359.507 384.03C359.75 386.764 359.374 389.505 359.002 392.224C358.951 392.607 358.892 392.999 358.708 393.34C358.524 393.681 358.176 393.959 357.788 393.951C357.349 393.943 356.989 393.567 356.856 393.148C356.719 392.733 356.762 392.282 356.805 391.848C356.93 390.582 357.052 389.317 357.177 388.052C357.255 387.238 357.341 386.407 357.678 385.667C358.015 384.923 358.665 384.269 359.507 384.03Z" fill="#252525"/>
</g>
</g>
</g>
<mask id="mask17_4618_56228" style="mask-type:luminance" maskUnits="userSpaceOnUse" x="-53" y="115" width="918" height="794">
<path d="M-52.0044 355.754L684.145 115.819C684.302 115.768 684.466 115.855 684.517 116.007L864.411 668.019C864.462 668.176 864.376 668.341 864.223 668.392L128.074 908.33C127.917 908.381 127.752 908.295 127.701 908.142L-52.1924 356.13C-52.2433 355.974 -52.1571 355.805 -52.0044 355.754Z" fill="white"/>
</mask>
<g mask="url(#mask17_4618_56228)">
<g opacity="0.3216">
<mask id="mask18_4618_56228" style="mask-type:luminance" maskUnits="userSpaceOnUse" x="346" y="387" width="9" height="10">
<path d="M349.779 396.727L354.42 395.215C354.577 395.165 354.659 394.996 354.608 394.843L352.203 387.464C352.152 387.308 351.984 387.225 351.831 387.276L347.19 388.788C347.034 388.839 346.951 389.007 347.002 389.16L349.407 396.539C349.454 396.692 349.622 396.778 349.779 396.727Z" fill="white"/>
</mask>
<g mask="url(#mask18_4618_56228)">
<path d="M347.025 389.172C349.011 391.048 350.997 392.924 352.978 394.804C353.182 394.996 353.39 395.192 353.652 395.286C353.915 395.38 354.243 395.344 354.42 395.129C354.67 394.82 354.486 394.361 354.279 394.021C353.014 391.964 351.103 390.374 349.046 389.109C348.666 388.878 348.263 388.647 347.817 388.639C347.374 388.627 346.822 388.98 347.025 389.172Z" fill="#252525"/>
</g>
</g>
</g>
<mask id="mask19_4618_56228" style="mask-type:luminance" maskUnits="userSpaceOnUse" x="-71" y="140" width="914" height="787">
<path d="M-70.6888 372.189L668.097 140.499C668.253 140.452 668.418 140.538 668.469 140.695L842.178 694.681C842.225 694.838 842.139 695.002 841.982 695.053L103.197 926.743C103.041 926.79 102.876 926.704 102.825 926.547L-70.8847 372.561C-70.9316 372.405 -70.8455 372.24 -70.6888 372.189Z" fill="white"/>
</mask>
<g mask="url(#mask19_4618_56228)">
<g opacity="0.1412">
<mask id="mask20_4618_56228" style="mask-type:luminance" maskUnits="userSpaceOnUse" x="343" y="267" width="178" height="177">
<path d="M385.709 443.508L520.239 401.321V401.317L478.415 267.937L343.885 310.128L385.705 443.508H385.709Z" fill="white"/>
</mask>
<g mask="url(#mask20_4618_56228)">
<path d="M503.766 395.508C489.557 385.818 473.657 377.334 456.914 365.075C444.53 356.011 433.133 347.171 426.62 341.198C415.458 330.956 404.571 323.847 390.025 321.489C387.46 321.074 385.137 320.765 383.159 320.62C380.23 320.404 378.428 320.459 377.003 320.549C377.234 320.083 377.531 319.633 377.555 319.037C377.708 314.972 373.603 312.551 372.095 312.473C370.58 312.391 370.259 312.551 369.413 312.794C368.097 313.17 366.937 313.957 366.068 315.034C367.063 313.295 366.342 310.851 365.837 309.943C364.85 308.157 363.001 305.356 360.037 305.329C357.381 305.305 355.447 307.745 355.47 309.551C355.505 312.594 358.96 316.241 357.487 317.941C357.487 317.941 357.436 317.988 357.436 317.992C358.411 323.882 356.132 330.306 351.362 333.952C360.229 330.874 370.274 332.793 378.487 337.336C386.704 341.88 394.118 346.654 400.055 353.928C405.526 360.629 408.98 371.435 409.838 377.835C411.103 387.286 410.277 399.009 396.718 413.654C407.073 407.195 417.048 403.776 434.3 408.119C441.377 409.902 447.679 417.175 452.547 422.541C452.962 421.037 453.44 419.545 454.012 418.068" fill="#523618"/>
</g>
</g>
</g>
<path d="M526.391 440.14L519.96 440.818L523.007 445.161L526.391 440.14Z" fill="#111111"/>
<path d="M376.126 595.078C376.921 594.491 378.049 594.812 378.93 595.255C380.779 596.187 382.4 597.573 383.606 599.257C381.257 600.115 378.907 600.977 376.557 601.835C376.631 599.582 376.412 597.315 376.126 595.078Z" fill="#BDBDBD"/>
<path d="M298.424 541.356C293.822 544.873 288.919 546.209 285.351 550.772C281.783 555.335 277.683 561.151 277.322 568.855C277.056 574.484 282.222 583.641 285.386 588.302C290.709 596.135 296.435 604.325 305 608.371C310.369 610.905 316.397 611.579 322.299 612.218C331.687 613.232 341.078 614.243 350.466 615.257C357.406 616.005 365.082 616.573 370.71 612.441C378.296 606.875 378.453 595.427 375.386 586.532C394.365 595.066 415.945 594.126 436.741 594.792C452.231 595.289 477.915 588.157 492.621 576.885C511.804 562.181 515.375 544.035 512.207 528.024C510.394 518.87 492.738 520.206 483.441 519.462C449.168 516.72 414.895 513.978 380.619 511.236C370.33 510.414 359.716 509.627 349.921 512.874C343.224 515.094 337.279 519.086 331.428 523.034C317.513 532.426 304.651 536.601 298.424 541.356Z" fill="#D08A5A"/>
<path opacity="0.1608" d="M306.264 550.334C295.533 552.864 295.196 550.162 286.925 562.832C280.897 572.064 291.061 595.039 299.07 603.049C293.618 599.904 286.208 590.602 281.191 581.233C280.909 580.708 280.255 579.318 279.429 577.5C278.685 575.867 277.925 573.317 277.764 572.624C277.557 571.704 277.271 570.368 277.314 569.291C277.474 565.229 278.211 562.813 279.918 559.08C282.268 553.933 286.486 547.647 290.712 550.052C299.849 555.253 299.649 547.992 310.138 548.744C306.993 549.915 303.852 551.082 306.264 550.334Z" fill="#141414"/>
<path opacity="0.1608" d="M345.088 544.031C336.832 544.728 337.459 547.004 326.25 556.71C316.4 565.24 328.658 613.941 334.075 613.486C337.447 630.219 320.453 590.668 318.636 582.509C317.571 577.723 315.734 567.332 316.141 562.827C316.463 559.302 323.453 549.154 324.049 551.308C325.51 556.608 330.703 543.408 334.059 541.105C341.493 536.01 340.925 540.573 348.225 543.103C345.707 543.741 343.188 544.372 345.088 544.031Z" fill="#141414"/>
<path opacity="0.1608" d="M372.843 582.733C376.376 586.266 370.505 605.599 366.127 609.978C363.393 612.712 372.51 607.409 371.03 610.981C373.345 610.515 373.767 609.324 375.142 607.174C376.344 605.294 377.261 601.236 377.261 597.39C377.257 593.254 376.125 585.546 372.843 582.733Z" fill="#141414"/>
<path opacity="0.1608" d="M396.766 592.583C401.794 593.393 407.195 593.762 412.557 594.102C418.525 594.482 434.109 594.753 440.92 594.753C448.533 594.753 462.883 591.31 471.06 588.2C487.412 581.984 497.234 574.711 504.479 564.95C511.294 555.769 514.592 544.493 512.669 530.671C506.265 577.582 450.495 596.014 396.766 592.583Z" fill="#141414"/>
<path opacity="0.1608" d="M291.092 595.716C290.309 596.645 290.348 597.933 291.021 598.948C291.695 599.962 293.626 602.512 294.769 603.417C302.665 609.652 318.922 616.404 332.912 616.248C342.041 616.146 350.363 612.895 359.493 612.801C362.305 612.774 365.214 613.052 367.854 612.084C370.494 611.113 372.765 608.822 372.033 606.107C366.883 607.717 362.735 608.79 357.899 609.64C346.29 611.689 336.209 611.606 325.533 610.005C322.717 609.582 319.615 609.076 316.831 608.442C312.609 607.474 308.963 606.44 305.25 604.893C303.131 604.012 301.232 603.123 299.332 602.03C298.784 601.713 298.224 601.368 297.679 601.035C296.873 600.542 295.451 599.551 294.213 598.564C293.587 598.062 292.991 597.534 292.615 597.197C291.993 596.641 291.574 596.21 291.574 596.21C291.448 596.088 291.284 595.908 291.092 595.716Z" fill="#141414"/>
<g opacity="0.1686">
<mask id="mask21_4618_56228" style="mask-type:luminance" maskUnits="userSpaceOnUse" x="342" y="408" width="135" height="94">
<path d="M374.786 501.331L475.137 459.211C475.317 459.136 476.582 458.932 476.511 458.764L454.199 408.403C454.129 408.23 453.921 408.156 453.741 408.23L342.424 449.571C342.244 449.646 344.896 459.641 344.966 459.81L374.328 501.163C374.398 501.331 374.602 501.409 374.786 501.331Z" fill="white"/>
</mask>
<g mask="url(#mask21_4618_56228)">
<path d="M345.868 448.29C353.849 456.41 352.909 457.232 364.608 466.64C382.2 480.791 405.135 474.023 414.217 471.133C436.639 464.004 442.913 445.701 450.66 423.646C450.801 423.247 455.81 418.876 455.743 419.291C452.082 441.279 442.349 465.191 423.942 478.786C418.741 482.624 412.988 486.001 406.655 487.34C393.104 490.207 378.143 491.856 368.567 482.828C361.498 476.162 351.198 461.376 347.986 453.194" fill="#111111"/>
</g>
</g>
<path d="M275.912 593.121C276.179 599.387 265.569 605.133 263.106 610.899C260.642 616.664 262.549 626.381 267.496 630.235C265.408 627.083 259.401 626.636 257.956 630.13C256.51 633.623 258.414 639.499 261.39 641.829C264.367 644.159 268.604 645.088 272.286 645.957C347.438 663.669 387.735 657.602 387.735 657.602C387.735 657.602 385.31 656.454 386.215 654.053C387.12 651.648 390.03 650.438 391.929 648.711C396.39 644.657 395.105 638.805 393.355 636.107C391.604 633.408 389.223 633.126 386.638 632.621C389.391 633.761 396.899 622.856 393.284 617.816C390.339 613.711 383.869 610.017 383.066 600.386C368.865 605.521 352.35 609.136 334.769 607.538C317.188 605.94 297.104 601.8 286.549 588.393C282.735 583.544 281.45 580.654 278.736 576.537C278.556 577.9 275.278 578.229 275.912 593.121Z" fill="#FFF5F8"/>
<path opacity="0.1608" d="M393.241 617.697C393.758 623.216 392.222 626.647 388.42 630.446C384.593 634.273 376.905 635.252 371.504 635.616C376.666 635.616 384.668 634.245 388.114 632.393C390.503 631.108 392.277 627.877 393.354 625.386C394.431 622.895 394.698 619.785 393.241 617.697Z" fill="#141414"/>
<path opacity="0.1608" d="M273.765 598.588C275.481 603.398 276.843 606.159 281.101 608.779C283.251 610.103 284.512 610.174 286.96 611.349C291.08 613.323 296.069 615.41 301.368 616.558C298.247 615.79 291.655 611.971 288.746 609.95C286.063 608.086 281.555 606.966 279.201 604.138C276.722 601.165 275.833 599.802 275.163 596.348C274.924 597.053 275.026 596.669 274.619 597.343C274.196 598.036 274.192 597.879 273.765 598.588Z" fill="#141414"/>
<path opacity="0.1608" d="M393.21 635.887C394.827 640.172 393.974 645.562 390.112 648.017C381.061 653.775 356.799 652.071 351.754 652.071C355.177 652.467 378.437 655.451 386.36 652.322C389.074 651.249 392.861 648.574 394.275 645.432C395.689 642.291 395.027 638.989 393.21 635.887Z" fill="#141414"/>
<path opacity="0.1608" d="M263.728 609.633C262.475 614.834 263.45 620.482 266.117 625.12C268.784 629.757 271.764 631.132 279.476 634.163C266.638 630.489 258.55 627.098 259.831 635.123C260.469 639.122 264.398 641.934 268.177 643.399C275.955 646.415 284.317 648.44 292.443 650.328C286.294 649.145 281.755 648.162 275.638 646.74C270.55 645.557 264.347 644.515 261.073 641.57C260.379 640.947 259.878 640.183 259.291 639.341C257.751 637.14 256.855 632.287 258.061 629.902C259.271 627.505 262.909 626.984 265.894 628.715C265.122 627.665 264.178 626.369 263.622 624.822C261.868 619.949 261.057 614.356 263.728 609.633Z" fill="#141414"/>
<path opacity="0.1608" d="M275.924 586.102C286.267 603.813 309.413 611.231 318.037 612.951C341.364 617.608 357.21 616.076 379.729 606.093C362.34 612.696 343.165 614.521 324.844 611.321C306.527 608.125 289.815 598.87 275.924 586.102Z" fill="#141414"/>
<path d="M278.567 575.28C275.513 576.224 273.711 579.651 274.459 582.757C275.207 585.863 277.486 588.35 279.793 590.563C303.123 612.982 332.324 617.436 364.028 610.977C365.109 610.758 377.52 607.518 382.882 604.314C386.547 602.125 382.815 596.003 379.749 597.636C371.759 601.894 355.157 606.668 340.662 605.983C328.424 605.403 312.417 602.188 301.388 596.853C290.36 591.519 284.199 585.119 278.567 575.28Z" fill="white"/>
<path d="M489.154 388.529C492.886 381.076 509.946 376.003 523.18 380.574C535.105 384.691 547.881 407.149 546.373 447.049C545.222 477.513 539.202 518.243 537.784 525.199C532.395 551.606 523.18 575.67 523.18 575.67L534.228 579.94C534.228 579.94 520.787 573.387 516.573 571.198C513.6 569.654 505.47 565.005 505.47 565.005C505.47 565.005 505.317 565.319 504.248 566.595C513.964 573.43 534.173 580.308 534.173 580.308C534.173 580.308 534.357 580.151 534.816 578.937C535.575 576.912 537.087 572.369 539.774 563.787C543.06 553.286 548.793 532.841 551.276 516.52C554.629 494.488 555.831 479.805 556.25 471.999C556.83 461.181 557.668 453.21 557.363 441.393C557.124 432.028 556.184 424.994 554.41 416.737C552.224 406.562 550.313 399.762 545.304 390.64C543.201 386.81 540.118 383.3 536.88 380.703C533.641 378.107 530.245 376.43 526.662 375.079C523.133 373.747 519.988 373.587 516.984 373.689C513.216 373.818 508.544 374.75 503.86 376.681C499.164 378.616 494.48 381.436 490.74 385.642C489.902 386.583 489.585 387.515 489.154 388.529Z" fill="#D5D5D5"/>
<path d="M319.811 483.451C323.716 502.314 342.041 534.173 342.041 534.173L398.641 543.98C398.641 543.98 410.097 531.787 455.97 538.191C457.517 538.407 492.702 542.848 503.966 543.24C509.801 543.444 513.048 542.437 513.048 542.437C513.048 542.437 513.17 540.815 513.213 539.75C513.256 538.638 513.213 532.943 513.213 532.943C513.213 532.943 477.287 494.857 481.725 491.48C481.916 491.335 483.749 495.71 473.465 464.702C487.09 453.21 507.636 442.807 526.407 440.187C526.407 440.187 518.711 415.868 513.099 403.561C505.345 386.551 488.245 382.356 478.059 385.243C467.003 388.372 458.649 401.697 455.292 409.617C445.658 432.369 447.068 435.941 441.769 447.084C436.576 457.996 424.674 477.729 394.729 478.763C385.858 479.068 372.844 477.423 358.69 463.268C347.845 452.423 344.469 444.57 343.384 442.055C343.216 441.663 342.942 441.213 342.942 441.213C342.942 441.213 336.464 441.742 331.835 448.753C329.551 452.207 326.019 469.069 326.019 469.069" fill="#232D40"/>
<g opacity="0.1412">
<mask id="mask22_4618_56228" style="mask-type:luminance" maskUnits="userSpaceOnUse" x="438" y="424" width="117" height="240">
<path d="M508.541 663.189L554.771 648.736C554.908 648.693 554.986 648.552 554.943 648.423L484.952 424.515C484.913 424.386 484.768 424.311 484.631 424.355L438.401 438.807C438.264 438.85 438.186 438.991 438.229 439.121L508.22 663.028C508.263 663.161 508.404 663.232 508.541 663.189Z" fill="white"/>
</mask>
<g mask="url(#mask22_4618_56228)">
<path d="M461.876 435.898C461.876 435.898 469.431 470.06 476.038 514.283C477.749 525.756 483.706 513.52 483.706 527.976C483.706 532.441 493.09 537.572 487.286 511.671C484.462 499.071 481.11 484.704 478.47 468.548V468.744C478.063 463.699 479.269 474.368 473.798 464.831C473.798 464.831 470.892 460.793 466.638 449.332L461.876 435.898Z" fill="#111111"/>
</g>
</g>
<g opacity="0.2784">
<mask id="mask23_4618_56228" style="mask-type:luminance" maskUnits="userSpaceOnUse" x="344" y="470" width="9" height="22">
<path d="M348.401 491.124L351.828 490.529C351.969 490.505 352.063 490.372 352.04 490.231L348.609 470.479C348.586 470.338 348.452 470.244 348.311 470.268L344.885 470.863C344.744 470.887 344.65 471.02 344.673 471.161L348.104 490.913C348.127 491.054 348.26 491.148 348.401 491.124Z" fill="white"/>
</mask>
<g mask="url(#mask23_4618_56228)">
<path d="M348.561 470.221C347.731 476.5 347.625 477.643 347.931 483.225C347.97 483.941 348.33 489.425 348.401 491.121C348.432 491.869 349.642 495.061 349.599 496.029C349.576 496.557 351.111 496.98 351.083 497.748C350.704 493.334 349.27 485.414 349.02 480.691C348.796 476.468 348.448 473.335 348.561 470.221Z" fill="#111111"/>
</g>
</g>
<path d="M357.339 523.057C372.213 523.057 377.673 523.558 392.215 523.081C387.946 528.306 379.67 534.502 377.841 540.996C370.055 541.944 362.446 544.305 355.494 547.932C356.352 539.727 357.687 531.572 357.339 523.057Z" fill="#8F8F8F"/>
<path d="M261.327 548.829C247.577 519.669 236.529 486.796 227.587 456.007C227.247 454.835 228.049 453.539 229.334 453.461C264.206 451.267 305.282 451.118 333.378 453.343C338.144 453.719 364.796 532.175 369.347 556.714C331.028 556.714 298.232 553.987 264.746 551.128C263.25 550.999 261.934 550.122 261.327 548.829Z" fill="#B3BCC9"/>
<path opacity="0.1686" d="M264.745 551.128C297.287 553.905 329.182 556.557 366.126 556.706C340.422 548.535 317.613 534.623 285.267 514.139C254.366 494.567 233.703 463.542 227.59 454.878C227.484 455.239 227.472 455.63 227.582 456.006C236.523 486.792 247.571 519.665 261.322 548.829C261.933 550.122 263.249 550.999 264.745 551.128Z" fill="#141414"/>
<path d="M391.431 516.07C379.169 525.466 373.694 529.359 364.956 542.586C360.859 548.79 355.494 559.98 355.494 559.98C355.494 559.98 354.432 564.567 354.397 566.545C354.358 568.707 355.255 576.478 355.255 576.478C355.251 576.756 355.545 576.936 355.788 576.807C357.013 576.156 361.102 574.543 365.402 572.22C375.636 566.69 391.169 557.591 401.716 551.128C402.663 550.549 403.643 549.938 404.246 549.002C405.393 547.216 404.794 544.764 403.517 543.064C402.244 541.368 400.415 540.185 398.81 538.795C393.088 533.84 390.26 524.134 391.431 516.07Z" fill="#F2DFA7"/>
<path opacity="0.1608" d="M392.018 516.07C391.035 516.387 388.556 518.138 384.455 521.44C381.295 523.989 376.799 527.616 373.572 531.255C369.972 535.313 366.013 540.577 363.855 544.278C372.42 535.336 387.389 524.973 391.63 524.957C392.182 527.248 392.582 526.547 393.134 528.838C387.921 532.242 381.737 534.122 369.338 544.752C366.463 547.216 362.022 552.347 359.277 555.488C356.531 558.629 355.485 559.98 355.485 559.98C355.485 559.98 354.824 562.342 354.71 563.658C360.495 558.7 370.36 549.084 377.171 544.4C388.525 536.593 396.342 534.694 398.711 535.199C396.267 536.609 389.163 541.231 382.008 546.174C379.431 547.956 375.53 550.149 372.444 553.514C365.895 560.662 358.438 567.281 355.286 576.732C355.243 576.857 355.395 576.951 355.482 576.85C362.026 569.263 370.098 561.469 378.612 554.912C388.873 547.016 399.78 540.745 409.45 536.484C399.569 548.069 383.809 558.292 372.632 568.213C379.035 564.637 396.252 554.607 402.111 550.874C402.565 550.584 407.801 545.124 408.201 544.819C408.526 544.568 409.501 538.211 409.826 537.949C410.124 537.706 403.035 545.128 403.395 544.791C403.556 544.638 403.669 544.838 403.669 544.838C403.669 544.838 404.457 538.728 404.844 538.376C396.796 532.418 394.912 525.65 392.018 516.07Z" fill="#111111"/>
<path d="M389.234 517.735C389.234 517.735 398.939 506.576 423.107 506.576C423.573 506.576 425.34 506.83 427.643 506.38C431.947 505.538 448.556 497.391 479.062 489.62C478.65 480.69 475.486 471.905 472.878 463.347C486.393 451.718 504.785 443.258 522.452 440.845C529.341 463.425 533.214 492.319 527.524 517.061C526.388 521.996 522.949 531.839 521.481 532.689C518.261 534.557 511.588 535.752 506.982 536.077C492.237 537.122 488.829 536.762 474.056 537.35C465.244 537.698 440.446 546.429 427.964 543.025C416.034 550.521 409.102 551.704 401.61 551.704C401.344 551.704 400.651 551.853 400.588 551.838C398.383 551.344 391.792 546.123 386.273 537.017C382.647 531.04 389.234 517.735 389.234 517.735Z" fill="#D08A5A"/>
<path opacity="0.1608" d="M386.986 538.164C388.753 541.532 396.68 547.364 402.362 547.932C409.381 548.633 417.781 548.774 425.399 544.58C424.059 545.367 418.063 549.213 411.022 550.729C409.451 551.066 406.099 551.559 403.612 551.669C403.106 551.692 402.597 551.677 402.1 551.7C401.794 551.712 401.649 551.677 401.505 551.708C401.383 551.736 401.187 551.751 401.078 551.767C400.741 551.818 400.557 551.833 400.557 551.833C400.557 551.833 399.958 551.72 398.924 551.078C397.075 549.922 394.8 547.96 393.343 546.338C390.546 543.209 389.035 541.442 386.986 538.164Z" fill="#141414"/>
<path opacity="0.1608" d="M483.357 489.162C481.184 488.833 475.422 490.498 469.415 492.209C462.577 494.16 458.241 495.397 450.882 497.99C448.928 498.68 444.197 500.34 440.476 501.727C436.282 503.294 433.677 504.32 430.885 505.362C426.996 506.811 427.203 506.149 420.212 510.508C422.163 509.521 447.22 500.493 449.413 499.698C470.492 492.084 460.164 494.696 483.357 489.162Z" fill="#141414"/>
<path d="M310.517 345.755C306.064 350.436 300.323 358.206 298.787 366.992C298.008 371.441 296.864 375.091 296.864 382.741C296.864 386.583 293.394 388.021 292.76 389.709C291.981 391.788 292.74 401.929 295.791 407.675C297.793 411.443 302.504 411.764 303.558 414.18C305.214 417.98 309.675 424.481 312.608 427.411C317.484 432.287 319.302 431.68 324.992 432.072C338.77 433.02 344.762 420.792 335.402 419.632C329.676 418.92 330.15 426.702 320.751 427.172C318.111 427.301 310.607 421.011 306.577 412.261C300.366 398.78 297.326 391.193 300.123 377.481C302.355 366.522 319.725 347.244 333.131 340.025C354.08 328.745 368.433 325.38 390.35 329.579C395.566 330.578 410.899 335.971 406.877 341.408C402.134 347.815 403.532 353.773 404.911 356.789C407.539 362.546 411.784 370.791 420.299 370.791C426.471 370.791 435.33 367.642 436.63 356.604C437.809 346.597 430.529 338.811 423.824 335.489C421.807 334.491 418.779 334.404 415.685 332.262C407.328 326.477 401.104 324.252 390.82 320.794C374.657 315.361 358.337 316.626 342.706 323.481C327.076 330.335 317.026 338.909 310.517 345.755Z" fill="#252525"/>
<path opacity="0.6" d="M423.816 335.483C421.799 334.484 418.771 334.398 415.677 332.255C407.32 326.47 401.097 324.245 390.812 320.787C374.649 315.354 358.329 316.62 342.698 323.474C327.068 330.328 317.03 338.91 310.521 345.756C306.499 349.986 301.415 356.747 299.343 364.494C299.253 364.854 299.159 365.214 299.077 365.575C299.077 365.583 299.073 365.59 299.073 365.598C308.547 345.705 326.778 335.318 334.642 331.119C346.474 324.806 366.671 317.959 389.989 324.594C402.69 328.209 416.284 334.981 421.979 344.46C427.168 353.096 426.479 363.425 418.047 370.576C418.047 370.576 418.047 370.576 418.051 370.576C419.966 370.463 421.908 370.482 423.816 370.447C429.401 369.394 435.561 365.653 436.626 356.594C437.797 346.59 430.517 338.804 423.816 335.483Z" fill="#141414"/>
<path opacity="0.1608" d="M458.198 403.781C465.185 399.966 482.801 401.795 490.83 410.541C501.428 422.084 505.423 431.241 509.143 448.005C515.515 476.73 519.706 483.357 516.076 515.048C514.842 525.807 508.027 529.375 477.232 532.45C465.671 533.605 448.599 541.442 443.065 542.496C441.577 542.778 440.104 542.97 438.683 543.083C434.414 543.428 430.556 543.087 427.807 542.472C425.281 541.908 423.769 541.074 423.041 540.733C423.726 541.274 425.911 542.743 429.311 543.33C431.978 543.792 435.651 543.957 439.603 543.581C448.439 542.747 458.3 540.31 458.825 540.205C464.249 539.1 465.663 538.442 469.137 537.992C473.308 537.451 481.552 537.169 484.321 537.02C490.035 536.719 491.641 536.793 493.466 536.793C496.141 536.793 498.886 536.558 500.747 536.468C505.239 536.249 507.393 535.994 511.427 535.563C514.341 535.254 518.555 533.95 519.542 533.581C519.596 533.562 520.29 533.284 520.795 533.041C521.284 532.806 521.582 532.606 521.625 532.571C522.24 532.097 522.839 530.742 523.63 528.921C524.59 526.7 525.565 523.88 526.141 521.992C529.689 510.375 531.318 495.315 529.932 479.386C528.984 468.517 528.146 459.978 522.659 440.798C524.096 440.489 523.995 440.5 526.411 440.175C525.894 438.366 524.895 435.765 523.525 431.363C522.072 426.702 519.914 421.054 518.484 416.969C515.676 408.939 512.042 400.076 508.18 395.666C503.751 390.609 499.074 387.229 492.189 385.427C487.987 384.327 479.704 382.682 472.482 387.754C465.879 392.395 462.084 396.809 458.198 403.781Z" fill="#141414"/>
<path opacity="0.6" d="M295.616 386.345C295.432 392.173 296.227 404.659 301.42 412.199C298.788 410.742 296.43 410.155 294.727 405.266C294.312 404.08 293.83 402.893 293.528 401.146C293.211 399.317 292.064 394.401 292.663 390.062C292.815 388.949 294.633 387.688 295.616 386.345Z" fill="#141414"/>
<path opacity="0.6" d="M312.605 427.416C316.353 430.016 324.523 430.882 329.841 429.308C335.947 427.498 336.386 425.226 339.096 421.298C340.737 423.499 339.656 426.092 337.384 428.364C335.947 429.801 333.534 430.937 331.149 431.575C329.876 431.912 329.058 432.026 327.507 432.104C326.645 432.147 326.191 432.171 325.216 432.092C322.87 431.897 318.562 432.006 316.576 430.628C315.268 429.715 314.085 429.084 312.605 427.416Z" fill="#141414"/>
<path d="M309.769 635.582C309.056 634.442 308.739 633.913 308.304 632.624C307.866 631.34 307.983 629.754 308.939 628.763C309.883 627.787 311.543 627.662 312.573 628.485C313.603 629.307 313.858 630.968 313.133 632.115C312.479 630.658 314.085 628.81 315.659 629.017C317.234 629.225 318.256 631.023 317.974 632.621C317.692 634.219 316.188 635.174 314.876 636.106C311.751 638.335 311.042 637.61 309.769 635.582Z" fill="#FF0069"/>
<path d="M319.134 612.202C318.535 611.674 317.924 610.933 317.548 610.228C317.172 609.523 317.066 608.619 317.497 607.945C317.928 607.271 318.981 607.017 319.557 607.569C319.334 610.409 321.981 610.275 321.676 613.107C321.449 615.199 320.125 617.188 318.637 618.677C314.658 622.656 311.677 628.367 311.243 639.169C311.223 639.686 310.146 639.271 309.919 639.247C308.771 639.13 310.976 627.384 311.987 625.198C313.401 622.143 313.663 621.532 315.837 618.963C316.886 617.721 318.226 616.628 318.97 615.187C319.714 613.742 319.78 612.774 319.134 612.202Z" fill="#D9D9D9"/>
<path d="M346.913 613.996C348.879 613.264 350.093 610.925 349.557 608.897C349.76 608.473 350.387 608.379 350.779 608.642C351.17 608.904 351.343 609.41 351.319 609.884C351.299 610.354 351.119 610.804 350.943 611.239C350.645 611.975 350.332 612.731 349.764 613.283C349.2 613.832 348.3 614.125 346.913 613.996Z" fill="#E1E1E1"/>
<path d="M347.802 614.964C348.589 615.657 348.863 616.868 348.46 617.831C348.938 618.219 349.725 618.015 350.065 617.498C350.402 616.981 350.336 616.276 350.034 615.744C349.729 615.211 349.219 614.819 348.691 614.51C348.503 614.514 348.319 614.518 347.802 614.964Z" fill="#D9D9D9" stroke="#D9D9D9" stroke-miterlimit="10"/>
<path d="M360.629 612.183C361.165 611.258 361.698 610.334 362.235 609.41C362.348 609.218 362.481 609.006 362.701 608.959C362.959 608.904 363.21 609.136 363.276 609.39C363.339 609.649 363.269 609.915 363.178 610.166C362.932 610.886 362.575 611.564 360.629 612.183Z" fill="#D9D9D9"/>
<path d="M326.046 613.84C325.815 613.146 325.302 612.653 324.988 612.007C324.675 611.36 324.671 610.346 325.235 610.044C325.732 609.782 326.296 610.291 326.528 610.89C326.755 611.486 326.782 612.171 326.99 612.782C327.197 613.393 327.714 613.945 326.046 613.84Z" fill="#D9D9D9"/>
<path d="M278.568 575.28C277.577 577.622 277.823 579.016 279.206 581.151C280.898 583.763 287.646 589.584 291.578 590.884C285.429 585.326 281.552 580.344 278.568 575.28Z" fill="#BDBDBD"/>
<path d="M283.279 643.371C282.402 642.999 281.458 642.74 280.734 642.125C280.009 641.51 279.516 640.527 279.751 639.607C279.982 638.702 280.957 638.052 281.881 638.189C282.805 638.326 283.553 639.227 283.514 640.159C282.594 639.517 282.923 637.86 283.965 637.441C285.006 637.022 286.271 637.739 286.667 638.788C287.063 639.838 286.581 640.974 286.005 641.933C284.991 643.625 285.108 644.146 283.279 643.371Z" fill="#FF0069"/>
<path d="M337.608 632.307C336.554 630.893 335.795 630.43 335.043 628.817C334.291 627.203 334.212 625.115 335.325 623.686C336.413 622.28 338.563 621.88 340.024 622.809C341.485 623.737 342.057 625.867 341.27 627.469C340.208 625.66 342.041 623.02 344.125 623.071C346.208 623.122 347.798 625.319 347.657 627.446C347.516 629.573 345.695 631.038 344.109 632.436C341.27 634.935 339.398 634.708 337.608 632.307Z" fill="#FF0069"/>
<path d="M278.077 624.267C276.899 623.35 275.516 622.657 274.627 621.443C273.734 620.229 273.327 618.513 274.008 617.146C274.678 615.799 276.393 615.11 277.756 615.638C279.119 616.163 279.946 617.836 279.562 619.293C278.383 617.969 279.464 615.478 281.199 615.172C282.934 614.867 284.618 616.426 284.853 618.212C285.088 619.998 284.007 621.674 282.742 622.935C280.937 624.741 280.58 626.214 278.077 624.267Z" fill="#FF0069"/>
<path d="M377.865 622.308C377.042 621.063 375.895 619.833 375.338 618.435C374.782 617.036 374.822 615.274 375.824 614.122C376.811 612.99 378.644 612.755 379.831 613.609C381.017 614.463 381.393 616.288 380.657 617.6C379.85 616.022 381.526 613.883 383.281 614.028C385.036 614.173 386.273 616.104 386.046 617.89C385.823 619.676 383.845 621.56 382.224 622.308C380.602 623.056 379.204 624.337 377.865 622.308Z" fill="#FF0069"/>
<path d="M370.988 646.247C370.49 645.374 369.868 644.888 369.539 643.928C369.214 642.969 369.296 641.782 370.012 641.042C370.717 640.313 371.955 640.219 372.727 640.834C373.494 641.449 373.686 642.691 373.146 643.548C372.656 642.46 373.858 641.077 375.033 641.234C376.208 641.39 376.976 642.734 376.764 643.928C376.553 645.123 375.468 645.894 374.45 646.533C372.492 647.763 371.998 648.017 370.988 646.247Z" fill="#FF0069"/>
<path d="M335.008 656.787C335.008 656.787 333.895 655.636 333.57 654.676C333.245 653.717 333.327 652.53 334.044 651.79C334.749 651.061 335.987 650.967 336.758 651.582C337.526 652.197 337.718 653.439 337.177 654.296C336.688 653.208 337.89 651.825 339.065 651.982C340.24 652.138 341.008 653.482 340.796 654.676C340.585 655.871 338.196 657.101 338.196 657.101L335.008 656.787Z" fill="#FF0069"/>
</g>
<mask id="mask24_4618_56228" style="mask-type:luminance" maskUnits="userSpaceOnUse" x="277" y="485" width="39" height="43">
<path fill-rule="evenodd" clip-rule="evenodd" d="M315.063 511.068C315.554 511.034 315.919 511.947 315.862 513.062C315.808 514.093 315.414 514.927 314.96 514.967L314.719 514.989L314.301 515.026C309.54 515.469 293.987 517.597 279.388 527.16C279.376 527.321 277.23 528.047 277.281 527.047C277.281 527.047 294.299 512.566 315.063 511.068ZM298.862 485.26C299.696 485.036 300.584 485.131 301.351 485.526C302.43 486.197 303.269 487.191 303.748 488.367C304.284 489.856 303.432 491.617 302.913 492.599C302.072 494.043 301.103 496.303 300.633 497.352C300.331 498.048 299.921 498.455 299.099 497.853C298.776 497.653 298.505 497.38 298.308 497.056C298.11 496.732 297.991 496.366 297.961 495.988C297.885 495.14 298.269 493.561 299.426 491.573C300.29 489.926 301.207 487.993 300.619 487.734C299.06 487.024 290.888 494.629 291.083 499.102C291.191 501.669 296.816 502.646 298.456 503.378C298.817 503.511 299.134 503.739 299.375 504.038C299.615 504.336 299.77 504.695 299.823 505.074C299.902 505.96 299.475 507.076 298.551 508.501C297.277 510.158 295.434 511.285 293.377 511.664C291.552 511.978 289.68 511.884 287.896 511.388C286.112 510.892 284.46 510.007 283.061 508.796C282.448 508.264 282.687 507.779 283.225 507.463C283.616 507.289 284.024 507.158 284.443 507.071C285.501 506.786 286.625 506.881 287.619 507.341C289.277 508.226 292.063 509.564 294.36 509.049C295.144 508.923 295.864 508.541 296.407 507.962C296.52 507.854 296.607 507.72 296.661 507.573C296.714 507.425 296.732 507.267 296.714 507.111C296.696 506.955 296.642 506.806 296.557 506.674C296.471 506.543 296.356 506.433 296.221 506.353C293.177 504.838 287.481 503.994 287.13 500.067C286.662 494.831 292.433 488.865 295.869 486.6C296.767 485.957 297.784 485.502 298.862 485.26Z" fill="white"/>
</mask>
<g mask="url(#mask24_4618_56228)">
<mask id="mask25_4618_56228" style="mask-type:luminance" maskUnits="userSpaceOnUse" x="272" y="483" width="46" height="46">
<path d="M314.05 483.029L272.835 486.717L276.59 528.685L317.805 524.997L314.05 483.029Z" fill="white"/>
</mask>
<g mask="url(#mask25_4618_56228)">
<mask id="mask26_4618_56228" style="mask-type:luminance" maskUnits="userSpaceOnUse" x="273" y="483" width="44" height="45">
<path d="M277.341 527.788L316.907 524.248L313.3 483.926L273.733 487.466L277.341 527.788Z" fill="white"/>
</mask>
<g mask="url(#mask26_4618_56228)">
<path d="M272.835 486.717L314.05 483.029L317.805 524.997L276.59 528.685L272.835 486.717Z" fill="#0057FF"/>
</g>
</g>
</g>
<defs>
<filter id="filter0_b_4618_56228" x="7.56152" y="104.914" width="715.711" height="673.13" filterUnits="userSpaceOnUse" color-interpolation-filters="sRGB">
<feFlood flood-opacity="0" result="BackgroundImageFix"/>
<feGaussianBlur in="BackgroundImageFix" stdDeviation="50"/>
<feComposite in2="SourceAlpha" operator="in" result="effect1_backgroundBlur_4618_56228"/>
<feBlend mode="normal" in="SourceGraphic" in2="effect1_backgroundBlur_4618_56228" result="shape"/>
</filter>
<filter id="filter1_b_4618_56228" x="85.0381" y="176.292" width="561.312" height="531.713" filterUnits="userSpaceOnUse" color-interpolation-filters="sRGB">
<feFlood flood-opacity="0" result="BackgroundImageFix"/>
<feGaussianBlur in="BackgroundImageFix" stdDeviation="25"/>
<feComposite in2="SourceAlpha" operator="in" result="effect1_backgroundBlur_4618_56228"/>
<feBlend mode="normal" in="SourceGraphic" in2="effect1_backgroundBlur_4618_56228" result="shape"/>
</filter>
<linearGradient id="paint0_linear_4618_56228" x1="764.229" y1="730.325" x2="-42.4539" y2="-112.226" gradientUnits="userSpaceOnUse">
<stop offset="0.0541064" stop-color="white"/>
<stop offset="0.63085" stop-color="#F9F9FF" stop-opacity="0.65"/>
<stop offset="0.792052" stop-color="#E4EEFF" stop-opacity="0.33"/>
</linearGradient>
<linearGradient id="paint1_linear_4618_56228" x1="722.437" y1="705.711" x2="-14.1223" y2="-48.4663" gradientUnits="userSpaceOnUse">
<stop offset="0.0541064" stop-color="#FFF5FD"/>
<stop offset="0.334245" stop-color="#F0F1FE" stop-opacity="0.65"/>
<stop offset="0.733105" stop-color="#D6E4FF" stop-opacity="0.33"/>
</linearGradient>
<linearGradient id="paint2_linear_4618_56228" x1="616.837" y1="487.188" x2="177.724" y2="324.131" gradientUnits="userSpaceOnUse">
<stop stop-color="white"/>
<stop offset="1" stop-color="white" stop-opacity="0.353"/>
</linearGradient>
</defs>
</svg>
