<svg width="1230" height="835" viewBox="0 0 1230 835" fill="none" xmlns="http://www.w3.org/2000/svg">
<path d="M1042.69 266.655V479.061H891.827L1040.23 266.655H1042.69ZM1042.69 581.33V722.93H1153.37V581.33H1229.62V479.061H1153.37V111.066H1049.24L800 467.698V581.33H1042.69Z" fill="url(#paint0_linear_652_16245)"/>
<path d="M242.685 270.031V482.437H91.827L240.227 270.031H242.685ZM242.685 584.706V726.306H353.369V584.706H429.618V482.437H353.369V114.442H249.244L0 471.074V584.706H242.685Z" fill="url(#paint1_linear_652_16245)"/>
<g filter="url(#filter0_b_652_16245)">
<path d="M680.075 66.2695C838.806 115.475 985.012 225.321 985.012 420.269C985.012 615.217 825.409 773.24 628.529 773.24C431.649 773.24 274.819 650.424 223.806 465.876C203.451 388.285 241.73 290.359 350.089 223.442C458.448 156.525 521.345 17.0635 680.075 66.2695Z" fill="url(#paint2_linear_652_16245)"/>
</g>
<path d="M643.592 1.65527C623.745 1.62195 604.026 4.83503 585.216 11.1673C576.211 14.2059 567.427 17.8646 558.928 22.1173C550.398 26.3965 542.116 31.1538 534.122 36.3663C526.369 41.3973 518.634 46.9333 510.469 53.2873C503.184 58.9603 495.719 65.1653 487.646 72.2583C472.628 85.4523 457.657 99.8693 443.18 113.811C428.018 128.411 412.339 143.511 396.267 157.561C387.603 165.135 379.544 171.786 371.631 177.893C362.731 184.759 354.256 190.761 345.71 196.243C316.417 215.035 290.757 236.573 269.445 260.26C249.94 281.7 233.734 305.923 221.359 332.132C210.317 355.525 203.174 380.565 200.213 406.262C198.878 418.271 198.591 430.374 199.356 442.432C200.104 454.121 201.916 465.717 204.769 477.077C218.849 529.986 240.303 579.138 268.533 623.168C295.845 665.998 330.035 704.03 369.726 735.731C409.211 767.164 453.758 791.647 501.459 808.131C550.536 825.131 602.826 833.745 656.876 833.745C670.47 833.744 684.055 833.039 697.576 831.631C736.97 827.518 775.498 817.38 811.815 801.571C835.536 791.235 858.184 778.591 879.431 763.822C900.623 749.078 920.352 732.335 938.346 713.822C974.814 676.267 1003.77 632.091 1023.66 583.668C1028.7 571.408 1033.21 558.75 1037.05 546.047C1040.93 533.2 1044.23 519.997 1046.86 506.805C1049.52 493.44 1051.55 479.76 1052.89 466.147C1054.26 452.333 1054.95 438.247 1054.95 424.278C1054.95 410.34 1054.32 396.458 1053.07 383.018C1051.85 369.838 1050 356.724 1047.59 344.038C1045.22 331.602 1042.23 319.238 1038.71 307.295C1035.27 295.589 1031.21 283.964 1026.67 272.743C1022.22 261.751 1017.17 250.849 1011.68 240.343C1006.29 230.051 1000.33 219.856 993.952 210.043C987.707 200.436 980.897 190.935 973.71 181.805C966.676 172.869 959.092 164.047 951.17 155.586C943.418 147.307 935.134 139.151 926.549 131.345C918.149 123.709 909.24 116.204 900.065 109.045C881.726 94.7853 862.454 81.7672 842.379 70.0783C803.812 47.5453 760.711 28.5393 714.269 13.5873C702.22 9.66887 689.9 6.63909 677.408 4.52227C666.231 2.64577 654.92 1.68757 643.587 1.65727M643.587 0.657273C665.318 0.657273 688.817 4.34127 714.576 12.6353C892.274 69.8533 1055.95 197.587 1055.95 424.287C1055.95 650.987 877.277 834.749 656.876 834.749C436.475 834.749 260.909 691.93 203.801 477.325C181.015 387.096 223.869 273.221 345.169 195.405C448.89 128.869 515.408 0.655273 643.592 0.655273L643.587 0.657273Z" fill="url(#paint3_linear_652_16245)"/>
<g filter="url(#filter1_b_652_16245)">
<path d="M670.791 49.5679C839.592 100.866 995.074 215.384 995.074 418.622C995.074 621.861 825.345 786.604 615.974 786.604C406.603 786.604 239.823 658.565 185.574 466.169C163.927 385.278 204.635 283.188 319.869 213.425C435.103 143.662 501.99 -1.73069 670.791 49.5679Z" fill="url(#paint4_linear_652_16245)" fill-opacity="0.4"/>
</g>
<g filter="url(#filter2_b_652_16245)">
<path d="M662.445 82.4164C813.441 129.224 952.522 233.717 952.522 419.165C952.522 604.613 800.697 754.935 613.411 754.935C426.126 754.935 276.939 638.104 228.412 462.549C209.049 388.74 245.462 295.586 348.541 231.93C451.619 168.274 511.451 35.6084 662.445 82.4164Z" fill="url(#paint5_linear_652_16245)"/>
</g>
<path d="M627.741 20.9513C608.861 20.9196 590.103 23.9761 572.209 29.9997C563.643 32.8902 555.288 36.3707 547.203 40.4161C539.088 44.4868 531.21 49.0122 523.605 53.9707C516.23 58.7565 508.872 64.0227 501.105 70.0671C494.175 75.4636 487.074 81.3662 479.394 88.1136C465.108 100.665 450.867 114.379 437.095 127.642C422.672 141.53 407.757 155.894 392.469 169.26C384.227 176.464 376.56 182.791 369.033 188.601C360.567 195.132 352.505 200.842 344.375 206.056C316.51 223.933 292.1 244.421 271.827 266.954C253.273 287.349 237.857 310.391 226.084 335.323C215.581 357.576 208.786 381.396 205.969 405.841C204.699 417.264 204.426 428.777 205.154 440.248C205.866 451.367 207.589 462.398 210.303 473.205C223.697 523.535 244.105 570.292 270.959 612.176C296.94 652.919 329.464 689.097 367.221 719.254C404.782 749.155 447.158 772.445 492.534 788.125C539.22 804.297 588.961 812.491 640.377 812.491C653.309 812.49 666.232 811.819 679.094 810.48C716.568 806.568 753.219 796.924 787.766 781.885C810.331 772.052 831.875 760.025 852.087 745.976C872.246 731.95 891.013 716.023 908.13 698.412C942.822 662.688 970.368 620.664 989.289 574.601C994.085 562.939 998.37 550.897 1002.02 538.814C1005.72 526.593 1008.86 514.033 1011.36 501.484C1013.88 488.77 1015.82 475.757 1017.09 462.807C1018.39 449.667 1019.05 436.267 1019.05 422.979C1019.05 409.72 1018.45 396.514 1017.26 383.729C1016.1 371.192 1014.35 358.717 1012.05 346.649C1009.79 334.819 1006.95 323.058 1003.61 311.697C1000.33 300.561 996.472 289.503 992.151 278.828C987.917 268.372 983.114 258.001 977.889 248.007C972.767 238.217 967.094 228.519 961.027 219.184C955.086 210.045 948.608 201.007 941.771 192.322C935.08 183.822 927.865 175.429 920.33 167.381C912.955 159.505 905.075 151.747 896.908 144.321C888.918 137.057 880.443 129.918 871.715 123.108C854.27 109.543 835.937 97.1591 816.84 86.0398C780.153 64.6049 739.152 46.5251 694.973 32.3018C683.512 28.5743 671.792 25.6922 659.909 23.6786C649.277 21.8935 638.517 20.982 627.736 20.9532M627.736 20.0019C648.408 20.0019 670.762 23.5064 695.265 31.3962C864.304 85.8258 1020 207.335 1020 422.987C1020 638.64 850.038 813.446 640.377 813.446C430.717 813.446 263.707 677.587 209.382 473.441C187.706 387.609 228.472 279.283 343.861 205.259C442.527 141.966 505.803 20 627.741 20L627.736 20.0019Z" fill="url(#paint6_linear_652_16245)"/>
<mask id="mask0_652_16245" style="mask-type:alpha" maskUnits="userSpaceOnUse" x="222" y="71" width="731" height="683">
<path d="M661.957 81.349C812.953 128.157 952.034 232.65 952.034 418.098C952.034 603.545 800.209 753.867 612.923 753.867C425.638 753.867 276.45 637.036 227.923 461.482C208.56 387.672 244.974 294.518 348.052 230.863C451.131 167.207 510.963 34.541 661.957 81.349Z" fill="#D9D9D9"/>
</mask>
<g mask="url(#mask0_652_16245)">
<path d="M835.017 650.209L834.998 688.329C834.998 690.935 833.562 693.306 831.291 694.575C808.493 707.29 790.295 728.083 780.688 752.355C779.587 755.129 776.82 756.354 773.873 756.819C716.53 765.875 644.418 768.06 603.905 753.105C600.396 751.811 590.733 743.305 590.733 743.305C590.733 743.305 598.675 696.494 595.165 673.249C594.584 669.38 597.239 665.765 601.101 665.165C673.455 653.88 752.945 659.197 826.388 643.251C830.833 642.285 835.023 645.671 835.017 650.209Z" fill="#E8E8E8"/>
<path d="M835.017 654.152C835.499 663.895 834.88 678.802 834.781 688.867C834.757 691.288 833.37 693.399 831.303 694.661C809.161 708.206 800.007 715.839 779.066 754.658C778.286 756.101 770.784 757.24 763.462 758.366C753.05 759.97 741.618 761.3 738.547 761.3C788.196 731.841 806.327 690.074 788.753 674.072C824.376 659.903 805.107 667.511 835.017 654.152Z" fill="#D5D5D5"/>
<path d="M781.994 337.386C792.25 320.264 821.993 309.022 840.952 315.281C859.906 321.539 870.453 334.403 877.98 352.893C885.507 371.384 890.508 404.124 890.917 421.593C891.753 457.572 884.331 529.67 876.723 564.844C873.053 581.83 860.481 623.355 857.479 631.65C854.811 639.023 854.978 639.574 853.666 640.88C833.722 660.825 770.4 683.364 731.329 688.001C669.208 695.367 590.609 676.889 547.187 664.979C534.033 661.37 576.186 674.908 577.499 675.831C579.603 677.304 582.482 675.515 582.166 672.964C581.962 671.349 581.856 669.312 581.924 666.755C582.215 656.096 591.352 647.479 601.299 643.653C611.252 639.827 624.653 644.916 632.675 637.896C708.025 571.932 722.28 590.305 743.177 544.651C764.074 498.997 768.853 447.791 771.551 397.649C772.74 375.618 774.677 349.606 781.994 337.386Z" fill="#F2F2F2"/>
<path d="M786.68 666.545C715.18 697.398 625.149 678.449 622.586 678.319C666.373 691.814 716.233 689.889 730.568 688.1C747.888 685.933 766.507 681.458 783.541 675.88C793.73 672.544 808.703 666.935 817.74 662.788C826.901 658.584 833.648 655.409 842.06 649.93C845.582 647.634 851.184 643.833 854.31 640.143C850.404 639.011 838.124 634.064 836.75 633.47C836.743 633.464 822.921 650.902 786.68 666.545Z" fill="#D5D5D5"/>
<mask id="mask1_652_16245" style="mask-type:luminance" maskUnits="userSpaceOnUse" x="450" y="155" width="522" height="471">
<path d="M551.713 567.735L894.465 625.874C894.713 625.8 971.801 350.281 971.727 350.033L726.447 155.96C726.373 155.712 697.788 167.957 697.546 168.031L450.657 245.466C450.409 245.54 450.273 245.806 450.347 246.054L551.119 567.438C551.199 567.679 551.465 567.815 551.713 567.735Z" fill="white"/>
</mask>
<g mask="url(#mask1_652_16245)">
<path d="M481.061 330.738C482.64 358.99 495.868 392.152 538.274 409.9C543.981 412.289 551.174 417.173 552.697 421.773C558.577 439.527 557.68 454.743 566.878 471.655C577.667 491.495 577.401 502.352 586.221 513.309C588.251 515.835 606.462 503.925 658.76 479.739C676.426 471.568 687.45 495.506 695.962 478C704.473 460.5 721.711 453.566 723.185 434.16C724.336 418.981 722.368 397.055 729.325 383.739C735.112 372.659 745.276 362.079 757.996 360.519C758.448 360.464 767.058 355.97 766.662 355.753C744.54 343.607 815.216 352.627 815.216 352.627C815.216 352.627 768.47 326.25 724.107 294.314C689.376 269.311 680.703 257.079 663.601 245.769C650.41 237.041 624.314 226.27 597.778 230.411C597.289 230.485 597.233 231.179 597.703 231.327C601.622 232.596 605.732 231.785 606.642 227.669C607.669 223.001 602.061 216.718 597.276 216.774C593.092 216.817 588.419 219.256 586.791 224.115C586.791 224.115 588.443 221.088 588.561 220.872C590.115 218.129 589.069 214.57 588.351 213.121C586.921 210.237 583.72 205.575 579.035 205.532C574.838 205.495 571.78 209.351 571.817 212.205C571.879 217.51 578.731 226.468 573.315 228.164C524.155 243.169 477.775 271.793 481.061 330.738Z" fill="#D08A5A"/>
</g>
<mask id="mask2_652_16245" style="mask-type:luminance" maskUnits="userSpaceOnUse" x="470" y="237" width="221" height="192">
<path d="M518.292 428.006L690.63 362.023C690.872 361.931 690.996 361.677 690.915 361.454L643.624 237.926C643.538 237.703 643.272 237.598 643.03 237.691L470.698 303.667C470.456 303.76 470.333 304.014 470.413 304.237L517.698 427.765C517.79 427.994 518.05 428.099 518.292 428.006Z" fill="white"/>
</mask>
<g mask="url(#mask2_652_16245)">
<path d="M538.466 285.146C541.914 284.688 552.975 283.592 560.366 275.885C565.838 270.171 573.142 264.922 580.669 261.604C590.232 257.388 604.611 256.973 613.048 258.88C622.611 261.047 638.946 268.382 650.168 276.553C660.877 284.353 669.14 298.925 670.335 312.519C671.79 329.085 665.29 343.787 655.752 356.52C643.651 372.677 630.658 381.894 616.192 389.391C584.68 405.727 563.399 405.251 545.925 403.096C534.09 401.642 518.219 395.891 506.217 384.482C502.738 381.176 499.81 375.809 497.124 371.891C490.296 361.937 488.446 341.62 489.9 328.422C491.77 311.442 496.678 290.68 538.466 285.146Z" fill="#F2D2B6"/>
</g>
<path d="M496.424 332.997C498.355 329.37 500.967 326.411 503.759 323.402C506.55 320.387 510.574 318.01 513.18 316.797C518.113 314.488 525.392 315.25 529.075 316.246C532.207 317.094 536.02 319.96 538.775 323.489C541.709 327.253 542.421 333.907 542.829 338.668C543.231 343.434 541.09 351.964 538.094 355.679C535.915 358.378 531.304 362.216 523.851 363.875C514.876 365.88 512.047 366.388 509.014 369.607C507.157 371.575 505.219 374.38 504.229 375.946C502.892 378.057 502.248 378.991 502.001 379.48C498.163 374.918 495.111 368.951 493.168 364.234C492.462 362.531 489.045 355.338 489.113 346.591C489.113 346.789 493.31 338.847 496.424 332.997Z" fill="#D9A171"/>
<path opacity="0.1686" d="M489.114 346.659C489.114 346.659 489.201 349.866 489.517 352.181C489.702 353.524 490.946 358.879 492.574 362.847C494.951 368.641 497.625 374.311 501.983 379.493C503.964 376.373 504.83 374.955 504.83 374.955C504.83 374.955 500.436 370.473 497.019 361.85C495.341 357.616 493.014 352.658 491.38 342.468C490.179 344.728 489.114 346.659 489.114 346.659Z" fill="#523618"/>
<path d="M534.015 330.026C529.558 322.895 512.678 323.359 512.678 323.359C512.678 323.359 503.294 337.182 509.045 346.963C514.795 356.744 524.265 359.703 530.969 354.738C538.143 349.433 540.031 339.646 534.015 330.026Z" fill="white"/>
<path opacity="0.1412" d="M529.347 338.711C530.511 341.311 532.925 346.189 532.504 353.506C534.93 351.104 536.534 348.362 537.252 345.025C537.963 341.72 537.586 337.913 536.28 334.57C534.126 335.944 532.677 336.922 529.347 338.711Z" fill="black"/>
<path d="M522.395 354.657C524.946 354.657 527.013 352.59 527.013 350.039C527.013 347.489 524.946 345.421 522.395 345.421C519.845 345.421 517.778 347.489 517.778 350.039C517.778 352.59 519.845 354.657 522.395 354.657Z" fill="black" stroke="black" stroke-miterlimit="10"/>
<path d="M521.3 353.512C522.452 353.512 523.386 352.578 523.386 351.426C523.386 350.274 522.452 349.34 521.3 349.34C520.148 349.34 519.214 350.274 519.214 351.426C519.214 352.578 520.148 353.512 521.3 353.512Z" fill="white"/>
<path d="M514.672 321.167C500.38 326.608 508.334 345.848 508.309 345.767C508.309 345.767 519.642 345.551 536.467 334.451C536.467 334.451 536.231 333.671 535.52 332.279C533.037 327.407 526.086 316.821 514.672 321.167Z" fill="#D39266"/>
<path opacity="0.1294" d="M536.409 334.266C536.397 334.223 536.378 334.186 536.36 334.13C536.31 333.994 536.236 333.815 536.143 333.598C535.914 333.072 535.543 332.329 535.202 331.667C534.911 331.122 534.565 330.521 534.181 329.89C533.475 328.763 532.646 327.606 531.792 326.541C531.129 325.742 530.405 324.962 529.607 324.232C529.235 323.898 528.814 323.551 528.344 323.18C527.929 322.858 527.465 322.53 526.988 322.226C525.868 321.527 524.649 320.957 523.33 320.586C522.686 320.419 522.018 320.289 521.399 320.208C519.424 319.979 517.264 320.208 514.906 321.081C514.726 321.155 514.541 321.223 514.361 321.304C514.305 321.329 514.25 321.353 514.188 321.378C513.569 321.657 512.937 321.972 512.275 322.344C512.263 322.35 512.257 322.356 512.244 322.369C515.011 322.406 520.149 324.727 526.122 332.973C527.533 334.923 528.585 336.854 529.359 338.711C531.6 337.504 533.977 336.099 536.478 334.446C536.465 334.452 536.447 334.384 536.409 334.266Z" fill="black"/>
<path d="M597.35 282.113C594.602 284.644 590.937 289.392 590.801 295.576C590.665 301.761 592.602 309.35 595.499 314.816C597.988 319.502 601.974 323.724 606.839 325.841C613.196 328.608 621.503 327.407 626.3 325.494C630.782 323.705 638.048 318.97 645.396 317.329C647.903 316.766 653.177 316.822 655.393 317.466C659.775 318.747 666.101 324.535 669.004 329.846C672.347 316.11 669.908 307.462 667.376 299.39C665.012 291.85 661.496 286.26 661.496 286.26C661.496 286.26 660.214 285.61 658.877 285.016C655.553 283.536 648.033 279.29 644.486 278.485C638.197 277.061 633.858 275.353 627.445 274.647C622.041 274.053 617.981 274.635 612.633 275.588C607.47 276.51 599.981 279.692 597.35 282.113Z" fill="#D9A171"/>
<path d="M627.173 293.286C622.846 285.43 604.902 284.96 604.902 284.96C604.902 284.96 594.15 299.167 599.703 309.926C605.255 320.684 615.134 324.38 622.537 319.471C630.454 314.215 633.016 303.884 627.173 293.286Z" fill="white"/>
<path opacity="0.1412" d="M621.727 302.287C622.816 305.128 625.1 310.471 624.24 318.246C626.951 315.825 628.808 312.99 629.761 309.474C630.708 305.989 630.516 301.909 629.322 298.27C626.957 299.607 625.36 300.566 621.727 302.287Z" fill="black"/>
<path d="M612.292 319.013C615.003 319.013 617.201 316.807 617.201 314.086C617.201 311.364 615.003 309.158 612.292 309.158C609.581 309.158 607.384 311.364 607.384 314.086C607.384 316.807 609.581 319.013 612.292 319.013Z" fill="black" stroke="black" stroke-miterlimit="10"/>
<path d="M611.178 318.246C612.402 318.246 613.394 317.248 613.394 316.017C613.394 314.786 612.402 313.789 611.178 313.789C609.955 313.789 608.962 314.786 608.962 316.017C608.962 317.248 609.955 318.246 611.178 318.246Z" fill="white"/>
<path d="M607.143 282.737C591.662 287.727 599.015 308.699 598.991 308.607C598.991 308.607 611.036 309.021 629.531 298.145C629.531 298.145 629.327 297.303 628.646 295.774C626.288 290.444 619.504 278.751 607.143 282.737Z" fill="#D39266"/>
<path opacity="0.1294" d="M629.469 297.947C629.457 297.904 629.445 297.861 629.426 297.805C629.426 297.799 629.426 297.799 629.426 297.793C629.377 297.644 629.315 297.452 629.228 297.217C629.011 296.641 628.665 295.824 628.337 295.106C628.058 294.506 627.73 293.849 627.353 293.156C626.665 291.912 625.855 290.637 625.007 289.454C624.35 288.569 623.62 287.69 622.815 286.867C622.438 286.495 622.017 286.093 621.534 285.672C621.113 285.307 620.637 284.929 620.154 284.576C619.002 283.765 617.74 283.084 616.359 282.62C615.685 282.41 614.985 282.23 614.329 282.106C612.249 281.753 609.934 281.871 607.384 282.663C607.186 282.732 606.988 282.793 606.79 282.868C606.728 282.892 606.666 282.911 606.604 282.936C605.929 283.196 605.236 283.499 604.518 283.858C604.506 283.864 604.493 283.871 604.481 283.877C607.415 284.075 612.732 286.842 618.612 295.979C620.005 298.139 621.008 300.263 621.72 302.287C624.165 301.129 626.771 299.767 629.525 298.145C629.525 298.145 629.507 298.071 629.469 297.947Z" fill="black"/>
<path d="M554.782 321.099C544.773 333.269 545.652 350.435 547.46 357.734C549.267 365.026 552.028 370.226 554.968 374.206C556.225 375.915 561.542 384.959 574.07 381.028C580.644 378.967 585.453 374.274 594.045 371.581C604.828 368.202 611.457 359.219 609.012 352.156C595.407 312.903 568.642 313.417 564.624 314.68C559.567 316.265 555.333 320.431 554.782 321.099Z" fill="#D9A171"/>
<path opacity="0.1608" d="M581.363 369.857C584.187 368.81 585.549 365.459 584.405 362.372C583.261 359.285 580.044 357.63 577.22 358.677C574.396 359.724 573.034 363.075 574.178 366.162C575.322 369.249 578.539 370.904 581.363 369.857Z" fill="#252525"/>
<path d="M580.937 368.594C583.777 367.542 585.152 364.186 584.008 361.098C582.864 358.011 579.634 356.362 576.794 357.414C573.954 358.467 572.579 361.823 573.723 364.91C574.867 367.997 578.097 369.647 580.937 368.594Z" fill="#252525"/>
<path d="M552.202 345.273C549.986 338.482 556.312 331.443 566.55 328.113C576.782 324.776 586.432 326.794 588.648 333.585C590.864 340.376 584.191 348.64 573.959 351.977C563.727 355.313 554.418 352.063 552.202 345.273Z" fill="#252525"/>
<mask id="mask3_652_16245" style="mask-type:luminance" maskUnits="userSpaceOnUse" x="573" y="332" width="10" height="13">
<path d="M577.164 344.771L582.624 342.988C582.872 342.908 583.001 342.642 582.921 342.4L579.832 332.917C579.752 332.669 579.486 332.539 579.244 332.619L573.785 334.402C573.537 334.483 573.407 334.749 573.488 334.99L576.576 344.474C576.657 344.722 576.923 344.852 577.164 344.771Z" fill="white"/>
</mask>
<g mask="url(#mask3_652_16245)">
<g opacity="0.1216">
<mask id="mask4_652_16245" style="mask-type:luminance" maskUnits="userSpaceOnUse" x="573" y="332" width="10" height="13">
<path d="M577.164 344.771L582.624 342.988C582.872 342.908 583.001 342.642 582.921 342.4L579.832 332.917C579.752 332.669 579.486 332.539 579.244 332.619L573.785 334.402C573.537 334.483 573.407 334.749 573.488 334.99L576.576 344.474C576.657 344.722 576.923 344.852 577.164 344.771Z" fill="white"/>
</mask>
<g mask="url(#mask4_652_16245)">
<path d="M575.487 338.711C575.63 334.563 577.14 332.848 578.749 332.923C580.353 332.997 581.058 335.516 580.192 338.785C579.74 340.487 578.948 343.162 577.728 344.499C576.787 345.532 575.37 342.196 575.487 338.711Z" fill="white"/>
</g>
</g>
</g>
<mask id="mask5_652_16245" style="mask-type:luminance" maskUnits="userSpaceOnUse" x="559" y="337" width="11" height="14">
<path d="M559.289 340.512L563.109 349.729C563.208 349.971 563.48 350.082 563.721 349.983L569.026 347.786C569.268 347.687 569.379 347.414 569.28 347.173L565.461 337.955C565.362 337.714 565.089 337.603 564.848 337.702L559.543 339.899C559.302 339.998 559.19 340.277 559.289 340.512Z" fill="white"/>
</mask>
<g mask="url(#mask5_652_16245)">
<g opacity="0.1216">
<mask id="mask6_652_16245" style="mask-type:luminance" maskUnits="userSpaceOnUse" x="559" y="337" width="11" height="14">
<path d="M562.923 350.28L569.168 348.244C569.416 348.163 569.546 347.897 569.465 347.655L566.222 337.708C566.141 337.46 565.875 337.33 565.634 337.41L559.388 339.447C559.141 339.528 559.011 339.794 559.091 340.035L562.335 349.983C562.415 350.224 562.681 350.354 562.923 350.28Z" fill="white"/>
</mask>
<g mask="url(#mask6_652_16245)">
<path d="M566.358 342.084C563.554 339.026 561.288 338.704 560.118 339.806C558.948 340.908 560.05 343.279 562.836 345.198C564.284 346.201 566.63 347.711 568.419 347.934C569.805 348.114 568.716 344.653 566.358 342.084Z" fill="white"/>
</g>
</g>
</g>
<mask id="mask7_652_16245" style="mask-type:luminance" maskUnits="userSpaceOnUse" x="573" y="332" width="10" height="13">
<path d="M577.164 344.771L582.624 342.988C582.872 342.908 583.001 342.642 582.921 342.4L579.832 332.917C579.752 332.669 579.486 332.539 579.244 332.619L573.785 334.402C573.537 334.483 573.407 334.749 573.488 334.99L576.576 344.474C576.657 344.722 576.923 344.852 577.164 344.771Z" fill="white"/>
</mask>
<g mask="url(#mask7_652_16245)">
<g opacity="0.1216">
<mask id="mask8_652_16245" style="mask-type:luminance" maskUnits="userSpaceOnUse" x="573" y="332" width="10" height="13">
<path d="M577.164 344.771L582.624 342.988C582.872 342.908 583.001 342.642 582.921 342.4L579.832 332.917C579.752 332.669 579.486 332.539 579.244 332.619L573.785 334.402C573.537 334.483 573.407 334.749 573.488 334.99L576.576 344.474C576.657 344.722 576.923 344.852 577.164 344.771Z" fill="white"/>
</mask>
<g mask="url(#mask8_652_16245)">
<path d="M575.487 338.711C575.63 334.563 577.14 332.848 578.749 332.923C580.353 332.997 581.058 335.516 580.192 338.785C579.74 340.487 578.948 343.162 577.728 344.499C576.787 345.532 575.37 342.196 575.487 338.711Z" fill="white"/>
</g>
</g>
</g>
<mask id="mask9_652_16245" style="mask-type:luminance" maskUnits="userSpaceOnUse" x="559" y="337" width="11" height="14">
<path d="M559.289 340.512L563.109 349.729C563.208 349.971 563.48 350.082 563.721 349.983L569.026 347.786C569.268 347.687 569.379 347.414 569.28 347.173L565.461 337.955C565.362 337.714 565.089 337.603 564.848 337.702L559.543 339.899C559.302 339.998 559.19 340.277 559.289 340.512Z" fill="white"/>
</mask>
<g mask="url(#mask9_652_16245)">
<g opacity="0.1216">
<mask id="mask10_652_16245" style="mask-type:luminance" maskUnits="userSpaceOnUse" x="559" y="337" width="11" height="14">
<path d="M562.923 350.28L569.168 348.244C569.416 348.163 569.546 347.897 569.465 347.655L566.222 337.708C566.141 337.46 565.875 337.33 565.634 337.41L559.388 339.447C559.141 339.528 559.011 339.794 559.091 340.035L562.335 349.983C562.415 350.224 562.681 350.354 562.923 350.28Z" fill="white"/>
</mask>
<g mask="url(#mask10_652_16245)">
<path d="M566.358 342.084C563.554 339.026 561.288 338.704 560.118 339.806C558.948 340.908 560.05 343.279 562.836 345.198C564.284 346.201 566.63 347.711 568.419 347.934C569.805 348.114 568.716 344.653 566.358 342.084Z" fill="white"/>
</g>
</g>
</g>
<mask id="mask11_652_16245" style="mask-type:luminance" maskUnits="userSpaceOnUse" x="573" y="332" width="10" height="13">
<path d="M577.164 344.771L582.624 342.988C582.872 342.908 583.001 342.642 582.921 342.4L579.832 332.917C579.752 332.669 579.486 332.539 579.244 332.619L573.785 334.402C573.537 334.483 573.407 334.749 573.488 334.99L576.576 344.474C576.657 344.722 576.923 344.852 577.164 344.771Z" fill="white"/>
</mask>
<g mask="url(#mask11_652_16245)">
<g opacity="0.1216">
<mask id="mask12_652_16245" style="mask-type:luminance" maskUnits="userSpaceOnUse" x="573" y="332" width="10" height="13">
<path d="M577.164 344.771L582.624 342.988C582.872 342.908 583.001 342.642 582.921 342.4L579.832 332.917C579.752 332.669 579.486 332.539 579.244 332.619L573.785 334.402C573.537 334.483 573.407 334.749 573.488 334.99L576.576 344.474C576.657 344.722 576.923 344.852 577.164 344.771Z" fill="white"/>
</mask>
<g mask="url(#mask12_652_16245)">
<path d="M575.487 338.711C575.63 334.563 577.14 332.848 578.749 332.923C580.353 332.997 581.058 335.516 580.192 338.785C579.74 340.487 578.948 343.162 577.728 344.499C576.787 345.532 575.37 342.196 575.487 338.711Z" fill="white"/>
</g>
</g>
</g>
<mask id="mask13_652_16245" style="mask-type:luminance" maskUnits="userSpaceOnUse" x="559" y="337" width="11" height="14">
<path d="M559.289 340.512L563.109 349.729C563.208 349.971 563.48 350.082 563.721 349.983L569.026 347.786C569.268 347.687 569.379 347.414 569.28 347.173L565.461 337.955C565.362 337.714 565.089 337.603 564.848 337.702L559.543 339.899C559.302 339.998 559.19 340.277 559.289 340.512Z" fill="white"/>
</mask>
<g mask="url(#mask13_652_16245)">
<g opacity="0.1216">
<mask id="mask14_652_16245" style="mask-type:luminance" maskUnits="userSpaceOnUse" x="559" y="337" width="11" height="14">
<path d="M562.923 350.28L569.168 348.244C569.416 348.163 569.546 347.897 569.465 347.655L566.222 337.708C566.141 337.46 565.875 337.33 565.634 337.41L559.388 339.447C559.141 339.528 559.011 339.794 559.091 340.035L562.335 349.983C562.415 350.224 562.681 350.354 562.923 350.28Z" fill="white"/>
</mask>
<g mask="url(#mask14_652_16245)">
<path d="M566.358 342.084C563.554 339.026 561.288 338.704 560.118 339.806C558.948 340.908 560.05 343.279 562.836 345.198C564.284 346.201 566.63 347.711 568.419 347.934C569.805 348.114 568.716 344.653 566.358 342.084Z" fill="white"/>
</g>
</g>
</g>
<mask id="mask15_652_16245" style="mask-type:luminance" maskUnits="userSpaceOnUse" x="-73" y="-94" width="1450" height="1253">
<path d="M-72.1904 285.239L1091.28 -93.9749C1091.53 -94.0553 1091.79 -93.9192 1091.87 -93.6777L1376.19 778.77C1376.27 779.017 1376.14 779.277 1375.89 779.358L212.42 1158.58C212.173 1158.66 211.913 1158.52 211.832 1158.28L-72.4876 285.833C-72.568 285.586 -72.4318 285.319 -72.1904 285.239Z" fill="white"/>
</mask>
<g mask="url(#mask15_652_16245)">
<g opacity="0.3216">
<mask id="mask16_652_16245" style="mask-type:luminance" maskUnits="userSpaceOnUse" x="570" y="330" width="13" height="16">
<path d="M574.992 345.842L582.135 343.515C582.383 343.434 582.513 343.168 582.432 342.927L578.341 330.366C578.26 330.119 577.994 329.989 577.753 330.069L570.609 332.397C570.362 332.477 570.232 332.743 570.312 332.985L574.404 345.545C574.478 345.786 574.744 345.923 574.992 345.842Z" fill="white"/>
</mask>
<g mask="url(#mask16_652_16245)">
<path d="M578.198 329.927C578.582 334.248 577.988 338.581 577.4 342.877C577.319 343.484 577.227 344.103 576.936 344.641C576.645 345.18 576.094 345.619 575.481 345.607C574.788 345.594 574.218 345 574.008 344.338C573.791 343.682 573.859 342.97 573.927 342.283C574.126 340.283 574.317 338.284 574.515 336.284C574.639 334.997 574.775 333.684 575.308 332.514C575.84 331.338 576.868 330.304 578.198 329.927Z" fill="#252525"/>
</g>
</g>
</g>
<mask id="mask17_652_16245" style="mask-type:luminance" maskUnits="userSpaceOnUse" x="-73" y="-94" width="1450" height="1253">
<path d="M-72.1904 285.239L1091.28 -93.9749C1091.53 -94.0553 1091.79 -93.9192 1091.87 -93.6777L1376.19 778.77C1376.27 779.017 1376.14 779.277 1375.89 779.358L212.42 1158.58C212.173 1158.66 211.913 1158.52 211.832 1158.28L-72.4876 285.833C-72.568 285.586 -72.4318 285.319 -72.1904 285.239Z" fill="white"/>
</mask>
<g mask="url(#mask17_652_16245)">
<g opacity="0.3216">
<mask id="mask18_652_16245" style="mask-type:luminance" maskUnits="userSpaceOnUse" x="558" y="335" width="13" height="16">
<path d="M562.824 349.996L570.159 347.606C570.406 347.526 570.536 347.26 570.456 347.018L566.655 335.356C566.575 335.108 566.308 334.978 566.067 335.058L558.732 337.448C558.484 337.528 558.354 337.795 558.435 338.036L562.235 349.699C562.31 349.94 562.576 350.076 562.824 349.996Z" fill="white"/>
</mask>
<g mask="url(#mask18_652_16245)">
<path d="M558.472 338.054C561.61 341.019 564.749 343.985 567.881 346.956C568.203 347.259 568.531 347.569 568.945 347.717C569.36 347.866 569.88 347.81 570.159 347.47C570.555 346.981 570.264 346.256 569.936 345.718C567.937 342.468 564.916 339.955 561.666 337.955C561.066 337.59 560.428 337.225 559.723 337.212C559.023 337.194 558.15 337.751 558.472 338.054Z" fill="#252525"/>
</g>
</g>
</g>
<mask id="mask19_652_16245" style="mask-type:luminance" maskUnits="userSpaceOnUse" x="-103" y="-55" width="1445" height="1243">
<path d="M-101.722 311.207L1065.92 -54.9758C1066.17 -55.0501 1066.43 -54.9139 1066.51 -54.6663L1341.05 820.901C1341.13 821.149 1340.99 821.409 1340.74 821.489L173.102 1187.67C172.855 1187.75 172.595 1187.61 172.514 1187.36L-102.032 311.795C-102.106 311.548 -101.97 311.288 -101.722 311.207Z" fill="white"/>
</mask>
<g mask="url(#mask19_652_16245)">
<g opacity="0.1412">
<mask id="mask20_652_16245" style="mask-type:luminance" maskUnits="userSpaceOnUse" x="553" y="146" width="280" height="278">
<path d="M619.609 423.927L832.231 357.251V357.245L766.129 146.439L553.507 213.122L619.602 423.927H619.609Z" fill="white"/>
</mask>
<g mask="url(#mask20_652_16245)">
<path d="M806.196 348.065C783.739 332.75 758.608 319.341 732.147 299.966C712.574 285.641 694.562 271.67 684.268 262.229C666.627 246.042 649.419 234.806 626.43 231.08C622.375 230.424 618.705 229.934 615.579 229.705C610.949 229.365 608.102 229.452 605.848 229.594C606.214 228.857 606.684 228.145 606.721 227.205C606.963 220.779 600.476 216.953 598.092 216.83C595.697 216.7 595.189 216.953 593.852 217.337C591.773 217.931 589.94 219.176 588.566 220.878C590.138 218.129 589 214.267 588.201 212.831C586.641 210.008 583.72 205.582 579.034 205.538C574.837 205.501 571.779 209.358 571.816 212.212C571.872 217.021 577.332 222.785 575.004 225.471C575.004 225.471 574.924 225.546 574.924 225.552C576.465 234.862 572.863 245.014 565.323 250.777C579.337 245.912 595.214 248.945 608.194 256.126C621.181 263.307 632.898 270.853 642.282 282.348C650.929 292.94 656.389 310.019 657.744 320.134C659.744 335.071 658.438 353.599 637.008 376.744C653.374 366.537 669.14 361.132 696.406 367.998C707.591 370.814 717.551 382.31 725.245 390.79C725.901 388.413 726.656 386.055 727.56 383.721" fill="#523618"/>
</g>
</g>
</g>
<path d="M841.955 418.604L831.791 419.674L836.607 426.54L841.955 418.604Z" fill="black"/>
<path d="M604.463 663.48C605.719 662.552 607.502 663.06 608.895 663.759C611.816 665.232 614.379 667.424 616.286 670.086C612.572 671.441 608.858 672.803 605.144 674.159C605.261 670.599 604.915 667.015 604.463 663.48Z" fill="#BDBDBD"/>
<path d="M481.656 578.574C474.383 584.133 466.633 586.244 460.994 593.456C455.355 600.668 448.874 609.86 448.305 622.037C447.884 630.932 456.048 645.405 461.05 652.772C469.462 665.152 478.511 678.096 492.049 684.491C500.535 688.496 510.061 689.561 519.389 690.57C534.226 692.173 549.07 693.77 563.907 695.374C574.875 696.556 587.008 697.454 595.902 690.923C607.892 682.126 608.14 664.032 603.293 649.974C633.289 663.462 667.395 661.977 700.264 663.029C724.745 663.815 765.338 652.543 788.581 634.727C818.899 611.488 824.544 582.808 819.536 557.502C816.671 543.036 788.767 545.146 774.072 543.97C719.904 539.637 665.737 535.304 611.563 530.971C595.302 529.671 578.527 528.426 563.046 533.558C552.462 537.068 543.066 543.376 533.818 549.616C511.825 564.46 491.498 571.059 481.656 578.574Z" fill="#D08A5A"/>
<path opacity="0.1608" d="M494.047 592.762C477.086 596.761 476.554 592.49 463.481 612.516C453.955 627.106 470.018 663.419 482.676 676.078C474.06 671.107 462.348 656.405 454.419 641.598C453.973 640.768 452.94 638.571 451.634 635.698C450.458 633.117 449.257 629.087 449.003 627.991C448.675 626.537 448.223 624.426 448.291 622.723C448.545 616.304 449.709 612.485 452.407 606.585C456.121 598.451 462.788 588.516 469.467 592.317C483.908 600.537 483.592 589.06 500.168 590.249C495.198 592.1 490.234 593.945 494.047 592.762Z" fill="#141414"/>
<path opacity="0.1608" d="M555.407 582.802C542.359 583.904 543.349 587.5 525.634 602.84C510.067 616.323 529.441 693.293 538.001 692.575C543.331 719.02 516.473 656.51 513.601 643.616C511.917 636.051 509.014 619.628 509.658 612.509C510.166 606.938 521.214 590.899 522.155 594.304C524.464 602.679 532.672 581.818 537.977 578.178C549.725 570.124 548.828 577.336 560.365 581.335C556.385 582.344 552.405 583.341 555.407 582.802Z" fill="#141414"/>
<path opacity="0.1608" d="M599.274 643.969C604.858 649.552 595.579 680.108 588.659 687.029C584.338 691.35 598.748 682.968 596.408 688.613C600.067 687.877 600.735 685.995 602.908 682.596C604.808 679.625 606.256 673.212 606.256 667.133C606.25 660.596 604.461 648.413 599.274 643.969Z" fill="#141414"/>
<path opacity="0.1608" d="M637.083 659.538C645.031 660.819 653.567 661.401 662.041 661.94C671.474 662.54 696.104 662.967 706.868 662.967C718.901 662.967 741.581 657.526 754.505 652.611C780.348 642.787 795.872 631.291 807.324 615.865C818.094 601.355 823.306 583.533 820.267 561.687C810.146 635.829 722.002 664.96 637.083 659.538Z" fill="#141414"/>
<path opacity="0.1608" d="M470.067 664.49C468.829 665.957 468.891 667.993 469.956 669.597C471.02 671.2 474.072 675.23 475.88 676.66C488.358 686.515 514.053 697.187 536.163 696.939C550.591 696.779 563.745 691.641 578.173 691.492C582.618 691.449 587.217 691.888 591.389 690.359C595.561 688.824 599.151 685.203 597.993 680.913C589.854 683.457 583.299 685.153 575.654 686.496C557.307 689.734 541.375 689.604 524.501 687.072C520.051 686.404 515.148 685.605 510.747 684.602C504.074 683.073 498.312 681.439 492.444 678.994C489.095 677.601 486.093 676.196 483.091 674.469C482.224 673.967 481.339 673.422 480.479 672.896C479.204 672.116 476.957 670.55 475.001 668.99C474.01 668.198 473.069 667.362 472.475 666.83C471.491 665.951 470.829 665.27 470.829 665.27C470.631 665.078 470.371 664.793 470.067 664.49Z" fill="#141414"/>
<g opacity="0.1686">
<mask id="mask21_652_16245" style="mask-type:luminance" maskUnits="userSpaceOnUse" x="551" y="368" width="213" height="148">
<path d="M602.345 515.315L760.948 448.744C761.233 448.627 763.232 448.305 763.121 448.039L727.857 368.443C727.746 368.171 727.418 368.053 727.133 368.171L551.198 433.51C550.913 433.628 555.104 449.425 555.215 449.691L601.621 515.049C601.732 515.315 602.054 515.439 602.345 515.315Z" fill="white"/>
</mask>
<g mask="url(#mask21_652_16245)">
<path d="M556.64 431.486C569.255 444.318 567.769 445.618 586.258 460.487C614.063 482.853 650.311 472.156 664.665 467.588C700.102 456.321 710.019 427.394 722.262 392.536C722.485 391.905 730.402 384.996 730.297 385.652C724.509 420.405 709.127 458.197 680.035 479.684C671.815 485.75 662.722 491.086 652.713 493.203C631.296 497.735 607.65 500.341 592.516 486.072C581.343 475.536 565.064 452.167 559.988 439.236" fill="black"/>
</g>
</g>
<path d="M446.076 660.386C446.497 670.29 429.728 679.371 425.835 688.484C421.941 697.596 424.956 712.954 432.774 719.045C429.474 714.062 419.979 713.356 417.695 718.878C415.411 724.4 418.419 733.685 423.124 737.369C427.828 741.052 434.525 742.519 440.344 743.893C559.122 771.886 622.809 762.297 622.809 762.297C622.809 762.297 618.978 760.483 620.407 756.689C621.837 752.888 626.436 750.975 629.439 748.245C636.489 741.838 634.459 732.59 631.692 728.325C628.925 724.059 625.161 723.614 621.076 722.815C625.427 724.617 637.294 707.383 631.58 699.416C626.925 692.928 616.7 687.091 615.431 671.869C592.986 679.984 566.884 685.698 539.097 683.172C511.311 680.647 479.569 674.103 462.887 652.914C456.859 645.25 454.828 640.682 450.539 634.176C450.254 636.33 445.073 636.85 446.076 660.386Z" fill="#FFF5F8"/>
<path opacity="0.1608" d="M631.511 699.23C632.328 707.952 629.902 713.375 623.891 719.38C617.844 725.427 605.693 726.975 597.157 727.551C605.315 727.551 617.961 725.384 623.409 722.456C627.184 720.426 629.988 715.319 631.691 711.382C633.393 707.445 633.814 702.529 631.511 699.23Z" fill="#141414"/>
<path opacity="0.1608" d="M442.682 669.027C445.393 676.629 447.547 680.993 454.275 685.134C457.674 687.227 459.667 687.338 463.535 689.195C470.047 692.315 477.933 695.615 486.308 697.428C481.375 696.215 470.957 690.18 466.358 686.985C462.118 684.039 454.993 682.268 451.273 677.799C447.355 673.1 445.95 670.946 444.891 665.486C444.514 666.601 444.675 665.994 444.031 667.059C443.363 668.154 443.356 667.907 442.682 669.027Z" fill="#141414"/>
<path opacity="0.1608" d="M631.463 727.978C634.019 734.75 632.67 743.268 626.567 747.149C612.262 756.249 573.915 753.556 565.943 753.556C571.353 754.181 608.115 758.898 620.637 753.952C624.926 752.256 630.912 748.028 633.146 743.063C635.381 738.099 634.335 732.88 631.463 727.978Z" fill="#141414"/>
<path opacity="0.1608" d="M426.818 686.484C424.837 694.705 426.379 703.631 430.594 710.96C434.809 718.29 439.52 720.463 451.708 725.254C431.417 719.447 418.635 714.087 420.659 726.771C421.668 733.091 427.877 737.536 433.85 739.851C446.143 744.617 459.358 747.818 472.202 750.802C462.484 748.932 455.31 747.378 445.642 745.131C437.601 743.262 427.796 741.615 422.621 736.96C421.526 735.976 420.733 734.769 419.805 733.438C417.372 729.959 415.955 722.289 417.861 718.519C419.774 714.73 425.524 713.907 430.241 716.643C429.022 714.984 427.53 712.935 426.651 710.49C423.878 702.789 422.597 693.949 426.818 686.484Z" fill="#141414"/>
<path opacity="0.1608" d="M446.094 649.292C462.441 677.285 499.023 689.01 512.654 691.727C549.52 699.088 574.565 696.667 610.156 680.888C582.673 691.325 552.368 694.21 523.412 689.152C494.461 684.101 468.049 669.473 446.094 649.292Z" fill="#141414"/>
<path d="M450.272 632.188C445.444 633.68 442.596 639.097 443.779 644.006C444.961 648.915 448.564 652.846 452.209 656.343C489.082 691.777 535.234 698.815 585.341 688.607C587.05 688.261 606.665 683.141 615.139 678.077C620.933 674.617 615.034 664.942 610.187 667.523C597.56 674.252 571.321 681.798 548.412 680.715C529.069 679.798 503.771 674.716 486.34 666.285C468.91 657.854 459.173 647.739 450.272 632.188Z" fill="white"/>
<path d="M783.102 337.033C789.001 325.253 815.964 317.237 836.879 324.461C855.727 330.967 875.919 366.462 873.536 429.523C871.716 477.672 862.202 542.045 859.961 553.039C851.444 594.774 836.879 632.808 836.879 632.808L854.341 639.555C854.341 639.555 833.097 629.199 826.437 625.738C821.739 623.299 808.889 615.951 808.889 615.951C808.889 615.951 808.647 616.447 806.957 618.465C822.314 629.267 854.254 640.137 854.254 640.137C854.254 640.137 854.545 639.889 855.269 637.97C856.47 634.77 858.859 627.589 863.106 614.026C868.299 597.43 877.361 565.116 881.285 539.321C886.584 504.5 888.484 481.293 889.147 468.956C890.063 451.858 891.387 439.261 890.904 420.584C890.527 405.783 889.041 394.665 886.237 381.616C882.783 365.534 879.763 354.787 871.846 340.37C868.522 334.316 863.651 328.769 858.531 324.665C853.412 320.561 848.046 317.911 842.382 315.776C836.805 313.671 831.835 313.417 827.087 313.578C821.132 313.782 813.748 315.256 806.345 318.308C798.923 321.366 791.52 325.823 785.608 332.471C784.284 333.957 783.782 335.43 783.102 337.033Z" fill="#D5D5D5"/>
<path d="M515.458 487.056C521.629 516.869 550.592 567.221 550.592 567.221L640.048 582.721C640.048 582.721 658.153 563.451 730.655 573.572C733.1 573.913 788.71 580.932 806.512 581.551C815.735 581.873 820.867 580.282 820.867 580.282C820.867 580.282 821.059 577.72 821.127 576.036C821.195 574.278 821.127 565.277 821.127 565.277C821.127 565.277 764.347 505.082 771.36 499.746C771.663 499.517 774.56 506.432 758.306 457.423C779.84 439.26 812.312 422.819 841.98 418.677C841.98 418.677 829.817 380.242 820.947 360.792C808.691 333.907 781.666 327.277 765.566 331.839C748.092 336.786 734.889 357.845 729.584 370.362C714.357 406.322 716.586 411.967 708.211 429.579C700.003 446.825 681.192 478.012 633.864 479.646C619.844 480.129 599.275 477.529 576.905 455.157C559.765 438.016 554.429 425.604 552.715 421.63C552.449 421.011 552.015 420.299 552.015 420.299C552.015 420.299 541.777 421.135 534.461 432.216C530.852 437.676 525.269 464.325 525.269 464.325" fill="#232D40"/>
<g opacity="0.1412">
<mask id="mask22_652_16245" style="mask-type:luminance" maskUnits="userSpaceOnUse" x="702" y="393" width="186" height="379">
<path d="M813.742 771.131L886.808 748.289C887.024 748.22 887.148 747.998 887.08 747.793L776.461 393.91C776.399 393.706 776.17 393.588 775.953 393.657L702.888 416.499C702.671 416.567 702.547 416.79 702.615 416.994L813.235 770.877C813.303 771.088 813.526 771.199 813.742 771.131Z" fill="white"/>
</mask>
<g mask="url(#mask22_652_16245)">
<path d="M739.989 411.899C739.989 411.899 751.929 465.892 762.372 535.787C765.077 553.918 774.492 534.579 774.492 557.428C774.492 564.485 789.323 572.594 780.149 531.658C775.686 511.743 770.388 489.037 766.216 463.502V463.812C765.572 455.838 767.478 472.701 758.831 457.627C758.831 457.627 754.238 451.245 747.516 433.132L739.989 411.899Z" fill="black"/>
</g>
</g>
<g opacity="0.2784">
<mask id="mask23_652_16245" style="mask-type:luminance" maskUnits="userSpaceOnUse" x="554" y="466" width="13" height="34">
<path d="M560.645 499.183L566.061 498.242C566.284 498.205 566.432 497.995 566.395 497.772L560.973 466.554C560.935 466.331 560.725 466.182 560.502 466.22L555.086 467.16C554.863 467.198 554.715 467.408 554.752 467.631L560.174 498.849C560.211 499.072 560.422 499.22 560.645 499.183Z" fill="white"/>
</mask>
<g mask="url(#mask23_652_16245)">
<path d="M560.897 466.145C559.585 476.068 559.418 477.876 559.901 486.697C559.963 487.83 560.532 496.496 560.643 499.177C560.693 500.359 562.606 505.404 562.538 506.933C562.5 507.769 564.927 508.437 564.884 509.651C564.283 502.674 562.018 490.157 561.621 482.692C561.269 476.019 560.718 471.066 560.897 466.145Z" fill="black"/>
</g>
</g>
<path d="M574.77 549.653C598.279 549.653 606.908 550.445 629.891 549.69C623.144 557.948 610.065 567.741 607.174 578.005C594.868 579.503 582.842 583.235 571.854 588.968C573.21 575.999 575.321 563.111 574.77 549.653Z" fill="#8F8F8F"/>
<path d="M423.026 590.385C401.293 544.298 383.832 492.343 369.7 443.68C369.162 441.829 370.431 439.78 372.461 439.657C427.576 436.19 492.495 435.955 536.901 439.471C544.434 440.065 586.556 564.064 593.749 602.846C533.187 602.846 481.353 598.538 428.43 594.019C426.065 593.815 423.985 592.428 423.026 590.385Z" fill="#B3BCC9"/>
<path opacity="0.1686" d="M428.427 594.019C479.859 598.408 530.269 602.599 588.658 602.834C548.034 589.921 511.984 567.933 460.862 535.557C412.024 504.624 379.366 455.59 369.703 441.897C369.536 442.467 369.518 443.086 369.691 443.68C383.823 492.336 401.284 544.292 423.017 590.385C423.983 592.428 426.062 593.814 428.427 594.019Z" fill="#141414"/>
<path d="M628.652 538.609C609.272 553.46 600.618 559.613 586.809 580.518C580.334 590.323 571.854 608.009 571.854 608.009C571.854 608.009 570.176 615.258 570.121 618.384C570.059 621.801 571.476 634.083 571.476 634.083C571.47 634.522 571.934 634.807 572.318 634.603C574.255 633.575 580.718 631.025 587.514 627.354C603.688 618.613 628.237 604.233 644.907 594.019C646.405 593.103 647.952 592.137 648.905 590.658C650.719 587.835 649.772 583.96 647.754 581.273C645.742 578.593 642.852 576.723 640.314 574.526C631.27 566.695 626.801 551.355 628.652 538.609Z" fill="#F2DFA7"/>
<path opacity="0.1608" d="M629.58 538.609C628.026 539.111 624.108 541.878 617.627 547.096C612.632 551.126 605.526 556.858 600.425 562.609C594.737 569.022 588.479 577.342 585.068 583.192C598.605 569.06 622.263 552.68 628.967 552.655C629.84 556.277 630.471 555.169 631.344 558.79C623.105 564.169 613.331 567.141 593.734 583.941C589.191 587.835 582.171 595.944 577.832 600.909C573.493 605.874 571.84 608.009 571.84 608.009C571.84 608.009 570.794 611.742 570.615 613.822C579.757 605.985 595.35 590.788 606.114 583.384C624.058 571.047 636.413 568.044 640.158 568.843C636.296 571.071 625.067 578.376 613.758 586.188C609.685 589.005 603.52 592.471 598.643 597.789C588.293 609.086 576.508 619.548 571.525 634.485C571.457 634.683 571.698 634.832 571.834 634.671C582.177 622.68 594.935 610.362 608.392 599.999C624.609 587.519 641.848 577.608 657.131 570.873C641.514 589.184 616.606 605.341 598.94 621.021C609.06 615.369 636.271 599.516 645.531 593.617C646.249 593.159 654.525 584.529 655.156 584.046C655.67 583.65 657.211 573.603 657.725 573.189C658.195 572.805 646.992 584.535 647.561 584.003C647.815 583.762 647.994 584.077 647.994 584.077C647.994 584.077 649.239 574.42 649.851 573.863C637.131 564.448 634.154 553.751 629.58 538.609Z" fill="black"/>
<path d="M625.18 541.24C625.18 541.24 640.519 523.604 678.716 523.604C679.453 523.604 682.245 524.006 685.884 523.294C692.687 521.964 718.938 509.088 767.151 496.806C766.501 482.692 761.5 468.807 757.377 455.281C778.739 436.902 807.806 423.531 835.729 419.718C846.617 455.405 852.739 501.071 843.745 540.176C841.95 547.975 836.515 563.532 834.194 564.875C829.106 567.828 818.558 569.716 811.279 570.23C787.974 571.882 782.589 571.313 759.241 572.241C745.313 572.792 706.119 586.591 686.392 581.211C667.537 593.06 656.581 594.929 644.74 594.929C644.319 594.929 643.224 595.164 643.125 595.14C639.64 594.36 629.222 586.108 620.501 571.715C614.769 562.269 625.18 541.24 625.18 541.24Z" fill="#D08A5A"/>
<path opacity="0.1608" d="M621.627 573.529C624.419 578.853 636.947 588.07 645.929 588.968C657.021 590.076 670.298 590.299 682.338 583.669C680.221 584.913 670.744 590.992 659.615 593.388C657.133 593.92 651.834 594.7 647.903 594.874C647.105 594.911 646.3 594.886 645.514 594.923C645.031 594.942 644.802 594.886 644.573 594.935C644.381 594.979 644.072 595.004 643.899 595.028C643.366 595.109 643.075 595.134 643.075 595.134C643.075 595.134 642.128 594.954 640.494 593.939C637.573 592.113 633.976 589.011 631.674 586.449C627.254 581.502 624.865 578.711 621.627 573.529Z" fill="#141414"/>
<path opacity="0.1608" d="M773.94 496.082C770.505 495.562 761.399 498.193 751.904 500.898C741.097 503.981 734.244 505.937 722.614 510.035C719.525 511.124 712.047 513.749 706.167 515.94C699.538 518.417 695.421 520.038 691.008 521.685C684.862 523.975 685.19 522.929 674.141 529.819C677.223 528.259 716.826 513.99 720.292 512.734C753.606 500.7 737.284 504.829 773.94 496.082Z" fill="#141414"/>
<path d="M500.769 269.429C493.731 276.826 484.657 289.108 482.23 302.993C480.998 310.025 479.191 315.794 479.191 327.884C479.191 333.957 473.707 336.229 472.704 338.897C471.472 342.184 472.673 358.21 477.495 367.292C480.658 373.247 488.104 373.754 489.77 377.574C492.388 383.578 499.438 393.854 504.074 398.485C511.781 406.192 514.653 405.232 523.647 405.851C545.423 407.349 554.893 388.023 540.099 386.191C531.05 385.064 531.799 397.364 516.943 398.107C512.771 398.311 500.911 388.37 494.542 374.541C484.725 353.233 479.921 341.243 484.341 319.57C487.869 302.25 515.321 271.781 536.509 260.372C569.619 242.544 592.305 237.227 626.943 243.863C635.188 245.441 659.422 253.965 653.065 262.557C645.569 272.685 647.779 282.1 649.957 286.867C654.111 295.967 660.821 308.997 674.277 308.997C684.033 308.997 698.034 304.02 700.089 286.576C701.952 270.76 690.445 258.453 679.848 253.204C676.661 251.625 671.876 251.489 666.986 248.103C653.777 238.96 643.941 235.444 627.686 229.978C602.141 221.392 576.347 223.391 551.644 234.224C526.94 245.057 511.057 258.608 500.769 269.429Z" fill="#252525"/>
<path opacity="0.6" d="M679.835 253.192C676.648 251.613 671.863 251.477 666.973 248.091C653.764 238.948 643.928 235.432 627.673 229.965C602.128 221.379 576.335 223.379 551.631 234.212C526.927 245.045 511.062 258.608 500.775 269.429C494.418 276.114 486.383 286.799 483.109 299.043C482.966 299.613 482.818 300.182 482.688 300.752C482.688 300.764 482.682 300.777 482.682 300.789C497.655 269.348 526.469 252.932 538.898 246.296C557.598 236.317 589.519 225.496 626.373 235.982C646.447 241.696 667.932 252.399 676.932 267.38C685.134 281.03 684.045 297.353 670.718 308.657C670.718 308.657 670.718 308.657 670.724 308.657C673.751 308.477 676.821 308.508 679.835 308.453C688.662 306.788 698.399 300.876 700.083 286.558C701.933 270.747 690.426 258.441 679.835 253.192Z" fill="#141414"/>
<path opacity="0.1608" d="M734.176 361.138C745.219 355.109 773.061 358 785.75 371.823C802.5 390.066 808.814 404.539 814.694 431.033C824.765 476.433 831.388 486.907 825.65 536.993C823.701 553.998 812.93 559.637 764.259 564.497C745.987 566.323 719.005 578.71 710.259 580.375C707.907 580.821 705.579 581.124 703.332 581.304C696.585 581.848 690.488 581.31 686.143 580.338C682.151 579.446 679.761 578.128 678.61 577.589C679.693 578.444 683.147 580.765 688.52 581.694C692.735 582.424 698.541 582.684 704.787 582.09C718.751 580.771 734.337 576.921 735.167 576.754C743.74 575.008 745.974 573.968 751.465 573.256C758.057 572.402 771.087 571.956 775.463 571.721C784.494 571.244 787.032 571.362 789.916 571.362C794.144 571.362 798.483 570.99 801.423 570.848C808.523 570.501 811.927 570.099 818.303 569.418C822.908 568.929 829.569 566.868 831.128 566.286C831.215 566.255 832.311 565.815 833.109 565.432C833.883 565.06 834.353 564.744 834.421 564.689C835.393 563.94 836.34 561.798 837.591 558.919C839.107 555.409 840.648 550.952 841.558 547.969C847.166 529.608 849.741 505.806 847.55 480.63C846.052 463.452 844.728 449.957 836.056 419.643C838.327 419.154 838.166 419.173 841.985 418.659C841.168 415.799 839.59 411.688 837.424 404.73C835.127 397.364 831.716 388.437 829.457 381.981C825.019 369.291 819.275 355.282 813.172 348.312C806.171 340.32 798.78 334.978 787.898 332.13C781.257 330.391 768.165 327.791 756.751 335.807C746.315 343.143 740.317 350.119 734.176 361.138Z" fill="#141414"/>
<path opacity="0.6" d="M477.217 333.579C476.927 342.79 478.183 362.525 486.391 374.441C482.231 372.139 478.505 371.21 475.812 363.485C475.156 361.609 474.395 359.733 473.918 356.972C473.417 354.081 471.603 346.313 472.55 339.454C472.792 337.696 475.664 335.702 477.217 333.579Z" fill="#141414"/>
<path opacity="0.6" d="M504.068 398.491C509.992 402.601 522.904 403.97 531.31 401.481C540.96 398.621 541.653 395.031 545.937 388.822C548.53 392.301 546.822 396.399 543.232 399.989C540.96 402.261 537.147 404.056 533.377 405.065C531.366 405.598 530.072 405.777 527.621 405.901C526.259 405.969 525.541 406.006 524 405.882C520.292 405.573 513.483 405.746 510.345 403.567C508.277 402.125 506.408 401.128 504.068 398.491Z" fill="#141414"/>
<path d="M499.586 727.495C498.46 725.694 497.959 724.858 497.271 722.821C496.578 720.791 496.764 718.284 498.274 716.718C499.766 715.176 502.39 714.978 504.018 716.278C505.646 717.578 506.049 720.203 504.904 722.017C503.87 719.714 506.408 716.792 508.896 717.12C511.384 717.448 513 720.289 512.554 722.815C512.109 725.341 509.732 726.851 507.658 728.324C502.719 731.847 501.598 730.702 499.586 727.495Z" fill="#FF0069"/>
<path d="M514.387 690.545C513.44 689.709 512.475 688.539 511.88 687.425C511.286 686.31 511.119 684.88 511.8 683.816C512.481 682.751 514.146 682.349 515.056 683.221C514.703 687.709 518.887 687.499 518.404 691.975C518.045 695.28 515.953 698.425 513.601 700.777C507.312 707.067 502.602 716.092 501.915 733.165C501.884 733.982 500.181 733.326 499.822 733.289C498.009 733.103 501.494 714.538 503.091 711.084C505.325 706.256 505.74 705.29 509.175 701.229C510.834 699.267 512.951 697.54 514.127 695.262C515.303 692.977 515.409 691.448 514.387 690.545Z" fill="#D9D9D9"/>
<path d="M558.292 693.38C561.399 692.222 563.318 688.527 562.47 685.32C562.792 684.652 563.782 684.503 564.401 684.918C565.02 685.333 565.293 686.131 565.256 686.88C565.225 687.623 564.94 688.335 564.661 689.022C564.191 690.186 563.696 691.38 562.798 692.253C561.907 693.12 560.483 693.584 558.292 693.38Z" fill="#E1E1E1"/>
<path d="M559.696 694.909C560.94 696.005 561.374 697.918 560.736 699.44C561.491 700.053 562.735 699.731 563.274 698.914C563.806 698.097 563.701 696.983 563.224 696.141C562.742 695.299 561.937 694.68 561.101 694.191C560.804 694.197 560.513 694.203 559.696 694.909Z" fill="#D9D9D9" stroke="#D9D9D9" stroke-miterlimit="10"/>
<path d="M579.969 690.514C580.817 689.053 581.659 687.592 582.507 686.131C582.687 685.828 582.897 685.493 583.244 685.419C583.652 685.332 584.048 685.698 584.154 686.1C584.253 686.509 584.141 686.93 583.999 687.326C583.609 688.465 583.046 689.536 579.969 690.514Z" fill="#D9D9D9"/>
<path d="M525.311 693.132C524.946 692.037 524.135 691.257 523.64 690.235C523.145 689.214 523.139 687.61 524.03 687.134C524.816 686.719 525.708 687.524 526.073 688.471C526.432 689.412 526.475 690.495 526.803 691.461C527.131 692.427 527.948 693.299 525.311 693.132Z" fill="#D9D9D9"/>
<path d="M450.272 632.188C448.706 635.89 449.096 638.094 451.281 641.468C453.955 645.597 464.62 654.796 470.835 656.851C461.117 648.067 454.989 640.193 450.272 632.188Z" fill="#BDBDBD"/>
<path d="M457.719 739.808C456.333 739.219 454.841 738.811 453.696 737.839C452.551 736.867 451.771 735.313 452.142 733.859C452.507 732.429 454.049 731.401 455.51 731.618C456.97 731.834 458.153 733.258 458.091 734.731C456.636 733.716 457.156 731.098 458.803 730.435C460.449 729.773 462.448 730.906 463.074 732.565C463.699 734.224 462.937 736.019 462.028 737.536C460.424 740.21 460.61 741.033 457.719 739.808Z" fill="#FF0069"/>
<path d="M543.585 722.32C541.92 720.085 540.719 719.354 539.531 716.804C538.342 714.254 538.219 710.954 539.977 708.695C541.697 706.472 545.096 705.841 547.404 707.308C549.713 708.775 550.617 712.143 549.373 714.675C547.695 711.815 550.592 707.642 553.885 707.723C557.178 707.803 559.691 711.276 559.469 714.637C559.246 717.999 556.367 720.314 553.86 722.524C549.373 726.473 546.414 726.114 543.585 722.32Z" fill="#FF0069"/>
<path d="M449.498 709.611C447.635 708.163 445.45 707.067 444.045 705.148C442.633 703.229 441.99 700.517 443.067 698.357C444.125 696.228 446.836 695.138 448.99 695.974C451.145 696.803 452.451 699.447 451.844 701.749C449.981 699.657 451.689 695.72 454.431 695.237C457.174 694.754 459.835 697.218 460.207 700.041C460.578 702.864 458.87 705.513 456.87 707.506C454.017 710.36 453.453 712.688 449.498 709.611Z" fill="#FF0069"/>
<path d="M607.21 706.516C605.91 704.547 604.096 702.604 603.217 700.394C602.339 698.184 602.4 695.398 603.985 693.578C605.545 691.789 608.442 691.418 610.317 692.767C612.193 694.117 612.787 697.001 611.623 699.075C610.348 696.58 612.997 693.2 615.771 693.429C618.544 693.658 620.5 696.71 620.141 699.533C619.788 702.356 616.662 705.333 614.099 706.516C611.537 707.698 609.327 709.722 607.21 706.516Z" fill="#FF0069"/>
<path d="M596.341 744.351C595.555 742.971 594.571 742.203 594.051 740.686C593.537 739.17 593.667 737.294 594.8 736.124C595.914 734.973 597.87 734.824 599.09 735.796C600.303 736.768 600.606 738.73 599.752 740.086C598.978 738.365 600.878 736.18 602.735 736.427C604.592 736.675 605.806 738.798 605.471 740.686C605.137 742.574 603.422 743.794 601.813 744.803C598.718 746.747 597.938 747.149 596.341 744.351Z" fill="#FF0069"/>
<path d="M539.475 761.009C539.475 761.009 537.717 759.189 537.203 757.673C536.69 756.156 536.82 754.28 537.952 753.11C539.067 751.959 541.023 751.81 542.242 752.782C543.455 753.754 543.758 755.717 542.904 757.072C542.131 755.351 544.031 753.166 545.888 753.414C547.745 753.661 548.958 755.785 548.624 757.673C548.289 759.561 544.514 761.504 544.514 761.504L539.475 761.009Z" fill="#FF0069"/>
</g>
<mask id="mask24_652_16245" style="mask-type:luminance" maskUnits="userSpaceOnUse" x="448" y="481" width="62" height="68">
<path fill-rule="evenodd" clip-rule="evenodd" d="M507.954 522.704C508.729 522.649 509.306 524.093 509.216 525.854C509.132 527.484 508.507 528.801 507.791 528.866L507.409 528.9L506.749 528.959C499.225 529.659 474.643 533.023 451.569 548.137C451.551 548.391 448.16 549.538 448.24 547.957C448.24 547.957 475.136 525.071 507.954 522.704ZM482.348 481.914C483.666 481.56 485.069 481.71 486.282 482.334C487.987 483.395 489.313 484.966 490.07 486.824C490.918 489.179 489.571 491.962 488.751 493.512C487.422 495.796 485.89 499.366 485.146 501.026C484.669 502.125 484.022 502.768 482.722 501.817C482.212 501.5 481.784 501.069 481.472 500.557C481.16 500.045 480.972 499.467 480.924 498.869C480.804 497.528 481.411 495.033 483.239 491.892C484.604 489.288 486.054 486.234 485.124 485.824C482.66 484.702 469.746 496.722 470.054 503.791C470.224 507.849 479.115 509.392 481.707 510.55C482.276 510.76 482.778 511.12 483.158 511.592C483.538 512.064 483.783 512.63 483.867 513.23C483.992 514.63 483.317 516.394 481.856 518.646C479.844 521.265 476.93 523.046 473.679 523.645C470.795 524.141 467.836 523.992 465.016 523.208C462.197 522.425 459.587 521.026 457.375 519.113C456.406 518.271 456.784 517.504 457.634 517.005C458.252 516.731 458.897 516.523 459.559 516.386C461.23 515.935 463.007 516.086 464.578 516.812C467.198 518.211 471.603 520.327 475.232 519.512C476.471 519.313 477.609 518.709 478.468 517.794C478.647 517.623 478.784 517.412 478.869 517.179C478.953 516.946 478.982 516.696 478.953 516.45C478.925 516.203 478.84 515.967 478.704 515.759C478.569 515.551 478.387 515.377 478.173 515.251C473.363 512.856 464.361 511.522 463.806 505.316C463.065 497.042 472.186 487.611 477.618 484.031C479.036 483.016 480.645 482.296 482.348 481.914Z" fill="white"/>
</mask>
<g mask="url(#mask24_652_16245)">
<mask id="mask25_652_16245" style="mask-type:luminance" maskUnits="userSpaceOnUse" x="441" y="478" width="72" height="73">
<path d="M506.353 478.389L441.214 484.216L447.148 550.546L512.288 544.718L506.353 478.389Z" fill="white"/>
</mask>
<g mask="url(#mask25_652_16245)">
<mask id="mask26_652_16245" style="mask-type:luminance" maskUnits="userSpaceOnUse" x="442" y="479" width="69" height="71">
<path d="M448.334 549.129L510.868 543.534L505.167 479.806L442.633 485.4L448.334 549.129Z" fill="white"/>
</mask>
<g mask="url(#mask26_652_16245)">
<path d="M441.214 484.216L506.353 478.389L512.288 544.718L447.148 550.546L441.214 484.216Z" fill="#0057FF"/>
</g>
</g>
</g>
<defs>
<filter id="filter0_b_652_16245" x="168.564" y="5.96875" width="866.447" height="817.271" filterUnits="userSpaceOnUse" color-interpolation-filters="sRGB">
<feFlood flood-opacity="0" result="BackgroundImageFix"/>
<feGaussianBlur in="BackgroundImageFix" stdDeviation="25"/>
<feComposite in2="SourceAlpha" operator="in" result="effect1_backgroundBlur_652_16245"/>
<feBlend mode="normal" in="SourceGraphic" in2="effect1_backgroundBlur_652_16245" result="shape"/>
</filter>
<filter id="filter1_b_652_16245" x="80" y="-61.1709" width="1015.07" height="947.775" filterUnits="userSpaceOnUse" color-interpolation-filters="sRGB">
<feFlood flood-opacity="0" result="BackgroundImageFix"/>
<feGaussianBlur in="BackgroundImageFix" stdDeviation="50"/>
<feComposite in2="SourceAlpha" operator="in" result="effect1_backgroundBlur_652_16245"/>
<feBlend mode="normal" in="SourceGraphic" in2="effect1_backgroundBlur_652_16245" result="shape"/>
</filter>
<filter id="filter2_b_652_16245" x="173.426" y="22.6177" width="829.096" height="782.317" filterUnits="userSpaceOnUse" color-interpolation-filters="sRGB">
<feFlood flood-opacity="0" result="BackgroundImageFix"/>
<feGaussianBlur in="BackgroundImageFix" stdDeviation="25"/>
<feComposite in2="SourceAlpha" operator="in" result="effect1_backgroundBlur_652_16245"/>
<feBlend mode="normal" in="SourceGraphic" in2="effect1_backgroundBlur_652_16245" result="shape"/>
</filter>
<linearGradient id="paint0_linear_652_16245" x1="1232.4" y1="111.066" x2="1232.4" y2="722.93" gradientUnits="userSpaceOnUse">
<stop stop-color="#FFF2F7"/>
<stop offset="1" stop-color="#FFF2F7"/>
</linearGradient>
<linearGradient id="paint1_linear_652_16245" x1="432.396" y1="114.442" x2="432.396" y2="726.306" gradientUnits="userSpaceOnUse">
<stop stop-color="#FFF2F7"/>
<stop offset="1" stop-color="#FFF2F7"/>
</linearGradient>
<linearGradient id="paint2_linear_652_16245" x1="1194.5" y1="852.501" x2="-29.2587" y2="-400.53" gradientUnits="userSpaceOnUse">
<stop offset="0.0541064" stop-color="#FFF5FD"/>
<stop offset="0.334245" stop-color="#F0F1FE" stop-opacity="0.65"/>
<stop offset="0.733105" stop-color="#D6E4FF" stop-opacity="0.33"/>
</linearGradient>
<linearGradient id="paint3_linear_652_16245" x1="1019.05" y1="489.434" x2="289.486" y2="218.522" gradientUnits="userSpaceOnUse">
<stop stop-color="white"/>
<stop offset="1" stop-color="white" stop-opacity="0.353"/>
</linearGradient>
<linearGradient id="paint4_linear_652_16245" x1="1217.85" y1="869.235" x2="-57.0972" y2="-462.406" gradientUnits="userSpaceOnUse">
<stop offset="0.0541064" stop-color="white"/>
<stop offset="0.63085" stop-color="#F9F9FF" stop-opacity="0.65"/>
<stop offset="0.792052" stop-color="#E4EEFF" stop-opacity="0.33"/>
</linearGradient>
<linearGradient id="paint5_linear_652_16245" x1="1151.8" y1="830.332" x2="-12.3199" y2="-361.635" gradientUnits="userSpaceOnUse">
<stop offset="0.0541064" stop-color="#FFF5FD"/>
<stop offset="0.334245" stop-color="#F0F1FE" stop-opacity="0.65"/>
<stop offset="0.733105" stop-color="#D6E4FF" stop-opacity="0.33"/>
</linearGradient>
<linearGradient id="paint6_linear_652_16245" x1="984.904" y1="484.959" x2="290.892" y2="227.25" gradientUnits="userSpaceOnUse">
<stop stop-color="white"/>
<stop offset="1" stop-color="white" stop-opacity="0.353"/>
</linearGradient>
</defs>
</svg>
