<svg width="104" height="104" viewBox="0 0 104 104" fill="none" xmlns="http://www.w3.org/2000/svg">
<ellipse cx="52" cy="53" rx="52" ry="51" fill="url(#paint0_linear_115_8601)"/>
<mask id="mask0_115_8601" style="mask-type:luminance" maskUnits="userSpaceOnUse" x="-1" y="0" width="106" height="104">
<path d="M52 104C80.9949 104 104.5 80.7188 104.5 52C104.5 23.2812 80.9949 0 52 0C23.0051 0 -0.5 23.2812 -0.5 52C-0.5 80.7188 23.0051 104 52 104Z" fill="white"/>
</mask>
<g mask="url(#mask0_115_8601)">
<path d="M77.1272 31.5541C79.1902 40.0001 75.8842 54.1421 78.6112 59.4491C87.1752 76.1341 90.0712 78.3111 86.6112 82.2401C76.2402 94.0001 61.4882 96.3131 47.5692 95.5001C30.0802 94.4791 27.4872 92.8901 23.4492 84.9001C20.4332 78.9271 23.0942 71.5001 28.2072 58.7941C30.6072 52.8441 27.8372 39.6821 28.3962 34.6851C29.6962 23.0431 38.6842 16.4471 45.2722 15.5851C45.093 15.794 44.8729 15.964 44.6254 16.0844C44.3779 16.2049 44.1084 16.2734 43.8334 16.2856C43.5584 16.2977 43.2838 16.2534 43.0267 16.1553C42.7695 16.0572 42.5352 15.9073 42.3382 15.7151C41.0302 14.4681 41.8222 13.4511 42.9212 13.0891C43.4456 12.9089 44.013 12.8955 44.5453 13.0508C45.0776 13.206 45.5489 13.5223 45.8942 13.9561L45.2362 13.3511C45.0163 13.1123 44.8524 12.8274 44.7565 12.5172C44.6607 12.207 44.6353 11.8793 44.6822 11.5581C44.7027 11.0491 44.8562 10.5545 45.1272 10.1232C45.3983 9.69198 45.7775 9.33924 46.2272 9.10008C46.6451 8.96436 47.0985 8.98828 47.4998 9.16724C47.9011 9.34619 48.2219 9.66748 48.4002 10.0691C48.8002 11.2901 47.7242 13.4691 49.1002 13.4361C61.5342 13.0461 73.1712 15.3511 77.1292 31.5591L77.1272 31.5541Z" fill="#D08A5A"/>
<path opacity="0.05" d="M31.4972 40.5911C31.2592 30.4031 45.1642 29.1111 52.2352 28.9441C59.3062 28.7771 74.1352 29.4011 74.3692 39.5891C74.6032 49.7771 65.2022 58.2611 53.3632 58.5371C41.5242 58.8131 31.7352 50.7791 31.4972 40.5911Z" fill="black"/>
<mask id="mask1_115_8601" style="mask-type:luminance" maskUnits="userSpaceOnUse" x="30" y="22" width="23" height="35">
<path d="M52.7513 22.9391H30.9653V56.7331H52.7513V22.9391Z" fill="white"/>
</mask>
<g mask="url(#mask1_115_8601)">
<path d="M38.7043 52.3431C42.1693 54.5951 46.5413 56.8571 54.3353 56.7291V24.1561C52.6422 24.4673 50.8964 24.3157 49.2823 23.7171C40.2943 21.3171 36.1293 24.8911 33.9483 28.6941C32.2483 31.6511 30.5593 36.6401 31.0483 39.7251C31.1677 41.0612 31.4097 42.3834 31.7713 43.6751C33.1413 47.2056 35.5611 50.2309 38.7043 52.3431Z" fill="#F2D2B6"/>
</g>
<mask id="mask2_115_8601" style="mask-type:luminance" maskUnits="userSpaceOnUse" x="52" y="22" width="23" height="35">
<path d="M74.5353 22.9391H52.7493V56.7331H74.5353V22.9391Z" fill="white"/>
</mask>
<g mask="url(#mask2_115_8601)">
<path d="M56.2183 23.7161C54.604 24.3137 52.8585 24.4653 51.1653 24.1551V56.7291C58.9593 56.8571 63.3313 54.5951 66.7963 52.3431C69.9386 50.2309 72.3576 47.2059 73.7273 43.6761C74.0891 42.3845 74.3311 41.0622 74.4503 39.7261C74.9413 36.6431 73.2503 31.6521 71.5503 28.6951C69.3693 24.8951 65.2043 21.3171 56.2163 23.7181L56.2183 23.7161Z" fill="#F2D2B6"/>
</g>
<path d="M53.4253 35.6721C57.5623 35.7271 59.3393 40.9641 59.7003 42.7471C60.0613 44.5301 60.9813 47.8471 60.0273 49.5951C59.7813 50.0461 59.4643 50.9521 56.2903 51.1281C54.4223 51.2281 53.1003 50.8281 50.9433 51.1341C48.2343 51.5121 46.3193 50.7341 45.9193 48.9651C45.3913 46.6381 46.0353 44.5281 46.5323 42.4951C47.8943 36.9351 51.0133 35.6401 53.4253 35.6721Z" fill="#D9A171"/>
<path d="M61.5553 28.9421C61.0449 29.1826 60.5871 29.5218 60.2083 29.9401C59.8295 30.3583 59.5373 30.8474 59.3483 31.3791C58.9397 32.797 58.8695 34.2911 59.1433 35.7411C59.3596 36.9141 59.9572 37.9827 60.8433 38.7811C62.0244 39.6503 63.4829 40.0569 64.9433 39.9241C66.4271 39.6083 67.9368 39.4302 69.4533 39.3921C70.1833 39.4815 70.8908 39.7032 71.5413 40.0461C72.6613 40.9749 73.465 42.2287 73.8413 43.6341C74.4156 42.2377 74.7535 40.7554 74.8413 39.2481C74.9891 37.7174 74.8535 36.1726 74.4413 34.6911C74.2749 33.8982 74.0469 33.1195 73.7593 32.3621C73.7593 32.3621 72.3013 31.4831 71.6593 31.1211C70.5879 30.4269 69.474 29.8003 68.3243 29.2451C67.3145 28.8378 66.2467 28.5924 65.1603 28.5181C63.9395 28.3962 62.7068 28.5409 61.5473 28.9421H61.5553Z" fill="#D9A171"/>
<path opacity="0.1" d="M73.7764 32.3691C73.9936 32.9519 74.1753 33.5474 74.3204 34.1521C74.788 35.7805 74.9693 37.4777 74.8564 39.1681C74.8054 39.7201 74.7024 40.5411 74.6084 40.9861C74.4289 41.8884 74.1706 42.7731 73.8364 43.6301C73.7232 43.0988 73.5264 42.5888 73.2534 42.1191C73.5635 41.3878 73.8023 40.6283 73.9664 39.8511C74.2101 38.304 74.2246 36.7295 74.0094 35.1781C73.8404 34.1199 73.5893 33.0764 73.2584 32.0571C73.5234 32.2151 73.7724 32.3611 73.7764 32.3691Z" fill="#523618"/>
<path d="M73.7574 32.3611C74.3788 34.226 74.7221 36.1722 74.7764 38.1371C74.8441 40.347 74.3833 42.5411 73.4324 44.5371C74.4195 43.2372 74.9877 41.6677 75.0614 40.0371C75.2195 38.362 75.1691 36.6738 74.9114 35.0111C74.8724 34.5226 74.7609 34.0427 74.5804 33.5871C74.4127 33.1161 74.1301 32.6944 73.7584 32.3601L73.7574 32.3611Z" fill="#D08A5A"/>
<mask id="mask3_115_8601" style="mask-type:luminance" maskUnits="userSpaceOnUse" x="30" y="28" width="17" height="18">
<path d="M46.3852 28.905L30.3032 29.281L30.6832 45.519L46.7632 45.145L46.3852 28.905Z" fill="white"/>
</mask>
<g mask="url(#mask3_115_8601)">
<path d="M43.6981 29.3661C44.2193 29.5825 44.6925 29.8998 45.0905 30.2999C45.4885 30.6999 45.8034 31.1748 46.0171 31.6971C46.4913 33.0945 46.6317 34.5836 46.4271 36.0451C46.2677 37.2262 45.7221 38.3215 44.8751 39.1601C43.7362 40.0826 42.2995 40.5573 40.8351 40.4951C39.338 40.2484 37.8211 40.141 36.3041 40.1741C35.5797 40.2968 34.8838 40.5514 34.2511 40.9251C33.1799 41.88 32.4374 43.1485 32.1291 44.5501C31.4878 43.2058 31.0768 41.7634 30.9131 40.2831C30.6936 38.761 30.7564 37.2115 31.0981 35.7121C31.227 34.9118 31.4081 34.1208 31.6401 33.3441C31.6401 33.3441 33.0861 32.4081 33.7071 32.0181C34.745 31.2745 35.8281 30.5962 36.9501 29.9871C37.94 29.5331 38.9953 29.2385 40.0771 29.1141C41.2894 28.9326 42.5267 29.0186 43.7021 29.3661H43.6981Z" fill="#D9A171"/>
<path opacity="0.1" d="M31.6351 33.34C31.6351 33.34 31.4031 34.085 31.1881 35.17C30.7987 36.8182 30.6972 38.5213 30.8881 40.204C30.9631 40.754 31.1071 41.569 31.2211 42.004C31.4387 42.877 31.7401 43.727 32.1211 44.542C32.2008 44.0273 32.3701 43.5305 32.6211 43.074C32.2774 42.3582 32.0041 41.6107 31.8051 40.842C31.4894 39.3083 31.4018 37.7364 31.5451 36.177C31.6709 35.1015 31.8785 34.0371 32.1661 32.993L31.6351 33.34Z" fill="#523618"/>
</g>
<path d="M31.6763 32.9951C31.1334 34.948 30.8714 36.9683 30.8983 38.9951C30.8059 40.9527 31.2458 42.8987 32.1713 44.6261C31.0203 43.4011 30.9853 42.5671 30.7013 40.9101C30.4659 39.244 30.4373 37.5552 30.6163 35.8821C30.6332 35.3924 30.7221 34.9079 30.8803 34.4441C31.0297 33.9059 31.3022 33.4098 31.6763 32.9951Z" fill="#D08A5A"/>
<path opacity="0.14" d="M48.9172 41.3341C49.1379 41.9595 49.4892 42.5307 49.9479 43.0097C50.4066 43.4887 50.962 43.8645 51.5772 44.1121C52.194 44.346 52.854 44.4443 53.5122 44.4001C54.1703 44.3559 54.8113 44.1704 55.3912 43.8561C55.897 43.6157 56.3253 43.2387 56.6279 42.7675C56.9304 42.2964 57.0951 41.7499 57.1032 41.1901C56.2693 41.7303 55.2968 42.0175 54.3032 42.0171C53.3222 42.0111 52.3441 41.9083 51.3832 41.7101C50.5742 41.5721 49.7682 41.4341 48.9172 41.3341Z" fill="black"/>
<path d="M57.5173 40.745C57.4763 39.133 55.6003 38.111 53.1693 38.172C50.7383 38.233 48.8373 39.388 48.8783 41.001C48.9193 42.614 50.9623 43.87 53.3903 43.81C55.8183 43.75 57.5573 42.358 57.5173 40.746V40.745Z" fill="#252525"/>
<mask id="mask4_115_8601" style="mask-type:luminance" maskUnits="userSpaceOnUse" x="50" y="40" width="3" height="3">
<path d="M52.2594 40.0801H50.7124V42.5191H52.2594V40.0801Z" fill="white"/>
</mask>
<g mask="url(#mask4_115_8601)">
<path d="M52.0653 41.1011C51.7223 40.2301 51.2713 39.9781 50.9363 40.1141C50.6013 40.2501 50.6363 40.8411 51.0703 41.4711C51.3144 41.8761 51.6391 42.2267 52.0243 42.5011C52.3023 42.6511 52.3553 41.8331 52.0653 41.1011Z" fill="#474747"/>
</g>
<mask id="mask5_115_8601" style="mask-type:luminance" maskUnits="userSpaceOnUse" x="54" y="40" width="2" height="3">
<path d="M54.1066 40.113L54.0383 42.551L55.5847 42.5943L55.653 40.1563L54.1066 40.113Z" fill="white"/>
</mask>
<g mask="url(#mask5_115_8601)">
<path d="M54.2642 41.1321C54.6302 40.2711 55.0892 40.0321 55.4202 40.1781C55.7512 40.3241 55.6962 40.9131 55.2472 41.5311C54.9914 41.9281 54.6568 42.2685 54.2642 42.5311C53.9842 42.6741 53.9552 41.8551 54.2642 41.1321Z" fill="#474747"/>
</g>
<mask id="mask6_115_8601" style="mask-type:luminance" maskUnits="userSpaceOnUse" x="50" y="40" width="3" height="3">
<path d="M52.2594 40.0801H50.7124V42.5191H52.2594V40.0801Z" fill="white"/>
</mask>
<g mask="url(#mask6_115_8601)">
<path d="M52.0653 41.1011C51.7223 40.2301 51.2713 39.9781 50.9363 40.1141C50.6013 40.2501 50.6363 40.8411 51.0703 41.4711C51.3144 41.8761 51.6391 42.2267 52.0243 42.5011C52.3023 42.6511 52.3553 41.8331 52.0653 41.1011Z" fill="#474747"/>
</g>
<mask id="mask7_115_8601" style="mask-type:luminance" maskUnits="userSpaceOnUse" x="54" y="40" width="2" height="3">
<path d="M54.1066 40.113L54.0383 42.551L55.5847 42.5943L55.653 40.1563L54.1066 40.113Z" fill="white"/>
</mask>
<g mask="url(#mask7_115_8601)">
<path d="M54.2642 41.1321C54.6302 40.2711 55.0892 40.0321 55.4202 40.1781C55.7512 40.3241 55.6962 40.9131 55.2472 41.5311C54.9914 41.9281 54.6568 42.2685 54.2642 42.5311C53.9842 42.6741 53.9552 41.8551 54.2642 41.1321Z" fill="#474747"/>
</g>
<mask id="mask8_115_8601" style="mask-type:luminance" maskUnits="userSpaceOnUse" x="50" y="40" width="3" height="3">
<path d="M52.2594 40.0801H50.7124V42.5191H52.2594V40.0801Z" fill="white"/>
</mask>
<g mask="url(#mask8_115_8601)">
<path d="M52.0653 41.1011C51.7223 40.2301 51.2713 39.9781 50.9363 40.1141C50.6013 40.2501 50.6363 40.8411 51.0703 41.4711C51.3144 41.8761 51.6391 42.2267 52.0243 42.5011C52.3023 42.6511 52.3553 41.8331 52.0653 41.1011Z" fill="#474747"/>
</g>
<mask id="mask9_115_8601" style="mask-type:luminance" maskUnits="userSpaceOnUse" x="54" y="40" width="2" height="3">
<path d="M54.1066 40.113L54.0383 42.551L55.5847 42.5943L55.653 40.1563L54.1066 40.113Z" fill="white"/>
</mask>
<g mask="url(#mask9_115_8601)">
<path d="M54.2642 41.1321C54.6302 40.2711 55.0892 40.0321 55.4202 40.1781C55.7512 40.3241 55.6962 40.9131 55.2472 41.5311C54.9914 41.9281 54.6568 42.2685 54.2642 42.5311C53.9842 42.6741 53.9552 41.8551 54.2642 41.1321Z" fill="#474747"/>
</g>
<path opacity="0.67" d="M50.8264 39.4351C51.1055 40.3752 51.4896 41.2809 51.9714 42.1351C52.0276 42.2618 52.1062 42.3773 52.2034 42.4761C52.2533 42.5321 52.3199 42.5704 52.3934 42.5853C52.4669 42.6002 52.5432 42.5908 52.6109 42.5585C52.6786 42.5262 52.7339 42.4729 52.7687 42.4064C52.8034 42.34 52.8156 42.264 52.8034 42.1901C52.7887 42.0338 52.7417 41.8823 52.6654 41.7451C52.4724 41.3351 52.2814 40.9231 52.0884 40.5121C51.9795 40.2411 51.8264 39.99 51.6354 39.7691C51.5316 39.6597 51.4056 39.5736 51.266 39.5165C51.1264 39.4595 50.9762 39.4327 50.8254 39.4381L50.8264 39.4351Z" fill="#252525"/>
<path opacity="0.46" d="M55.6345 39.6801C55.1898 40.5467 54.7458 41.4134 54.3025 42.2801C54.2627 42.3711 54.2053 42.4534 54.1335 42.5221C54.0968 42.5557 54.0508 42.5775 54.0015 42.5844C53.9522 42.5914 53.902 42.5832 53.8575 42.5611C53.7355 42.4881 53.7435 42.3091 53.7725 42.1711C53.9825 41.3312 54.3866 40.5523 54.9525 39.8971C55.0427 39.7671 55.1659 39.6635 55.3095 39.5971C55.4575 39.5401 55.6855 39.5971 55.6385 39.6821L55.6345 39.6801Z" fill="#252525"/>
<path opacity="0.14" d="M47.7653 45.3231C50.9093 47.0021 56.6153 46.7281 58.9553 45.3231C58.4075 46.276 57.7954 47.1905 57.1233 48.0601C56.2053 48.9522 55.0343 49.5393 53.7703 49.7411C52.187 49.5763 50.7012 48.8973 49.5403 47.8081C49.0713 47.3021 47.7493 45.3181 47.7653 45.3261V45.3231Z" fill="#252525"/>
<path d="M47.2401 44.9081C50.5731 46.6221 56.7731 46.3441 59.2261 44.9551C59.2791 44.9251 57.8551 46.7401 57.2541 47.3861C56.2614 48.3405 55.0159 48.9902 53.6652 49.2581C52.0042 48.9958 50.4645 48.2276 49.2562 47.0581C48.7532 46.5471 47.2221 44.9001 47.2401 44.9081Z" fill="#252525"/>
<path d="M51.1921 48.5231C51.2067 48.4042 51.2448 48.2893 51.304 48.1851C51.3632 48.0809 51.4424 47.9895 51.5371 47.9161C51.6868 47.7991 51.8585 47.7133 52.0419 47.6638C52.2254 47.6144 52.4169 47.6022 52.6051 47.6281C52.9581 47.6361 53.6471 47.9431 53.5861 48.2411C53.4861 47.9711 53.8481 47.7231 54.2301 47.7031C54.6558 47.6723 55.0764 47.8111 55.4001 48.0891C55.4848 48.1683 55.5469 48.2685 55.5802 48.3795C55.6134 48.4906 55.6165 48.6085 55.5891 48.7211C54.9706 49.1029 54.266 49.323 53.5401 49.3611C52.7034 49.2671 51.8997 48.9796 51.1921 48.5231Z" fill="#E0A2A2"/>
<mask id="mask10_115_8601" style="mask-type:luminance" maskUnits="userSpaceOnUse" x="60" y="29" width="9" height="10">
<path d="M67.9023 29.791L60.5513 29.9601L60.7592 38.9991L68.1102 38.83L67.9023 29.791Z" fill="white"/>
</mask>
<g mask="url(#mask10_115_8601)">
<path d="M60.6511 33.818C60.4701 29.918 64.5511 29.949 64.5511 29.949C64.5511 29.949 68.1621 31.901 68.0131 34.685C67.8641 37.469 66.1371 39.185 64.1131 38.862C61.9481 38.515 60.7801 36.602 60.6531 33.818H60.6511Z" fill="white"/>
<path d="M62.8892 30.067C66.6442 28.9 67.8722 33.562 67.8642 33.545C67.2258 33.2559 66.5706 33.0051 65.9022 32.794C64.1456 32.2765 62.2564 32.4644 60.6362 33.318C60.5919 32.6025 60.7901 31.8928 61.1987 31.3037C61.6073 30.7146 62.2025 30.2803 62.8882 30.071L62.8892 30.067Z" fill="#D39266"/>
<path d="M63.1403 35.5911C63.7661 35.5911 64.2733 35.0838 64.2733 34.4581C64.2733 33.8323 63.7661 33.3251 63.1403 33.3251C62.5146 33.3251 62.0073 33.8323 62.0073 34.4581C62.0073 35.0838 62.5146 35.5911 63.1403 35.5911Z" fill="black" stroke="black" stroke-width="0.198" stroke-miterlimit="10"/>
<path d="M63.0772 34.5621C63.36 34.5621 63.5892 34.3329 63.5892 34.0501C63.5892 33.7673 63.36 33.5381 63.0772 33.5381C62.7944 33.5381 62.5652 33.7673 62.5652 34.0501C62.5652 34.3329 62.7944 34.5621 63.0772 34.5621Z" fill="white"/>
<path opacity="0.14" d="M67.9782 34.0361C68.0281 34.4323 68.0221 34.8336 67.9602 35.2281C67.8706 35.9689 67.6256 36.6825 67.2412 37.3221C66.9261 37.8807 66.445 38.3274 65.8647 38.6003C65.2843 38.8732 64.6334 38.9588 64.0022 38.8451C67.7552 36.4511 66.0672 31.4921 65.1922 30.1001C65.9314 30.4931 66.5683 31.0538 67.0518 31.7374C67.5353 32.4209 67.8519 33.2082 67.9762 34.0361H67.9782Z" fill="black"/>
</g>
<path d="M44.6282 34.1931C44.6282 30.2881 40.5542 30.5111 40.5542 30.5111C40.5542 30.5111 37.0392 32.6291 37.3152 35.4031C37.5912 38.1771 39.4012 39.8101 41.4052 39.3931C43.5522 38.9471 44.6282 36.9791 44.6282 34.1931Z" fill="white"/>
<path d="M42.2162 30.5511C38.4082 29.5591 37.4012 34.2731 37.4082 34.2531C38.0327 33.9343 38.6755 33.6528 39.3332 33.4101C41.0634 32.8111 42.9589 32.9101 44.6172 33.6861C44.628 32.9697 44.3969 32.2705 43.9612 31.7016C43.5255 31.1328 42.9108 30.7274 42.2162 30.5511Z" fill="#D39266"/>
<path d="M42.1691 36.0801C42.7949 36.0801 43.3021 35.5728 43.3021 34.9471C43.3021 34.3213 42.7949 33.8141 42.1691 33.8141C41.5434 33.8141 41.0361 34.3213 41.0361 34.9471C41.0361 35.5728 41.5434 36.0801 42.1691 36.0801Z" fill="black" stroke="black" stroke-width="0.198" stroke-miterlimit="10"/>
<path d="M42.2141 35.0501C42.4969 35.0501 42.7261 34.8209 42.7261 34.5381C42.7261 34.2554 42.4969 34.0261 42.2141 34.0261C41.9314 34.0261 41.7021 34.2554 41.7021 34.5381C41.7021 34.8209 41.9314 35.0501 42.2141 35.0501Z" fill="white"/>
<path opacity="0.14" d="M37.3173 34.7501C37.2865 35.1482 37.3111 35.5487 37.3903 35.9401C37.5137 36.6758 37.7918 37.3769 38.2063 37.9971C38.5466 38.5393 39.0469 38.9624 39.638 39.208C40.2292 39.4536 40.882 39.5096 41.5063 39.3681C37.6453 37.1521 39.1003 32.1181 39.9063 30.6881C39.1859 31.1152 38.5756 31.7051 38.1241 32.4104C37.6726 33.1158 37.3925 33.9171 37.3063 34.7501H37.3173Z" fill="black"/>
<path opacity="0.14" d="M48.4482 10.2391C48.4992 10.973 48.4748 11.7101 48.3752 12.4391C48.3543 12.7104 48.4083 12.9822 48.5312 13.2251C48.591 13.2883 48.6631 13.3387 48.743 13.3731C48.823 13.4074 48.9092 13.4251 48.9962 13.4251C48.3884 14.0104 47.9686 14.7633 47.7902 15.5881C47.5902 18.9081 48.3082 22.8401 50.8592 23.9971C37.4592 23.3841 28.6992 37.916 44.1882 54.9561C39.3792 55.8561 22.3732 81.537 52.1342 92.465C50.7612 91.511 33.7132 87.4001 32.6002 86.1881C30.3462 83.7411 20.7582 89.2931 22.4912 80.4941C22.72 75.5984 23.6765 70.764 25.3292 66.1501C25.8982 64.5681 27.8452 59.7901 28.4422 58.1241C28.6645 57.4948 28.8144 56.8422 28.8892 56.1791C29.6182 51.5101 28.9072 45.9151 28.4652 39.7071C28.2868 37.7912 28.2941 35.8625 28.4872 33.9481C28.623 32.8335 28.8573 31.7332 29.1872 30.6601C29.3792 29.9617 29.613 29.2754 29.8872 28.6051C30.2391 27.6992 30.6565 26.8202 31.1362 25.9751C32.2642 23.9446 33.7102 22.108 35.4192 20.5351C35.5292 20.4351 36.9192 19.2741 37.0762 19.1521C37.961 18.5148 38.8822 17.9298 39.8352 17.4001C40.8238 16.8929 41.8498 16.4623 42.9042 16.1121C42.6308 15.9777 42.3865 15.7908 42.1852 15.5621C41.8767 15.2474 41.6896 14.8336 41.6572 14.3941C41.6632 13.5861 42.5852 13.0291 43.4872 12.9561C44.1102 12.9043 44.7329 13.06 45.2582 13.3991C45.0668 13.1862 44.9118 12.9433 44.7992 12.6801C44.6717 12.2649 44.6318 11.8278 44.6821 11.3964C44.7323 10.965 44.8717 10.5488 45.0912 10.1741C45.2095 9.91891 45.3776 9.69003 45.5858 9.50094C45.794 9.31184 46.0379 9.16635 46.3032 9.07305C46.5838 9.00692 46.8757 9.00467 47.1573 9.06646C47.4389 9.12825 47.703 9.25251 47.9302 9.43005C48.1956 9.62723 48.3798 9.91557 48.4482 10.2391Z" fill="#523618"/>
<path d="M25.6071 65.4101C15.1371 66.6151 11.3271 86.4821 11.3271 86.4821C11.3271 86.4821 22.6531 102.182 33.1381 106.482C74.6751 123.548 94.8531 86.7481 94.8531 86.7481C94.8531 86.7481 92.5771 74.4621 88.0341 69.4621C84.0231 65.0511 81.0561 64.1251 81.0561 64.1251C81.0561 64.1251 73.8271 90.9311 53.4011 90.7731C37.6282 90.7731 26.7391 77.2991 25.6081 65.4111L25.6071 65.4101Z" fill="#232D40"/>
<path fill-rule="evenodd" clip-rule="evenodd" d="M27.669 111.812C41.9178 107.782 56.5908 105.441 71.386 104.836C71.964 104.812 72.45 105.162 72.45 105.599C72.4157 105.822 72.2989 106.024 72.1228 106.165C71.9467 106.306 71.7241 106.376 71.499 106.36C67.045 106.55 47.73 107.58 30.165 111.811C30.165 111.876 27.665 112.201 27.665 111.811M66.96 96.0171C67.2305 95.4427 67.5729 94.9051 67.979 94.4171C68.074 94.4641 67.868 95.1651 67.326 96.1081C66.8804 96.8841 66.3469 97.6062 65.736 98.2601C65.849 97.9851 66.547 96.7451 66.96 96.0191M37.649 96.7671C37.9847 96.7075 38.3305 96.776 38.618 96.9591C39.0183 97.2605 39.3133 97.6804 39.461 98.1591C39.523 98.7465 39.3517 99.3348 38.984 99.7971C38.632 100.297 38.215 101.057 37.977 101.486L37.961 101.514C37.945 101.542 37.931 101.568 37.919 101.591C37.777 101.854 37.601 102 37.298 101.733C37.178 101.643 37.0809 101.526 37.0145 101.391C36.9481 101.257 36.9144 101.108 36.916 100.958C36.9975 100.338 37.2511 99.754 37.648 99.2711C38.048 98.6521 38.475 97.9241 38.253 97.8001C37.664 97.4661 34.183 100.173 34.102 101.941C34.055 102.956 36.232 103.541 36.853 103.885C36.9902 103.95 37.1072 104.051 37.1916 104.177C37.2759 104.303 37.3245 104.45 37.332 104.601C37.2687 105.091 37.0512 105.548 36.711 105.906C36.1515 106.515 35.3861 106.894 34.563 106.97C33.8336 107.03 33.1 106.927 32.4151 106.669C31.7303 106.411 31.1114 106.004 30.603 105.477C30.381 105.246 30.492 105.064 30.714 104.957C30.8735 104.902 31.0385 104.865 31.206 104.846C31.6321 104.771 32.0711 104.848 32.446 105.064C33.1878 105.643 34.0985 105.962 35.039 105.974C35.3525 105.953 35.6499 105.828 35.884 105.618C35.933 105.58 35.9723 105.53 35.9988 105.474C36.0253 105.418 36.0383 105.356 36.0368 105.294C36.0352 105.231 36.0192 105.17 35.9899 105.115C35.9606 105.06 35.9189 105.013 35.868 104.977C34.723 104.277 32.512 103.739 32.512 102.177C32.512 100.098 34.992 97.9501 36.424 97.1771C36.7996 96.956 37.2159 96.8128 37.648 96.7561L37.649 96.7671ZM67.449 93.0941C67.749 92.7641 68.036 92.6351 68.339 92.8691C68.5039 92.9886 68.6376 93.1461 68.7288 93.3281C68.82 93.5102 68.866 93.7115 68.863 93.9151C68.8665 94.1371 68.8344 94.3582 68.768 94.5701C68.0726 96.556 66.8128 98.2958 65.143 99.5761C64.852 100.232 64.6748 100.933 64.619 101.649C64.619 102.015 64.714 102.262 64.919 102.234C65.651 102.134 66.572 100.99 67.178 99.8091C67.225 99.7109 67.2934 99.6245 67.378 99.5561C67.71 99.0301 68.104 98.4461 68.515 97.9051C68.4272 97.8471 68.3543 97.7693 68.3022 97.6779C68.2501 97.5866 68.2202 97.4842 68.215 97.3791C68.2843 96.939 68.4577 96.5217 68.7207 96.1621C68.9836 95.8024 69.3287 95.5107 69.727 95.3111C70.061 95.2671 70.204 95.4321 70.204 95.7821C70.1699 96.2142 70.0739 96.6392 69.919 97.0441C70.3904 96.8463 70.8257 96.5716 71.207 96.2311C71.478 96.0111 71.636 95.9601 71.844 96.1311C71.9792 96.2448 72.0898 96.3848 72.1691 96.5427C72.2483 96.7005 72.2946 96.8728 72.305 97.0491C72.2923 97.2813 72.2026 97.5026 72.05 97.6781C71.192 98.7401 70.286 100.067 70.286 100.969C70.286 101.369 70.413 101.594 70.636 101.569C71.176 101.498 71.813 100.558 72.305 99.4371C72.432 99.1441 72.655 99.1011 72.797 99.3561C72.8599 99.5168 72.8882 99.6888 72.8801 99.8611C72.872 100.033 72.8277 100.202 72.75 100.356C72.5554 100.817 72.2512 101.224 71.8638 101.541C71.4765 101.858 71.0176 102.076 70.527 102.176C70.3393 102.224 70.1428 102.226 69.9542 102.182C69.7656 102.137 69.5903 102.049 69.4433 101.922C69.2962 101.796 69.1816 101.637 69.1092 101.457C69.0367 101.277 69.0086 101.083 69.027 100.89C69.2533 99.6584 69.8208 98.515 70.665 97.5901C70.3024 97.7858 69.9102 97.9209 69.504 97.9901C68.5436 99.4778 67.7641 101.075 67.182 102.747C67.119 103.03 66.911 103.196 66.626 102.947C66.4183 102.785 66.282 102.549 66.246 102.288C65.8589 102.57 65.4113 102.756 64.939 102.834C64.6353 102.923 64.3088 102.889 64.0299 102.739C63.751 102.589 63.5421 102.336 63.448 102.034C62.9163 102.717 62.1593 103.189 61.312 103.365C60.23 103.507 59.643 103.021 59.643 102.194C59.6521 101.84 59.7327 101.492 59.88 101.17C60.135 100.616 60.659 99.7221 61.025 99.1231C61.375 98.5711 61.757 98.0631 61.625 98.0811C61.493 98.0991 61.164 98.2951 60.225 99.3211C59.0969 100.637 58.1941 102.131 57.553 103.741C57.395 104.053 57.171 104.129 56.916 103.917C56.7939 103.825 56.6975 103.703 56.6362 103.563C56.5749 103.423 56.5507 103.269 56.566 103.117C56.6017 102.714 56.6985 102.32 56.853 101.946C57.1895 101.193 57.583 100.466 58.03 99.7721C58.459 99.0281 58.906 98.3881 58.762 98.4071C58.0921 98.8062 57.5131 99.341 57.062 99.9771C56.1233 101.193 55.3701 102.541 54.827 103.978C54.714 104.237 54.54 104.354 54.269 104.16C54.1556 104.083 54.062 103.98 53.996 103.86C53.5906 104.213 53.097 104.448 52.568 104.542C51.631 104.667 51.152 104.285 51.089 103.607C50.5869 104.289 49.851 104.762 49.022 104.936C48.8173 104.989 48.6005 104.965 48.412 104.869C48.2236 104.773 48.0764 104.612 47.998 104.416C47.508 104.901 46.8838 105.228 46.206 105.355C46.0068 105.406 45.7981 105.409 45.5979 105.361C45.3976 105.314 45.2119 105.219 45.0565 105.084C44.9012 104.949 44.7809 104.779 44.7061 104.587C44.6313 104.396 44.6042 104.189 44.627 103.984C44.8967 102.701 45.4882 101.507 46.346 100.515C45.957 100.723 45.539 100.871 45.106 100.954C43.961 103.554 42.179 105.867 40.16 106.134C39.8874 106.214 39.5997 106.226 39.3212 106.171C39.0426 106.116 38.7815 105.994 38.5599 105.816C38.3384 105.639 38.1628 105.411 38.0481 105.151C37.9334 104.891 37.883 104.607 37.901 104.324C37.9227 103.689 38.0857 103.066 38.378 102.502C38.6445 101.84 39.0533 101.244 39.5756 100.758C40.0978 100.271 40.7207 99.9052 41.4 99.6861C41.5863 99.6507 41.7788 99.6677 41.956 99.7351C42.3412 99.8763 42.6701 100.139 42.893 100.483C43.13 100.94 42.877 101.523 42.575 102.162C42.565 102.186 42.553 102.209 42.541 102.233L42.529 102.257C42.4354 102.441 42.3549 102.63 42.288 102.825C42.177 103.161 42.114 103.246 41.716 103.1C41.548 103.043 41.4029 102.932 41.3024 102.786C41.2019 102.64 41.1513 102.465 41.158 102.287C41.2282 101.894 41.3513 101.512 41.524 101.152C41.682 100.81 41.842 100.484 41.763 100.432C41.555 100.305 40.539 101.375 39.87 102.762C39.5892 103.309 39.4267 103.908 39.393 104.522C39.393 105.165 39.664 105.556 40.125 105.522C41.683 105.376 43.384 102.922 44.211 100.93C44.0755 100.899 43.9559 100.819 43.8741 100.707C43.7924 100.594 43.754 100.456 43.766 100.317C43.8393 99.8573 44.0219 99.4217 44.2986 99.0472C44.5753 98.6727 44.938 98.3702 45.356 98.1651C45.69 98.1211 45.817 98.3031 45.817 98.6401C45.7813 99.0939 45.6803 99.5402 45.517 99.9651C46.0228 99.7654 46.4908 99.481 46.901 99.1241C47.138 98.9241 47.393 98.8291 47.601 99.0151C47.7379 99.1399 47.8479 99.2912 47.9244 99.4599C48.0009 99.6285 48.0423 99.811 48.046 99.9961C48.0338 100.237 47.938 100.467 47.775 100.645C47.0519 101.475 46.4716 102.42 46.058 103.44C45.9789 103.665 45.9361 103.902 45.931 104.14C45.931 104.522 46.058 104.74 46.297 104.719C46.797 104.695 47.616 103.74 48.113 102.708C48.6656 101.278 49.3803 99.9156 50.243 98.6481C50.2735 98.5873 50.3184 98.5348 50.3738 98.4953C50.4292 98.4558 50.4935 98.4304 50.5609 98.4214C50.6284 98.4125 50.697 98.4201 50.7609 98.4438C50.8247 98.4674 50.8817 98.5063 50.927 98.5571C51.0865 98.744 51.171 98.9835 51.164 99.2291C50.9525 100.05 50.6198 100.834 50.177 101.557L50.132 101.646C49.881 102.135 49.632 102.621 49.448 103.034C49.161 103.683 49.114 104.254 49.464 104.209C49.877 104.154 50.72 103.003 51.533 101.673C52.47 100.081 52.884 98.9871 53.455 98.2081C53.678 97.8881 53.932 97.7931 54.123 98.0281C54.2922 98.2451 54.3765 98.5164 54.36 98.7911C54.236 99.583 53.9315 100.336 53.47 100.991C52.9502 101.746 52.5827 102.595 52.388 103.491C52.388 103.766 52.483 103.906 52.688 103.879C53.072 103.828 53.61 103.189 54.096 102.443C54.7728 100.822 55.5783 99.2569 56.505 97.7641C56.713 97.4461 56.95 97.4301 57.105 97.6831C57.2465 97.8895 57.3241 98.133 57.328 98.3831C57.3261 98.524 57.3103 98.6643 57.281 98.8021C57.8325 98.128 58.5515 97.6107 59.366 97.3021C59.874 97.2351 60.209 97.7411 60.209 98.3821C60.7677 97.7472 61.4837 97.2706 62.285 97.0001C62.746 96.9551 63.001 97.3341 63.001 97.8391C62.8645 98.6793 62.5265 99.4739 62.016 100.155C61.5774 100.738 61.2834 101.417 61.158 102.135C61.158 102.487 61.316 102.711 61.571 102.677C62.063 102.612 62.843 101.437 63.432 100.428C63.4644 100.37 63.506 100.317 63.555 100.272C64.3477 97.6365 65.6753 95.1926 67.455 93.0931L67.449 93.0941Z" fill="white"/>
</g>
<defs>
<linearGradient id="paint0_linear_115_8601" x1="52" y1="2" x2="52" y2="104" gradientUnits="userSpaceOnUse">
<stop stop-color="#F0F2FE"/>
<stop offset="1" stop-color="#E7EEFF"/>
</linearGradient>
</defs>
</svg>
