<svg width="1126" height="616" viewBox="0 0 1126 616" fill="none" xmlns="http://www.w3.org/2000/svg">
<path d="M1042.69 155.655V368.061H891.827L1040.23 155.655H1042.69ZM1042.69 470.33V611.93H1153.37V470.33H1229.62V368.061H1153.37V0.065918H1049.24L800 356.698V470.33H1042.69ZM1376.38 303.378C1376.38 292.889 1376.51 280.214 1376.79 265.355C1377.06 250.496 1378.02 235.199 1379.66 219.465C1381.3 203.706 1384.04 188.08 1387.86 172.701C1391.31 158.211 1396.69 144.247 1403.85 131.181C1410.25 119.43 1419.21 109.272 1430.08 101.462C1440.74 93.8866 1453.99 90.0989 1469.85 90.0989C1485.7 90.0989 1558.8 415.409 1553.06 438.427C1547.32 461.445 1538.03 481.112 1525.19 497.427C1512.34 513.742 1428.3 513.747 1415.73 497.427C1403.16 481.107 1394 461.443 1388.27 438.427C1382.46 414.937 1379.02 390.923 1378.02 366.747C1376.92 341.983 1376.38 320.86 1376.38 303.378ZM1276.76 456.778C1287.97 497.861 1303.13 530.639 1322.26 555.114C1341.4 579.592 1526.01 618.053 1551.42 607.563C1576.84 597.073 1653.36 497.863 1664.57 456.781C1675.77 415.699 1265.56 415.699 1276.76 456.782V456.778Z" fill="url(#paint0_linear_93_20791)"/>
<path d="M242.685 159.031V371.437H91.827L240.227 159.031H242.685ZM242.685 473.706V615.306H353.369V473.706H429.618V371.437H353.369V3.44189H249.244L0 360.074V473.706H242.685Z" fill="url(#paint1_linear_93_20791)"/>
<defs>
<linearGradient id="paint0_linear_93_20791" x1="1232.4" y1="0.065918" x2="1232.4" y2="611.93" gradientUnits="userSpaceOnUse">
<stop stop-color="#FFF2F7"/>
<stop offset="1" stop-color="#FFF2F7"/>
</linearGradient>
<linearGradient id="paint1_linear_93_20791" x1="432.396" y1="3.44189" x2="432.396" y2="615.306" gradientUnits="userSpaceOnUse">
<stop stop-color="#FFF2F7"/>
<stop offset="1" stop-color="#FFF2F7"/>
</linearGradient>
</defs>
</svg>
