<svg xmlns="http://www.w3.org/2000/svg" width="230" height="161" fill="none" viewBox="0 0 230 161">
  <g clip-path="url(#a)">
    <path fill="#051C59" d="M42.962 100.56c0-1.622 1.34-2.918 3.112-2.918s3.111 1.25 3.111 2.825c0 1.669-1.293 2.965-3.111 2.965-1.819 0-3.112-1.249-3.112-2.872Zm1.529 7.599h3.88v23.846a.718.718 0 0 1-.715.716h-3.165a.716.716 0 0 1-.715-.716v-23.13c0-.394.322-.716.715-.716Zm35.055 10.428v13.417a.718.718 0 0 1-.714.717h-3.166a.716.716 0 0 1-.714-.717v-12.909c0-4.82-2.49-7.183-6.846-7.183-4.883 0-8.042 2.829-8.042 8.157v11.935a.718.718 0 0 1-.714.717h-3.166a.716.716 0 0 1-.714-.717v-23.129c0-.394.321-.716.714-.716h2.973c.396 0 .714.322.714.716v2.99c1.869-2.503 5.124-3.939 9.143-3.939 6.174 0 10.532 3.431 10.532 10.661Zm4.244 1.855c0-7.323 5.602-12.512 13.212-12.512 7.61 0 13.166 5.192 13.166 12.512 0 7.319-5.552 12.558-13.166 12.558-7.613 0-13.212-5.239-13.212-12.558Zm21.733 0c0-5.236-3.637-8.62-8.52-8.62-4.885 0-8.568 3.384-8.568 8.62 0 5.235 3.687 8.666 8.567 8.666 4.881 0 8.521-3.431 8.521-8.666Zm31.926-11.517-10.861 23.384a.716.716 0 0 1-.647.415h-3.908a.707.707 0 0 1-.647-.415l-10.861-23.384a.536.536 0 0 1 .486-.762h3.615c.279 0 .536.164.651.419l8.76 19.276 8.953-19.283a.715.715 0 0 1 .647-.416h3.326c.393 0 .65.408.486.763v.003Zm22.476 17.128 1.7 1.697a.721.721 0 0 1 .036.982c-2.083 2.435-5.295 3.881-9.221 4.164-8.164.587-13.987-4.243-14.523-11.545-.529-7.258 4.437-12.866 11.79-13.396 6.716-.483 12.318 3.574 13.265 10.474a.722.722 0 0 1-.525.802l-19.225 5.082c1.537 3.28 4.827 4.995 9.079 4.691 2.693-.194 4.93-1.164 6.606-2.933a.71.71 0 0 1 1.021-.014l-.003-.004Zm-17.585-5.257.032.462 15.148-3.914c.447-.114.704-.605.518-1.031-1.289-2.99-4.29-4.892-8.063-4.62-4.823.348-8.014 3.972-7.639 9.1l.004.003Zm42.997 11.545-8.095-9.027-8.207 9.031c-.218.24-.525.376-.85.376h-4.173a.537.537 0 0 1-.393-.903l10.7-11.659-10.154-11.105a.536.536 0 0 1 .397-.898h4.177c.321 0 .632.136.85.376l7.71 8.476 7.656-8.473c.218-.24.525-.379.85-.379h4.059c.468 0 .711.555.393.902l-10.204 11.101 10.801 11.656a.537.537 0 0 1-.393.902h-4.27a1.15 1.15 0 0 1-.854-.383v.007Z"/>
    <path fill="#051C59" d="M40.715 108.173h7.456v4.079h-7.456a.717.717 0 0 1-.715-.716v-2.646c0-.394.322-.717.715-.717Z"/>
    <path fill="#2D5DFF" d="m108.889 67.186 5.362 20.229a2.129 2.129 0 0 0 1.751-.613l27.402-27.684c.358-.361.551-.816.601-1.285l-20.182 5.375-14.934 3.978Z"/>
    <path fill="url(#b)" d="m108.889 67.186 5.362 20.229a2.129 2.129 0 0 0 1.751-.613l27.402-27.684c.358-.361.551-.816.601-1.285l-20.182 5.375-14.934 3.978Z" opacity=".3" style="mix-blend-mode:multiply"/>
    <path fill="#13A3A3" d="m114.255 87.415-5.363-20.229-3.969-14.968-20.182 5.375a2.14 2.14 0 0 0 .61 1.754l4.527 4.502 23.094 22.964c.361.358.815.552 1.279.602h.004Z"/>
    <path fill="url(#c)" d="m114.255 87.415-5.363-20.229-3.969-14.968-20.182 5.375a2.14 2.14 0 0 0 .61 1.754l4.527 4.502 23.094 22.964c.361.358.815.552 1.279.602h.004Z" opacity=".15" style="mix-blend-mode:multiply"/>
    <path fill="#7DF481" d="m104.923 52.218 14.934-3.979-5.363-20.225a2.128 2.128 0 0 0-1.75.613l-10.815 10.929L85.345 56.31c-.358.358-.55.816-.6 1.282l20.182-5.375h-.004Z"/>
    <path fill="url(#d)" d="m104.923 52.218 14.934-3.979-5.363-20.225a2.128 2.128 0 0 0-1.75.613l-10.815 10.929L85.345 56.31c-.358.358-.55.816-.6 1.282l20.182-5.375h-.004Z" opacity=".32" style="mix-blend-mode:multiply"/>
    <path fill="#0AAFE8" d="m143.394 56.078-27.621-27.466a2.122 2.122 0 0 0-1.279-.601l5.363 20.228 3.969 14.969 20.182-5.375a2.142 2.142 0 0 0-.611-1.755h-.003Z"/>
    <path fill="url(#e)" d="m143.394 56.078-27.621-27.466a2.122 2.122 0 0 0-1.279-.601l5.363 20.228 3.969 14.969 20.182-5.375a2.142 2.142 0 0 0-.611-1.755h-.003Z" opacity=".25" style="mix-blend-mode:multiply"/>
  </g>
  <defs>
    <linearGradient id="b" x1="134.366" x2="111.056" y1="70.9" y2="77.5" gradientUnits="userSpaceOnUse">
      <stop offset=".38" stop-color="#fff"/>
      <stop offset="1" stop-color="#172E9A"/>
    </linearGradient>
    <linearGradient id="c" x1="100.668" x2="95.035" y1="77.388" y2="55.325" gradientUnits="userSpaceOnUse">
      <stop offset=".31" stop-color="#fff"/>
      <stop offset=".37" stop-color="#F2F3F9"/>
      <stop offset=".49" stop-color="#D1D6EB"/>
      <stop offset=".64" stop-color="#9CA6D4"/>
      <stop offset=".83" stop-color="#5364B4"/>
      <stop offset=".97" stop-color="#172E9A"/>
    </linearGradient>
    <linearGradient id="d" x1="99.889" x2="122.121" y1="42.657" y2="36.852" gradientUnits="userSpaceOnUse">
      <stop offset=".31" stop-color="#fff"/>
      <stop offset=".46" stop-color="#C1DACE"/>
      <stop offset=".81" stop-color="#277F55"/>
      <stop offset=".9" stop-color="#006837"/>
    </linearGradient>
    <linearGradient id="e" x1="127.131" x2="133.805" y1="34.607" y2="59.791" gradientUnits="userSpaceOnUse">
      <stop offset=".43" stop-color="#fff"/>
      <stop offset=".49" stop-color="#F9FAFC"/>
      <stop offset=".56" stop-color="#EAECF6"/>
      <stop offset=".65" stop-color="#D1D6EB"/>
      <stop offset=".73" stop-color="#AEB6DB"/>
      <stop offset=".83" stop-color="#818EC8"/>
      <stop offset=".92" stop-color="#4B5DB0"/>
      <stop offset="1" stop-color="#172E9A"/>
    </linearGradient>
    <clipPath id="a">
      <path fill="#fff" d="M0 0h151v105H0z" transform="translate(40 28)"/>
    </clipPath>
  </defs>
</svg>
