<svg xmlns="http://www.w3.org/2000/svg" width="160" height="160" viewBox="0 0 160 160">
  <defs>
    <clipPath id="clip-path">
      <rect width="160" height="160" transform="translate(824 187)" fill="#242c3d"/>
    </clipPath>
  </defs>
  <g transform="translate(-824 -187)" clip-path="url(#clip-path)">
    <g transform="translate(835.073 169.589)">
      <g transform="translate(0 62.137)">
        <path d="M21.526,21.48,87.875,0,66.321,66.275,0,87.875Z" transform="translate(68.91 0) rotate(45)" fill="#ff0069"/>
        <path d="M0,0,69.679,2.384l6.383,13.689L5.709,12.242Z" transform="translate(6.793 62.142) rotate(25)" fill="#5e00ff"/>
        <path d="M0,16.1l69.662-2.418L76.05,0,5.857,3.539Z" transform="translate(137.853 76.722) rotate(155)" fill="#5e00ff"/>
      </g>
      <g transform="translate(0 30.467)">
        <path d="M21.526,21.48,87.875,0,66.321,66.275,0,87.875Z" transform="translate(68.91 0) rotate(45)" fill="#ff0069"/>
        <path d="M0,0,69.679,2.384l6.383,13.689L5.709,12.242Z" transform="translate(6.793 62.142) rotate(25)" fill="#5e00ff"/>
        <path d="M0,16.1l69.662-2.418L76.05,0,5.857,3.539Z" transform="translate(137.853 76.722) rotate(155)" fill="#5e00ff"/>
      </g>
      <g transform="translate(0 0)">
        <path d="M21.526,21.48,87.875,0,66.321,66.275,0,87.875Z" transform="translate(68.91 0) rotate(45)" fill="#ff0069"/>
        <path d="M0,0,69.679,2.384l6.383,13.689L5.709,12.242Z" transform="translate(6.793 62.142) rotate(25)" fill="#5e00ff"/>
        <path d="M0,16.1l69.662-2.418L76.05,0,5.857,3.539Z" transform="translate(137.853 76.722) rotate(155)" fill="#5e00ff"/>
      </g>
    </g>
  </g>
</svg>
