<svg xmlns="http://www.w3.org/2000/svg" xmlns:xlink="http://www.w3.org/1999/xlink" width="160" height="160"><defs><clipPath id="A"><path transform="translate(824 187)" fill="#242c3d" d="M0 0h160v160H0z"/></clipPath><path id="B" d="M904.016 262.136l62.105 31.727-62.105 31.623-62.17-31.623z"/></defs><g transform="translate(-824 -187)" clip-path="url(#A)"><use xlink:href="#B" fill="#ff0069"/><g fill="#5e00ff"><path d="M841.866 293.868l62.143 31.608v15.104l-62.142-33.205z"/><path d="M966.122 293.856l-62.113 31.632-.007 15.1 62.121-32.872z"/></g><path d="M904.016 230.466l62.105 31.727-62.105 31.623-62.17-31.623z" fill="#ff0069"/><g fill="#5e00ff"><path d="M841.866 262.198l62.143 31.608v15.104l-62.142-33.205z"/><path d="M966.122 262.186l-62.113 31.632-.007 15.1 62.121-32.872z"/></g><path d="M904.016 199.999l62.105 31.727-62.105 31.623-62.17-31.623z" fill="#ff0069"/><g fill="#5e00ff"><path d="M841.866 231.731l62.143 31.608v15.104l-62.142-33.205z"/><path d="M966.122 231.719l-62.113 31.632-.007 15.1 62.121-32.872z"/></g></g></svg>
