<svg xmlns="http://www.w3.org/2000/svg" width="152" height="344"><style><![CDATA[.B{stroke-linejoin:round}.C{stroke-width:1.5}.D{stroke-width:2}.E{stroke-linecap:round}.F{fill:rgba(255,255,255,0)}.G{stroke:#ff0069}.H{stroke-linecap:square}.I{stroke:rgba(255,0,105,0.5)}]]></style><defs><filter id="A" x="0" y="0" width="152" height="344" filterUnits="userSpaceOnUse"><feOffset dy="16"/><feGaussianBlur stdDeviation="16" result="A"/><feFlood flood-color="#ff0069" flood-opacity=".161"/><feComposite operator="in" in2="A"/><feComposite in="SourceGraphic"/></filter><clipPath id="B"><path d="M134.844-13.349v-9.468a1.183 1.183 0 0 1 2.366 0v4.317m-2.31 9.823l-5.489-5.737a1.183 1.183 0 0 1 .532-1.597 1.183 1.183 0 0 1 .91-.067c.3.1.385.046.525.329l3.464 2.4m2.366-4.737a1.183 1.183 0 0 1 2.366 0m.03 0c0-.653.5-.591 1.153-.591a1.183 1.183 0 0 1 1.183 1.183" fill="none" clip-rule="evenodd"/></clipPath></defs><g transform="translate(48 32)"><g transform="translate(-48 -32)" filter="url(#A)"><rect width="56" height="248" rx="28" transform="translate(48 32)" fill="#fff"/></g><path opacity=".3" d="M12 80h32v32H12z" class="F"/><g fill="none"><g class="G"><g class="B D"><path d="M30.662 89.954a8.01 8.01 0 0 0-7.054 14.248 8.01 8.01 0 0 0 10.236-12.165l1.717-1.537"/><path d="M30.662 89.954a8.01 8.01 0 0 0-7.054 14.248 8.01 8.01 0 0 0 10.236-12.165" class="E"/></g><path d="M25.5 87.039V87a1 1 0 0 1 1-1h3a1 1 0 0 1 1 1v.081" class="C H"/></g><path d="M28 98v-4" stroke="rgba(255,0,104,0.5)" class="C E"/></g><path opacity=".3" d="M12 136h32v32H12z" class="F"/><g transform="translate(-109.286 170)" clip-path="url(#B)"><path d="M128.247-25h14.695V-7.677H128.247Z" fill="#fff"/></g><g fill="none" class="B E"><g class="G"><path d="M25.558 156.651v-9.468c0-.653.53-1.183 1.183-1.183s1.183.53 1.183 1.183v4.317m-2.306 9.823l-5.49-5.736c-.143-.282-.168-.61-.068-.91a1.18 1.18 0 0 1 .6-.687c.284-.139.61-.168.91-.068s.385.046.525.329l3.464 2.4m2.365-4.737c0-.653.53-1.183 1.183-1.183s1.183.53 1.183 1.183m.03 0c0-.653.5-.591 1.153-.591s1.183.53 1.183 1.183m-7.039 8.818a2.99 2.99 0 0 0 2.543 1.419h3.9a2.96 2.96 0 0 0 2.091-.866c.555-.554.866-1.307.866-2.091v-6.097c0-.654-.956-1.42-1.609-1.42" class="C"/><path d="M30.714 146a4 4 0 1 0-8 0" class="D"/></g><path d="M28.378 149.639a4 4 0 0 0-1.682-7.637 4 4 0 0 0-1.618 7.651" class="D I"/></g><path opacity=".3" d="M12 24h32v32H12z" class="F"/><g fill="none"><path d="M24.088 48V33a1 1 0 0 1 1-1h6a1 1 0 0 1 1 1v15a1 1 0 0 1-1 1h-6a1 1 0 0 1-1-1z" class="D G"/><path d="M18.207 32h0 .881a1 1 0 0 1 1 1v15a1 1 0 0 1-1 1H18m19.881-17h0H37a1 1 0 0 0-1 1v15a1 1 0 0 0 1 1h1.088" class="C I"/></g><path opacity=".3" d="M12 192h32v32H12z" class="F"/><g fill="none"><g class="G"><g class="C"><path d="M32.475 205.477l-5 4.989" class="B"/><path d="M29.475 205.466h2.989l.011.011v2.989" class="H"/></g><path d="M17.363 203.528a1.82 1.82 0 0 1 1.6-1.974h15.8a1.82 1.82 0 0 1 1.6 1.974v12.052a1.82 1.82 0 0 1-1.6 1.974h-15.8a1.82 1.82 0 0 1-1.6-1.974z" class="B D"/></g><g stroke="#ff7eb4" class="C"><path d="M19.975 214.466l13.848-.228" class="B E"/><path d="M34.001 198h.931c2.247 0 5.069 2.751 5.069 4.912v1.515"/></g></g></g></svg>
