<svg xmlns="http://www.w3.org/2000/svg" width="160" height="160"><path fill="#0057ff" d="M0 0h160v160H0z"/><g fill="#5e00ff"><path d="M47.139 81.359c0-18.108 14.679-32.787 32.787-32.787s32.787 14.679 32.787 32.787z"/><path d="M112.713 81.36c0 18.108-14.679 32.787-32.787 32.787S47.139 99.468 47.139 81.36z"/></g><g fill="#fff"><path d="M112.713 81.36H79.926V48.573c18.108 0 32.787 14.679 32.787 32.787z"/><path d="M47.139 81.359h32.787v32.787c-18.108 0-32.787-14.679-32.787-32.787z"/></g><path d="M127.114 81.361h32.787v32.787c-18.108 0-32.787-14.679-32.787-32.787zm-93.327 0H1V48.574c18.108 0 32.787 14.679 32.787 32.787z" fill="#ff0069"/><path d="M127.114 81.359h32.787V48.573c-18.107 0-32.786 14.679-32.787 32.786zm-93.327.004H1v32.786c18.107 0 32.786-14.679 32.787-32.786z" fill="#fff"/></svg>
