    <svg
      xmlns="http://www.w3.org/2000/svg"
      fillRule="evenodd"
      strokeMiterlimit="10"
      clipRule="evenodd"
      viewBox="0 0 1725 1080"
    >
      <g transform="translate(-95)">
        <g transform="matrix(.89539 -.74793 .7351 .88004 -1314.7 1526.83)">
          <circle cx="1505.32" cy="273.803" r="114.085" fill="#FFAA5A"></circle>
          <clipPath id="_clip1">
            <circle cx="1505.32" cy="273.803" r="114.085"></circle>
          </clipPath>
          <g clipPath="url(#_clip1)">
            <path
              fill="#fff"
              fillRule="nonzero"
              d="M.087-.267v-.448h.134v.448H.087zm0 .267v-.151h.134V0H.087z"
              transform="matrix(1.0996 .49615 -.48765 1.11878 -106.87 -723.155) translate(1522.06 267.718) scale(197.491)"
            ></path>
          </g>
        </g>
        <g transform="matrix(.81738 -.0098 .00963 .8024 71.479 -73.359)">
          <circle cx="1505.32" cy="273.803" r="114.085" fill="#C000FF"></circle>
          <clipPath id="_clip2">
            <circle cx="1505.32" cy="273.803" r="114.085"></circle>
          </clipPath>
          <g clipPath="url(#_clip2)">
            <path
              fill="#fff"
              fillRule="nonzero"
              d="M.087-.267v-.448h.134v.448H.087zm0 .267v-.151h.134V0H.087z"
              transform="matrix(1.0996 .49615 -.48765 1.11878 -106.87 -723.155) translate(1522.06 267.718) scale(197.491)"
            ></path>
          </g>
        </g>
        <g transform="matrix(.64667 0 0 .65333 636.078 586.242)">
          <circle cx="1505.32" cy="273.803" r="114.085" fill="#70E000"></circle>
          <clipPath id="_clip3">
            <circle cx="1505.32" cy="273.803" r="114.085"></circle>
          </clipPath>
          <g clipPath="url(#_clip3)">
            <path
              fill="#fff"
              fillRule="nonzero"
              d="M.122-.233c0-.021.002-.041.007-.06a.13.13 0 01.024-.052.155.155 0 01.051-.042.488.488 0 01.037-.021.387.387 0 00.043-.027.18.18 0 00.036-.037.088.088 0 00.014-.049.076.076 0 00-.013-.046.079.079 0 00-.036-.029.1.1 0 00-.046-.01.11.11 0 00-.052.012.172.172 0 00-.066.068l-.087-.06A.208.208 0 01.157-.7a.247.247 0 01.228.032c.02.015.036.036.048.06a.2.2 0 01.018.088.163.163 0 01-.028.101.188.188 0 01-.034.035.473.473 0 01-.043.031l-.052.031a.142.142 0 00-.044.035.08.08 0 00-.018.054h-.11zM.124 0v-.138h.111V0H.124z"
              transform="matrix(1.0996 .49615 -.48765 1.11878 -124.182 -725.7) translate(1522.06 267.718) scale(197.491)"
            ></path>
          </g>
        </g>
        <g transform="matrix(1.16667 0 0 1.14667 -108.662 -.608)">
          <circle cx="1505.32" cy="273.803" r="114.085" fill="#EA434B"></circle>
          <clipPath id="_clip4">
            <circle cx="1505.32" cy="273.803" r="114.085"></circle>
          </clipPath>
          <g clipPath="url(#_clip4)">
            <path
              fill="#fff"
              fillRule="nonzero"
              d="M.122-.233c0-.021.002-.041.007-.06a.13.13 0 01.024-.052.155.155 0 01.051-.042.488.488 0 01.037-.021.387.387 0 00.043-.027.18.18 0 00.036-.037.088.088 0 00.014-.049.076.076 0 00-.013-.046.079.079 0 00-.036-.029.1.1 0 00-.046-.01.11.11 0 00-.052.012.172.172 0 00-.066.068l-.087-.06A.208.208 0 01.157-.7a.247.247 0 01.228.032c.02.015.036.036.048.06a.2.2 0 01.018.088.163.163 0 01-.028.101.188.188 0 01-.034.035.473.473 0 01-.043.031l-.052.031a.142.142 0 00-.044.035.08.08 0 00-.018.054h-.11zM.124 0v-.138h.111V0H.124z"
              transform="matrix(1.0996 .49615 -.48765 1.11878 -124.182 -725.7) translate(1522.06 267.718) scale(197.491)"
            ></path>
          </g>
        </g>
        <g transform="matrix(.6514 -.52654 .546 .67546 -656.055 840.405)">
          <circle cx="1505.32" cy="273.803" r="114.085" fill="#0057FF"></circle>
          <clipPath id="_clip5">
            <circle cx="1505.32" cy="273.803" r="114.085"></circle>
          </clipPath>
          <g clipPath="url(#_clip5)">
            <path
              fill="#fff"
              fillRule="nonzero"
              d="M.122-.233c0-.021.002-.041.007-.06a.13.13 0 01.024-.052.155.155 0 01.051-.042.488.488 0 01.037-.021.387.387 0 00.043-.027.18.18 0 00.036-.037.088.088 0 00.014-.049.076.076 0 00-.013-.046.079.079 0 00-.036-.029.1.1 0 00-.046-.01.11.11 0 00-.052.012.172.172 0 00-.066.068l-.087-.06A.208.208 0 01.157-.7a.247.247 0 01.228.032c.02.015.036.036.048.06a.2.2 0 01.018.088.163.163 0 01-.028.101.188.188 0 01-.034.035.473.473 0 01-.043.031l-.052.031a.142.142 0 00-.044.035.08.08 0 00-.018.054h-.11zM.124 0v-.138h.111V0H.124z"
              transform="matrix(1.0996 .49615 -.48765 1.11878 -124.182 -725.7) translate(1522.06 267.718) scale(197.491)"
            ></path>
          </g>
        </g>
        <g transform="matrix(1.32008 0 0 1.29377 -417.717 -120.27)">
          <ellipse
            cx="1043.66"
            cy="619.099"
            fill="none"
            rx="382.563"
            ry="390.93"
          ></ellipse>
          <clipPath id="_clip6">
            <ellipse
              cx="1043.66"
              cy="619.099"
              rx="382.563"
              ry="390.93"
            ></ellipse>
          </clipPath>
          <g clipPath="url(#_clip6)">
            <path
              fill="#D08A5A"
              fillRule="nonzero"
              d="M114.874 177.918c-9.967-12.162-27.063 2.159-43.024 7.529-15.961 5.371-36.3 38.068-45.115 52.05C17.919 251.478 5.051 304.041.124 332.96c-3.611 21.196-5.614 98.665 26.504 58.8 38.028-47.196 64.462-160.25 88.246-213.842z"
              transform="matrix(1.46821 0 0 1.54576 773.72 296.962)"
            ></path>
            <path
              fill="#D08A5A"
              fillRule="nonzero"
              d="M325.902 405.637c-31.389-18.36-58.383-46.025-67.154-86.612-.379 13.613 24.874 6.167-9.89 80.797-7.568 16.247-114.329 32.607-170.146 2.136 0 0-108.389 56.584-80.666-36.233 3.346-11.215 27.259-90.573 37.052-96.982 9.793-6.409 5.905-9.305 17.601-8.854 10.568-59.474 36.999-57.684 51.765-68.989 9.552-7.311 20.911-12.817 32.93-13.284 28.59-1.113 51.103 25.296 79.226 30.561 11.742 2.197 60.903-37.585 66.981-12.276 2.038 8.493 20.459 19.098 20.015 27.415-.948 17.473-14.871 24.099-3.626 25.604a321.484 321.484 0 0116.345 84.191"
              transform="matrix(1.46821 0 0 1.54576 773.72 296.962)"
            ></path>
            <path
              fill="#D08A5A"
              fillRule="nonzero"
              d="M133.881 61.633c-13.246 29.358-10.802 83.092-24.318 100.562-42.505 54.946-54.526 60.902-44.59 77.556 29.764 49.861 81.905 68.297 133.142 74.78 64.37 8.154 109.493 0 129.618-26.371 15.033-19.699-33.659-36.938-34.363-88.959-.293-21.459 14.464-74.536 15.818-93.107 3.159-43.273-25.084-73.39-48.485-80.986 2.475 3.505 6.611 5.062 10.598 2.459 5.604-3.656 3.411-7.898-.339-9.951a9.942 9.942 0 00-11.418 1.137s2.618-1.642 2.806-1.752c2.414-1.459 3.159-4.701 3.234-6.152.151-2.888-.308-7.928-3.956-10.02a6.58 6.58 0 00-8.567 2.045c-2.274 4.169.15 12.832-4.829 11.787-45.001-9.847-88.934-9.359-114.351 46.972z"
              transform="matrix(1.46821 0 0 1.54576 773.72 296.962)"
            ></path>
            <path
              fillOpacity="0.05"
              fillRule="nonzero"
              d="M292.453 125.899c7.777-36.931-41.979-51.08-67.605-56.48-25.625-5.399-80.038-13.193-87.815 23.738-7.778 36.931 20.707 74.202 63.626 83.242 42.919 9.041 84.008-13.566 91.794-50.5z"
              transform="matrix(1.46821 0 0 1.54576 773.72 296.962)"
            ></path>
            <path
              fill="#F2D2B6"
              fillRule="nonzero"
              d="M239.496 52.38c34.135-2.64 46.797 13.201 52.125 28.53 4.14 11.915 6.907 31.237 3.05 42.13-1.516 4.288-2.937 9.98-5.277 13.885a68.228 68.228 0 01-30.921 26.86c-14.052 5.844-29.848 10.603-57.966 4.85L220.925 50.53c7.544 3.512 15.765 2.068 18.571 1.85z"
              transform="matrix(1.46821 0 0 1.54576 773.72 296.962)"
            ></path>
            <path
              fill="#F2D2B6"
              fillRule="nonzero"
              d="M137.689 107.829c-.789-4.497-.074-10.32.046-14.871.308-11.56 9.862-28.582 18.037-38.195 10.522-12.373 28.115-22.558 59.211-7.718 2.557 1.219 9.635 6.308 17.985 5.774l-21.982 117.86c-28.47-4.821-42.851-16.03-53.945-26.582a68.51 68.51 0 01-19.352-36.268z"
              transform="matrix(1.46821 0 0 1.54576 773.72 296.962)"
            ></path>
            <path
              fill="#D9A171"
              fillRule="nonzero"
              d="M215.943 93.103c-15.103-2.61-25.123 15.253-27.649 21.504-2.527 6.251-8.124 17.698-5.837 24.716.594 1.805 1.128 5.325 12.561 8.116 6.733 1.642 11.816 1.082 19.467 3.648 9.601 3.219 17.112 1.67 19.767-4.483 3.499-8.116 2.588-16.232 2.159-23.98-1.183-21.164-11.66-28.001-20.468-29.521zM190.91 63.085a15.844 15.844 0 016.386 10.372 34.993 34.993 0 01-2.212 16.021 20.047 20.047 0 01-8.236 9.921c-4.896 2.791-11.688 2.527-15.713 1.376-3.761-1.068-10.004-4.295-16.058-5.002a22.27 22.27 0 00-8.041.971c-3.43 1.413-8.913 6.948-10.817 11.496-1.452-7.01-1.121-10.891-.677-16.646a46.324 46.324 0 014.548-16.322 58.082 58.082 0 014.069-8.018s5.905-2.219 8.464-3.092c4.949-1.693 8.312-3.452 13.42-4.573a38.046 38.046 0 0112.011-.496c4.236.307 10.533 2.247 12.856 3.992z"
              transform="matrix(1.46821 0 0 1.54576 773.72 296.962)"
            ></path>
            <path
              fill="#523618"
              fillOpacity="0.1"
              fillRule="nonzero"
              d="M144.081 67.274l-.008.015a57.104 57.104 0 00-3.196 6.122 54.246 54.246 0 00-5.355 17.894c-.196 2.045-.369 5.1-.331 6.784.04 3.405.378 6.801 1.01 10.147a18.967 18.967 0 013.152-5.108 45.41 45.41 0 01-1.053-8.739c.158-3.664.758-11.133 3.015-17.044a77.611 77.611 0 014.852-10.853c-1.057.391-2.065.751-2.086.782z"
              transform="matrix(1.46821 0 0 1.54576 773.72 296.962)"
            ></path>
            <path
              fill="#D08A5A"
              fillRule="nonzero"
              d="M144.155 67.251c-4.084 8.212-6.137 12.997-7.634 20.331-1.474 7.251-1.836 16.495.55 24.204-3.115-5.385-3.265-11.268-2.881-17.481a75.538 75.538 0 013.957-18.202 18.157 18.157 0 012.174-4.957 11.307 11.307 0 013.834-3.895z"
              transform="matrix(1.46821 0 0 1.54576 773.72 296.962)"
            ></path>
            <g fillRule="nonzero">
              <path
                fill="#D9A171"
                d="M255.642 76.743a15.847 15.847 0 00-10.026 6.913 34.892 34.892 0 00-4.438 15.555 20.077 20.077 0 003.537 12.396c3.356 4.528 9.681 7.025 13.825 7.596 3.874.535 10.891.105 16.713 1.903a22.267 22.267 0 016.972 4.13c2.565 2.678 5.363 9.695 5.266 14.637a49.09 49.09 0 007.318-14.713 46.35 46.35 0 002.43-16.766 69.308 69.308 0 00-.369-8.996s-4.634-4.392-6.628-6.228c-3.85-3.55-6.213-6.506-10.432-9.601a38.138 38.138 0 00-10.794-5.306c-3.997-1.414-10.547-2.175-13.374-1.52z"
                transform="matrix(1.46821 0 0 1.54576 773.72 296.962)"
              ></path>
              <path
                fill="#523618"
                fillOpacity="0.1"
                d="M296.859 99.406s.339 2.865.379 6.964a54.341 54.341 0 01-2.317 18.541c-.647 1.948-1.722 4.821-2.437 6.341a51.888 51.888 0 01-5.009 8.627 16.481 16.481 0 00-.835-5.694 45.903 45.903 0 004.49-7.58c1.332-3.411 3.799-10.485 4.115-16.811.272-4.001.24-8.016-.098-12.012.822.781 1.607 1.519 1.712 1.624z"
                transform="matrix(1.46821 0 0 1.54576 773.72 296.962)"
              ></path>
            </g>
            <path
              fill="#D08A5A"
              fillRule="nonzero"
              d="M296.959 98.113c.429 9.154.354 15.051-1.24 22.37-1.572 7.229-3.166 13.539-8.465 19.625 5.025-3.67 5.717-6.696 7.876-12.531a75.512 75.512 0 003.723-18.248 18.41 18.41 0 00.015-5.416 13.4 13.4 0 00-1.909-5.8z"
              transform="matrix(1.46821 0 0 1.54576 773.72 296.962)"
            ></path>
            <path
              fillOpacity="0.14"
              fillRule="nonzero"
              d="M229.812 117.503a17.303 17.303 0 01-11.576 8.311 16.99 16.99 0 01-13.712-3.519c-3.168-2.58-5.498-6.86-4.422-10.865a19.022 19.022 0 009.651 4.912c3.575.642 7.205.931 10.838.865 3.023.043 6.055.079 9.221.296z"
              transform="matrix(1.46821 0 0 1.54576 773.72 296.962)"
            ></path>
            <path
              fill="#252525"
              fillRule="nonzero"
              d="M198.89 109.524c1.241-5.845 8.77-8.289 17.571-6.417 8.8 1.872 14.945 7.372 13.704 13.216-1.24 5.844-9.529 9.034-18.337 7.16-8.808-1.873-14.179-8.118-12.938-13.959z"
              transform="matrix(1.46821 0 0 1.54576 773.72 296.962)"
            ></path>
            <path
              fill="#474747"
              fillRule="nonzero"
              d="M218.505 114.525c1.835-2.941 3.648-3.55 4.784-2.829 1.136.722.586 2.844-1.406 4.852a12.879 12.879 0 01-4.169 3.106c-1.126.354-.757-2.662.791-5.129zM210.481 113.142c-.758-3.385-2.256-4.566-3.565-4.258-1.309.308-1.504 2.49-.293 5.04a12.83 12.83 0 002.896 4.316c.932.708 1.588-2.248.962-5.098z"
              transform="matrix(1.46821 0 0 1.54576 773.72 296.962)"
            ></path>
            <path
              fill="#474747"
              fillRule="nonzero"
              d="M218.505 114.525c1.835-2.941 3.648-3.55 4.784-2.829 1.136.722.586 2.844-1.406 4.852a12.879 12.879 0 01-4.169 3.106c-1.126.354-.757-2.662.791-5.129zM210.481 113.142c-.758-3.385-2.256-4.566-3.565-4.258-1.309.308-1.504 2.49-.293 5.04a12.83 12.83 0 002.896 4.316c.932.708 1.588-2.248.962-5.098z"
              transform="matrix(1.46821 0 0 1.54576 773.72 296.962)"
            ></path>
            <path
              fill="#474747"
              fillRule="nonzero"
              d="M218.505 114.525c1.835-2.941 3.648-3.55 4.784-2.829 1.136.722.586 2.844-1.406 4.852a12.879 12.879 0 01-4.169 3.106c-1.126.354-.757-2.662.791-5.129zM210.481 113.142c-.758-3.385-2.256-4.566-3.565-4.258-1.309.308-1.504 2.49-.293 5.04a12.83 12.83 0 002.896 4.316c.932.708 1.588-2.248.962-5.098z"
              transform="matrix(1.46821 0 0 1.54576 773.72 296.962)"
            ></path>
            <path
              fill="#252525"
              fillOpacity="0.67"
              fillRule="nonzero"
              d="M224.141 109.292a48.397 48.397 0 01-6.003 9.041c-.289.423-.653.79-1.075 1.083a1.458 1.458 0 01-1.459.089 1.435 1.435 0 01-.503-.685 1.433 1.433 0 01-.03-.85 4.258 4.258 0 01.805-1.527c.978-1.37 1.955-2.73 2.933-4.1a9.813 9.813 0 012.148-2.4 3.947 3.947 0 013.184-.651zM206.457 106.921c1.03 3.46 2.057 6.92 3.083 10.38.082.358.235.695.451.992a.931.931 0 00.978.331c.497-.188.586-.835.572-1.361a20.445 20.445 0 00-2.737-9.079 3.348 3.348 0 00-1.098-1.354c-.504-.308-1.362-.263-1.249.091z"
              transform="matrix(1.46821 0 0 1.54576 773.72 296.962)"
            ></path>
            <g fillRule="nonzero">
              <path
                fill="#fff"
                d="M190.895 81.452c3.31-14.081-11.568-16.728-11.568-16.728s-14.472 4.656-15.826 14.894c-1.355 10.238 3.783 17.661 11.37 17.856 8.119.203 13.664-5.967 16.024-16.022z"
                transform="matrix(1.46821 0 0 1.54576 773.72 296.962)"
              ></path>
              <path
                fill="#D39266"
                d="M185.284 66.274c-12.886-6.799-20.519 9.343-20.473 9.275a65.413 65.413 0 017.657-1.406c12.479-.632 18.823 5.475 18.823 5.475s2.425-8.892-6.007-13.344z"
                transform="matrix(1.46821 0 0 1.54576 773.72 296.962)"
              ></path>
              <path
                stroke="#000"
                strokeWidth="1.26"
                d="M181.388 86.288a4.197 4.197 0 110-8.394 4.197 4.197 0 010 8.394z"
                transform="matrix(1.46821 0 0 1.54576 773.72 296.962)"
              ></path>
              <path
                fill="#fff"
                d="M181.9 82.543a1.895 1.895 0 110-3.79 1.895 1.895 0 010 3.79z"
                transform="matrix(1.46821 0 0 1.54576 773.72 296.962)"
              ></path>
              <path
                fillOpacity="0.14"
                d="M164.065 77.27a15.783 15.783 0 00-.744 4.347 19.584 19.584 0 001.197 8.109c.812 2.21 3.896 7.868 10.748 7.74-12.042-11.26-2.527-28.172 1.594-32.652-5.935 1.238-10.727 7.115-12.795 12.456z"
                transform="matrix(1.46821 0 0 1.54576 773.72 296.962)"
              ></path>
            </g>
            <path
              fill="#fff"
              fillRule="nonzero"
              d="M248.984 93.684c2.653-14.224 17.338-10.644 17.338-10.644s11.37 10.107 8.465 20.008c-2.906 9.9-10.583 14.629-17.601 11.749-7.517-3.077-10.097-10.967-8.202-21.113z"
              transform="matrix(1.46821 0 0 1.54576 773.72 296.962)"
            ></path>
            <path
              fill="#D39266"
              fillRule="nonzero"
              d="M260.237 82.061c14.528-1.023 15.006 16.827 14.991 16.743a65.74 65.74 0 00-6.443-4.37c-11.163-5.611-19.429-2.579-19.429-2.579s1.366-9.124 10.881-9.794z"
              transform="matrix(1.46821 0 0 1.54576 773.72 296.962)"
            ></path>
            <path
              fillRule="nonzero"
              stroke="#000"
              strokeWidth="1.26"
              d="M257.425 102.302a4.197 4.197 0 110-8.393 4.197 4.197 0 010 8.393z"
              transform="matrix(1.46821 0 0 1.54576 773.72 296.962)"
            ></path>
            <path
              fill="#fff"
              fillRule="nonzero"
              d="M257.537 98.473a1.894 1.894 0 11-.001-3.789 1.894 1.894 0 01.001 3.789z"
              transform="matrix(1.46821 0 0 1.54576 773.72 296.962)"
            ></path>
            <path
              fillOpacity="0.14"
              fillRule="nonzero"
              d="M275.22 100.678a15.55 15.55 0 01-1.075 4.28 19.744 19.744 0 01-4.363 6.948c-1.642 1.701-6.732 5.627-12.96 2.746 15.562-5.447 13.682-24.762 11.711-30.524 4.935 3.515 6.951 10.833 6.687 16.55z"
              transform="matrix(1.46821 0 0 1.54576 773.72 296.962)"
            ></path>
            <path
              fill="#523618"
              fillOpacity="0.14"
              fillRule="nonzero"
              d="M252.775 3.491a40.692 40.692 0 00-1.234 8.07 5.452 5.452 0 01-1.105 2.753 2.381 2.381 0 01-1.828.405s3.399 4.859 2.926 8.696c-1.516 12.223-6.807 26.055-16.886 28.537 49.214 6.86 72.043 66.578 4.084 118.107 16.901 6.529 60.595 110.735-55.194 130.328 5.65-2.542 131.563-22.016 136.44-25.657 2.257-1.693 8.74 22.956 10.36 21.466 1.046-.962-4.558 1.708-2.587-.505.97-1.09 6.882-3.685 7.356-4.303.253-.323.647-.797 1.069-1.39a25.782 25.782 0 001.805-2.715 13.654 13.654 0 001.28-3.284c.301-1.23.378-2.504.226-3.761-.03-2.653-2.226-6.717-2.355-6.957a56.868 56.868 0 00-5.19-7.545c-11.914-13.6-30.898-28.161-36.449-49.222a72.62 72.62 0 01-1.895-23.573c3.971-36.472 10.041-49.937 13.719-73.937a110.248 110.248 0 002.022-15.653 70.929 70.929 0 00-.331-12.449 65.603 65.603 0 00-1.174-7.965 74.607 74.607 0 00-2.76-10.425c-5.138-14.42-11.546-22.25-11.9-22.716-.331-.429-4.611-5.612-5.092-6.16a104.256 104.256 0 00-8.823-8.251 80.878 80.878 0 00-10.298-6.769 8.528 8.528 0 002.994-1.516 6.909 6.909 0 002.717-3.896c.526-2.949-2.46-5.597-5.685-6.476a10.498 10.498 0 00-6.748.406 9.796 9.796 0 002.159-2.31c.85-1.406 2.009-4.528.639-9.327a7.796 7.796 0 00-3.663-4.836c-2.167-1.226-4.393-.428-6.168.196a5.154 5.154 0 00-2.431 2.634z"
              transform="matrix(1.46821 0 0 1.54576 773.72 296.962)"
            ></path>
            <path
              fill="#141414"
              fillOpacity="0.14"
              fillRule="nonzero"
              d="M229.827 132.856a41.579 41.579 0 01-38.038-5.648c-.203-.151 6.521 15.247 15.773 16.297 14.608 1.641 22.341-10.672 22.265-10.649z"
              transform="matrix(1.46821 0 0 1.54576 773.72 296.962)"
            ></path>
            <path
              fill="#252525"
              fillRule="nonzero"
              d="M233.573 130.019c-13.479 4.548-33.758.985-43.89-6.672-.203-.15 7.861 16.239 18.662 19.022 14.698.005 25.291-12.376 25.228-12.35z"
              transform="matrix(1.46821 0 0 1.54576 773.72 296.962)"
            ></path>
            <path
              fill="#E0A2A2"
              fillRule="nonzero"
              d="M217.65 140.746a5.403 5.403 0 00-5.07-4.024c-1.301-.166-3.995.557-3.941 1.685.519-.925-.662-2.045-2.053-2.339a5.979 5.979 0 00-4.505.744 6.916 6.916 0 00-1.505 1.158s3.641 4.115 7.769 4.4a24.885 24.885 0 009.305-1.624z"
              transform="matrix(1.46821 0 0 1.54576 773.72 296.962)"
            ></path>
            <path
              fill="#BE7E51"
              fillRule="nonzero"
              d="M286.489 199.012c-27.499 56.991-81.633 79.549-124.048 62.156-54.45-22.332-59.919-79.633-60.994-87.688-4.701 8.981-.85 17.007 2.148 26.694 5.22 16.857 11.771 33.731 23.203 47.177 14.69 17.277 36.969 27.605 59.63 28.642 22.66 1.037 45.43-6.957 63.122-21.158s30.29-34.367 36.939-55.823z"
              transform="matrix(1.46821 0 0 1.54576 773.72 296.962)"
            ></path>
            <path
              fillRule="nonzero"
              d="M312.146 401.042a4.94 4.94 0 01-2.061 2.587 8.27 8.27 0 00-1.369-2.332 9.578 9.578 0 003.43-.255z"
              transform="matrix(1.46821 0 0 1.54576 773.72 296.962)"
            ></path>
            <path
              fill="#232D40"
              fillRule="nonzero"
              d="M292.994 206.117c-11.148 13.096-65.033 78.97-125.658 61.896-62.671-17.654-65.89-94.541-65.89-94.541s-15.442.031-22.487 2.956c-20.746 8.597-37.369 27.079-47.206 47.394 8.635.379 22.189 4.355 30.794 8.289-4.288 9.674-6.078 24.105-7.102 28.551-1.023 4.446-7.431 23.906-10.21 38.941-2.56 13.845-12.013 108.463-12.013 108.463s14.419 2.899 99.11 5.212c48.72 1.33 187.135-.682 187.277-3.517 0 0-18.832-30.233-19.11-50.346-.985-71.404-16.623-81.991-16.55-82.228 1.355-4.318 10.644 3.285 18.594 7.822 7.95 4.538-1.211 2.148.204 11.185-.242-17.698 13.809-8.439 11.749-21.573-2.061-13.134 4.107-13.448 12.633-23.648 1.903-2.274-13.087-3.411-12.002-6.175 1.678-4.243-.196-21.617-5.432-25.047-3.808-2.48 1.225-8.58-16.701-13.634z"
              transform="matrix(1.46821 0 0 1.54576 773.72 296.962) matrix(1 0 0 1.02254 0 -3.91)"
            ></path>
            <path
              fill="#fff"
              d="M27.669 111.812a189.01 189.01 0 0143.717-6.976c.578-.024 1.064.326 1.064.763a.9.9 0 01-.951.761c-4.454.19-23.769 1.22-41.334 5.451 0 .065-2.5.39-2.5 0M66.96 96.017a7.524 7.524 0 011.019-1.6c.095.047-.111.748-.653 1.691a11.668 11.668 0 01-1.59 2.152c.113-.275.811-1.515 1.224-2.241m-29.311.748c.336-.059.682.009.969.192.4.301.695.721.843 1.2a2.25 2.25 0 01-.477 1.638c-.352.5-.769 1.26-1.007 1.689l-.016.028-.042.077c-.142.263-.318.409-.621.142a.948.948 0 01-.283-.342.942.942 0 01-.099-.433c.082-.62.335-1.204.732-1.687.4-.619.827-1.347.605-1.471-.589-.334-4.07 2.373-4.151 4.141-.047 1.015 2.13 1.6 2.751 1.944a.836.836 0 01.479.716c-.063.49-.281.947-.621 1.305a3.332 3.332 0 01-2.148 1.064 4.945 4.945 0 01-3.96-1.493c-.222-.231-.111-.413.111-.52a2.32 2.32 0 01.492-.111c.426-.075.865.002 1.24.218a4.304 4.304 0 002.593.91c.314-.021.611-.146.845-.356a.404.404 0 00.153-.324.395.395 0 00-.169-.317c-1.145-.7-3.356-1.238-3.356-2.8 0-2.079 2.48-4.227 3.912-5a3.255 3.255 0 011.224-.421l.001.011zm29.8-3.673c.3-.33.587-.459.89-.225a1.27 1.27 0 01.524 1.046c.004.222-.029.443-.095.655a10.804 10.804 0 01-3.625 5.006 6.329 6.329 0 00-.524 2.073c0 .366.095.613.3.585.732-.1 1.653-1.244 2.259-2.425a.734.734 0 01.2-.253c.332-.526.726-1.11 1.137-1.651a.67.67 0 01-.3-.526 2.799 2.799 0 011.512-2.068c.334-.044.477.121.477.471-.034.432-.13.857-.285 1.262a4.608 4.608 0 001.288-.813c.271-.22.429-.271.637-.1a1.302 1.302 0 01.461.918 1.044 1.044 0 01-.255.629c-.858 1.062-1.764 2.389-1.764 3.291 0 .4.127.625.35.6.54-.071 1.177-1.011 1.669-2.132.127-.293.35-.336.492-.081a1.229 1.229 0 01-.047 1 3.086 3.086 0 01-2.223 1.82 1.207 1.207 0 01-1.5-1.286 6.686 6.686 0 011.638-3.3 3.774 3.774 0 01-1.161.4 22.296 22.296 0 00-2.322 4.757c-.063.283-.271.449-.556.2a1.01 1.01 0 01-.38-.659 3.068 3.068 0 01-1.307.546 1.204 1.204 0 01-1.491-.8 3.65 3.65 0 01-2.136 1.331c-1.082.142-1.669-.344-1.669-1.171.009-.354.09-.702.237-1.024.255-.554.779-1.448 1.145-2.047.35-.552.732-1.06.6-1.042-.132.018-.461.214-1.4 1.24a15.738 15.738 0 00-2.672 4.42c-.158.312-.382.388-.637.176a.898.898 0 01-.35-.8 4.01 4.01 0 01.287-1.171c.337-.753.73-1.48 1.177-2.174.429-.744.876-1.384.732-1.365a5.592 5.592 0 00-1.7 1.57 15.523 15.523 0 00-2.235 4.001c-.113.259-.287.376-.558.182a.873.873 0 01-.273-.3 2.96 2.96 0 01-1.428.682c-.937.125-1.416-.257-1.479-.935a3.445 3.445 0 01-2.067 1.329.865.865 0 01-1.024-.52 3.45 3.45 0 01-1.792.939 1.263 1.263 0 01-1.149-.271 1.264 1.264 0 01-.43-1.1 7.739 7.739 0 011.719-3.469 4.377 4.377 0 01-1.24.439c-1.145 2.6-2.927 4.913-4.946 5.18a1.765 1.765 0 01-2.112-.983 1.768 1.768 0 01-.147-.827 4.288 4.288 0 01.477-1.822 4.862 4.862 0 013.022-2.816c.186-.035.379-.018.556.049.385.141.714.404.937.748.237.457-.016 1.04-.318 1.679-.01.024-.022.047-.034.071l-.012.024a4.359 4.359 0 00-.241.568c-.111.336-.174.421-.572.275a.829.829 0 01-.558-.813c.07-.393.193-.775.366-1.135.158-.342.318-.668.239-.72-.208-.127-1.224.943-1.893 2.33a4.379 4.379 0 00-.477 1.76c0 .643.271 1.034.732 1 1.558-.146 3.259-2.6 4.086-4.592a.58.58 0 01-.445-.613 2.903 2.903 0 011.59-2.152c.334-.044.461.138.461.475-.036.454-.137.9-.3 1.325.506-.2.974-.484 1.384-.841.237-.2.492-.295.7-.109a1.362 1.362 0 01.445.981 1.038 1.038 0 01-.271.649 9.956 9.956 0 00-1.717 2.795 2.26 2.26 0 00-.127.7c0 .382.127.6.366.579.5-.024 1.319-.979 1.816-2.011a20.098 20.098 0 012.13-4.06.42.42 0 01.318-.227.414.414 0 01.366.136.99.99 0 01.237.672 8.51 8.51 0 01-.987 2.328l-.045.089c-.251.489-.5.975-.684 1.388-.287.649-.334 1.22.016 1.175.413-.055 1.256-1.206 2.069-2.536.937-1.592 1.351-2.686 1.922-3.465.223-.32.477-.415.668-.18.169.217.254.488.237.763a5.216 5.216 0 01-.89 2.2 7.049 7.049 0 00-1.082 2.5c0 .275.095.415.3.388.384-.051.922-.69 1.408-1.436a32.923 32.923 0 012.409-4.679c.208-.318.445-.334.6-.081.141.207.219.45.223.7a2.186 2.186 0 01-.047.419 4.972 4.972 0 012.085-1.5c.508-.067.843.439.843 1.08A4.825 4.825 0 0162.285 97c.461-.045.716.334.716.839a5.26 5.26 0 01-.985 2.316 4.605 4.605 0 00-.858 1.98c0 .352.158.576.413.542.492-.065 1.272-1.24 1.861-2.249a.619.619 0 01.123-.156 20.029 20.029 0 013.9-7.179l-.006.001z"
              transform="matrix(1.46821 0 0 1.54576 773.72 296.962) matrix(2.55453 .14699 -.18812 3.2693 48.799 11.224)"
            ></path>
            <path
              fillRule="nonzero"
              d="M278.155 239.375c-14.402 62.768-27.192 99.853-14.607 153.806.505 2.148 5.379 23.557 5.379 23.557l19.304-.042 16.459-.386s9.699-.324 10.015-.437c.165-.064 3.835-.297 4.233-.5.397-.202.661-.255.661-.255-2.305-3.779-8.458-15.969-8.458-15.969l-.928-1.843c-1.604-1.678-2.926-3.42-4.333-5.266-5.551-10.651-2.618-17.947-2.032-31.709"
              opacity="0.14"
              transform="matrix(1.46821 0 0 1.54576 773.72 296.962) matrix(1 0 0 1.02528 0 -10.433)"
            ></path>
            <path
              fill="#D08A5A"
              fillRule="nonzero"
              d="M317.689 238.702c-.884-8.169-6.898-13.817-13.411-14.081-6.514-.264-13.186 4.13-18.136 10.359-4.949 6.23-10.106 13.75-11.033 22.159-4.408 39.647.865 68.725 5.912 95.195 6.303 33.035 34.773 51.544 49.561 56.15-3.816-48.856-7.935-123.674-12.893-169.782z"
              transform="matrix(1.46821 0 0 1.54576 773.72 296.962)"
            ></path>
            <path
              fill="#141414"
              fillOpacity="0.14"
              fillRule="nonzero"
              d="M302.029 301.665c-6.363 34.509 26.664 50.019 32.569 77.413 2.249 10.418 1.843 20.346-4.016 29.403a96.972 96.972 0 01-15.539-7.588 82.011 82.011 0 01-18.79-16.661c-1.737-2.204-2.948-3.776-4.986-6.74a70.797 70.797 0 01-6.266-11.824 72.43 72.43 0 01-3.98-13.336c-3.226-15.51-4.942-28.868-6.085-38.368-1.302-10.847-1.475-28.846-1.475-28.846l-1.642.677s.73-19.225 6.333-20.045c4.393-.639 19.106-.091 22.287 2.873 3.181 2.964 2.132 30.115 1.59 33.042z"
              transform="matrix(1.46821 0 0 1.54576 773.72 296.962)"
            ></path>
            <path
              fill="#232D40"
              fillRule="nonzero"
              d="M271.896 291.307c-.379-28.011 6.957-66.439 14.818-75.8 3.219-3.835 4.025-4.092 7.868-5.792 3.843-1.701 11.305 1.226 13.508 4.814 1.37 2.226 1.031 4.13.919 6.74-.737 18.044 2.148 45.033-.601 62.881-2.168-1.343-25.56-.049-36.512 7.157z"
              transform="matrix(1.46821 0 0 1.54576 773.72 296.962)"
            ></path>
            <path
              fill="#F2DFA7"
              fillRule="nonzero"
              d="M267.984 174.074a.057.057 0 01.009-.04.06.06 0 01.031-.025.064.064 0 01.041.001.06.06 0 01.031.026c6.965 11.673 15.187 22.614 23.694 27.717 8.53 5.116 15.517 5.356 22.956.211a.057.057 0 01.029-.011c.01-.001.021 0 .03.004.01.003.019.01.026.018a.068.068 0 01.013.027 8.658 8.658 0 01-1.354 6.717c-1.218 1.655-4.43 1.516-4.566 3.362-.624 8.884-19.812 1.083-23.731-2.302a52.171 52.171 0 01-17.209-35.705z"
              transform="matrix(1.46821 0 0 1.54576 773.72 296.962)"
            ></path>
            <path
              fill="#141414"
              fillOpacity="0.14"
              fillRule="nonzero"
              d="M312.183 203.53c-8.23 4.042-13.675 1.624-17.217-.067a32.158 32.158 0 01-8.711-5.898c-6.378-5.829-9.538-10.282-15.074-18.533.474 4.393 6.868 20.719 16.096 27.703 5.085 3.85 11.441 5.551 17.609 7.168 6.084-1.242 6.336-7.832 7.297-10.373z"
              transform="matrix(1.46821 0 0 1.54576 773.72 296.962)"
            ></path>
            <path
              fill="#F2DFA7"
              fillRule="nonzero"
              d="M327.279 161.108c2.527-.253 1.39-7.056-.707-12.982a.134.134 0 01.007-.086.137.137 0 01.14-.084c.03.003.057.015.079.035 5.995 5.325 10.516 23.091 10.591 31.049.083 8.011-2.768 20.098-2.768 20.142l-3.212-7.092"
              transform="matrix(1.46821 0 0 1.54576 773.72 296.962)"
            ></path>
            <path
              fill="#141414"
              fillOpacity="0.14"
              fillRule="nonzero"
              d="M327.813 152.201c6.197 16.097 6.761 35.398 3.076 50.554 2.053-12.05-2.174-34.502-2.174-45.063a25.66 25.66 0 00-.902-5.491z"
              transform="matrix(1.46821 0 0 1.54576 773.72 296.962)"
            ></path>
            <path
              fill="#F2DFA7"
              fillRule="nonzero"
              d="M329.423 204.756c8.711-22.716 2.964-45.386-9.747-65.101a.165.165 0 00-.089-.067.166.166 0 00-.112.006.163.163 0 00-.093.188c5.521 30.38 3.446 43.273 5.251 62.941 0 .021.005.042.013.061a.164.164 0 00.088.083.157.157 0 00.215-.151c.3-8.243 2.06-17.074-.963-24.382a39.373 39.373 0 00-19.329-19.391c-9.312-3.904-25.988-2.249-36.849 11.875a.161.161 0 00.082.261.167.167 0 00.106-.008c39.347-15.287 43.393 11.846 44.537 18.428 1.038 5.972 2.542 12.633 2.368 18.797a.15.15 0 01-.126.15c-.894.204-5.332 2.047 14.528-3.572a.16.16 0 00.076-.043.147.147 0 00.044-.075z"
              transform="matrix(1.46821 0 0 1.54576 773.72 296.962)"
            ></path>
            <path
              fill="#141414"
              fillOpacity="0.14"
              fillRule="nonzero"
              d="M328.391 200.242a9.413 9.413 0 00-6.167.459c3.068-19.329-.008-44.025-1.482-52.833.692 1.031 11.861 20.618 7.649 52.374z"
              transform="matrix(1.46821 0 0 1.54576 773.72 296.962)"
            ></path>
            <path
              fill="#F2DFA7"
              fillRule="nonzero"
              d="M327.76 203.138c-.008.203-.151-.091-.008.061 14.156 14.96 6.16-32.915-21.309-44.055-9.816-3.98-27.318-2.452-38.624 11.591-.104.126.046.308.204.252 41.219-14.998 45.679 12.2 46.935 18.798 1.137 5.987 2.78 12.658 2.633 18.841a.152.152 0 01-.126.15c-.94.196-5.589 2.001 15.239-3.468.05-.011-4.646-11.925-4.944-2.17z"
              transform="matrix(1.46821 0 0 1.54576 773.72 296.962)"
            ></path>
            <path
              fill="#141414"
              fillOpacity="0.14"
              fillRule="nonzero"
              d="M323.691 200.303c-1.541-14.961-6.513-29.245-21.632-35.924-6.77-2.994-20.087-1.798-27.799 4.497 14.99-4.362 22.828-2.274 28.454 1.625 4.904 3.399 7.634 9.342 8.793 14.102 1.413 5.8 2.324 11.847 3.167 17.894 2.06-.917 3.633-2.083 5.685-3 .399-.164 2.775-.293 3.332.806z"
              transform="matrix(1.46821 0 0 1.54576 773.72 296.962)"
            ></path>
            <path
              fill="#D08A5A"
              fillRule="nonzero"
              d="M332.623 196.407a3.01 3.01 0 012.022.736c12.493 11.321 22.324 30.839 26.039 54.051 2.837 17.72 9.997 36.556 12.634 64.265 6.544 68.666-24.702 85.47-41.144 92.751a3.373 3.373 0 01-2.58.053c-51.863-20.008-46.454-88.786-28.612-150.716 5.092-17.687 5.739-39.233 8.582-50.824 1.679-6.867 13.684-10.354 23.059-10.316z"
              transform="matrix(1.46821 0 0 1.54576 773.72 296.962)"
            ></path>
            <path
              fill="#141414"
              fillOpacity="0.14"
              fillRule="nonzero"
              d="M353.424 225.079c5.905 13.697 6.98 25.913 9.883 38.767 4.935 21.843 8.62 33.908 10.064 51.613 1.038 12.712 1.406 27.003-.782 39.332a87.52 87.52 0 01-4.054 15.735 68.353 68.353 0 01-14.773 23.701c-6.251 6.348-16.065 11.779-21.797 14.089a3.87 3.87 0 01-1.941.068 76.322 76.322 0 01-12.734-6.101c7.372-35.156 28.507-64.682 30.419-100.561 1.911-35.879-2.325-72.306-16.55-105.289 1.88-.015 2.226-.105 3.166.436.312.219.605.465.873.737.489.443.978.917 1.678 1.617a71.568 71.568 0 017.288 8.777 97.637 97.637 0 019.26 17.079zM211.242 136.781a5.772 5.772 0 00-3.046 3.799c.136-.88.325-1.752.565-2.61.074-.083.36-.791 2.481-1.189z"
              transform="matrix(1.46821 0 0 1.54576 773.72 296.962)"
            ></path>
          </g>
          <ellipse
            cx="1043.66"
            cy="619.099"
            fill="none"
            stroke="#232D40"
            strokeLinecap="round"
            strokeLinejoin="round"
            strokeMiterlimit="1.5"
            strokeWidth="7.65"
            rx="382.563"
            ry="390.93"
          ></ellipse>
        </g>
      </g>
    </svg>