<?xml version="1.0" encoding="UTF-8" standalone="no"?>
<!DOCTYPE svg PUBLIC "-//W3C//DTD SVG 1.1//EN" "http://www.w3.org/Graphics/SVG/1.1/DTD/svg11.dtd">
<svg width="100%" height="100%" viewBox="0 0 1829 1279" version="1.1" xmlns="http://www.w3.org/2000/svg" xmlnsXlink="http://www.w3.org/1999/xlink" xmlSpace="preserve" style="fill-rule:evenodd;clip-rule:evenodd;stroke-linecap:round;stroke-linejoin:round;stroke-miterlimit:1.5;">
    <g transform="matrix(1,0,0,1,-379,-77)">
        <g id="Ebene-3" serifid="Ebene 3" transform="matrix(1.33333,0,0,1.33333,0,0)">
            <g id="_4L---Squares" serifid="4L - Squares" transform="matrix(1,0,0,1,0,-35.25)">
                <g transform="matrix(0.687201,0,0,0.67552,173.914,108.7)">
                    <rect x="1771.23" y="619.107" width="256.477" height="258.392" style="fill:rgb(255,170,90);"/>
                </g>
                <g transform="matrix(0.867537,0,0,0.866667,-233.274,-113.859)">
                    <rect x="1771.23" y="619.107" width="256.477" height="258.392" style="fill:rgb(24,216,171);stroke:rgb(24,216,171);stroke-width:8.07px;"/>
                </g>
                <g transform="matrix(0.867537,0,0,0.866667,-185.902,-53.5675)">
                    <path d="M2031.74,638.248C2031.74,640.477 2029.93,642.286 2027.7,642.286C2025.48,642.286 2023.67,640.477 2023.67,638.248L2023.67,623.146L2008.7,623.146C2006.48,623.146 2004.67,621.336 2004.67,619.107C2004.67,616.879 2006.48,615.069 2008.7,615.069L2027.7,615.069C2029.93,615.069 2031.74,616.877 2031.74,619.107L2031.74,638.248ZM1961.21,615.069C1963.43,615.069 1965.24,616.879 1965.24,619.107C1965.24,621.336 1963.43,623.146 1961.21,623.146L1923.21,623.146C1920.99,623.146 1919.18,621.336 1919.18,619.107C1919.18,616.879 1920.99,615.069 1923.21,615.069L1961.21,615.069ZM1875.72,615.069C1877.94,615.069 1879.75,616.879 1879.75,619.107C1879.75,621.336 1877.94,623.146 1875.72,623.146L1837.72,623.146C1835.49,623.146 1833.68,621.336 1833.68,619.107C1833.68,616.879 1835.49,615.069 1837.72,615.069L1875.72,615.069ZM1790.22,615.069C1792.45,615.069 1794.26,616.879 1794.26,619.107C1794.26,621.336 1792.45,623.146 1790.22,623.146L1775.26,623.146L1775.26,638.248C1775.26,640.477 1773.45,642.286 1771.23,642.286C1769,642.286 1767.19,640.477 1767.19,638.248L1767.19,619.107C1767.19,616.877 1769,615.069 1771.23,615.069L1790.22,615.069ZM1767.19,686.098C1767.19,683.869 1769,682.059 1771.23,682.059C1773.45,682.059 1775.26,683.869 1775.26,686.098L1775.26,724.378C1775.26,726.607 1773.45,728.417 1771.23,728.417C1769,728.417 1767.19,726.607 1767.19,724.378L1767.19,686.098ZM1767.19,772.228C1767.19,770 1769,768.19 1771.23,768.19C1773.45,768.19 1775.26,770 1775.26,772.228L1775.26,810.509C1775.26,812.737 1773.45,814.547 1771.23,814.547C1769,814.547 1767.19,812.737 1767.19,810.509L1767.19,772.228ZM1767.19,858.359C1767.19,856.13 1769,854.32 1771.23,854.32C1773.45,854.32 1775.26,856.13 1775.26,858.359L1775.26,873.461L1790.22,873.461C1792.45,873.461 1794.26,875.27 1794.26,877.499C1794.26,879.728 1792.45,881.537 1790.22,881.537L1771.23,881.537C1769,881.537 1767.19,879.729 1767.19,877.499L1767.19,858.359ZM1837.72,881.537C1835.49,881.537 1833.68,879.728 1833.68,877.499C1833.68,875.27 1835.49,873.461 1837.72,873.461L1875.72,873.461C1877.94,873.461 1879.75,875.27 1879.75,877.499C1879.75,879.728 1877.94,881.537 1875.72,881.537L1837.72,881.537ZM1923.21,881.537C1920.99,881.537 1919.18,879.728 1919.18,877.499C1919.18,875.27 1920.99,873.461 1923.21,873.461L1961.21,873.461C1963.43,873.461 1965.24,875.27 1965.24,877.499C1965.24,879.728 1963.43,881.537 1961.21,881.537L1923.21,881.537ZM2008.7,881.537C2006.48,881.537 2004.67,879.728 2004.67,877.499C2004.67,875.27 2006.48,873.461 2008.7,873.461L2023.67,873.461L2023.67,858.359C2023.67,856.13 2025.48,854.32 2027.7,854.32C2029.93,854.32 2031.74,856.13 2031.74,858.359L2031.74,877.499C2031.74,879.729 2029.93,881.537 2027.7,881.537L2008.7,881.537ZM2031.74,810.509C2031.74,812.738 2029.93,814.547 2027.7,814.547C2025.48,814.547 2023.67,812.738 2023.67,810.509L2023.67,772.228C2023.67,769.999 2025.48,768.19 2027.7,768.19C2029.93,768.19 2031.74,769.999 2031.74,772.228L2031.74,810.509ZM2031.74,724.378C2031.74,726.607 2029.93,728.416 2027.7,728.416C2025.48,728.416 2023.67,726.607 2023.67,724.378L2023.67,686.098C2023.67,683.869 2025.48,682.059 2027.7,682.059C2029.93,682.059 2031.74,683.869 2031.74,686.098L2031.74,724.378Z" style="fill:rgb(36,44,61);"/>
                </g>
                <g transform="matrix(0.924,0,0,0.912,-364.354,-151.267)">
                    <circle cx="1971.71" cy="801.415" r="48.999" style="fill:rgb(255,170,90);"/>
                </g>
                <g transform="matrix(3.84514,0,0,3.84514,-5943.51,-2174.06)">
                    <g transform="matrix(16,0,0,16,1933.93,720.81)">
                    </g>
                    <text x="1915.45px" y="720.81px" style="font-family:'Raleway-Bold', 'Raleway';font-weight:700;font-size:16px;fill:rgb(36,44,61);">4L</text>
                </g>
            </g>
            <g id="Stats" transform="matrix(1,0,0,1,-1.5,0)">
                <g transform="matrix(0.781847,0,0,0.75,-55.8963,0)">
                    <path d="M1820.04,157.443C1820.04,124.954 1794.74,98.578 1763.57,98.578L1160.55,98.578C1129.38,98.578 1104.08,124.954 1104.08,157.443L1104.08,693.768C1104.08,726.257 1129.38,752.633 1160.55,752.633L1763.57,752.633C1794.74,752.633 1820.04,726.257 1820.04,693.768L1820.04,157.443Z" style="fill:none;stroke:rgb(36,44,61);stroke-width:10.44px;"/>
                </g>
                <g transform="matrix(0.65,0,0,0.728548,134.465,8.78481)">
                    <rect x="1219.7" y="409.5" width="124.947" height="263.123" style="fill:rgb(36,44,61);"/>
                </g>
                <g transform="matrix(0.793859,0,0,0.75,-65.625,0)">
                    <rect x="1415.82" y="288.736" width="100.546" height="375.773" style="fill:rgb(36,44,61);"/>
                </g>
                <g transform="matrix(0.789474,0,0,0.955371,75.3623,-136.471)">
                    <rect x="1415.82" y="288.736" width="100.546" height="375.773" style="fill:rgb(36,44,61);"/>
                </g>
            </g>
            <g id="Document-Circle" serifid="Document Circle">
                <g transform="matrix(0,-1,-1,0,544,317.299)">
                    <path d="M-215.312,-215.312C-333.846,-215.312 -429.936,-118.914 -429.936,0C-429.936,118.914 -333.846,215.312 -215.312,215.312C-96.778,215.312 -0.688,118.914 -0.688,0C-0.688,-118.914 -96.778,-215.312 -215.312,-215.312" style="fill:rgb(24,216,171);"/>
                </g>
                <g id="Document">
                    <g transform="matrix(1,0,0,1,621.427,400.076)">
                        <path d="M0,246.268L-159.439,246.268C-166.039,246.268 -171.439,240.868 -171.439,234.268L-171.439,12C-171.439,5.4 -166.039,0 -159.439,0L0,0C6.6,0 12,5.4 12,12L12,234.268C12,240.868 6.6,246.268 0,246.268" style="fill:rgb(255,225,140);fill-rule:nonzero;"/>
                    </g>
                    <g transform="matrix(0.999984,-0.00574266,-0.00574266,-0.999984,488.591,419.642)">
                        <path d="M0.073,0.304L106.47,0.304L106.319,-25.988L-0.381,-25.375L0.073,0.304Z" style="fill:rgb(241,112,74);fill-rule:nonzero;"/>
                    </g>
                    <g transform="matrix(0.75,0,0,0.75,0,0)">
                        <path d="M641.943,637.798L816.272,636.42" style="fill:none;stroke:rgb(36,44,61);stroke-width:10.67px;"/>
                    </g>
                    <g transform="matrix(0.75,0,0,0.75,0,48)">
                        <path d="M641.943,637.798L816.272,636.42" style="fill:none;stroke:rgb(36,44,61);stroke-width:10.67px;"/>
                    </g>
                    <g transform="matrix(0.75,0,0,0.75,0,91.5)">
                        <path d="M641.943,637.798L816.272,636.42" style="fill:none;stroke:rgb(36,44,61);stroke-width:10.67px;"/>
                    </g>
                </g>
                <g id="Lens">
                    <g transform="matrix(0.865792,0,0,0.842774,-74.8152,-76.3929)">
                        <ellipse cx="611.314" cy="753.489" rx="50.802" ry="51.508" style="fill:white;stroke:rgb(36,44,61);stroke-width:7.61px;"/>
                    </g>
                    <g transform="matrix(0.75,0,0,0.75,0,0)">
                        <path d="M622.222,800.797L665.637,899.584L686.836,889.914L640.693,792.115L622.222,800.797Z" style="fill:rgb(36,44,61);"/>
                    </g>
                </g>
            </g>
            <g id="Smiley-Colors-Box" transform="matrix(0.75,0,0,0.75,14.25,30)">
                <g id="Smiley-Box" transform="matrix(0.773157,0,0,0.773157,314.767,215.001)">
                    <g transform="matrix(1,0,0,0.845139,-1.7053e-13,159.933)">
                        <path d="M2027.78,997.585C2027.78,953.471 1997.51,917.656 1960.22,917.656L1488.97,917.656C1451.68,917.656 1421.42,953.471 1421.42,997.585L1421.42,1157.44C1421.42,1201.56 1451.68,1237.37 1488.97,1237.37L1960.22,1237.37C1997.51,1237.37 2027.78,1201.56 2027.78,1157.44L2027.78,997.585Z" style="fill:none;stroke:rgb(36,44,61);stroke-width:14.9px;"/>
                    </g>
                    <g id="Smiley-Glad">
                        <g transform="matrix(0.832487,0,0,0.878453,594.528,109.581)">
                            <ellipse cx="1584.49" cy="1101.86" rx="90.495" ry="83.145" style="fill:none;stroke:rgb(24,216,171);stroke-width:14.11px;"/>
                        </g>
                        <g transform="matrix(1.80782,0,0,1.22086,-1527.63,-230.873)">
                            <ellipse cx="1891.23" cy="1052.91" rx="4.335" ry="9.826" style="fill:rgb(24,216,171);"/>
                        </g>
                        <g transform="matrix(1.80782,0,0,1.22086,-1481.63,-230.873)">
                            <ellipse cx="1891.23" cy="1052.91" rx="4.335" ry="9.826" style="fill:rgb(24,216,171);"/>
                        </g>
                        <path d="M1869.12,1086.45C1869.12,1086.45 1883.15,1120.43 1916.97,1120.36C1946.93,1120.3 1959.63,1082.87 1959.63,1082.87" style="fill:none;stroke:rgb(24,216,171);stroke-width:12.07px;"/>
                    </g>
                    <g id="Smiley-Sad">
                        <path d="M1693.65,1109.36C1693.65,1109.36 1706.94,1091.1 1730.73,1091.21C1748.74,1091.29 1757.36,1112.05 1757.36,1112.05" style="fill:none;stroke:rgb(255,170,90);stroke-width:12.07px;"/>
                        <g transform="matrix(0.832487,0,0,0.878453,405.528,109.581)">
                            <ellipse cx="1584.49" cy="1101.86" rx="90.495" ry="83.145" style="fill:none;stroke:rgb(255,170,90);stroke-width:14.11px;"/>
                        </g>
                        <g transform="matrix(2.32718,0,0,1.23806,-2272.19,-251.085)">
                            <ellipse cx="1706.47" cy="1053.47" rx="3.757" ry="9.923" style="fill:rgb(255,170,90);"/>
                        </g>
                        <g transform="matrix(2.32718,0,0,1.23806,-2220.19,-251.085)">
                            <ellipse cx="1706.47" cy="1053.47" rx="3.757" ry="9.923" style="fill:rgb(255,170,90);"/>
                        </g>
                    </g>
                    <g id="Smiley-Mad">
                        <path d="M1520.85,1060.41L1494.03,1045.45" style="fill:none;stroke:rgb(234,67,75);stroke-width:10.35px;"/>
                        <g transform="matrix(0.855358,0,0,0.887505,177.955,100.36)">
                            <ellipse cx="1584.49" cy="1101.86" rx="90.495" ry="83.145" style="fill:none;stroke:rgb(234,67,75);stroke-width:13.85px;"/>
                        </g>
                        <g transform="matrix(2.4848,0,0,2.89781,-2217.77,-1972.69)">
                            <ellipse cx="1499.96" cy="1049.64" rx="3.763" ry="4.233" style="fill:rgb(234,67,75);"/>
                        </g>
                        <g transform="matrix(2.4848,0,0,2.97063,-2169.35,-2050.66)">
                            <ellipse cx="1499.96" cy="1049.64" rx="3.763" ry="4.233" style="fill:rgb(234,67,75);"/>
                        </g>
                        <path d="M1545.66,1059.79L1569.4,1047.77" style="fill:none;stroke:rgb(234,67,75);stroke-width:10.35px;"/>
                        <path d="M1503.12,1124.37C1503.12,1124.37 1511.91,1103.56 1533.64,1102.33C1553.11,1101.23 1557.68,1121.44 1559.07,1124.84" style="fill:none;stroke:rgb(234,67,75);stroke-width:10.35px;"/>
                    </g>
                </g>
                <g id="Traffic-Light">
                    <g transform="matrix(0.959615,0,0,1.00538,54.9887,-4.62376)">
                        <path d="M1667.38,887.373C1667.38,872.283 1654.54,860.032 1638.73,860.032L1390.27,860.032C1374.46,860.032 1361.63,872.283 1361.63,887.373L1361.63,942.056C1361.63,957.146 1374.46,969.397 1390.27,969.397L1638.73,969.397C1654.54,969.397 1667.38,957.146 1667.38,942.056L1667.38,887.373Z" style="fill:rgb(36,44,61);"/>
                    </g>
                    <g transform="matrix(1,0,0,1,-2.40839,-6.02097)">
                        <ellipse cx="1431.25" cy="922.85" rx="26.041" ry="25.138" style="fill:rgb(234,67,75);"/>
                    </g>
                    <g transform="matrix(1,0,0,1,77.0802,-6.02097)">
                        <ellipse cx="1431.25" cy="922.85" rx="26.041" ry="25.138" style="fill:rgb(255,170,90);"/>
                    </g>
                    <g transform="matrix(1,0,0,1,157.08,-6.02097)">
                        <ellipse cx="1431.25" cy="922.85" rx="26.041" ry="25.138" style="fill:rgb(24,216,171);"/>
                    </g>
                </g>
            </g>
        </g>
        <g id="Stan" transform="matrix(1.33333,0,0,1.33333,0,0)">
            <g id="Arm-Right">
                <g id="Hand-Right">
                    <g transform="matrix(1,0,0,1,1100.91,586.155)">
                        <path d="M0,-83.702C0.011,-83.717 0.026,-83.728 0.044,-83.733C0.061,-83.738 0.079,-83.737 0.095,-83.73C0.111,-83.724 0.124,-83.711 0.131,-83.696C0.139,-83.68 0.141,-83.662 0.136,-83.644C-4.004,-66.459 -6.345,-48.932 -3.192,-36.836C-0.028,-24.71 6.107,-18.616 17.481,-17.375C17.494,-17.374 17.506,-17.369 17.517,-17.362C17.527,-17.354 17.536,-17.344 17.542,-17.332C17.547,-17.32 17.549,-17.307 17.548,-17.294C17.548,-17.28 17.543,-17.267 17.536,-17.255C16.723,-15.931 15.66,-14.77 14.413,-13.843C13.165,-12.916 16.29,-6.839 14.811,-6.46C12.22,-5.874 12.22,-5.874 8.161,-6.425C-4.144,0.036 -15.86,-27.995 -16.386,-34.571C-17.435,-52.05 -11.548,-69.703 0,-83.702" style="fill:rgb(242,223,167);fill-rule:nonzero;"/>
                    </g>
                    <g opacity="0.14">
                        <g transform="matrix(1,0,0,1,1114.66,517.809)">
                            <path d="M0,50.342C-11.104,47.367 -13.884,40.45 -15.586,35.835C-17.178,31.712 -18.066,27.307 -18.213,22.798C-18.781,11.783 -17.658,4.806 -15.289,-7.856C-18.798,-3.19 -27.631,18.038 -25.508,32.565C-24.341,40.572 -20.09,47.556 -15.935,54.301C-9.292,58.198 -3.152,52.007 0,50.342" style="fill:rgb(20,20,20);fill-rule:nonzero;"/>
                        </g>
                    </g>
                    <g transform="matrix(1,0,0,1,1166.42,569.439)">
                        <path d="M0,-29.846C2.523,-27.972 7.591,-35.536 11.001,-43.054C11.02,-43.088 11.049,-43.115 11.084,-43.132C11.119,-43.149 11.157,-43.155 11.194,-43.148C11.231,-43.142 11.263,-43.124 11.287,-43.096C11.312,-43.069 11.326,-43.034 11.328,-42.996C11.999,-32.793 0.173,-11.737 -6.896,-3.942C-14.006,3.913 -27.438,13.266 -27.478,13.309L-24.035,3.724" style="fill:rgb(242,223,167);fill-rule:nonzero;"/>
                    </g>
                    <g opacity="0.14">
                        <g transform="matrix(1,0,0,1,1174.9,583.09)">
                            <path d="M0,-51.704C-8.804,-30.864 -25.604,-11.636 -42.547,0C-29.874,-9.987 -13.578,-35.35 -4.105,-45.612C-2.53,-47.501 -1.153,-49.544 0,-51.704" style="fill:rgb(20,20,20);fill-rule:nonzero;"/>
                        </g>
                    </g>
                    <g transform="matrix(1,0,0,1,1129.22,494.566)">
                        <path d="M0,89.239C28.291,74.472 43.401,47.622 49.532,17.803C49.542,17.754 49.535,17.704 49.511,17.663C49.488,17.621 49.45,17.59 49.405,17.575C49.359,17.56 49.309,17.563 49.262,17.582C49.216,17.601 49.177,17.636 49.152,17.68C26.92,51.832 13.47,62.619 -2.53,83.245C-2.549,83.266 -2.563,83.29 -2.572,83.315C-2.582,83.34 -2.586,83.367 -2.585,83.394C-2.584,83.42 -2.578,83.446 -2.568,83.469C-2.557,83.493 -2.541,83.514 -2.522,83.531C-2.502,83.548 -2.48,83.56 -2.455,83.568C-2.43,83.576 -2.404,83.578 -2.377,83.576C-2.351,83.573 -2.325,83.565 -2.301,83.553C-2.277,83.54 -2.255,83.523 -2.237,83.503C5.43,75.745 14.95,68.64 18.758,59.003C22.883,47.392 22.821,34.955 18.584,23.947C13.623,12.342 -3.016,-0.038 -25.555,4.576C-25.601,4.583 -25.645,4.606 -25.679,4.641C-25.712,4.675 -25.734,4.719 -25.741,4.766C-25.747,4.813 -25.738,4.86 -25.714,4.898C-25.69,4.937 -25.654,4.966 -25.61,4.979C23.858,23.131 3.199,52.89 -1.665,60.245C-6.078,66.919 -10.687,74.653 -16.372,80.497C-16.405,80.532 -16.447,80.555 -16.493,80.562C-16.539,80.57 -16.584,80.561 -16.622,80.537C-17.617,79.985 -23.304,78.053 -0.215,89.252C-0.182,89.27 -0.145,89.277 -0.107,89.275C-0.07,89.273 -0.033,89.26 0,89.239" style="fill:rgb(242,223,167);fill-rule:nonzero;"/>
                    </g>
                    <g opacity="0.14">
                        <g transform="matrix(1,0,0,1,1132.33,521.244)">
                            <path d="M0,57.309C-1.372,55.059 -3.492,53.393 -6.016,52.581C14.109,36.373 33.464,9.796 40.024,0C39.729,1.582 32.311,29.984 0,57.309" style="fill:rgb(20,20,20);fill-rule:nonzero;"/>
                        </g>
                    </g>
                    <g transform="matrix(1,0,0,1,1129.16,521.372)">
                        <path d="M0,59.465C-0.189,59.656 -0.055,59.25 -0.061,59.518C-0.615,85.929 35.059,32.701 20.088,-1.165C14.737,-13.267 -2.539,-26.464 -25.409,-22.301C-25.617,-22.266 -25.644,-21.963 -25.45,-21.885C25.46,-1.884 5.12,28.287 0.344,35.751C-3.993,42.522 -8.484,50.383 -14.163,56.268C-14.195,56.303 -14.238,56.326 -14.284,56.333C-14.329,56.341 -14.375,56.332 -14.413,56.308C-15.443,55.71 -21.287,53.564 2.547,65.722C2.602,65.752 9.021,50.236 0,59.465" style="fill:rgb(242,223,167);fill-rule:nonzero;"/>
                    </g>
                    <g opacity="0.14">
                        <g transform="matrix(1,0,0,1,1128.01,502.666)">
                            <path d="M0,72.003C12.018,56.173 20.311,38.121 12.563,18.949C9.096,10.361 -4.079,0.353 -16.735,0C0.801,8.336 6.051,16.94 7.666,25.447C9.074,32.865 6.225,40.929 3.008,46.527C-0.909,53.348 -5.505,59.988 -10.163,66.571C-7.468,67.408 -4.993,67.595 -2.306,68.424C-1.796,68.599 0.48,70.468 0,72.003" style="fill:rgb(20,20,20);fill-rule:nonzero;"/>
                        </g>
                    </g>
                </g>
                <g id="Arm-Right1" serifid="Arm-Right" transform="matrix(1,0,0,1,1131.71,723.02)">
                    <path d="M0,-135.926C-8.958,-147.3 -11.251,-148.154 -32.118,-149.644C-43.397,-141.902 -94.993,-85.776 -127.735,-82.179C-138.12,-93.556 -154.361,-108.908 -158.374,-126.584C-158.893,-128.847 -161.267,-135.569 -163.207,-136.92C-164.678,-137.945 -165.23,-130.133 -167.02,-129.954C-173.759,-129.27 -180.297,-126.764 -185.698,-122.792C-177.136,-88.026 -166.25,-55.619 -149.612,-23.75C-148.826,-11.559 -143.809,3.106 -142.538,13.718C-122.823,8.754 -97.589,-6.936 -76.118,-21.487C-54.646,-36.039 -40.886,-66.392 -26.156,-87.147" style="fill:rgb(208,137,90);fill-rule:nonzero;"/>
                </g>
            </g>
            <g id="Head">
                <g id="Head_Fur" transform="matrix(1,0,0,1,988.687,468.176)">
                    <path d="M0,-209.998C-19.264,-283.958 -90.45,-303.522 -158.677,-302.985C-166.219,-302.985 -160.048,-314.476 -162.071,-321.052C-163.175,-324.584 -168.576,-328.149 -173.877,-326.488C-179.797,-324.633 -182.004,-317.65 -182.673,-313.532C-183.008,-311.465 -182.924,-306.68 -179.864,-303.897C-179.613,-303.669 -176.319,-300.576 -176.319,-300.576C-180.315,-305.948 -187.205,-307.136 -192.523,-305.573C-198.609,-303.783 -203.225,-293.87 -200.064,-288.516C-196.904,-283.161 -190.198,-284.642 -185.549,-288.841C-221.803,-285.081 -252.12,-243.544 -265.298,-220.871C-278.893,-197.481 -283.441,-185.404 -297.588,-149.319C-308.29,-122.04 -315.213,-90.643 -339.578,-66.928C-322.086,-71.16 -305.698,-60.466 -293.508,-48.601C-279.394,-34.88 -273.19,-7.08 -265.699,11.199C-256.117,34.572 -240.816,54.852 -223.091,73.147C-205.365,91.442 -177.155,105.309 -151.536,108.548C-75.668,118.151 -62.29,59.751 -60.718,55.845C-53.896,38.918 -58.544,25.636 -52.758,-3.011C-46.438,-34.261 -34.615,-67.628 -16.572,-99.709C7.843,-143.134 9.214,-174.532 -0.017,-209.982" style="fill:rgb(208,137,90);fill-rule:nonzero;"/>
                </g>
                <g id="Shadow-Neck" opacity="0.14">
                    <g transform="matrix(1,0,0,1,933.069,593.635)">
                        <path d="M0,-100.572C1.622,-100.198 1.271,-75.425 -12.224,-49.057C-18.394,-37.012 -33.076,-8.35 -62.056,-1.644C-68.41,-0.179 -78.745,0.44 -95.601,-3.809C-136.871,-14.226 -171.336,-50.099 -191.703,-86.542C-165.5,-52.622 -114.196,-23.259 -70.802,-27.296C-63.829,-27.947 -44.431,-31.674 -28.026,-46.225C-3.445,-68.052 -1.873,-101.012 0,-100.572Z" style="fill-rule:nonzero;"/>
                    </g>
                </g>
                <g id="Face">
                    <g transform="matrix(1,0,0,1,891.966,387.755)">
                        <path d="M0,-167.322C54.447,-181.01 70.384,-156.287 80.768,-134.997C88.828,-118.46 96.186,-90.937 92.44,-74.481C90.969,-68.003 89.882,-59.507 87.139,-53.436C77.675,-32.472 60.718,-17.009 46.739,-9.164C26.103,2.409 -0.067,13.688 -46.906,8.105C-68.394,5.534 -88.895,-0.016 -111.57,-15.105C-129.446,-27.003 -144.496,-42.986 -150.55,-65.399C-155.533,-83.791 -152.189,-107.002 -142.624,-122.578C-132.59,-138.903 -115.818,-156.693 -104.982,-164.327C-95.417,-171.049 -77.39,-177.706 -63.528,-176.99C-52.608,-176.421 -41.07,-173.214 -31.572,-168.478C-18.762,-162.097 -4.498,-166.199 -0.017,-167.322" style="fill:rgb(241,209,181);fill-rule:nonzero;"/>
                    </g>
                    <g id="Face_Mouth-Nose" serifid="Face_Mouth+Nose">
                        <g id="Face-Color-Mid" transform="matrix(1,0,0,1,890.427,364.089)">
                            <path d="M0,-77.232C-0.97,-77.85 -7.993,-81.35 -15.016,-81.35C-20.602,-81.35 -27.257,-78.323 -31.354,-73.114C-34.699,-68.866 -48.344,-53.42 -52.056,-15.284C-52.976,-5.664 -44.682,0.195 -29.682,0.195C-17.725,0.195 -9.766,4.118 -0.619,4.118C16.806,4.118 19.95,-9.099 20.869,-11.687C22.993,-17.742 24.431,-25.229 23.829,-34.913C23.21,-44.614 17.508,-66.131 -0.017,-77.265" style="fill:rgb(217,161,113);fill-rule:nonzero;"/>
                        </g>
                        <g id="Mouth">
                            <g opacity="0.14">
                                <g transform="matrix(1,0,0,1,882.869,337.103)">
                                    <path d="M0,12.337C-0.084,12.011 -2.375,12.663 -5.401,12.483C-8.746,12.272 -11.154,11.149 -13.144,10.254C-21.622,6.478 -28.26,-2.279 -29.531,-3.988C-29.648,-2.833 -29.699,-1.172 -29.414,0.797C-29.147,2.587 -28.444,7.356 -24.465,11.1C-21.789,13.623 -18.863,14.518 -17.542,14.909C-12.726,16.325 -8.662,15.364 -5.953,14.73C-2.793,13.981 0.1,12.728 0,12.353L0,12.337Z" style="fill:rgb(37,37,37);fill-rule:nonzero;"/>
                                </g>
                            </g>
                            <g transform="matrix(0.452139,-0.891947,-0.891947,-0.452139,882.29,331.352)">
                                <path d="M-14.678,-10.582C-19.455,-6.16 -23.896,1.449 -24.663,8.073C-25.437,14.71 -20.553,22.211 -14.678,25.02C-15.232,13.191 -15.222,1.291 -14.663,-10.575L-14.678,-10.582Z" style="fill:rgb(37,37,37);fill-rule:nonzero;"/>
                            </g>
                        </g>
                        <g id="Nose">
                            <g transform="matrix(-0.00448647,-0.99999,-0.99999,0.00448647,877.283,290.407)">
                                <path d="M-24.726,-26.21C-33.955,-26.169 -41.623,-15.733 -41.559,-1.436C-41.495,12.861 -33.971,24.651 -24.726,24.609C-15.481,24.568 -9.2,13.168 -9.264,-1.112C-9.328,-15.393 -15.497,-26.252 -24.726,-26.21" style="fill:rgb(37,37,37);fill-rule:nonzero;"/>
                            </g>
                            <g opacity="0.12">
                                <g transform="matrix(-0.317243,-0.948344,-0.948344,0.317243,865.836,314.581)">
                                    <path d="M-3.407,-4.813C-7.924,-4.977 -12.222,-3.099 -10.863,-1.86C-9.094,-0.266 -5.632,0.798 -3.407,1.394C0.835,2.532 4.093,1.6 4.157,-0.52C4.22,-2.638 1.973,-4.637 -3.412,-4.829" style="fill:white;fill-rule:nonzero;"/>
                                </g>
                            </g>
                            <g opacity="0.12">
                                <g transform="matrix(-0.387216,0.921989,0.921989,0.387216,890.437,315.353)">
                                    <path d="M3.644,-5.01C8.164,-5.179 12.473,-3.334 11.105,-2.095C9.348,-0.475 5.861,0.6 3.644,1.211C-0.614,2.397 -3.876,1.463 -3.941,-0.651C-4.016,-2.786 -1.76,-4.795 3.623,-5.001" style="fill:white;fill-rule:nonzero;"/>
                                </g>
                            </g>
                            <g opacity="0.12">
                                <g transform="matrix(-0.317243,-0.948344,-0.948344,0.317243,865.836,314.581)">
                                    <path d="M-3.407,-4.813C-7.924,-4.977 -12.222,-3.099 -10.863,-1.86C-9.094,-0.266 -5.632,0.798 -3.407,1.394C0.835,2.532 4.093,1.6 4.157,-0.52C4.22,-2.638 1.973,-4.637 -3.412,-4.829" style="fill:white;fill-rule:nonzero;"/>
                                </g>
                            </g>
                            <g opacity="0.12">
                                <g transform="matrix(-0.387216,0.921989,0.921989,0.387216,890.437,315.353)">
                                    <path d="M3.644,-5.01C8.164,-5.179 12.473,-3.334 11.105,-2.095C9.348,-0.475 5.861,0.6 3.644,1.211C-0.614,2.397 -3.876,1.463 -3.941,-0.651C-4.016,-2.786 -1.76,-4.795 3.623,-5.001" style="fill:white;fill-rule:nonzero;"/>
                                </g>
                            </g>
                            <g opacity="0.12">
                                <g transform="matrix(-0.317243,-0.948344,-0.948344,0.317243,865.836,314.581)">
                                    <path d="M-3.407,-4.813C-7.924,-4.977 -12.222,-3.099 -10.863,-1.86C-9.094,-0.266 -5.632,0.798 -3.407,1.394C0.835,2.532 4.093,1.6 4.157,-0.52C4.22,-2.638 1.973,-4.637 -3.412,-4.829" style="fill:white;fill-rule:nonzero;"/>
                                </g>
                            </g>
                            <g opacity="0.32">
                                <g transform="matrix(1,0,0,1,864.491,324.944)">
                                    <path d="M0,-18.392C1.839,-18.457 3.545,-17.594 4.699,-16.357C5.87,-15.137 6.572,-13.574 7.257,-12.044C8.328,-9.668 9.398,-7.291 10.468,-4.915C10.819,-4.085 11.204,-3.239 11.204,-2.343C11.204,-1.448 10.736,-0.488 9.866,-0.195C9.114,0.065 8.227,-0.26 7.642,-0.797C7.04,-1.351 6.672,-2.067 6.321,-2.783C3.813,-7.829 1.288,-12.923 -0.017,-18.376" style="fill:rgb(37,37,37);fill-rule:nonzero;"/>
                                </g>
                            </g>
                            <g opacity="0.32">
                                <g transform="matrix(1,0,0,1,892.735,324.342)">
                                    <path d="M0,-15.707C0.284,-16.212 -1.054,-16.553 -1.923,-16.26C-2.809,-15.967 -3.461,-15.268 -4.063,-14.568C-7.341,-10.808 -10.117,-6.495 -11.304,-1.709C-11.505,-0.912 -11.572,0.097 -10.869,0.537C-10.384,0.846 -9.716,0.7 -9.247,0.358C-8.779,0.016 -8.495,-0.505 -8.211,-0.993C-5.485,-5.892 -2.742,-10.792 0,-15.691" style="fill:rgb(37,37,37);fill-rule:nonzero;"/>
                                </g>
                            </g>
                        </g>
                    </g>
                    <g id="Face-Left">
                        <g id="Face-Color-Left" transform="matrix(1,0,0,1,820.997,337.314)">
                            <path d="M0,-82.115C-4.314,-84.084 -15.05,-85.11 -21.973,-84.247C-29.147,-83.368 -34.515,-82.506 -41.12,-79.69C-48.963,-76.337 -53.779,-72.544 -61.186,-68.361C-65.367,-66.001 -73.193,-57.847 -76.822,-54.738C-78.277,-53.485 -79.648,-52.199 -79.648,-52.199C-79.648,-52.199 -81.872,-43.947 -81.872,-33.725C-81.872,-22.787 -80.4,-11.508 -72.24,2.995C-70.668,-4.672 -64.564,-12.794 -59.514,-16.065C-56.972,-17.725 -50.317,-19.825 -46.906,-20.102C-36.956,-20.916 -25.852,-17.888 -19.465,-17.416C-12.625,-16.912 -1.622,-18.637 5.334,-24.513C10.652,-29.005 14.03,-35.76 15.318,-42.498C16.823,-50.376 16.254,-60.484 13.629,-68.052C11.003,-75.621 4.465,-80.048 -0.017,-82.115" style="fill:rgb(217,161,113);fill-rule:nonzero;"/>
                        </g>
                        <g id="Shadow-Head" opacity="0.14">
                            <g transform="matrix(1,0,0,1,648.842,163.937)">
                                <path d="M0,238.499C13.378,233.909 36.655,239.638 49.063,254.808C51.136,257.347 53.026,259.968 54.799,262.637C61.17,249.209 72.507,237.685 86.036,230.703C108.677,219.032 136.102,218.674 160.884,224.924C137.707,204.856 112.975,182.02 109.413,152.022C107.323,134.476 112.975,116.947 119.731,100.54C127.055,82.733 135.985,65.171 149.58,51.287C163.175,37.404 182.088,27.524 201.787,28.11C189.931,23.91 181.151,12.81 179.412,0.733C174.713,-1.058 179.613,-11.084 177.774,-17.041C176.67,-20.573 171.269,-24.138 165.968,-22.478C160.048,-20.622 157.841,-13.639 157.172,-9.521C156.837,-7.454 156.921,-2.669 159.981,0.114L159.998,0.13C156.135,-2.376 151.269,-2.75 147.306,-1.579C141.219,0.212 136.604,10.124 139.764,15.479C140.383,16.537 141.152,17.318 142.005,17.872C111.269,28.24 86.186,63.072 74.531,83.124C60.936,106.513 56.387,118.59 42.24,154.675C31.538,181.955 24.314,214.8 -0.05,238.515" style="fill:rgb(82,54,24);fill-rule:nonzero;"/>
                            </g>
                        </g>
                        <g transform="matrix(0.914105,0.405477,0.405477,-0.914105,736.589,311.529)">
                            <path d="M0.898,-2.204C6.252,-10.851 14.245,-17.901 23.618,-22.164C13.702,-15.274 6.26,-5.631 0.898,5.096C-2.554,11.97 -5.459,19.138 -6.521,26.769C-7.132,16.722 -4.447,6.464 0.898,-2.204" style="fill:rgb(190,128,85);fill-rule:nonzero;"/>
                        </g>
                        <g id="Eye_Left">
                            <g transform="matrix(1,0,0,1,786.833,295.206)">
                                <path d="M0,-14.681C-3.211,0.586 4.13,12.273 16.237,15.658C27.558,18.832 38.612,10.466 41.387,-4.883C44.163,-20.231 24.933,-33.513 24.933,-33.513C24.933,-33.513 2.375,-25.993 0,-14.665L0,-14.681Z" style="fill:white;fill-rule:nonzero;"/>
                            </g>
                            <g opacity="0.14">
                                <g transform="matrix(-0.851695,-0.524038,-0.524038,0.851695,784.885,304.519)">
                                    <path d="M-2.693,-19.317C2.182,-17.158 4.524,-16.368 7.913,-15.142C5.384,-10.907 1.547,-7.287 -2.693,-5.309C-6.979,-3.321 -11.377,-2.778 -16.129,-3.448C-7.755,-9.111 -4.526,-15.859 -2.693,-19.317" style="fill-rule:nonzero;"/>
                                </g>
                            </g>
                            <g transform="matrix(0.920135,-0.391602,-0.391602,-0.920135,819.512,297.963)">
                                <path d="M-2.49,-0.508C-6.067,-0.439 -8.968,2.462 -8.968,5.974C-8.968,9.484 -6.067,12.275 -2.49,12.207C1.088,12.138 3.99,9.236 3.989,5.726C3.989,2.215 1.088,-0.576 -2.49,-0.508" style="fill:rgb(37,37,37);fill-rule:nonzero;"/>
                            </g>
                            <g transform="matrix(0.920135,-0.391602,-0.391602,-0.920135,819.512,297.963)">
                                <path d="M-2.49,-0.508C-6.067,-0.439 -8.968,2.462 -8.968,5.974C-8.968,9.484 -6.067,12.275 -2.49,12.207C1.088,12.138 3.99,9.236 3.989,5.726C3.989,2.215 1.088,-0.576 -2.49,-0.508Z" style="fill:none;fill-rule:nonzero;stroke:rgb(37,37,37);stroke-width:1px;stroke-linecap:butt;stroke-linejoin:miter;stroke-miterlimit:10;"/>
                            </g>
                            <g transform="matrix(0,-1,-1,0,816.716,289.09)">
                                <path d="M-2.943,-2.943C-4.525,-2.943 -5.808,-1.625 -5.808,0C-5.808,1.626 -4.525,2.943 -2.943,2.943C-1.361,2.943 -0.078,1.626 -0.078,0C-0.078,-1.625 -1.361,-2.943 -2.943,-2.943" style="fill:white;fill-rule:nonzero;"/>
                            </g>
                            <g transform="matrix(1,0,0,1,808.07,293.498)">
                                <path d="M0,-33.66C-17.241,-33.774 -21.221,-16.798 -22.09,-9.343C-22.341,-7.211 -22.274,-6.088 -22.274,-6.088C5.451,0.114 20.552,-5.046 20.552,-5.046C20.552,-4.932 21.572,-33.53 -0.017,-33.66L0,-33.66Z" style="fill:rgb(210,145,102);fill-rule:nonzero;"/>
                            </g>
                            <g opacity="0.13">
                                <g transform="matrix(1,0,0,1,785.78,262.15)">
                                    <path d="M0,24.951L0,25.211C4.13,26.139 7.96,26.806 11.522,27.279C11.639,24.528 12.073,21.533 12.976,18.343C16.823,4.85 22.458,-0.603 26.103,-1.987L26.053,-1.987C24.983,-2.149 23.996,-2.263 23.043,-2.312L22.776,-2.312C22.491,-2.328 22.207,-2.328 21.94,-2.328C18.394,-2.312 15.418,-1.58 12.926,-0.326C12.14,0.081 11.321,0.569 10.552,1.09C8.98,2.197 7.659,3.515 6.522,4.964C6.053,5.582 5.585,6.217 5.201,6.835C4.665,7.682 4.231,8.447 3.863,9.147C3.244,10.367 2.726,11.604 2.291,12.825C1.689,14.599 1.171,16.487 0.786,18.278C0.569,19.271 0.418,20.215 0.301,21.061C0.184,22.086 0.067,23.226 0.017,24.007C0,24.316 0,24.577 0,24.788L0,24.984L0,24.951Z" style="fill-rule:nonzero;"/>
                                </g>
                            </g>
                        </g>
                    </g>
                    <g id="Face-Right">
                        <g id="Face-Color-Right" transform="matrix(1,0,0,1,971.329,320.679)">
                            <path d="M0,-42.774C5.702,-36.312 13.411,-27.507 13.361,-27.767C15.953,-16.797 13.562,-6.803 13.144,-4.459C11.99,1.986 10.134,9.62 6.053,17.172C5.585,16.635 4.498,15.642 2.157,13.363C0.418,11.671 -2.893,8.692 -5.853,6.739C-10.702,3.533 -14.515,3.695 -26.722,3.695C-36.856,3.695 -43.929,0.18 -47.524,-2.604C-52.474,-6.429 -57.692,-16.536 -58.528,-22.64C-59.364,-28.744 -60.334,-37.305 -57.608,-42.855C-55.049,-48.064 -50.919,-52.735 -47.106,-54.672C-42.608,-56.951 -33.394,-59.946 -26.337,-58.432C-22.625,-57.618 -16.722,-55.779 -12.241,-52.768C-7.759,-49.757 -3.528,-46.778 0.017,-42.758" style="fill:rgb(217,161,113);fill-rule:nonzero;"/>
                        </g>
                        <g opacity="0.14">
                            <g transform="matrix(1,0,0,1,984.724,333.262)">
                                <path d="M0,-40.236C0,-40.236 -1.94,-42.368 -4.13,-44.842C-3.344,-31.577 -4.933,-24.708 -5.903,-18.914C-7.876,-7.13 -12.291,-0.261 -12.291,-0.261C-12.291,-0.261 -10.769,1.253 -7.324,4.606C-2.592,-3.923 -1.187,-12.159 0.268,-19.646C1.321,-25.083 1.137,-32.065 1.053,-33.188C0.886,-35.874 0,-40.236 0,-40.236" style="fill:rgb(82,54,24);fill-rule:nonzero;"/>
                            </g>
                        </g>
                        <g id="Eye_Right">
                            <g transform="matrix(1,0,0,1,917.952,298.609)">
                                <path d="M0,-10.482C-2.007,4.053 5.652,14.551 17.241,16.976C28.06,19.239 37.892,10.71 39.481,-3.874C41.07,-18.457 22.14,-29.721 22.14,-29.721C22.14,-29.721 1.472,-21.257 -0.017,-10.482L0,-10.482Z" style="fill:white;fill-rule:nonzero;"/>
                            </g>
                            <g transform="matrix(0,-1,-1,0,945.159,292.472)">
                                <path d="M-6.12,-6.12C-9.41,-6.12 -12.077,-3.38 -12.077,-0C-12.077,3.38 -9.41,6.12 -6.12,6.12C-2.83,6.12 -0.163,3.38 -0.163,-0C-0.163,-3.38 -2.83,-6.12 -6.12,-6.12" style="fill:rgb(37,37,37);fill-rule:nonzero;"/>
                            </g>
                            <g transform="matrix(0,-1,-1,0,945.159,292.472)">
                                <ellipse cx="-6.12" cy="0" rx="5.957" ry="6.12" style="fill:none;stroke:rgb(37,37,37);stroke-width:1px;stroke-linecap:butt;stroke-linejoin:miter;stroke-miterlimit:10;"/>
                            </g>
                            <g transform="matrix(0,-1,-1,0,946.731,294.287)">
                                <path d="M-2.759,-2.759C-4.242,-2.759 -5.445,-1.524 -5.445,0C-5.445,1.524 -4.242,2.759 -2.759,2.759C-1.276,2.759 -0.073,1.524 -0.073,0C-0.073,-1.524 -1.276,-2.759 -2.759,-2.759" style="fill:white;fill-rule:nonzero;"/>
                            </g>
                            <g transform="matrix(-0.0338868,0.999426,0.999426,0.0338868,929.022,262.015)">
                                <path d="M29.925,-10.681C31.961,-10.696 32.997,-10.527 32.997,-10.527C36.185,16.034 29.925,29.659 29.925,29.659C30.038,29.68 3.196,27.832 5.103,7.618C6.628,-8.526 22.869,-10.586 29.925,-10.681" style="fill:rgb(210,145,102);fill-rule:nonzero;"/>
                            </g>
                            <g transform="matrix(1,0,0,1,936.396,297.518)">
                                <path d="M0,-30.144C-16.12,-29.167 -18.712,-12.989 -19.047,-5.941C-19.13,-3.906 -18.996,-2.865 -18.996,-2.865C7.324,1.221 21.087,-4.574 21.087,-4.574C21.087,-4.476 20.167,-31.365 -0.017,-30.144L0,-30.144Z" style="fill:rgb(210,145,102);fill-rule:nonzero;"/>
                            </g>
                            <g opacity="0.13">
                                <g transform="matrix(1,0,0,1,929.122,294.604)">
                                    <path d="M0,-7.21C2.291,-17.497 8.127,-24.219 10.97,-27.1C6.722,-27.458 3.562,-27.084 0.15,-25.521C-1.605,-24.723 -4.13,-22.933 -5.451,-21.419C-6.338,-20.394 -7.358,-18.864 -8.077,-17.529C-9.13,-15.544 -9.749,-13.965 -10.084,-12.842C-10.084,-12.842 -11.388,-8.919 -11.706,-3.955C-11.789,-2.588 -11.772,-1.285 -11.772,-1.285C-11.772,-0.748 -11.739,-0.293 -11.722,0.049C-11.622,0.066 -11.505,0.098 -11.405,0.098C-11.371,0.521 -11.321,1.091 -11.237,1.758C-11.137,2.572 -10.936,4.053 -10.401,5.876C-9.849,7.715 -9.197,9.05 -8.946,9.555C-7.625,12.208 -6.104,13.917 -5.686,14.356C-4.799,15.317 -4.03,15.968 -3.545,16.375C-2.793,17.009 -1.656,17.953 0.033,18.849C0.853,19.288 1.99,19.809 3.428,20.248C2.492,18.311 1.338,15.577 0.468,12.208C-2.023,2.523 -0.401,-5.387 0,-7.21Z" style="fill-rule:nonzero;"/>
                                </g>
                            </g>
                        </g>
                    </g>
                </g>
            </g>
            <g id="Legs">
                <g id="Foot-Left">
                    <g transform="matrix(1,0,0,1,774.96,1011.01)">
                        <path d="M0,-37.11C-1.271,-37.761 -4.699,-38.233 -8.144,-37.501C-16.488,-35.759 -24.849,-32.699 -30.836,-26.774C-36.822,-20.85 -39.866,-11.572 -36.471,-3.955C-35.919,-2.734 -35.15,-1.513 -33.913,-0.96C-33.076,-0.586 -32.107,-0.569 -31.17,-0.569C-10.585,-0.439 14.08,1.123 29.498,-7.91C27.09,-20.541 14.03,-32.846 0,-37.11" style="fill:rgb(241,222,166);fill-rule:nonzero;"/>
                    </g>
                    <g opacity="0.14">
                        <g transform="matrix(1,0,0,1,759.743,1008.86)">
                            <path d="M0,-23.536C-3.662,-25.652 -9.983,-25.212 -14.766,-22.38C-19.548,-19.548 -22.742,-14.307 -22.993,-8.855C-22.408,-9.131 -21.822,-9.408 -21.237,-9.685C-21.237,-7.764 -19.264,-6.055 -17.291,-6.283C-16.655,-3.028 -11.087,1.644 -11.087,1.644C-11.087,1.644 -5.368,1.611 -2.809,1.709C8.679,2.116 16.455,1.302 24.582,0.553C18.662,-9.327 10.117,-17.693 0.017,-23.552" style="fill-rule:nonzero;"/>
                        </g>
                    </g>
                    <g opacity="0.14">
                        <g transform="matrix(-0.738384,0.674381,0.674381,0.738384,798.186,994.522)">
                            <path d="M13.435,-34.509C13.83,-35.267 15.609,-37.112 17.836,-38.022C12.493,-24.06 10.961,-8.751 13.435,5.786C11.934,6.671 10.003,7.532 8.503,8.196C4.244,-5.79 6.353,-21.384 13.422,-34.497" style="fill-rule:nonzero;"/>
                        </g>
                    </g>
                </g>
                <g id="Foot-Right">
                    <g transform="matrix(1,0,0,1,941.814,1008.2)">
                        <path d="M0,-35.971C0.769,-37.078 -3.579,-36.882 -7.023,-36.166C-15.368,-34.425 -23.729,-31.365 -29.715,-25.44C-35.702,-19.515 -38.745,-10.238 -35.351,-2.621C-34.799,-1.4 -34.03,-0.179 -32.792,0.374C-31.939,0.749 -32.625,0.993 -31.689,0.993C-11.12,1.107 11.823,0.846 30.618,-7.276C28.227,-19.906 14.03,-31.706 0,-35.971" style="fill:rgb(241,222,166);fill-rule:nonzero;"/>
                    </g>
                    <g opacity="0.14">
                        <g transform="matrix(1,0,0,1,923.186,1007.01)">
                            <path d="M0,-23.617C-3.662,-25.733 -9.983,-25.293 -14.766,-22.461C-19.548,-19.629 -22.742,-14.388 -22.993,-8.936C-22.408,-9.212 -21.822,-9.489 -21.237,-9.766C-21.237,-7.845 -19.264,-6.136 -17.291,-6.364C-16.655,-3.109 -11.087,2.116 -11.087,2.116C-11.087,2.116 -5.568,2.1 -3.01,2.1C9.164,2.1 16.538,1.4 24.565,0.472C18.645,-9.408 10.1,-17.774 0,-23.633" style="fill-rule:nonzero;"/>
                        </g>
                    </g>
                    <g opacity="0.14">
                        <g transform="matrix(-0.73756,0.675281,0.675281,0.73756,965.324,991.945)">
                            <path d="M13.412,-34.38C13.829,-35.138 15.594,-36.974 17.82,-37.91C12.494,-23.941 10.92,-8.773 13.412,5.762C11.887,6.672 9.847,7.612 8.512,8.261C4.237,-5.721 6.371,-21.269 13.424,-34.392" style="fill-rule:nonzero;"/>
                        </g>
                    </g>
                </g>
                <g id="Legs1" serifid="Legs" transform="matrix(1,0,0,1,984.975,982.123)">
                    <path d="M0,-291.105C-95.467,-319.507 -177.004,-318.775 -255.666,-303.638C-268.692,-301.131 -284.311,-295.597 -286.1,-282.788C-287.17,-275.138 -282.588,-267.927 -280.665,-260.44C-278.274,-251.163 -279.98,-241.413 -281.702,-232.005L-295.899,-154.236C-299.076,-136.821 -302.571,-118.672 -313.558,-104.561C-316.819,-100.345 -332.755,-94.73 -330.18,-90.091C-324.327,-79.511 -321.484,-61.77 -320.849,-59.133C-316.116,-39.422 -318.023,-12.355 -320.431,-5.974C-325.146,6.493 -327.621,14.387 -321.518,20.328C-318.859,22.916 -312.019,25.146 -307.003,25.765C-294.244,27.311 -284.411,27.93 -267.154,27.995C-260.532,28.011 -242.154,28.369 -235.816,28.402C-237.606,20.589 -233.709,11.734 -228.108,5.875C-222.489,0.015 -216.536,-4.135 -209.312,-7.96C-215.298,-12.241 -242.773,-13.575 -258.559,-6.951C-230.398,-26.531 -205.934,-73.587 -203.777,-104.235C-192.79,-103.584 -192.389,-103.389 -181.402,-102.754C-178.593,-102.591 -162.473,-102.77 -162.473,-102.77C-162.473,-102.77 -158.426,-96.536 -157.406,-94.046C-144.078,-61.672 -143.878,-32.765 -147.858,-9.604C-148.343,-6.886 -154.396,0.862 -153.192,10.221C-152.707,13.981 -148.928,16.65 -145.45,18.375C-141.955,20.101 -138.075,20.882 -134.246,21.631C-112.808,25.83 -91.303,27.083 -69.146,27.083C-68.477,18.782 -65.735,10.416 -60.518,3.808C-55.3,-2.8 -47.859,-7.553 -39.364,-8.546C-41.471,-12.143 -68.511,-18.263 -87.29,-12.762C-52.826,-61.786 -35.368,-86.608 -11.973,-137.032C9.582,-183.502 16.053,-242.601 0,-291.121" style="fill:rgb(208,137,90);fill-rule:nonzero;"/>
                </g>
            </g>
            <g id="Shadow-Arm-Right" opacity="0.14">
                <g transform="matrix(1,0,0,1,993.419,587.109)">
                    <path d="M0,148.392C12.14,144.486 25.217,137.747 39.581,129.007C50.969,122.073 64.211,114.267 72.81,105.553C84.16,95.006 91.88,80.483 97.804,72.19C106.173,60.916 138.157,0.212 138.291,-0.016C134.651,2.392 130.861,10.012 127.078,15.515C119.77,26.599 75.227,78.84 62.836,84.114C50.461,89.387 40.901,93.691 27.524,95.579C13.46,97.565 -1.338,96.747 -14.816,92.32C-14.398,95.64 -13.629,95.835 -11.538,98.781C-5.418,114.472 -1.856,131.66 0.033,148.408" style="fill-rule:nonzero;"/>
                </g>
            </g>
            <g id="Arm-Left">
                <g id="Hand_Left">
                    <g transform="matrix(1,0,0,1,640.648,858.184)">
                        <path d="M0,0.097C-0.753,1.92 -3.311,4.703 -5.502,6.966C-11.354,13.086 -17.207,19.189 -23.077,25.309C-24.481,26.774 -26.02,28.304 -28.043,28.63C-30.267,28.988 -30.786,28.434 -32.541,27.067C-42.123,19.564 -45.116,12.532 -47.725,4.134C-50.451,-4.672 -50.953,-17.482 -50.635,-22.234C-50.468,-24.773 -49.448,-28.403 -49.448,-28.403C-49.448,-28.403 -45.953,-28.891 -43.545,-28.631C-34.515,-27.671 -28.361,-25.034 -20.451,-17.335C-14.063,-11.134 -6.856,-4.542 0.017,0.097" style="fill:rgb(241,222,166);fill-rule:nonzero;"/>
                    </g>
                    <g opacity="0.14">
                        <g transform="matrix(1,0,0,1,633.256,855.855)">
                            <path d="M0,3.598C0,3.598 -12.592,9.669 -16.605,14.08C-20.719,18.589 -22.993,24.334 -24.749,29.705C-27.893,27.199 -27.391,27.638 -28.762,26.304C-31.07,24.09 -33.461,21.323 -35.217,18.507C-36.588,16.294 -37.826,13.478 -38.829,10.939C-41.621,3.777 -42.809,-4.361 -43.193,-12.125C-43.277,-13.655 -43.327,-13.802 -43.327,-16.829C-41.036,-9.293 -38.628,-0.715 -35.351,6.479C-32.073,13.689 -29.214,17.026 -24.849,22.983C-22.525,17.97 -21.103,15.822 -19.13,12.583C-29.23,2.735 -42.257,-19.401 -42.257,-25.325C-42.257,-25.423 -42.056,-26.107 -42.056,-26.107C-42.056,-26.107 -29.247,-10.514 -24.916,-5.745C-21.739,-2.229 -12.123,7.114 -12.123,7.114C-12.123,7.114 -8.461,4.477 -7.826,4.216C-10.652,1.694 -24.18,-13.557 -27.826,-20.475C-28.244,-21.289 -17.675,-12.027 -12.073,-6.575C-9.598,-4.166 -0.017,3.582 -0.017,3.582" style="fill-rule:nonzero;"/>
                        </g>
                    </g>
                </g>
                <g id="Arm-Left1" serifid="Arm-Left" transform="matrix(1,0,0,1,712.453,866.761)">
                    <path d="M0,-309.936C-25.301,-333.667 -63.243,-345.256 -99.999,-341.919C-103.862,-341.577 -108.042,-340.91 -110.768,-338.192C-113.577,-335.36 -116.988,-338.029 -116.453,-334.139C-114.497,-319.702 -119.898,-301.13 -121.119,-276.781C-122.44,-250.25 -127.172,-195.187 -125.182,-180.555C-121.253,-151.696 -98.828,-112.242 -85.986,-67.922C-75.35,-31.234 -71.755,-8.513 -71.755,-8.513C-71.755,-8.513 -86.755,-7.455 -93.327,-0.358C-101.186,8.106 -103.928,18.783 -103.928,18.783C-103.928,18.783 -92.373,28.826 -83.778,30.828C-67.942,34.522 -54.916,35.32 -40.936,28.256C-30.418,22.934 -21.689,7.683 -17.508,-3.125C-12.508,-16.081 -8.361,-28.451 -4.849,-41C10.217,-94.989 10.87,-123.522 12.157,-146.097C15.635,-207.248 7.859,-258.242 0.602,-305.851C0.334,-307.56 0.117,-308.976 -0.033,-309.92" style="fill:rgb(208,137,90);fill-rule:nonzero;"/>
                </g>
            </g>
            <g id="Shadow-Belly" opacity="0.14">
                <g transform="matrix(1,0,0,1,937.517,696.568)">
                    <path d="M0,4.541C1.304,4.476 12.241,4.297 12.257,4.297C34.08,4.297 41.203,3.158 47.541,4.622C48.645,4.883 49.347,4.15 49.347,4.15L48.645,1.644L52.341,-0.44C54.665,-1.872 47.458,-2.946 44.799,-3.662C-17.542,-20.346 -84.363,-10.987 -146.202,7.324C-155.332,10.042 -179.68,15.723 -179.68,15.723C-179.68,15.723 -179.295,21.989 -179.295,24.887C-133.175,11.345 -45.953,6.576 -0.017,4.525L0,4.541Z" style="fill-rule:nonzero;"/>
                </g>
            </g>
            <g id="Shirt">
                <g id="Shirt_Arm-Right" transform="matrix(1,0,0,1,948.721,492.526)">
                    <path d="M0,109.785C6.689,104.642 15.568,100.475 24.013,101.663C20.15,90.79 18.344,86.298 17.224,81.269C8.344,41.522 -8.629,10.01 -16.104,0" style="fill:rgb(36,44,61);fill-rule:nonzero;"/>
                </g>
                <g id="Shirt1" serifid="Shirt" transform="matrix(1,0,0,1,932.651,628.24)">
                    <path d="M0,-135.73C-0.033,-135.47 -0.05,-135.209 -0.067,-134.949C-0.084,-134.542 -0.134,-133.956 -0.201,-133.256C-0.435,-130.701 -1.706,-117.989 -7.291,-104.268C-10.535,-96.276 -15.301,-84.557 -25.669,-74.889C-42.876,-58.824 -65.501,-57.229 -77.073,-57.212C-92.022,-57.18 -118.828,-63.267 -132.072,-70.022C-153.476,-80.944 -162.74,-93.037 -180.616,-113.513C-202.339,-138.399 -210.532,-171.261 -226.519,-199.957C-230.8,-207.639 -243.392,-222.093 -261.468,-227.236C-265.314,-228.327 -273.458,-230.54 -282.622,-227.708C-288.274,-225.967 -292.337,-222.907 -296.351,-219.196C-309.678,-206.858 -316.735,-192.437 -319.294,-186.936C-327.538,-169.243 -330.832,-155.099 -334.912,-136.983C-337.487,-125.574 -339.159,-115.075 -339.996,-103.828C-340.23,-100.54 -340.364,-97.79 -340.43,-95.902C-318.073,-96.195 -288.859,-94.03 -256.452,-84.459C-242.907,-80.455 -230.8,-75.751 -220.181,-70.917C-218.592,-61.623 -216.619,-48.911 -214.847,-33.742C-213.409,-21.307 -212.154,-7.7 -210.85,15.169C-209.713,35.27 -208.559,62.208 -208.191,94.81C-189.663,86.997 -31.003,65.121 49.247,69.614C53.511,69.858 55.033,73.032 57.073,68.897C58.762,65.479 61.471,57.064 46.872,47.412C41.555,43.897 36.036,27.165 33.745,19.515C23.745,-13.901 13.127,-40.887 9.565,-75.507" style="fill:rgb(36,44,61);fill-rule:nonzero;"/>
                </g>
            </g>
            <g id="Shadows">
                <g id="Shadow-Arm-Left" opacity="0.14">
                    <g transform="matrix(1,0,0,1,680.764,891.143)">
                        <path d="M0,-486.633C-10.485,-491.321 -29.481,-495.341 -40.551,-484.582C-47.541,-477.779 -55.284,-471.415 -63.645,-453.706C-68.511,-443.403 -74.899,-422.992 -80.367,-405.202C-86.019,-386.858 -87.792,-372.828 -88.561,-358.554L-84.798,-358.554C-84.798,-358.554 -83.594,-350.887 -85.233,-339.315C-87.424,-323.95 -90.183,-299.649 -90.985,-276.406C-91.788,-252.92 -94.781,-219.553 -93.828,-208.192C-92.908,-197.335 -87.825,-180.05 -77.24,-154.382C-71.27,-139.928 -64.297,-122.496 -58.795,-106.562C-49.481,-79.575 -43.11,-48.911 -40.083,-32.895C-46.538,-37.175 -57.992,-47.478 -61.872,-51.58C-63.494,-53.289 -67.39,-56.268 -70.701,-58.009C-74.38,-59.946 -78.979,-61.395 -85.266,-61.688C-86.704,-61.753 -87.975,-61.541 -89.547,-61.378C-89.882,-60.467 -90.149,-59.165 -90.333,-57.977C-90.919,-54.07 -91.019,-49.252 -90.5,-43.686C-89.898,-37.029 -88.377,-29.411 -85.567,-22.429C-84.397,-19.499 -82.19,-15.528 -79.397,-12.256C-77.507,-10.042 -74.765,-7.487 -72.223,-5.566C-72.022,-5.42 -67.624,-1.595 -62.608,1.53C-58.628,4.02 -57.758,4.427 -50.451,6.82C-44.698,8.708 -32.357,7.227 -27.742,1.725C-24.18,-2.523 -22.291,-7.813 -21.02,-13.151C-6.89,-72.593 -26.036,-134.036 -33.779,-194.585C-44.782,-280.59 -32.541,-367.603 -20.318,-453.445C-18.461,-466.483 -13.378,-484.468 -0.033,-486.584" style="fill-rule:nonzero;"/>
                    </g>
                </g>
                <g id="Shadowline-Left-Elbow" opacity="0.2">
                    <g transform="matrix(-0.171429,-0.985197,-0.985197,0.171429,604.7,678.217)">
                        <path d="M-12.177,-19.959C-13.264,-15.95 -16.13,-11.344 -16.906,-4.029C-17.42,0.711 -14.024,5.602 -12.177,8.998C-9.645,13.683 -20.378,2.227 -20.184,-3.12C-19.886,-11.658 -10.836,-24.876 -12.177,-19.959" style="fill-rule:nonzero;"/>
                    </g>
                </g>
                <g id="Shadowline-Bottom" opacity="0.2">
                    <g transform="matrix(1,0,0,1,893.571,880.254)">
                        <path d="M0,-16.032C-6.973,-11.003 -12.308,-8.87 -22.09,-6.738C-26.204,-5.859 -31.471,-4.785 -37.357,-3.808C-45.384,-2.457 -52.341,-1.676 -60.401,-1.172C-79.063,0 -97.373,-0.504 -120.784,-3.109C-76.086,-0.179 -33.679,-2.816 0.017,-16.016" style="fill-rule:nonzero;"/>
                    </g>
                </g>
                <g id="Shadowline-Right-Elbow" opacity="0.2">
                    <g transform="matrix(-0.175865,-0.984414,-0.984414,0.175865,988.206,630.547)">
                        <path d="M-12.987,-14.828C-12.448,-5.7 -12.311,5.707 -12.311,9.971C-12.314,10.872 -12.778,8.831 -12.987,4.147C-12.997,3.724 -13.431,-0.837 -13.335,-4.183C-13.142,-10.418 -13.091,-13.094 -12.99,-14.845" style="fill-rule:nonzero;"/>
                    </g>
                </g>
                <g id="Shadowline-Left-Hand" opacity="0.2">
                    <g transform="matrix(1,0,0,1,640.614,873.776)">
                        <path d="M0,-15.625C-0.134,-10.775 0.033,-14.16 0.033,-8.675C0.318,-8.268 -0.97,0 -0.819,-0.407C1.304,-5.957 1.405,-10.465 0.017,-15.625" style="fill-rule:nonzero;"/>
                    </g>
                </g>
                <g id="Shadow-Shirt-Right" opacity="0.14">
                    <g transform="matrix(1,0,0,1,952.834,564.045)">
                        <path d="M0,40.105C-7.692,23.112 -8.478,0 -8.478,0C-6.12,19.304 -3.244,27.328 0,40.105Z" style="fill-rule:nonzero;"/>
                    </g>
                </g>
                <g id="Shadow-Left-Leg" opacity="0.14">
                    <g transform="matrix(1,0,0,1,711.617,1010.46)">
                        <path d="M0,-541.225C-0.033,-541.225 -0.351,-510.3 -0.401,-494.04C-0.401,-494.04 0.702,-461.194 1.104,-451.33C1.137,-450.809 1.237,-450.581 1.237,-450.581C1.338,-449.963 1.405,-449.556 1.488,-449.1C1.589,-448.514 1.605,-448.417 2.14,-444.934C2.408,-443.225 2.609,-441.89 2.876,-440.165L2.876,-440.067C2.876,-440.067 3.528,-435.835 4.114,-431.766C7.676,-406.798 9.615,-375.612 9.615,-375.612C9.849,-371.917 10.05,-368.044 10.451,-360.28C11.07,-348.463 11.505,-340.097 11.873,-329.517C12.174,-320.744 12.308,-314.217 12.441,-307.267C12.692,-294.197 12.776,-282.56 12.776,-279.19C12.742,-256.355 7.726,-234.268 1.237,-206.37C-5.502,-177.381 -10.669,-163.66 -14.682,-152.511C-20.635,-135.974 -30.668,-114.017 -53.595,-111.136C-47.809,-90.042 -44.615,-80.341 -44.615,-59.947C-44.615,-50.23 -45.033,-45.379 -46.254,-37.518C-46.488,-35.955 -48.043,-32.098 -50.049,-25.978C-51.588,-21.274 -52.758,-15.805 -50.451,-11.02C-47.307,-4.509 -35.769,-2.556 -26.839,-1.84C-10.501,-0.538 -3.261,-0.375 6.187,-0.375C15.635,-0.375 37.541,0.032 37.541,0.032C37.541,0.032 35.802,-6.56 39.565,-14.161C41.705,-18.474 44.531,-22.104 49.214,-26.287C55.936,-32.277 64.063,-36.313 64.063,-36.313C64.063,-36.313 62.758,-37.485 58.126,-38.494C54.13,-39.373 47.525,-40.138 38.143,-39.796C33.344,-39.634 27.926,-38.917 23.645,-38.006C22.893,-37.843 20.919,-37.436 18.612,-36.688C17.726,-36.427 16.037,-35.841 14.816,-35.32C4.281,-30.893 -12.943,-25.701 -12.943,-25.701C-12.943,-25.701 17.441,-93.834 25.418,-123.799C33.461,-154.057 41.605,-201.861 42.29,-208.372C46.839,-251.586 50.836,-296.134 38.528,-361.533C36.655,-371.51 34.866,-379.486 33.077,-386.534C26.689,-411.713 24.063,-417.687 18.11,-438.895C7.625,-476.314 2.776,-508.102 0.702,-533.852C0.602,-535.17 0.234,-541.257 0.017,-541.257L0,-541.225Z" style="fill-rule:nonzero;"/>
                    </g>
                </g>
                <g id="Shadow_Right-Leg" opacity="0.14">
                    <g transform="matrix(1,0,0,1,945.644,907.609)">
                        <path d="M0,65.968C-1.371,63.559 -14.264,60.222 -25.635,59.669C-37.274,59.099 -44.297,60.694 -47.926,61.736C-52.641,63.071 -66.588,66.131 -71.12,69.891C-65.718,35.043 -67.006,-0.424 -68.829,-35.613C-86.571,-31.235 -104.815,-28.793 -123.092,-28.305C-113.343,-14.015 -105.952,14.941 -106.253,40.235C-106.353,49.317 -106.704,57.716 -108.611,65.317C-109.062,67.107 -109.932,68.149 -110.5,69.451C-112.34,73.618 -115.851,81.366 -113.142,86.639C-110.4,91.978 -103.025,94.387 -97.039,95.689C-75.032,100.49 -49.932,101.581 -29.782,101.581C-28.578,84.784 -17.826,68.182 -0.017,65.952" style="fill-rule:nonzero;"/>
                    </g>
                </g>
            </g>
            <g id="Scrumlr">
                <g id="Scrumlr_Text" transform="matrix(1,0,0,1,913.805,653.061)">
                    <path d="M0,-58.14C0.97,-59.165 1.89,-59.572 2.859,-58.84C3.98,-58.075 4.532,-56.822 4.532,-55.568C4.532,-54.901 4.482,-54.38 4.231,-53.534C2.659,-47.658 -2.893,-41.326 -7.375,-37.925C-8.395,-35.369 -9.063,-33.139 -9.063,-31.463C-9.063,-30.324 -8.762,-29.542 -8.094,-29.64C-5.752,-29.949 -2.793,-33.514 -0.87,-37.192C-0.686,-37.55 -0.468,-37.811 -0.234,-37.99C0.836,-39.634 2.09,-41.44 3.411,-43.133C2.793,-43.573 2.441,-44.159 2.441,-44.777C2.441,-47.202 5.702,-51.011 7.274,-51.206C8.344,-51.336 8.796,-50.832 8.796,-49.741C8.796,-48.83 8.445,-47.414 7.876,-45.819C9.097,-46.258 10.468,-47.105 12.007,-48.358C12.876,-49.042 13.378,-49.204 14.047,-48.667C14.766,-48.097 15.518,-46.958 15.518,-45.802C15.518,-45.233 15.267,-44.533 14.699,-43.833C11.956,-40.529 9.047,-36.378 9.047,-33.579C9.047,-32.342 9.448,-31.626 10.167,-31.723C11.906,-31.951 13.93,-34.881 15.518,-38.364C15.92,-39.276 16.639,-39.406 17.09,-38.608C17.441,-37.99 17.492,-36.85 16.94,-35.483C15.719,-32.602 12.709,-30.177 9.816,-29.803C6.706,-29.396 5.034,-31.235 5.034,-33.807C5.034,-36.85 7.726,-40.871 10.284,-44.11C8.963,-43.41 7.692,-43.052 6.572,-42.873C2.759,-36.183 -0.15,-31.43 -0.869,-28.045C-1.07,-27.166 -1.739,-26.645 -2.659,-27.443C-3.361,-27.963 -3.746,-28.68 -3.879,-29.493C-5.15,-28.647 -6.572,-27.98 -8.06,-27.784C-10.518,-27.475 -12.224,-28.305 -12.843,-30.291C-14.615,-28.175 -17.274,-26.45 -19.682,-26.141C-23.143,-25.701 -25.033,-27.215 -25.033,-29.786C-25.033,-30.649 -24.832,-31.723 -24.264,-32.977C-23.444,-34.702 -21.772,-37.485 -20.602,-39.357C-19.481,-41.082 -18.26,-42.661 -18.662,-42.612C-19.063,-42.563 -20.133,-41.945 -23.143,-38.739C-27.123,-34.507 -29.565,-29.673 -31.705,-24.969C-32.207,-23.992 -32.926,-23.764 -33.745,-24.415C-34.514,-25.034 -34.866,-25.652 -34.866,-26.889C-34.866,-27.703 -34.464,-29.282 -33.946,-30.535C-33.227,-32.342 -31.555,-35.125 -30.183,-37.306C-28.812,-39.634 -27.374,-41.619 -27.842,-41.571C-28.244,-41.522 -30.234,-40.22 -33.294,-36.671C-36.136,-33.449 -38.494,-28.81 -40.468,-24.171C-40.819,-23.357 -41.387,-22.999 -42.257,-23.601C-42.608,-23.846 -42.909,-24.155 -43.126,-24.545C-44.531,-23.422 -46.136,-22.625 -47.692,-22.413C-50.702,-22.023 -52.223,-23.211 -52.424,-25.327C-54.163,-23.292 -56.454,-21.518 -59.046,-21.192C-60.818,-20.965 -61.855,-21.681 -62.323,-22.82C-64.012,-21.241 -66.236,-20.118 -68.059,-19.89C-71.32,-19.467 -73.109,-21.339 -73.109,-24.155C-73.109,-26.629 -70.417,-31.512 -67.608,-34.962C-68.979,-34.262 -70.417,-33.79 -71.588,-33.595C-75.25,-25.506 -80.952,-18.279 -87.423,-17.449C-92.106,-16.847 -94.647,-19.37 -94.647,-23.097C-94.647,-24.757 -94.146,-26.743 -93.126,-28.777C-90.433,-33.986 -86.403,-37.176 -83.444,-37.55C-82.775,-37.632 -82.173,-37.615 -81.654,-37.404C-80.133,-36.736 -79.213,-36.004 -78.644,-35.076C-77.942,-33.758 -78.577,-32.098 -79.447,-30.291L-79.514,-30.161C-79.564,-30.063 -79.614,-29.949 -79.664,-29.835C-80.016,-29.07 -80.434,-28.305 -80.584,-27.768C-80.935,-26.726 -81.136,-26.466 -82.424,-26.906C-83.444,-27.247 -84.213,-28.159 -84.213,-29.445C-84.213,-30.161 -83.544,-31.821 -83.042,-32.977C-83.009,-33.042 -82.992,-33.091 -82.959,-33.156L-82.909,-33.253C-82.457,-34.214 -82.039,-35.076 -82.273,-35.223C-82.942,-35.613 -86.203,-32.293 -88.326,-27.964C-89.347,-25.88 -89.848,-23.911 -89.848,-22.478C-89.848,-20.476 -88.979,-19.256 -87.507,-19.353C-82.524,-19.809 -77.072,-27.475 -74.414,-33.677C-75.484,-34.018 -75.835,-34.686 -75.835,-35.581C-75.835,-38.104 -72.474,-42.026 -70.735,-42.287C-69.665,-42.417 -69.263,-41.864 -69.263,-40.806C-69.263,-39.748 -69.665,-38.315 -70.233,-36.671C-68.812,-37.192 -67.424,-37.99 -65.802,-39.292C-65.032,-39.91 -64.23,-40.22 -63.561,-39.634C-62.742,-38.885 -62.14,-37.811 -62.14,-36.574C-62.14,-36.004 -62.39,-35.255 -63.009,-34.555C-65.2,-31.886 -67.691,-28.468 -68.511,-25.847C-68.762,-25.099 -68.912,-24.366 -68.912,-23.65C-68.912,-22.462 -68.511,-21.795 -67.742,-21.844C-66.136,-21.925 -63.511,-24.887 -61.922,-28.11C-60.768,-31.268 -58.21,-36.281 -55.099,-40.773C-54.431,-41.668 -53.528,-41.701 -52.909,-41.05C-52.357,-40.448 -52.14,-39.666 -52.14,-38.95C-52.14,-36.997 -55.852,-30.991 -57.641,-27.085C-58.561,-25.066 -58.711,-23.276 -57.591,-23.422C-56.27,-23.601 -53.561,-27.182 -50.969,-31.333C-47.959,-36.297 -46.638,-39.699 -44.815,-42.14C-44.096,-43.133 -43.294,-43.426 -42.675,-42.71C-42.173,-42.108 -41.906,-41.375 -41.906,-40.334C-41.906,-38.706 -42.976,-36.476 -44.765,-33.481C-46.237,-31.056 -48.227,-27.557 -48.227,-25.701C-48.227,-24.838 -47.926,-24.399 -47.257,-24.497C-46.019,-24.659 -44.297,-26.645 -42.742,-28.973C-41.538,-32.13 -38.026,-38.901 -35.033,-43.556C-34.364,-44.549 -33.612,-44.598 -33.093,-43.8C-32.642,-43.149 -32.374,-42.368 -32.374,-41.603C-32.374,-41.229 -32.424,-40.789 -32.525,-40.301C-30.334,-42.58 -27.491,-44.761 -25.852,-44.972C-24.23,-45.184 -23.16,-43.605 -23.16,-41.603C-20.869,-43.8 -18.177,-45.77 -16.538,-45.933C-15.067,-46.079 -14.247,-44.891 -14.247,-43.328C-14.247,-41.766 -15.317,-39.373 -17.408,-36.102C-17.475,-36.004 -17.541,-35.89 -17.608,-35.792L-17.709,-35.63C-17.776,-35.532 -17.842,-35.418 -17.909,-35.32L-18.01,-35.158C-19.197,-33.237 -20.167,-31.365 -20.167,-29.933C-20.167,-28.842 -19.665,-28.143 -18.846,-28.24C-17.274,-28.452 -14.766,-32.098 -12.893,-35.255C-12.759,-35.467 -12.625,-35.63 -12.491,-35.744C-10.317,-43.703 -4.816,-52.769 0,-58.124L0,-58.14ZM-95.434,-46.698C-94.213,-46.86 -93.193,-46.649 -92.323,-46.095C-90.902,-45.037 -89.982,-43.589 -89.631,-42.352C-89.129,-40.464 -90.4,-38.397 -91.153,-37.241C-92.373,-35.565 -93.845,-32.895 -94.564,-31.658C-95.016,-30.844 -95.584,-30.389 -96.554,-31.219C-97.273,-31.788 -97.775,-32.537 -97.775,-33.628C-97.775,-34.718 -97.106,-36.574 -95.434,-38.885C-95.35,-39.015 -95.25,-39.162 -95.166,-39.292L-95.082,-39.406L-94.999,-39.52C-94.999,-39.52 -94.965,-39.552 -94.965,-39.585L-94.882,-39.699C-93.795,-41.408 -92.875,-43.133 -93.477,-43.459C-95.367,-44.501 -106.52,-36.069 -106.771,-30.552C-106.922,-27.394 -99.949,-25.571 -97.959,-24.497C-96.989,-23.96 -96.42,-23.162 -96.42,-22.267C-96.42,-21.176 -97.089,-19.842 -98.41,-18.198C-99.731,-16.603 -102.223,-15.268 -105.283,-14.877C-108.995,-14.405 -113.945,-15.707 -117.958,-19.532C-118.677,-20.249 -118.31,-20.818 -117.607,-21.16C-117.206,-21.307 -116.637,-21.437 -116.035,-21.502C-114.564,-21.697 -113.126,-21.502 -112.072,-20.818C-110.082,-19.549 -106.721,-17.595 -103.778,-17.986C-102.658,-18.133 -101.638,-18.507 -101.069,-19.093C-100.3,-19.907 -100.567,-20.737 -101.119,-21.095C-104.781,-23.292 -111.871,-24.952 -111.871,-29.819C-111.871,-36.297 -103.928,-42.987 -99.346,-45.396C-97.674,-46.275 -96.604,-46.568 -95.434,-46.714L-95.434,-46.698ZM-1.572,-49.025C0.167,-52.053 1.488,-54.087 1.689,-54.022C1.99,-53.876 1.338,-51.695 -0.401,-48.748C-1.572,-46.746 -3.311,-44.321 -5.502,-42.043C-5.15,-42.905 -2.91,-46.763 -1.572,-49.025M-127.406,0.211C-127.406,0.211 -65.768,-18.458 12.592,-21.534C14.448,-21.599 16.003,-20.509 16.003,-19.158C16.003,-17.905 14.665,-16.863 12.96,-16.782C-1.304,-16.196 -63.16,-12.973 -119.396,0.211C-119.396,0.406 -127.39,1.432 -127.39,0.211" style="fill:white;"/>
                </g>
                <g transform="matrix(1,0,0,1,787.485,650.912)">
                    <path d="M0,-4.118L32.341,-7.455C34.398,-7.666 36.27,-6.25 36.555,-4.248L36.555,-4.102C36.872,-2.116 35.451,-0.277 33.411,-0L33.277,-0L0.936,3.337C-1.12,3.548 -2.993,2.132 -3.278,0.13L-3.278,-0.016C-3.595,-2.002 -2.174,-3.841 -0.134,-4.118L0,-4.118Z" style="fill:rgb(0,87,255);"/>
                </g>
                <g transform="matrix(1,0,0,1,824.676,644.662)">
                    <path d="M0,-4.118L32.341,-7.455C34.398,-7.666 36.27,-6.25 36.555,-4.248L36.555,-4.102C36.872,-2.116 35.451,-0.277 33.411,-0L33.277,-0L0.936,3.337C-1.12,3.548 -2.993,2.132 -3.278,0.13L-3.278,-0.016C-3.595,-2.002 -2.174,-3.841 -0.134,-4.118L0,-4.118Z" style="fill:rgb(94,0,255);"/>
                </g>
                <g transform="matrix(1,0,0,1,860.394,639.665)">
                    <path d="M0,-4.118L32.341,-7.455C34.398,-7.666 36.27,-6.25 36.555,-4.248L36.555,-4.102C36.872,-2.116 35.451,-0.277 33.411,-0L33.277,-0L0.936,3.337C-1.12,3.548 -2.993,2.132 -3.278,0.13L-3.278,-0.016C-3.595,-2.002 -2.174,-3.841 -0.134,-4.118L0,-4.118Z" style="fill:rgb(192,0,255);"/>
                </g>
                <g transform="matrix(1,0,0,1,894.625,637.159)">
                    <path d="M0,-4.118L32.341,-7.455C34.398,-7.666 36.27,-6.25 36.555,-4.248L36.555,-4.102C36.872,-2.116 35.451,-0.277 33.411,-0L33.277,-0L0.936,3.337C-1.12,3.548 -2.993,2.132 -3.278,0.13L-3.278,-0.016C-3.595,-2.002 -2.174,-3.841 -0.134,-4.118L0,-4.118Z" style="fill:rgb(255,0,105);"/>
                </g>
            </g>
        </g>
        <g id="Bubbles_Top-Left">
            <g transform="matrix(1.12483,0,0,1.25869,-80.8908,-74.0734)">
                <ellipse cx="656.234" cy="293.783" rx="8.232" ry="7.448" style="fill:rgb(226,3,96);"/>
            </g>
            <g transform="matrix(2.1915,0,0,2.37027,-720.916,-361.751)">
                <ellipse cx="656.234" cy="293.783" rx="8.232" ry="7.448" style="fill:rgb(0,87,255);"/>
            </g>
            <g transform="matrix(1.91721,0,0,2.13448,-465.408,-238.542)">
                <ellipse cx="656.234" cy="293.783" rx="8.232" ry="7.448" style="fill:rgb(112,224,0);"/>
            </g>
            <g transform="matrix(2.16102,0,0,2.23554,-528.066,-343.241)">
                <ellipse cx="656.234" cy="293.783" rx="8.232" ry="7.448" style="fill:rgb(255,170,90);"/>
            </g>
            <g transform="matrix(3.50198,0,0,3.71764,-1462.23,-889.544)">
                <ellipse cx="656.234" cy="293.783" rx="8.232" ry="7.448" style="fill:rgb(234,67,75);"/>
            </g>
            <g transform="matrix(0.732688,0,0,0.854483,276.709,17.1549)">
                <ellipse cx="656.234" cy="293.783" rx="8.232" ry="7.448" style="fill:rgb(24,216,171);"/>
            </g>
            <g transform="matrix(2.26869,0,0,2.39048,-516.319,-486.879)">
                <ellipse cx="656.234" cy="293.783" rx="8.232" ry="7.448" style="fill:rgb(192,0,255);"/>
            </g>
        </g>
        <g id="Bubbles_Bottom-Left">
            <ellipse cx="654.459" cy="1089.88" rx="27.439" ry="26.459" style="fill:rgb(234,67,75);"/>
            <g transform="matrix(2.7152,0,0,2.44593,-1214.07,-1877.73)">
                <ellipse cx="737.266" cy="1289.31" rx="12.25" ry="13.23" style="fill:rgb(94,0,255);"/>
            </g>
            <g transform="matrix(1,0,0,1,51.3883,-21.6249)">
                <ellipse cx="585.86" cy="1239.82" rx="19.599" ry="18.619" style="fill:rgb(24,216,171);"/>
            </g>
            <ellipse cx="516.086" cy="978.717" rx="14.425" ry="13.798" style="fill:rgb(112,224,0);"/>
            <g transform="matrix(1,0,0,1,29.2032,-92.1175)">
                <ellipse cx="482.846" cy="1225.83" rx="15.68" ry="16.307" style="fill:rgb(192,0,255);"/>
            </g>
        </g>
        <g id="Bubbles-Top-Right">
            <g transform="matrix(1,0,0,1,7.34977,-37.9739)">
                <ellipse cx="2089.71" cy="407.211" rx="23.519" ry="22.539" style="fill:rgb(112,224,0);"/>
            </g>
            <g transform="matrix(1,0,0,1,-8.57472,-14.6996)">
                <circle cx="1951.53" cy="459.15" r="13.72" style="fill:rgb(192,0,255);"/>
            </g>
            <g transform="matrix(1,0,0,1.03902,2.44999,-54.3264)">
                <ellipse cx="1871.17" cy="376.342" rx="21.559" ry="20.089" style="fill:rgb(255,170,90);"/>
            </g>
            <g transform="matrix(1,0,0,1.048,22.0494,-21.2591)">
                <ellipse cx="1912.33" cy="211.217" rx="25.479" ry="23.519" style="fill:rgb(94,0,255);"/>
            </g>
            <g transform="matrix(1.11703,0,0,1,-239.91,-8.02793)">
                <ellipse cx="2139.2" cy="656.614" rx="10.29" ry="11.27" style="fill:rgb(0,87,255);"/>
            </g>
            <g transform="matrix(1,0,0,1,17.1495,-52.6735)">
                <ellipse cx="2081.08" cy="569.965" rx="13.798" ry="13.798" style="fill:rgb(226,3,96);"/>
            </g>
            <g id="Triangle">
                <path d="M2028.6,285.642L1923.11,286.4L2028.6,391.018L2028.6,285.642Z" style="fill:rgb(255,225,140);"/>
                <g transform="matrix(0.934314,0.0664707,0.0664707,0.932735,117.171,-118.73)">
                    <path d="M1924.49,391.655L1988.97,326.404" style="fill:none;stroke:rgb(36,44,61);stroke-width:9.33px;"/>
                </g>
            </g>
        </g>
    </g>
</svg>
