<?xml version="1.0" encoding="UTF-8" standalone="no"?>
<!DOCTYPE svg PUBLIC "-//W3C//DTD SVG 1.1//EN" "http://www.w3.org/Graphics/SVG/1.1/DTD/svg11.dtd">
<svg width="100%" height="100%" viewBox="0 0 7467 4023" version="1.1" xmlns="http://www.w3.org/2000/svg" xmlnsXlink="http://www.w3.org/1999/xlink" xmlSpace="preserve" xmlnsSerif="http://www.serif.com/" style="fill-rule:evenodd;clip-rule:evenodd;stroke-linecap:round;stroke-linejoin:round;stroke-miterlimit:1.5;">
    <g transform="matrix(5.55556,0,0,5.55556,-1377.78,-177.778)">
        <g id="onboarding-intro">
            <g id="Whiteboard" transform="matrix(1.48857,0,0,1.42156,-165.672,-389.689)">
                <g id="Whiteboard_outer" transform="matrix(0.828929,0,0,0.952727,-66.9068,10.9958)">
                    <path d="M1128.32,315.471C1128.32,308.379 1122,302.621 1114.22,302.621L442.465,302.621C434.681,302.621 428.361,308.379 428.361,315.471L428.361,611.032C428.361,618.124 434.681,623.883 442.465,623.883L1114.22,623.883C1122,623.883 1128.32,618.124 1128.32,611.032L1128.32,315.471Z" style="fill:rgb(215,213,214);"/>
                </g>
                <g id="Whiteboard_inner" transform="matrix(0.793555,0,0,0.88152,-39.733,44.1608)">
                    <path d="M1128.32,315.471C1128.32,308.379 1122.21,302.621 1114.69,302.621L441.993,302.621C434.469,302.621 428.361,308.379 428.361,315.471L428.361,611.032C428.361,618.124 434.469,623.883 441.993,623.883L1114.69,623.883C1122.21,623.883 1128.32,618.124 1128.32,611.032L1128.32,315.471Z" style="fill:rgb(252,252,252);"/>
                </g>
                <g transform="matrix(1,0,0,1,-109.17,-2.45017)">
                    <path d="M406.765,328.023L406.421,581.796L409.367,581.784L409.365,328.098L406.765,328.023Z" style="fill:rgb(176,176,176);"/>
                </g>
                <g transform="matrix(-1,0,0,1,1265.02,-2.38218)">
                    <path d="M406.765,328.023L406.421,581.796L409.367,581.784L409.365,328.098L406.765,328.023Z" style="fill:rgb(176,176,176);"/>
                </g>
                <g transform="matrix(1,0,0,1.19986,-1.13687e-13,-62.1415)">
                    <path d="M315.004,310.921L314.949,308.647L841.541,309.31L841.422,310.929L315.004,310.921Z" style="fill:rgb(176,176,176);"/>
                </g>
                <g transform="matrix(1,0,0,1.3687,-0.308927,171.713)">
                    <path d="M315.004,310.921L314.949,308.647L841.791,308.616L841.793,310.913L315.004,310.921Z" style="fill:rgb(176,176,176);"/>
                </g>
                <path id="top_left" d="M300.195,325.727C299.944,320.279 300.532,317.721 303.514,314.247C306.495,310.774 312.076,310.899 315.047,310.927L315.143,299.311L300.417,299.311C290.053,299.727 288.135,309.166 288.174,311.554L288.174,325.759L300.195,325.727Z" style="fill:rgb(41,41,41);"/>
                <g id="top_right" transform="matrix(-1,0,0,1,1156.44,0.0762483)">
                    <path d="M300.788,325.677C300.625,321.28 300.802,317.954 303.783,314.481C306.764,311.007 312.082,310.781 315.047,310.927L315.136,299.211L300.417,299.311C290.053,299.727 288.059,308.137 288.051,311.554L288.027,325.747L300.788,325.677Z" style="fill:rgb(41,41,41);"/>
                </g>
                <g id="bottom_right" transform="matrix(-1,0,0,-1,1156.46,904.898)">
                    <path d="M300.788,325.677C300.625,321.28 300.802,317.954 303.783,314.481C306.764,311.007 312.082,310.653 315.047,310.799L315.105,299.469L300.417,299.311C290.053,299.727 288.059,308.137 288.051,311.554L288.027,325.747L300.788,325.677Z" style="fill:rgb(41,41,41);"/>
                </g>
                <g id="bottom_left" transform="matrix(1,0,0,-1,-0.321506,905.007)">
                    <path d="M300.53,325.686C300.367,321.29 300.777,317.904 303.758,314.431C306.739,310.957 312.082,310.746 315.047,310.893L315.101,299.613L300.317,299.486C289.954,299.902 288.408,308.237 288.4,311.654L288.459,325.728L300.53,325.686Z" style="fill:rgb(41,41,41);"/>
                </g>
            </g>
            <g id="Chair" transform="matrix(1.48857,0,0,1.42156,-319.851,-361.359)">
                <g id="Chair_Stand">
                </g>
                <g id="Chair_Back">
                    <path d="M589.72,552.008L651.684,598.329L806.602,818.884L652.398,812.948L620.964,739.379L566.6,588.526L580.871,551.572L589.72,552.008Z" style="fill:rgb(93,77,67);"/>
                    <path d="M652.604,812.602L808.117,818.459L808.118,836.302L645.123,832.833C645.123,832.833 558.546,622.676 561.582,588C564.515,554.496 584.911,546.944 585.066,546.017C585.22,545.09 589.72,552.008 589.72,552.008C589.72,552.008 562.086,567.158 577.062,609.523C582.575,625.117 652.604,812.602 652.604,812.602Z" style="fill:rgb(62,50,42);"/>
                </g>
            </g>
            <g id="Person" transform="matrix(1.48857,0,0,1.42156,-319.851,-361.359)">
                <g id="Face" transform="matrix(1.04883,-0.0509827,0.0509827,1.04883,-1116.22,-116.626)">
                    <g id="Neck" transform="matrix(0.951194,0.0462366,-0.0462366,0.951194,1052.08,164.276)">
                        <g transform="matrix(1,0,0,1,3.80414,0.292626)">
                            <path d="M681.205,496.389C682.485,491.089 684.232,477.925 683.761,466.741C683.654,464.189 726.932,469.232 726.122,472.276C725.462,474.757 727.145,492.128 728.28,498.431L739.223,500.269L742.222,506.116C742.222,506.116 727.275,518.455 707.329,518.942C687.382,519.428 669.764,505.269 669.764,505.269L671.053,499.578L681.205,496.389Z" style="fill:rgb(237,185,138);"/>
                        </g>
                        <g transform="matrix(1,-6.01749e-16,5.68989e-16,1.05757,0,-27.1762)">
                            <path d="M729.774,474.353L730.151,481.559C730.151,481.559 713.654,492.392 687.194,480.814C687.168,480.802 687.689,473.132 687.689,473.132L729.774,474.353Z" style="fill:rgb(214,167,124);"/>
                        </g>
                    </g>
                    <path d="M1661.71,584.811C1661.71,584.811 1659.98,580.602 1660.05,576.931C1660.09,574.541 1659.83,557.422 1661.85,553.052C1661.97,552.798 1663.33,540.93 1676.08,531.906C1676.08,531.906 1684.2,525.267 1701.02,524.266C1710.1,523.727 1718.28,520.86 1720.49,519.4C1722.48,518.079 1721.84,520.535 1721.35,521.975C1721.06,522.858 1720.47,523.291 1720.18,523.814C1719.9,524.336 1722.27,523.264 1722.84,522.895C1723.06,522.755 1725.44,521.718 1726.5,520.952C1727.56,520.186 1727.86,521.557 1727.67,522.468C1727.54,523.155 1726.73,524.268 1726.91,524.481C1727.09,524.694 1727.52,524.605 1728.47,524.268C1729.42,523.931 1731.7,523.149 1732.09,522.942C1732.55,522.701 1733.99,521.842 1734.58,522.385C1734.85,522.634 1734.99,523.691 1734.85,524.192C1734.7,524.694 1733.64,527.181 1733.64,527.597C1733.64,528.013 1733.29,528.634 1734.64,529.521C1735.99,530.407 1743.88,535.82 1746.21,539.425C1748.55,543.029 1751.29,547.699 1752.36,555.276C1753.42,562.854 1753.34,569.694 1753.22,571.906C1753.09,574.118 1752.52,580.087 1752.6,583.006C1752.63,584.159 1752.61,584.057 1752.61,584.057" style="fill:rgb(74,49,44);"/>
                    <path id="Face-Color" serifid="Face Color" d="M1682.5,544.102C1682.5,544.102 1674.55,553.081 1674.36,553.171C1666.57,556.802 1663.05,584.772 1662.84,584.761C1657.57,584.507 1654.95,591.008 1654.95,591.008C1654.95,591.008 1654.68,607.16 1654.73,607.349C1656.48,613.464 1663.04,614.457 1663.04,614.457C1663.04,614.457 1667.28,653.606 1709.06,654.086C1748.21,650.969 1751.97,614.097 1751.97,614.097C1751.97,614.097 1759.56,610.915 1759.95,606.581C1760.34,602.248 1759.98,594.339 1759.69,591.199C1759.4,588.059 1756.2,585.745 1754.61,584.651C1753.02,583.557 1751.45,584.308 1751.36,584.294C1749.66,584.012 1748.29,572.108 1748.29,572.108C1748.29,572.108 1746.55,557.055 1740.46,553.471C1730.76,547.769 1729.91,542.668 1728.68,542.873C1715.23,545.109 1683.62,543.999 1682.5,544.102" style="fill:rgb(237,185,138);"/>
                    <g id="Eyes">
                        <g id="Eye-Left" serifid="Eye Left">
                            <path d="M1694.72,600.328C1695.21,600.442 1696.83,600.116 1697.08,599.7C1698.24,597.762 1697.6,594.747 1696.64,593.304C1694.51,590.088 1691.1,588.204 1687.73,588.221C1684.36,588.237 1681.14,588.657 1678.27,591.019C1675.39,593.381 1675.41,597.393 1675.36,598.074C1675.31,598.756 1675.82,601.062 1677.68,600.459C1680.51,599.542 1689.33,599.077 1694.72,600.328Z" style="fill:white;"/>
                            <g transform="matrix(0.999747,0.0224769,-0.0224769,0.999747,15.872,-37.7095)">
                                <path d="M1683.49,599.654C1683.46,599.658 1681.94,599.084 1681.91,595.748C1681.88,593.342 1683.9,592.082 1684.66,591.868C1685.41,591.653 1687.24,591.387 1688.59,592.014C1689.95,592.641 1690.85,594.23 1690.98,594.804C1691.14,595.51 1691.21,596.288 1690.93,597.523C1690.64,598.758 1689.71,599.66 1689.71,599.66C1689.71,599.66 1685.74,599.425 1683.49,599.654Z" style="fill:rgb(77,77,77);"/>
                            </g>
                        </g>
                        <g id="Eye-Right" serifid="Eye Right">
                            <g transform="matrix(-1,0,0,1,3414.56,-0.41954)">
                                <path d="M1694.72,600.328C1695.21,600.442 1696.83,600.116 1697.08,599.7C1698.24,597.762 1697.6,594.747 1696.64,593.304C1694.51,590.088 1691.1,588.204 1687.73,588.221C1684.36,588.237 1681.14,588.657 1678.27,591.019C1675.39,593.381 1675.41,597.393 1675.36,598.074C1675.31,598.756 1675.82,601.062 1677.68,600.459C1680.51,599.542 1689.33,599.077 1694.72,600.328Z" style="fill:white;"/>
                            </g>
                            <g transform="matrix(-0.999196,-0.0400973,-0.0400973,0.999196,3439.17,67.713)">
                                <path d="M1683.49,599.654C1683.46,599.658 1681.94,599.084 1681.91,595.748C1681.88,593.342 1683.9,592.082 1684.66,591.868C1685.41,591.653 1687.24,591.387 1688.59,592.014C1689.95,592.641 1690.85,594.23 1690.98,594.804C1691.14,595.51 1691.21,596.288 1690.93,597.523C1690.64,598.758 1689.71,599.66 1689.71,599.66C1689.71,599.66 1685.74,599.425 1683.49,599.654Z" style="fill:rgb(77,77,77);"/>
                            </g>
                        </g>
                        <g transform="matrix(0.638999,0.0310611,-0.0325253,0.669121,1248.98,414.272)">
                            <path d="M676.743,224.25C676.743,224.25 693.012,206.263 709.315,219.876" style="fill:none;stroke:rgb(95,74,55);stroke-width:5px;"/>
                        </g>
                        <g transform="matrix(0.638999,0.0310611,-0.0325253,0.669121,1247.6,412.339)">
                            <path d="M781.484,218.534C781.484,218.534 763.617,205.755 747.797,220.346" style="fill:none;stroke:rgb(95,74,55);stroke-width:5px;"/>
                        </g>
                    </g>
                    <g id="Mouth">
                        <path id="Mouth_inside" d="M1693.36,638.241C1693.62,638.346 1721.05,638.529 1722.04,637.795C1723.43,636.77 1720.86,622.852 1707.6,623.01C1694.46,623.168 1691.26,637.399 1693.36,638.241Z" style="fill:rgb(72,56,42);"/>
                        <path id="Tongue" d="M1695.26,638.316C1695.26,638.316 1710.13,638.495 1719.95,638.118C1719.96,638.118 1718.85,631.888 1710.89,631.84C1708.94,631.828 1709.29,632.927 1707.6,632.961C1705.9,632.995 1706.36,631.908 1704.45,631.83C1697.24,631.533 1695.26,638.316 1695.26,638.316Z" style="fill:rgb(255,79,109);"/>
                        <path id="Teeth" d="M1697.31,627.121L1717.97,626.945C1717.97,626.945 1715.16,622.972 1707.68,623.002C1700.85,623.03 1697.31,627.121 1697.31,627.121Z" style="fill:white;"/>
                    </g>
                    <path id="Nose" d="M1697.9,609.623L1716.92,609.435C1716.92,609.435 1717.09,615.81 1707.55,615.852C1698.01,615.894 1697.9,609.623 1697.9,609.623Z" style="fill:rgb(199,155,116);"/>
                </g>
                <g id="Hands">
                    <g id="Hand-Left" serifid="Hand Left" transform="matrix(1,0,0,1,-1.61806,-2.12745)">
                        <path d="M655.693,392.564C655.693,392.564 656.69,380.291 659.758,377.299C662.827,374.307 669.04,371.929 671.265,371.623C673.489,371.316 676.027,366.821 675.683,365.102C675.339,363.384 674.259,358.033 671.117,357.346C671.117,357.346 669.347,355.581 663.947,356.367C663.947,356.367 657.43,356.48 653.453,358.346C653.453,358.346 646.063,360.741 645.121,362.782C644.179,364.823 643.702,372.19 643.702,372.19C643.702,372.19 643.23,377.947 642.367,379.29C641.504,380.632 650.23,390.029 650.23,390.029L655.693,392.564Z" style="fill:rgb(237,185,138);"/>
                    </g>
                    <g id="Hand-Right" serifid="Hand Right" transform="matrix(-0.92021,0.0473871,0.0480665,0.933403,1333.85,-11.1167)">
                        <path d="M653.57,389.333C653.57,389.333 656.69,380.291 659.758,377.299C662.827,374.307 669.04,371.929 671.265,371.623C673.489,371.316 676.027,366.821 675.683,365.102C675.339,363.384 674.259,358.033 671.117,357.346C671.117,357.346 669.347,355.581 663.947,356.367C663.947,356.367 657.43,356.48 653.453,358.346C653.453,358.346 646.063,360.741 645.121,362.782C644.179,364.823 643.702,372.19 643.702,372.19C643.702,372.19 643.23,377.947 642.367,379.29C641.504,380.632 650.767,392.826 650.767,392.826L653.57,389.333Z" style="fill:rgb(237,185,138);"/>
                    </g>
                </g>
                <g id="Clothes">
                    <g id="Bottom">
                        <path id="Trousers" d="M643.122,741.867C643.122,741.867 637.952,784.54 651.821,801.826C664.475,817.596 734.884,832.881 746.197,833.641C749.65,833.874 750.903,838.583 751.382,841.555C751.382,841.555 749.288,875.281 750.337,886.518C751.386,897.754 763.051,963.186 766.946,979.217C766.946,979.217 785.554,978.943 792.386,977.146C792.386,977.146 795.388,833.49 795.388,824.165C795.388,814.841 790.226,810.61 784.712,805.576C779.199,800.542 752.942,782.379 752.942,782.379L784.712,805.576C785.815,807.299 802.869,825.387 844.376,831.174C845.241,831.295 846.774,833.833 846.467,836.042C846.467,836.042 840.154,842.02 839.195,877.737C838.236,913.455 836.457,982.701 836.457,982.701C836.457,982.701 847.755,984.764 860.316,980.512C863.831,979.322 896.645,820.619 894.012,812.133C891.378,803.647 791.006,750.252 773.626,746.776C756.247,743.3 709.831,737.234 709.831,737.234C709.831,737.234 642.566,741.479 643.122,741.867Z" style="fill:rgb(45,52,58);stroke:rgb(34,41,46);stroke-width:0.66px;"/>
                    </g>
                    <g id="T-Shirt">
                        <path d="M668.067,511.036C668.067,511.036 690.13,522.956 705.472,522.597C720.814,522.237 743.947,511.33 743.947,511.33C743.947,511.33 754.11,544.832 751.713,550.945C749.316,557.058 744.456,616.732 740.067,621.707C735.677,626.681 730.157,636.925 729.102,637.213C728.048,637.5 702.733,612.186 700.336,610.077C697.939,607.967 673.872,565.01 673.872,565.01L665.338,530.203L668.067,511.036Z" style="fill:rgb(38,46,51);"/>
                        <path d="M669.688,505.216L667.848,513.935C667.848,513.935 685.197,526.29 709.29,525.827C733.383,525.364 743.286,514.016 743.269,513.191C743.257,512.581 740.374,506.852 740.374,506.852C740.374,506.852 726.529,517.925 707.328,518.428C688.127,518.931 669.688,505.216 669.688,505.216Z" style="fill:rgb(34,41,46);"/>
                    </g>
                    <g id="Blazor">
                        <path d="M744.622,503.657C744.622,503.657 747.418,503.144 756.678,501.626C765.093,500.247 774.705,504.158 774.705,504.158C774.705,504.158 816.188,452.948 816.038,445.307C815.888,437.666 753.172,387.658 753.172,387.658C753.172,387.658 756.05,373.519 761.233,371.042C765.524,368.991 853.679,417.193 865.686,438.228C870.555,446.759 861.004,473.577 860.067,476.62C859.131,479.663 821.738,538.675 818.18,544.106C814.622,549.537 782.784,594.297 782.784,594.297C782.784,594.297 768.96,729.631 780.197,747.891C780.197,747.891 778.674,756.015 739.84,754.816C739.84,754.816 735.525,751.46 733.967,744.868C733.967,744.868 732.769,750.981 727.015,754.457C721.262,757.933 665.328,759.239 638.884,741.097C638.884,741.097 638.044,613.444 628.507,599.088C621.736,588.896 597.791,563.639 592.913,557.6C588.034,551.561 541.292,493.352 539.342,488.786C536.364,481.813 533.13,448.323 542.506,438.182C545.617,434.817 590.168,401.86 639.579,377.44C639.579,377.44 654.858,385.667 654.204,393.396C654.204,393.396 600.17,442.79 585.787,454.626C585.787,454.626 584.224,455.93 585.717,458.208C587.209,460.486 617.608,492.042 627.496,510.471C627.496,510.471 637.512,504.777 645.367,504.654C653.222,504.531 661.319,505.116 662.117,505.546C662.915,505.975 666.955,559.868 669.53,562.912C672.105,565.955 717.286,632.673 717.286,632.673L731.098,638.759L743.271,611.37L756.146,565.253L751.464,523.583L744.622,503.657Z" style="fill:rgb(58,76,90);"/>
                        <g transform="matrix(0.998989,-0.0449618,0.0449618,0.998989,-22.884,34.1911)">
                            <path d="M761.429,560.159L780.053,559.189C780.053,559.189 774.027,554.006 771.956,554.159C769.885,554.312 761.429,560.159 761.429,560.159Z" style="fill:rgb(230,230,230);"/>
                        </g>
                        <path id="Colar-Right" serifid="Colar Right" d="M753.035,601.326C760.461,581.422 765.597,557.068 765.597,557.068L760.593,549.367L766.466,541.299C766.466,541.299 762.803,534.507 757.461,522.425C751.706,509.41 745.198,503.785 745.068,503.655C743.409,501.996 737.51,501.33 737.359,501.569C737.208,501.808 740.308,506.901 740.308,506.901C740.308,506.901 750.417,525.106 745.735,572.862C741.053,620.619 728.558,634.643 728.558,634.643C728.558,634.643 734.178,639.44 735.435,639.238C736.692,639.037 745.736,620.887 753.035,601.326Z" style="fill:rgb(47,67,81);"/>
                        <path id="Colar-Left" serifid="Colar Left" d="M666.301,580.434C661.958,571.878 658.901,560.664 658.901,560.664L661.077,551.803C661.077,551.803 653.326,545.809 653.253,545.728C652.657,545.06 652.272,539.488 653.074,528.269C654.268,511.559 661.884,504.02 663.215,503.112C664.546,502.203 671.972,500.652 672.061,500.889C672.149,501.125 670.659,504.187 670.411,505.359C670.164,506.531 669.374,508.898 669.332,509.109C669.291,509.321 666.577,518.905 668.375,529.093C670.172,539.281 680.899,570.844 684.015,575.518C687.131,580.193 694.682,598.171 708.706,614.472C722.729,630.773 721.252,628.83 723.466,630.822C725.68,632.814 735.811,639.41 737.215,640.553C737.836,641.059 741.731,643.716 734.179,641.644C719.677,637.665 710.37,629.299 710.37,629.299C710.37,629.299 677.124,601.754 666.301,580.434Z" style="fill:rgb(47,67,81);"/>
                        <path id="Outline" d="M738.28,642.263C738.28,642.263 743.834,688.005 733.645,744.934C733.258,747.101 729.53,753.651 727.229,754.309C722.459,755.673 670.732,760.546 639.497,741.381C639.497,741.381 636.738,610.246 629.784,601.286C622.977,592.515 606.857,572.099 596.501,561.551C596.501,561.551 552.393,506.225 551.626,505.266C550.859,504.308 540.734,492.601 539.254,488.685C537.524,484.106 533.485,463.355 539.622,442.668C539.622,442.668 543.534,435.896 560.256,425.08C560.256,425.08 636.145,375.764 639.898,377.743C648.906,382.492 655.511,389.029 653.251,394.077C653.251,394.077 588.485,453.202 585.954,454.506C585.954,454.506 584.28,456.879 586.534,459.282C586.534,459.282 626.431,505.39 627.504,510.606C627.504,510.606 643.156,500.841 661.144,505.908L679.359,585.681L718.219,632.5L738.28,642.263Z" style="fill:none;stroke:rgb(47,67,81);stroke-width:0.66px;"/>
                        <path id="Outline1" serifid="Outline" d="M733.951,743.205C733.951,743.205 733.403,749.648 739.812,754.851C739.812,754.851 771.076,757.309 780.207,747.932C780.207,747.932 772.789,728.342 775.935,688.401C775.935,688.401 781.049,598.422 782.697,594.526C782.697,594.526 811.825,553.803 813.935,550.159C813.935,550.159 856.887,484.649 860.176,476.729C863.466,468.809 869.787,446.103 866.473,439.966C866.473,439.966 860.938,428.737 833.553,409.944C833.553,409.944 774.086,374.167 761.488,371.588C761.488,371.588 755.263,374.751 753.125,387.772C753.125,387.772 815.32,436.787 816.088,444.841C816.088,444.841 816.688,447.08 812.981,452.547C812.981,452.547 779.166,500.73 774.794,504.25C774.794,504.25 761.217,498.664 745.034,503.729L745.714,513.037L755.203,571.014L737.375,630.043L733.929,639.932L738.303,642.259C738.303,642.259 743.752,690.027 733.951,743.205Z" style="fill:none;stroke:rgb(47,67,81);stroke-width:0.66px;"/>
                        <g id="Button" transform="matrix(0.991172,0,0,1.04923,7.65944,-48.9374)">
                            <ellipse cx="729.147" cy="662.333" rx="3.476" ry="3.116" style="fill:rgb(33,48,59);"/>
                        </g>
                        <g id="Button1" serifid="Button" transform="matrix(0.991172,0,0,1.04923,8.51964,-9.21766)">
                            <ellipse cx="729.147" cy="662.333" rx="3.476" ry="3.116" style="fill:rgb(33,48,59);"/>
                        </g>
                        <g id="Button2" serifid="Button" transform="matrix(0.991172,0,0,1.04923,5.07187,35.6894)">
                            <ellipse cx="729.147" cy="662.333" rx="3.476" ry="3.116" style="fill:rgb(33,48,59);"/>
                        </g>
                    </g>
                </g>
            </g>
            <g id="Notes_Front" transform="matrix(1.48857,0,0,1.42156,-319.851,-361.359)">
                <g transform="matrix(1,0,0,1,1.86169,-3.18401)">
                    <path d="M1013.12,650.607L1045.31,650.356C1045.31,650.356 1047.74,665.575 1033.44,674.44L999.902,674.774C999.902,674.774 1015.71,663.067 1013.12,650.607Z" style="fill:rgb(218,114,122);"/>
                </g>
                <g transform="matrix(1,0,0,1,55.9646,-2.9288)">
                    <path d="M1013.12,650.607L1045.31,650.356C1045.31,650.356 1047.74,665.575 1033.44,674.44L999.902,674.774C999.902,674.774 1015.71,663.067 1013.12,650.607Z" style="fill:rgb(174,191,112);"/>
                </g>
                <g transform="matrix(1,0,0,1,170.806,-1.14238)">
                    <path d="M1013.12,650.607L1040.87,650.356C1040.87,650.356 1044.47,663.223 1036.57,673.002L1010.09,672.814C1010.09,672.814 1015.71,663.067 1013.12,650.607Z" style="fill:rgb(246,219,144);"/>
                </g>
                <g transform="matrix(1,0,0,1,1.95996,0.435545)">
                    <path d="M985.318,500.033L995.39,500.17L1000.15,529.161C1000.15,529.161 987.904,529.433 984.909,531.338C984.909,531.338 987.135,503.537 985.318,500.033Z" style="fill:rgb(93,199,255);"/>
                </g>
                <path d="M986.477,577.908L994.78,577.5L995.324,609.485L986.613,609.894C986.613,609.894 988.247,580.63 986.477,577.908Z" style="fill:rgb(246,219,144);"/>
            </g>
            <g id="Desk-Computer-Suitcase" serifid="Desk+Computer+Suitcase" transform="matrix(1.48857,0,0,1.42156,-319.851,-361.359)">
                <g id="PC">
                    <path d="M1217.97,487.615C1214.66,486.228 1005.99,486.438 1006.21,486.413C1006.43,486.389 997.726,487.945 994.02,498.806C993.435,500.523 993.355,637.122 993.355,637.122C993.355,637.122 994.206,648.257 1008.75,650.773L1016.44,650.89L1003.49,637.738L1003.87,497.703L1010.42,488.901L1217.52,488.453L1217.97,487.615Z" style="fill:rgb(159,159,160);"/>
                    <g transform="matrix(1,0,0,1,0.365777,0)">
                        <path d="M1110.8,651.056L1138.41,697.849C1138.41,697.849 1139.08,700.613 1137.11,701.238C1137.11,701.238 1081.95,701.344 1081.43,701.536C1080.91,701.728 1081.35,709.489 1081.35,709.489L1149.47,709.54L1150.75,706.061L1149.3,702.295L1139.69,687.329L1117.08,651.17L1110.8,651.056Z" style="fill:rgb(159,159,160);"/>
                    </g>
                    <path d="M1188.7,709.416C1188.61,707.023 1186.42,704.162 1186.42,704.162L1156.99,651.14L1211.65,651.106C1211.65,651.106 1220.73,648.705 1224.2,645.485C1227.67,642.264 1228.41,638.337 1228.61,637.551C1228.8,636.766 1228.93,501.981 1228.93,501.981C1228.93,501.981 1228.71,492.132 1217.81,487.577C1217.81,487.577 1013.45,486.952 1009.69,487.684C1005.93,488.416 1001.32,494.012 1001.32,498.845C1001.32,503.677 1001.31,639.538 1001.31,639.538C1001.94,641.332 1005.88,649.139 1014.53,650.919L1116.68,651.622C1116.68,651.622 1148.78,703.286 1149.79,705.391C1150.33,706.507 1148.88,709.576 1148.88,709.576L1148.73,710.676L1188.49,710.972C1188.49,710.972 1188.79,711.81 1188.7,709.416Z" style="fill:rgb(122,122,122);"/>
                </g>
                <g id="Desk">
                    <g id="Desk-Drawer" serifid="Desk Drawer">
                        <path d="M1252.1,728.857L1122.69,728.723L1122.44,985.463L1251.96,985.351L1252.1,728.857Z" style="fill:rgb(186,170,167);"/>
                        <path d="M991.224,728.518L991.76,982.606L1122.46,985.468L1122.69,728.723L991.224,728.518Z" style="fill:rgb(210,201,193);"/>
                    </g>
                    <g id="Desk-Base" serifid="Desk Base">
                        <g transform="matrix(0.906722,0,0,1.00475,63.5693,-4.26819)">
                            <path d="M671.466,728.017L690.519,728.13L699.072,1005.27C699.072,1005.27 695.6,1006.76 691.669,1005.51L671.466,728.017Z" style="fill:rgb(144,131,129);"/>
                        </g>
                        <path d="M512.645,988.974L520.525,728.313L534.941,728.294L518.734,989.284C518.734,989.284 515.703,990.915 512.645,988.974Z" style="fill:rgb(145,129,126);"/>
                        <g transform="matrix(0.930521,0,0,1,95.8054,0)">
                            <path d="M1378.76,709.804L1378.92,728.983L626.712,728.288L626.431,708.673L1378.76,709.804Z" style="fill:rgb(156,134,130);"/>
                        </g>
                        <g transform="matrix(1.44524,0,0,1,-227.018,0)">
                            <path d="M626.698,708.672L626.879,728.288L509.937,728.334L509.876,708.635L626.698,708.672Z" style="fill:rgb(116,112,111);"/>
                        </g>
                    </g>
                </g>
                <g id="Suitcase">
                </g>
            </g>
            <g id="Notes_Back" transform="matrix(1.48857,0,0,1.42156,-319.851,-361.359)">
                <path d="M1194.89,512.966C1194.89,512.966 1189.58,532.157 1209.18,544.815L1174.13,545.139C1174.13,545.139 1156.27,533.685 1162.04,513.127L1194.89,512.966Z" style="fill:rgb(241,160,125);"/>
                <path d="M1025.08,560.056L1056.66,560.056C1056.66,560.056 1046.52,577.267 1067.57,589.708L1032.47,589.564C1032.47,589.564 1020.48,582.16 1025.08,560.056Z" style="fill:rgb(174,191,112);"/>
                <path d="M1038.66,511.937C1038.66,511.937 1066.83,506.41 1075.84,504.847C1075.84,504.847 1080.46,525.958 1093.99,535.461C1093.99,535.461 1065.62,537.085 1057.56,543.833C1057.56,543.833 1046.14,517.235 1038.66,511.937Z" style="fill:rgb(93,199,255);"/>
            </g>
        </g>
    </g>
</svg>
