<?xml version="1.0" encoding="UTF-8" standalone="no"?>
<!DOCTYPE svg PUBLIC "-//W3C//DTD SVG 1.1//EN" "http://www.w3.org/Graphics/SVG/1.1/DTD/svg11.dtd">
<svg width="100%" height="100%" viewBox="0 0 224 271" version="1.1" xmlns="http://www.w3.org/2000/svg" xmlnsXlink="http://www.w3.org/1999/xlink" xmlSpace="preserve" style="fill-rule:evenodd;clip-rule:evenodd;stroke-linecap:round;stroke-linejoin:round;stroke-miterlimit:1.5;">
    <g transform="matrix(1,0,0,1,-802,-301)">
        <g id="Chair">
        </g>
        <g id="Person" transform="matrix(1.48857,0,0,1.42156,-135.795,-174.261)">
            <g id="Face" transform="matrix(1.04883,-0.0509827,0.0509827,1.04883,-1116.22,-116.626)">
                <g id="Neck" transform="matrix(0.951194,0.0462366,-0.0462366,0.951194,1052.08,164.276)">
                    <g transform="matrix(1,0,0,1,3.80414,0.292626)">
                        <path d="M681.205,496.389C682.485,491.089 684.232,477.925 683.761,466.741C683.654,464.189 726.932,469.232 726.122,472.276C725.462,474.757 727.145,492.128 728.28,498.431L739.223,500.269L742.222,506.116C742.222,506.116 727.275,518.455 707.329,518.942C687.382,519.428 669.764,505.269 669.764,505.269L671.053,499.578L681.205,496.389Z" style="fill:rgb(237,185,138);"/>
                    </g>
                    <g transform="matrix(1,-6.01749e-16,5.68989e-16,1.05757,0,-27.1762)">
                        <path d="M729.774,474.353L730.151,481.559C730.151,481.559 713.654,492.392 687.194,480.814C687.168,480.802 687.689,473.132 687.689,473.132L729.774,474.353Z" style="fill:rgb(214,167,124);"/>
                    </g>
                </g>
                <path d="M1661.71,584.811C1661.71,584.811 1659.98,580.602 1660.05,576.931C1660.09,574.541 1659.83,557.422 1661.85,553.052C1661.97,552.798 1663.33,540.93 1676.08,531.906C1676.08,531.906 1684.2,525.267 1701.02,524.266C1710.1,523.727 1718.28,520.86 1720.49,519.4C1722.48,518.079 1721.84,520.535 1721.35,521.975C1721.06,522.858 1720.47,523.291 1720.18,523.814C1719.9,524.336 1722.27,523.264 1722.84,522.895C1723.06,522.755 1725.44,521.718 1726.5,520.952C1727.56,520.186 1727.86,521.557 1727.67,522.468C1727.54,523.155 1726.73,524.268 1726.91,524.481C1727.09,524.694 1727.52,524.605 1728.47,524.268C1729.42,523.931 1731.7,523.149 1732.09,522.942C1732.55,522.701 1733.99,521.842 1734.58,522.385C1734.85,522.634 1734.99,523.691 1734.85,524.192C1734.7,524.694 1733.64,527.181 1733.64,527.597C1733.64,528.013 1733.29,528.634 1734.64,529.521C1735.99,530.407 1743.88,535.82 1746.21,539.425C1748.55,543.029 1751.29,547.699 1752.36,555.276C1753.42,562.854 1753.34,569.694 1753.22,571.906C1753.09,574.118 1752.52,580.087 1752.6,583.006C1752.63,584.159 1752.61,584.057 1752.61,584.057" style="fill:rgb(74,49,44);"/>
                <path id="Face-Color" serifid="Face Color" d="M1682.5,544.102C1682.5,544.102 1674.55,553.081 1674.36,553.171C1666.57,556.802 1663.05,584.772 1662.84,584.761C1657.57,584.507 1654.95,591.008 1654.95,591.008C1654.95,591.008 1654.68,607.16 1654.73,607.349C1656.48,613.464 1663.04,614.457 1663.04,614.457C1663.04,614.457 1667.28,653.606 1709.06,654.086C1748.21,650.969 1751.97,614.097 1751.97,614.097C1751.97,614.097 1759.56,610.915 1759.95,606.581C1760.34,602.248 1759.98,594.339 1759.69,591.199C1759.4,588.059 1756.2,585.745 1754.61,584.651C1753.02,583.557 1751.45,584.308 1751.36,584.294C1749.66,584.012 1748.29,572.108 1748.29,572.108C1748.29,572.108 1746.55,557.055 1740.46,553.471C1730.76,547.769 1729.91,542.668 1728.68,542.873C1715.23,545.109 1683.62,543.999 1682.5,544.102" style="fill:rgb(237,185,138);"/>
                <g id="Eyes">
                    <g id="Eye-Left" serifid="Eye Left">
                        <path d="M1694.72,600.328C1695.21,600.442 1696.83,600.116 1697.08,599.7C1698.24,597.762 1697.6,594.747 1696.64,593.304C1694.51,590.088 1691.1,588.204 1687.73,588.221C1684.36,588.237 1681.14,588.657 1678.27,591.019C1675.39,593.381 1675.41,597.393 1675.36,598.074C1675.31,598.756 1675.82,601.062 1677.68,600.459C1680.51,599.542 1689.33,599.077 1694.72,600.328Z" style="fill:white;"/>
                        <g transform="matrix(0.999747,0.0224769,-0.0224769,0.999747,15.872,-37.7095)">
                            <path d="M1683.49,599.654C1683.46,599.658 1681.94,599.084 1681.91,595.748C1681.88,593.342 1683.9,592.082 1684.66,591.868C1685.41,591.653 1687.24,591.387 1688.59,592.014C1689.95,592.641 1690.85,594.23 1690.98,594.804C1691.14,595.51 1691.21,596.288 1690.93,597.523C1690.64,598.758 1689.71,599.66 1689.71,599.66C1689.71,599.66 1685.74,599.425 1683.49,599.654Z" style="fill:rgb(77,77,77);"/>
                        </g>
                    </g>
                    <g id="Eye-Right" serifid="Eye Right">
                        <g transform="matrix(-1,0,0,1,3414.56,-0.41954)">
                            <path d="M1694.72,600.328C1695.21,600.442 1696.83,600.116 1697.08,599.7C1698.24,597.762 1697.6,594.747 1696.64,593.304C1694.51,590.088 1691.1,588.204 1687.73,588.221C1684.36,588.237 1681.14,588.657 1678.27,591.019C1675.39,593.381 1675.41,597.393 1675.36,598.074C1675.31,598.756 1675.82,601.062 1677.68,600.459C1680.51,599.542 1689.33,599.077 1694.72,600.328Z" style="fill:white;"/>
                        </g>
                        <g transform="matrix(-0.999196,-0.0400973,-0.0400973,0.999196,3439.17,67.713)">
                            <path d="M1683.49,599.654C1683.46,599.658 1681.94,599.084 1681.91,595.748C1681.88,593.342 1683.9,592.082 1684.66,591.868C1685.41,591.653 1687.24,591.387 1688.59,592.014C1689.95,592.641 1690.85,594.23 1690.98,594.804C1691.14,595.51 1691.21,596.288 1690.93,597.523C1690.64,598.758 1689.71,599.66 1689.71,599.66C1689.71,599.66 1685.74,599.425 1683.49,599.654Z" style="fill:rgb(77,77,77);"/>
                        </g>
                    </g>
                    <g transform="matrix(0.638999,0.0310611,-0.0325253,0.669121,1248.98,414.272)">
                        <path d="M676.743,224.25C676.743,224.25 693.012,206.263 709.315,219.876" style="fill:none;stroke:rgb(95,74,55);stroke-width:5px;"/>
                    </g>
                    <g transform="matrix(0.638999,0.0310611,-0.0325253,0.669121,1247.6,412.339)">
                        <path d="M781.484,218.534C781.484,218.534 763.617,205.755 747.797,220.346" style="fill:none;stroke:rgb(95,74,55);stroke-width:5px;"/>
                    </g>
                </g>
                <g transform="matrix(0.999396,0.0320052,0.0377337,-0.999396,-22.9051,1209.17)">
                    <g id="Mouth">
                        <path id="Mouth_inside" d="M1693.36,638.241C1693.62,638.346 1721.05,638.529 1722.04,637.795C1723.43,636.77 1720.86,622.852 1707.6,623.01C1694.46,623.168 1691.26,637.399 1693.36,638.241Z" style="fill:rgb(72,56,42);"/>
                        <clipPath id="_clip1">
                            <path id="Mouth_inside1" serifid="Mouth_inside" d="M1693.36,638.241C1693.62,638.346 1721.05,638.529 1722.04,637.795C1723.43,636.77 1720.86,622.852 1707.6,623.01C1694.46,623.168 1691.26,637.399 1693.36,638.241Z"/>
                        </clipPath>
                        <g clip-path="url(#_clip1)">
                            <g id="Tongue" transform="matrix(0.999989,-0.0114219,-0.00188358,-0.999989,1.46445,1280.82)">
                                <path d="M1695.26,638.316C1695.26,638.316 1710.13,638.495 1719.95,638.118C1719.96,638.118 1718.85,631.888 1710.89,631.84C1708.94,631.828 1709.29,632.927 1707.6,632.961C1705.9,632.995 1706.36,631.908 1704.45,631.83C1697.24,631.533 1695.26,638.316 1695.26,638.316Z" style="fill:rgb(255,79,109);"/>
                            </g>
                            <g transform="matrix(0.625165,-0.010349,-0.00807842,-0.745541,1138.8,998.133)">
                                <path d="M895.577,469.764L935.834,469.445C935.834,469.445 935.88,474.053 933.793,474.214C931.705,474.374 902.805,474.695 899.379,474.642C895.954,474.588 895.577,469.764 895.577,469.764Z" style="fill:white;"/>
                            </g>
                        </g>
                    </g>
                </g>
                <path id="Nose" d="M1697.9,609.623L1716.92,609.435C1716.92,609.435 1717.09,615.81 1707.55,615.852C1698.01,615.894 1697.9,609.623 1697.9,609.623Z" style="fill:rgb(199,155,116);"/>
            </g>
            <g id="Hands">
            </g>
            <g id="Clothes">
                <g id="Bottom">
                </g>
                <g id="T-Shirt">
                    <path d="M668.067,511.036C668.067,511.036 690.13,522.956 705.472,522.597C720.814,522.237 743.947,511.33 743.947,511.33C743.947,511.33 754.11,544.832 751.713,550.945C749.316,557.058 744.456,616.732 740.067,621.707C735.677,626.681 730.157,636.925 729.102,637.213C728.048,637.5 702.733,612.186 700.336,610.077C697.939,607.967 673.872,565.01 673.872,565.01L665.338,530.203L668.067,511.036Z" style="fill:rgb(38,46,51);"/>
                    <path d="M669.688,505.216L667.848,513.935C667.848,513.935 685.197,526.29 709.29,525.827C733.383,525.364 743.286,514.016 743.269,513.191C743.257,512.581 740.374,506.852 740.374,506.852C740.374,506.852 726.529,517.925 707.328,518.428C688.127,518.931 669.688,505.216 669.688,505.216Z" style="fill:rgb(34,41,46);"/>
                </g>
                <g id="Blazor">
                    <path d="M744.622,503.657C744.622,503.657 747.418,503.144 756.678,501.626C765.093,500.247 772.366,503.032 776.32,503.985C780.274,504.937 793.174,515.341 796.754,520.096C800.738,525.387 810.177,538.637 810.177,538.637C810.177,538.637 824.112,538.77 829.296,536.293C833.587,534.242 832.751,552.186 844.758,573.221C849.627,581.752 847.817,598.35 847.929,601.532C850.248,667.161 801.032,612.447 796.921,599.22C794.994,593.019 782.784,594.297 782.784,594.297C782.784,594.297 768.96,729.631 780.197,747.891C780.197,747.891 778.674,756.015 739.84,754.816C739.84,754.816 735.525,751.46 733.967,744.868C733.967,744.868 732.769,750.981 727.015,754.457C721.262,757.933 665.328,759.239 638.884,741.097C638.884,741.097 638.044,613.444 628.507,599.088C621.736,588.896 597.791,563.639 592.913,557.6C591.57,555.938 634.385,606.447 628.507,599.088C628.507,599.088 610.275,627.964 608.861,624.654C605.883,617.682 535.539,615.219 544.915,605.078L571.845,557.567L582.653,541.278C582.653,541.278 593.797,535.461 600.216,531.366C606.635,527.271 613.977,519.88 613.977,519.88L626.18,510.126C626.18,510.126 637.512,504.777 645.367,504.654C653.222,504.531 661.319,505.116 662.117,505.546C662.915,505.975 666.955,559.868 669.53,562.912C672.105,565.955 717.286,632.673 717.286,632.673L731.098,638.759L743.271,611.37L756.146,565.253L751.464,523.583L744.622,503.657Z" style="fill:rgb(58,76,90);"/>
                    <path id="Colar-Right" serifid="Colar Right" d="M753.035,601.326C760.461,581.422 765.597,557.068 765.597,557.068L760.593,549.367L766.466,541.299C766.466,541.299 762.803,534.507 757.461,522.425C751.706,509.41 745.198,503.785 745.068,503.655C743.409,501.996 737.51,501.33 737.359,501.569C737.208,501.808 740.308,506.901 740.308,506.901C740.308,506.901 750.417,525.106 745.735,572.862C741.053,620.619 728.558,634.643 728.558,634.643C728.558,634.643 734.178,639.44 735.435,639.238C736.692,639.037 745.736,620.887 753.035,601.326Z" style="fill:rgb(47,67,81);"/>
                    <path id="Colar-Left" serifid="Colar Left" d="M666.301,580.434C661.958,571.878 658.901,560.664 658.901,560.664L661.077,551.803C661.077,551.803 653.326,545.809 653.253,545.728C652.657,545.06 652.272,539.488 653.074,528.269C654.268,511.559 661.884,504.02 663.215,503.112C664.546,502.203 671.972,500.652 672.061,500.889C672.149,501.125 670.659,504.187 670.411,505.359C670.164,506.531 669.374,508.898 669.332,509.109C669.291,509.321 666.577,518.905 668.375,529.093C670.172,539.281 680.899,570.844 684.015,575.518C687.131,580.193 694.682,598.171 708.706,614.472C722.729,630.773 721.252,628.83 723.466,630.822C725.68,632.814 735.811,639.41 737.215,640.553C737.836,641.059 741.731,643.716 734.179,641.644C719.677,637.665 710.37,629.299 710.37,629.299C710.37,629.299 677.124,601.754 666.301,580.434Z" style="fill:rgb(47,67,81);"/>
                    <path id="Outline" d="M738.28,642.263C738.28,642.263 743.834,688.005 733.645,744.934C733.258,747.101 729.53,753.651 727.229,754.309C722.459,755.673 670.732,760.546 639.497,741.381C639.497,741.381 636.738,610.246 629.784,601.286C622.977,592.515 624.269,623.992 613.913,613.445C613.913,613.445 609.652,628.012 608.885,627.053C608.118,626.094 580.915,619.263 579.435,615.347C577.705,610.768 539.646,627.661 545.783,606.974C545.783,606.974 543.534,590.595 560.256,579.779C560.256,579.779 562.345,560.196 566.098,562.175C575.106,566.924 578.161,547.093 575.901,552.142C575.901,552.142 592.267,536.69 599.077,532.209C605.887,527.728 610.849,522.643 612.16,521.597C613.471,520.551 621.121,513.102 626.469,510.15C628.904,508.805 644.504,501.253 661.144,505.908L679.359,585.681L718.219,632.5L738.28,642.263Z" style="fill:none;stroke:rgb(47,67,81);stroke-width:0.66px;"/>
                    <path id="Outline1" serifid="Outline" d="M733.951,743.205C733.951,743.205 733.403,749.648 739.812,754.851C739.812,754.851 771.076,757.309 780.207,747.932C780.207,747.932 772.789,728.342 775.935,688.401C775.935,688.401 781.049,598.422 782.697,594.526C782.697,594.526 803.253,614.672 805.363,611.029C805.363,611.029 821.795,630.232 825.084,622.311C828.374,614.391 850.232,604.869 846.918,598.732C846.918,598.732 869.853,587.974 842.468,569.181C842.468,569.181 851.492,560.647 838.894,558.068C838.894,558.068 829.359,524.536 827.221,537.556L810.476,538.68C810.476,538.68 801.092,525.711 797.193,520.206C793.293,514.701 778.832,505.257 776.949,504.269C775.067,503.28 761.217,498.664 745.034,503.729L745.714,513.037L755.203,571.014L737.375,630.043L733.929,639.932L738.303,642.259C738.303,642.259 743.752,690.027 733.951,743.205Z" style="fill:none;stroke:rgb(47,67,81);stroke-width:0.66px;"/>
                </g>
            </g>
        </g>
    </g>
</svg>
