<?xml version="1.0" encoding="UTF-8" standalone="no"?>
<!DOCTYPE svg PUBLIC "-//W3C//DTD SVG 1.1//EN" "http://www.w3.org/Graphics/SVG/1.1/DTD/svg11.dtd">
<svg width="100%" height="100%" viewBox="0 0 1173 598" version="1.1" xmlns="http://www.w3.org/2000/svg" xmlnsXlink="http://www.w3.org/1999/xlink" xmlSpace="preserve" style="fill-rule:evenodd;clip-rule:evenodd;stroke-miterlimit:1.5;">
    <g transform="matrix(1,0,0,1,-374,-146)">
        <g id="Whiteboard" transform="matrix(1.9447,0,0,1.85715,-164.533,-396.18)">
            <g id="Whiteboard_outer" transform="matrix(0.828929,0,0,0.952727,-66.9068,10.9958)">
                <path d="M1128.32,315.471C1128.32,308.379 1122,302.621 1114.22,302.621L442.465,302.621C434.681,302.621 428.361,308.379 428.361,315.471L428.361,611.032C428.361,618.124 434.681,623.883 442.465,623.883L1114.22,623.883C1122,623.883 1128.32,618.124 1128.32,611.032L1128.32,315.471Z" style="fill:rgb(215,213,214);"/>
            </g>
            <g id="Whiteboard_inner" transform="matrix(0.793555,0,0,0.88152,-39.733,44.1608)">
                <path d="M1128.32,315.471C1128.32,308.379 1122.21,302.621 1114.69,302.621L441.993,302.621C434.469,302.621 428.361,308.379 428.361,315.471L428.361,611.032C428.361,618.124 434.469,623.883 441.993,623.883L1114.69,623.883C1122.21,623.883 1128.32,618.124 1128.32,611.032L1128.32,315.471Z" style="fill:rgb(252,252,252);"/>
            </g>
            <g transform="matrix(1,0,0,1,-109.17,-2.45017)">
                <path d="M406.765,328.023L406.421,581.796L409.367,581.784L409.365,328.098L406.765,328.023Z" style="fill:rgb(176,176,176);"/>
            </g>
            <g transform="matrix(-1,0,0,1,1265.02,-2.38218)">
                <path d="M406.765,328.023L406.421,581.796L409.367,581.784L409.365,328.098L406.765,328.023Z" style="fill:rgb(176,176,176);"/>
            </g>
            <g transform="matrix(1,0,0,1.19986,-1.13687e-13,-62.1415)">
                <path d="M315.004,310.921L314.949,308.647L841.541,309.31L841.422,310.929L315.004,310.921Z" style="fill:rgb(176,176,176);"/>
            </g>
            <g transform="matrix(1,0,0,1.3687,-0.308927,171.713)">
                <path d="M315.004,310.921L314.949,308.647L841.791,308.616L841.793,310.913L315.004,310.921Z" style="fill:rgb(176,176,176);"/>
            </g>
            <path id="top_left" d="M300.195,325.727C299.944,320.279 300.532,317.721 303.514,314.247C306.495,310.774 312.076,310.899 315.047,310.927L315.143,299.311L300.417,299.311C290.053,299.727 288.135,309.166 288.174,311.554L288.174,325.759L300.195,325.727Z" style="fill:rgb(41,41,41);"/>
            <g id="top_right" transform="matrix(-1,0,0,1,1156.44,0.0762483)">
                <path d="M300.788,325.677C300.625,321.28 300.802,317.954 303.783,314.481C306.764,311.007 312.082,310.781 315.047,310.927L315.136,299.211L300.417,299.311C290.053,299.727 288.059,308.137 288.051,311.554L288.027,325.747L300.788,325.677Z" style="fill:rgb(41,41,41);"/>
            </g>
            <g id="bottom_right" transform="matrix(-1,0,0,-1,1156.46,904.898)">
                <path d="M300.788,325.677C300.625,321.28 300.802,317.954 303.783,314.481C306.764,311.007 312.082,310.653 315.047,310.799L315.105,299.469L300.417,299.311C290.053,299.727 288.059,308.137 288.051,311.554L288.027,325.747L300.788,325.677Z" style="fill:rgb(41,41,41);"/>
            </g>
            <g id="bottom_left" transform="matrix(1,0,0,-1,-0.321506,905.007)">
                <path d="M300.53,325.686C300.367,321.29 300.777,317.904 303.758,314.431C306.739,310.957 312.082,310.746 315.047,310.893L315.101,299.613L300.317,299.486C289.954,299.902 288.408,308.237 288.4,311.654L288.459,325.728L300.53,325.686Z" style="fill:rgb(41,41,41);"/>
            </g>
        </g>
        <g id="Notes" transform="matrix(1,0,0,1,30.2325,0)">
            <g id="Note5" transform="matrix(0.802174,0,0,0.705924,62.6594,117.462)">
                <path d="M621.367,265.975C621.367,265.975 628.768,266.996 633.362,265.72C637.956,264.443 658.372,264.699 663.986,266.74C669.601,268.782 730.849,266.74 730.849,266.74C730.849,266.74 744.885,266.23 748.713,267.506C752.542,268.782 783.421,268.782 789.036,267.761C789.036,267.761 789.488,367.05 790.312,376.733C791.014,384.991 786.982,417.731 787.249,421.393C787.517,425.055 788.761,433.727 788.761,433.727C788.761,433.727 764.744,435.348 758.691,434.17C751.337,432.738 697.405,433.697 697.405,433.697C697.405,433.697 626.923,432.292 621.697,433.436C621.697,433.436 624.474,342.922 622.636,337.205C620.799,331.489 620.799,304.131 622.432,295.148C624.066,286.165 621.367,265.975 621.367,265.975Z" style="fill:rgb(0,87,255);fill-opacity:0.73;"/>
                <clipPath id="_clip1">
                    <path d="M621.367,265.975C621.367,265.975 628.768,266.996 633.362,265.72C637.956,264.443 658.372,264.699 663.986,266.74C669.601,268.782 730.849,266.74 730.849,266.74C730.849,266.74 744.885,266.23 748.713,267.506C752.542,268.782 783.421,268.782 789.036,267.761C789.036,267.761 789.488,367.05 790.312,376.733C791.014,384.991 786.982,417.731 787.249,421.393C787.517,425.055 788.761,433.727 788.761,433.727C788.761,433.727 764.744,435.348 758.691,434.17C751.337,432.738 697.405,433.697 697.405,433.697C697.405,433.697 626.923,432.292 621.697,433.436C621.697,433.436 624.474,342.922 622.636,337.205C620.799,331.489 620.799,304.131 622.432,295.148C624.066,286.165 621.367,265.975 621.367,265.975Z"/>
                </clipPath>
                <g clip-path="url(#_clip1)">
                    <g transform="matrix(1.24661,0,0,1.41658,-39.0002,-47.5315)">
                        <g transform="matrix(54,0,0,54,613.265,327.027)">
                            <path d="M0.074,-0L0.074,-0.71L0.375,-0.71C0.408,-0.71 0.438,-0.703 0.465,-0.69C0.492,-0.677 0.516,-0.659 0.537,-0.636C0.557,-0.613 0.573,-0.588 0.584,-0.56C0.595,-0.532 0.601,-0.503 0.601,-0.474C0.601,-0.434 0.592,-0.396 0.573,-0.36C0.554,-0.324 0.529,-0.295 0.496,-0.272C0.463,-0.249 0.425,-0.238 0.38,-0.238L0.212,-0.238L0.212,-0L0.074,-0ZM0.212,-0.359L0.372,-0.359C0.389,-0.359 0.404,-0.364 0.417,-0.373C0.43,-0.382 0.441,-0.396 0.449,-0.413C0.457,-0.431 0.461,-0.451 0.461,-0.474C0.461,-0.499 0.457,-0.52 0.448,-0.537C0.439,-0.554 0.427,-0.567 0.412,-0.576C0.398,-0.585 0.383,-0.589 0.366,-0.589L0.212,-0.589L0.212,-0.359Z" style="fill-rule:nonzero;"/>
                        </g>
                    </g>
                    <g transform="matrix(1.24661,0,0,1.41658,-115.8,-166.394)">
                        <path d="M656.641,317.44C656.641,317.44 654.727,346.363 657.917,364.015C660.908,380.563 657.279,398.254 657.279,398.254C657.279,398.254 656.003,403.358 656.641,411.865" style="fill:none;stroke:black;stroke-width:3px;"/>
                    </g>
                    <g transform="matrix(0.609246,0,0,1.41658,268.23,-166.394)">
                        <path d="M602.528,363.853C602.528,363.853 674.036,362.152 708.595,363.853C743.155,365.554 764.747,366.511 830.564,364.916" style="fill:none;stroke:black;stroke-width:3.81px;"/>
                    </g>
                    <g transform="matrix(1.24661,0,0,1.41658,-123.567,-126.677)">
                        <g transform="matrix(54,0,0,54,613.265,327.027)">
                            <path d="M0.567,-0.121L0.567,-0L0.074,-0L0.074,-0.71L0.558,-0.71L0.558,-0.589L0.212,-0.589L0.212,-0.418L0.511,-0.418L0.511,-0.306L0.212,-0.306L0.212,-0.121L0.567,-0.121Z" style="fill-rule:nonzero;"/>
                        </g>
                    </g>
                    <g transform="matrix(1.24661,0,0,1.41658,-42.661,-124.471)">
                        <g transform="matrix(54,0,0,54,613.265,327.027)">
                            <path d="M0.497,-0.524C0.492,-0.529 0.484,-0.535 0.471,-0.543C0.459,-0.551 0.444,-0.559 0.427,-0.566C0.409,-0.573 0.39,-0.58 0.369,-0.586C0.348,-0.591 0.327,-0.594 0.306,-0.594C0.269,-0.594 0.241,-0.587 0.222,-0.573C0.203,-0.559 0.193,-0.54 0.193,-0.514C0.193,-0.495 0.199,-0.48 0.211,-0.469C0.223,-0.457 0.241,-0.448 0.265,-0.44C0.289,-0.432 0.319,-0.423 0.355,-0.414C0.402,-0.403 0.442,-0.389 0.476,-0.373C0.511,-0.356 0.537,-0.335 0.556,-0.309C0.574,-0.283 0.583,-0.248 0.583,-0.205C0.583,-0.167 0.576,-0.135 0.562,-0.108C0.548,-0.081 0.529,-0.059 0.504,-0.043C0.479,-0.026 0.451,-0.014 0.42,-0.006C0.389,0.001 0.355,0.005 0.32,0.005C0.285,0.005 0.249,0.001 0.214,-0.006C0.179,-0.013 0.145,-0.024 0.112,-0.038C0.079,-0.051 0.049,-0.068 0.022,-0.087L0.083,-0.206C0.089,-0.2 0.1,-0.192 0.115,-0.183C0.13,-0.173 0.149,-0.163 0.171,-0.154C0.193,-0.144 0.217,-0.136 0.243,-0.129C0.269,-0.122 0.295,-0.119 0.322,-0.119C0.359,-0.119 0.388,-0.125 0.407,-0.138C0.426,-0.15 0.436,-0.168 0.436,-0.191C0.436,-0.212 0.428,-0.229 0.413,-0.241C0.398,-0.253 0.376,-0.263 0.349,-0.272C0.322,-0.281 0.289,-0.291 0.252,-0.302C0.207,-0.314 0.17,-0.328 0.14,-0.344C0.11,-0.36 0.088,-0.379 0.073,-0.403C0.058,-0.427 0.051,-0.457 0.051,-0.493C0.051,-0.541 0.063,-0.582 0.086,-0.615C0.109,-0.648 0.14,-0.673 0.179,-0.69C0.218,-0.707 0.262,-0.715 0.31,-0.715C0.343,-0.715 0.375,-0.711 0.405,-0.704C0.434,-0.697 0.462,-0.687 0.488,-0.675C0.514,-0.663 0.537,-0.65 0.558,-0.636L0.497,-0.524Z" style="fill-rule:nonzero;"/>
                        </g>
                    </g>
                    <g transform="matrix(1.24661,0,0,1.41658,-122.92,-47.2432)">
                        <g transform="matrix(54,0,0,54,613.265,327.027)">
                            <path d="M0.147,-0.71L0.339,-0.164L0.529,-0.71L0.674,-0.71L0.405,-0L0.272,-0L0.002,-0.71L0.147,-0.71Z" style="fill-rule:nonzero;"/>
                        </g>
                    </g>
                </g>
                <path d="M621.367,265.975C621.367,265.975 628.768,266.996 633.362,265.72C637.956,264.443 658.372,264.699 663.986,266.74C669.601,268.782 730.849,266.74 730.849,266.74C730.849,266.74 744.885,266.23 748.713,267.506C752.542,268.782 783.421,268.782 789.036,267.761C789.036,267.761 789.488,367.05 790.312,376.733C791.014,384.991 786.982,417.731 787.249,421.393C787.517,425.055 788.761,433.727 788.761,433.727C788.761,433.727 764.744,435.348 758.691,434.17C751.337,432.738 697.405,433.697 697.405,433.697C697.405,433.697 626.923,432.292 621.697,433.436C621.697,433.436 624.474,342.922 622.636,337.205C620.799,331.489 620.799,304.131 622.432,295.148C624.066,286.165 621.367,265.975 621.367,265.975Z" style="fill:none;stroke:black;stroke-width:3.97px;stroke-linecap:round;stroke-linejoin:round;"/>
            </g>
            <g id="Note4" transform="matrix(0.764136,0,0,0.74775,333.759,-70.2639)">
                <path d="M1139,459.897C1139,459.897 1296.9,464.363 1302.64,461.173C1302.64,461.173 1300.73,578.247 1302.33,591.645C1303.92,605.043 1302.53,630.965 1302.53,630.965C1302.53,630.965 1245.59,627.733 1234.83,629.301C1234.83,629.301 1203.3,628.87 1196.35,627.765C1189.39,626.661 1173.4,629.538 1167.32,629.203C1161.23,628.869 1145.1,626.929 1137.28,627.799C1137.28,627.799 1138.13,569.021 1137.74,566.277C1137.35,563.533 1136.96,535.571 1137.87,530.606C1138.79,525.641 1137.13,459.707 1137.13,459.707L1139,459.897Z" style="fill:rgb(234,67,75);"/>
                <clipPath id="_clip2">
                    <path d="M1139,459.897C1139,459.897 1296.9,464.363 1302.64,461.173C1302.64,461.173 1300.73,578.247 1302.33,591.645C1303.92,605.043 1302.53,630.965 1302.53,630.965C1302.53,630.965 1245.59,627.733 1234.83,629.301C1234.83,629.301 1203.3,628.87 1196.35,627.765C1189.39,626.661 1173.4,629.538 1167.32,629.203C1161.23,628.869 1145.1,626.929 1137.28,627.799C1137.28,627.799 1138.13,569.021 1137.74,566.277C1137.35,563.533 1136.96,535.571 1137.87,530.606C1138.79,525.641 1137.13,459.707 1137.13,459.707L1139,459.897Z"/>
                </clipPath>
                <g clip-path="url(#_clip2)">
                    <g transform="matrix(1.20286,0,0,1.19536,58.8501,15.2168)">
                        <path d="M929.135,407.467L1003.82,407.72L1025.68,430.826L963.717,499.775L906.142,430.4L929.135,407.467ZM932.431,415.869L917.319,430.941L963.959,487.142C963.959,487.142 1014.43,430.974 1014.43,430.974L1000.36,416.099L932.431,415.869Z"/>
                    </g>
                    <g transform="matrix(1.20286,0,0,1.19536,58.8501,15.2168)">
                        <path d="M983.189,432.435L1002.49,432.486L1002.8,415.851L996.956,413.576L990.198,415.075L987.749,422.829C987.749,422.829 986.142,417.552 979.577,415.382L978.474,415.045L942.47,414.853C942.47,414.853 931.745,418.228 926.469,427.725C922.544,434.79 925.113,441.462 925.113,441.462L928.929,448.127C928.929,448.127 929.529,448.682 930.405,449.208C931.282,449.734 933.396,453.463 960.639,453.571C972.822,453.619 977.192,454.408 977.192,454.408C977.192,454.408 987.411,454.979 987.525,459.26C987.639,463.547 976.165,465.968 976.165,465.968C976.165,465.968 970.239,467.338 965.301,465.683C965.301,465.683 961.979,458.107 946.408,459.066C946.408,459.066 942.894,459.523 942.026,462.857C941.158,466.191 948.822,471.228 948.822,471.228C948.822,471.228 958.584,473.91 962.712,474.111C966.841,474.312 973.536,474.098 979.302,472.1L981.223,471.804L1000.18,449.398C1000.18,449.398 1000.17,443.203 991.181,439.512C991.181,439.512 987.802,437.976 978.55,437.115C973.391,436.635 961.748,436.414 961.748,436.414C961.748,436.414 953.202,436.065 950.347,435.437C947.493,434.809 936.555,432.33 945.337,423.118C945.337,423.118 950.726,418.901 959.641,418.444C965.5,418.144 975.198,418.494 979.729,422.989C979.729,422.989 983.223,425.92 983.189,432.435Z"/>
                    </g>
                </g>
                <path d="M1139,459.897C1139,459.897 1296.9,464.363 1302.64,461.173C1302.64,461.173 1300.73,578.247 1302.33,591.645C1303.92,605.043 1302.53,630.965 1302.53,630.965C1302.53,630.965 1245.59,627.733 1234.83,629.301C1234.83,629.301 1203.3,628.87 1196.35,627.765C1189.39,626.661 1173.4,629.538 1167.32,629.203C1161.23,628.869 1145.1,626.929 1137.28,627.799C1137.28,627.799 1138.13,569.021 1137.74,566.277C1137.35,563.533 1136.96,535.571 1137.87,530.606C1138.79,525.641 1137.13,459.707 1137.13,459.707L1139,459.897Z" style="fill:none;stroke:black;stroke-width:5.29px;stroke-linecap:round;stroke-linejoin:round;"/>
            </g>
            <g id="Note-3" serifid="Note 3" transform="matrix(0.794688,0,0,0.771435,226.977,164.498)">
                <path d="M1139,459.897C1139,459.897 1296.9,464.363 1302.64,461.173C1302.64,461.173 1300.73,578.247 1302.33,591.645C1303.92,605.043 1302.53,630.965 1302.53,630.965C1302.53,630.965 1245.59,627.733 1234.83,629.301C1234.83,629.301 1203.3,628.87 1196.35,627.765C1189.39,626.661 1173.4,629.538 1167.32,629.203C1161.23,628.869 1145.1,626.929 1137.28,627.799C1137.28,627.799 1138.13,569.021 1137.74,566.277C1137.35,563.533 1136.96,535.571 1137.87,530.606C1138.79,525.641 1137.13,459.707 1137.13,459.707L1139,459.897Z" style="fill:rgb(112,224,0);"/>
                <clipPath id="_clip3">
                    <path d="M1139,459.897C1139,459.897 1296.9,464.363 1302.64,461.173C1302.64,461.173 1300.73,578.247 1302.33,591.645C1303.92,605.043 1302.53,630.965 1302.53,630.965C1302.53,630.965 1245.59,627.733 1234.83,629.301C1234.83,629.301 1203.3,628.87 1196.35,627.765C1189.39,626.661 1173.4,629.538 1167.32,629.203C1161.23,628.869 1145.1,626.929 1137.28,627.799C1137.28,627.799 1138.13,569.021 1137.74,566.277C1137.35,563.533 1136.96,535.571 1137.87,530.606C1138.79,525.641 1137.13,459.707 1137.13,459.707L1139,459.897Z"/>
                </clipPath>
                <g clip-path="url(#_clip3)">
                    <g id="Movie" transform="matrix(1.14947,0,0,1.14947,-186.971,-84.704)">
                        <g id="Movie-Bottom">
                            <path d="M1191.8,601.495L1191.47,601.455C1184,600.55 1179.68,597.215 1177.08,593.761C1173.19,588.594 1173.16,582.766 1173.17,582.095L1173.14,527.24L1276.83,527.267L1276.94,582.077L1276.93,582.274C1276.93,582.274 1275.71,600.899 1257.42,601.247L1191.8,601.495ZM1257.36,595.608C1270.57,595.357 1271.47,581.89 1271.47,581.89L1271.37,532.904L1178.62,532.88L1178.64,582.141C1178.64,582.141 1178.31,594.183 1192.11,595.855L1257.36,595.608Z"/>
                            <path d="M1178.5,544.302L1271.69,544.475L1271.52,549.108L1178.48,549.167L1178.5,544.302Z"/>
                            <path d="M1248.88,532.73L1261.95,532.73L1269.84,544.568L1257.04,544.678L1248.88,532.73Z"/>
                            <path d="M1180.48,532.881L1188.36,544.321L1201.29,544.411L1193.03,532.551L1180.48,532.881Z"/>
                            <path d="M1203.23,532.786L1216,532.691L1224.33,544.639L1211.35,544.507L1203.23,532.786Z"/>
                            <path d="M1226,532.643L1238.98,532.796L1247.04,544.678L1234.2,544.568L1226,532.643"/>
                            <path d="M1215.66,559.062L1215.64,586.021C1215.64,586.021 1215.83,587.178 1217.14,586.389L1239.96,573.181C1239.96,573.181 1240.17,572.944 1240.16,572.621C1240.15,572.297 1239.92,571.974 1239.92,571.974L1217.07,558.694C1217.07,558.694 1216.03,558.095 1215.66,559.062Z"/>
                        </g>
                        <g id="Movie-Top">
                            <path d="M1268.66,486.819L1274.68,508.937L1173.9,534.549L1168.6,512.557L1268.66,486.819ZM1175.23,516.664L1177.9,527.726L1267.89,504.856L1264.83,493.617L1175.23,516.664Z"/>
                            <path d="M1176.93,516.228L1189.57,512.825L1199.91,522.399L1187.63,525.587L1176.93,516.228Z"/>
                            <path d="M1199.08,510.378L1209.77,519.762L1222.24,516.59L1211.5,507.196L1199.08,510.378Z"/>
                            <path d="M1231.86,514.129L1244.2,510.846L1233.6,501.551L1221.1,504.675L1231.86,514.129Z"/>
                            <path d="M1253.98,508.456L1266.4,505.277L1255.6,495.933L1243.13,499.002L1253.98,508.456Z"/>
                        </g>
                    </g>
                </g>
                <path d="M1139,459.897C1139,459.897 1296.9,464.363 1302.64,461.173C1302.64,461.173 1300.73,578.247 1302.33,591.645C1303.92,605.043 1302.53,630.965 1302.53,630.965C1302.53,630.965 1245.59,627.733 1234.83,629.301C1234.83,629.301 1203.3,628.87 1196.35,627.765C1189.39,626.661 1173.4,629.538 1167.32,629.203C1161.23,628.869 1145.1,626.929 1137.28,627.799C1137.28,627.799 1138.13,569.021 1137.74,566.277C1137.35,563.533 1136.96,535.571 1137.87,530.606C1138.79,525.641 1137.13,459.707 1137.13,459.707L1139,459.897Z" style="fill:none;stroke:black;stroke-width:5.11px;stroke-linecap:round;stroke-linejoin:round;"/>
            </g>
            <g id="Note2" transform="matrix(0.820158,0,0,0.741786,324.68,231.272)">
                <path d="M621.367,265.975C621.367,265.975 628.768,266.996 633.362,265.72C637.956,264.443 658.372,264.699 663.986,266.74C669.601,268.782 730.849,266.74 730.849,266.74C730.849,266.74 744.885,266.23 748.713,267.506C752.542,268.782 783.421,268.782 789.036,267.761C789.036,267.761 789.488,367.05 790.312,376.733C791.014,384.991 786.982,417.731 787.249,421.393C787.517,425.055 793.623,433.727 793.623,433.727C793.623,433.727 764.744,435.348 758.691,434.17C751.337,432.738 697.405,433.697 697.405,433.697C697.405,433.697 626.923,432.292 621.697,433.436C621.697,433.436 624.474,342.922 622.636,337.205C620.799,331.489 620.799,304.131 622.432,295.148C624.066,286.165 621.367,265.975 621.367,265.975Z" style="fill:rgb(24,216,171);"/>
                <clipPath id="_clip4">
                    <path d="M621.367,265.975C621.367,265.975 628.768,266.996 633.362,265.72C637.956,264.443 658.372,264.699 663.986,266.74C669.601,268.782 730.849,266.74 730.849,266.74C730.849,266.74 744.885,266.23 748.713,267.506C752.542,268.782 783.421,268.782 789.036,267.761C789.036,267.761 789.488,367.05 790.312,376.733C791.014,384.991 786.982,417.731 787.249,421.393C787.517,425.055 793.623,433.727 793.623,433.727C793.623,433.727 764.744,435.348 758.691,434.17C751.337,432.738 697.405,433.697 697.405,433.697C697.405,433.697 626.923,432.292 621.697,433.436C621.697,433.436 624.474,342.922 622.636,337.205C620.799,331.489 620.799,304.131 622.432,295.148C624.066,286.165 621.367,265.975 621.367,265.975Z"/>
                </clipPath>
                <g clip-path="url(#_clip4)">
                    <g id="Tune">
                        <path d="M681.165,313.379L747.981,296.988L748.013,375.162L741.323,366.799L741.427,361.05L741.427,320.179L687.594,333.977L687.176,390.214L680.904,379.239L681.009,374.848L681.165,313.379Z"/>
                        <g transform="matrix(1.14989,0,0,1.30631,-111.8,-115.538)">
                            <ellipse cx="731.965" cy="374.315" rx="15.732" ry="11.969"/>
                        </g>
                        <g transform="matrix(1.15364,0,0,1.30973,-103.369,-123.879)">
                            <ellipse cx="669.706" cy="391.247" rx="15.614" ry="11.956"/>
                        </g>
                    </g>
                </g>
                <path d="M621.367,265.975C621.367,265.975 628.768,266.996 633.362,265.72C637.956,264.443 658.372,264.699 663.986,266.74C669.601,268.782 730.849,266.74 730.849,266.74C730.849,266.74 744.885,266.23 748.713,267.506C752.542,268.782 783.421,268.782 789.036,267.761C789.036,267.761 789.488,367.05 790.312,376.733C791.014,384.991 786.982,417.731 787.249,421.393C787.517,425.055 793.623,433.727 793.623,433.727C793.623,433.727 764.744,435.348 758.691,434.17C751.337,432.738 697.405,433.697 697.405,433.697C697.405,433.697 626.923,432.292 621.697,433.436C621.697,433.436 624.474,342.922 622.636,337.205C620.799,331.489 620.799,304.131 622.432,295.148C624.066,286.165 621.367,265.975 621.367,265.975Z" style="fill:none;stroke:black;stroke-width:3.84px;stroke-linecap:round;stroke-linejoin:round;"/>
            </g>
            <g id="Note1" transform="matrix(0.7862,0,0,0.7862,125.796,138.246)">
                <g transform="matrix(1,0,0,1,0.209063,1.88156)">
                    <path d="M416.131,636.701L583.217,637.028C583.217,637.028 588.771,641.765 588.117,642.908C587.464,644.051 528.339,645.194 510.699,644.541C493.059,643.888 439.324,643.235 435.077,643.235C430.831,643.235 420.051,644.051 417.928,644.541C415.804,645.031 416.131,636.701 416.131,636.701Z" style="fill-opacity:0.31;"/>
                </g>
                <path d="M417.171,469.359C417.171,469.359 578.158,474.977 584.538,473.382C584.538,473.382 582.146,630.093 585.735,638.068C589.323,646.043 428.227,637.27 415.467,640.062L417.171,469.359Z" style="fill:rgb(255,170,90);stroke:black;stroke-width:3.82px;stroke-linecap:round;stroke-linejoin:round;"/>
                <g transform="matrix(1.11679,0,0,1.08273,-71.2624,-54.4981)">
                    <ellipse cx="511.168" cy="559.912" rx="54.629" ry="55.427" style="fill:none;stroke:black;stroke-width:4.63px;stroke-linecap:round;stroke-linejoin:round;"/>
                </g>
                <g transform="matrix(1.63019,0,0,1.12647,-307.056,-66.3445)">
                    <ellipse cx="485.647" cy="524.622" rx="1.595" ry="2.592" style="stroke:black;stroke-width:2.72px;stroke-linecap:round;stroke-linejoin:round;"/>
                </g>
                <ellipse cx="517.548" cy="524.024" rx="2.393" ry="2.791" style="stroke:black;stroke-width:3.82px;stroke-linecap:round;stroke-linejoin:round;"/>
                <path d="M464.513,565.096C464.513,565.096 483.654,587.426 501.996,587.027C520.339,586.628 537.884,567.488 537.884,567.488" style="fill:none;stroke:black;stroke-width:5.09px;stroke-linecap:round;stroke-linejoin:round;"/>
            </g>
        </g>
        <g transform="matrix(1,0,0,1,-84.9688,24.4832)">
            <g transform="matrix(54,0,0,54,870.819,216.303)">
                <path d="M0.497,-0.524C0.492,-0.529 0.484,-0.535 0.471,-0.543C0.459,-0.551 0.444,-0.559 0.427,-0.566C0.409,-0.573 0.39,-0.58 0.369,-0.586C0.348,-0.591 0.327,-0.594 0.306,-0.594C0.269,-0.594 0.241,-0.587 0.222,-0.573C0.203,-0.559 0.193,-0.54 0.193,-0.514C0.193,-0.495 0.199,-0.48 0.211,-0.469C0.223,-0.457 0.241,-0.448 0.265,-0.44C0.289,-0.432 0.319,-0.423 0.355,-0.414C0.402,-0.403 0.442,-0.389 0.476,-0.373C0.511,-0.356 0.537,-0.335 0.556,-0.309C0.574,-0.283 0.583,-0.248 0.583,-0.205C0.583,-0.167 0.576,-0.135 0.562,-0.108C0.548,-0.081 0.529,-0.059 0.504,-0.043C0.479,-0.026 0.451,-0.014 0.42,-0.006C0.389,0.001 0.355,0.005 0.32,0.005C0.285,0.005 0.249,0.001 0.214,-0.006C0.179,-0.013 0.145,-0.024 0.112,-0.038C0.079,-0.051 0.049,-0.068 0.022,-0.087L0.083,-0.206C0.089,-0.2 0.1,-0.192 0.115,-0.183C0.13,-0.173 0.149,-0.163 0.171,-0.154C0.193,-0.144 0.217,-0.136 0.243,-0.129C0.269,-0.122 0.295,-0.119 0.322,-0.119C0.359,-0.119 0.388,-0.125 0.407,-0.138C0.426,-0.15 0.436,-0.168 0.436,-0.191C0.436,-0.212 0.428,-0.229 0.413,-0.241C0.398,-0.253 0.376,-0.263 0.349,-0.272C0.322,-0.281 0.289,-0.291 0.252,-0.302C0.207,-0.314 0.17,-0.328 0.14,-0.344C0.11,-0.36 0.088,-0.379 0.073,-0.403C0.058,-0.427 0.051,-0.457 0.051,-0.493C0.051,-0.541 0.063,-0.582 0.086,-0.615C0.109,-0.648 0.14,-0.673 0.179,-0.69C0.218,-0.707 0.262,-0.715 0.31,-0.715C0.343,-0.715 0.375,-0.711 0.405,-0.704C0.434,-0.697 0.462,-0.687 0.488,-0.675C0.514,-0.663 0.537,-0.65 0.558,-0.636L0.497,-0.524Z" style="fill-rule:nonzero;"/>
            </g>
            <g transform="matrix(54,0,0,54,903.921,216.303)">
                <path d="M0.304,0.01C0.262,0.01 0.224,0.003 0.19,-0.011C0.156,-0.025 0.127,-0.045 0.103,-0.07C0.079,-0.094 0.061,-0.123 0.048,-0.155C0.035,-0.187 0.028,-0.22 0.028,-0.256C0.028,-0.305 0.039,-0.351 0.062,-0.392C0.084,-0.432 0.116,-0.465 0.158,-0.49C0.199,-0.515 0.248,-0.527 0.305,-0.527C0.362,-0.527 0.411,-0.515 0.452,-0.49C0.493,-0.465 0.524,-0.432 0.546,-0.392C0.567,-0.351 0.578,-0.307 0.578,-0.261C0.578,-0.253 0.578,-0.245 0.577,-0.236C0.576,-0.228 0.576,-0.221 0.575,-0.216L0.17,-0.216C0.173,-0.19 0.181,-0.167 0.194,-0.148C0.206,-0.128 0.223,-0.113 0.244,-0.103C0.264,-0.093 0.286,-0.088 0.309,-0.088C0.336,-0.088 0.361,-0.095 0.385,-0.108C0.408,-0.121 0.424,-0.138 0.433,-0.159L0.548,-0.127C0.535,-0.1 0.517,-0.077 0.494,-0.056C0.47,-0.035 0.442,-0.019 0.41,-0.008C0.378,0.004 0.343,0.01 0.304,0.01ZM0.167,-0.301L0.441,-0.301C0.438,-0.327 0.431,-0.35 0.419,-0.369C0.406,-0.388 0.39,-0.403 0.37,-0.414C0.35,-0.425 0.328,-0.43 0.303,-0.43C0.279,-0.43 0.257,-0.425 0.237,-0.414C0.218,-0.403 0.202,-0.388 0.19,-0.369C0.177,-0.35 0.17,-0.327 0.167,-0.301Z" style="fill-rule:nonzero;"/>
            </g>
            <g transform="matrix(54,0,0,54,935.997,216.303)">
                <path d="M0.375,-0.026C0.364,-0.021 0.35,-0.016 0.334,-0.01C0.318,-0.004 0.301,0.001 0.282,0.004C0.264,0.008 0.246,0.01 0.227,0.01C0.202,0.01 0.18,0.006 0.159,-0.003C0.138,-0.011 0.122,-0.025 0.11,-0.044C0.097,-0.063 0.091,-0.087 0.091,-0.118L0.091,-0.416L0.022,-0.416L0.022,-0.519L0.091,-0.519L0.091,-0.689L0.225,-0.689L0.225,-0.519L0.335,-0.519L0.335,-0.416L0.225,-0.416L0.225,-0.163C0.226,-0.146 0.231,-0.133 0.24,-0.125C0.249,-0.117 0.261,-0.113 0.275,-0.113C0.289,-0.113 0.303,-0.115 0.316,-0.12C0.329,-0.125 0.34,-0.129 0.348,-0.132L0.375,-0.026Z" style="fill-rule:nonzero;"/>
            </g>
            <g transform="matrix(54,0,0,54,969.693,216.303)">
                <path d="M0.375,-0.026C0.364,-0.021 0.35,-0.016 0.334,-0.01C0.318,-0.004 0.301,0.001 0.282,0.004C0.264,0.008 0.246,0.01 0.227,0.01C0.202,0.01 0.18,0.006 0.159,-0.003C0.138,-0.011 0.122,-0.025 0.11,-0.044C0.097,-0.063 0.091,-0.087 0.091,-0.118L0.091,-0.416L0.022,-0.416L0.022,-0.519L0.091,-0.519L0.091,-0.689L0.225,-0.689L0.225,-0.519L0.335,-0.519L0.335,-0.416L0.225,-0.416L0.225,-0.163C0.226,-0.146 0.231,-0.133 0.24,-0.125C0.249,-0.117 0.261,-0.113 0.275,-0.113C0.289,-0.113 0.303,-0.115 0.316,-0.12C0.329,-0.125 0.34,-0.129 0.348,-0.132L0.375,-0.026Z" style="fill-rule:nonzero;"/>
            </g>
            <g transform="matrix(54,0,0,54,990.429,216.303)">
                <path d="M0.548,-0L0.414,-0L0.414,-0.29C0.414,-0.33 0.406,-0.36 0.391,-0.379C0.375,-0.399 0.353,-0.409 0.326,-0.409C0.31,-0.409 0.293,-0.404 0.275,-0.395C0.257,-0.386 0.241,-0.374 0.227,-0.358C0.212,-0.342 0.202,-0.323 0.195,-0.303L0.195,-0L0.061,-0L0.061,-0.73L0.195,-0.73L0.195,-0.422C0.214,-0.455 0.241,-0.481 0.274,-0.499C0.307,-0.518 0.344,-0.527 0.383,-0.527C0.417,-0.527 0.445,-0.521 0.466,-0.51C0.487,-0.498 0.504,-0.483 0.516,-0.463C0.528,-0.444 0.536,-0.422 0.541,-0.398C0.546,-0.374 0.548,-0.349 0.548,-0.323L0.548,-0Z" style="fill-rule:nonzero;"/>
            </g>
            <g transform="matrix(54,0,0,54,1023.04,216.303)">
                <path d="M0.304,0.01C0.262,0.01 0.224,0.003 0.19,-0.011C0.156,-0.025 0.127,-0.045 0.103,-0.07C0.079,-0.094 0.061,-0.123 0.048,-0.155C0.035,-0.187 0.028,-0.22 0.028,-0.256C0.028,-0.305 0.039,-0.351 0.062,-0.392C0.084,-0.432 0.116,-0.465 0.158,-0.49C0.199,-0.515 0.248,-0.527 0.305,-0.527C0.362,-0.527 0.411,-0.515 0.452,-0.49C0.493,-0.465 0.524,-0.432 0.546,-0.392C0.567,-0.351 0.578,-0.307 0.578,-0.261C0.578,-0.253 0.578,-0.245 0.577,-0.236C0.576,-0.228 0.576,-0.221 0.575,-0.216L0.17,-0.216C0.173,-0.19 0.181,-0.167 0.194,-0.148C0.206,-0.128 0.223,-0.113 0.244,-0.103C0.264,-0.093 0.286,-0.088 0.309,-0.088C0.336,-0.088 0.361,-0.095 0.385,-0.108C0.408,-0.121 0.424,-0.138 0.433,-0.159L0.548,-0.127C0.535,-0.1 0.517,-0.077 0.494,-0.056C0.47,-0.035 0.442,-0.019 0.41,-0.008C0.378,0.004 0.343,0.01 0.304,0.01ZM0.167,-0.301L0.441,-0.301C0.438,-0.327 0.431,-0.35 0.419,-0.369C0.406,-0.388 0.39,-0.403 0.37,-0.414C0.35,-0.425 0.328,-0.43 0.303,-0.43C0.279,-0.43 0.257,-0.425 0.237,-0.414C0.218,-0.403 0.202,-0.388 0.19,-0.369C0.177,-0.35 0.17,-0.327 0.167,-0.301Z" style="fill-rule:nonzero;"/>
            </g>
            <g transform="matrix(54,0,0,54,1068.35,216.303)">
                <path d="M0.497,-0.524C0.492,-0.529 0.484,-0.535 0.471,-0.543C0.459,-0.551 0.444,-0.559 0.427,-0.566C0.409,-0.573 0.39,-0.58 0.369,-0.586C0.348,-0.591 0.327,-0.594 0.306,-0.594C0.269,-0.594 0.241,-0.587 0.222,-0.573C0.203,-0.559 0.193,-0.54 0.193,-0.514C0.193,-0.495 0.199,-0.48 0.211,-0.469C0.223,-0.457 0.241,-0.448 0.265,-0.44C0.289,-0.432 0.319,-0.423 0.355,-0.414C0.402,-0.403 0.442,-0.389 0.476,-0.373C0.511,-0.356 0.537,-0.335 0.556,-0.309C0.574,-0.283 0.583,-0.248 0.583,-0.205C0.583,-0.167 0.576,-0.135 0.562,-0.108C0.548,-0.081 0.529,-0.059 0.504,-0.043C0.479,-0.026 0.451,-0.014 0.42,-0.006C0.389,0.001 0.355,0.005 0.32,0.005C0.285,0.005 0.249,0.001 0.214,-0.006C0.179,-0.013 0.145,-0.024 0.112,-0.038C0.079,-0.051 0.049,-0.068 0.022,-0.087L0.083,-0.206C0.089,-0.2 0.1,-0.192 0.115,-0.183C0.13,-0.173 0.149,-0.163 0.171,-0.154C0.193,-0.144 0.217,-0.136 0.243,-0.129C0.269,-0.122 0.295,-0.119 0.322,-0.119C0.359,-0.119 0.388,-0.125 0.407,-0.138C0.426,-0.15 0.436,-0.168 0.436,-0.191C0.436,-0.212 0.428,-0.229 0.413,-0.241C0.398,-0.253 0.376,-0.263 0.349,-0.272C0.322,-0.281 0.289,-0.291 0.252,-0.302C0.207,-0.314 0.17,-0.328 0.14,-0.344C0.11,-0.36 0.088,-0.379 0.073,-0.403C0.058,-0.427 0.051,-0.457 0.051,-0.493C0.051,-0.541 0.063,-0.582 0.086,-0.615C0.109,-0.648 0.14,-0.673 0.179,-0.69C0.218,-0.707 0.262,-0.715 0.31,-0.715C0.343,-0.715 0.375,-0.711 0.405,-0.704C0.434,-0.697 0.462,-0.687 0.488,-0.675C0.514,-0.663 0.537,-0.65 0.558,-0.636L0.497,-0.524Z" style="fill-rule:nonzero;"/>
            </g>
            <g transform="matrix(54,0,0,54,1100.8,216.303)">
                <path d="M0.375,-0.026C0.364,-0.021 0.35,-0.016 0.334,-0.01C0.318,-0.004 0.301,0.001 0.282,0.004C0.264,0.008 0.246,0.01 0.227,0.01C0.202,0.01 0.18,0.006 0.159,-0.003C0.138,-0.011 0.122,-0.025 0.11,-0.044C0.097,-0.063 0.091,-0.087 0.091,-0.118L0.091,-0.416L0.022,-0.416L0.022,-0.519L0.091,-0.519L0.091,-0.689L0.225,-0.689L0.225,-0.519L0.335,-0.519L0.335,-0.416L0.225,-0.416L0.225,-0.163C0.226,-0.146 0.231,-0.133 0.24,-0.125C0.249,-0.117 0.261,-0.113 0.275,-0.113C0.289,-0.113 0.303,-0.115 0.316,-0.12C0.329,-0.125 0.34,-0.129 0.348,-0.132L0.375,-0.026Z" style="fill-rule:nonzero;"/>
            </g>
            <g transform="matrix(54,0,0,54,1121.54,216.303)">
                <path d="M0.025,-0.153C0.025,-0.187 0.035,-0.216 0.054,-0.241C0.073,-0.267 0.099,-0.286 0.133,-0.3C0.167,-0.314 0.206,-0.321 0.25,-0.321C0.272,-0.321 0.294,-0.319 0.317,-0.316C0.34,-0.313 0.359,-0.307 0.376,-0.3L0.376,-0.328C0.376,-0.361 0.366,-0.386 0.346,-0.403C0.327,-0.421 0.298,-0.43 0.259,-0.43C0.23,-0.43 0.203,-0.425 0.177,-0.415C0.151,-0.405 0.124,-0.39 0.095,-0.371L0.052,-0.459C0.087,-0.482 0.122,-0.499 0.159,-0.51C0.195,-0.521 0.233,-0.527 0.273,-0.527C0.348,-0.527 0.406,-0.509 0.448,-0.472C0.489,-0.435 0.51,-0.382 0.51,-0.314L0.51,-0.149C0.51,-0.136 0.513,-0.126 0.518,-0.12C0.523,-0.114 0.531,-0.11 0.542,-0.109L0.542,-0C0.53,0.002 0.519,0.004 0.509,0.005C0.5,0.006 0.492,0.007 0.485,0.007C0.458,0.007 0.438,0.001 0.425,-0.011C0.411,-0.023 0.402,-0.038 0.399,-0.055L0.396,-0.082C0.373,-0.053 0.345,-0.03 0.311,-0.014C0.277,0.002 0.242,0.01 0.207,0.01C0.172,0.01 0.141,0.003 0.114,-0.011C0.086,-0.025 0.064,-0.045 0.049,-0.07C0.033,-0.094 0.025,-0.122 0.025,-0.153ZM0.351,-0.127C0.358,-0.135 0.364,-0.143 0.369,-0.15C0.374,-0.158 0.376,-0.165 0.376,-0.172L0.376,-0.224C0.36,-0.23 0.343,-0.235 0.324,-0.239C0.305,-0.242 0.288,-0.244 0.271,-0.244C0.236,-0.244 0.208,-0.237 0.186,-0.222C0.163,-0.207 0.152,-0.188 0.152,-0.164C0.152,-0.151 0.156,-0.139 0.163,-0.127C0.17,-0.115 0.181,-0.106 0.195,-0.099C0.209,-0.092 0.226,-0.088 0.245,-0.088C0.265,-0.088 0.285,-0.092 0.304,-0.099C0.323,-0.107 0.339,-0.116 0.351,-0.127Z" style="fill-rule:nonzero;"/>
            </g>
            <g transform="matrix(54,0,0,54,1152.54,216.303)">
                <path d="M0.266,0.01C0.231,0.01 0.2,0.003 0.171,-0.011C0.141,-0.024 0.117,-0.043 0.096,-0.068C0.075,-0.093 0.058,-0.121 0.047,-0.153C0.036,-0.185 0.03,-0.219 0.03,-0.256C0.03,-0.294 0.036,-0.329 0.048,-0.362C0.06,-0.394 0.077,-0.423 0.099,-0.448C0.12,-0.473 0.146,-0.493 0.175,-0.506C0.205,-0.52 0.238,-0.527 0.274,-0.527C0.315,-0.527 0.35,-0.518 0.381,-0.5C0.412,-0.482 0.437,-0.458 0.457,-0.427L0.457,-0.519L0.574,-0.519L0.574,-0.023C0.574,0.028 0.562,0.073 0.537,0.109C0.511,0.146 0.477,0.174 0.433,0.194C0.389,0.213 0.339,0.223 0.283,0.223C0.226,0.223 0.178,0.213 0.139,0.194C0.1,0.175 0.066,0.149 0.038,0.114L0.111,0.043C0.131,0.068 0.156,0.087 0.187,0.101C0.217,0.115 0.249,0.122 0.283,0.122C0.312,0.122 0.338,0.117 0.362,0.107C0.385,0.098 0.404,0.083 0.419,0.062C0.433,0.042 0.44,0.015 0.44,-0.018L0.44,-0.084C0.423,-0.054 0.398,-0.031 0.367,-0.015C0.335,0.002 0.301,0.01 0.266,0.01ZM0.311,-0.097C0.326,-0.097 0.34,-0.099 0.353,-0.104C0.366,-0.109 0.379,-0.115 0.39,-0.123C0.401,-0.131 0.411,-0.141 0.42,-0.152C0.429,-0.163 0.435,-0.174 0.44,-0.185L0.44,-0.311C0.432,-0.331 0.421,-0.349 0.406,-0.365C0.392,-0.38 0.376,-0.392 0.359,-0.4C0.341,-0.409 0.322,-0.413 0.303,-0.413C0.282,-0.413 0.264,-0.409 0.247,-0.4C0.23,-0.391 0.216,-0.379 0.204,-0.363C0.192,-0.348 0.183,-0.33 0.177,-0.311C0.17,-0.292 0.167,-0.272 0.167,-0.251C0.167,-0.23 0.171,-0.21 0.178,-0.191C0.185,-0.173 0.196,-0.156 0.209,-0.142C0.222,-0.128 0.237,-0.117 0.255,-0.109C0.272,-0.101 0.291,-0.097 0.311,-0.097Z" style="fill-rule:nonzero;"/>
            </g>
            <g transform="matrix(54,0,0,54,1186.77,216.303)">
                <path d="M0.304,0.01C0.262,0.01 0.224,0.003 0.19,-0.011C0.156,-0.025 0.127,-0.045 0.103,-0.07C0.079,-0.094 0.061,-0.123 0.048,-0.155C0.035,-0.187 0.028,-0.22 0.028,-0.256C0.028,-0.305 0.039,-0.351 0.062,-0.392C0.084,-0.432 0.116,-0.465 0.158,-0.49C0.199,-0.515 0.248,-0.527 0.305,-0.527C0.362,-0.527 0.411,-0.515 0.452,-0.49C0.493,-0.465 0.524,-0.432 0.546,-0.392C0.567,-0.351 0.578,-0.307 0.578,-0.261C0.578,-0.253 0.578,-0.245 0.577,-0.236C0.576,-0.228 0.576,-0.221 0.575,-0.216L0.17,-0.216C0.173,-0.19 0.181,-0.167 0.194,-0.148C0.206,-0.128 0.223,-0.113 0.244,-0.103C0.264,-0.093 0.286,-0.088 0.309,-0.088C0.336,-0.088 0.361,-0.095 0.385,-0.108C0.408,-0.121 0.424,-0.138 0.433,-0.159L0.548,-0.127C0.535,-0.1 0.517,-0.077 0.494,-0.056C0.47,-0.035 0.442,-0.019 0.41,-0.008C0.378,0.004 0.343,0.01 0.304,0.01ZM0.167,-0.301L0.441,-0.301C0.438,-0.327 0.431,-0.35 0.419,-0.369C0.406,-0.388 0.39,-0.403 0.37,-0.414C0.35,-0.425 0.328,-0.43 0.303,-0.43C0.279,-0.43 0.257,-0.425 0.237,-0.414C0.218,-0.403 0.202,-0.388 0.19,-0.369C0.177,-0.35 0.17,-0.327 0.167,-0.301Z" style="fill-rule:nonzero;"/>
            </g>
            <rect x="870.819" y="221.703" width="348.3" height="2.7"/>
        </g>
    </g>
</svg>
