<svg width="38" height="22" viewBox="0 0 127 75" xmlns="http://www.w3.org/2000/svg" fill-rule="evenodd" clip-rule="evenodd" stroke-linejoin="round" stroke-miterlimit="1.414"><path fill="none" d="M0 0h126.055v74.728H0z"/><path fill="#c00" d="M4.07 23.525l106.685-19.73 8.726 47.184L12.796 70.71z"/><g fill="#fff" fill-rule="nonzero"><path d="M23.99 57.37c-1.65.306-2.546.068-2.692-.717l-4.418-23.89c-.074-.405.07-.747.435-1.025.362-.275.967-.49 1.815-.647l1.756-.325c.663-.122 1.224-.156 1.68-.096.46.06.866.266 1.218.624L36.008 43.08l1.388 1.307-2.757-14.908c-.075-.405.07-.747.435-1.025.362-.275.967-.49 1.815-.647l1.18-.219c.848-.156 1.487-.17 1.918-.043.429.132.682.4.757.805l4.418 23.89c.145.784-.6 1.326-2.233 1.628l-1.57.29c-.68.126-1.24.163-1.683.108-.439-.056-.835-.257-1.183-.597L25.706 41.424l-1.097-1.012 2.795 15.112c.145.784-.6 1.326-2.234 1.628l-1.18.218zM52.697 51.999c-.568.105-1.009.064-1.313-.128-.305-.188-.509-.543-.604-1.06l-4.283-23.155c-.096-.52-.03-.917.188-1.194.217-.281.614-.473 1.182-.578L62.923 23.1c.43-.08.769.01 1.017.267.247.258.43.717.552 1.373l.21 1.136c.12.655.114 1.15-.025 1.479-.139.33-.423.534-.854.614l-10.359 1.915 1.002 5.417 9.25-1.71c.43-.08.77.01 1.017.267.248.258.43.717.552 1.373l.214 1.157c.121.656.115 1.15-.025 1.48-.139.33-.423.534-.853.613l-9.25 1.71 1.118 6.049 10.383-1.92c.43-.08.769.01 1.017.267.247.258.429.71.547 1.351l.218 1.175c.122.66.115 1.154-.024 1.483-.14.33-.424.534-.854.614l-15.08 2.789zM79.346 47.133c-.663.123-1.195.155-1.607.094-.41-.062-.668-.214-.777-.453L66.036 24.02a1.525 1.525 0 0 1-.2-.549c-.056-.308.112-.587.502-.841.394-.254 1.021-.46 1.885-.62l1.062-.195c1.602-.297 2.594-.076 2.968.666l5.299 11.437c.082.203.414.96.99 2.27l1.274 2.869c-.003-1.056.09-2.54.274-4.457l.117-1.174 1.112-13.014c.007-.29.19-.536.546-.731.356-.196.87-.354 1.548-.48l1.575-.29c.675-.125 1.215-.162 1.617-.107.402.055.657.22.771.487l5.55 11.783a377.347 377.347 0 0 1 2.454 5.367c.013-.265.067-1.187.158-2.767l.187-3.117.972-12.597c.084-.827.931-1.387 2.533-1.683l.462-.086c.849-.157 1.5-.188 1.959-.092.454.098.712.299.769.607.018.096.028.195.028.287l.005.292-2.274 25.194c-.033.266-.242.504-.636.714-.39.21-.887.368-1.487.479l-3.007.556c-.6.111-1.12.14-1.563.085-.44-.055-.716-.204-.821-.444l-5.767-12.288-1.116-2.42-.249 2.673-1.1 13.557c-.033.266-.242.504-.636.714-.39.21-.887.368-1.49.48l-2.96.547z"/></g></svg>