<?xml version="1.0" encoding="UTF-8" standalone="no"?>
<!DOCTYPE svg PUBLIC "-//W3C//DTD SVG 1.1//EN" "http://www.w3.org/Graphics/SVG/1.1/DTD/svg11.dtd">
<svg width="38px" height="22px" viewBox="0 0 127 75" version="1.1" xmlns="http://www.w3.org/2000/svg" xmlns:xlink="http://www.w3.org/1999/xlink" xml:space="preserve" xmlns:serif="http://www.serif.com/" style="fill-rule:evenodd;clip-rule:evenodd;stroke-linejoin:round;stroke-miterlimit:1.41421;">
    <g id="ArtBoard1" transform="matrix(0.773654,0,0,0.957521,-310.44,-303.106)">
        <rect x="401.265" y="316.553" width="162.934" height="78.043" style="fill:none;"/>
        <g transform="matrix(1.02694,-0.153449,0.235056,1.02695,-83.8978,76.1885)">
            <rect x="404.669" y="318.447" width="134.28" height="47.984" style="fill:rgb(204,0,0);"/>
        </g>
        <g transform="matrix(5.101,-0.762209,0.856428,3.7417,-2289.46,-931.186)">
            <path d="M459.188,443.021C458.77,443.021 458.561,442.912 458.561,442.693L458.561,436.025C458.561,435.912 458.612,435.827 458.714,435.77C458.815,435.714 458.973,435.686 459.188,435.686L459.633,435.686C459.801,435.686 459.94,435.705 460.049,435.744C460.159,435.783 460.249,435.859 460.319,435.973L462.78,439.764L463.061,440.186L463.061,436.025C463.061,435.912 463.112,435.827 463.214,435.77C463.315,435.714 463.473,435.686 463.688,435.686L463.987,435.686C464.202,435.686 464.359,435.714 464.459,435.77C464.558,435.827 464.608,435.912 464.608,436.025L464.608,442.693C464.608,442.912 464.401,443.021 463.987,443.021L463.589,443.021C463.417,443.021 463.278,443.003 463.172,442.966C463.067,442.929 462.979,442.855 462.909,442.746L460.331,438.803L460.108,438.475L460.108,442.693C460.108,442.912 459.901,443.021 459.487,443.021L459.188,443.021Z" style="fill:white;fill-rule:nonzero;"/>
            <path d="M466.465,443.004C466.321,443.004 466.215,442.971 466.149,442.904C466.083,442.838 466.049,442.732 466.049,442.588L466.049,436.125C466.049,435.98 466.083,435.876 466.149,435.812C466.215,435.747 466.321,435.715 466.465,435.715L470.28,435.715C470.389,435.715 470.468,435.756 470.517,435.838C470.566,435.92 470.59,436.053 470.59,436.236L470.59,436.553C470.59,436.736 470.566,436.869 470.517,436.951C470.468,437.033 470.389,437.074 470.28,437.074L467.655,437.074L467.655,438.586L469.999,438.586C470.108,438.586 470.187,438.627 470.236,438.709C470.285,438.791 470.309,438.924 470.309,439.107L470.309,439.43C470.309,439.613 470.285,439.746 470.236,439.828C470.187,439.91 470.108,439.951 469.999,439.951L467.655,439.951L467.655,441.639L470.286,441.639C470.395,441.639 470.474,441.68 470.523,441.762C470.572,441.844 470.596,441.975 470.596,442.154L470.596,442.482C470.596,442.666 470.572,442.799 470.523,442.881C470.474,442.963 470.395,443.004 470.286,443.004L466.465,443.004Z" style="fill:white;fill-rule:nonzero;"/>
            <path d="M473.215,443.021C473.047,443.021 472.915,443.003 472.817,442.966C472.719,442.929 472.663,442.875 472.647,442.805L471.001,436.119C470.985,436.076 470.977,436.023 470.977,435.961C470.977,435.875 471.031,435.808 471.138,435.759C471.246,435.71 471.409,435.686 471.628,435.686L471.897,435.686C472.303,435.686 472.536,435.795 472.594,436.014L473.374,439.365C473.385,439.424 473.432,439.645 473.514,440.027L473.696,440.865C473.743,440.58 473.833,440.184 473.965,439.676L474.047,439.365L474.909,435.908C474.924,435.83 474.98,435.773 475.076,435.738C475.172,435.703 475.305,435.686 475.477,435.686L475.876,435.686C476.047,435.686 476.181,435.703 476.277,435.738C476.373,435.773 476.428,435.83 476.444,435.908L477.27,439.365C477.372,439.795 477.491,440.318 477.628,440.936C477.643,440.865 477.698,440.619 477.792,440.197L477.979,439.365L478.788,436.014C478.846,435.795 479.079,435.686 479.485,435.686L479.602,435.686C479.817,435.686 479.978,435.71 480.086,435.759C480.193,435.808 480.247,435.875 480.247,435.961C480.247,435.988 480.245,436.015 480.241,436.04C480.237,436.065 480.233,436.092 480.229,436.119L478.53,442.805C478.51,442.875 478.448,442.929 478.342,442.966C478.237,443.003 478.108,443.021 477.956,443.021L477.194,443.021C477.042,443.021 476.913,443.003 476.807,442.966C476.702,442.929 476.641,442.875 476.626,442.805L475.77,439.201L475.606,438.492L475.424,439.201L474.54,442.805C474.52,442.875 474.458,442.929 474.352,442.966C474.247,443.003 474.118,443.021 473.965,443.021L473.215,443.021Z" style="fill:white;fill-rule:nonzero;"/>
        </g>
    </g>
</svg>
