<svg class="icon" width="32" height="32" viewBox="0 0 32 32" fill="none" xmlns="http://www.w3.org/2000/svg">
<path opacity="0.7" d="M14.0754 9H14H21.7705C23.4273 9 24.7705 10.3431 24.7705 12M24.7705 14.8542C24.7705 16.6644 24.7705 19.3796 24.7705 23C24.7705 23.5236 24.6364 24.0158 24.4006 24.4443M10.7705 26C9.11364 26 7.77049 24.6569 7.77049 23V15.0947V15" stroke="currentColor" stroke-opacity="0.7" stroke-width="1.5"/>
<path d="M5 9H11" stroke="currentColor" stroke-width="1.75" stroke-linecap="square"/>
<path d="M8 6V12" stroke="currentColor" stroke-width="1.75" stroke-linecap="square"/>
<path d="M16.6464 22.1482L20 16L26 27H14" stroke="currentColor" stroke-width="1.75" stroke-linecap="round" stroke-linejoin="round"/>
<path d="M19 27H11L15 20L17.3797 24.1644" stroke="currentColor" stroke-width="1.75" stroke-linecap="round" stroke-linejoin="round"/>
<path d="M24.5 15C25.3284 15 26 14.3284 26 13.5C26 12.6716 25.3284 12 24.5 12C23.6716 12 23 12.6716 23 13.5C23 14.3284 23.6716 15 24.5 15Z" stroke="currentColor" stroke-width="1.75" stroke-linecap="round" stroke-linejoin="round"/>
</svg>
