<?xml version="1.0" encoding="UTF-8"?>
<svg xmlns="http://www.w3.org/2000/svg" xmlns:xlink="http://www.w3.org/1999/xlink" width="32px" height="32px" viewBox="0 0 32 32" version="1.1">
<g id="surface1">
<path style=" stroke:none;fill-rule:nonzero;fill:rgb(0%,0%,0%);fill-opacity:1;" d="M 30.980469 10.910156 C 30.753906 11.054688 26.726562 12.898438 26.726562 17.003906 C 26.726562 21.753906 31.851562 23.433594 32.003906 23.476562 C 31.980469 23.578125 31.191406 25.777344 29.304688 28.015625 C 27.621094 29.988281 25.863281 31.957031 23.191406 31.957031 C 20.515625 31.957031 19.828125 30.691406 16.742188 30.691406 C 13.734375 30.691406 12.667969 31.996094 10.222656 31.996094 C 7.777344 31.996094 6.070312 30.171875 4.109375 27.933594 C 1.835938 25.300781 0 21.214844 0 17.335938 C 0 11.117188 4.96875 7.816406 9.859375 7.816406 C 12.457031 7.816406 14.625 9.207031 16.253906 9.207031 C 17.808594 9.207031 20.230469 7.734375 23.1875 7.734375 C 24.304688 7.734375 28.332031 7.816406 30.980469 10.910156 Z M 21.78125 5.101562 C 23.003906 3.921875 23.871094 2.28125 23.871094 0.644531 C 23.871094 0.414062 23.847656 0.1875 23.796875 0 C 21.804688 0.0625 19.441406 1.078125 18.011719 2.425781 C 16.890625 3.460938 15.847656 5.101562 15.847656 6.761719 C 15.847656 7.011719 15.898438 7.261719 15.921875 7.339844 C 16.046875 7.359375 16.25 7.382812 16.457031 7.382812 C 18.242188 7.382812 20.484375 6.410156 21.78125 5.101562 Z M 21.78125 5.101562 "/>
</g>
</svg>
