<svg xmlns="http://www.w3.org/2000/svg" width="32" height="32" fill="none" viewBox="0 0 32 32">
  <path fill="currentColor" d="M18.625 13.75a1.125 1.125 0 1 0 0-2.25 1.125 1.125 0 0 0 0 2.25Zm-5.25 0a1.125 1.125 0 1 0 0-2.25 1.125 1.125 0 0 0 0 2.25Z"/>
  <path stroke="currentColor" stroke-linecap="round" stroke-linejoin="round" stroke-width="2" d="M16 16v9m10.875-9H5.125M23.5 17.5a7.5 7.5 0 0 1-15 0v-3a7.5 7.5 0 0 1 15 0v3Zm2.238 4.119-2.691-1.556m2.691-9.688-2.691 1.556M6.266 10.375l2.69 1.556m-2.69 9.688 2.69-1.556"/>
</svg>
