<svg width="32" height="32" viewBox="0 0 32 32" fill="none" xmlns="http://www.w3.org/2000/svg">
<path d="M14.3193 7.0026C13.6923 7.01109 13.316 7.04739 13.0116 7.20246C12.6621 7.38054 12.3779 7.66471 12.1999 8.01422C12.0448 8.31856 12.0085 8.69493 12 9.32189M22.6781 7.0026C23.3051 7.01109 23.6814 7.04739 23.9858 7.20246C24.3353 7.38054 24.6195 7.66471 24.7975 8.01422C24.9526 8.31855 24.9889 8.69493 24.9974 9.32188M24.9974 17.6807C24.9889 18.3077 24.9526 18.684 24.7975 18.9884C24.6195 19.3379 24.3353 19.6221 23.9858 19.8001C23.6814 19.9552 23.3051 19.9915 22.6781 20M25 12.5725V14.43M17.57 7H19.4274" stroke="#373E4F" stroke-opacity="0.5" stroke-width="1.75" stroke-linecap="round" stroke-linejoin="round"/>
<path d="M7 14.9714C7 13.9313 7 13.4113 7.20242 13.014C7.38047 12.6646 7.66457 12.3805 8.01402 12.2024C8.41128 12 8.93133 12 9.97143 12H17.0286C18.0687 12 18.5887 12 18.986 12.2024C19.3354 12.3805 19.6195 12.6646 19.7976 13.014C20 13.4113 20 13.9313 20 14.9714V22.0286C20 23.0687 20 23.5887 19.7976 23.986C19.6195 24.3354 19.3354 24.6195 18.986 24.7976C18.5887 25 18.0687 25 17.0286 25H9.97143C8.93133 25 8.41128 25 8.01402 24.7976C7.66457 24.6195 7.38047 24.3354 7.20242 23.986C7 23.5887 7 23.0687 7 22.0286V14.9714Z" stroke="#373E4F" stroke-width="2" stroke-linecap="round" stroke-linejoin="round"/>
</svg>
