<svg class="icon" width="32" height="32" viewBox="0 0 32 32" fill="none" xmlns="http://www.w3.org/2000/svg">
<path fill-rule="evenodd" clip-rule="evenodd" d="M9.67955 7.84257C9.87646 7.64566 10.1435 7.53503 10.422 7.53503H16.888V11.695C16.888 12.1506 17.069 12.5876 17.3912 12.9098C17.7134 13.232 18.1504 13.413 18.606 13.413H22.626V23.5782C22.6259 23.7161 22.5985 23.8527 22.5456 23.9801C22.4926 24.1074 22.4151 24.2231 22.3174 24.3205C22.2198 24.4179 22.1039 24.4951 21.9763 24.5477C21.8488 24.6003 21.7122 24.6273 21.5743 24.627L21.573 24.627H20.5686L9.49549 8.091C9.54382 8.00037 9.6056 7.91652 9.67955 7.84257ZM9.49546 8.09107C9.49547 8.09104 9.49548 8.09102 9.49549 8.091L8.61889 6.78191C9.0971 6.30369 9.74571 6.03503 10.422 6.03503H17.905H17.9055C18.1292 6.03517 18.3506 6.07995 18.5568 6.16676C18.7627 6.25348 18.9493 6.3804 19.1057 6.54008L19.1062 6.5406L23.6173 11.1397C23.9432 11.4718 24.1259 11.9185 24.126 12.3838V12.384V23.579V23.5799C24.1256 23.9149 24.0593 24.2465 23.9307 24.5558C23.8021 24.8652 23.6138 25.1461 23.3766 25.3827C23.1394 25.6192 22.8579 25.8067 22.5483 25.9344C22.239 26.062 21.9076 26.1274 21.573 26.127L20.5686 24.627H20.5674L9.49546 8.09107ZM9.49546 8.09107C9.41513 8.24174 9.37201 8.41117 9.37201 8.58503V23.577C9.37201 23.8555 9.48263 24.1226 9.67955 24.3195C9.87646 24.5164 10.1435 24.627 10.422 24.627H20.5674L21.5718 26.127L10.422 26.127C9.74571 26.127 9.0971 25.8584 8.61889 25.3802C8.14067 24.9019 7.87201 24.2533 7.87201 23.577V8.58503C7.87201 7.90873 8.14067 7.26013 8.61889 6.78191L9.49546 8.09107ZM22.2746 11.913L18.388 7.95053V11.695C18.388 11.7528 18.411 11.8082 18.4519 11.8491C18.4927 11.89 18.5482 11.913 18.606 11.913H22.2746Z" fill="currentColor" fill-opacity="0.7"/>
<path d="M22.087 18.03L23.06 21.425L24.019 18.03H25.454L23.739 23H22.381L20.645 18.03H22.087Z" fill="currentColor"/>
<path d="M20.369 19.654L20.25 19.584C20.1479 19.5257 20.0428 19.4729 19.935 19.426C19.7961 19.3648 19.6535 19.3123 19.508 19.269C19.3606 19.2233 19.2073 19.1997 19.053 19.199C18.9543 19.1953 18.8561 19.2145 18.766 19.255C18.7309 19.2721 18.7016 19.2991 18.6817 19.3327C18.6618 19.3663 18.6522 19.405 18.654 19.444C18.6541 19.4841 18.6645 19.5235 18.6841 19.5585C18.7037 19.5935 18.7319 19.6229 18.766 19.644C18.8648 19.7062 18.9723 19.7533 19.085 19.784L19.578 19.938C19.8548 20.0182 20.1228 20.1261 20.378 20.26C20.5876 20.3682 20.7659 20.5283 20.896 20.725C21.0275 20.9534 21.0907 21.2147 21.078 21.478C21.0864 21.7383 21.0312 21.9968 20.917 22.231C20.8158 22.4274 20.6665 22.5949 20.483 22.718C20.2972 22.8411 20.091 22.9302 19.874 22.981C19.6493 23.0346 19.419 23.0614 19.188 23.061C18.9379 23.0599 18.6885 23.0355 18.443 22.988C18.1872 22.9409 17.9354 22.874 17.69 22.788C17.4596 22.7086 17.237 22.6082 17.025 22.488L17.613 21.288L17.753 21.372C17.8731 21.4417 17.997 21.5048 18.124 21.561C18.2908 21.6357 18.4625 21.6989 18.638 21.75C18.8233 21.8054 19.0156 21.8337 19.209 21.834C19.3164 21.8433 19.4244 21.8229 19.521 21.775C19.548 21.7585 19.5702 21.7352 19.5854 21.7075C19.6007 21.6798 19.6085 21.6486 19.608 21.617C19.6074 21.5682 19.5924 21.5207 19.5651 21.4804C19.5377 21.44 19.4991 21.4086 19.454 21.39C19.3258 21.3262 19.1919 21.2747 19.054 21.236C18.888 21.1866 18.705 21.1293 18.505 21.064C18.2538 20.9841 18.0139 20.8725 17.791 20.732C17.6178 20.6228 17.4756 20.471 17.378 20.291C17.2844 20.0984 17.2388 19.886 17.245 19.672C17.2311 19.3436 17.3203 19.0191 17.5 18.744C17.6717 18.4976 17.9076 18.3029 18.182 18.181C18.4691 18.0514 18.781 17.9855 19.096 17.988C19.3321 17.9878 19.5673 18.0173 19.796 18.076C20.0133 18.1314 20.2263 18.203 20.433 18.29C20.633 18.374 20.8067 18.4533 20.954 18.528L20.369 19.654Z" fill="currentColor"/>
<path d="M12.686 20.473C12.6863 20.1675 12.7444 19.8649 12.857 19.581C12.9725 19.287 13.1421 19.0174 13.357 18.786C13.5823 18.5438 13.8545 18.3499 14.157 18.216C14.494 18.068 14.859 17.9944 15.227 18C15.6613 17.9905 16.0906 18.0939 16.473 18.3C16.8083 18.4789 17.0834 18.7526 17.264 19.087L16.221 19.829C16.1711 19.6808 16.0802 19.5498 15.959 19.451C15.8493 19.3644 15.723 19.3011 15.588 19.265C15.4614 19.231 15.331 19.2136 15.2 19.213C15.0237 19.2081 14.849 19.2477 14.692 19.328C14.5541 19.4002 14.4345 19.5028 14.342 19.628C14.2515 19.7553 14.1838 19.8975 14.142 20.048C14.0981 20.1981 14.0755 20.3536 14.075 20.51C14.074 20.6797 14.1 20.8485 14.152 21.01C14.2005 21.1637 14.2764 21.3073 14.376 21.434C14.4727 21.5564 14.5958 21.6556 14.736 21.724C14.8857 21.7957 15.05 21.8316 15.216 21.829C15.3461 21.829 15.4755 21.8098 15.6 21.772C15.7307 21.7322 15.8521 21.6665 15.957 21.579C16.0681 21.4835 16.152 21.3604 16.2 21.222L17.313 21.887C17.2102 22.1358 17.0406 22.3514 16.823 22.51C16.589 22.6871 16.3261 22.8225 16.046 22.91C15.7677 22.9994 15.4773 23.0456 15.185 23.047C14.8357 23.0514 14.4899 22.9762 14.174 22.827C13.8745 22.6845 13.6057 22.4848 13.383 22.239C13.163 21.9969 12.9885 21.7171 12.868 21.413C12.7477 21.1142 12.6859 20.7951 12.686 20.473Z" fill="currentColor"/>
</svg>
