<svg class="icon" width="32" height="32" viewBox="0 0 32 32" fill="none" xmlns="http://www.w3.org/2000/svg">
<path fill-rule="evenodd" clip-rule="evenodd" d="M18.9815 5.58672L18.9831 5.58971C18.9784 5.582 18.978 5.58025 18.9815 5.58672ZM19.1713 6.18796C19.1614 6.15019 19.1518 6.11458 19.1426 6.08102C19.0208 6.13119 18.8948 6.18429 18.7643 6.23926C17.5845 6.7364 16.0445 7.38535 14.0019 7.3896C13.0963 7.39148 12.3059 7.26479 11.561 7.14538L11.4649 7.12998C10.6842 7.00513 9.92491 6.88963 9.00003 6.88963C8.38954 6.88963 7.6353 7.07643 6.88492 7.35324C6.37749 7.54043 5.90337 7.75687 5.52202 7.95117L7.75121 16.3106C8.5642 15.794 9.79089 15.1352 11.5024 15.1398C12.6487 15.1429 13.4569 15.2766 14.1488 15.4036L14.3104 15.4334C14.9208 15.5463 15.3975 15.6344 16 15.6344C16.7359 15.6344 17.2016 15.6091 17.6865 15.4958C18.1756 15.3815 18.7297 15.1663 19.6087 14.7268C20.4419 14.3102 20.8593 14.0986 21.0832 13.955L20.1512 10.2269L20.1512 10.2269C19.8783 9.1353 19.676 8.27985 19.5156 7.60187L19.5156 7.60185C19.375 7.00724 19.2667 6.54915 19.1713 6.18796ZM10.3438 25.783L8.23081 18.0903C8.29695 18.048 8.36329 18.005 8.43011 17.9617L8.43028 17.9616C9.22599 17.446 10.0903 16.886 11.4977 16.8898C12.4935 16.8925 13.1852 17.006 13.8328 17.1249L14.0066 17.157C14.6029 17.2679 15.2299 17.3844 16 17.3844C16.7642 17.3844 17.3959 17.3609 18.0848 17.1999C18.7695 17.0398 19.4653 16.755 20.3913 16.292L20.502 16.2367C21.3027 15.8365 21.8569 15.5595 22.1907 15.3173C22.3849 15.1764 22.5892 14.9904 22.7237 14.7218C22.8603 14.449 22.875 14.1892 22.875 14.0146V13.9069L22.8489 13.8024L21.8489 9.8025C21.5923 8.7761 21.3886 7.9163 21.2238 7.22104L21.2238 7.22097L21.2237 7.22065C21.0753 6.59454 20.9586 6.10189 20.8633 5.74118C20.7648 5.36811 20.6611 5.01774 20.5262 4.76439C20.4598 4.63955 20.3332 4.43398 20.1047 4.28746C19.82 4.1049 19.4977 4.08775 19.2233 4.17927C18.7345 4.34225 18.2893 4.52946 17.8498 4.71426L17.8498 4.71427C16.7353 5.18293 15.6575 5.63615 13.9982 5.6396C13.2363 5.64119 12.5695 5.53449 11.7982 5.41105L11.7413 5.40194C10.9532 5.27591 10.0752 5.13963 9.00003 5.13963C8.08779 5.13963 7.10795 5.4057 6.27926 5.71139C5.43833 6.0216 4.68192 6.39951 4.19338 6.68012C3.7601 6.92899 3.57196 7.43028 3.69339 7.88562L6.36834 17.9167L6.36831 17.9167L6.37004 17.923L8.65628 26.2465C8.78428 26.7125 9.2658 26.9865 9.73179 26.8585C10.1978 26.7305 10.4718 26.249 10.3438 25.783Z" fill="currentColor"/>
</svg>
