<svg xmlns="http://www.w3.org/2000/svg" width="32" height="32" fill="none" viewBox="0 0 32 32">
  <path fill="#24292F" fill-rule="evenodd" d="M16.01 4C9.369 4 4 9.5 4 16.304c0 5.44 3.44 10.043 8.212 11.673.597.122.815-.265.815-.59 0-.286-.02-1.264-.02-2.283-3.34.734-4.036-1.466-4.036-1.466-.537-1.426-1.332-1.793-1.332-1.793-1.094-.754.08-.754.08-.754 1.212.082 1.849 1.263 1.849 1.263 1.073 1.874 2.803 1.345 3.5 1.019.098-.795.417-1.345.755-1.65-2.665-.285-5.468-1.345-5.468-6.07 0-1.345.477-2.445 1.232-3.3-.119-.306-.537-1.57.12-3.26 0 0 1.014-.326 3.3 1.263.98-.27 1.989-.407 3.003-.408 1.014 0 2.048.143 3.002.408 2.287-1.59 3.301-1.263 3.301-1.263.657 1.69.239 2.954.12 3.26.775.855 1.232 1.955 1.232 3.3 0 4.725-2.803 5.764-5.488 6.07.438.387.815 1.12.815 2.281 0 1.65-.02 2.975-.02 3.382 0 .326.22.713.816.59C24.56 26.347 28 21.744 28 16.305 28.02 9.5 22.63 4 16.01 4Z" clip-rule="evenodd"/>
</svg>
