<svg width="32" height="32" viewBox="0 0 32 32" fill="none" xmlns="http://www.w3.org/2000/svg">
<path d="M16 9C7.864 9 4 16 4 16C4 16 7.864 23 16 23C24.136 23 28 16 28 16C28 16 24.136 9 16 9Z" stroke="white" stroke-width="1.75" stroke-linecap="round" stroke-linejoin="round"/>
<path d="M15.5 21C16.5878 21 17.6512 20.6774 18.5556 20.0731C19.4601 19.4687 20.1651 18.6098 20.5813 17.6048C20.9976 16.5998 21.1065 15.4939 20.8943 14.427C20.6821 13.3601 20.1583 12.3801 19.3891 11.6109C18.6199 10.8417 17.6399 10.3179 16.573 10.1057C15.5061 9.89346 14.4002 10.0024 13.3952 10.4187C12.3902 10.8349 11.5313 11.5399 10.9269 12.4444C10.3226 13.3488 10 14.4122 10 15.5C10 16.9587 10.5795 18.3576 11.6109 19.3891C12.6424 20.4205 14.0413 21 15.5 21Z" stroke="white" stroke-width="1.5" stroke-linecap="round" stroke-linejoin="round"/>
<path d="M13.268 14C13.0911 14.4221 13 14.8753 13 15.333C13 15.7907 13.0911 16.2439 13.268 16.666C13.3943 17.0336 13.6258 17.3559 13.9337 17.5931C14.2416 17.8302 14.6124 17.9717 15 18" stroke="white" stroke-opacity="0.7" stroke-width="1.5" stroke-linecap="round" stroke-linejoin="round"/>
</svg>
