<svg width="32" height="32" viewBox="0 0 32 32" fill="none" xmlns="http://www.w3.org/2000/svg">
<path d="M19.4113 26.75H9.58601C9.16537 26.75 8.76197 26.5766 8.46453 26.2679C8.1671 25.9593 8 25.5406 8 25.1041V11.3959C8 10.9594 8.1671 10.5407 8.46453 10.2321C8.76197 9.9234 9.16537 9.75 9.58601 9.75H16.1794C16.2886 9.75007 16.3966 9.77275 16.4973 9.81671C16.5979 9.86067 16.689 9.92504 16.7654 10.006L20.741 14.2121C20.9069 14.3876 20.9999 14.6237 21 14.8696V25.106C20.9998 25.3222 20.9585 25.5362 20.8785 25.7359C20.7985 25.9355 20.6814 26.1169 20.5339 26.2696C20.3864 26.4222 20.2113 26.5432 20.0187 26.6257C19.8261 26.7081 19.6197 26.7504 19.4113 26.75Z" stroke="#313949" stroke-width="2" stroke-miterlimit="10"/>
<path d="M15 10V14.211C15 14.4203 15.0932 14.621 15.259 14.7689C15.4248 14.9169 15.6497 15 15.8842 15H20" stroke="#313949" stroke-width="2" stroke-miterlimit="10"/>
<path fill-rule="evenodd" clip-rule="evenodd" d="M13.9753 6.7199C14.1134 6.57304 14.2902 6.5 14.464 6.5H19.7429V9.67196C19.7429 10.0941 19.9106 10.499 20.2091 10.7975C20.5076 11.096 20.9125 11.2637 21.3346 11.2637H24.25V20.2842C24.2499 20.3966 24.2289 20.5069 24.1893 20.6084C24.1496 20.7098 24.0927 20.799 24.0239 20.872C23.9853 20.913 23.9435 20.9484 23.8994 20.978L22.9818 21.0002L23.0182 22.4998L24.1123 22.4733L24.2602 22.4697L24.3956 22.4103C24.6677 22.2908 24.9119 22.1169 25.1156 21.9008C25.3191 21.6848 25.4784 21.4307 25.5864 21.1542C25.6945 20.8777 25.7497 20.5827 25.75 20.2858V20.285V10.5959V10.5956C25.7499 10.1808 25.5973 9.77421 25.3122 9.46513L21.6433 5.48478L21.6428 5.48427C21.5051 5.3346 21.3381 5.21287 21.1503 5.1287C20.9621 5.04438 20.7581 5.00013 20.5507 5H20.5502H14.464C13.8612 5 13.2934 5.25523 12.8823 5.69268C12.4726 6.12856 12.25 6.71031 12.25 7.30788V7.75H13.75V7.30788C13.75 7.0791 13.8358 6.86834 13.9753 6.7199ZM23.5474 9.76374L21.2429 7.26357V9.67196C21.2429 9.6963 21.2525 9.71965 21.2697 9.73686C21.287 9.75407 21.3103 9.76374 21.3346 9.76374H23.5474Z" fill="#333948" fill-opacity="0.5"/>
</svg>
