<svg width="32" height="32" viewBox="0 0 32 32" fill="none" xmlns="http://www.w3.org/2000/svg">
<path d="M22 12H10C8.34315 12 7 13.3431 7 15V24C7 25.6569 8.34315 27 10 27H22C23.6569 27 25 25.6569 25 24V15C25 13.3431 23.6569 12 22 12Z" stroke="white" stroke-width="1.75"/>
<path d="M20.56 9.05096C20.545 7.85297 20.0594 6.70896 19.2078 5.86614C18.3563 5.02332 17.2074 4.54939 16.0093 4.54676C14.8112 4.54414 13.6602 5.01302 12.805 5.8521C11.9498 6.69117 11.4591 7.83305 11.439 9.03096V11.2" stroke="white" stroke-width="1.75" stroke-miterlimit="10" stroke-linecap="round" stroke-linejoin="round"/>
<path d="M16 17.652V21.352" stroke="white" stroke-opacity="0.7" stroke-width="1.5" stroke-miterlimit="10" stroke-linecap="round" stroke-linejoin="round"/>
</svg>
