<svg width="32" height="32" viewBox="0 0 32 32" fill="none" xmlns="http://www.w3.org/2000/svg">
<path fill-rule="evenodd" clip-rule="evenodd" d="M15.8631 15.7125C15.1025 12.2156 12.8317 10.5387 10.7902 9.77176C9.78436 9.39391 8.83364 9.23383 8.13806 9.16693C7.78854 9.13331 7.49863 9.12277 7.29215 9.12084C7.18878 9.11987 7.10593 9.12105 7.04654 9.12261C7.01684 9.12339 6.99296 9.12426 6.97529 9.12501L6.95345 9.12602L6.9461 9.12641L6.94333 9.12656L6.94217 9.12662C6.94165 9.12665 6.94116 9.12668 6.99899 10.125L6.94116 9.12668C6.3898 9.15862 5.96873 9.63148 6.00067 10.1828C6.03255 10.7333 6.50392 11.1539 7.05412 11.1235L7.06032 11.1232C7.06748 11.1229 7.08052 11.1224 7.09906 11.1219C7.13617 11.1209 7.19521 11.12 7.27337 11.1207C7.42996 11.1222 7.66172 11.1303 7.9466 11.1577C8.51983 11.2129 9.28885 11.3442 10.0868 11.644C11.6527 12.2323 13.3254 13.4554 13.9088 16.1375C14.6669 19.6231 16.9135 21.3532 18.9333 22.1796C19.9302 22.5875 20.8733 22.7784 21.5643 22.8683C21.9114 22.9135 22.1994 22.9337 22.4047 22.9426C22.4174 22.9432 22.4298 22.9437 22.4418 22.9442L22.0227 23.3633L21.3156 24.0704L22.7298 25.4846L23.4369 24.7775L25.5582 22.6562L26.2653 21.9491L26.265 21.9488L26.2654 21.9484L25.5583 21.2413L23.437 19.12L22.7299 18.4129L21.3157 19.8271L22.0228 20.5342L22.4301 20.9416C22.278 20.9335 22.0705 20.9173 21.8223 20.885C21.2526 20.8109 20.4867 20.6543 19.6906 20.3286C18.1244 19.6877 16.449 18.4059 15.8631 15.7125ZM22.7464 22.6396L22.7299 21.949C22.7377 22.2728 22.7428 22.4917 22.7463 22.6397L22.7464 22.6396Z" fill="#333948" fill-opacity="0.5"/>
<path d="M22.7299 8.00012L24.8512 10.1214" stroke="#313949" stroke-width="2" stroke-linecap="square"/>
<path d="M24.8511 10.1211L22.7298 12.2424" stroke="#313949" stroke-width="2" stroke-linecap="square"/>
<path d="M22.73 10.12C22.73 10.12 16.23 9.96398 14.886 16.193C13.542 22.422 6.99902 22.039 6.99902 22.039" stroke="#313949" stroke-width="2" stroke-linecap="round"/>
</svg>
