<svg width="32" height="32" viewBox="0 0 32 32" fill="none" xmlns="http://www.w3.org/2000/svg">
<path d="M20.132 18.52C20.2195 18.3671 20.3459 18.24 20.4983 18.1516C20.6508 18.0632 20.8238 18.0166 21 18.0166C21.1763 18.0166 21.3493 18.0632 21.5018 18.1516C21.6542 18.24 21.7805 18.3671 21.868 18.52L24.145 22.501C24.2329 22.6532 24.2791 22.8258 24.279 23.0015C24.2789 23.1772 24.2326 23.3498 24.1446 23.5019C24.0566 23.654 23.93 23.7802 23.7777 23.8678C23.6254 23.9554 23.4527 24.0014 23.277 24.001H18.723C18.5473 24.0014 18.3746 23.9554 18.2224 23.8678C18.0701 23.7802 17.9435 23.654 17.8555 23.5019C17.7675 23.3498 17.7212 23.1772 17.7211 23.0015C17.721 22.8258 17.7672 22.6532 17.855 22.501L20.132 18.52Z" stroke="#333948" stroke-opacity="0.5" stroke-width="1.75"/>
<path d="M21 14.001C22.6569 14.001 24 12.6578 24 11.001C24 9.34412 22.6569 8.00098 21 8.00098C19.3431 8.00098 18 9.34412 18 11.001C18 12.6578 19.3431 14.001 21 14.001Z" stroke="#313949" stroke-width="2"/>
<path d="M13 18H9C8.44772 18 8 18.4477 8 19V23C8 23.5523 8.44772 24 9 24H13C13.5523 24 14 23.5523 14 23V19C14 18.4477 13.5523 18 13 18Z" stroke="#313949" stroke-width="2"/>
<path d="M11.875 8C11.875 7.51675 11.4832 7.125 11 7.125C10.5168 7.125 10.125 7.51675 10.125 8H11.875ZM10.125 9.25V10.125H11.875V9.25H10.125ZM10.125 8V9.25H11.875V8H10.125Z" fill="#333948" fill-opacity="0.5"/>
<path d="M11.875 12.75V11.875H10.125V12.75H11.875ZM10.125 14C10.125 14.4832 10.5168 14.875 11 14.875C11.4832 14.875 11.875 14.4832 11.875 14H10.125ZM10.125 12.75V14H11.875V12.75H10.125Z" fill="#333948" fill-opacity="0.5"/>
<path d="M14 11L8 11" stroke="#333948" stroke-opacity="0.5" stroke-width="1.75" stroke-linecap="round"/>
</svg>
