<svg width="32" height="32" viewBox="0 0 32 32" fill="none" xmlns="http://www.w3.org/2000/svg">
<path fill-rule="evenodd" clip-rule="evenodd" d="M10.0575 8.05754C10.2545 7.86062 10.5215 7.75 10.8 7.75H17.2661V11.9098C17.2661 12.3654 17.4471 12.8024 17.7693 13.1246C18.0915 13.4468 18.5285 13.6278 18.9841 13.6278H23.004V23.7932C23.0038 23.9311 22.9765 24.0677 22.9236 24.195C22.8706 24.3224 22.7931 24.4381 22.6954 24.5355C22.5978 24.6329 22.4819 24.7101 22.3543 24.7627C22.2268 24.8153 22.0902 24.8422 21.9523 24.842L21.951 24.842H20.9466L9.87348 8.30596C9.92181 8.21533 9.98359 8.13149 10.0575 8.05754ZM9.87345 8.30603C9.87346 8.30601 9.87347 8.30599 9.87348 8.30596L8.99688 6.99688C9.4751 6.51866 10.1237 6.25 10.8 6.25H18.283H18.2834C18.5072 6.25013 18.7286 6.29492 18.9348 6.38173C19.1407 6.46845 19.3273 6.59536 19.4837 6.75504L19.4842 6.75556L23.9953 11.3547C24.3212 11.6868 24.5038 12.1335 24.504 12.5988V12.599V23.794V23.7948C24.5036 24.1298 24.4373 24.4615 24.3087 24.7708C24.1801 25.0801 23.9918 25.3611 23.7546 25.5976C23.5174 25.8342 23.2359 26.0217 22.9262 26.1494C22.6169 26.2769 22.2856 26.3424 21.951 26.342L20.9466 24.842H20.9454L9.87345 8.30603ZM9.87345 8.30603C9.79312 8.45671 9.75 8.62613 9.75 8.8V23.792C9.75 24.0705 9.86062 24.3375 10.0575 24.5345C10.2545 24.7314 10.5215 24.842 10.8 24.842H20.9454L21.9497 26.342L10.8 26.342C10.1237 26.342 9.4751 26.0733 8.99688 25.5951C8.51866 25.1169 8.25 24.4683 8.25 23.792V8.8C8.25 8.1237 8.51866 7.4751 8.99688 6.99688L9.87345 8.30603ZM22.6525 12.1278L18.7661 8.16562V11.9098C18.7661 11.9676 18.7891 12.0231 18.83 12.064C18.8708 12.1048 18.9263 12.1278 18.9841 12.1278H22.6525Z" fill="white" fill-opacity="0.7"/>
<path d="M23.0327 23.2151V18.2451H26.4417V19.4351H24.3977V20.2611H26.0637V21.3671H24.3977V23.2151H23.0327Z" fill="white"/>
<path d="M18.459 23.2148V18.2448H20.37C20.8526 18.2277 21.3308 18.3425 21.753 18.5768C22.1145 18.7888 22.4064 19.1016 22.593 19.4768C22.785 19.8649 22.8823 20.2929 22.877 20.7258C22.8879 21.184 22.7805 21.6373 22.565 22.0418C22.3631 22.4095 22.0592 22.7109 21.69 22.9098C21.2829 23.1217 20.8287 23.2266 20.37 23.2148H18.459ZM21.49 20.7228C21.4956 20.4907 21.451 20.2601 21.359 20.0468C21.2776 19.862 21.1438 19.7052 20.974 19.5958C20.7937 19.4853 20.5853 19.4294 20.374 19.4348H19.828V22.0248H20.374C20.5884 22.0317 20.7997 21.9731 20.98 21.8568C21.148 21.7406 21.2794 21.579 21.359 21.3908C21.4494 21.18 21.4941 20.9523 21.49 20.7228Z" fill="white"/>
<path d="M14.5352 23.2152V18.2452H16.6772C16.9094 18.2429 17.1391 18.2932 17.3492 18.3922C17.5513 18.4888 17.7322 18.6248 17.8812 18.7922C18.0288 18.9554 18.146 19.1437 18.2272 19.3482C18.3076 19.5461 18.3493 19.7576 18.3502 19.9712C18.3509 20.2617 18.2798 20.5478 18.1432 20.8042C18.0084 21.0625 17.8111 21.2829 17.5692 21.4452C17.3151 21.6134 17.0158 21.6999 16.7112 21.6932H15.9002V23.2152H14.5352ZM15.9002 20.4992H16.6212C16.6784 20.4986 16.7343 20.4816 16.7822 20.4502C16.8407 20.4081 16.8856 20.3497 16.9112 20.2822C16.9501 20.1819 16.9681 20.0747 16.9642 19.9672C16.9697 19.8553 16.9491 19.7437 16.9042 19.6412C16.8735 19.5742 16.8228 19.5183 16.7592 19.4812C16.7064 19.4521 16.6474 19.4363 16.5872 19.4352H15.9002V20.4992Z" fill="white"/>
</svg>
