<svg width="32" height="32" viewBox="0 0 32 32" fill="none" xmlns="http://www.w3.org/2000/svg">
<circle cx="16" cy="16" r="12" stroke="#313949" stroke-width="2"/>
<path fill-rule="evenodd" clip-rule="evenodd" d="M20.2798 17C20.1644 19.8392 19.5643 22.3234 18.7101 24.1032C17.6981 26.2115 16.6294 26.8 16 26.8C15.3706 26.8 14.3019 26.2115 13.2899 24.1032C12.4357 22.3234 11.8356 19.8392 11.7202 17H20.2798ZM21.9811 17H28V15.3H21.9908C21.8165 8.72208 19.201 3.5 16 3.5C12.799 3.5 10.1835 8.72208 10.0092 15.3H4V17H10.0189C10.2635 23.436 12.8479 28.5 16 28.5C19.1521 28.5 21.7365 23.436 21.9811 17ZM11.7099 15.3C11.7938 12.3359 12.4057 9.739 13.2899 7.89681C14.3019 5.78848 15.3706 5.2 16 5.2C16.6294 5.2 17.6981 5.78848 18.7101 7.89681C19.5943 9.739 20.2062 12.3359 20.2901 15.3H11.7099Z" fill="#333948" fill-opacity="0.5"/>
</svg>
