<svg width="32" height="32" viewBox="0 0 32 32" fill="none" xmlns="http://www.w3.org/2000/svg">
<path d="M14.0755 9.75C14.4897 9.75 14.8255 9.41421 14.8255 9C14.8255 8.58579 14.4897 8.25 14.0755 8.25V9.75ZM24.0205 14.1604C24.0205 14.5746 24.3563 14.9104 24.7705 14.9104C25.1847 14.9104 25.5205 14.5746 25.5205 14.1604H24.0205ZM17.6128 26.75C18.027 26.75 18.3628 26.4142 18.3628 26C18.3628 25.5858 18.027 25.25 17.6128 25.25V26.75ZM8.52051 15.7459V14.9959H7.02051V15.7459H8.52051ZM14.0755 8.25H14V9.75H14.0755V8.25ZM14 9.75H21.7705V8.25H14V9.75ZM21.7705 9.75C23.0131 9.75 24.0205 10.7574 24.0205 12H25.5205C25.5205 9.92893 23.8416 8.25 21.7705 8.25V9.75ZM24.0205 12C24.0205 12.0019 24.0205 12.0037 24.0205 12.0056C24.0205 12.0075 24.0205 12.0094 24.0205 12.0112C24.0205 12.0131 24.0205 12.015 24.0205 12.0169C24.0205 12.0187 24.0205 12.0206 24.0205 12.0225C24.0205 12.0243 24.0205 12.0262 24.0205 12.0281C24.0205 12.0299 24.0205 12.0318 24.0205 12.0337C24.0205 12.0355 24.0205 12.0374 24.0205 12.0392C24.0205 12.0411 24.0205 12.043 24.0205 12.0448C24.0205 12.0467 24.0205 12.0486 24.0205 12.0504C24.0205 12.0523 24.0205 12.0541 24.0205 12.056C24.0205 12.0578 24.0205 12.0597 24.0205 12.0616C24.0205 12.0634 24.0205 12.0653 24.0205 12.0671C24.0205 12.069 24.0205 12.0708 24.0205 12.0727C24.0205 12.0745 24.0205 12.0764 24.0205 12.0782C24.0205 12.0801 24.0205 12.0819 24.0205 12.0838C24.0205 12.0856 24.0205 12.0875 24.0205 12.0893C24.0205 12.0912 24.0205 12.093 24.0205 12.0948C24.0205 12.0967 24.0205 12.0985 24.0205 12.1004C24.0205 12.1022 24.0205 12.1041 24.0205 12.1059C24.0205 12.1077 24.0205 12.1096 24.0205 12.1114C24.0205 12.1133 24.0205 12.1151 24.0205 12.1169C24.0205 12.1188 24.0205 12.1206 24.0205 12.1224C24.0205 12.1243 24.0205 12.1261 24.0205 12.1279C24.0205 12.1298 24.0205 12.1316 24.0205 12.1334C24.0205 12.1353 24.0205 12.1371 24.0205 12.1389C24.0205 12.1408 24.0205 12.1426 24.0205 12.1444C24.0205 12.1462 24.0205 12.1481 24.0205 12.1499C24.0205 12.1517 24.0205 12.1536 24.0205 12.1554C24.0205 12.1572 24.0205 12.159 24.0205 12.1608C24.0205 12.1627 24.0205 12.1645 24.0205 12.1663C24.0205 12.1681 24.0205 12.1699 24.0205 12.1718C24.0205 12.1736 24.0205 12.1754 24.0205 12.1772C24.0205 12.179 24.0205 12.1809 24.0205 12.1827C24.0205 12.1845 24.0205 12.1863 24.0205 12.1881C24.0205 12.1899 24.0205 12.1917 24.0205 12.1935C24.0205 12.1954 24.0205 12.1972 24.0205 12.199C24.0205 12.2008 24.0205 12.2026 24.0205 12.2044C24.0205 12.2062 24.0205 12.208 24.0205 12.2098C24.0205 12.2116 24.0205 12.2134 24.0205 12.2152C24.0205 12.217 24.0205 12.2188 24.0205 12.2206C24.0205 12.2224 24.0205 12.2242 24.0205 12.226C24.0205 12.2279 24.0205 12.2296 24.0205 12.2314C24.0205 12.2332 24.0205 12.235 24.0205 12.2368C24.0205 12.2386 24.0205 12.2404 24.0205 12.2422C24.0205 12.244 24.0205 12.2458 24.0205 12.2476C24.0205 12.2494 24.0205 12.2512 24.0205 12.253C24.0205 12.2548 24.0205 12.2566 24.0205 12.2584C24.0205 12.2601 24.0205 12.2619 24.0205 12.2637C24.0205 12.2655 24.0205 12.2673 24.0205 12.2691C24.0205 12.2709 24.0205 12.2727 24.0205 12.2744C24.0205 12.2762 24.0205 12.278 24.0205 12.2798C24.0205 12.2816 24.0205 12.2833 24.0205 12.2851C24.0205 12.2869 24.0205 12.2887 24.0205 12.2905C24.0205 12.2922 24.0205 12.294 24.0205 12.2958C24.0205 12.2976 24.0205 12.2993 24.0205 12.3011C24.0205 12.3029 24.0205 12.3047 24.0205 12.3064C24.0205 12.3082 24.0205 12.31 24.0205 12.3118C24.0205 12.3135 24.0205 12.3153 24.0205 12.3171C24.0205 12.3188 24.0205 12.3206 24.0205 12.3224C24.0205 12.3241 24.0205 12.3259 24.0205 12.3277C24.0205 12.3294 24.0205 12.3312 24.0205 12.333C24.0205 12.3347 24.0205 12.3365 24.0205 12.3383C24.0205 12.34 24.0205 12.3418 24.0205 12.3435C24.0205 12.3453 24.0205 12.3471 24.0205 12.3488C24.0205 12.3506 24.0205 12.3523 24.0205 12.3541C24.0205 12.3558 24.0205 12.3576 24.0205 12.3594C24.0205 12.3611 24.0205 12.3629 24.0205 12.3646C24.0205 12.3664 24.0205 12.3681 24.0205 12.3699C24.0205 12.3716 24.0205 12.3734 24.0205 12.3751C24.0205 12.3769 24.0205 12.3786 24.0205 12.3804C24.0205 12.3821 24.0205 12.3839 24.0205 12.3856C24.0205 12.3873 24.0205 12.3891 24.0205 12.3908C24.0205 12.3926 24.0205 12.3943 24.0205 12.3961C24.0205 12.3978 24.0205 12.3995 24.0205 12.4013C24.0205 12.403 24.0205 12.4048 24.0205 12.4065C24.0205 12.4082 24.0205 12.41 24.0205 12.4117C24.0205 12.4134 24.0205 12.4152 24.0205 12.4169C24.0205 12.4187 24.0205 12.4204 24.0205 12.4221C24.0205 12.4239 24.0205 12.4256 24.0205 12.4273C24.0205 12.429 24.0205 12.4308 24.0205 12.4325C24.0205 12.4342 24.0205 12.436 24.0205 12.4377C24.0205 12.4394 24.0205 12.4411 24.0205 12.4429C24.0205 12.4446 24.0205 12.4463 24.0205 12.448C24.0205 12.4498 24.0205 12.4515 24.0205 12.4532C24.0205 12.4549 24.0205 12.4566 24.0205 12.4584C24.0205 12.4601 24.0205 12.4618 24.0205 12.4635C24.0205 12.4652 24.0205 12.467 24.0205 12.4687C24.0205 12.4704 24.0205 12.4721 24.0205 12.4738C24.0205 12.4755 24.0205 12.4772 24.0205 12.479C24.0205 12.4807 24.0205 12.4824 24.0205 12.4841C24.0205 12.4858 24.0205 12.4875 24.0205 12.4892C24.0205 12.4909 24.0205 12.4926 24.0205 12.4943C24.0205 12.4961 24.0205 12.4978 24.0205 12.4995C24.0205 12.5012 24.0205 12.5029 24.0205 12.5046C24.0205 12.5063 24.0205 12.508 24.0205 12.5097C24.0205 12.5114 24.0205 12.5131 24.0205 12.5148C24.0205 12.5165 24.0205 12.5182 24.0205 12.5199C24.0205 12.5216 24.0205 12.5233 24.0205 12.525C24.0205 12.5267 24.0205 12.5284 24.0205 12.5301C24.0205 12.5317 24.0205 12.5334 24.0205 12.5351C24.0205 12.5368 24.0205 12.5385 24.0205 12.5402C24.0205 12.5419 24.0205 12.5436 24.0205 12.5453C24.0205 12.547 24.0205 12.5487 24.0205 12.5503C24.0205 12.552 24.0205 12.5537 24.0205 12.5554C24.0205 12.5571 24.0205 12.5588 24.0205 12.5604C24.0205 12.5621 24.0205 12.5638 24.0205 12.5655C24.0205 12.5672 24.0205 12.5689 24.0205 12.5705C24.0205 12.5722 24.0205 12.5739 24.0205 12.5756C24.0205 12.5772 24.0205 12.5789 24.0205 12.5806C24.0205 12.5823 24.0205 12.584 24.0205 12.5856C24.0205 12.5873 24.0205 12.589 24.0205 12.5906C24.0205 12.5923 24.0205 12.594 24.0205 12.5957C24.0205 12.5973 24.0205 12.599 24.0205 12.6007C24.0205 12.6023 24.0205 12.604 24.0205 12.6057C24.0205 12.6073 24.0205 12.609 24.0205 12.6107C24.0205 12.6123 24.0205 12.614 24.0205 12.6157C24.0205 12.6173 24.0205 12.619 24.0205 12.6206C24.0205 12.6223 24.0205 12.624 24.0205 12.6256C24.0205 12.6273 24.0205 12.6289 24.0205 12.6306C24.0205 12.6323 24.0205 12.6339 24.0205 12.6356C24.0205 12.6372 24.0205 12.6389 24.0205 12.6405C24.0205 12.6422 24.0205 12.6438 24.0205 12.6455C24.0205 12.6471 24.0205 12.6488 24.0205 12.6504C24.0205 12.6521 24.0205 12.6537 24.0205 12.6554C24.0205 12.657 24.0205 12.6587 24.0205 12.6603C24.0205 12.662 24.0205 12.6636 24.0205 12.6653C24.0205 12.6669 24.0205 12.6686 24.0205 12.6702C24.0205 12.6718 24.0205 12.6735 24.0205 12.6751C24.0205 12.6768 24.0205 12.6784 24.0205 12.68C24.0205 12.6817 24.0205 12.6833 24.0205 12.685C24.0205 12.6866 24.0205 12.6882 24.0205 12.6899C24.0205 12.6915 24.0205 12.6931 24.0205 12.6948C24.0205 12.6964 24.0205 12.698 24.0205 12.6997C24.0205 12.7013 24.0205 12.7029 24.0205 12.7046C24.0205 12.7062 24.0205 12.7078 24.0205 12.7095C24.0205 12.7111 24.0205 12.7127 24.0205 12.7143C24.0205 12.716 24.0205 12.7176 24.0205 12.7192C24.0205 12.7208 24.0205 12.7225 24.0205 12.7241C24.0205 12.7257 24.0205 12.7273 24.0205 12.7289C24.0205 12.7306 24.0205 12.7322 24.0205 12.7338C24.0205 12.7354 24.0205 12.737 24.0205 12.7387C24.0205 12.7403 24.0205 12.7419 24.0205 12.7435C24.0205 12.7451 24.0205 12.7467 24.0205 12.7483C24.0205 12.75 24.0205 12.7516 24.0205 12.7532C24.0205 12.7548 24.0205 12.7564 24.0205 12.758C24.0205 12.7596 24.0205 12.7612 24.0205 12.7628C24.0205 12.7645 24.0205 12.7661 24.0205 12.7677C24.0205 12.7693 24.0205 12.7709 24.0205 12.7725C24.0205 12.7741 24.0205 12.7757 24.0205 12.7773C24.0205 12.7789 24.0205 12.7805 24.0205 12.7821C24.0205 12.7837 24.0205 12.7853 24.0205 12.7869C24.0205 12.7885 24.0205 12.7901 24.0205 12.7917C24.0205 12.7933 24.0205 12.7949 24.0205 12.7965C24.0205 12.7981 24.0205 12.7997 24.0205 12.8013C24.0205 12.8029 24.0205 12.8044 24.0205 12.806C24.0205 12.8076 24.0205 12.8092 24.0205 12.8108C24.0205 12.8124 24.0205 12.814 24.0205 12.8156C24.0205 12.8172 24.0205 12.8188 24.0205 12.8203C24.0205 12.8219 24.0205 12.8235 24.0205 12.8251C24.0205 12.8267 24.0205 12.8283 24.0205 12.8298C24.0205 12.8314 24.0205 12.833 24.0205 12.8346C24.0205 12.8362 24.0205 12.8377 24.0205 12.8393C24.0205 12.8409 24.0205 12.8425 24.0205 12.8441C24.0205 12.8456 24.0205 12.8472 24.0205 12.8488C24.0205 12.8504 24.0205 12.8519 24.0205 12.8535C24.0205 12.8551 24.0205 12.8567 24.0205 12.8582C24.0205 12.8598 24.0205 12.8614 24.0205 12.8629C24.0205 12.8645 24.0205 12.8661 24.0205 12.8676C24.0205 12.8692 24.0205 12.8708 24.0205 12.8723C24.0205 12.8739 24.0205 12.8755 24.0205 12.877C24.0205 12.8786 24.0205 12.8802 24.0205 12.8817C24.0205 12.8833 24.0205 12.8848 24.0205 12.8864C24.0205 12.888 24.0205 12.8895 24.0205 12.8911C24.0205 12.8926 24.0205 12.8942 24.0205 12.8958C24.0205 12.8973 24.0205 12.8989 24.0205 12.9004C24.0205 12.902 24.0205 12.9035 24.0205 12.9051C24.0205 12.9066 24.0205 12.9082 24.0205 12.9097C24.0205 12.9113 24.0205 12.9128 24.0205 12.9144C24.0205 12.9159 24.0205 12.9175 24.0205 12.919C24.0205 12.9206 24.0205 12.9221 24.0205 12.9237C24.0205 12.9252 24.0205 12.9268 24.0205 12.9283C24.0205 12.9299 24.0205 12.9314 24.0205 12.9329C24.0205 12.9345 24.0205 12.936 24.0205 12.9376C24.0205 12.9391 24.0205 12.9406 24.0205 12.9422C24.0205 12.9437 24.0205 12.9453 24.0205 12.9468C24.0205 12.9483 24.0205 12.9499 24.0205 12.9514C24.0205 12.9529 24.0205 12.9545 24.0205 12.956C24.0205 12.9575 24.0205 12.9591 24.0205 12.9606C24.0205 12.9621 24.0205 12.9637 24.0205 12.9652C24.0205 12.9667 24.0205 12.9683 24.0205 12.9698C24.0205 12.9713 24.0205 12.9728 24.0205 12.9744C24.0205 12.9759 24.0205 12.9774 24.0205 12.9789C24.0205 12.9805 24.0205 12.982 24.0205 12.9835C24.0205 12.985 24.0205 12.9865 24.0205 12.9881C24.0205 12.9896 24.0205 12.9911 24.0205 12.9926C24.0205 12.9941 24.0205 12.9957 24.0205 12.9972C24.0205 12.9987 24.0205 13.0002 24.0205 13.0017C24.0205 13.0032 24.0205 13.0047 24.0205 13.0063C24.0205 13.0078 24.0205 13.0093 24.0205 13.0108C24.0205 13.0123 24.0205 13.0138 24.0205 13.0153C24.0205 13.0168 24.0205 13.0183 24.0205 13.0198C24.0205 13.0214 24.0205 13.0229 24.0205 13.0244C24.0205 13.0259 24.0205 13.0274 24.0205 13.0289C24.0205 13.0304 24.0205 13.0319 24.0205 13.0334C24.0205 13.0349 24.0205 13.0364 24.0205 13.0379C24.0205 13.0394 24.0205 13.0409 24.0205 13.0424C24.0205 13.0439 24.0205 13.0454 24.0205 13.0469C24.0205 13.0484 24.0205 13.0499 24.0205 13.0514C24.0205 13.0529 24.0205 13.0544 24.0205 13.0558C24.0205 13.0573 24.0205 13.0588 24.0205 13.0603C24.0205 13.0618 24.0205 13.0633 24.0205 13.0648C24.0205 13.0663 24.0205 13.0678 24.0205 13.0693C24.0205 13.0707 24.0205 13.0722 24.0205 13.0737C24.0205 13.0752 24.0205 13.0767 24.0205 13.0782C24.0205 13.0797 24.0205 13.0811 24.0205 13.0826C24.0205 13.0841 24.0205 13.0856 24.0205 13.0871C24.0205 13.0885 24.0205 13.09 24.0205 13.0915C24.0205 13.093 24.0205 13.0944 24.0205 13.0959C24.0205 13.0974 24.0205 13.0989 24.0205 13.1003C24.0205 13.1018 24.0205 13.1033 24.0205 13.1048C24.0205 13.1062 24.0205 13.1077 24.0205 13.1092C24.0205 13.1107 24.0205 13.1121 24.0205 13.1136C24.0205 13.1151 24.0205 13.1165 24.0205 13.118C24.0205 13.1195 24.0205 13.1209 24.0205 13.1224C24.0205 13.1239 24.0205 13.1253 24.0205 13.1268C24.0205 13.1283 24.0205 13.1297 24.0205 13.1312C24.0205 13.1326 24.0205 13.1341 24.0205 13.1356C24.0205 13.137 24.0205 13.1385 24.0205 13.1399C24.0205 13.1414 24.0205 13.1428 24.0205 13.1443C24.0205 13.1458 24.0205 13.1472 24.0205 13.1487C24.0205 13.1501 24.0205 13.1516 24.0205 13.153C24.0205 13.1545 24.0205 13.1559 24.0205 13.1574C24.0205 13.1588 24.0205 13.1603 24.0205 13.1617C24.0205 13.1632 24.0205 13.1646 24.0205 13.1661C24.0205 13.1675 24.0205 13.169 24.0205 13.1704C24.0205 13.1719 24.0205 13.1733 24.0205 13.1747C24.0205 13.1762 24.0205 13.1776 24.0205 13.1791C24.0205 13.1805 24.0205 13.182 24.0205 13.1834C24.0205 13.1848 24.0205 13.1863 24.0205 13.1877C24.0205 13.1891 24.0205 13.1906 24.0205 13.192C24.0205 13.1935 24.0205 13.1949 24.0205 13.1963C24.0205 13.1978 24.0205 13.1992 24.0205 13.2006C24.0205 13.2021 24.0205 13.2035 24.0205 13.2049C24.0205 13.2063 24.0205 13.2078 24.0205 13.2092C24.0205 13.2106 24.0205 13.2121 24.0205 13.2135C24.0205 13.2149 24.0205 13.2163 24.0205 13.2178C24.0205 13.2192 24.0205 13.2206 24.0205 13.222C24.0205 13.2235 24.0205 13.2249 24.0205 13.2263C24.0205 13.2277 24.0205 13.2291 24.0205 13.2306C24.0205 13.232 24.0205 13.2334 24.0205 13.2348C24.0205 13.2362 24.0205 13.2377 24.0205 13.2391C24.0205 13.2405 24.0205 13.2419 24.0205 13.2433C24.0205 13.2447 24.0205 13.2461 24.0205 13.2476C24.0205 13.249 24.0205 13.2504 24.0205 13.2518C24.0205 13.2532 24.0205 13.2546 24.0205 13.256C24.0205 13.2574 24.0205 13.2588 24.0205 13.2602C24.0205 13.2616 24.0205 13.263 24.0205 13.2645C24.0205 13.2659 24.0205 13.2673 24.0205 13.2687C24.0205 13.2701 24.0205 13.2715 24.0205 13.2729C24.0205 13.2743 24.0205 13.2757 24.0205 13.2771C24.0205 13.2785 24.0205 13.2799 24.0205 13.2813C24.0205 13.2827 24.0205 13.2841 24.0205 13.2855C24.0205 13.2868 24.0205 13.2882 24.0205 13.2896C24.0205 13.291 24.0205 13.2924 24.0205 13.2938C24.0205 13.2952 24.0205 13.2966 24.0205 13.298C24.0205 13.2994 24.0205 13.3008 24.0205 13.3022C24.0205 13.3035 24.0205 13.3049 24.0205 13.3063C24.0205 13.3077 24.0205 13.3091 24.0205 13.3105C24.0205 13.3119 24.0205 13.3132 24.0205 13.3146C24.0205 13.316 24.0205 13.3174 24.0205 13.3188C24.0205 13.3201 24.0205 13.3215 24.0205 13.3229C24.0205 13.3243 24.0205 13.3257 24.0205 13.327C24.0205 13.3284 24.0205 13.3298 24.0205 13.3312C24.0205 13.3325 24.0205 13.3339 24.0205 13.3353C24.0205 13.3367 24.0205 13.338 24.0205 13.3394C24.0205 13.3408 24.0205 13.3422 24.0205 13.3435C24.0205 13.3449 24.0205 13.3463 24.0205 13.3476C24.0205 13.349 24.0205 13.3504 24.0205 13.3517C24.0205 13.3531 24.0205 13.3545 24.0205 13.3558C24.0205 13.3572 24.0205 13.3586 24.0205 13.3599C24.0205 13.3613 24.0205 13.3626 24.0205 13.364C24.0205 13.3654 24.0205 13.3667 24.0205 13.3681C24.0205 13.3694 24.0205 13.3708 24.0205 13.3722C24.0205 13.3735 24.0205 13.3749 24.0205 13.3762C24.0205 13.3776 24.0205 13.3789 24.0205 13.3803C24.0205 13.3816 24.0205 13.383 24.0205 13.3843C24.0205 13.3857 24.0205 13.387 24.0205 13.3884C24.0205 13.3897 24.0205 13.3911 24.0205 13.3924C24.0205 13.3938 24.0205 13.3951 24.0205 13.3965C24.0205 13.3978 24.0205 13.3992 24.0205 13.4005C24.0205 13.4019 24.0205 13.4032 24.0205 13.4046C24.0205 13.4059 24.0205 13.4072 24.0205 13.4086C24.0205 13.4099 24.0205 13.4113 24.0205 13.4126C24.0205 13.4139 24.0205 13.4153 24.0205 13.4166C24.0205 13.4179 24.0205 13.4193 24.0205 13.4206C24.0205 13.422 24.0205 13.4233 24.0205 13.4246C24.0205 13.426 24.0205 13.4273 24.0205 13.4286C24.0205 13.4299 24.0205 13.4313 24.0205 13.4326C24.0205 13.4339 24.0205 13.4353 24.0205 13.4366C24.0205 13.4379 24.0205 13.4392 24.0205 13.4406C24.0205 13.4419 24.0205 13.4432 24.0205 13.4445C24.0205 13.4459 24.0205 13.4472 24.0205 13.4485C24.0205 13.4498 24.0205 13.4512 24.0205 13.4525C24.0205 13.4538 24.0205 13.4551 24.0205 13.4564C24.0205 13.4578 24.0205 13.4591 24.0205 13.4604C24.0205 13.4617 24.0205 13.463 24.0205 13.4643C24.0205 13.4657 24.0205 13.467 24.0205 13.4683C24.0205 13.4696 24.0205 13.4709 24.0205 13.4722C24.0205 13.4735 24.0205 13.4748 24.0205 13.4762C24.0205 13.4775 24.0205 13.4788 24.0205 13.4801C24.0205 13.4814 24.0205 13.4827 24.0205 13.484C24.0205 13.4853 24.0205 13.4866 24.0205 13.4879C24.0205 13.4892 24.0205 13.4905 24.0205 13.4918C24.0205 13.4931 24.0205 13.4944 24.0205 13.4957C24.0205 13.497 24.0205 13.4983 24.0205 13.4996C24.0205 13.5009 24.0205 13.5022 24.0205 13.5035C24.0205 13.5048 24.0205 13.5061 24.0205 13.5074C24.0205 13.5087 24.0205 13.51 24.0205 13.5113C24.0205 13.5126 24.0205 13.5139 24.0205 13.5152C24.0205 13.5165 24.0205 13.5177 24.0205 13.519C24.0205 13.5203 24.0205 13.5216 24.0205 13.5229C24.0205 13.5242 24.0205 13.5255 24.0205 13.5268C24.0205 13.528 24.0205 13.5293 24.0205 13.5306C24.0205 13.5319 24.0205 13.5332 24.0205 13.5345C24.0205 13.5357 24.0205 13.537 24.0205 13.5383C24.0205 13.5396 24.0205 13.5409 24.0205 13.5421C24.0205 13.5434 24.0205 13.5447 24.0205 13.546C24.0205 13.5472 24.0205 13.5485 24.0205 13.5498C24.0205 13.5511 24.0205 13.5523 24.0205 13.5536C24.0205 13.5549 24.0205 13.5562 24.0205 13.5574C24.0205 13.5587 24.0205 13.56 24.0205 13.5612C24.0205 13.5625 24.0205 13.5638 24.0205 13.5651C24.0205 13.5663 24.0205 13.5676 24.0205 13.5689C24.0205 13.5701 24.0205 13.5714 24.0205 13.5726C24.0205 13.5739 24.0205 13.5752 24.0205 13.5764C24.0205 13.5777 24.0205 13.579 24.0205 13.5802C24.0205 13.5815 24.0205 13.5827 24.0205 13.584C24.0205 13.5853 24.0205 13.5865 24.0205 13.5878C24.0205 13.589 24.0205 13.5903 24.0205 13.5915C24.0205 13.5928 24.0205 13.594 24.0205 13.5953C24.0205 13.5965 24.0205 13.5978 24.0205 13.599C24.0205 13.6003 24.0205 13.6015 24.0205 13.6028C24.0205 13.604 24.0205 13.6053 24.0205 13.6065C24.0205 13.6078 24.0205 13.609 24.0205 13.6103C24.0205 13.6115 24.0205 13.6128 24.0205 13.614C24.0205 13.6153 24.0205 13.6165 24.0205 13.6177C24.0205 13.619 24.0205 13.6202 24.0205 13.6215C24.0205 13.6227 24.0205 13.6239 24.0205 13.6252C24.0205 13.6264 24.0205 13.6277 24.0205 13.6289C24.0205 13.6301 24.0205 13.6314 24.0205 13.6326C24.0205 13.6338 24.0205 13.6351 24.0205 13.6363C24.0205 13.6375 24.0205 13.6388 24.0205 13.64C24.0205 13.6412 24.0205 13.6425 24.0205 13.6437C24.0205 13.6449 24.0205 13.6461 24.0205 13.6474C24.0205 13.6486 24.0205 13.6498 24.0205 13.651C24.0205 13.6523 24.0205 13.6535 24.0205 13.6547C24.0205 13.6559 24.0205 13.6572 24.0205 13.6584C24.0205 13.6596 24.0205 13.6608 24.0205 13.662C24.0205 13.6633 24.0205 13.6645 24.0205 13.6657C24.0205 13.6669 24.0205 13.6681 24.0205 13.6694C24.0205 13.6706 24.0205 13.6718 24.0205 13.673C24.0205 13.6742 24.0205 13.6754 24.0205 13.6766C24.0205 13.6779 24.0205 13.6791 24.0205 13.6803C24.0205 13.6815 24.0205 13.6827 24.0205 13.6839C24.0205 13.6851 24.0205 13.6863 24.0205 13.6875C24.0205 13.6887 24.0205 13.6899 24.0205 13.6911C24.0205 13.6923 24.0205 13.6936 24.0205 13.6948C24.0205 13.696 24.0205 13.6972 24.0205 13.6984C24.0205 13.6996 24.0205 13.7008 24.0205 13.702C24.0205 13.7032 24.0205 13.7044 24.0205 13.7056C24.0205 13.7068 24.0205 13.708 24.0205 13.7091C24.0205 13.7103 24.0205 13.7115 24.0205 13.7127C24.0205 13.7139 24.0205 13.7151 24.0205 13.7163C24.0205 13.7175 24.0205 13.7187 24.0205 13.7199C24.0205 13.7211 24.0205 13.7223 24.0205 13.7235C24.0205 13.7246 24.0205 13.7258 24.0205 13.727C24.0205 13.7282 24.0205 13.7294 24.0205 13.7306C24.0205 13.7318 24.0205 13.7329 24.0205 13.7341C24.0205 13.7353 24.0205 13.7365 24.0205 13.7377C24.0205 13.7389 24.0205 13.74 24.0205 13.7412C24.0205 13.7424 24.0205 13.7436 24.0205 13.7448C24.0205 13.7459 24.0205 13.7471 24.0205 13.7483C24.0205 13.7495 24.0205 13.7506 24.0205 13.7518C24.0205 13.753 24.0205 13.7542 24.0205 13.7553C24.0205 13.7565 24.0205 13.7577 24.0205 13.7588C24.0205 13.76 24.0205 13.7612 24.0205 13.7623C24.0205 13.7635 24.0205 13.7647 24.0205 13.7658C24.0205 13.767 24.0205 13.7682 24.0205 13.7693C24.0205 13.7705 24.0205 13.7717 24.0205 13.7728C24.0205 13.774 24.0205 13.7752 24.0205 13.7763C24.0205 13.7775 24.0205 13.7786 24.0205 13.7798C24.0205 13.781 24.0205 13.7821 24.0205 13.7833C24.0205 13.7844 24.0205 13.7856 24.0205 13.7867C24.0205 13.7879 24.0205 13.7891 24.0205 13.7902C24.0205 13.7914 24.0205 13.7925 24.0205 13.7937C24.0205 13.7948 24.0205 13.796 24.0205 13.7971C24.0205 13.7983 24.0205 13.7994 24.0205 13.8006C24.0205 13.8017 24.0205 13.8029 24.0205 13.804C24.0205 13.8052 24.0205 13.8063 24.0205 13.8075C24.0205 13.8086 24.0205 13.8097 24.0205 13.8109C24.0205 13.812 24.0205 13.8132 24.0205 13.8143C24.0205 13.8154 24.0205 13.8166 24.0205 13.8177C24.0205 13.8189 24.0205 13.82 24.0205 13.8211C24.0205 13.8223 24.0205 13.8234 24.0205 13.8246C24.0205 13.8257 24.0205 13.8268 24.0205 13.828C24.0205 13.8291 24.0205 13.8302 24.0205 13.8314C24.0205 13.8325 24.0205 13.8336 24.0205 13.8347C24.0205 13.8359 24.0205 13.837 24.0205 13.8381C24.0205 13.8393 24.0205 13.8404 24.0205 13.8415C24.0205 13.8426 24.0205 13.8438 24.0205 13.8449C24.0205 13.846 24.0205 13.8471 24.0205 13.8483C24.0205 13.8494 24.0205 13.8505 24.0205 13.8516C24.0205 13.8527 24.0205 13.8539 24.0205 13.855C24.0205 13.8561 24.0205 13.8572 24.0205 13.8583C24.0205 13.8595 24.0205 13.8606 24.0205 13.8617C24.0205 13.8628 24.0205 13.8639 24.0205 13.865C24.0205 13.8661 24.0205 13.8673 24.0205 13.8684C24.0205 13.8695 24.0205 13.8706 24.0205 13.8717C24.0205 13.8728 24.0205 13.8739 24.0205 13.875C24.0205 13.8761 24.0205 13.8772 24.0205 13.8784C24.0205 13.8795 24.0205 13.8806 24.0205 13.8817C24.0205 13.8828 24.0205 13.8839 24.0205 13.885C24.0205 13.8861 24.0205 13.8872 24.0205 13.8883C24.0205 13.8894 24.0205 13.8905 24.0205 13.8916C24.0205 13.8927 24.0205 13.8938 24.0205 13.8949C24.0205 13.896 24.0205 13.8971 24.0205 13.8982C24.0205 13.8993 24.0205 13.9004 24.0205 13.9014C24.0205 13.9025 24.0205 13.9036 24.0205 13.9047C24.0205 13.9058 24.0205 13.9069 24.0205 13.908C24.0205 13.9091 24.0205 13.9102 24.0205 13.9113C24.0205 13.9123 24.0205 13.9134 24.0205 13.9145C24.0205 13.9156 24.0205 13.9167 24.0205 13.9178C24.0205 13.9189 24.0205 13.9199 24.0205 13.921C24.0205 13.9221 24.0205 13.9232 24.0205 13.9243C24.0205 13.9254 24.0205 13.9264 24.0205 13.9275C24.0205 13.9286 24.0205 13.9297 24.0205 13.9307C24.0205 13.9318 24.0205 13.9329 24.0205 13.934C24.0205 13.935 24.0205 13.9361 24.0205 13.9372C24.0205 13.9383 24.0205 13.9393 24.0205 13.9404C24.0205 13.9415 24.0205 13.9426 24.0205 13.9436C24.0205 13.9447 24.0205 13.9458 24.0205 13.9468C24.0205 13.9479 24.0205 13.949 24.0205 13.95C24.0205 13.9511 24.0205 13.9522 24.0205 13.9532C24.0205 13.9543 24.0205 13.9554 24.0205 13.9564C24.0205 13.9575 24.0205 13.9585 24.0205 13.9596C24.0205 13.9607 24.0205 13.9617 24.0205 13.9628C24.0205 13.9638 24.0205 13.9649 24.0205 13.9659C24.0205 13.967 24.0205 13.9681 24.0205 13.9691C24.0205 13.9702 24.0205 13.9712 24.0205 13.9723C24.0205 13.9733 24.0205 13.9744 24.0205 13.9754C24.0205 13.9765 24.0205 13.9775 24.0205 13.9786C24.0205 13.9796 24.0205 13.9807 24.0205 13.9817C24.0205 13.9828 24.0205 13.9838 24.0205 13.9849C24.0205 13.9859 24.0205 13.987 24.0205 13.988C24.0205 13.989 24.0205 13.9901 24.0205 13.9911C24.0205 13.9922 24.0205 13.9932 24.0205 13.9943C24.0205 13.9953 24.0205 13.9963 24.0205 13.9974C24.0205 13.9984 24.0205 13.9995 24.0205 14.0005C24.0205 14.0015 24.0205 14.0026 24.0205 14.0036C24.0205 14.0046 24.0205 14.0057 24.0205 14.0067C24.0205 14.0077 24.0205 14.0088 24.0205 14.0098C24.0205 14.0108 24.0205 14.0119 24.0205 14.0129C24.0205 14.0139 24.0205 14.0149 24.0205 14.016C24.0205 14.017 24.0205 14.018 24.0205 14.019C24.0205 14.0201 24.0205 14.0211 24.0205 14.0221C24.0205 14.0231 24.0205 14.0242 24.0205 14.0252C24.0205 14.0262 24.0205 14.0272 24.0205 14.0283C24.0205 14.0293 24.0205 14.0303 24.0205 14.0313C24.0205 14.0323 24.0205 14.0333 24.0205 14.0344C24.0205 14.0354 24.0205 14.0364 24.0205 14.0374C24.0205 14.0384 24.0205 14.0394 24.0205 14.0404C24.0205 14.0415 24.0205 14.0425 24.0205 14.0435C24.0205 14.0445 24.0205 14.0455 24.0205 14.0465C24.0205 14.0475 24.0205 14.0485 24.0205 14.0495C24.0205 14.0505 24.0205 14.0516 24.0205 14.0526C24.0205 14.0536 24.0205 14.0546 24.0205 14.0556C24.0205 14.0566 24.0205 14.0576 24.0205 14.0586C24.0205 14.0596 24.0205 14.0606 24.0205 14.0616C24.0205 14.0626 24.0205 14.0636 24.0205 14.0646C24.0205 14.0656 24.0205 14.0666 24.0205 14.0676C24.0205 14.0686 24.0205 14.0696 24.0205 14.0706C24.0205 14.0716 24.0205 14.0725 24.0205 14.0735C24.0205 14.0745 24.0205 14.0755 24.0205 14.0765C24.0205 14.0775 24.0205 14.0785 24.0205 14.0795C24.0205 14.0805 24.0205 14.0815 24.0205 14.0824C24.0205 14.0834 24.0205 14.0844 24.0205 14.0854C24.0205 14.0864 24.0205 14.0874 24.0205 14.0884C24.0205 14.0893 24.0205 14.0903 24.0205 14.0913C24.0205 14.0923 24.0205 14.0933 24.0205 14.0942C24.0205 14.0952 24.0205 14.0962 24.0205 14.0972C24.0205 14.0982 24.0205 14.0991 24.0205 14.1001C24.0205 14.1011 24.0205 14.1021 24.0205 14.103C24.0205 14.104 24.0205 14.105 24.0205 14.106C24.0205 14.1069 24.0205 14.1079 24.0205 14.1089C24.0205 14.1098 24.0205 14.1108 24.0205 14.1118C24.0205 14.1128 24.0205 14.1137 24.0205 14.1147C24.0205 14.1157 24.0205 14.1166 24.0205 14.1176C24.0205 14.1186 24.0205 14.1195 24.0205 14.1205C24.0205 14.1214 24.0205 14.1224 24.0205 14.1234C24.0205 14.1243 24.0205 14.1253 24.0205 14.1262C24.0205 14.1272 24.0205 14.1282 24.0205 14.1291C24.0205 14.1301 24.0205 14.131 24.0205 14.132C24.0205 14.133 24.0205 14.1339 24.0205 14.1349C24.0205 14.1358 24.0205 14.1368 24.0205 14.1377C24.0205 14.1387 24.0205 14.1396 24.0205 14.1406C24.0205 14.1415 24.0205 14.1425 24.0205 14.1434C24.0205 14.1444 24.0205 14.1453 24.0205 14.1463C24.0205 14.1472 24.0205 14.1482 24.0205 14.1491C24.0205 14.15 24.0205 14.151 24.0205 14.1519C24.0205 14.1529 24.0205 14.1538 24.0205 14.1548C24.0205 14.1557 24.0205 14.1566 24.0205 14.1576C24.0205 14.1585 24.0205 14.1595 24.0205 14.1604H25.5205C25.5205 14.1595 25.5205 14.1585 25.5205 14.1576C25.5205 14.1566 25.5205 14.1557 25.5205 14.1548C25.5205 14.1538 25.5205 14.1529 25.5205 14.1519C25.5205 14.151 25.5205 14.15 25.5205 14.1491C25.5205 14.1482 25.5205 14.1472 25.5205 14.1463C25.5205 14.1453 25.5205 14.1444 25.5205 14.1434C25.5205 14.1425 25.5205 14.1415 25.5205 14.1406C25.5205 14.1396 25.5205 14.1387 25.5205 14.1377C25.5205 14.1368 25.5205 14.1358 25.5205 14.1349C25.5205 14.1339 25.5205 14.133 25.5205 14.132C25.5205 14.131 25.5205 14.1301 25.5205 14.1291C25.5205 14.1282 25.5205 14.1272 25.5205 14.1262C25.5205 14.1253 25.5205 14.1243 25.5205 14.1234C25.5205 14.1224 25.5205 14.1214 25.5205 14.1205C25.5205 14.1195 25.5205 14.1186 25.5205 14.1176C25.5205 14.1166 25.5205 14.1157 25.5205 14.1147C25.5205 14.1137 25.5205 14.1128 25.5205 14.1118C25.5205 14.1108 25.5205 14.1098 25.5205 14.1089C25.5205 14.1079 25.5205 14.1069 25.5205 14.106C25.5205 14.105 25.5205 14.104 25.5205 14.103C25.5205 14.1021 25.5205 14.1011 25.5205 14.1001C25.5205 14.0991 25.5205 14.0982 25.5205 14.0972C25.5205 14.0962 25.5205 14.0952 25.5205 14.0942C25.5205 14.0933 25.5205 14.0923 25.5205 14.0913C25.5205 14.0903 25.5205 14.0893 25.5205 14.0884C25.5205 14.0874 25.5205 14.0864 25.5205 14.0854C25.5205 14.0844 25.5205 14.0834 25.5205 14.0824C25.5205 14.0815 25.5205 14.0805 25.5205 14.0795C25.5205 14.0785 25.5205 14.0775 25.5205 14.0765C25.5205 14.0755 25.5205 14.0745 25.5205 14.0735C25.5205 14.0725 25.5205 14.0716 25.5205 14.0706C25.5205 14.0696 25.5205 14.0686 25.5205 14.0676C25.5205 14.0666 25.5205 14.0656 25.5205 14.0646C25.5205 14.0636 25.5205 14.0626 25.5205 14.0616C25.5205 14.0606 25.5205 14.0596 25.5205 14.0586C25.5205 14.0576 25.5205 14.0566 25.5205 14.0556C25.5205 14.0546 25.5205 14.0536 25.5205 14.0526C25.5205 14.0516 25.5205 14.0505 25.5205 14.0495C25.5205 14.0485 25.5205 14.0475 25.5205 14.0465C25.5205 14.0455 25.5205 14.0445 25.5205 14.0435C25.5205 14.0425 25.5205 14.0415 25.5205 14.0404C25.5205 14.0394 25.5205 14.0384 25.5205 14.0374C25.5205 14.0364 25.5205 14.0354 25.5205 14.0344C25.5205 14.0333 25.5205 14.0323 25.5205 14.0313C25.5205 14.0303 25.5205 14.0293 25.5205 14.0283C25.5205 14.0272 25.5205 14.0262 25.5205 14.0252C25.5205 14.0242 25.5205 14.0231 25.5205 14.0221C25.5205 14.0211 25.5205 14.0201 25.5205 14.019C25.5205 14.018 25.5205 14.017 25.5205 14.016C25.5205 14.0149 25.5205 14.0139 25.5205 14.0129C25.5205 14.0119 25.5205 14.0108 25.5205 14.0098C25.5205 14.0088 25.5205 14.0077 25.5205 14.0067C25.5205 14.0057 25.5205 14.0046 25.5205 14.0036C25.5205 14.0026 25.5205 14.0015 25.5205 14.0005C25.5205 13.9995 25.5205 13.9984 25.5205 13.9974C25.5205 13.9963 25.5205 13.9953 25.5205 13.9943C25.5205 13.9932 25.5205 13.9922 25.5205 13.9911C25.5205 13.9901 25.5205 13.989 25.5205 13.988C25.5205 13.987 25.5205 13.9859 25.5205 13.9849C25.5205 13.9838 25.5205 13.9828 25.5205 13.9817C25.5205 13.9807 25.5205 13.9796 25.5205 13.9786C25.5205 13.9775 25.5205 13.9765 25.5205 13.9754C25.5205 13.9744 25.5205 13.9733 25.5205 13.9723C25.5205 13.9712 25.5205 13.9702 25.5205 13.9691C25.5205 13.9681 25.5205 13.967 25.5205 13.9659C25.5205 13.9649 25.5205 13.9638 25.5205 13.9628C25.5205 13.9617 25.5205 13.9607 25.5205 13.9596C25.5205 13.9585 25.5205 13.9575 25.5205 13.9564C25.5205 13.9554 25.5205 13.9543 25.5205 13.9532C25.5205 13.9522 25.5205 13.9511 25.5205 13.95C25.5205 13.949 25.5205 13.9479 25.5205 13.9468C25.5205 13.9458 25.5205 13.9447 25.5205 13.9436C25.5205 13.9426 25.5205 13.9415 25.5205 13.9404C25.5205 13.9393 25.5205 13.9383 25.5205 13.9372C25.5205 13.9361 25.5205 13.935 25.5205 13.934C25.5205 13.9329 25.5205 13.9318 25.5205 13.9307C25.5205 13.9297 25.5205 13.9286 25.5205 13.9275C25.5205 13.9264 25.5205 13.9254 25.5205 13.9243C25.5205 13.9232 25.5205 13.9221 25.5205 13.921C25.5205 13.9199 25.5205 13.9189 25.5205 13.9178C25.5205 13.9167 25.5205 13.9156 25.5205 13.9145C25.5205 13.9134 25.5205 13.9123 25.5205 13.9113C25.5205 13.9102 25.5205 13.9091 25.5205 13.908C25.5205 13.9069 25.5205 13.9058 25.5205 13.9047C25.5205 13.9036 25.5205 13.9025 25.5205 13.9014C25.5205 13.9004 25.5205 13.8993 25.5205 13.8982C25.5205 13.8971 25.5205 13.896 25.5205 13.8949C25.5205 13.8938 25.5205 13.8927 25.5205 13.8916C25.5205 13.8905 25.5205 13.8894 25.5205 13.8883C25.5205 13.8872 25.5205 13.8861 25.5205 13.885C25.5205 13.8839 25.5205 13.8828 25.5205 13.8817C25.5205 13.8806 25.5205 13.8795 25.5205 13.8784C25.5205 13.8772 25.5205 13.8761 25.5205 13.875C25.5205 13.8739 25.5205 13.8728 25.5205 13.8717C25.5205 13.8706 25.5205 13.8695 25.5205 13.8684C25.5205 13.8673 25.5205 13.8661 25.5205 13.865C25.5205 13.8639 25.5205 13.8628 25.5205 13.8617C25.5205 13.8606 25.5205 13.8595 25.5205 13.8583C25.5205 13.8572 25.5205 13.8561 25.5205 13.855C25.5205 13.8539 25.5205 13.8527 25.5205 13.8516C25.5205 13.8505 25.5205 13.8494 25.5205 13.8483C25.5205 13.8471 25.5205 13.846 25.5205 13.8449C25.5205 13.8438 25.5205 13.8426 25.5205 13.8415C25.5205 13.8404 25.5205 13.8393 25.5205 13.8381C25.5205 13.837 25.5205 13.8359 25.5205 13.8347C25.5205 13.8336 25.5205 13.8325 25.5205 13.8314C25.5205 13.8302 25.5205 13.8291 25.5205 13.828C25.5205 13.8268 25.5205 13.8257 25.5205 13.8246C25.5205 13.8234 25.5205 13.8223 25.5205 13.8211C25.5205 13.82 25.5205 13.8189 25.5205 13.8177C25.5205 13.8166 25.5205 13.8154 25.5205 13.8143C25.5205 13.8132 25.5205 13.812 25.5205 13.8109C25.5205 13.8097 25.5205 13.8086 25.5205 13.8075C25.5205 13.8063 25.5205 13.8052 25.5205 13.804C25.5205 13.8029 25.5205 13.8017 25.5205 13.8006C25.5205 13.7994 25.5205 13.7983 25.5205 13.7971C25.5205 13.796 25.5205 13.7948 25.5205 13.7937C25.5205 13.7925 25.5205 13.7914 25.5205 13.7902C25.5205 13.7891 25.5205 13.7879 25.5205 13.7867C25.5205 13.7856 25.5205 13.7844 25.5205 13.7833C25.5205 13.7821 25.5205 13.781 25.5205 13.7798C25.5205 13.7786 25.5205 13.7775 25.5205 13.7763C25.5205 13.7752 25.5205 13.774 25.5205 13.7728C25.5205 13.7717 25.5205 13.7705 25.5205 13.7693C25.5205 13.7682 25.5205 13.767 25.5205 13.7658C25.5205 13.7647 25.5205 13.7635 25.5205 13.7623C25.5205 13.7612 25.5205 13.76 25.5205 13.7588C25.5205 13.7577 25.5205 13.7565 25.5205 13.7553C25.5205 13.7542 25.5205 13.753 25.5205 13.7518C25.5205 13.7506 25.5205 13.7495 25.5205 13.7483C25.5205 13.7471 25.5205 13.7459 25.5205 13.7448C25.5205 13.7436 25.5205 13.7424 25.5205 13.7412C25.5205 13.74 25.5205 13.7389 25.5205 13.7377C25.5205 13.7365 25.5205 13.7353 25.5205 13.7341C25.5205 13.7329 25.5205 13.7318 25.5205 13.7306C25.5205 13.7294 25.5205 13.7282 25.5205 13.727C25.5205 13.7258 25.5205 13.7246 25.5205 13.7235C25.5205 13.7223 25.5205 13.7211 25.5205 13.7199C25.5205 13.7187 25.5205 13.7175 25.5205 13.7163C25.5205 13.7151 25.5205 13.7139 25.5205 13.7127C25.5205 13.7115 25.5205 13.7103 25.5205 13.7091C25.5205 13.708 25.5205 13.7068 25.5205 13.7056C25.5205 13.7044 25.5205 13.7032 25.5205 13.702C25.5205 13.7008 25.5205 13.6996 25.5205 13.6984C25.5205 13.6972 25.5205 13.696 25.5205 13.6948C25.5205 13.6936 25.5205 13.6923 25.5205 13.6911C25.5205 13.6899 25.5205 13.6887 25.5205 13.6875C25.5205 13.6863 25.5205 13.6851 25.5205 13.6839C25.5205 13.6827 25.5205 13.6815 25.5205 13.6803C25.5205 13.6791 25.5205 13.6779 25.5205 13.6766C25.5205 13.6754 25.5205 13.6742 25.5205 13.673C25.5205 13.6718 25.5205 13.6706 25.5205 13.6694C25.5205 13.6681 25.5205 13.6669 25.5205 13.6657C25.5205 13.6645 25.5205 13.6633 25.5205 13.662C25.5205 13.6608 25.5205 13.6596 25.5205 13.6584C25.5205 13.6572 25.5205 13.6559 25.5205 13.6547C25.5205 13.6535 25.5205 13.6523 25.5205 13.651C25.5205 13.6498 25.5205 13.6486 25.5205 13.6474C25.5205 13.6461 25.5205 13.6449 25.5205 13.6437C25.5205 13.6425 25.5205 13.6412 25.5205 13.64C25.5205 13.6388 25.5205 13.6375 25.5205 13.6363C25.5205 13.6351 25.5205 13.6338 25.5205 13.6326C25.5205 13.6314 25.5205 13.6301 25.5205 13.6289C25.5205 13.6277 25.5205 13.6264 25.5205 13.6252C25.5205 13.6239 25.5205 13.6227 25.5205 13.6215C25.5205 13.6202 25.5205 13.619 25.5205 13.6177C25.5205 13.6165 25.5205 13.6153 25.5205 13.614C25.5205 13.6128 25.5205 13.6115 25.5205 13.6103C25.5205 13.609 25.5205 13.6078 25.5205 13.6065C25.5205 13.6053 25.5205 13.604 25.5205 13.6028C25.5205 13.6015 25.5205 13.6003 25.5205 13.599C25.5205 13.5978 25.5205 13.5965 25.5205 13.5953C25.5205 13.594 25.5205 13.5928 25.5205 13.5915C25.5205 13.5903 25.5205 13.589 25.5205 13.5878C25.5205 13.5865 25.5205 13.5853 25.5205 13.584C25.5205 13.5827 25.5205 13.5815 25.5205 13.5802C25.5205 13.579 25.5205 13.5777 25.5205 13.5764C25.5205 13.5752 25.5205 13.5739 25.5205 13.5726C25.5205 13.5714 25.5205 13.5701 25.5205 13.5689C25.5205 13.5676 25.5205 13.5663 25.5205 13.5651C25.5205 13.5638 25.5205 13.5625 25.5205 13.5612C25.5205 13.56 25.5205 13.5587 25.5205 13.5574C25.5205 13.5562 25.5205 13.5549 25.5205 13.5536C25.5205 13.5523 25.5205 13.5511 25.5205 13.5498C25.5205 13.5485 25.5205 13.5472 25.5205 13.546C25.5205 13.5447 25.5205 13.5434 25.5205 13.5421C25.5205 13.5409 25.5205 13.5396 25.5205 13.5383C25.5205 13.537 25.5205 13.5357 25.5205 13.5345C25.5205 13.5332 25.5205 13.5319 25.5205 13.5306C25.5205 13.5293 25.5205 13.528 25.5205 13.5268C25.5205 13.5255 25.5205 13.5242 25.5205 13.5229C25.5205 13.5216 25.5205 13.5203 25.5205 13.519C25.5205 13.5177 25.5205 13.5165 25.5205 13.5152C25.5205 13.5139 25.5205 13.5126 25.5205 13.5113C25.5205 13.51 25.5205 13.5087 25.5205 13.5074C25.5205 13.5061 25.5205 13.5048 25.5205 13.5035C25.5205 13.5022 25.5205 13.5009 25.5205 13.4996C25.5205 13.4983 25.5205 13.497 25.5205 13.4957C25.5205 13.4944 25.5205 13.4931 25.5205 13.4918C25.5205 13.4905 25.5205 13.4892 25.5205 13.4879C25.5205 13.4866 25.5205 13.4853 25.5205 13.484C25.5205 13.4827 25.5205 13.4814 25.5205 13.4801C25.5205 13.4788 25.5205 13.4775 25.5205 13.4762C25.5205 13.4748 25.5205 13.4735 25.5205 13.4722C25.5205 13.4709 25.5205 13.4696 25.5205 13.4683C25.5205 13.467 25.5205 13.4657 25.5205 13.4643C25.5205 13.463 25.5205 13.4617 25.5205 13.4604C25.5205 13.4591 25.5205 13.4578 25.5205 13.4564C25.5205 13.4551 25.5205 13.4538 25.5205 13.4525C25.5205 13.4512 25.5205 13.4498 25.5205 13.4485C25.5205 13.4472 25.5205 13.4459 25.5205 13.4445C25.5205 13.4432 25.5205 13.4419 25.5205 13.4406C25.5205 13.4392 25.5205 13.4379 25.5205 13.4366C25.5205 13.4353 25.5205 13.4339 25.5205 13.4326C25.5205 13.4313 25.5205 13.4299 25.5205 13.4286C25.5205 13.4273 25.5205 13.426 25.5205 13.4246C25.5205 13.4233 25.5205 13.422 25.5205 13.4206C25.5205 13.4193 25.5205 13.4179 25.5205 13.4166C25.5205 13.4153 25.5205 13.4139 25.5205 13.4126C25.5205 13.4113 25.5205 13.4099 25.5205 13.4086C25.5205 13.4072 25.5205 13.4059 25.5205 13.4046C25.5205 13.4032 25.5205 13.4019 25.5205 13.4005C25.5205 13.3992 25.5205 13.3978 25.5205 13.3965C25.5205 13.3951 25.5205 13.3938 25.5205 13.3924C25.5205 13.3911 25.5205 13.3897 25.5205 13.3884C25.5205 13.387 25.5205 13.3857 25.5205 13.3843C25.5205 13.383 25.5205 13.3816 25.5205 13.3803C25.5205 13.3789 25.5205 13.3776 25.5205 13.3762C25.5205 13.3749 25.5205 13.3735 25.5205 13.3722C25.5205 13.3708 25.5205 13.3694 25.5205 13.3681C25.5205 13.3667 25.5205 13.3654 25.5205 13.364C25.5205 13.3626 25.5205 13.3613 25.5205 13.3599C25.5205 13.3586 25.5205 13.3572 25.5205 13.3558C25.5205 13.3545 25.5205 13.3531 25.5205 13.3517C25.5205 13.3504 25.5205 13.349 25.5205 13.3476C25.5205 13.3463 25.5205 13.3449 25.5205 13.3435C25.5205 13.3422 25.5205 13.3408 25.5205 13.3394C25.5205 13.338 25.5205 13.3367 25.5205 13.3353C25.5205 13.3339 25.5205 13.3325 25.5205 13.3312C25.5205 13.3298 25.5205 13.3284 25.5205 13.327C25.5205 13.3257 25.5205 13.3243 25.5205 13.3229C25.5205 13.3215 25.5205 13.3201 25.5205 13.3188C25.5205 13.3174 25.5205 13.316 25.5205 13.3146C25.5205 13.3132 25.5205 13.3119 25.5205 13.3105C25.5205 13.3091 25.5205 13.3077 25.5205 13.3063C25.5205 13.3049 25.5205 13.3035 25.5205 13.3022C25.5205 13.3008 25.5205 13.2994 25.5205 13.298C25.5205 13.2966 25.5205 13.2952 25.5205 13.2938C25.5205 13.2924 25.5205 13.291 25.5205 13.2896C25.5205 13.2882 25.5205 13.2868 25.5205 13.2855C25.5205 13.2841 25.5205 13.2827 25.5205 13.2813C25.5205 13.2799 25.5205 13.2785 25.5205 13.2771C25.5205 13.2757 25.5205 13.2743 25.5205 13.2729C25.5205 13.2715 25.5205 13.2701 25.5205 13.2687C25.5205 13.2673 25.5205 13.2659 25.5205 13.2645C25.5205 13.263 25.5205 13.2616 25.5205 13.2602C25.5205 13.2588 25.5205 13.2574 25.5205 13.256C25.5205 13.2546 25.5205 13.2532 25.5205 13.2518C25.5205 13.2504 25.5205 13.249 25.5205 13.2476C25.5205 13.2461 25.5205 13.2447 25.5205 13.2433C25.5205 13.2419 25.5205 13.2405 25.5205 13.2391C25.5205 13.2377 25.5205 13.2362 25.5205 13.2348C25.5205 13.2334 25.5205 13.232 25.5205 13.2306C25.5205 13.2291 25.5205 13.2277 25.5205 13.2263C25.5205 13.2249 25.5205 13.2235 25.5205 13.222C25.5205 13.2206 25.5205 13.2192 25.5205 13.2178C25.5205 13.2163 25.5205 13.2149 25.5205 13.2135C25.5205 13.2121 25.5205 13.2106 25.5205 13.2092C25.5205 13.2078 25.5205 13.2063 25.5205 13.2049C25.5205 13.2035 25.5205 13.2021 25.5205 13.2006C25.5205 13.1992 25.5205 13.1978 25.5205 13.1963C25.5205 13.1949 25.5205 13.1935 25.5205 13.192C25.5205 13.1906 25.5205 13.1891 25.5205 13.1877C25.5205 13.1863 25.5205 13.1848 25.5205 13.1834C25.5205 13.182 25.5205 13.1805 25.5205 13.1791C25.5205 13.1776 25.5205 13.1762 25.5205 13.1747C25.5205 13.1733 25.5205 13.1719 25.5205 13.1704C25.5205 13.169 25.5205 13.1675 25.5205 13.1661C25.5205 13.1646 25.5205 13.1632 25.5205 13.1617C25.5205 13.1603 25.5205 13.1588 25.5205 13.1574C25.5205 13.1559 25.5205 13.1545 25.5205 13.153C25.5205 13.1516 25.5205 13.1501 25.5205 13.1487C25.5205 13.1472 25.5205 13.1458 25.5205 13.1443C25.5205 13.1428 25.5205 13.1414 25.5205 13.1399C25.5205 13.1385 25.5205 13.137 25.5205 13.1356C25.5205 13.1341 25.5205 13.1326 25.5205 13.1312C25.5205 13.1297 25.5205 13.1283 25.5205 13.1268C25.5205 13.1253 25.5205 13.1239 25.5205 13.1224C25.5205 13.1209 25.5205 13.1195 25.5205 13.118C25.5205 13.1165 25.5205 13.1151 25.5205 13.1136C25.5205 13.1121 25.5205 13.1107 25.5205 13.1092C25.5205 13.1077 25.5205 13.1062 25.5205 13.1048C25.5205 13.1033 25.5205 13.1018 25.5205 13.1003C25.5205 13.0989 25.5205 13.0974 25.5205 13.0959C25.5205 13.0944 25.5205 13.093 25.5205 13.0915C25.5205 13.09 25.5205 13.0885 25.5205 13.0871C25.5205 13.0856 25.5205 13.0841 25.5205 13.0826C25.5205 13.0811 25.5205 13.0797 25.5205 13.0782C25.5205 13.0767 25.5205 13.0752 25.5205 13.0737C25.5205 13.0722 25.5205 13.0707 25.5205 13.0693C25.5205 13.0678 25.5205 13.0663 25.5205 13.0648C25.5205 13.0633 25.5205 13.0618 25.5205 13.0603C25.5205 13.0588 25.5205 13.0573 25.5205 13.0558C25.5205 13.0544 25.5205 13.0529 25.5205 13.0514C25.5205 13.0499 25.5205 13.0484 25.5205 13.0469C25.5205 13.0454 25.5205 13.0439 25.5205 13.0424C25.5205 13.0409 25.5205 13.0394 25.5205 13.0379C25.5205 13.0364 25.5205 13.0349 25.5205 13.0334C25.5205 13.0319 25.5205 13.0304 25.5205 13.0289C25.5205 13.0274 25.5205 13.0259 25.5205 13.0244C25.5205 13.0229 25.5205 13.0214 25.5205 13.0198C25.5205 13.0183 25.5205 13.0168 25.5205 13.0153C25.5205 13.0138 25.5205 13.0123 25.5205 13.0108C25.5205 13.0093 25.5205 13.0078 25.5205 13.0063C25.5205 13.0047 25.5205 13.0032 25.5205 13.0017C25.5205 13.0002 25.5205 12.9987 25.5205 12.9972C25.5205 12.9957 25.5205 12.9941 25.5205 12.9926C25.5205 12.9911 25.5205 12.9896 25.5205 12.9881C25.5205 12.9865 25.5205 12.985 25.5205 12.9835C25.5205 12.982 25.5205 12.9805 25.5205 12.9789C25.5205 12.9774 25.5205 12.9759 25.5205 12.9744C25.5205 12.9728 25.5205 12.9713 25.5205 12.9698C25.5205 12.9683 25.5205 12.9667 25.5205 12.9652C25.5205 12.9637 25.5205 12.9621 25.5205 12.9606C25.5205 12.9591 25.5205 12.9575 25.5205 12.956C25.5205 12.9545 25.5205 12.9529 25.5205 12.9514C25.5205 12.9499 25.5205 12.9483 25.5205 12.9468C25.5205 12.9453 25.5205 12.9437 25.5205 12.9422C25.5205 12.9406 25.5205 12.9391 25.5205 12.9376C25.5205 12.936 25.5205 12.9345 25.5205 12.9329C25.5205 12.9314 25.5205 12.9299 25.5205 12.9283C25.5205 12.9268 25.5205 12.9252 25.5205 12.9237C25.5205 12.9221 25.5205 12.9206 25.5205 12.919C25.5205 12.9175 25.5205 12.9159 25.5205 12.9144C25.5205 12.9128 25.5205 12.9113 25.5205 12.9097C25.5205 12.9082 25.5205 12.9066 25.5205 12.9051C25.5205 12.9035 25.5205 12.902 25.5205 12.9004C25.5205 12.8989 25.5205 12.8973 25.5205 12.8958C25.5205 12.8942 25.5205 12.8926 25.5205 12.8911C25.5205 12.8895 25.5205 12.888 25.5205 12.8864C25.5205 12.8848 25.5205 12.8833 25.5205 12.8817C25.5205 12.8802 25.5205 12.8786 25.5205 12.877C25.5205 12.8755 25.5205 12.8739 25.5205 12.8723C25.5205 12.8708 25.5205 12.8692 25.5205 12.8676C25.5205 12.8661 25.5205 12.8645 25.5205 12.8629C25.5205 12.8614 25.5205 12.8598 25.5205 12.8582C25.5205 12.8567 25.5205 12.8551 25.5205 12.8535C25.5205 12.8519 25.5205 12.8504 25.5205 12.8488C25.5205 12.8472 25.5205 12.8456 25.5205 12.8441C25.5205 12.8425 25.5205 12.8409 25.5205 12.8393C25.5205 12.8377 25.5205 12.8362 25.5205 12.8346C25.5205 12.833 25.5205 12.8314 25.5205 12.8298C25.5205 12.8283 25.5205 12.8267 25.5205 12.8251C25.5205 12.8235 25.5205 12.8219 25.5205 12.8203C25.5205 12.8188 25.5205 12.8172 25.5205 12.8156C25.5205 12.814 25.5205 12.8124 25.5205 12.8108C25.5205 12.8092 25.5205 12.8076 25.5205 12.806C25.5205 12.8044 25.5205 12.8029 25.5205 12.8013C25.5205 12.7997 25.5205 12.7981 25.5205 12.7965C25.5205 12.7949 25.5205 12.7933 25.5205 12.7917C25.5205 12.7901 25.5205 12.7885 25.5205 12.7869C25.5205 12.7853 25.5205 12.7837 25.5205 12.7821C25.5205 12.7805 25.5205 12.7789 25.5205 12.7773C25.5205 12.7757 25.5205 12.7741 25.5205 12.7725C25.5205 12.7709 25.5205 12.7693 25.5205 12.7677C25.5205 12.7661 25.5205 12.7645 25.5205 12.7628C25.5205 12.7612 25.5205 12.7596 25.5205 12.758C25.5205 12.7564 25.5205 12.7548 25.5205 12.7532C25.5205 12.7516 25.5205 12.75 25.5205 12.7483C25.5205 12.7467 25.5205 12.7451 25.5205 12.7435C25.5205 12.7419 25.5205 12.7403 25.5205 12.7387C25.5205 12.737 25.5205 12.7354 25.5205 12.7338C25.5205 12.7322 25.5205 12.7306 25.5205 12.7289C25.5205 12.7273 25.5205 12.7257 25.5205 12.7241C25.5205 12.7225 25.5205 12.7208 25.5205 12.7192C25.5205 12.7176 25.5205 12.716 25.5205 12.7143C25.5205 12.7127 25.5205 12.7111 25.5205 12.7095C25.5205 12.7078 25.5205 12.7062 25.5205 12.7046C25.5205 12.7029 25.5205 12.7013 25.5205 12.6997C25.5205 12.698 25.5205 12.6964 25.5205 12.6948C25.5205 12.6931 25.5205 12.6915 25.5205 12.6899C25.5205 12.6882 25.5205 12.6866 25.5205 12.685C25.5205 12.6833 25.5205 12.6817 25.5205 12.68C25.5205 12.6784 25.5205 12.6768 25.5205 12.6751C25.5205 12.6735 25.5205 12.6718 25.5205 12.6702C25.5205 12.6686 25.5205 12.6669 25.5205 12.6653C25.5205 12.6636 25.5205 12.662 25.5205 12.6603C25.5205 12.6587 25.5205 12.657 25.5205 12.6554C25.5205 12.6537 25.5205 12.6521 25.5205 12.6504C25.5205 12.6488 25.5205 12.6471 25.5205 12.6455C25.5205 12.6438 25.5205 12.6422 25.5205 12.6405C25.5205 12.6389 25.5205 12.6372 25.5205 12.6356C25.5205 12.6339 25.5205 12.6323 25.5205 12.6306C25.5205 12.6289 25.5205 12.6273 25.5205 12.6256C25.5205 12.624 25.5205 12.6223 25.5205 12.6206C25.5205 12.619 25.5205 12.6173 25.5205 12.6157C25.5205 12.614 25.5205 12.6123 25.5205 12.6107C25.5205 12.609 25.5205 12.6073 25.5205 12.6057C25.5205 12.604 25.5205 12.6023 25.5205 12.6007C25.5205 12.599 25.5205 12.5973 25.5205 12.5957C25.5205 12.594 25.5205 12.5923 25.5205 12.5906C25.5205 12.589 25.5205 12.5873 25.5205 12.5856C25.5205 12.584 25.5205 12.5823 25.5205 12.5806C25.5205 12.5789 25.5205 12.5772 25.5205 12.5756C25.5205 12.5739 25.5205 12.5722 25.5205 12.5705C25.5205 12.5689 25.5205 12.5672 25.5205 12.5655C25.5205 12.5638 25.5205 12.5621 25.5205 12.5604C25.5205 12.5588 25.5205 12.5571 25.5205 12.5554C25.5205 12.5537 25.5205 12.552 25.5205 12.5503C25.5205 12.5487 25.5205 12.547 25.5205 12.5453C25.5205 12.5436 25.5205 12.5419 25.5205 12.5402C25.5205 12.5385 25.5205 12.5368 25.5205 12.5351C25.5205 12.5334 25.5205 12.5317 25.5205 12.5301C25.5205 12.5284 25.5205 12.5267 25.5205 12.525C25.5205 12.5233 25.5205 12.5216 25.5205 12.5199C25.5205 12.5182 25.5205 12.5165 25.5205 12.5148C25.5205 12.5131 25.5205 12.5114 25.5205 12.5097C25.5205 12.508 25.5205 12.5063 25.5205 12.5046C25.5205 12.5029 25.5205 12.5012 25.5205 12.4995C25.5205 12.4978 25.5205 12.4961 25.5205 12.4943C25.5205 12.4926 25.5205 12.4909 25.5205 12.4892C25.5205 12.4875 25.5205 12.4858 25.5205 12.4841C25.5205 12.4824 25.5205 12.4807 25.5205 12.479C25.5205 12.4772 25.5205 12.4755 25.5205 12.4738C25.5205 12.4721 25.5205 12.4704 25.5205 12.4687C25.5205 12.467 25.5205 12.4652 25.5205 12.4635C25.5205 12.4618 25.5205 12.4601 25.5205 12.4584C25.5205 12.4566 25.5205 12.4549 25.5205 12.4532C25.5205 12.4515 25.5205 12.4498 25.5205 12.448C25.5205 12.4463 25.5205 12.4446 25.5205 12.4429C25.5205 12.4411 25.5205 12.4394 25.5205 12.4377C25.5205 12.436 25.5205 12.4342 25.5205 12.4325C25.5205 12.4308 25.5205 12.429 25.5205 12.4273C25.5205 12.4256 25.5205 12.4239 25.5205 12.4221C25.5205 12.4204 25.5205 12.4187 25.5205 12.4169C25.5205 12.4152 25.5205 12.4134 25.5205 12.4117C25.5205 12.41 25.5205 12.4082 25.5205 12.4065C25.5205 12.4048 25.5205 12.403 25.5205 12.4013C25.5205 12.3995 25.5205 12.3978 25.5205 12.3961C25.5205 12.3943 25.5205 12.3926 25.5205 12.3908C25.5205 12.3891 25.5205 12.3873 25.5205 12.3856C25.5205 12.3839 25.5205 12.3821 25.5205 12.3804C25.5205 12.3786 25.5205 12.3769 25.5205 12.3751C25.5205 12.3734 25.5205 12.3716 25.5205 12.3699C25.5205 12.3681 25.5205 12.3664 25.5205 12.3646C25.5205 12.3629 25.5205 12.3611 25.5205 12.3594C25.5205 12.3576 25.5205 12.3558 25.5205 12.3541C25.5205 12.3523 25.5205 12.3506 25.5205 12.3488C25.5205 12.3471 25.5205 12.3453 25.5205 12.3435C25.5205 12.3418 25.5205 12.34 25.5205 12.3383C25.5205 12.3365 25.5205 12.3347 25.5205 12.333C25.5205 12.3312 25.5205 12.3294 25.5205 12.3277C25.5205 12.3259 25.5205 12.3241 25.5205 12.3224C25.5205 12.3206 25.5205 12.3188 25.5205 12.3171C25.5205 12.3153 25.5205 12.3135 25.5205 12.3118C25.5205 12.31 25.5205 12.3082 25.5205 12.3064C25.5205 12.3047 25.5205 12.3029 25.5205 12.3011C25.5205 12.2993 25.5205 12.2976 25.5205 12.2958C25.5205 12.294 25.5205 12.2922 25.5205 12.2905C25.5205 12.2887 25.5205 12.2869 25.5205 12.2851C25.5205 12.2833 25.5205 12.2816 25.5205 12.2798C25.5205 12.278 25.5205 12.2762 25.5205 12.2744C25.5205 12.2727 25.5205 12.2709 25.5205 12.2691C25.5205 12.2673 25.5205 12.2655 25.5205 12.2637C25.5205 12.2619 25.5205 12.2601 25.5205 12.2584C25.5205 12.2566 25.5205 12.2548 25.5205 12.253C25.5205 12.2512 25.5205 12.2494 25.5205 12.2476C25.5205 12.2458 25.5205 12.244 25.5205 12.2422C25.5205 12.2404 25.5205 12.2386 25.5205 12.2368C25.5205 12.235 25.5205 12.2332 25.5205 12.2314C25.5205 12.2296 25.5205 12.2279 25.5205 12.226C25.5205 12.2242 25.5205 12.2224 25.5205 12.2206C25.5205 12.2188 25.5205 12.217 25.5205 12.2152C25.5205 12.2134 25.5205 12.2116 25.5205 12.2098C25.5205 12.208 25.5205 12.2062 25.5205 12.2044C25.5205 12.2026 25.5205 12.2008 25.5205 12.199C25.5205 12.1972 25.5205 12.1954 25.5205 12.1935C25.5205 12.1917 25.5205 12.1899 25.5205 12.1881C25.5205 12.1863 25.5205 12.1845 25.5205 12.1827C25.5205 12.1809 25.5205 12.179 25.5205 12.1772C25.5205 12.1754 25.5205 12.1736 25.5205 12.1718C25.5205 12.1699 25.5205 12.1681 25.5205 12.1663C25.5205 12.1645 25.5205 12.1627 25.5205 12.1608C25.5205 12.159 25.5205 12.1572 25.5205 12.1554C25.5205 12.1536 25.5205 12.1517 25.5205 12.1499C25.5205 12.1481 25.5205 12.1462 25.5205 12.1444C25.5205 12.1426 25.5205 12.1408 25.5205 12.1389C25.5205 12.1371 25.5205 12.1353 25.5205 12.1334C25.5205 12.1316 25.5205 12.1298 25.5205 12.1279C25.5205 12.1261 25.5205 12.1243 25.5205 12.1224C25.5205 12.1206 25.5205 12.1188 25.5205 12.1169C25.5205 12.1151 25.5205 12.1133 25.5205 12.1114C25.5205 12.1096 25.5205 12.1077 25.5205 12.1059C25.5205 12.1041 25.5205 12.1022 25.5205 12.1004C25.5205 12.0985 25.5205 12.0967 25.5205 12.0948C25.5205 12.093 25.5205 12.0912 25.5205 12.0893C25.5205 12.0875 25.5205 12.0856 25.5205 12.0838C25.5205 12.0819 25.5205 12.0801 25.5205 12.0782C25.5205 12.0764 25.5205 12.0745 25.5205 12.0727C25.5205 12.0708 25.5205 12.069 25.5205 12.0671C25.5205 12.0653 25.5205 12.0634 25.5205 12.0616C25.5205 12.0597 25.5205 12.0578 25.5205 12.056C25.5205 12.0541 25.5205 12.0523 25.5205 12.0504C25.5205 12.0486 25.5205 12.0467 25.5205 12.0448C25.5205 12.043 25.5205 12.0411 25.5205 12.0392C25.5205 12.0374 25.5205 12.0355 25.5205 12.0337C25.5205 12.0318 25.5205 12.0299 25.5205 12.0281C25.5205 12.0262 25.5205 12.0243 25.5205 12.0225C25.5205 12.0206 25.5205 12.0187 25.5205 12.0169C25.5205 12.015 25.5205 12.0131 25.5205 12.0112C25.5205 12.0094 25.5205 12.0075 25.5205 12.0056C25.5205 12.0037 25.5205 12.0019 25.5205 12H24.0205ZM17.6128 25.25C17.6098 25.25 17.6069 25.25 17.6039 25.25C17.6009 25.25 17.5979 25.25 17.595 25.25C17.592 25.25 17.589 25.25 17.586 25.25C17.583 25.25 17.58 25.25 17.577 25.25C17.574 25.25 17.571 25.25 17.568 25.25C17.565 25.25 17.562 25.25 17.559 25.25C17.556 25.25 17.553 25.25 17.55 25.25C17.547 25.25 17.544 25.25 17.541 25.25C17.538 25.25 17.5349 25.25 17.5319 25.25C17.5289 25.25 17.5259 25.25 17.5228 25.25C17.5198 25.25 17.5168 25.25 17.5138 25.25C17.5107 25.25 17.5077 25.25 17.5046 25.25C17.5016 25.25 17.4986 25.25 17.4955 25.25C17.4925 25.25 17.4894 25.25 17.4864 25.25C17.4833 25.25 17.4803 25.25 17.4772 25.25C17.4742 25.25 17.4711 25.25 17.468 25.25C17.465 25.25 17.4619 25.25 17.4588 25.25C17.4558 25.25 17.4527 25.25 17.4496 25.25C17.4465 25.25 17.4435 25.25 17.4404 25.25C17.4373 25.25 17.4342 25.25 17.4311 25.25C17.4281 25.25 17.425 25.25 17.4219 25.25C17.4188 25.25 17.4157 25.25 17.4126 25.25C17.4095 25.25 17.4064 25.25 17.4033 25.25C17.4002 25.25 17.3971 25.25 17.394 25.25C17.3909 25.25 17.3878 25.25 17.3846 25.25C17.3815 25.25 17.3784 25.25 17.3753 25.25C17.3722 25.25 17.369 25.25 17.3659 25.25C17.3628 25.25 17.3597 25.25 17.3565 25.25C17.3534 25.25 17.3503 25.25 17.3471 25.25C17.344 25.25 17.3408 25.25 17.3377 25.25C17.3346 25.25 17.3314 25.25 17.3283 25.25C17.3251 25.25 17.322 25.25 17.3188 25.25C17.3156 25.25 17.3125 25.25 17.3093 25.25C17.3062 25.25 17.303 25.25 17.2998 25.25C17.2967 25.25 17.2935 25.25 17.2903 25.25C17.2872 25.25 17.284 25.25 17.2808 25.25C17.2776 25.25 17.2744 25.25 17.2713 25.25C17.2681 25.25 17.2649 25.25 17.2617 25.25C17.2585 25.25 17.2553 25.25 17.2521 25.25C17.2489 25.25 17.2457 25.25 17.2425 25.25C17.2393 25.25 17.2361 25.25 17.2329 25.25C17.2297 25.25 17.2265 25.25 17.2233 25.25C17.2201 25.25 17.2168 25.25 17.2136 25.25C17.2104 25.25 17.2072 25.25 17.204 25.25C17.2007 25.25 17.1975 25.25 17.1943 25.25C17.191 25.25 17.1878 25.25 17.1846 25.25C17.1813 25.25 17.1781 25.25 17.1749 25.25C17.1716 25.25 17.1684 25.25 17.1651 25.25C17.1619 25.25 17.1586 25.25 17.1554 25.25C17.1521 25.25 17.1489 25.25 17.1456 25.25C17.1423 25.25 17.1391 25.25 17.1358 25.25C17.1325 25.25 17.1293 25.25 17.126 25.25C17.1227 25.25 17.1195 25.25 17.1162 25.25C17.1129 25.25 17.1096 25.25 17.1063 25.25C17.1031 25.25 17.0998 25.25 17.0965 25.25C17.0932 25.25 17.0899 25.25 17.0866 25.25C17.0833 25.25 17.08 25.25 17.0767 25.25C17.0734 25.25 17.0701 25.25 17.0668 25.25C17.0635 25.25 17.0602 25.25 17.0569 25.25C17.0536 25.25 17.0503 25.25 17.0469 25.25C17.0436 25.25 17.0403 25.25 17.037 25.25C17.0336 25.25 17.0303 25.25 17.027 25.25C17.0237 25.25 17.0203 25.25 17.017 25.25C17.0137 25.25 17.0103 25.25 17.007 25.25C17.0036 25.25 17.0003 25.25 16.9969 25.25C16.9936 25.25 16.9903 25.25 16.9869 25.25C16.9835 25.25 16.9802 25.25 16.9768 25.25C16.9735 25.25 16.9701 25.25 16.9667 25.25C16.9634 25.25 16.96 25.25 16.9566 25.25C16.9533 25.25 16.9499 25.25 16.9465 25.25C16.9432 25.25 16.9398 25.25 16.9364 25.25C16.933 25.25 16.9296 25.25 16.9262 25.25C16.9229 25.25 16.9195 25.25 16.9161 25.25C16.9127 25.25 16.9093 25.25 16.9059 25.25C16.9025 25.25 16.8991 25.25 16.8957 25.25C16.8923 25.25 16.8889 25.25 16.8855 25.25C16.882 25.25 16.8786 25.25 16.8752 25.25C16.8718 25.25 16.8684 25.25 16.865 25.25C16.8615 25.25 16.8581 25.25 16.8547 25.25C16.8513 25.25 16.8478 25.25 16.8444 25.25C16.841 25.25 16.8375 25.25 16.8341 25.25C16.8306 25.25 16.8272 25.25 16.8237 25.25C16.8203 25.25 16.8169 25.25 16.8134 25.25C16.81 25.25 16.8065 25.25 16.803 25.25C16.7996 25.25 16.7961 25.25 16.7927 25.25C16.7892 25.25 16.7857 25.25 16.7823 25.25C16.7788 25.25 16.7753 25.25 16.7719 25.25C16.7684 25.25 16.7649 25.25 16.7614 25.25C16.7579 25.25 16.7545 25.25 16.751 25.25C16.7475 25.25 16.744 25.25 16.7405 25.25C16.737 25.25 16.7335 25.25 16.73 25.25C16.7265 25.25 16.723 25.25 16.7195 25.25C16.716 25.25 16.7125 25.25 16.709 25.25C16.7055 25.25 16.702 25.25 16.6985 25.25C16.6949 25.25 16.6914 25.25 16.6879 25.25C16.6844 25.25 16.6809 25.25 16.6773 25.25C16.6738 25.25 16.6703 25.25 16.6667 25.25C16.6632 25.25 16.6597 25.25 16.6561 25.25C16.6526 25.25 16.6491 25.25 16.6455 25.25C16.642 25.25 16.6384 25.25 16.6349 25.25C16.6313 25.25 16.6278 25.25 16.6242 25.25C16.6207 25.25 16.6171 25.25 16.6135 25.25C16.61 25.25 16.6064 25.25 16.6029 25.25C16.5993 25.25 16.5957 25.25 16.5921 25.25C16.5886 25.25 16.585 25.25 16.5814 25.25C16.5778 25.25 16.5743 25.25 16.5707 25.25C16.5671 25.25 16.5635 25.25 16.5599 25.25C16.5563 25.25 16.5527 25.25 16.5491 25.25C16.5455 25.25 16.5419 25.25 16.5383 25.25C16.5347 25.25 16.5311 25.25 16.5275 25.25C16.5239 25.25 16.5203 25.25 16.5167 25.25C16.5131 25.25 16.5095 25.25 16.5058 25.25C16.5022 25.25 16.4986 25.25 16.495 25.25C16.4913 25.25 16.4877 25.25 16.4841 25.25C16.4805 25.25 16.4768 25.25 16.4732 25.25C16.4695 25.25 16.4659 25.25 16.4623 25.25C16.4586 25.25 16.455 25.25 16.4513 25.25C16.4477 25.25 16.444 25.25 16.4404 25.25C16.4367 25.25 16.4331 25.25 16.4294 25.25C16.4257 25.25 16.4221 25.25 16.4184 25.25C16.4147 25.25 16.4111 25.25 16.4074 25.25C16.4037 25.25 16.4001 25.25 16.3964 25.25C16.3927 25.25 16.389 25.25 16.3853 25.25C16.3817 25.25 16.378 25.25 16.3743 25.25C16.3706 25.25 16.3669 25.25 16.3632 25.25C16.3595 25.25 16.3558 25.25 16.3521 25.25C16.3484 25.25 16.3447 25.25 16.341 25.25C16.3373 25.25 16.3336 25.25 16.3299 25.25C16.3262 25.25 16.3225 25.25 16.3187 25.25C16.315 25.25 16.3113 25.25 16.3076 25.25C16.3038 25.25 16.3001 25.25 16.2964 25.25C16.2927 25.25 16.2889 25.25 16.2852 25.25C16.2815 25.25 16.2777 25.25 16.274 25.25C16.2702 25.25 16.2665 25.25 16.2627 25.25C16.259 25.25 16.2552 25.25 16.2515 25.25C16.2477 25.25 16.244 25.25 16.2402 25.25C16.2365 25.25 16.2327 25.25 16.2289 25.25C16.2252 25.25 16.2214 25.25 16.2176 25.25C16.2139 25.25 16.2101 25.25 16.2063 25.25C16.2025 25.25 16.1988 25.25 16.195 25.25C16.1912 25.25 16.1874 25.25 16.1836 25.25C16.1798 25.25 16.1761 25.25 16.1723 25.25C16.1685 25.25 16.1647 25.25 16.1609 25.25C16.1571 25.25 16.1533 25.25 16.1495 25.25C16.1457 25.25 16.1419 25.25 16.138 25.25C16.1342 25.25 16.1304 25.25 16.1266 25.25C16.1228 25.25 16.119 25.25 16.1151 25.25C16.1113 25.25 16.1075 25.25 16.1037 25.25C16.0998 25.25 16.096 25.25 16.0922 25.25C16.0883 25.25 16.0845 25.25 16.0807 25.25C16.0768 25.25 16.073 25.25 16.0691 25.25C16.0653 25.25 16.0614 25.25 16.0576 25.25C16.0537 25.25 16.0499 25.25 16.046 25.25C16.0422 25.25 16.0383 25.25 16.0344 25.25C16.0306 25.25 16.0267 25.25 16.0228 25.25C16.019 25.25 16.0151 25.25 16.0112 25.25C16.0074 25.25 16.0035 25.25 15.9996 25.25C15.9957 25.25 15.9918 25.25 15.988 25.25C15.9841 25.25 15.9802 25.25 15.9763 25.25C15.9724 25.25 15.9685 25.25 15.9646 25.25C15.9607 25.25 15.9568 25.25 15.9529 25.25C15.949 25.25 15.9451 25.25 15.9412 25.25C15.9373 25.25 15.9334 25.25 15.9294 25.25C15.9255 25.25 15.9216 25.25 15.9177 25.25C15.9138 25.25 15.9098 25.25 15.9059 25.25C15.902 25.25 15.8981 25.25 15.8941 25.25C15.8902 25.25 15.8863 25.25 15.8823 25.25C15.8784 25.25 15.8744 25.25 15.8705 25.25C15.8666 25.25 15.8626 25.25 15.8587 25.25C15.8547 25.25 15.8508 25.25 15.8468 25.25C15.8428 25.25 15.8389 25.25 15.8349 25.25C15.831 25.25 15.827 25.25 15.823 25.25C15.8191 25.25 15.8151 25.25 15.8111 25.25C15.8071 25.25 15.8032 25.25 15.7992 25.25C15.7952 25.25 15.7912 25.25 15.7872 25.25C15.7833 25.25 15.7793 25.25 15.7753 25.25C15.7713 25.25 15.7673 25.25 15.7633 25.25C15.7593 25.25 15.7553 25.25 15.7513 25.25C15.7473 25.25 15.7433 25.25 15.7393 25.25C15.7353 25.25 15.7313 25.25 15.7273 25.25C15.7232 25.25 15.7192 25.25 15.7152 25.25C15.7112 25.25 15.7072 25.25 15.7031 25.25C15.6991 25.25 15.6951 25.25 15.691 25.25C15.687 25.25 15.683 25.25 15.6789 25.25C15.6749 25.25 15.6709 25.25 15.6668 25.25C15.6628 25.25 15.6587 25.25 15.6547 25.25C15.6506 25.25 15.6466 25.25 15.6425 25.25C15.6385 25.25 15.6344 25.25 15.6304 25.25C15.6263 25.25 15.6222 25.25 15.6182 25.25C15.6141 25.25 15.61 25.25 15.606 25.25C15.6019 25.25 15.5978 25.25 15.5937 25.25C15.5897 25.25 15.5856 25.25 15.5815 25.25C15.5774 25.25 15.5733 25.25 15.5692 25.25C15.5652 25.25 15.5611 25.25 15.557 25.25C15.5529 25.25 15.5488 25.25 15.5447 25.25C15.5406 25.25 15.5365 25.25 15.5324 25.25C15.5283 25.25 15.5241 25.25 15.52 25.25C15.5159 25.25 15.5118 25.25 15.5077 25.25C15.5036 25.25 15.4994 25.25 15.4953 25.25C15.4912 25.25 15.4871 25.25 15.4829 25.25C15.4788 25.25 15.4747 25.25 15.4705 25.25C15.4664 25.25 15.4623 25.25 15.4581 25.25C15.454 25.25 15.4498 25.25 15.4457 25.25C15.4415 25.25 15.4374 25.25 15.4332 25.25C15.4291 25.25 15.4249 25.25 15.4208 25.25C15.4166 25.25 15.4125 25.25 15.4083 25.25C15.4041 25.25 15.4 25.25 15.3958 25.25C15.3916 25.25 15.3874 25.25 15.3833 25.25C15.3791 25.25 15.3749 25.25 15.3707 25.25C15.3666 25.25 15.3624 25.25 15.3582 25.25C15.354 25.25 15.3498 25.25 15.3456 25.25C15.3414 25.25 15.3372 25.25 15.333 25.25C15.3288 25.25 15.3246 25.25 15.3204 25.25C15.3162 25.25 15.312 25.25 15.3078 25.25C15.3036 25.25 15.2994 25.25 15.2951 25.25C15.2909 25.25 15.2867 25.25 15.2825 25.25C15.2783 25.25 15.274 25.25 15.2698 25.25C15.2656 25.25 15.2613 25.25 15.2571 25.25C15.2529 25.25 15.2486 25.25 15.2444 25.25C15.2402 25.25 15.2359 25.25 15.2317 25.25C15.2274 25.25 15.2232 25.25 15.2189 25.25C15.2147 25.25 15.2104 25.25 15.2062 25.25C15.2019 25.25 15.1976 25.25 15.1934 25.25C15.1891 25.25 15.1849 25.25 15.1806 25.25C15.1763 25.25 15.172 25.25 15.1678 25.25C15.1635 25.25 15.1592 25.25 15.1549 25.25C15.1507 25.25 15.1464 25.25 15.1421 25.25C15.1378 25.25 15.1335 25.25 15.1292 25.25C15.1249 25.25 15.1206 25.25 15.1163 25.25C15.112 25.25 15.1077 25.25 15.1034 25.25C15.0991 25.25 15.0948 25.25 15.0905 25.25C15.0862 25.25 15.0819 25.25 15.0776 25.25C15.0733 25.25 15.0689 25.25 15.0646 25.25C15.0603 25.25 15.056 25.25 15.0516 25.25C15.0473 25.25 15.043 25.25 15.0387 25.25C15.0343 25.25 15.03 25.25 15.0256 25.25C15.0213 25.25 15.017 25.25 15.0126 25.25C15.0083 25.25 15.0039 25.25 14.9996 25.25C14.9952 25.25 14.9909 25.25 14.9865 25.25C14.9822 25.25 14.9778 25.25 14.9734 25.25C14.9691 25.25 14.9647 25.25 14.9604 25.25C14.956 25.25 14.9516 25.25 14.9472 25.25C14.9429 25.25 14.9385 25.25 14.9341 25.25C14.9297 25.25 14.9253 25.25 14.921 25.25C14.9166 25.25 14.9122 25.25 14.9078 25.25C14.9034 25.25 14.899 25.25 14.8946 25.25C14.8902 25.25 14.8858 25.25 14.8814 25.25C14.877 25.25 14.8726 25.25 14.8682 25.25C14.8638 25.25 14.8594 25.25 14.855 25.25C14.8506 25.25 14.8461 25.25 14.8417 25.25C14.8373 25.25 14.8329 25.25 14.8285 25.25C14.824 25.25 14.8196 25.25 14.8152 25.25C14.8107 25.25 14.8063 25.25 14.8019 25.25C14.7974 25.25 14.793 25.25 14.7885 25.25C14.7841 25.25 14.7797 25.25 14.7752 25.25C14.7708 25.25 14.7663 25.25 14.7619 25.25C14.7574 25.25 14.7529 25.25 14.7485 25.25C14.744 25.25 14.7396 25.25 14.7351 25.25C14.7306 25.25 14.7262 25.25 14.7217 25.25C14.7172 25.25 14.7127 25.25 14.7083 25.25C14.7038 25.25 14.6993 25.25 14.6948 25.25C14.6903 25.25 14.6858 25.25 14.6814 25.25C14.6769 25.25 14.6724 25.25 14.6679 25.25C14.6634 25.25 14.6589 25.25 14.6544 25.25C14.6499 25.25 14.6454 25.25 14.6409 25.25C14.6364 25.25 14.6319 25.25 14.6273 25.25C14.6228 25.25 14.6183 25.25 14.6138 25.25C14.6093 25.25 14.6048 25.25 14.6002 25.25C14.5957 25.25 14.5912 25.25 14.5866 25.25C14.5821 25.25 14.5776 25.25 14.5731 25.25C14.5685 25.25 14.564 25.25 14.5594 25.25C14.5549 25.25 14.5503 25.25 14.5458 25.25C14.5413 25.25 14.5367 25.25 14.5322 25.25C14.5276 25.25 14.523 25.25 14.5185 25.25C14.5139 25.25 14.5094 25.25 14.5048 25.25C14.5002 25.25 14.4957 25.25 14.4911 25.25C14.4865 25.25 14.4819 25.25 14.4774 25.25C14.4728 25.25 14.4682 25.25 14.4636 25.25C14.4591 25.25 14.4545 25.25 14.4499 25.25C14.4453 25.25 14.4407 25.25 14.4361 25.25C14.4315 25.25 14.4269 25.25 14.4223 25.25C14.4177 25.25 14.4131 25.25 14.4085 25.25C14.4039 25.25 14.3993 25.25 14.3947 25.25C14.3901 25.25 14.3855 25.25 14.3808 25.25C14.3762 25.25 14.3716 25.25 14.367 25.25C14.3624 25.25 14.3577 25.25 14.3531 25.25C14.3485 25.25 14.3438 25.25 14.3392 25.25C14.3346 25.25 14.3299 25.25 14.3253 25.25C14.3207 25.25 14.316 25.25 14.3114 25.25C14.3067 25.25 14.3021 25.25 14.2974 25.25C14.2928 25.25 14.2881 25.25 14.2835 25.25C14.2788 25.25 14.2741 25.25 14.2695 25.25C14.2648 25.25 14.2601 25.25 14.2555 25.25C14.2508 25.25 14.2461 25.25 14.2415 25.25C14.2368 25.25 14.2321 25.25 14.2274 25.25C14.2227 25.25 14.2181 25.25 14.2134 25.25C14.2087 25.25 14.204 25.25 14.1993 25.25C14.1946 25.25 14.1899 25.25 14.1852 25.25C14.1805 25.25 14.1758 25.25 14.1711 25.25C14.1664 25.25 14.1617 25.25 14.157 25.25C14.1523 25.25 14.1476 25.25 14.1429 25.25C14.1381 25.25 14.1334 25.25 14.1287 25.25C14.124 25.25 14.1193 25.25 14.1145 25.25C14.1098 25.25 14.1051 25.25 14.1003 25.25C14.0956 25.25 14.0909 25.25 14.0861 25.25C14.0814 25.25 14.0767 25.25 14.0719 25.25C14.0672 25.25 14.0624 25.25 14.0577 25.25C14.0529 25.25 14.0482 25.25 14.0434 25.25C14.0386 25.25 14.0339 25.25 14.0291 25.25C14.0244 25.25 14.0196 25.25 14.0148 25.25C14.0101 25.25 14.0053 25.25 14.0005 25.25C13.9957 25.25 13.991 25.25 13.9862 25.25C13.9814 25.25 13.9766 25.25 13.9718 25.25C13.9671 25.25 13.9623 25.25 13.9575 25.25C13.9527 25.25 13.9479 25.25 13.9431 25.25C13.9383 25.25 13.9335 25.25 13.9287 25.25C13.9239 25.25 13.9191 25.25 13.9143 25.25C13.9095 25.25 13.9047 25.25 13.8998 25.25C13.895 25.25 13.8902 25.25 13.8854 25.25C13.8806 25.25 13.8758 25.25 13.8709 25.25C13.8661 25.25 13.8613 25.25 13.8564 25.25C13.8516 25.25 13.8468 25.25 13.8419 25.25C13.8371 25.25 13.8323 25.25 13.8274 25.25C13.8226 25.25 13.8177 25.25 13.8129 25.25C13.808 25.25 13.8032 25.25 13.7983 25.25C13.7935 25.25 13.7886 25.25 13.7837 25.25C13.7789 25.25 13.774 25.25 13.7692 25.25C13.7643 25.25 13.7594 25.25 13.7545 25.25C13.7497 25.25 13.7448 25.25 13.7399 25.25C13.735 25.25 13.7302 25.25 13.7253 25.25C13.7204 25.25 13.7155 25.25 13.7106 25.25C13.7057 25.25 13.7008 25.25 13.6959 25.25C13.691 25.25 13.6861 25.25 13.6812 25.25C13.6763 25.25 13.6714 25.25 13.6665 25.25C13.6616 25.25 13.6567 25.25 13.6518 25.25C13.6469 25.25 13.642 25.25 13.6371 25.25C13.6321 25.25 13.6272 25.25 13.6223 25.25C13.6174 25.25 13.6124 25.25 13.6075 25.25C13.6026 25.25 13.5976 25.25 13.5927 25.25C13.5878 25.25 13.5828 25.25 13.5779 25.25C13.573 25.25 13.568 25.25 13.5631 25.25C13.5581 25.25 13.5532 25.25 13.5482 25.25C13.5433 25.25 13.5383 25.25 13.5333 25.25C13.5284 25.25 13.5234 25.25 13.5185 25.25C13.5135 25.25 13.5085 25.25 13.5035 25.25C13.4986 25.25 13.4936 25.25 13.4886 25.25C13.4837 25.25 13.4787 25.25 13.4737 25.25C13.4687 25.25 13.4637 25.25 13.4587 25.25C13.4537 25.25 13.4488 25.25 13.4438 25.25C13.4388 25.25 13.4338 25.25 13.4288 25.25C13.4238 25.25 13.4188 25.25 13.4138 25.25C13.4088 25.25 13.4037 25.25 13.3987 25.25C13.3937 25.25 13.3887 25.25 13.3837 25.25C13.3787 25.25 13.3737 25.25 13.3686 25.25C13.3636 25.25 13.3586 25.25 13.3536 25.25C13.3485 25.25 13.3435 25.25 13.3385 25.25C13.3334 25.25 13.3284 25.25 13.3233 25.25C13.3183 25.25 13.3133 25.25 13.3082 25.25C13.3032 25.25 13.2981 25.25 13.2931 25.25C13.288 25.25 13.283 25.25 13.2779 25.25C13.2728 25.25 13.2678 25.25 13.2627 25.25C13.2577 25.25 13.2526 25.25 13.2475 25.25C13.2425 25.25 13.2374 25.25 13.2323 25.25C13.2272 25.25 13.2222 25.25 13.2171 25.25C13.212 25.25 13.2069 25.25 13.2018 25.25C13.1967 25.25 13.1916 25.25 13.1865 25.25C13.1815 25.25 13.1764 25.25 13.1713 25.25C13.1662 25.25 13.1611 25.25 13.156 25.25C13.1509 25.25 13.1457 25.25 13.1406 25.25C13.1355 25.25 13.1304 25.25 13.1253 25.25C13.1202 25.25 13.1151 25.25 13.1099 25.25C13.1048 25.25 13.0997 25.25 13.0946 25.25C13.0894 25.25 13.0843 25.25 13.0792 25.25C13.074 25.25 13.0689 25.25 13.0638 25.25C13.0586 25.25 13.0535 25.25 13.0483 25.25C13.0432 25.25 13.0381 25.25 13.0329 25.25C13.0277 25.25 13.0226 25.25 13.0174 25.25C13.0123 25.25 13.0071 25.25 13.002 25.25C12.9968 25.25 12.9916 25.25 12.9865 25.25C12.9813 25.25 12.9761 25.25 12.971 25.25C12.9658 25.25 12.9606 25.25 12.9554 25.25C12.9502 25.25 12.9451 25.25 12.9399 25.25C12.9347 25.25 12.9295 25.25 12.9243 25.25C12.9191 25.25 12.9139 25.25 12.9087 25.25C12.9035 25.25 12.8983 25.25 12.8931 25.25C12.8879 25.25 12.8827 25.25 12.8775 25.25C12.8723 25.25 12.8671 25.25 12.8619 25.25C12.8567 25.25 12.8514 25.25 12.8462 25.25C12.841 25.25 12.8358 25.25 12.8306 25.25C12.8253 25.25 12.8201 25.25 12.8149 25.25C12.8096 25.25 12.8044 25.25 12.7992 25.25C12.7939 25.25 12.7887 25.25 12.7834 25.25C12.7782 25.25 12.773 25.25 12.7677 25.25C12.7625 25.25 12.7572 25.25 12.7519 25.25C12.7467 25.25 12.7414 25.25 12.7362 25.25C12.7309 25.25 12.7256 25.25 12.7204 25.25C12.7151 25.25 12.7098 25.25 12.7046 25.25C12.6993 25.25 12.694 25.25 12.6887 25.25C12.6835 25.25 12.6782 25.25 12.6729 25.25C12.6676 25.25 12.6623 25.25 12.657 25.25C12.6518 25.25 12.6465 25.25 12.6412 25.25C12.6359 25.25 12.6306 25.25 12.6253 25.25C12.62 25.25 12.6147 25.25 12.6094 25.25C12.604 25.25 12.5987 25.25 12.5934 25.25C12.5881 25.25 12.5828 25.25 12.5775 25.25C12.5722 25.25 12.5668 25.25 12.5615 25.25C12.5562 25.25 12.5509 25.25 12.5455 25.25C12.5402 25.25 12.5349 25.25 12.5295 25.25C12.5242 25.25 12.5189 25.25 12.5135 25.25C12.5082 25.25 12.5028 25.25 12.4975 25.25C12.4921 25.25 12.4868 25.25 12.4814 25.25C12.4761 25.25 12.4707 25.25 12.4654 25.25C12.46 25.25 12.4546 25.25 12.4493 25.25C12.4439 25.25 12.4385 25.25 12.4332 25.25C12.4278 25.25 12.4224 25.25 12.417 25.25C12.4117 25.25 12.4063 25.25 12.4009 25.25C12.3955 25.25 12.3901 25.25 12.3847 25.25C12.3794 25.25 12.374 25.25 12.3686 25.25C12.3632 25.25 12.3578 25.25 12.3524 25.25C12.347 25.25 12.3416 25.25 12.3362 25.25C12.3308 25.25 12.3254 25.25 12.3199 25.25C12.3145 25.25 12.3091 25.25 12.3037 25.25C12.2983 25.25 12.2929 25.25 12.2874 25.25C12.282 25.25 12.2766 25.25 12.2712 25.25C12.2657 25.25 12.2603 25.25 12.2549 25.25C12.2494 25.25 12.244 25.25 12.2385 25.25C12.2331 25.25 12.2277 25.25 12.2222 25.25C12.2168 25.25 12.2113 25.25 12.2059 25.25C12.2004 25.25 12.195 25.25 12.1895 25.25C12.184 25.25 12.1786 25.25 12.1731 25.25C12.1677 25.25 12.1622 25.25 12.1567 25.25C12.1513 25.25 12.1458 25.25 12.1403 25.25C12.1348 25.25 12.1294 25.25 12.1239 25.25C12.1184 25.25 12.1129 25.25 12.1074 25.25C12.1019 25.25 12.0964 25.25 12.0909 25.25C12.0855 25.25 12.08 25.25 12.0745 25.25C12.069 25.25 12.0635 25.25 12.058 25.25C12.0525 25.25 12.0469 25.25 12.0414 25.25C12.0359 25.25 12.0304 25.25 12.0249 25.25C12.0194 25.25 12.0139 25.25 12.0083 25.25C12.0028 25.25 11.9973 25.25 11.9918 25.25C11.9862 25.25 11.9807 25.25 11.9752 25.25C11.9696 25.25 11.9641 25.25 11.9586 25.25C11.953 25.25 11.9475 25.25 11.9419 25.25C11.9364 25.25 11.9308 25.25 11.9253 25.25C11.9197 25.25 11.9142 25.25 11.9086 25.25C11.9031 25.25 11.8975 25.25 11.892 25.25C11.8864 25.25 11.8808 25.25 11.8753 25.25C11.8697 25.25 11.8641 25.25 11.8585 25.25C11.853 25.25 11.8474 25.25 11.8418 25.25C11.8362 25.25 11.8306 25.25 11.8251 25.25C11.8195 25.25 11.8139 25.25 11.8083 25.25C11.8027 25.25 11.7971 25.25 11.7915 25.25C11.7859 25.25 11.7803 25.25 11.7747 25.25C11.7691 25.25 11.7635 25.25 11.7579 25.25C11.7523 25.25 11.7467 25.25 11.7411 25.25C11.7354 25.25 11.7298 25.25 11.7242 25.25C11.7186 25.25 11.713 25.25 11.7073 25.25C11.7017 25.25 11.6961 25.25 11.6904 25.25C11.6848 25.25 11.6792 25.25 11.6735 25.25C11.6679 25.25 11.6623 25.25 11.6566 25.25C11.651 25.25 11.6453 25.25 11.6397 25.25C11.634 25.25 11.6284 25.25 11.6227 25.25C11.6171 25.25 11.6114 25.25 11.6057 25.25C11.6001 25.25 11.5944 25.25 11.5888 25.25C11.5831 25.25 11.5774 25.25 11.5717 25.25C11.5661 25.25 11.5604 25.25 11.5547 25.25C11.549 25.25 11.5434 25.25 11.5377 25.25C11.532 25.25 11.5263 25.25 11.5206 25.25C11.5149 25.25 11.5092 25.25 11.5035 25.25C11.4978 25.25 11.4921 25.25 11.4864 25.25C11.4807 25.25 11.475 25.25 11.4693 25.25C11.4636 25.25 11.4579 25.25 11.4522 25.25C11.4465 25.25 11.4408 25.25 11.435 25.25C11.4293 25.25 11.4236 25.25 11.4179 25.25C11.4122 25.25 11.4064 25.25 11.4007 25.25C11.395 25.25 11.3892 25.25 11.3835 25.25C11.3778 25.25 11.372 25.25 11.3663 25.25C11.3605 25.25 11.3548 25.25 11.349 25.25C11.3433 25.25 11.3375 25.25 11.3318 25.25C11.326 25.25 11.3203 25.25 11.3145 25.25C11.3088 25.25 11.303 25.25 11.2972 25.25C11.2915 25.25 11.2857 25.25 11.2799 25.25C11.2742 25.25 11.2684 25.25 11.2626 25.25C11.2568 25.25 11.251 25.25 11.2453 25.25C11.2395 25.25 11.2337 25.25 11.2279 25.25C11.2221 25.25 11.2163 25.25 11.2105 25.25C11.2047 25.25 11.1989 25.25 11.1931 25.25C11.1873 25.25 11.1815 25.25 11.1757 25.25C11.1699 25.25 11.1641 25.25 11.1583 25.25C11.1525 25.25 11.1467 25.25 11.1409 25.25C11.135 25.25 11.1292 25.25 11.1234 25.25C11.1176 25.25 11.1117 25.25 11.1059 25.25C11.1001 25.25 11.0943 25.25 11.0884 25.25C11.0826 25.25 11.0767 25.25 11.0709 25.25C11.0651 25.25 11.0592 25.25 11.0534 25.25C11.0475 25.25 11.0417 25.25 11.0358 25.25C11.03 25.25 11.0241 25.25 11.0183 25.25C11.0124 25.25 11.0065 25.25 11.0007 25.25C10.9948 25.25 10.9889 25.25 10.9831 25.25C10.9772 25.25 10.9713 25.25 10.9655 25.25C10.9596 25.25 10.9537 25.25 10.9478 25.25C10.9419 25.25 10.9361 25.25 10.9302 25.25C10.9243 25.25 10.9184 25.25 10.9125 25.25C10.9066 25.25 10.9007 25.25 10.8948 25.25C10.8889 25.25 10.883 25.25 10.8771 25.25C10.8712 25.25 10.8653 25.25 10.8594 25.25C10.8535 25.25 10.8476 25.25 10.8416 25.25C10.8357 25.25 10.8298 25.25 10.8239 25.25C10.818 25.25 10.812 25.25 10.8061 25.25C10.8002 25.25 10.7943 25.25 10.7883 25.25C10.7824 25.25 10.7764 25.25 10.7705 25.25V26.75C10.7764 26.75 10.7824 26.75 10.7883 26.75C10.7943 26.75 10.8002 26.75 10.8061 26.75C10.812 26.75 10.818 26.75 10.8239 26.75C10.8298 26.75 10.8357 26.75 10.8416 26.75C10.8476 26.75 10.8535 26.75 10.8594 26.75C10.8653 26.75 10.8712 26.75 10.8771 26.75C10.883 26.75 10.8889 26.75 10.8948 26.75C10.9007 26.75 10.9066 26.75 10.9125 26.75C10.9184 26.75 10.9243 26.75 10.9302 26.75C10.9361 26.75 10.9419 26.75 10.9478 26.75C10.9537 26.75 10.9596 26.75 10.9655 26.75C10.9713 26.75 10.9772 26.75 10.9831 26.75C10.9889 26.75 10.9948 26.75 11.0007 26.75C11.0065 26.75 11.0124 26.75 11.0183 26.75C11.0241 26.75 11.03 26.75 11.0358 26.75C11.0417 26.75 11.0475 26.75 11.0534 26.75C11.0592 26.75 11.0651 26.75 11.0709 26.75C11.0767 26.75 11.0826 26.75 11.0884 26.75C11.0943 26.75 11.1001 26.75 11.1059 26.75C11.1117 26.75 11.1176 26.75 11.1234 26.75C11.1292 26.75 11.135 26.75 11.1409 26.75C11.1467 26.75 11.1525 26.75 11.1583 26.75C11.1641 26.75 11.1699 26.75 11.1757 26.75C11.1815 26.75 11.1873 26.75 11.1931 26.75C11.1989 26.75 11.2047 26.75 11.2105 26.75C11.2163 26.75 11.2221 26.75 11.2279 26.75C11.2337 26.75 11.2395 26.75 11.2453 26.75C11.251 26.75 11.2568 26.75 11.2626 26.75C11.2684 26.75 11.2742 26.75 11.2799 26.75C11.2857 26.75 11.2915 26.75 11.2972 26.75C11.303 26.75 11.3088 26.75 11.3145 26.75C11.3203 26.75 11.326 26.75 11.3318 26.75C11.3375 26.75 11.3433 26.75 11.349 26.75C11.3548 26.75 11.3605 26.75 11.3663 26.75C11.372 26.75 11.3778 26.75 11.3835 26.75C11.3892 26.75 11.395 26.75 11.4007 26.75C11.4064 26.75 11.4122 26.75 11.4179 26.75C11.4236 26.75 11.4293 26.75 11.435 26.75C11.4408 26.75 11.4465 26.75 11.4522 26.75C11.4579 26.75 11.4636 26.75 11.4693 26.75C11.475 26.75 11.4807 26.75 11.4864 26.75C11.4921 26.75 11.4978 26.75 11.5035 26.75C11.5092 26.75 11.5149 26.75 11.5206 26.75C11.5263 26.75 11.532 26.75 11.5377 26.75C11.5434 26.75 11.549 26.75 11.5547 26.75C11.5604 26.75 11.5661 26.75 11.5717 26.75C11.5774 26.75 11.5831 26.75 11.5888 26.75C11.5944 26.75 11.6001 26.75 11.6057 26.75C11.6114 26.75 11.6171 26.75 11.6227 26.75C11.6284 26.75 11.634 26.75 11.6397 26.75C11.6453 26.75 11.651 26.75 11.6566 26.75C11.6623 26.75 11.6679 26.75 11.6735 26.75C11.6792 26.75 11.6848 26.75 11.6904 26.75C11.6961 26.75 11.7017 26.75 11.7073 26.75C11.713 26.75 11.7186 26.75 11.7242 26.75C11.7298 26.75 11.7354 26.75 11.7411 26.75C11.7467 26.75 11.7523 26.75 11.7579 26.75C11.7635 26.75 11.7691 26.75 11.7747 26.75C11.7803 26.75 11.7859 26.75 11.7915 26.75C11.7971 26.75 11.8027 26.75 11.8083 26.75C11.8139 26.75 11.8195 26.75 11.8251 26.75C11.8306 26.75 11.8362 26.75 11.8418 26.75C11.8474 26.75 11.853 26.75 11.8585 26.75C11.8641 26.75 11.8697 26.75 11.8753 26.75C11.8808 26.75 11.8864 26.75 11.892 26.75C11.8975 26.75 11.9031 26.75 11.9086 26.75C11.9142 26.75 11.9197 26.75 11.9253 26.75C11.9308 26.75 11.9364 26.75 11.9419 26.75C11.9475 26.75 11.953 26.75 11.9586 26.75C11.9641 26.75 11.9696 26.75 11.9752 26.75C11.9807 26.75 11.9862 26.75 11.9918 26.75C11.9973 26.75 12.0028 26.75 12.0083 26.75C12.0139 26.75 12.0194 26.75 12.0249 26.75C12.0304 26.75 12.0359 26.75 12.0414 26.75C12.0469 26.75 12.0525 26.75 12.058 26.75C12.0635 26.75 12.069 26.75 12.0745 26.75C12.08 26.75 12.0855 26.75 12.0909 26.75C12.0964 26.75 12.1019 26.75 12.1074 26.75C12.1129 26.75 12.1184 26.75 12.1239 26.75C12.1294 26.75 12.1348 26.75 12.1403 26.75C12.1458 26.75 12.1513 26.75 12.1567 26.75C12.1622 26.75 12.1677 26.75 12.1731 26.75C12.1786 26.75 12.184 26.75 12.1895 26.75C12.195 26.75 12.2004 26.75 12.2059 26.75C12.2113 26.75 12.2168 26.75 12.2222 26.75C12.2277 26.75 12.2331 26.75 12.2385 26.75C12.244 26.75 12.2494 26.75 12.2549 26.75C12.2603 26.75 12.2657 26.75 12.2712 26.75C12.2766 26.75 12.282 26.75 12.2874 26.75C12.2929 26.75 12.2983 26.75 12.3037 26.75C12.3091 26.75 12.3145 26.75 12.3199 26.75C12.3254 26.75 12.3308 26.75 12.3362 26.75C12.3416 26.75 12.347 26.75 12.3524 26.75C12.3578 26.75 12.3632 26.75 12.3686 26.75C12.374 26.75 12.3794 26.75 12.3847 26.75C12.3901 26.75 12.3955 26.75 12.4009 26.75C12.4063 26.75 12.4117 26.75 12.417 26.75C12.4224 26.75 12.4278 26.75 12.4332 26.75C12.4385 26.75 12.4439 26.75 12.4493 26.75C12.4546 26.75 12.46 26.75 12.4654 26.75C12.4707 26.75 12.4761 26.75 12.4814 26.75C12.4868 26.75 12.4921 26.75 12.4975 26.75C12.5028 26.75 12.5082 26.75 12.5135 26.75C12.5189 26.75 12.5242 26.75 12.5295 26.75C12.5349 26.75 12.5402 26.75 12.5455 26.75C12.5509 26.75 12.5562 26.75 12.5615 26.75C12.5668 26.75 12.5722 26.75 12.5775 26.75C12.5828 26.75 12.5881 26.75 12.5934 26.75C12.5987 26.75 12.604 26.75 12.6094 26.75C12.6147 26.75 12.62 26.75 12.6253 26.75C12.6306 26.75 12.6359 26.75 12.6412 26.75C12.6465 26.75 12.6518 26.75 12.657 26.75C12.6623 26.75 12.6676 26.75 12.6729 26.75C12.6782 26.75 12.6835 26.75 12.6887 26.75C12.694 26.75 12.6993 26.75 12.7046 26.75C12.7098 26.75 12.7151 26.75 12.7204 26.75C12.7256 26.75 12.7309 26.75 12.7362 26.75C12.7414 26.75 12.7467 26.75 12.7519 26.75C12.7572 26.75 12.7625 26.75 12.7677 26.75C12.773 26.75 12.7782 26.75 12.7834 26.75C12.7887 26.75 12.7939 26.75 12.7992 26.75C12.8044 26.75 12.8096 26.75 12.8149 26.75C12.8201 26.75 12.8253 26.75 12.8306 26.75C12.8358 26.75 12.841 26.75 12.8462 26.75C12.8514 26.75 12.8567 26.75 12.8619 26.75C12.8671 26.75 12.8723 26.75 12.8775 26.75C12.8827 26.75 12.8879 26.75 12.8931 26.75C12.8983 26.75 12.9035 26.75 12.9087 26.75C12.9139 26.75 12.9191 26.75 12.9243 26.75C12.9295 26.75 12.9347 26.75 12.9399 26.75C12.9451 26.75 12.9502 26.75 12.9554 26.75C12.9606 26.75 12.9658 26.75 12.971 26.75C12.9761 26.75 12.9813 26.75 12.9865 26.75C12.9916 26.75 12.9968 26.75 13.002 26.75C13.0071 26.75 13.0123 26.75 13.0174 26.75C13.0226 26.75 13.0277 26.75 13.0329 26.75C13.0381 26.75 13.0432 26.75 13.0483 26.75C13.0535 26.75 13.0586 26.75 13.0638 26.75C13.0689 26.75 13.074 26.75 13.0792 26.75C13.0843 26.75 13.0894 26.75 13.0946 26.75C13.0997 26.75 13.1048 26.75 13.1099 26.75C13.1151 26.75 13.1202 26.75 13.1253 26.75C13.1304 26.75 13.1355 26.75 13.1406 26.75C13.1457 26.75 13.1509 26.75 13.156 26.75C13.1611 26.75 13.1662 26.75 13.1713 26.75C13.1764 26.75 13.1815 26.75 13.1865 26.75C13.1916 26.75 13.1967 26.75 13.2018 26.75C13.2069 26.75 13.212 26.75 13.2171 26.75C13.2222 26.75 13.2272 26.75 13.2323 26.75C13.2374 26.75 13.2425 26.75 13.2475 26.75C13.2526 26.75 13.2577 26.75 13.2627 26.75C13.2678 26.75 13.2728 26.75 13.2779 26.75C13.283 26.75 13.288 26.75 13.2931 26.75C13.2981 26.75 13.3032 26.75 13.3082 26.75C13.3133 26.75 13.3183 26.75 13.3233 26.75C13.3284 26.75 13.3334 26.75 13.3385 26.75C13.3435 26.75 13.3485 26.75 13.3536 26.75C13.3586 26.75 13.3636 26.75 13.3686 26.75C13.3737 26.75 13.3787 26.75 13.3837 26.75C13.3887 26.75 13.3937 26.75 13.3987 26.75C13.4037 26.75 13.4088 26.75 13.4138 26.75C13.4188 26.75 13.4238 26.75 13.4288 26.75C13.4338 26.75 13.4388 26.75 13.4438 26.75C13.4488 26.75 13.4537 26.75 13.4587 26.75C13.4637 26.75 13.4687 26.75 13.4737 26.75C13.4787 26.75 13.4837 26.75 13.4886 26.75C13.4936 26.75 13.4986 26.75 13.5035 26.75C13.5085 26.75 13.5135 26.75 13.5185 26.75C13.5234 26.75 13.5284 26.75 13.5333 26.75C13.5383 26.75 13.5433 26.75 13.5482 26.75C13.5532 26.75 13.5581 26.75 13.5631 26.75C13.568 26.75 13.573 26.75 13.5779 26.75C13.5828 26.75 13.5878 26.75 13.5927 26.75C13.5976 26.75 13.6026 26.75 13.6075 26.75C13.6124 26.75 13.6174 26.75 13.6223 26.75C13.6272 26.75 13.6321 26.75 13.6371 26.75C13.642 26.75 13.6469 26.75 13.6518 26.75C13.6567 26.75 13.6616 26.75 13.6665 26.75C13.6714 26.75 13.6763 26.75 13.6812 26.75C13.6861 26.75 13.691 26.75 13.6959 26.75C13.7008 26.75 13.7057 26.75 13.7106 26.75C13.7155 26.75 13.7204 26.75 13.7253 26.75C13.7302 26.75 13.735 26.75 13.7399 26.75C13.7448 26.75 13.7497 26.75 13.7545 26.75C13.7594 26.75 13.7643 26.75 13.7692 26.75C13.774 26.75 13.7789 26.75 13.7837 26.75C13.7886 26.75 13.7935 26.75 13.7983 26.75C13.8032 26.75 13.808 26.75 13.8129 26.75C13.8177 26.75 13.8226 26.75 13.8274 26.75C13.8323 26.75 13.8371 26.75 13.8419 26.75C13.8468 26.75 13.8516 26.75 13.8564 26.75C13.8613 26.75 13.8661 26.75 13.8709 26.75C13.8758 26.75 13.8806 26.75 13.8854 26.75C13.8902 26.75 13.895 26.75 13.8998 26.75C13.9047 26.75 13.9095 26.75 13.9143 26.75C13.9191 26.75 13.9239 26.75 13.9287 26.75C13.9335 26.75 13.9383 26.75 13.9431 26.75C13.9479 26.75 13.9527 26.75 13.9575 26.75C13.9623 26.75 13.9671 26.75 13.9718 26.75C13.9766 26.75 13.9814 26.75 13.9862 26.75C13.991 26.75 13.9957 26.75 14.0005 26.75C14.0053 26.75 14.0101 26.75 14.0148 26.75C14.0196 26.75 14.0244 26.75 14.0291 26.75C14.0339 26.75 14.0386 26.75 14.0434 26.75C14.0482 26.75 14.0529 26.75 14.0577 26.75C14.0624 26.75 14.0672 26.75 14.0719 26.75C14.0767 26.75 14.0814 26.75 14.0861 26.75C14.0909 26.75 14.0956 26.75 14.1003 26.75C14.1051 26.75 14.1098 26.75 14.1145 26.75C14.1193 26.75 14.124 26.75 14.1287 26.75C14.1334 26.75 14.1381 26.75 14.1429 26.75C14.1476 26.75 14.1523 26.75 14.157 26.75C14.1617 26.75 14.1664 26.75 14.1711 26.75C14.1758 26.75 14.1805 26.75 14.1852 26.75C14.1899 26.75 14.1946 26.75 14.1993 26.75C14.204 26.75 14.2087 26.75 14.2134 26.75C14.2181 26.75 14.2227 26.75 14.2274 26.75C14.2321 26.75 14.2368 26.75 14.2415 26.75C14.2461 26.75 14.2508 26.75 14.2555 26.75C14.2601 26.75 14.2648 26.75 14.2695 26.75C14.2741 26.75 14.2788 26.75 14.2835 26.75C14.2881 26.75 14.2928 26.75 14.2974 26.75C14.3021 26.75 14.3067 26.75 14.3114 26.75C14.316 26.75 14.3207 26.75 14.3253 26.75C14.3299 26.75 14.3346 26.75 14.3392 26.75C14.3438 26.75 14.3485 26.75 14.3531 26.75C14.3577 26.75 14.3624 26.75 14.367 26.75C14.3716 26.75 14.3762 26.75 14.3808 26.75C14.3855 26.75 14.3901 26.75 14.3947 26.75C14.3993 26.75 14.4039 26.75 14.4085 26.75C14.4131 26.75 14.4177 26.75 14.4223 26.75C14.4269 26.75 14.4315 26.75 14.4361 26.75C14.4407 26.75 14.4453 26.75 14.4499 26.75C14.4545 26.75 14.4591 26.75 14.4636 26.75C14.4682 26.75 14.4728 26.75 14.4774 26.75C14.4819 26.75 14.4865 26.75 14.4911 26.75C14.4957 26.75 14.5002 26.75 14.5048 26.75C14.5094 26.75 14.5139 26.75 14.5185 26.75C14.523 26.75 14.5276 26.75 14.5322 26.75C14.5367 26.75 14.5413 26.75 14.5458 26.75C14.5503 26.75 14.5549 26.75 14.5594 26.75C14.564 26.75 14.5685 26.75 14.5731 26.75C14.5776 26.75 14.5821 26.75 14.5866 26.75C14.5912 26.75 14.5957 26.75 14.6002 26.75C14.6048 26.75 14.6093 26.75 14.6138 26.75C14.6183 26.75 14.6228 26.75 14.6273 26.75C14.6319 26.75 14.6364 26.75 14.6409 26.75C14.6454 26.75 14.6499 26.75 14.6544 26.75C14.6589 26.75 14.6634 26.75 14.6679 26.75C14.6724 26.75 14.6769 26.75 14.6814 26.75C14.6858 26.75 14.6903 26.75 14.6948 26.75C14.6993 26.75 14.7038 26.75 14.7083 26.75C14.7127 26.75 14.7172 26.75 14.7217 26.75C14.7262 26.75 14.7306 26.75 14.7351 26.75C14.7396 26.75 14.744 26.75 14.7485 26.75C14.7529 26.75 14.7574 26.75 14.7619 26.75C14.7663 26.75 14.7708 26.75 14.7752 26.75C14.7797 26.75 14.7841 26.75 14.7885 26.75C14.793 26.75 14.7974 26.75 14.8019 26.75C14.8063 26.75 14.8107 26.75 14.8152 26.75C14.8196 26.75 14.824 26.75 14.8285 26.75C14.8329 26.75 14.8373 26.75 14.8417 26.75C14.8461 26.75 14.8506 26.75 14.855 26.75C14.8594 26.75 14.8638 26.75 14.8682 26.75C14.8726 26.75 14.877 26.75 14.8814 26.75C14.8858 26.75 14.8902 26.75 14.8946 26.75C14.899 26.75 14.9034 26.75 14.9078 26.75C14.9122 26.75 14.9166 26.75 14.921 26.75C14.9253 26.75 14.9297 26.75 14.9341 26.75C14.9385 26.75 14.9429 26.75 14.9472 26.75C14.9516 26.75 14.956 26.75 14.9604 26.75C14.9647 26.75 14.9691 26.75 14.9734 26.75C14.9778 26.75 14.9822 26.75 14.9865 26.75C14.9909 26.75 14.9952 26.75 14.9996 26.75C15.0039 26.75 15.0083 26.75 15.0126 26.75C15.017 26.75 15.0213 26.75 15.0256 26.75C15.03 26.75 15.0343 26.75 15.0387 26.75C15.043 26.75 15.0473 26.75 15.0516 26.75C15.056 26.75 15.0603 26.75 15.0646 26.75C15.0689 26.75 15.0733 26.75 15.0776 26.75C15.0819 26.75 15.0862 26.75 15.0905 26.75C15.0948 26.75 15.0991 26.75 15.1034 26.75C15.1077 26.75 15.112 26.75 15.1163 26.75C15.1206 26.75 15.1249 26.75 15.1292 26.75C15.1335 26.75 15.1378 26.75 15.1421 26.75C15.1464 26.75 15.1507 26.75 15.1549 26.75C15.1592 26.75 15.1635 26.75 15.1678 26.75C15.172 26.75 15.1763 26.75 15.1806 26.75C15.1849 26.75 15.1891 26.75 15.1934 26.75C15.1976 26.75 15.2019 26.75 15.2062 26.75C15.2104 26.75 15.2147 26.75 15.2189 26.75C15.2232 26.75 15.2274 26.75 15.2317 26.75C15.2359 26.75 15.2402 26.75 15.2444 26.75C15.2486 26.75 15.2529 26.75 15.2571 26.75C15.2613 26.75 15.2656 26.75 15.2698 26.75C15.274 26.75 15.2783 26.75 15.2825 26.75C15.2867 26.75 15.2909 26.75 15.2951 26.75C15.2994 26.75 15.3036 26.75 15.3078 26.75C15.312 26.75 15.3162 26.75 15.3204 26.75C15.3246 26.75 15.3288 26.75 15.333 26.75C15.3372 26.75 15.3414 26.75 15.3456 26.75C15.3498 26.75 15.354 26.75 15.3582 26.75C15.3624 26.75 15.3666 26.75 15.3707 26.75C15.3749 26.75 15.3791 26.75 15.3833 26.75C15.3874 26.75 15.3916 26.75 15.3958 26.75C15.4 26.75 15.4041 26.75 15.4083 26.75C15.4125 26.75 15.4166 26.75 15.4208 26.75C15.4249 26.75 15.4291 26.75 15.4332 26.75C15.4374 26.75 15.4415 26.75 15.4457 26.75C15.4498 26.75 15.454 26.75 15.4581 26.75C15.4623 26.75 15.4664 26.75 15.4705 26.75C15.4747 26.75 15.4788 26.75 15.4829 26.75C15.4871 26.75 15.4912 26.75 15.4953 26.75C15.4994 26.75 15.5036 26.75 15.5077 26.75C15.5118 26.75 15.5159 26.75 15.52 26.75C15.5241 26.75 15.5283 26.75 15.5324 26.75C15.5365 26.75 15.5406 26.75 15.5447 26.75C15.5488 26.75 15.5529 26.75 15.557 26.75C15.5611 26.75 15.5652 26.75 15.5692 26.75C15.5733 26.75 15.5774 26.75 15.5815 26.75C15.5856 26.75 15.5897 26.75 15.5937 26.75C15.5978 26.75 15.6019 26.75 15.606 26.75C15.61 26.75 15.6141 26.75 15.6182 26.75C15.6222 26.75 15.6263 26.75 15.6304 26.75C15.6344 26.75 15.6385 26.75 15.6425 26.75C15.6466 26.75 15.6506 26.75 15.6547 26.75C15.6587 26.75 15.6628 26.75 15.6668 26.75C15.6709 26.75 15.6749 26.75 15.6789 26.75C15.683 26.75 15.687 26.75 15.691 26.75C15.6951 26.75 15.6991 26.75 15.7031 26.75C15.7072 26.75 15.7112 26.75 15.7152 26.75C15.7192 26.75 15.7232 26.75 15.7273 26.75C15.7313 26.75 15.7353 26.75 15.7393 26.75C15.7433 26.75 15.7473 26.75 15.7513 26.75C15.7553 26.75 15.7593 26.75 15.7633 26.75C15.7673 26.75 15.7713 26.75 15.7753 26.75C15.7793 26.75 15.7833 26.75 15.7872 26.75C15.7912 26.75 15.7952 26.75 15.7992 26.75C15.8032 26.75 15.8071 26.75 15.8111 26.75C15.8151 26.75 15.8191 26.75 15.823 26.75C15.827 26.75 15.831 26.75 15.8349 26.75C15.8389 26.75 15.8428 26.75 15.8468 26.75C15.8508 26.75 15.8547 26.75 15.8587 26.75C15.8626 26.75 15.8666 26.75 15.8705 26.75C15.8744 26.75 15.8784 26.75 15.8823 26.75C15.8863 26.75 15.8902 26.75 15.8941 26.75C15.8981 26.75 15.902 26.75 15.9059 26.75C15.9098 26.75 15.9138 26.75 15.9177 26.75C15.9216 26.75 15.9255 26.75 15.9294 26.75C15.9334 26.75 15.9373 26.75 15.9412 26.75C15.9451 26.75 15.949 26.75 15.9529 26.75C15.9568 26.75 15.9607 26.75 15.9646 26.75C15.9685 26.75 15.9724 26.75 15.9763 26.75C15.9802 26.75 15.9841 26.75 15.988 26.75C15.9918 26.75 15.9957 26.75 15.9996 26.75C16.0035 26.75 16.0074 26.75 16.0112 26.75C16.0151 26.75 16.019 26.75 16.0228 26.75C16.0267 26.75 16.0306 26.75 16.0344 26.75C16.0383 26.75 16.0422 26.75 16.046 26.75C16.0499 26.75 16.0537 26.75 16.0576 26.75C16.0614 26.75 16.0653 26.75 16.0691 26.75C16.073 26.75 16.0768 26.75 16.0807 26.75C16.0845 26.75 16.0883 26.75 16.0922 26.75C16.096 26.75 16.0998 26.75 16.1037 26.75C16.1075 26.75 16.1113 26.75 16.1151 26.75C16.119 26.75 16.1228 26.75 16.1266 26.75C16.1304 26.75 16.1342 26.75 16.138 26.75C16.1419 26.75 16.1457 26.75 16.1495 26.75C16.1533 26.75 16.1571 26.75 16.1609 26.75C16.1647 26.75 16.1685 26.75 16.1723 26.75C16.1761 26.75 16.1798 26.75 16.1836 26.75C16.1874 26.75 16.1912 26.75 16.195 26.75C16.1988 26.75 16.2025 26.75 16.2063 26.75C16.2101 26.75 16.2139 26.75 16.2176 26.75C16.2214 26.75 16.2252 26.75 16.2289 26.75C16.2327 26.75 16.2365 26.75 16.2402 26.75C16.244 26.75 16.2477 26.75 16.2515 26.75C16.2552 26.75 16.259 26.75 16.2627 26.75C16.2665 26.75 16.2702 26.75 16.274 26.75C16.2777 26.75 16.2815 26.75 16.2852 26.75C16.2889 26.75 16.2927 26.75 16.2964 26.75C16.3001 26.75 16.3038 26.75 16.3076 26.75C16.3113 26.75 16.315 26.75 16.3187 26.75C16.3225 26.75 16.3262 26.75 16.3299 26.75C16.3336 26.75 16.3373 26.75 16.341 26.75C16.3447 26.75 16.3484 26.75 16.3521 26.75C16.3558 26.75 16.3595 26.75 16.3632 26.75C16.3669 26.75 16.3706 26.75 16.3743 26.75C16.378 26.75 16.3817 26.75 16.3853 26.75C16.389 26.75 16.3927 26.75 16.3964 26.75C16.4001 26.75 16.4037 26.75 16.4074 26.75C16.4111 26.75 16.4147 26.75 16.4184 26.75C16.4221 26.75 16.4257 26.75 16.4294 26.75C16.4331 26.75 16.4367 26.75 16.4404 26.75C16.444 26.75 16.4477 26.75 16.4513 26.75C16.455 26.75 16.4586 26.75 16.4623 26.75C16.4659 26.75 16.4695 26.75 16.4732 26.75C16.4768 26.75 16.4805 26.75 16.4841 26.75C16.4877 26.75 16.4913 26.75 16.495 26.75C16.4986 26.75 16.5022 26.75 16.5058 26.75C16.5095 26.75 16.5131 26.75 16.5167 26.75C16.5203 26.75 16.5239 26.75 16.5275 26.75C16.5311 26.75 16.5347 26.75 16.5383 26.75C16.5419 26.75 16.5455 26.75 16.5491 26.75C16.5527 26.75 16.5563 26.75 16.5599 26.75C16.5635 26.75 16.5671 26.75 16.5707 26.75C16.5743 26.75 16.5778 26.75 16.5814 26.75C16.585 26.75 16.5886 26.75 16.5921 26.75C16.5957 26.75 16.5993 26.75 16.6029 26.75C16.6064 26.75 16.61 26.75 16.6135 26.75C16.6171 26.75 16.6207 26.75 16.6242 26.75C16.6278 26.75 16.6313 26.75 16.6349 26.75C16.6384 26.75 16.642 26.75 16.6455 26.75C16.6491 26.75 16.6526 26.75 16.6561 26.75C16.6597 26.75 16.6632 26.75 16.6667 26.75C16.6703 26.75 16.6738 26.75 16.6773 26.75C16.6809 26.75 16.6844 26.75 16.6879 26.75C16.6914 26.75 16.6949 26.75 16.6985 26.75C16.702 26.75 16.7055 26.75 16.709 26.75C16.7125 26.75 16.716 26.75 16.7195 26.75C16.723 26.75 16.7265 26.75 16.73 26.75C16.7335 26.75 16.737 26.75 16.7405 26.75C16.744 26.75 16.7475 26.75 16.751 26.75C16.7545 26.75 16.7579 26.75 16.7614 26.75C16.7649 26.75 16.7684 26.75 16.7719 26.75C16.7753 26.75 16.7788 26.75 16.7823 26.75C16.7857 26.75 16.7892 26.75 16.7927 26.75C16.7961 26.75 16.7996 26.75 16.803 26.75C16.8065 26.75 16.81 26.75 16.8134 26.75C16.8169 26.75 16.8203 26.75 16.8237 26.75C16.8272 26.75 16.8306 26.75 16.8341 26.75C16.8375 26.75 16.841 26.75 16.8444 26.75C16.8478 26.75 16.8513 26.75 16.8547 26.75C16.8581 26.75 16.8615 26.75 16.865 26.75C16.8684 26.75 16.8718 26.75 16.8752 26.75C16.8786 26.75 16.882 26.75 16.8855 26.75C16.8889 26.75 16.8923 26.75 16.8957 26.75C16.8991 26.75 16.9025 26.75 16.9059 26.75C16.9093 26.75 16.9127 26.75 16.9161 26.75C16.9195 26.75 16.9229 26.75 16.9262 26.75C16.9296 26.75 16.933 26.75 16.9364 26.75C16.9398 26.75 16.9432 26.75 16.9465 26.75C16.9499 26.75 16.9533 26.75 16.9566 26.75C16.96 26.75 16.9634 26.75 16.9667 26.75C16.9701 26.75 16.9735 26.75 16.9768 26.75C16.9802 26.75 16.9835 26.75 16.9869 26.75C16.9903 26.75 16.9936 26.75 16.9969 26.75C17.0003 26.75 17.0036 26.75 17.007 26.75C17.0103 26.75 17.0137 26.75 17.017 26.75C17.0203 26.75 17.0237 26.75 17.027 26.75C17.0303 26.75 17.0336 26.75 17.037 26.75C17.0403 26.75 17.0436 26.75 17.0469 26.75C17.0503 26.75 17.0536 26.75 17.0569 26.75C17.0602 26.75 17.0635 26.75 17.0668 26.75C17.0701 26.75 17.0734 26.75 17.0767 26.75C17.08 26.75 17.0833 26.75 17.0866 26.75C17.0899 26.75 17.0932 26.75 17.0965 26.75C17.0998 26.75 17.1031 26.75 17.1063 26.75C17.1096 26.75 17.1129 26.75 17.1162 26.75C17.1195 26.75 17.1227 26.75 17.126 26.75C17.1293 26.75 17.1325 26.75 17.1358 26.75C17.1391 26.75 17.1423 26.75 17.1456 26.75C17.1489 26.75 17.1521 26.75 17.1554 26.75C17.1586 26.75 17.1619 26.75 17.1651 26.75C17.1684 26.75 17.1716 26.75 17.1749 26.75C17.1781 26.75 17.1813 26.75 17.1846 26.75C17.1878 26.75 17.191 26.75 17.1943 26.75C17.1975 26.75 17.2007 26.75 17.204 26.75C17.2072 26.75 17.2104 26.75 17.2136 26.75C17.2168 26.75 17.2201 26.75 17.2233 26.75C17.2265 26.75 17.2297 26.75 17.2329 26.75C17.2361 26.75 17.2393 26.75 17.2425 26.75C17.2457 26.75 17.2489 26.75 17.2521 26.75C17.2553 26.75 17.2585 26.75 17.2617 26.75C17.2649 26.75 17.2681 26.75 17.2713 26.75C17.2744 26.75 17.2776 26.75 17.2808 26.75C17.284 26.75 17.2872 26.75 17.2903 26.75C17.2935 26.75 17.2967 26.75 17.2998 26.75C17.303 26.75 17.3062 26.75 17.3093 26.75C17.3125 26.75 17.3156 26.75 17.3188 26.75C17.322 26.75 17.3251 26.75 17.3283 26.75C17.3314 26.75 17.3346 26.75 17.3377 26.75C17.3408 26.75 17.344 26.75 17.3471 26.75C17.3503 26.75 17.3534 26.75 17.3565 26.75C17.3597 26.75 17.3628 26.75 17.3659 26.75C17.369 26.75 17.3722 26.75 17.3753 26.75C17.3784 26.75 17.3815 26.75 17.3846 26.75C17.3878 26.75 17.3909 26.75 17.394 26.75C17.3971 26.75 17.4002 26.75 17.4033 26.75C17.4064 26.75 17.4095 26.75 17.4126 26.75C17.4157 26.75 17.4188 26.75 17.4219 26.75C17.425 26.75 17.4281 26.75 17.4311 26.75C17.4342 26.75 17.4373 26.75 17.4404 26.75C17.4435 26.75 17.4465 26.75 17.4496 26.75C17.4527 26.75 17.4558 26.75 17.4588 26.75C17.4619 26.75 17.465 26.75 17.468 26.75C17.4711 26.75 17.4742 26.75 17.4772 26.75C17.4803 26.75 17.4833 26.75 17.4864 26.75C17.4894 26.75 17.4925 26.75 17.4955 26.75C17.4986 26.75 17.5016 26.75 17.5046 26.75C17.5077 26.75 17.5107 26.75 17.5138 26.75C17.5168 26.75 17.5198 26.75 17.5228 26.75C17.5259 26.75 17.5289 26.75 17.5319 26.75C17.5349 26.75 17.538 26.75 17.541 26.75C17.544 26.75 17.547 26.75 17.55 26.75C17.553 26.75 17.556 26.75 17.559 26.75C17.562 26.75 17.565 26.75 17.568 26.75C17.571 26.75 17.574 26.75 17.577 26.75C17.58 26.75 17.583 26.75 17.586 26.75C17.589 26.75 17.592 26.75 17.595 26.75C17.5979 26.75 17.6009 26.75 17.6039 26.75C17.6069 26.75 17.6098 26.75 17.6128 26.75V25.25ZM10.7705 25.25C9.52787 25.25 8.52051 24.2426 8.52051 23H7.02051C7.02051 25.0711 8.69944 26.75 10.7705 26.75V25.25ZM8.52051 23V15.7459H7.02051V23H8.52051Z" fill="#333948" fill-opacity="0.5"/>
<path d="M5 9H11" stroke="#313949" stroke-width="2" stroke-linecap="square"/>
<path d="M8 6V12" stroke="#313949" stroke-width="2" stroke-linecap="square"/>
<path d="M21 27C24.866 27 28 23.866 28 20C28 16.134 24.866 13 21 13C17.134 13 14 16.134 14 20C14 23.866 17.134 27 21 27Z" stroke="#313949" stroke-width="2" stroke-linecap="round" stroke-linejoin="round"/>
<path d="M25 21.9134C24.1591 23.2191 22.627 24.014 20.9784 23.9998C19.3298 23.9856 17.8141 23.1644 17 21.8443M17.5 18.9208C17.5 18.4123 17.9477 18 18.5 18C19.0523 18 19.5 18.4123 19.5 18.9208M22.5 18.9208C22.5 18.4123 22.9477 18 23.5 18C24.0523 18 24.5 18.4123 24.5 18.9208" stroke="#313949" stroke-width="1.5" stroke-linecap="round" stroke-linejoin="round"/>
</svg>
