<svg width="32" height="32" viewBox="0 0 32 32" fill="none" xmlns="http://www.w3.org/2000/svg">
<path d="M18.6621 9.95362C17.8293 9.65983 16.9333 9.5 16 9.5C11.5817 9.5 8 13.0817 8 17.5C8 21.9183 11.5817 25.5 16 25.5C20.4183 25.5 24 21.9183 24 17.5C24 15.3875 23.1812 13.4663 21.8437 12.0364L23.5607 10.5" stroke="white" stroke-width="1.75" stroke-linejoin="round"/>
<path d="M18.6621 9.95362C17.8293 9.65983 16.9333 9.5 16 9.5C11.5817 9.5 8 13.0817 8 17.5C8 21.9183 11.5817 25.5 16 25.5C20.4183 25.5 24 21.9183 24 17.5C24 15.3875 23.1812 13.4663 21.8437 12.0364" stroke="white" stroke-width="1.75" stroke-linecap="round" stroke-linejoin="round"/>
<path d="M13.5 7.03882V7C13.5 6.44772 13.9477 6 14.5 6H17.5C18.0523 6 18.5 6.44772 18.5 7V7.0813" stroke="white" stroke-width="1.5" stroke-linecap="square"/>
<path d="M16 18V14" stroke="white" stroke-opacity="0.7" stroke-width="1.5" stroke-linecap="round"/>
</svg>
