<svg width="32" height="32" viewBox="0 0 32 32" fill="none" xmlns="http://www.w3.org/2000/svg">
<path fill-rule="evenodd" clip-rule="evenodd" d="M9.67955 7.84257C9.87646 7.64566 10.1435 7.53503 10.422 7.53503H16.888V11.695C16.888 12.1506 17.069 12.5876 17.3912 12.9098C17.7134 13.232 18.1504 13.413 18.606 13.413H22.626V23.5782C22.6259 23.7161 22.5985 23.8527 22.5456 23.9801C22.4926 24.1074 22.4151 24.2231 22.3174 24.3205C22.2198 24.4179 22.1039 24.4951 21.9763 24.5477C21.8488 24.6003 21.7122 24.6273 21.5743 24.627L21.573 24.627H20.5686L9.49549 8.091C9.54382 8.00037 9.6056 7.91652 9.67955 7.84257ZM9.49546 8.09107C9.49547 8.09104 9.49548 8.09102 9.49549 8.091L8.61889 6.78191C9.0971 6.30369 9.74571 6.03503 10.422 6.03503H17.905H17.9055C18.1292 6.03517 18.3506 6.07995 18.5568 6.16676C18.7627 6.25348 18.9493 6.3804 19.1057 6.54008L19.1062 6.5406L23.6173 11.1397C23.9432 11.4718 24.1259 11.9185 24.126 12.3838V12.384V23.579V23.5799C24.1256 23.9149 24.0593 24.2465 23.9307 24.5558C23.8021 24.8652 23.6138 25.1461 23.3766 25.3827C23.1394 25.6192 22.8579 25.8067 22.5483 25.9344C22.239 26.062 21.9076 26.1274 21.573 26.127L20.5686 24.627H20.5674L9.49546 8.09107ZM9.49546 8.09107C9.41513 8.24174 9.37201 8.41117 9.37201 8.58503V23.577C9.37201 23.8555 9.48263 24.1226 9.67955 24.3195C9.87646 24.5164 10.1435 24.627 10.422 24.627H20.5674L21.5718 26.127L10.422 26.127C9.74571 26.127 9.0971 25.8584 8.61889 25.3802C8.14067 24.9019 7.87201 24.2533 7.87201 23.577V8.58503C7.87201 7.90873 8.14067 7.26013 8.61889 6.78191L9.49546 8.09107ZM22.2746 11.913L18.388 7.95053V11.695C18.388 11.7528 18.411 11.8082 18.4519 11.8491C18.4927 11.89 18.5482 11.913 18.606 11.913H22.2746Z" fill="white" fill-opacity="0.7"/>
<path d="M10.7 21.656C10.786 21.7014 10.8749 21.7411 10.966 21.775C11.1335 21.839 11.3118 21.8699 11.491 21.866C11.612 21.8711 11.7324 21.8457 11.841 21.792C11.9315 21.7413 12.002 21.6612 12.041 21.565C12.0912 21.437 12.1219 21.3022 12.132 21.165C12.148 20.999 12.1563 20.7974 12.157 20.56V18.03H13.521V20.557C13.5234 20.9012 13.5014 21.245 13.455 21.586C13.4199 21.8682 13.328 22.1403 13.185 22.386C13.0408 22.6169 12.8278 22.7967 12.576 22.9C12.2301 23.0321 11.861 23.0927 11.491 23.078C11.2913 23.0801 11.0923 23.0539 10.9 23C10.7253 22.9499 10.5598 22.8719 10.41 22.769L10.7 21.656Z" fill="white"/>
<path d="M16.892 19.654L16.773 19.584C16.6709 19.5257 16.5658 19.4729 16.458 19.426C16.3191 19.3648 16.1765 19.3123 16.031 19.269C15.8836 19.2233 15.7303 19.1997 15.576 19.199C15.4773 19.1953 15.3791 19.2144 15.289 19.255C15.2539 19.2721 15.2246 19.2991 15.2047 19.3327C15.1848 19.3663 15.1752 19.405 15.177 19.444C15.1772 19.4841 15.1875 19.5235 15.2071 19.5585C15.2267 19.5935 15.2549 19.6229 15.289 19.644C15.3878 19.7062 15.4953 19.7533 15.608 19.784L16.102 19.938C16.3788 20.0182 16.6468 20.1261 16.902 20.26C17.1116 20.3682 17.2899 20.5283 17.42 20.725C17.5515 20.9534 17.6147 21.2147 17.602 21.478C17.6104 21.7383 17.5552 21.9968 17.441 22.231C17.3382 22.4289 17.1863 22.5973 17 22.72C16.8143 22.8431 16.608 22.9322 16.391 22.983C16.1663 23.0366 15.936 23.0634 15.705 23.063C15.4546 23.062 15.2049 23.0375 14.959 22.99C14.7032 22.9429 14.4515 22.876 14.206 22.79C13.9756 22.7106 13.753 22.6102 13.541 22.49L14.129 21.29L14.269 21.374C14.3891 21.4437 14.513 21.5068 14.64 21.563C14.8071 21.6378 14.9792 21.7009 15.155 21.752C15.34 21.8073 15.532 21.8356 15.725 21.836C15.8325 21.8453 15.9404 21.8249 16.037 21.777C16.064 21.7605 16.0862 21.7372 16.1015 21.7095C16.1167 21.6818 16.1245 21.6506 16.124 21.619C16.1234 21.5702 16.1085 21.5227 16.0811 21.4824C16.0537 21.442 16.0151 21.4106 15.97 21.392C15.8418 21.3282 15.7079 21.2767 15.57 21.238C15.404 21.1886 15.221 21.1313 15.021 21.066C14.7699 20.9861 14.5299 20.8745 14.307 20.734C14.1353 20.6224 13.9951 20.4684 13.9 20.287C13.8064 20.0944 13.7608 19.882 13.767 19.668C13.7551 19.3405 13.8457 19.0175 14.026 18.744C14.1955 18.4987 14.4285 18.3041 14.7 18.181C14.9869 18.0515 15.2983 17.9857 15.613 17.988C15.8491 17.9878 16.0843 18.0173 16.313 18.076C16.5304 18.1314 16.7433 18.203 16.95 18.29C17.15 18.374 17.3237 18.4533 17.471 18.528L16.892 19.654Z" fill="white"/>
<path d="M20 23.042C19.6455 23.0468 19.2942 22.9737 18.971 22.828C18.6705 22.6913 18.4003 22.4962 18.176 22.254C17.9568 22.0174 17.7835 21.742 17.665 21.442C17.5465 21.1445 17.4857 20.8272 17.486 20.507C17.4846 20.1825 17.5489 19.861 17.675 19.562C17.8005 19.265 17.9799 18.9938 18.204 18.762C18.4312 18.5255 18.7031 18.3365 19.004 18.206C19.3281 18.0661 19.678 17.996 20.031 18C20.3855 17.9952 20.7368 18.0682 21.06 18.214C21.3603 18.3508 21.6294 18.5475 21.851 18.792C22.0678 19.0308 22.2395 19.3069 22.358 19.607C22.476 19.9018 22.5367 20.2164 22.537 20.534C22.5378 20.8559 22.4746 21.1747 22.351 21.472C22.2277 21.7692 22.0496 22.0406 21.826 22.272C21.5982 22.5088 21.3265 22.699 21.026 22.832C20.7029 22.9743 20.353 23.0459 20 23.042ZM18.873 20.522C18.8725 20.6869 18.896 20.8509 18.943 21.009C18.9872 21.1604 19.0584 21.3027 19.153 21.429C19.2465 21.5528 19.3673 21.6535 19.506 21.723C19.6643 21.7991 19.8384 21.8364 20.014 21.832C20.1908 21.8363 20.3661 21.7979 20.525 21.72C20.6655 21.65 20.7869 21.5471 20.879 21.42C20.9695 21.2901 21.0372 21.1457 21.079 20.993C21.1231 20.8368 21.1454 20.6753 21.145 20.513C21.1456 20.3494 21.122 20.1866 21.075 20.03C21.0303 19.8796 20.9592 19.7384 20.865 19.613C20.7711 19.4887 20.6487 19.3888 20.508 19.322C20.3514 19.2497 20.1804 19.2138 20.008 19.217C19.8321 19.2123 19.6576 19.2508 19.5 19.329C19.3613 19.4013 19.2407 19.5038 19.147 19.629C19.0524 19.7548 18.9822 19.8973 18.94 20.049C18.8971 20.203 18.8756 20.3621 18.876 20.522H18.873Z" fill="white"/>
<path d="M24.045 20.557V23H22.681V18.03H23.745L25.74 20.557V18.03H27.1V23H26.02L24.045 20.557Z" fill="white"/>
</svg>
