<svg width="32" height="32" viewBox="0 0 32 32" fill="none" xmlns="http://www.w3.org/2000/svg">
<path fill-rule="evenodd" clip-rule="evenodd" d="M21.2973 6.3481C21.3755 6.31514 21.4519 6.2829 21.5267 6.25163C21.62 6.6077 21.7255 7.05397 21.8615 7.62905C22.0215 8.30574 22.2236 9.1608 22.4977 10.2571L23.4075 13.896C23.3272 13.9437 23.2196 14.0038 23.0746 14.0804C22.8148 14.2177 22.4759 14.3872 22.0206 14.6148C21.145 15.0527 20.601 15.2629 20.1258 15.374C19.6556 15.4839 19.2017 15.5093 18.4678 15.5093C17.8772 15.5093 17.4112 15.4232 16.7993 15.3101L16.7993 15.3101L16.6392 15.2805C15.9441 15.153 15.1276 15.0178 13.9705 15.0147C12.3258 15.0102 11.1155 15.6094 10.2961 16.1143L8.13677 8.01692C8.49753 7.83681 8.9328 7.64124 9.39599 7.47038C10.1408 7.19563 10.8789 7.01449 11.4678 7.01449C12.382 7.01449 13.1328 7.1285 13.9129 7.25327L14.0112 7.26901C14.7548 7.38823 15.554 7.51637 16.4699 7.51446C18.5411 7.51015 20.1165 6.84593 21.2973 6.3481ZM12.9321 25.7498L10.8436 18.1459L10.972 18.0629C11.7656 17.5493 12.5975 17.011 13.9651 17.0146C14.9502 17.0173 15.6337 17.1294 16.2781 17.2477L16.4522 17.2799C17.0479 17.3907 17.6857 17.5093 18.4678 17.5093C19.234 17.5093 19.8776 17.4859 20.5811 17.3215C21.2797 17.1581 21.9857 16.8684 22.9151 16.4037L23.0358 16.3433C23.8266 15.9481 24.3894 15.6668 24.7319 15.4184C24.9343 15.2716 25.1562 15.0714 25.3033 14.7776C25.4528 14.4792 25.4678 14.1963 25.4678 14.0145V13.8914L25.438 13.7719L24.438 9.77205C24.1826 8.75041 23.9788 7.89048 23.8137 7.19408L23.8136 7.19376C23.6647 6.5652 23.5473 6.06987 23.452 5.70913C23.3539 5.33756 23.2471 4.97351 23.1044 4.70551C23.0342 4.57361 22.8952 4.34575 22.64 4.18209C22.3206 3.97726 21.9585 3.95821 21.6515 4.06055C21.1479 4.22848 20.6952 4.41888 20.2521 4.60529C19.1457 5.07065 18.0987 5.51107 16.4658 5.51446C15.714 5.51603 15.056 5.41074 14.282 5.28688L14.2288 5.27837C13.4402 5.15226 12.5537 5.01449 11.4678 5.01449C10.534 5.01449 9.53809 5.28622 8.70381 5.59397C7.85554 5.90689 7.09279 6.28793 6.59893 6.57159C6.11481 6.84966 5.90493 7.40961 6.04042 7.91769L8.71537 17.9487L8.71534 17.9487L8.71732 17.9559L11.0036 26.2795C11.1498 26.8121 11.7001 27.1252 12.2327 26.9789C12.7653 26.8327 13.0784 26.2823 12.9321 25.7498Z" fill="#313949"/>
</svg>
