<svg width="32" height="32" viewBox="0 0 32 32" fill="none" xmlns="http://www.w3.org/2000/svg">
<path d="M26 8H25C24.4477 8 24 8.44772 24 9V24C24 24.5523 24.4477 25 25 25H26" stroke="white" stroke-opacity="0.7" stroke-width="1.5"/>
<path d="M6 8H7.08789C7.64018 8 8.08789 8.44772 8.08789 9V24C8.08789 24.5523 7.64018 25 7.08789 25H6" stroke="white" stroke-opacity="0.7" stroke-width="1.5"/>
<path d="M12.0879 9L12.0879 24C12.0879 24.5523 12.5356 25 13.0879 25H19.0879C19.6402 25 20.0879 24.5523 20.0879 24V9C20.0879 8.44772 19.6402 8 19.0879 8H13.0879C12.5356 8 12.0879 8.44772 12.0879 9Z" stroke="white" stroke-width="1.75"/>
</svg>
