<svg width="26" height="26" viewBox="0 0 26 26" fill="none" xmlns="http://www.w3.org/2000/svg">
<path fill-rule="evenodd" clip-rule="evenodd" d="M10 9C10 5.13401 13.134 2 17 2C20.866 2 24 5.13401 24 9C24 12.7987 20.9949 15.0704 18.3356 15.5136C17.0435 15.729 15.74 15.502 14.9472 15.1056C14.5449 14.9044 14.0717 14.9999 13.7766 15.3092L12.086 16.9998C12.0859 16.9998 12.0726 17.0114 12.0384 17.0131C11.7129 17.0287 11.2296 17.0645 10.7654 17.1501C10.5338 17.1928 10.2822 17.2523 10.0464 17.3385C9.82733 17.4187 9.53243 17.5534 9.29289 17.7929C8.97451 18.1113 8.82541 18.5496 8.74376 18.8272C8.65298 19.1359 8.58317 19.485 8.524 19.781L8.51942 19.8039C8.45456 20.1282 8.40063 20.3939 8.33751 20.6085C8.31764 20.676 8.30033 20.7255 8.28693 20.7605L8.2653 20.7652C8.1318 20.793 7.952 20.808 7.70459 20.8192C7.65846 20.8213 7.60823 20.8233 7.55524 20.8254C7.36112 20.8331 7.12999 20.8423 6.92791 20.8633C6.69581 20.8874 6.30112 20.9412 5.96312 21.1563C5.55733 21.4146 5.3771 21.8032 5.29117 22.0796C5.20529 22.3558 5.17586 22.643 5.15932 22.8535C5.15018 22.9698 5.14488 23.0579 5.14022 23.1353C5.13424 23.2345 5.12933 23.3161 5.11874 23.4169C5.10914 23.5084 5.09926 23.5542 5.09594 23.5696C5.09549 23.5717 5.09516 23.5732 5.09497 23.5742C5.02473 23.7176 4.96964 23.859 4.93439 23.9495L4.91827 23.9907L4.9146 24H2V20.9142L10.1908 12.7234C10.35 12.5715 10.4525 12.3725 10.4872 12.1602C10.5104 12.0178 10.5031 11.8695 10.4618 11.7255C10.4431 11.66 10.4177 11.596 10.3854 11.5347C10.0144 10.7809 10 10.017 10 9ZM8.32296 11.7628C7.99941 10.7883 7.99972 9.84787 7.99999 9.06575L8 9C8 4.02944 12.0294 0 17 0C21.9706 0 26 4.02944 26 9C26 14.0378 22.0051 16.9296 18.6644 17.4864C17.2899 17.7155 15.8677 17.5747 14.7342 17.18L13.5 18.4142C13.123 18.7913 12.6276 18.9871 12.1345 19.0108C11.8466 19.0246 11.4647 19.0548 11.128 19.1169C10.9593 19.148 10.8265 19.1828 10.7336 19.2168L10.72 19.2219C10.7059 19.2571 10.686 19.3117 10.6625 19.3915C10.5994 19.6061 10.5454 19.8718 10.4806 20.1961L10.476 20.219C10.4168 20.5149 10.347 20.8641 10.2562 21.1728C10.1746 21.4504 10.0255 21.8887 9.70711 22.2071C9.37738 22.5368 8.96106 22.6634 8.6722 22.7234C8.3682 22.7866 8.048 22.8057 7.79541 22.8172C7.72025 22.8206 7.6513 22.8233 7.58721 22.8259L7.58712 22.8259C7.42361 22.8325 7.29167 22.8378 7.16883 22.8492C7.16341 22.8939 7.15814 22.947 7.15318 23.0101C7.14975 23.0537 7.14585 23.1145 7.14144 23.1834L7.14143 23.1836L7.14143 23.1836C7.13246 23.3235 7.12137 23.4966 7.10782 23.6257C7.08642 23.8295 7.04256 24.1509 6.89443 24.4472C6.86331 24.5095 6.84119 24.5658 6.80379 24.661L6.77827 24.7259C6.73378 24.8384 6.65627 25.0334 6.52893 25.2225C6.38726 25.4328 6.18961 25.6305 5.91238 25.7746C5.64904 25.9115 5.36446 25.9738 5.08062 25.9967L5.04038 26H5H1.5C0.671573 26 0 25.3284 0 24.5V20.9142C0 20.3838 0.210714 19.8751 0.585786 19.5L8.32296 11.7628ZM7.20511 22.6615L7.20367 22.6652C7.20458 22.6627 7.20508 22.6615 7.20511 22.6615Z" fill="#313949"/>
<circle cx="19" cy="7" r="2.25" stroke="#333948" stroke-opacity="0.5" stroke-width="1.5"/>
</svg>
