<svg width="32" height="32" viewBox="0 0 32 32" fill="none" xmlns="http://www.w3.org/2000/svg">
<path d="M15.339 18.874H16.839V12.874H15.339V18.874Z" fill="#313949"/>
<path d="M13.089 16.624H19.089V15.124H13.089V16.624Z" fill="#313949"/>
<path d="M16.089 9.5C14.3651 9.5 12.7118 10.1848 11.4928 11.4038C10.2738 12.6228 9.58899 14.2761 9.58899 16C9.58899 17.7239 10.2738 19.3772 11.4928 20.5962C12.7118 21.8152 14.3651 22.5 16.089 22.5C17.8129 22.5 19.4662 21.8152 20.6852 20.5962C21.9042 19.3772 22.589 17.7239 22.589 16C22.589 14.2761 21.9042 12.6228 20.6852 11.4038C19.4662 10.1848 17.8129 9.5 16.089 9.5ZM16.089 11C16.7456 11 17.3958 11.1293 18.0024 11.3806C18.609 11.6319 19.1602 12.0002 19.6245 12.4645C20.0888 12.9288 20.4571 13.48 20.7084 14.0866C20.9597 14.6932 21.089 15.3434 21.089 16C21.089 16.6566 20.9597 17.3068 20.7084 17.9134C20.4571 18.52 20.0888 19.0712 19.6245 19.5355C19.1602 19.9998 18.609 20.3681 18.0024 20.6194C17.3958 20.8707 16.7456 21 16.089 21C14.7629 21 13.4911 20.4732 12.5535 19.5355C11.6158 18.5979 11.089 17.3261 11.089 16C11.089 15.3434 11.2183 14.6932 11.4696 14.0866C11.7209 13.48 12.0892 12.9288 12.5535 12.4645C13.4911 11.5268 14.7629 11 16.089 11Z" fill="#313949"/>
<path d="M26.889 14.939L29.45 17.5L28.389 18.561L27.689 17.861C27.246 20.6189 25.8353 23.1289 23.7096 24.941C21.5839 26.7532 18.8823 27.749 16.089 27.75C13.4551 27.7542 10.8967 26.8695 8.82805 25.239L8.55105 25.014L9.51405 23.864C11.356 25.4094 13.6847 26.2545 16.089 26.25C18.5021 26.2501 20.8379 25.399 22.6853 23.8466C24.5327 22.2943 25.7734 20.14 26.189 17.763L25.389 18.563L24.328 17.5L26.889 14.939ZM16.089 4.25001C18.1958 4.24703 20.2642 4.81295 22.076 5.88801L22.41 6.09401L21.602 7.35801C19.9563 6.30508 18.0428 5.74696 16.089 5.75001C13.586 5.75026 11.1695 6.66621 9.29521 8.32519C7.4209 9.98416 6.21826 12.2715 5.91405 14.756L6.61405 14.056L7.67505 15.117L6.17505 16.617L5.11005 17.682L2.55005 15.121L3.61105 14.06L4.39605 14.845C4.68293 11.9429 6.03868 9.25115 8.19975 7.29301C10.3608 5.33488 13.1728 4.25026 16.089 4.25001Z" fill="#333948" fill-opacity="0.5"/>
</svg>
