<svg width="32" height="33" viewBox="0 0 32 33" fill="none" xmlns="http://www.w3.org/2000/svg">
<path fill-rule="evenodd" clip-rule="evenodd" d="M10.0575 8.55754C10.2545 8.36062 10.5215 8.25 10.8 8.25H17.2661V12.4098C17.2661 12.8654 17.4471 13.3024 17.7693 13.6246C18.0915 13.9468 18.5285 14.1278 18.9841 14.1278H23.004V24.2932C23.0038 24.4311 22.9765 24.5677 22.9236 24.695C22.8706 24.8224 22.7931 24.9381 22.6954 25.0355C22.5978 25.1329 22.4819 25.2101 22.3543 25.2627C22.2268 25.3153 22.0902 25.3422 21.9523 25.342L21.951 25.342H20.9466L9.87348 8.80596C9.92181 8.71533 9.98359 8.63149 10.0575 8.55754ZM9.87345 8.80603C9.87346 8.80601 9.87347 8.80599 9.87348 8.80596L8.99688 7.49688C9.4751 7.01866 10.1237 6.75 10.8 6.75H18.283H18.2834C18.5072 6.75013 18.7286 6.79492 18.9348 6.88173C19.1407 6.96845 19.3273 7.09536 19.4837 7.25504L19.4842 7.25556L23.9953 11.8547C24.3212 12.1868 24.5038 12.6335 24.504 13.0988V13.099V24.294V24.2948C24.5036 24.6298 24.4373 24.9615 24.3087 25.2708C24.1801 25.5801 23.9918 25.8611 23.7546 26.0976C23.5174 26.3342 23.2359 26.5217 22.9262 26.6494C22.6169 26.7769 22.2856 26.8424 21.951 26.842L20.9466 25.342H20.9454L9.87345 8.80603ZM9.87345 8.80603C9.79312 8.95671 9.75 9.12613 9.75 9.3V24.292C9.75 24.5705 9.86062 24.8375 10.0575 25.0345C10.2545 25.2314 10.5215 25.342 10.8 25.342H20.9454L21.9497 26.842L10.8 26.842C10.1237 26.842 9.4751 26.5733 8.99688 26.0951C8.51866 25.6169 8.25 24.9683 8.25 24.292V9.3C8.25 8.6237 8.51866 7.9751 8.99688 7.49688L9.87345 8.80603ZM22.6525 12.6278L18.7661 8.66562V12.4098C18.7661 12.4676 18.7891 12.5231 18.83 12.564C18.8708 12.6048 18.9263 12.6278 18.9841 12.6278H22.6525Z" fill="#333948" fill-opacity="0.5"/>
<path d="M23.0327 23.7151V18.7451H26.4417V19.9351H24.3977V20.7611H26.0637V21.8671H24.3977V23.7151H23.0327Z" fill="#313949"/>
<path d="M18.459 23.7148V18.7448H20.37C20.8526 18.7277 21.3308 18.8425 21.753 19.0768C22.1145 19.2888 22.4064 19.6016 22.593 19.9768C22.785 20.3649 22.8823 20.7929 22.877 21.2258C22.8879 21.684 22.7805 22.1373 22.565 22.5418C22.3631 22.9095 22.0592 23.2109 21.69 23.4098C21.2829 23.6217 20.8287 23.7266 20.37 23.7148H18.459ZM21.49 21.2228C21.4956 20.9907 21.451 20.7601 21.359 20.5468C21.2776 20.362 21.1438 20.2052 20.974 20.0958C20.7937 19.9853 20.5853 19.9294 20.374 19.9348H19.828V22.5248H20.374C20.5884 22.5317 20.7997 22.4731 20.98 22.3568C21.148 22.2406 21.2794 22.079 21.359 21.8908C21.4494 21.68 21.4941 21.4523 21.49 21.2228Z" fill="#313949"/>
<path d="M14.5352 23.7152V18.7452H16.6772C16.9094 18.7429 17.1391 18.7932 17.3492 18.8922C17.5513 18.9888 17.7322 19.1248 17.8812 19.2922C18.0288 19.4554 18.146 19.6437 18.2272 19.8482C18.3076 20.0461 18.3493 20.2576 18.3502 20.4712C18.3509 20.7617 18.2798 21.0478 18.1432 21.3042C18.0084 21.5625 17.8111 21.7829 17.5692 21.9452C17.3151 22.1134 17.0158 22.1999 16.7112 22.1932H15.9002V23.7152H14.5352ZM15.9002 20.9992H16.6212C16.6784 20.9986 16.7343 20.9816 16.7822 20.9502C16.8407 20.9081 16.8856 20.8497 16.9112 20.7822C16.9501 20.6819 16.9681 20.5747 16.9642 20.4672C16.9697 20.3553 16.9491 20.2437 16.9042 20.1412C16.8735 20.0742 16.8228 20.0183 16.7592 19.9812C16.7064 19.9521 16.6474 19.9363 16.5872 19.9352H15.9002V20.9992Z" fill="#313949"/>
</svg>
