<svg width="32" height="32" viewBox="0 0 32 32" fill="none" xmlns="http://www.w3.org/2000/svg">
<path d="M27.3389 14.689L29.8999 17.25L28.8389 18.311L28.1389 17.611C27.6959 20.3689 26.2851 22.8789 24.1595 24.691C22.0338 26.5032 19.3322 27.499 16.5389 27.5C13.905 27.5042 11.3466 26.6195 9.27793 24.989L9.00093 24.764L9.96394 23.614C11.8059 25.1594 14.1345 26.0045 16.5389 26C18.952 26.0001 21.2878 25.149 23.1352 23.5966C24.9826 22.0443 26.2233 19.89 26.6389 17.513L25.8389 18.313L24.7779 17.25L27.3389 14.689ZM16.5389 4.00001C18.6457 3.99703 20.7141 4.56295 22.5259 5.63801L22.8599 5.84401L22.0519 7.10801C20.4062 6.05508 18.4927 5.49696 16.5389 5.50001C14.0359 5.50026 11.6194 6.41621 9.74509 8.07519C7.87078 9.73416 6.66814 12.0215 6.36393 14.506L7.06393 13.806L8.12493 14.867L6.62493 16.367L5.56393 17.428L3.00293 14.867L4.06393 13.806L4.84893 14.591C5.1367 11.6901 6.49242 8.99978 8.65276 7.04254C10.8131 5.0853 13.6238 4.00091 16.5389 4.00001Z" fill="white" fill-opacity="0.7"/>
<path fill-rule="evenodd" clip-rule="evenodd" d="M15.4307 10.3729C16.2035 10.2034 16.9338 10.2092 17.7095 10.3902L17.8354 11.0144C18.2583 11.1392 18.5663 11.2647 18.8421 11.4113L19.5483 11.1928C19.8654 11.3961 20.1572 11.6287 20.411 11.8825C20.6839 12.1553 20.9323 12.4705 21.145 12.8176L20.805 13.3276C21.0176 13.7191 21.1474 14.0324 21.2404 14.3421L21.8775 14.6844C21.9594 15.0535 22.0009 15.4239 22 15.7819C22 16.1653 21.9523 16.5651 21.8597 16.9597L21.2599 17.0802C21.1305 17.5087 20.9995 17.8216 20.8464 18.1026L21.056 18.7991C20.8516 19.118 20.6198 19.4087 20.3668 19.6617C20.0935 19.935 19.7779 20.1837 19.4322 20.3948L18.9121 20.0483C18.5281 20.2519 18.2205 20.3765 17.9161 20.466L17.5662 21.1279C17.1961 21.2086 16.8271 21.25 16.4724 21.25C16.0765 21.25 15.6846 21.2022 15.2897 21.1079L15.1603 20.4676C14.7549 20.3415 14.4585 20.2163 14.1913 20.0718L13.4556 20.3086C13.1334 20.1034 12.84 19.8698 12.5894 19.6172C12.3161 19.346 12.0685 19.0297 11.8547 18.684L12.2282 18.1226C12.0353 17.7571 11.9162 17.4652 11.8288 17.1776L11.1237 16.8221C11.041 16.4485 10.9991 16.0755 11 15.7192C10.999 15.3373 11.0467 14.939 11.1423 14.5405L11.8071 14.4057C11.9284 14.0058 12.0483 13.7142 12.1862 13.4526L11.9404 12.7069C12.1471 12.383 12.3809 12.0893 12.6334 11.8388C12.9057 11.5654 13.2219 11.3165 13.5678 11.1052L14.1178 11.4714C14.4921 11.269 14.7894 11.1444 15.0808 11.054L15.4307 10.3729Z" stroke="white" stroke-width="1.25" stroke-linecap="round" stroke-linejoin="round"/>
<path d="M16.5 17.25C17.3284 17.25 18 16.5784 18 15.75C18 14.9216 17.3284 14.25 16.5 14.25C15.6716 14.25 15 14.9216 15 15.75C15 16.5784 15.6716 17.25 16.5 17.25Z" stroke="white" stroke-width="1.25" stroke-linecap="round" stroke-linejoin="round"/>
</svg>
