<svg width="32" height="32" viewBox="0 0 32 32" fill="none" xmlns="http://www.w3.org/2000/svg">
<path fill-rule="evenodd" clip-rule="evenodd" d="M15.741 15.739C14.9914 12.2931 12.758 10.6446 10.7462 9.88877C9.75339 9.5158 8.81402 9.35752 8.12609 9.29135C7.78061 9.25813 7.49434 9.24774 7.29097 9.24583C7.18918 9.24487 7.10782 9.24604 7.04982 9.24756C7.02081 9.24832 6.99762 9.24918 6.9806 9.2499L6.95974 9.25086L6.95286 9.25122L6.95032 9.25136L6.94928 9.25142C6.94882 9.25145 6.94839 9.25147 6.99899 10.125L6.94839 9.25147C6.46595 9.27942 6.09751 9.69317 6.12545 10.1756C6.15336 10.6574 6.56601 11.0255 7.04759 10.9987C7.0476 10.9987 7.04762 10.9987 7.04764 10.9987C7.0478 10.9986 7.04796 10.9986 7.04813 10.9986C7.04824 10.9986 7.04836 10.9986 7.04847 10.9986C7.0486 10.9986 7.04873 10.9986 7.04886 10.9986L7.055 10.9983C7.06282 10.998 7.07653 10.9975 7.09577 10.997C7.13428 10.9959 7.1948 10.995 7.27454 10.9958C7.43424 10.9973 7.66964 11.0055 7.95856 11.0333C8.53944 11.0892 9.31981 11.2223 10.1308 11.527C11.7264 12.1264 13.4365 13.3779 14.0309 16.111C14.7783 19.547 16.9892 21.2491 18.9806 22.0639C19.965 22.4667 20.897 22.6554 21.5804 22.7443C21.9236 22.789 22.208 22.809 22.4101 22.8178C22.5112 22.8221 22.5921 22.8237 22.6498 22.8242C22.6787 22.8244 22.7017 22.8244 22.7187 22.8242L22.7388 22.824L22.1111 23.4517L21.4923 24.0704L22.7298 25.3079L23.3485 24.6891L25.4698 22.5678L26.0885 21.9491L26.0882 21.9488L26.0886 21.9484L25.4699 21.3297L23.3486 19.2084L22.7299 18.5897L21.4924 19.8271L22.1112 20.4458L22.7394 21.074C22.7296 21.0739 22.7197 21.074 22.7098 21.0742L22.7038 21.0743C22.6961 21.0743 22.6825 21.0744 22.6634 21.0742C22.6252 21.0739 22.5652 21.0728 22.486 21.0694C22.3274 21.0625 22.0935 21.0463 21.8062 21.009C21.2289 20.9339 20.4519 20.7751 19.6433 20.4443C18.0487 19.7918 16.3376 18.482 15.741 15.739ZM23.6049 21.9395C23.605 21.9457 23.605 21.9518 23.6049 21.9578L23.6141 21.9487L23.6049 21.9395ZM22.7505 22.8122L22.7299 21.949C22.746 22.6206 22.7494 22.7766 22.75 22.8128L22.7505 22.8122ZM7.04886 10.9986C7.0491 10.9986 7.04935 10.9986 7.04959 10.9985L6.99908 10.1266C7.04959 10.9985 7.04921 10.9986 7.04885 10.9986L7.04886 10.9986Z" fill="white" fill-opacity="0.7"/>
<path d="M22.7299 8.00012L24.8512 10.1214" stroke="white" stroke-width="1.75" stroke-linecap="square"/>
<path d="M24.8511 10.1211L22.7298 12.2424" stroke="white" stroke-width="1.75" stroke-linecap="square"/>
<path d="M22.73 10.12C22.73 10.12 16.23 9.96398 14.886 16.193C13.542 22.422 6.99902 22.039 6.99902 22.039" stroke="white" stroke-width="1.75" stroke-linecap="round"/>
</svg>
