<svg width="32" height="32" viewBox="0 0 32 32" fill="none" xmlns="http://www.w3.org/2000/svg">
<path fill-rule="evenodd" clip-rule="evenodd" d="M11.5 10C11.5 10.8284 10.8284 11.5 10 11.5C9.17157 11.5 8.5 10.8284 8.5 10C8.5 9.17157 9.17157 8.5 10 8.5C10.8284 8.5 11.5 9.17157 11.5 10ZM12.9055 10.75C12.5725 12.0439 11.3979 13 10 13C8.34315 13 7 11.6569 7 10C7 8.34315 8.34315 7 10 7C11.3979 7 12.5725 7.95608 12.9055 9.25H24C24.4142 9.25 24.75 9.58579 24.75 10C24.75 10.4142 24.4142 10.75 24 10.75H12.9055Z" fill="#333948" fill-opacity="0.5"/>
<path fill-rule="evenodd" clip-rule="evenodd" d="M20.8 16.5C20.8 15.9477 21.2477 15.5 21.8 15.5C22.3523 15.5 22.8 15.9477 22.8 16.5C22.8 17.0523 22.3523 17.5 21.8 17.5C21.2477 17.5 20.8 17.0523 20.8 16.5ZM18.9707 15.5C19.3825 14.3348 20.4938 13.5 21.8 13.5C23.4568 13.5 24.8 14.8431 24.8 16.5C24.8 18.1569 23.4568 19.5 21.8 19.5C20.4938 19.5 19.3825 18.6652 18.9707 17.5L7.79999 17.5C7.2477 17.5 6.79999 17.0523 6.79999 16.5C6.79999 15.9477 7.2477 15.5 7.79999 15.5L18.9707 15.5Z" fill="#313949"/>
<path fill-rule="evenodd" clip-rule="evenodd" d="M11.5 23C11.5 23.8284 10.8284 24.5 10 24.5C9.17157 24.5 8.5 23.8284 8.5 23C8.5 22.1716 9.17157 21.5 10 21.5C10.8284 21.5 11.5 22.1716 11.5 23ZM12.9055 23.75C12.5725 25.0439 11.3979 26 10 26C8.34315 26 7 24.6569 7 23C7 21.3431 8.34315 20 10 20C11.3979 20 12.5725 20.9561 12.9055 22.25H24C24.4142 22.25 24.75 22.5858 24.75 23C24.75 23.4142 24.4142 23.75 24 23.75H12.9055Z" fill="#333948" fill-opacity="0.5"/>
</svg>
