<svg width="32" height="32" viewBox="0 0 32 32" fill="none" xmlns="http://www.w3.org/2000/svg">
<path d="M20.428 19.7223C20.426 19.6208 20.4023 19.5209 20.3585 19.4293C20.3147 19.3377 20.2518 19.2565 20.174 19.1912C19.6409 18.5682 18.9884 18.0582 18.255 17.6912C18.0085 17.5406 17.715 17.4864 17.431 17.5392C17.2547 17.5828 17.0964 17.6805 16.9784 17.8186C16.8604 17.9567 16.7886 18.1283 16.773 18.3093C16.7511 18.4837 16.7855 18.6606 16.8711 18.8142C16.9567 18.9678 17.0891 19.0901 17.249 19.1632C17.8676 19.4353 18.4215 19.8354 18.874 20.3372C18.958 20.4299 19.0614 20.5029 19.1769 20.5508C19.2924 20.5987 19.417 20.6205 19.5419 20.6144C19.6668 20.6084 19.7888 20.5748 19.8991 20.516C20.0095 20.4571 20.1054 20.3746 20.18 20.2743C20.3297 20.1284 20.4184 19.931 20.428 19.7223Z" fill="#333948" fill-opacity="0.5"/>
<path d="M19.982 15.3466C19.9912 15.4824 20.0343 15.6136 20.1076 15.7283C20.1808 15.8429 20.2817 15.9373 20.401 16.0026C20.9886 16.3596 21.5326 16.7838 22.022 17.2666C22.1024 17.3455 22.1977 17.4077 22.3022 17.4496C22.4067 17.4915 22.5185 17.5124 22.6311 17.511C22.7438 17.5096 22.855 17.486 22.9585 17.4415C23.0619 17.397 23.1556 17.3324 23.234 17.2516C23.3931 17.0892 23.4821 16.8709 23.4821 16.6436C23.4821 16.4163 23.3931 16.1981 23.234 16.0357C22.6565 15.4381 21.9973 14.9253 21.276 14.5127C21.1831 14.4554 21.0798 14.4171 20.972 14.3999C20.8642 14.3828 20.7541 14.3871 20.648 14.4126C20.4427 14.4613 20.262 14.5828 20.1396 14.7545C20.0171 14.9263 19.9611 15.1367 19.982 15.3466Z" fill="#333948" fill-opacity="0.5"/>
<path d="M25.333 14.3121C25.4867 14.2992 25.6337 14.2435 25.7574 14.1515C25.881 14.0594 25.9765 13.9346 26.033 13.7911C26.1076 13.6358 26.1311 13.4608 26.1002 13.2912C26.0693 13.1217 25.9856 12.9662 25.861 12.8471C25.4285 12.4031 24.9337 12.0245 24.392 11.7231C24.2884 11.6603 24.1731 11.6194 24.053 11.6029C23.933 11.5865 23.8109 11.5948 23.6942 11.6274C23.5775 11.6601 23.4687 11.7163 23.3746 11.7926C23.2805 11.8689 23.2031 11.9637 23.147 12.0711C23.0471 12.282 23.0329 12.5234 23.1076 12.7444C23.1822 12.9655 23.3398 13.149 23.547 13.2561C23.9008 13.4961 24.2423 13.7537 24.57 14.0281C24.7787 14.2169 25.0517 14.3185 25.333 14.3121Z" fill="#313949"/>
<path fill-rule="evenodd" clip-rule="evenodd" d="M22.719 10.802C22.6387 10.7162 22.5292 10.6367 22.386 10.567C21.0179 9.90211 19.5519 9.46117 18.044 9.26101C17.0247 9.13986 15.9966 9.11007 14.972 9.172V9.176C12.0597 9.4333 9.29357 10.5667 7.03804 12.427C6.46504 12.898 6.25104 13.202 6.25104 13.527C6.25907 13.7416 6.33594 13.9478 6.47029 14.1153C6.60464 14.2828 6.78933 14.4026 6.99704 14.457C7.38504 14.529 7.59704 14.439 8.26204 13.902C10.0233 12.4371 12.1564 11.4893 14.424 11.164C15.5532 11.035 16.6928 11.0249 17.824 11.134C19.038 11.3009 20.2187 11.6551 21.324 12.184C21.327 12.1854 21.3299 12.1868 21.3328 12.1881L22.719 10.802Z" fill="#313949"/>
<path d="M15.0181 13.33C13.9409 13.4902 12.894 13.8111 11.9121 14.282C11.219 14.6538 10.5671 15.0976 9.96707 15.606C9.80959 15.7189 9.68958 15.8765 9.62255 16.0583C9.55553 16.2401 9.54455 16.4379 9.59106 16.626C9.63293 16.8339 9.74689 17.0204 9.91284 17.1525C10.0788 17.2846 10.2861 17.3538 10.4981 17.348C10.8141 17.348 10.9631 17.27 11.4881 16.848C12.7888 15.7892 14.411 15.2045 16.0881 15.19C17.8771 15.184 19.4341 13.758 18.2951 13.49C17.7323 13.3359 17.1504 13.2631 16.5671 13.274C16.0481 13.2459 15.5276 13.2649 15.0121 13.331L15.0181 13.33Z" fill="#333948" fill-opacity="0.5"/>
<path d="M15.7351 21.458C15.4113 21.5651 15.1285 21.7697 14.9255 22.0438C14.7225 22.3179 14.6092 22.648 14.6011 22.989C14.6219 23.3849 14.7924 23.7581 15.0781 24.033C15.2467 24.2108 15.4557 24.3453 15.6874 24.4251C15.9191 24.5049 16.1666 24.5276 16.409 24.4913C16.6513 24.4549 16.8813 24.3607 17.0795 24.2165C17.2776 24.0723 17.438 23.8824 17.5471 23.663C17.6466 23.4611 17.702 23.2403 17.7096 23.0152C17.7171 22.7902 17.6766 22.5662 17.5908 22.358C17.505 22.1499 17.3758 21.9624 17.2119 21.808C17.048 21.6537 16.853 21.5361 16.6401 21.463C16.3417 21.3954 16.0323 21.3934 15.7331 21.457L15.7351 21.458Z" fill="#333948" fill-opacity="0.5"/>
<path d="M26.114 6.41406L7.414 25.1141" stroke="#313949" stroke-width="2" stroke-linecap="round" stroke-linejoin="round"/>
</svg>
