<svg width="32" height="32" viewBox="0 0 32 32" fill="none" xmlns="http://www.w3.org/2000/svg">
<path d="M11.7969 9.79688C11.7969 8.45275 11.7969 8.62042 12.0585 8.10703C12.2886 7.65544 12.6554 7.28856 13.107 7.05846C13.6204 6.79688 14.293 6.79688 15.6371 6.79688H21.1571C22.5012 6.79688 23.1724 6.79688 23.6857 7.05846C24.1373 7.28856 24.5055 7.65544 24.7355 8.10703C24.9969 8.61992 24.9969 9.29167 24.9969 10.6332V22.1612C24.9969 23.5027 24.9969 24.1734 24.7355 24.6863C24.5055 25.1379 24.1373 25.5055 23.6857 25.7355C23.1729 25.9969 22.5021 25.9969 21.1606 25.9969H15.6332C14.2917 25.9969 13.6199 25.9969 13.107 25.7355C12.6554 25.5055 12.2886 25.1376 12.0585 24.686C11.7969 24.1726 11.7969 24.341 11.7969 22.9969" stroke="#373E4F" stroke-opacity="0.5" stroke-width="1.5" stroke-linecap="round" stroke-linejoin="round"/>
<path d="M15.5859 14L18.1315 16.5456" stroke="#373E4F" stroke-width="2" stroke-linecap="square"/>
<path d="M18.1406 16.5469L15.595 19.0925" stroke="#373E4F" stroke-width="2" stroke-linecap="square"/>
<path d="M7 16.5938H16.5868" stroke="#373E4F" stroke-width="2" stroke-linecap="round"/>
</svg>
