<svg class="icon" width="26" height="26" viewBox="0 0 26 26" fill="none" xmlns="http://www.w3.org/2000/svg">
<path fill-rule="evenodd" clip-rule="evenodd" d="M9.87502 9.00002C9.87502 5.065 13.065 1.87502 17 1.87502C20.9351 1.87502 24.125 5.065 24.125 9.00002C24.125 12.8762 21.058 15.1866 18.3562 15.6369C17.0406 15.8562 15.71 15.6268 14.8913 15.2174C14.5393 15.0414 14.1253 15.125 13.867 15.3956L12.1742 17.0884C12.1525 17.1101 12.1097 17.1348 12.0445 17.138C11.7213 17.1535 11.2443 17.1889 10.7881 17.273C10.5604 17.315 10.3162 17.3729 10.0893 17.456C9.87714 17.5336 9.60203 17.6606 9.38131 17.8813C9.08709 18.1755 8.94492 18.5864 8.8637 18.8625C8.77453 19.1657 8.70565 19.5102 8.64616 19.8077L8.64615 19.8078L8.64202 19.8284C8.57745 20.1512 8.52245 20.4228 8.45745 20.6438C8.42323 20.7601 8.39518 20.829 8.37899 20.8652C8.3589 20.8716 8.33016 20.8795 8.29076 20.8876C8.1466 20.9176 7.95803 20.9328 7.71029 20.9441C7.66265 20.9463 7.61133 20.9483 7.5576 20.9505L7.55751 20.9505C7.3637 20.9582 7.13846 20.9671 6.94085 20.9877C6.71042 21.0116 6.34163 21.0637 6.03026 21.2618C5.65957 21.4977 5.49209 21.8544 5.41056 22.1167C5.32907 22.3788 5.30039 22.6542 5.28396 22.8633C5.27523 22.9745 5.26994 23.0617 5.26523 23.1394L5.26523 23.1395L5.26523 23.1395C5.25904 23.2417 5.25383 23.3276 5.24309 23.43C5.23135 23.5418 5.21862 23.5945 5.21475 23.6105C5.21385 23.6143 5.21343 23.616 5.2136 23.6161L5.21398 23.6156C5.14318 23.7582 5.08786 23.9001 5.05124 23.994L5.05123 23.9941L5.03455 24.0367C5.0206 24.072 5.00977 24.0984 5.00057 24.1196C4.98906 24.1215 4.97551 24.1233 4.95974 24.125H1.87502V20.9142C1.87502 20.8811 1.88819 20.8493 1.91164 20.8258L10.1045 12.633C10.2438 12.5001 10.3335 12.3259 10.3638 12.1402C10.3841 12.0156 10.3777 11.8859 10.3416 11.7598C10.3252 11.7024 10.3029 11.6463 10.2746 11.5926C9.88762 10.8081 9.87502 10.0151 9.87502 9.00002ZM8.46634 11.7963C8.12455 10.816 8.1248 9.86433 8.12501 9.05945L8.12502 9.00002C8.12502 4.0985 12.0985 0.125024 17 0.125024C21.9016 0.125024 25.875 4.0985 25.875 9.00002C25.875 13.9604 21.942 16.8134 18.6439 17.3631C17.2582 17.5941 15.8252 17.4428 14.7017 17.0358L13.4116 18.3258C13.0583 18.6792 12.5931 18.8636 12.1285 18.8859C11.8383 18.8999 11.4501 18.9305 11.1054 18.994C10.9327 19.0258 10.7925 19.0621 10.6907 19.0994C10.662 19.1099 10.6405 19.119 10.625 19.1261C10.6097 19.1594 10.5798 19.2298 10.5426 19.3563C10.4776 19.5773 10.4226 19.8488 10.358 20.1716L10.3539 20.1923L10.3539 20.1923C10.2944 20.4899 10.2255 20.8343 10.1363 21.1375C10.0551 21.4137 9.91296 21.8245 9.61874 22.1187C9.3146 22.4229 8.92689 22.5428 8.64679 22.601C8.35345 22.662 8.04202 22.6808 7.78976 22.6923C7.71711 22.6956 7.6497 22.6983 7.58647 22.7009L7.5856 22.7009H7.58553C7.40504 22.7082 7.2586 22.7141 7.1217 22.7283C7.09829 22.7307 7.07744 22.7332 7.05897 22.7357C7.04782 22.8 7.03758 22.8859 7.02859 23.0004C7.02486 23.0479 7.0208 23.1113 7.01629 23.1819C7.00745 23.32 6.99686 23.4857 6.98353 23.6127C6.96236 23.8143 6.92008 24.1165 6.78265 24.3913C6.74885 24.4589 6.7245 24.521 6.68694 24.6167L6.68693 24.6167L6.66205 24.6799C6.61757 24.7925 6.54426 24.976 6.42528 25.1527C6.29376 25.3479 6.11118 25.5304 5.85474 25.6637C5.61046 25.7907 5.34337 25.8501 5.07057 25.8722L5.03535 25.875H5.00002H1.50002C0.740633 25.875 0.125024 25.2594 0.125024 24.5V20.9142C0.125024 20.417 0.322568 19.94 0.674199 19.5884L8.46634 11.7963ZM7.08962 22.6141L7.08817 22.6174C7.08909 22.6151 7.08959 22.6141 7.08962 22.6141Z" fill="currentColor"/>
<circle cx="19" cy="7" r="2.35" stroke="currentColor" stroke-opacity="0.7" stroke-width="1.3"/>
</svg>
