<svg width="28" height="28" viewBox="0 0 28 28" fill="none" xmlns="http://www.w3.org/2000/svg">
<path d="M6.41667 24.9375C6.89992 24.9375 7.29167 24.5457 7.29167 24.0625C7.29167 23.5793 6.89992 23.1875 6.41667 23.1875V24.0625V24.9375ZM6.41667 24.0625V23.1875C5.30534 23.1875 4.375 22.2637 4.375 21.0875H3.5H2.625C2.625 23.1974 4.30633 24.9375 6.41667 24.9375V24.0625ZM3.5 21.0875H4.375V12.1625H3.5H2.625V21.0875H3.5ZM3.5 12.1625H4.375C4.375 10.9863 5.30534 10.0625 6.41667 10.0625V9.1875V8.3125C4.30633 8.3125 2.625 10.0526 2.625 12.1625H3.5ZM6.41667 9.1875V10.0625H12.25V9.1875V8.3125H6.41667V9.1875ZM12.25 9.1875V10.0625H15.1667V9.1875V8.3125H12.25V9.1875ZM15.1667 9.1875V10.0625H18.8125V9.1875V8.3125H15.1667V9.1875Z" fill="currentColor"/>
<path d="M16.625 9.1875V7.20911C16.6107 6.10623 16.1448 5.05304 15.3279 4.27714C14.511 3.50123 13.4088 3.06493 12.2595 3.06251C11.1101 3.06009 10.0059 3.49175 9.18551 4.26421C8.3651 5.03667 7.89435 6.08789 7.875 7.1907L7.875 9.1875" stroke="currentColor" stroke-width="1.75" stroke-miterlimit="10" stroke-linecap="round" stroke-linejoin="round"/>
<path d="M12.25 15.3125V18.8125" stroke="currentColor" stroke-opacity="0.5" stroke-width="1.5" stroke-miterlimit="10" stroke-linecap="round" stroke-linejoin="round"/>
<path d="M20.542 8.13477C23.7919 8.13521 26.4268 10.7705 26.4268 14.0205C26.4263 17.3218 23.8073 19.2116 21.627 19.5752C20.7581 19.7199 19.858 19.6382 19.124 19.3975L18.4219 20.1006C18.1314 20.391 17.7512 20.5397 17.377 20.5605C17.192 20.5708 16.9662 20.5914 16.7734 20.6289C16.7097 20.6413 16.657 20.6549 16.6162 20.667C16.6122 20.6792 16.6071 20.6933 16.6025 20.709C16.5642 20.8395 16.53 21.0033 16.4883 21.2119C16.4502 21.4026 16.4042 21.6387 16.3428 21.8477C16.2901 22.0268 16.1875 22.3359 15.959 22.5645C15.7217 22.8017 15.4253 22.8894 15.2314 22.9297C15.0262 22.9723 14.8122 22.9848 14.6504 22.9922C14.5321 22.9976 14.441 23.0026 14.3623 23.0068C14.3562 23.0893 14.3464 23.2751 14.334 23.3936C14.32 23.5262 14.2901 23.7516 14.1846 23.9629C14.1638 24.0044 14.1501 24.0403 14.1143 24.1309C14.0858 24.203 14.0324 24.34 13.9424 24.4736C13.8413 24.6237 13.6987 24.7658 13.5 24.8691C13.312 24.9669 13.1117 25.0097 12.9189 25.0254L12.8877 25.0283H10.6182C10.0171 25.0281 9.52956 24.5395 9.5293 23.9385V21.6992C9.52939 21.2913 9.69203 20.8998 9.98047 20.6113L14.8457 15.7451C14.6516 15.1102 14.6562 14.5053 14.6562 14.0205C14.6562 10.7702 17.2917 8.13477 20.542 8.13477ZM20.542 9.67383C18.1414 9.67383 16.1953 11.6199 16.1953 14.0205C16.1953 14.6789 16.2064 15.1403 16.4336 15.5947C16.5935 15.9152 16.5075 16.2929 16.249 16.5176L11.0684 21.6992V23.4893H12.7139C12.7196 23.4747 12.7256 23.4595 12.7314 23.4453L12.792 23.3125C12.7929 23.3078 12.7983 23.2835 12.8037 23.2324C12.8156 23.1189 12.8151 23.0539 12.8291 22.876C12.8398 22.7399 12.8596 22.5437 12.9189 22.3525C12.9785 22.1611 13.1074 21.8797 13.4033 21.6914L13.4961 21.6387C13.7148 21.5278 13.9448 21.498 14.0762 21.4844C14.2454 21.4668 14.4471 21.4611 14.5801 21.4551C14.7001 21.4496 14.7905 21.4413 14.8594 21.4316C14.8611 21.426 14.8643 21.4202 14.8662 21.4141C14.9046 21.2835 14.9387 21.1189 14.9805 20.9102C15.0186 20.7195 15.0645 20.4834 15.126 20.2744C15.1787 20.0953 15.2821 19.7863 15.5107 19.5576L15.6396 19.4463C15.7721 19.3479 15.9109 19.2855 16.0176 19.2451C16.171 19.1871 16.3326 19.1476 16.4785 19.1191C16.771 19.0621 17.0767 19.0363 17.292 19.0244C17.3193 19.0228 17.3319 19.0142 17.334 19.0127L18.3877 17.959L18.3896 17.9609C18.617 17.7261 18.9793 17.6547 19.2871 17.8086C19.7672 18.0484 20.5726 18.1911 21.374 18.0576C23.0301 17.7814 24.8882 16.3687 24.8887 14.0205C24.8887 11.6202 22.9422 9.67427 20.542 9.67383Z" fill="currentColor"/>
<circle cx="21.4375" cy="12.8652" r="1.17308" stroke="currentColor" stroke-opacity="0.5" stroke-width="1.15385"/>
</svg>
