<svg width="20" height="20" viewBox="0 0 20 20" fill="none" xmlns="http://www.w3.org/2000/svg">
<path d="M7.9165 12.5H12.3332" stroke="#373E4F" stroke-opacity="0.5" stroke-width="1.5" stroke-linecap="round" stroke-linejoin="round"/>
<path d="M2.27128 7.35863L3.88706 13.6602C4.34072 15.4294 5.93522 16.6667 7.76171 16.6667H12.5527C14.431 16.6667 16.0563 15.3598 16.4595 13.5253L17.8095 7.38256C18.0015 6.50897 17.0378 5.842 16.2879 6.32946L14.1341 7.7294C13.6371 8.05245 12.9698 7.87472 12.6993 7.34727L11.1033 4.23514C10.7316 3.51023 9.69544 3.51023 9.32369 4.23515L7.70981 7.38222C7.44585 7.89695 6.80153 8.08101 6.3055 7.7834L3.75444 6.25276C2.988 5.7929 2.04928 6.49283 2.27128 7.35863Z" stroke="#373E4F" stroke-width="1.75" stroke-linejoin="round"/>
</svg>
