<svg xmlns="http://www.w3.org/2000/svg" width="32" height="32" fill="none" viewBox="0 0 32 32">
  <path fill="currentColor" fill-opacity=".5" fill-rule="evenodd" d="M10.658 12.158V11H8.342v4.342H4v2.316h4.342V22h2.316v-4.342H15v-2.316h-4.342v-3.184Z" clip-rule="evenodd"/>
  <path fill="currentColor" d="M28 23.1V26H17.633v-2.9H21.4V8.28c-.147.235-.394.498-.742.791-.361.296-.738.57-1.128.82-.422.254-.864.47-1.32.645a3.292 3.292 0 0 1-1.21.263V7.812c.495 0 .99-.137 1.485-.41.513-.274.99-.586 1.43-.938a9.85 9.85 0 0 0 1.045-.995L21.4 5h3.108v18.1H28Z"/>
</svg>
