<svg class="icon" width="32" height="32" viewBox="0 0 32 32" fill="none" xmlns="http://www.w3.org/2000/svg">
<path d="M11.7982 12.8378C11.9702 12.7917 12.1246 12.6957 12.2419 12.5618C12.3593 12.428 12.4343 12.2624 12.4576 12.0859C12.4808 11.9094 12.4512 11.73 12.3725 11.5704C12.2937 11.4107 12.1694 11.278 12.0153 11.189C11.8611 11.1 11.684 11.0587 11.5064 11.0704C11.3288 11.082 11.1586 11.146 11.0174 11.2544C10.8762 11.3628 10.7703 11.5106 10.713 11.6791C10.6558 11.8477 10.6499 12.0294 10.6959 12.2014C10.7577 12.4319 10.9086 12.6285 11.1153 12.7479C11.322 12.8672 11.5677 12.8995 11.7982 12.8378Z" stroke="currentColor" stroke-opacity="0.7" stroke-width="1.25"/>
<path d="M16.8033 11.4566C17.0899 11.3798 17.3473 11.2198 17.5429 10.9967C17.7385 10.7737 17.8636 10.4976 17.9023 10.2035C17.941 9.90934 17.8916 9.61033 17.7604 9.34425C17.6292 9.07817 17.422 8.85698 17.1651 8.70864C16.9082 8.56031 16.6131 8.49149 16.317 8.51089C16.021 8.5303 15.7373 8.63705 15.502 8.81765C15.2666 8.99825 15.0901 9.2446 14.9947 9.52552C14.8994 9.80645 14.8894 10.1093 14.9662 10.3959C15.0692 10.7802 15.3206 11.1078 15.6651 11.3067C16.0096 11.5056 16.4191 11.5595 16.8033 11.4566Z" stroke="currentColor" stroke-opacity="0.7" stroke-width="1.25"/>
<path d="M10.738 22.2546C11.0067 22.66 11.3627 23.0001 11.7799 23.2499C13.1092 23.9543 14.5946 24.3119 16.0987 24.2896L16.3556 24.2647L16.8133 24.2519C18.4472 24.1024 20.0091 23.5091 21.3302 22.5362C22.6514 21.5633 23.6814 20.2477 24.3089 18.7318C24.9365 17.2159 25.1378 15.5572 24.8909 13.9352C24.6441 12.3132 23.9585 10.7895 22.9084 9.52889M21.7128 8.33976C20.6227 7.44459 19.3375 6.81817 17.9608 6.51103C16.5841 6.20389 15.1545 6.22465 13.7873 6.57161C12.4201 6.91857 11.1536 7.58203 10.0899 8.50846C9.02628 9.4349 8.19528 10.5984 7.66397 11.905C7.04624 13.695 7.8942 15.4662 10.4923 16.9662C11.2057 17.3639 11.9439 17.7153 12.7024 18.0182" stroke="currentColor" stroke-opacity="0.7" stroke-width="1.5"/>
<path d="M21.7352 17.4396C21.9645 17.3782 22.1704 17.2502 22.3269 17.0718C22.4833 16.8933 22.5834 16.6725 22.6144 16.4372C22.6454 16.2019 22.6059 15.9627 22.5009 15.7498C22.3959 15.5369 22.2302 15.36 22.0247 15.2413C21.8191 15.1226 21.583 15.0676 21.3462 15.0831C21.1093 15.0986 20.8824 15.184 20.6941 15.3285C20.5058 15.473 20.3646 15.6701 20.2883 15.8948C20.212 16.1196 20.2041 16.3619 20.2655 16.5911C20.3479 16.8985 20.549 17.1606 20.8247 17.3198C21.1003 17.4789 21.4278 17.522 21.7352 17.4396Z" stroke="currentColor" stroke-opacity="0.7" stroke-width="1.25"/>
<path d="M15.7 18.294C19.3912 14.5345 22.786 10.4951 25.854 6.21198H25.885C25.9693 6.10083 26.0095 5.96242 25.9979 5.8234C25.9863 5.68437 25.9236 5.55457 25.822 5.45898C25.7285 5.36502 25.6049 5.30701 25.4728 5.29512C25.3408 5.28323 25.2088 5.31823 25.1 5.39398H25.07C20.7903 8.46748 16.7549 11.8676 13 15.564" stroke="currentColor" stroke-width="1.75" stroke-linecap="round" stroke-linejoin="round"/>
<path d="M12.5501 16.088C12.1979 16.4402 12 16.9179 12 17.416C12 17.9141 12.1979 18.3918 12.5501 18.744C12.9023 19.0962 13.38 19.2941 13.8781 19.2941C14.3762 19.2941 14.8539 19.0962 15.2061 18.744L16.0001 17.95L13.3741 15.294L12.5501 16.088Z" stroke="currentColor" stroke-width="1.75" stroke-linecap="round" stroke-linejoin="round"/>
<path d="M12.415 21.469C12.5991 21.303 12.7462 21.1001 12.847 20.8736C12.9477 20.6471 12.9997 20.4019 12.9997 20.154C12.9997 19.9061 12.9477 19.661 12.847 19.4345C12.7462 19.2079 12.5991 19.0051 12.415 18.839C12.0285 18.488 11.5251 18.2935 11.003 18.2935C10.4809 18.2935 9.97748 18.488 9.591 18.839C8.163 20.138 8.661 22.83 7 23.294C8.561 23.201 10.821 22.954 12.415 21.469Z" stroke="currentColor" stroke-width="1.75" stroke-linecap="round" stroke-linejoin="round"/>
</svg>
