<svg width="56" height="56" viewBox="0 0 56 56" fill="none" xmlns="http://www.w3.org/2000/svg">
<g filter="url(#filter0_d_14848_27536)">
<circle cx="28" cy="25" r="16" fill="white"/>
<g clip-path="url(#clip0_14848_27536)">
<rect width="22" height="22" transform="translate(39 35.6484) rotate(-180)" fill="white"/>
<path d="M30.8726 22.053L33.1169 22.053C33.6737 22.053 34.125 22.5043 34.125 23.0611L34.125 32.2888C34.125 32.8456 33.6737 33.2969 33.1169 33.2969L32.3314 33.2969L23.7222 33.2969L22.9366 33.2969C22.3799 33.2969 21.9286 32.8456 21.9286 32.2888L21.9286 23.0611C21.9286 22.5043 22.3799 22.053 22.9366 22.053L25.181 22.053" stroke="currentColor" stroke-opacity="0.5" stroke-width="1.5" stroke-linecap="round"/>
<path d="M25.7188 18.4531L28.0185 16.1633" stroke="currentColor" stroke-width="2" stroke-linecap="square"/>
<path d="M28.0234 16.1641L30.3232 18.4538" stroke="currentColor" stroke-width="2" stroke-linecap="square"/>
<path d="M28.0703 26.1797L28.0703 17.5563" stroke="currentColor" stroke-width="2" stroke-linecap="round"/>
</g>
</g>
<defs>
<filter id="filter0_d_14848_27536" x="0" y="0" width="56" height="56" filterUnits="userSpaceOnUse" color-interpolation-filters="sRGB">
<feFlood flood-opacity="0" result="BackgroundImageFix"/>
<feColorMatrix in="SourceAlpha" type="matrix" values="0 0 0 0 0 0 0 0 0 0 0 0 0 0 0 0 0 0 127 0" result="hardAlpha"/>
<feOffset dy="3"/>
<feGaussianBlur stdDeviation="6"/>
<feComposite in2="hardAlpha" operator="out"/>
<feColorMatrix type="matrix" values="0 0 0 0 0.137255 0 0 0 0 0.152941 0 0 0 0 0.196078 0 0 0 0.12 0"/>
<feBlend mode="normal" in2="BackgroundImageFix" result="effect1_dropShadow_14848_27536"/>
<feBlend mode="normal" in="SourceGraphic" in2="effect1_dropShadow_14848_27536" result="shape"/>
</filter>
<clipPath id="clip0_14848_27536">
<rect width="22" height="22" fill="white" transform="translate(39 35.6484) rotate(-180)"/>
</clipPath>
</defs>
</svg>
