<svg xmlns="http://www.w3.org/2000/svg" xmlns:xlink="http://www.w3.org/1999/xlink" width="405.895" height="405.404" viewBox="0 0 405.895 405.404"><defs><style>.a,.b{fill:none;}.a{clip-rule:evenodd;}.c{fill:#fff;}.d{clip-path:url(#a);}.e{isolation:isolate;}.f{clip-path:url(#b);}.g{clip-path:url(#c);}.h{fill:#0057ff;}.i{opacity:0;}.j{fill:rgba(255,255,255,0);}</style><clipPath id="a"><path class="a" d="M248.224,125.851c3.122.059,4.915,6.12,3.921,13.226-.92,6.578-3.893,11.7-6.786,11.668q-.723-.008-1.542-.012l-2.669,0c-30.382.113-130.024,4.83-227.837,57.712-.148,1.06-14.159,4.481-13.27-1.874C.041,206.568,115.947,123.549,248.224,125.851ZM160.284-48.73c6.142-.823,11.254.238,15.6,3.128A38.73,38.73,0,0,1,189.45-26.037C192-16.187,185.61-5.394,181.77.592c-6.142,8.773-13.556,22.685-17.13,29.138-2.3,4.284-5.128,6.651-9.982,2.328a15.645,15.645,0,0,1-6.142-12.6c0-5.479,3.325-15.369,11.769-27.436,6.4-10.056,13.3-21.909,9.725-23.912-9.467-5.44-65.487,38.585-66.767,67.343-.773,16.509,34.277,25.987,44.243,31.616,4.87,2.827,7.688,6.928,7.688,11.647,0,5.717-3.333,12.621-9.982,21.22-6.658,8.346-19.183,15.25-34.535,17.293-18.676,2.5-43.486-4.363-63.7-24.269-3.574-3.761-1.787-6.73,1.8-8.448A37.8,37.8,0,0,1,56.68,82.7c7.422-1,14.578.04,19.948,3.547,9.982,6.619,26.871,16.786,41.7,14.8,5.627-.752,10.747-2.676,13.573-5.788,3.823-4.252,2.543-8.544-.266-10.412C113.216,73.4,77.659,64.728,77.659,39.374c0-33.8,39.9-68.712,62.935-81.247C149.03-46.481,154.408-47.946,160.284-48.73Z" transform="translate(0 49)"/></clipPath><clipPath id="b"><rect class="b" width="264.482" height="268.881"/></clipPath><clipPath id="c"><path class="b" d="M0,211.325H252.42V-49H0Z" transform="translate(0 49)"/></clipPath></defs><g transform="translate(0.051 0.299)"><rect class="c" width="405.895" height="405.404" rx="91" transform="translate(-0.051 -0.299)"/><g transform="translate(76.949 72.701)"><g class="d"><g class="e" transform="translate(-6.166 -4.364)"><g class="f" transform="translate(0 0)"><g class="g" transform="translate(6.166 4.364)"><path class="h" d="M-1-50H261.938V220.95H-1Z" transform="translate(-4.259 44.687)"/></g></g></g></g></g><g class="i" transform="translate(293.959 139.447)"><rect class="j" width="70.32" height="70.32"/><path class="h" d="M18.509,40.853a1,1,0,0,1-1-1V23.344H1a1,1,0,0,1-1-1V18.509a1,1,0,0,1,1-1H17.509V1a1,1,0,0,1,1-1h3.836a1,1,0,0,1,1,1V17.509H39.853a1,1,0,0,1,1,1v3.836a1,1,0,0,1-1,1H23.344V39.853a1,1,0,0,1-1,1Z" transform="translate(14.734 14.734)"/></g></g></svg>