<?xml version="1.0" encoding="utf-8"?>
<!-- Generator: Adobe Illustrator 27.4.0, SVG Export Plug-In . SVG Version: 6.00 Build 0)  -->
<svg version="1.1" id="Ebene_1" xmlns="http://www.w3.org/2000/svg" xmlns:xlink="http://www.w3.org/1999/xlink" x="0px" y="0px"
	 viewBox="0 0 48 48.8" style="enable-background:new 0 0 48 48.8;" xml:space="preserve">
<style type="text/css">
	.st0{clip-path:url(#SVGID_00000119821349003285070550000009149491487950622115_);}
	.st1{clip-path:url(#SVGID_00000112598756715310529370000006457680365221518001_);}
	.st2{clip-path:url(#SVGID_00000159452028645563780600000008411564707778053783_);}
	.st3{fill:#0057FF;}
</style>
<g>
	<defs>
		<path id="SVGID_1_" d="M44.1,31.8c0.5,0,0.8,1,0.6,2.2c-0.2,1.1-0.6,1.9-1.1,1.9h-0.3h-0.4c-5,0-21.4,0.8-37.5,9.4
			c0,0.2-2.3,0.7-2.2-0.3C3.2,44.9,22.3,31.4,44.1,31.8z M29.6,3.3c0.9-0.2,1.8,0,2.6,0.5C33.2,4.6,34,5.8,34.4,7
			c0.4,1.6-0.6,3.4-1.3,4.3c-1,1.4-2.2,3.7-2.8,4.7c-0.4,0.7-0.8,1.1-1.6,0.4c-0.6-0.5-1-1.2-1-2.1c0-0.9,0.5-2.5,1.9-4.5
			c1.1-1.6,2.2-3.6,1.6-3.9c-1.6-0.9-10.8,6.3-11,11c-0.1,2.7,5.6,4.2,7.3,5.1c0.7,0.4,1.2,1.1,1.3,1.9c0,0.9-0.5,2.1-1.6,3.5
			c-1.5,1.6-3.5,2.6-5.7,2.8c-3.9,0.3-7.8-1.1-10.5-4c-0.6-0.6-0.3-1.1,0.3-1.4c0.4-0.1,0.9-0.2,1.3-0.3c1.1-0.2,2.3,0,3.3,0.6
			c1.6,1.1,4.4,2.7,6.9,2.4c0.8-0.1,1.6-0.4,2.2-0.9c0.5-0.4,0.5-1,0.2-1.5c-0.1-0.1-0.1-0.1-0.2-0.2c-3-1.9-8.9-3.3-8.9-7.4
			c0-5.5,6.6-11.2,10.4-13.2C27.4,3.9,28.5,3.5,29.6,3.3z"/>
	</defs>
	<clipPath id="SVGID_00000111179791417868671840000008098616926276236977_">
		<use xlink:href="#SVGID_1_"  style="overflow:visible;"/>
	</clipPath>
	<g transform="translate(0 49)" style="clip-path:url(#SVGID_00000111179791417868671840000008098616926276236977_);">
		<g>
			<g>
				<defs>
					<rect id="SVGID_00000086655086476920354620000004640151949937269634_" x="2.4" y="-46.6" width="43.3" height="44.1"/>
				</defs>
				<clipPath id="SVGID_00000145773166950397327260000002302815691147712659_">
					<use xlink:href="#SVGID_00000086655086476920354620000004640151949937269634_"  style="overflow:visible;"/>
				</clipPath>
				<g style="clip-path:url(#SVGID_00000145773166950397327260000002302815691147712659_);">
					<g>
						<defs>
							<rect id="SVGID_00000146476861760768729030000017168145959502597033_" x="3.2" y="-45.7" width="41.5" height="42.4"/>
						</defs>
						<clipPath id="SVGID_00000031206984025749469620000005645660060186016431_">
							<use xlink:href="#SVGID_00000146476861760768729030000017168145959502597033_"  style="overflow:visible;"/>
						</clipPath>
						<g style="clip-path:url(#SVGID_00000031206984025749469620000005645660060186016431_);">
							<path class="st3" d="M2.4-46.6h43.3v44.1H2.4V-46.6z"/>
						</g>
					</g>
				</g>
			</g>
		</g>
	</g>
</g>
</svg>
