<svg id="Logo" xmlns="http://www.w3.org/2000/svg" xmlns:xlink="http://www.w3.org/1999/xlink" width="112.715" height="48" viewBox="0 0 112.715 48">
  <defs>
    <clipPath id="clip-path">
      <path id="Pfad_2" d="M0-.471S47.983-15.4,108.987-17.86c1.44-.057,2.655.815,2.655,1.9a2.229,2.229,0,0,1-2.371,1.9c-11.1.472-59.257,3.044-103.045,13.589C6.226-.309,0,.5,0-.471M97.956-39.849c1.349-2.427,2.379-4.051,2.538-4,.238.12-.278,1.866-1.626,4.218A29.132,29.132,0,0,1,94.9-34.262c.28-.686,2.022-3.776,3.053-5.588M24.884-37.984a3.413,3.413,0,0,1,2.418.48,5.938,5.938,0,0,1,2.1,3c.4,1.51-.6,3.165-1.19,4.083-.952,1.345-2.1,3.479-2.655,4.468-.357.657-.795,1.02-1.547.357a2.39,2.39,0,0,1-.952-1.932,8.449,8.449,0,0,1,1.824-4.207c.106-.165.213-.334.319-.5l.21-.339c.793-1.3,1.433-2.572.978-2.825-1.467-.834-10.15,5.917-10.348,10.327-.12,2.532,5.312,3.985,6.857,4.848a2.089,2.089,0,0,1,1.192,1.786,5.809,5.809,0,0,1-1.547,3.254,8.325,8.325,0,0,1-5.352,2.652A12.326,12.326,0,0,1,7.32-16.256c-.554-.577-.277-1.032.278-1.3a5.91,5.91,0,0,1,1.229-.278,4.594,4.594,0,0,1,3.092.544c1.547,1.015,4.165,2.574,6.463,2.269a3.531,3.531,0,0,0,2.1-.888,1,1,0,0,0-.041-1.6,30.633,30.633,0,0,0-2.806-1.422l-.474-.226c-2.532-1.217-5.086-2.678-5.086-5.325,0-5.183,6.185-10.537,9.754-12.459A8.108,8.108,0,0,1,24.884-37.984Zm74.3-9.157c.752-.824,1.466-1.146,2.221-.561a3.166,3.166,0,0,1,1.306,2.611,5.127,5.127,0,0,1-.238,1.632c-1.228,4.7-5.549,9.767-9.038,12.479a15.8,15.8,0,0,0-1.309,5.166c0,.914.237,1.53.754,1.462,1.824-.242,4.123-3.1,5.629-6.043a1.835,1.835,0,0,1,.5-.633c.83-1.31,1.811-2.766,2.833-4.116a1.667,1.667,0,0,1-.752-1.311c0-1.944,2.538-4.985,3.765-5.148.832-.109,1.189.3,1.189,1.175a11.19,11.19,0,0,1-.712,3.144,11.493,11.493,0,0,0,3.212-2.025c.675-.545,1.07-.674,1.586-.248a3.246,3.246,0,0,1,1.149,2.288,2.622,2.622,0,0,1-.634,1.569c-2.14,2.648-4.4,5.958-4.4,8.207,0,.992.317,1.559.872,1.484,1.347-.177,2.934-2.521,4.162-5.315.317-.727.872-.839,1.229-.2a3.066,3.066,0,0,1-.119,2.494,7.666,7.666,0,0,1-5.549,4.547,3.013,3.013,0,0,1-3.728-3.2c0-2.439,2.1-5.655,4.085-8.241a9.471,9.471,0,0,1-2.895.993c-2.974,5.349-5.233,9.155-5.789,11.859-.158.707-.674,1.117-1.387.487a2.5,2.5,0,0,1-.944-1.642,7.669,7.669,0,0,1-3.258,1.361c-1.914.253-3.241-.419-3.719-2.007a9.1,9.1,0,0,1-5.323,3.32c-2.7.357-4.162-.86-4.162-2.918a6.515,6.515,0,0,1,.594-2.556c.634-1.381,1.944-3.611,2.855-5.1.872-1.374,1.824-2.643,1.506-2.6s-1.149.533-3.488,3.093a39.163,39.163,0,0,0-6.66,11.02c-.4.778-.951.965-1.586.438a2.218,2.218,0,0,1-.872-1.98,9.92,9.92,0,0,1,.714-2.916A40.655,40.655,0,0,1,75.712-30.5c1.072-1.855,2.182-3.453,1.824-3.4-.317.043-1.861,1.085-4.241,3.916a38.523,38.523,0,0,0-5.589,10c-.28.648-.714.935-1.389.452a2.161,2.161,0,0,1-.681-.758,7.385,7.385,0,0,1-3.561,1.7c-2.339.31-3.531-.639-3.688-2.332a8.577,8.577,0,0,1-5.154,3.312,2.168,2.168,0,0,1-2.553-1.3,8.612,8.612,0,0,1-4.465,2.343,3.168,3.168,0,0,1-3.926-3.407c0-1.982,2.1-5.88,4.283-8.646a11.02,11.02,0,0,1-3.093,1.1c-2.855,6.475-7.3,12.246-12.33,12.913-3.648.484-5.629-1.538-5.629-4.513a10.682,10.682,0,0,1,1.189-4.54c2.1-4.167,5.233-6.715,7.533-7.02a2.592,2.592,0,0,1,1.387.121A4.749,4.749,0,0,1,37.968-28.7c.594,1.14-.04,2.6-.795,4.184a14.107,14.107,0,0,0-.712,1.656c-.278.838-.435,1.048-1.426.685A2.061,2.061,0,0,1,33.647-24.2a10.9,10.9,0,0,1,.912-2.828c.4-.855.792-1.668.6-1.795-.517-.313-3.054,2.349-4.719,5.807a10.954,10.954,0,0,0-1.19,4.391c0,1.6.675,2.578,1.824,2.5,3.885-.363,8.127-6.49,10.188-11.45A1.441,1.441,0,0,1,40.148-29.1c0-2.02,2.616-5.151,3.965-5.367.832-.11,1.149.344,1.149,1.181a12.166,12.166,0,0,1-.752,3.3,11.945,11.945,0,0,0,3.45-2.1c.594-.5,1.229-.736,1.744-.27a3.4,3.4,0,0,1,1.11,2.445,2.594,2.594,0,0,1-.675,1.615c-1.7,2.131-3.648,4.864-4.282,6.969a5.6,5.6,0,0,0-.317,1.757c0,.953.317,1.483.912,1.442,1.255-.059,3.289-2.439,4.524-5.016a50.145,50.145,0,0,1,5.31-10.123,1.038,1.038,0,0,1,1.706-.227,2.466,2.466,0,0,1,.594,1.674c0,1.027-1.251,3.454-2.5,5.883l-.325.633c-.54,1.052-1.059,2.081-1.455,2.972-.714,1.619-.833,3.043.04,2.929,1.031-.137,3.133-3.006,5.155-6.324,2.338-3.97,3.369-6.7,4.795-8.639.556-.8,1.19-1.034,1.667-.45a2.806,2.806,0,0,1,.594,1.9c0,1.3-.832,3.083-2.221,5.478-1.149,1.941-2.695,4.739-2.695,6.225,0,.687.238,1.037.754.968.958-.126,2.3-1.719,3.509-3.579a81.968,81.968,0,0,1,6.007-11.668c.515-.792,1.109-.834,1.506-.2a3.162,3.162,0,0,1,.555,1.757,5.2,5.2,0,0,1-.12,1.044c1.706-1.827,3.925-3.569,5.2-3.737s2.1,1.094,2.1,2.694c1.783-1.761,3.884-3.335,5.154-3.465,1.149-.114,1.783.832,1.783,2.088,0,1.3-.832,3.162-2.457,5.776-1.11,1.787-2.142,3.6-2.142,4.933,0,.878.4,1.435,1.032,1.353,1.229-.164,3.17-3.09,4.639-5.608a1.516,1.516,0,0,1,.308-.391A49.857,49.857,0,0,1,99.186-47.141Z" transform="translate(0 48)" fill="none" clip-rule="evenodd"/>
    </clipPath>
  </defs>
  <g id="Gruppe_6" clip-path="url(#clip-path)">
    <path id="Pfad_1" d="M-1-49H113.824V1.006H-1Z" transform="translate(0 48)" fill="#0057ff"/>
  </g>
</svg>
