<svg xmlns="http://www.w3.org/2000/svg" width="20.088" height="18.5" viewBox="0 0 20.088 18.5">
  <g id="ic" transform="translate(0 0.75)">
    <path id="Pfad_47" data-name="Pfad 47" d="M1,0H16a1,1,0,0,1,1,1V7a1,1,0,0,1-1,1H1A1,1,0,0,1,0,7V1A1,1,0,0,1,1,0Z" transform="translate(6.088 17) rotate(-90)" fill="none" stroke="#fff" stroke-width="1.5"/>
    <path id="Pfad_48" data-name="Pfad 48" d="M17,.207h0v.881a1,1,0,0,1-1,1H1a1,1,0,0,1-1-1V0H0" transform="translate(0 17) rotate(-90)" fill="none" stroke="rgba(255,255,255,0.5)" stroke-width="1.5"/>
    <path id="Pfad_49" data-name="Pfad 49" d="M17,1.881h0V1a1,1,0,0,0-1-1H1A1,1,0,0,0,0,1V2.088H0" transform="translate(18 17) rotate(-90)" fill="none" stroke="rgba(255,255,255,0.5)" stroke-width="1.5"/>
  </g>
</svg>
