<svg id="ic_addsticker" xmlns="http://www.w3.org/2000/svg" xmlns:xlink="http://www.w3.org/1999/xlink" width="32" height="32" viewBox="0 0 32 32">
  <defs>
    <clipPath id="clip-path">
      <path id="Pfad_25" data-name="Pfad 25" d="M19.638-14.549a3.955,3.955,0,0,0,3.347,1.8,3.972,3.972,0,0,0,3.385-1.743.75.75,0,0,1,1.037-.225.75.75,0,0,1,.225,1.037,5.469,5.469,0,0,1-4.659,2.43,5.453,5.453,0,0,1-4.61-2.512.75.75,0,0,1,.245-1.032A.75.75,0,0,1,19.638-14.549Zm.862-4.2a1.711,1.711,0,0,1,1.75,1.671.75.75,0,0,1-.75.75.75.75,0,0,1-.75-.75c0-.08-.1-.171-.25-.171s-.25.091-.25.171a.75.75,0,0,1-.75.75.75.75,0,0,1-.75-.75A1.711,1.711,0,0,1,20.5-18.75Zm5,0a1.711,1.711,0,0,1,1.75,1.671.75.75,0,0,1-.75.75.75.75,0,0,1-.75-.75c0-.08-.1-.171-.25-.171s-.25.091-.25.171a.75.75,0,0,1-.75.75.75.75,0,0,1-.75-.75A1.711,1.711,0,0,1,25.5-18.75Z" transform="translate(-18.25 18.75)" fill="#fff"/>
    </clipPath>
  </defs>
  <rect id="BG" width="32" height="32" fill="rgba(255,255,255,0)"/>
  <g id="Gruppe_27" data-name="Gruppe 27" transform="translate(3 4)">
    <g id="Gruppe_27-2" data-name="Gruppe 27" transform="translate(3.77 4)">
      <path id="Pfad_17" data-name="Pfad 17" d="M6.274,0H14a3,3,0,0,1,3,3V5.343M9.3,17H3a3,3,0,0,1-3-3V6.01" fill="none" stroke="rgba(255,255,255,0.5)" stroke-width="1.5"/>
    </g>
    <path id="Vereinigungsmenge_3" data-name="Vereinigungsmenge 3" d="M3.1,8V4.5H0V3H3.1V0H4.6V3H8V4.5H4.6V8Z" fill="#fff"/>
    <g id="Gruppe_31" data-name="Gruppe 31" transform="translate(12.25 12.25)" clip-path="url(#clip-path)">
      <path id="Pfad_24" data-name="Pfad 24" d="M17.144-19.75H28.855v9.516H17.144Z" transform="translate(-18.25 18.75)" fill="#fff"/>
    </g>
  </g>
  <g id="Ellipse_1829" data-name="Ellipse 1829" transform="translate(12 11)" fill="none" stroke="#fff" stroke-width="1.5">
    <circle cx="8" cy="8" r="8" stroke="none"/>
    <circle cx="8" cy="8" r="7.25" fill="none"/>
  </g>
</svg>
