<svg viewBox="0 0 32 32" xmlns="http://www.w3.org/2000/svg"><g fill="none" stroke="currentColor" stroke-linecap="round" stroke-linejoin="round" stroke-width="1.5"><path stroke-opacity=".5" d="M25.883 11.273a7 7 0 00-7-7"/><path d="M7.996 20.484l.104-6.851a1.336 1.336 0 01.418-.854 1.207 1.207 0 01.855-.334 1.089 1.089 0 011.022 1.23l-.014 2.56m.106.149l4.448-8.646a1.281 1.281 0 011.755-.45 1.281 1.281 0 01.488 1.745l-2.326 4.97 3.483-5.032a1.3 1.3 0 012.243 1.295l-3.8 5.58 3.73-4.16a1.3 1.3 0 012.242 1.296l-4.043 4.709 2.12-2.019c.568-.403 1.138-.806 1.754-.45s.962 1.248.488 1.745l-3.227 3.939-2.035 2.347c-1.592 1.868-4.545 2.384-6.096 1.488a18.222 18.222 0 01-2.047-1.297 3.286 3.286 0 01-1.653-2.713"/></g></svg>
