<svg id="icon_settings" data-name="icon/settings" xmlns="http://www.w3.org/2000/svg" width="32" height="32" viewBox="0 0 32 32">
  <rect id="BG" width="32" height="32" fill="rgba(255,255,255,0)" opacity="0.3"/>
  <g id="icon_settings_24-grey" data-name="icon/settings/24-grey" transform="translate(4 4)">
    <g id="Fill_1" data-name="Fill 1" transform="translate(3 3)" fill="none" stroke-linecap="round" stroke-linejoin="round" stroke-miterlimit="10">
      <path d="M8.943,18h.008a8.215,8.215,0,0,0,1.443-.132l.212-1.048.393-.1a7.946,7.946,0,0,0,1.971-.783l.343-.2.89.593a8.094,8.094,0,0,0,1.121-.932,8.217,8.217,0,0,0,.932-1.121l-.57-.856.207-.348a7.922,7.922,0,0,0,.845-1.983l.1-.383,1.025-.206A8.268,8.268,0,0,0,18,9.056,8.022,8.022,0,0,0,17.868,7.6l-1-.2-.1-.391a7.939,7.939,0,0,0-.814-2l-.2-.346.584-.876A8.129,8.129,0,0,0,15.4,2.674a8.247,8.247,0,0,0-1.119-.931l-.872.579-.346-.2a7.888,7.888,0,0,0-1.958-.814l-.386-.1L10.507.132a8.027,8.027,0,0,0-2.9,0L7.39,1.2,7,1.306a7.943,7.943,0,0,0-1.916.788l-.345.2L3.8,1.663A8.007,8.007,0,0,0,1.743,3.717l.626.941L2.168,5A7.916,7.916,0,0,0,1.38,6.88l-.1.382L.134,7.493A7.948,7.948,0,0,0,0,8.943a8.064,8.064,0,0,0,.132,1.452l1.119.225.1.39A7.97,7.97,0,0,0,2.109,12.9l.194.343-.639.96a8.029,8.029,0,0,0,2.053,2.052l.927-.617.347.207a7.922,7.922,0,0,0,1.9.819l.378.107.221,1.094A8.057,8.057,0,0,0,8.936,18Z" stroke="none"/>
      <path d="M 8.951140403747559 18.00000190734863 C 9.420430183410645 18.00000190734863 9.905139923095703 17.95500183105469 10.39371013641357 17.8675708770752 L 10.60585021972656 16.8196907043457 L 10.99927997589111 16.72198104858398 C 11.69999027252197 16.54583168029785 12.3621301651001 16.28225135803223 12.97027015686035 15.93896198272705 L 13.31355953216553 15.74353122711182 L 14.20326995849609 16.33625221252441 C 14.61083984375 16.0546817779541 14.98754978179932 15.74096202850342 15.3244104385376 15.40410137176514 C 15.65997982025146 15.06852149963379 15.97241020202637 14.69180202484131 16.25654983520508 14.28293132781982 L 15.68698024749756 13.42663192749023 L 15.89398002624512 13.07820129394531 C 16.26425933837891 12.45976161956787 16.54841041564941 11.79246139526367 16.73868942260742 11.09559154510498 L 16.84283065795898 10.71244144439697 L 17.86754035949707 10.50672149658203 C 17.95496940612793 10.018141746521 17.99996948242188 9.529561996459961 17.99996948242188 9.056411743164062 C 18.00126075744629 8.580691337585449 17.95626068115234 8.093391418457031 17.86754035949707 7.604811668395996 L 16.86725997924805 7.404241561889648 L 16.7669792175293 7.013371467590332 C 16.58440971374512 6.306221485137939 16.31055068969727 5.635061740875244 15.95312023162842 5.017911434173584 L 15.75255012512207 4.672051429748535 L 16.33625984191895 3.796461582183838 C 16.05340957641602 3.387591600418091 15.73968982696533 3.010871648788452 15.40283966064453 2.674011468887329 C 15.06727027893066 2.338431596755981 14.69054985046387 2.026001453399658 14.28427028656006 1.743141531944275 L 13.41256046295166 2.32172155380249 L 13.06669998168945 2.119861602783203 C 12.45728015899658 1.762421607971191 11.79771041870117 1.489851593971252 11.10857009887695 1.305991530418396 L 10.72284984588623 1.203131556510925 L 10.50685024261475 0.1321115642786026 C 9.528429985046387 -0.04403842985630035 8.584719657897949 -0.04403842985630035 7.606289863586426 0.1321115642786026 L 7.390289783477783 1.203131556510925 L 7.003290176391602 1.305991530418396 C 6.328289985656738 1.485991597175598 5.684150218963623 1.750851511955261 5.08758020401001 2.094141483306885 L 4.7430100440979 2.293431520462036 L 3.796730041503906 1.663421511650085 C 3.389159917831421 1.945001602172852 3.012449979782104 2.258721590042114 2.6768798828125 2.595581531524658 C 2.341310024261475 2.92859148979187 2.028879880905151 3.305311679840088 1.743450045585632 3.716741561889648 L 2.369590044021606 4.657901763916016 L 2.167730093002319 5.003771781921387 C 1.825739979743958 5.591351509094238 1.560879945755005 6.222651481628418 1.379590034484863 6.879661560058594 L 1.275449991226196 7.261521339416504 L 0.1337399929761887 7.492951393127441 C 0.04374000057578087 7.984111785888672 -0.001260000048205256 8.471401214599609 2.999999924213625e-05 8.943271636962891 C -0.001260000048205256 9.416421890258789 0.04374000057578087 9.903711318969727 0.1324599981307983 10.39486122131348 L 1.251019954681396 10.61987113952637 L 1.351310014724731 11.00944137573242 C 1.52744996547699 11.68189144134521 1.780740022659302 12.31833171844482 2.108589887619019 12.90076160430908 L 2.302730083465576 13.24406147003174 L 1.663740038871765 14.20450115203857 C 1.946589946746826 14.61208152770996 2.259020090103149 14.98880195617676 2.595880031585693 15.32309150695801 C 2.930160045623779 15.65996170043945 3.306869983673096 15.97239112854004 3.717020034790039 16.25654220581055 L 4.644010066986084 15.63938140869141 L 4.99114990234375 15.84639167785645 C 5.589009761810303 16.20254135131836 6.228010177612305 16.47769165039062 6.892720222473145 16.66540145874023 L 7.2707200050354 16.77212142944336 L 7.491859912872314 17.86628150939941 C 7.977859973907471 17.95500183105469 8.462570190429688 18.00000190734863 8.935709953308105 18.00000190734863 L 8.951140403747559 18.00000190734863 M 8.951140403747559 19.50000190734863 L 8.935709953308105 19.50000190734863 C 8.373590469360352 19.50000190734863 7.79718017578125 19.44681167602539 7.222479820251465 19.34189224243164 C 6.618820190429688 19.23169136047363 6.143149852752686 18.76492118835449 6.021590232849121 18.1634407043457 L 5.97849702835083 17.95022583007812 C 5.541125774383545 17.79944801330566 5.114703178405762 17.61623573303223 4.702917098999023 17.40218544006348 L 4.548289775848389 17.50513076782227 C 4.036389827728271 17.84594345092773 3.36830997467041 17.83977127075195 2.862799882888794 17.48955154418945 C 2.375212907791138 17.15175247192383 1.928309917449951 16.77946090698242 1.534449219703674 16.38299369812012 C 1.139379143714905 15.99032306671143 0.7682767510414124 15.54511833190918 0.431410014629364 15.05970191955566 C 0.08064000308513641 14.5542516708374 0.07408999651670456 13.88586139678955 0.4148800075054169 13.37362194061279 L 0.5540831685066223 13.16439056396484 C 0.3588136434555054 12.76335430145264 0.1908233463764191 12.34373474121094 0.0512748509645462 11.90857601165771 L -0.1633500009775162 11.86540126800537 C -0.7664300203323364 11.74409198760986 -1.234300017356873 11.26686191558838 -1.343649983406067 10.66150188446045 C -1.448643088340759 10.0802640914917 -1.501232266426086 9.502198219299316 -1.499969601631165 8.943282127380371 C -1.501238942146301 8.381622314453125 -1.447989821434021 7.802701950073242 -1.341689944267273 7.222591400146484 C -1.231209993362427 6.61967134475708 -0.7649999856948853 6.1446213722229 -0.1642599999904633 6.022851467132568 L 0.08984503895044327 5.971343040466309 C 0.2345877885818481 5.542563438415527 0.4092612266540527 5.126191139221191 0.6125987768173218 4.724997043609619 L 0.4945800006389618 4.547601699829102 C 0.1538500040769577 4.035431385040283 0.1603499948978424 3.367151498794556 0.5109900236129761 2.861721515655518 C 0.8500502109527588 2.372987747192383 1.222274661064148 1.926222205162048 1.617385506629944 1.533756136894226 C 2.016932249069214 1.133072257041931 2.463304758071899 0.7614771127700806 2.944109916687012 0.4293015599250793 C 3.44950008392334 0.08015165477991104 4.116700172424316 0.07441148906946182 4.628009796142578 0.4148315787315369 L 4.814397811889648 0.5389239192008972 C 5.228429317474365 0.3316901922225952 5.658331871032715 0.1549132615327835 6.100746154785156 0.009880084544420242 L 6.135900020599365 -0.1644284278154373 C 6.257520198822021 -0.7674984335899353 6.735050201416016 -1.235158443450928 7.340529918670654 -1.344158411026001 C 7.914949893951416 -1.447568416595459 8.4923095703125 -1.499998450279236 9.056570053100586 -1.499998450279236 C 9.620840072631836 -1.499998450279236 10.19820022583008 -1.447568416595459 10.77262020111084 -1.344158411026001 C 11.37808990478516 -1.235158443450928 11.85562038421631 -0.7674984335899353 11.97723960876465 -0.1644284278154373 L 12.01248359680176 0.0103241391479969 C 12.47383975982666 0.1615900546312332 12.9201488494873 0.3468400835990906 13.34761524200439 0.5644868612289429 L 13.45475959777832 0.4933715760707855 C 13.96755981445312 0.1530215442180634 14.63622951507568 0.1604416370391846 15.1413402557373 0.5121115446090698 C 15.62394046783447 0.8481115698814392 16.06879043579102 1.218621611595154 16.46352005004883 1.613371610641479 C 16.86495971679688 2.014821529388428 17.23719024658203 2.462211608886719 17.56985092163086 2.943081617355347 C 17.91970062255859 3.448801517486572 17.92544937133789 4.11683177947998 17.5843505859375 4.628491401672363 L 17.50848960876465 4.74228572845459 C 17.72988128662109 5.182160377502441 17.91708564758301 5.641173839569092 18.06846046447754 6.115237236022949 L 18.16243934631348 6.134081363677979 C 18.76543045043945 6.25499153137207 19.23353004455566 6.7317214012146 19.34339904785156 7.336811542510986 C 19.44882011413574 7.917321681976318 19.50148963928223 8.497241973876953 19.49995994567871 9.060482025146484 C 19.49996948242188 9.616061210632324 19.44751930236816 10.19291114807129 19.34408950805664 10.77094173431396 C 19.23553085327148 11.37757110595703 18.76699066162109 11.85608196258545 18.16279029846191 11.97738170623779 L 18.02970695495605 12.00409984588623 C 17.87221145629883 12.47409152984619 17.67830085754395 12.93019866943359 17.44973754882812 13.36835765838623 L 17.50550079345703 13.45219135284424 C 17.84639930725098 13.96471118927002 17.83959007263184 14.63347148895264 17.48831939697266 15.13894176483154 C 17.15189933776855 15.62303161621094 16.78071975708008 16.06910133361816 16.38508987426758 16.46474075317383 C 15.98297023773193 16.86686134338379 15.53575992584229 17.23885154724121 15.05587005615234 17.57038116455078 C 14.55034923553467 17.91962051391602 13.88296890258789 17.92525100708008 13.37162971496582 17.58460235595703 L 13.23546123504639 17.49388694763184 C 12.80497550964355 17.70489120483398 12.3556489944458 17.88364601135254 11.89156246185303 18.02850914001465 L 11.86388969421387 18.16520118713379 C 11.74178028106689 18.76834106445312 11.26368999481201 19.2357120513916 10.65793991088867 19.34411239624023 C 10.07991027832031 19.44755172729492 9.505660057067871 19.50000190734863 8.951140403747559 19.50000190734863 Z" stroke="none" fill="#fff"/>
    </g>
    <ellipse id="Oval" cx="3" cy="3" rx="3" ry="3" transform="translate(9 9)" fill="none" stroke="rgba(255,255,255,0.5)" stroke-linecap="round" stroke-linejoin="round" stroke-miterlimit="10" stroke-width="1.5"/>
  </g>
</svg>
