<svg viewBox="0 0 32 32" xmlns="http://www.w3.org/2000/svg"><g fill="none" stroke="currentColor" stroke-linecap="round" stroke-linejoin="round" stroke-width="1.5"><path d="M13.558 20.651v-9.468a1.183 1.183 0 012.366 0V15.5m-2.306 9.823l-5.49-5.736a1.183 1.183 0 01.532-1.597 1.183 1.183 0 01.91-.068c.3.1.385.046.525.329l3.464 2.4m2.365-4.737a1.183 1.183 0 112.366 0m.03 0c0-.653.5-.591 1.153-.591a1.183 1.183 0 011.183 1.183"/><path d="M13.617 25.324a2.987 2.987 0 002.543 1.419h3.9a2.957 2.957 0 002.957-2.957v-6.097c0-.654-.956-1.42-1.609-1.42M18.715 10a4 4 0 00-8 0"/><path stroke-opacity=".5" d="M16.378 13.639A4 4 0 0018.714 10a4.311 4.311 0 00-.467-1.878 3.716 3.716 0 00-1.733-1.709 3.829 3.829 0 00-1.8-.413 4 4 0 00-1.633 7.653"/></g></svg>
