<svg viewBox="0 0 24 24" xmlns="http://www.w3.org/2000/svg">
<g fill="none">
<g opacity=".5">
<path d="m11.4 1.7562c0.41471 0.03757 0.71177 0.16067 0.92428 0.392l4.708 5.1249c0.21189 0.23066 0.32947 0.53245 0.32947 0.84566v10.887c0 0.34518-0.13991 0.65768-0.36612 0.88388-0.2262 0.22621-0.5387 0.36612-0.88388 0.36612h-12c-0.34518 0-0.65768-0.13991-0.88388-0.36612-0.22621-0.2262-0.36612-0.5387-0.36612-0.88388v-16c0-0.34518 0.13991-0.65768 0.36612-0.88388 0.2262-0.22621 0.5387-0.36612 0.88388-0.36612h7.2882z" stroke="currentColor" stroke-width="1.5"/>
<path d="m11.407 2.5062 0.13745 0.00683 0.04334 0.01284c0.0521 0.02113 0.12627 0.06646 0.18439 0.12972l0.94682 1.0306v3.57h3.28l0.48121 0.52429 0.05635 0.07415c0.04898 0.07875 0.07544 0.17015 0.07544 0.26411v0.63745h-4.6429c-0.37969 0-0.69349-0.28215-0.74315-0.64823l-0.00685-0.10177-1.4e-4 -5.5h0.188z" fill="currentColor"/>
</g>
</g>
<text transform="matrix(.69819 0 0 .61244 4.5184 15.598)" x="3.47783" y="4.34236" fill="currentColor" font-family="'Cabin'" font-size="10" font-weight="900" stroke="currentColor" stroke-width="0" xml:space="preserve">CSV</text>
</svg>

