<svg width="20" height="20" xmlns="http://www.w3.org/2000/svg"><path d="M10.5 12.18c.453 0 .847-.167 1.18-.5.333-.333.5-.727.5-1.18 0-.453-.167-.847-.5-1.18a1.614 1.614 0 0 0-1.18-.5c-.453 0-.847.167-1.18.5-.333.333-.5.727-.5 1.18 0 .453.167.847.5 1.18.333.333.727.5 1.18.5zm0-5c.6 0 1.153.15 1.66.45.507.3.91.703 1.21 1.21.3.507.45 1.06.45 1.66a3.2 3.2 0 0 1-.45 1.66c-.3.507-.703.91-1.21 1.21a3.2 3.2 0 0 1-1.66.45 3.2 3.2 0 0 1-1.66-.45c-.507-.3-.91-.703-1.21-1.21a3.2 3.2 0 0 1-.45-1.66c0-.6.15-1.153.45-1.66.3-.507.703-.91 1.21-1.21a3.2 3.2 0 0 1 1.66-.45zm5.82 9.14V13H18v3.32c0 .453-.167.847-.5 1.18-.333.333-.727.5-1.18.5H13v-1.68h3.32zm0-13.32c.453 0 .847.167 1.18.5.333.333.5.727.5 1.18V8h-1.68V4.68H13V3h3.32zM4.68 4.68V8H3V4.68c0-.453.167-.847.5-1.18.333-.333.727-.5 1.18-.5H8v1.68H4.68zm0 8.32v3.32H8V18H4.68c-.453 0-.847-.167-1.18-.5a1.614 1.614 0 0 1-.5-1.18V13h1.68z" fill="#27322F" fill-rule="evenodd"/></svg>