<svg viewBox="0 0 32 32" xmlns="http://www.w3.org/2000/svg"><path d="M16 20.848c.635 0 1.185.233 1.652.7.467.467.7 1.017.7 1.652s-.233 1.185-.7 1.652c-.467.467-1.017.7-1.652.7s-1.185-.233-1.652-.7c-.467-.467-.7-1.017-.7-1.652s.233-1.185.7-1.652c.467-.467 1.017-.7 1.652-.7zm0-7c.635 0 1.185.233 1.652.7.467.467.7 1.017.7 1.652s-.233 1.185-.7 1.652c-.467.467-1.017.7-1.652.7s-1.185-.233-1.652-.7c-.467-.467-.7-1.017-.7-1.652s.233-1.185.7-1.652c.467-.467 1.017-.7 1.652-.7zm0-2.296c-.635 0-1.185-.233-1.652-.7-.467-.467-.7-1.017-.7-1.652s.233-1.185.7-1.652c.467-.467 1.017-.7 1.652-.7s1.185.233 1.652.7c.467.467.7 1.017.7 1.652s-.233 1.185-.7 1.652c-.467.467-1.017.7-1.652.7z" fill="#27322F" fill-rule="evenodd"/></svg>