<?xml version="1.0" encoding="UTF-8"?>
<svg width="20px" height="20px" viewBox="0 0 20 20" version="1.1" xmlns="http://www.w3.org/2000/svg" xmlns:xlink="http://www.w3.org/1999/xlink">
    <g id="Assets" stroke="none" stroke-width="1" fill="none" fill-rule="evenodd">
        <g id="icon-20-trash-2" fill-rule="nonzero" fill="#27322F">
            <path d="M6.69230769,5 L6.69230769,3.90590188 C6.69230769,2.85475922 7.54149821,2 8.59230769,2 L11.4076923,2 C12.4585018,2 13.3076923,2.85475922 13.3076923,3.90590188 L13.3076923,5 L17,5 L17,7 L3,7 L3,5 L6.69230769,5 Z M8.69230769,5 L11.3076923,5 L11.3076923,4 L8.69230769,4 L8.69230769,5 Z M15.6053258,7 L15.0613449,15.8814905 C15.038541,17.0403 14.1082186,17.9767231 12.9307692,18 L7.04929707,17.9998013 C5.89178144,17.9767231 4.961459,17.0403 4.94032719,15.9228715 L4.3945152,7 L6.39808606,7 L6.93826797,15.8421407 C6.94000011,15.9301619 7.00797239,15.9985799 7.06923077,16 L12.9108355,16.0001987 C12.9920276,15.9985799 13.0599999,15.9301619 13.0634041,15.8007597 L13.6017465,7 L15.6053258,7 Z" id="Combined-Shape"></path>
            <polygon id="Line-2" points="11 9 11 14 12 14 12 9"></polygon>
            <polygon id="Line-2-Copy" points="8 9 8 14 9 14 9 9"></polygon>
        </g>
    </g>
</svg>