<svg id="icon_settings" data-name="icon/settings" xmlns="http://www.w3.org/2000/svg" width="32" height="32" viewBox="0 0 32 32">
  <rect id="BG" width="32" height="32" transform="translate(0 0)" fill="rgba(255,255,255,0)"/>
  <g id="Gruppe_3726" data-name="Gruppe 3726" transform="translate(2 27.294)">
    <rect id="BG-2" data-name="BG" width="32" height="32" transform="translate(-2 -27.294)" fill="rgba(255,255,255,0)"/>
    <path id="Pfad_3962" data-name="Pfad 3962" d="M.9,1.8A.9.9,0,1,0,0,.9.9.9,0,0,0,.9,1.8Z" transform="translate(8.463 -14.962) rotate(-15)" fill="none" stroke="#fff" stroke-width="1.5" opacity="0.702"/>
    <path id="Pfad_3963" data-name="Pfad 3963" d="M1.5,3A1.5,1.5,0,1,0,0,1.5,1.5,1.5,0,0,0,1.5,3Z" transform="translate(12.578 -17.347) rotate(-15)" fill="none" stroke="#fff" stroke-width="1.5" opacity="0.702"/>
    <path id="Pfad_3964" data-name="Pfad 3964" d="M7.923,17.659a3.258,3.258,0,0,0,1.4.341,8.941,8.941,0,0,0,4.26-1.259l.21-.15.39-.24A9,9,0,0,0,12.1.553M10.47.121A9,9,0,0,0,.086,10.233c.36,1.859,1.98,2.969,4.98,2.969a19.045,19.045,0,0,0,2.44-.194" transform="translate(10.706 -23.294) rotate(30)" fill="none" stroke="#fff" stroke-width="1.5" opacity="0.702"/>
    <path id="Pfad_3965" data-name="Pfad 3965" d="M2.7,13A102.155,102.155,0,0,0,12.854.918h.031a.565.565,0,0,0-.063-.753A.564.564,0,0,0,12.1.1H12.07A102.106,102.106,0,0,0,0,10.27" transform="translate(11 -21)" fill="none" stroke="#fff" stroke-linecap="round" stroke-linejoin="round" stroke-width="2"/>
    <path id="Pfad_3966" data-name="Pfad 3966" d="M.55.794A1.878,1.878,0,0,0,3.206,3.45L4,2.656,1.374,0Z" transform="translate(10 -11)" fill="none" stroke="#fff" stroke-linecap="round" stroke-linejoin="round" stroke-width="2"/>
    <path id="Pfad_3967" data-name="Pfad 3967" d="M5.415,3.175a1.771,1.771,0,0,0,0-2.63,2.1,2.1,0,0,0-2.824,0C1.163,1.844,1.661,4.536,0,5,1.561,4.907,3.821,4.66,5.415,3.175Z" transform="translate(5 -8)" fill="none" stroke="#fff" stroke-linecap="round" stroke-linejoin="round" stroke-width="2"/>
    <path id="Pfad_3961" data-name="Pfad 3961" d="M1.2,2.4A1.2,1.2,0,1,0,0,1.2,1.2,1.2,0,0,0,1.2,2.4Z" transform="translate(17.955 -10.862) rotate(-15)" fill="none" stroke="#fff" stroke-width="1.5" opacity="0.702"/>
  </g>
</svg>
