<svg xmlns="http://www.w3.org/2000/svg" width="32" height="32" fill="none" viewBox="0 0 32 32">
  <path stroke="currentColor" stroke-opacity=".5" stroke-width="1.5" d="M14.078 9h-.075 7.77a3 3 0 0 1 3 3m0 2.854V23a2.98 2.98 0 0 1-.37 1.444M10.774 26a3 3 0 0 1-3-3v-8" opacity=".7"/>
  <path stroke="currentColor" stroke-linecap="square" stroke-width="2" d="M5 9h6M8 6v6"/>
  <path stroke="currentColor" stroke-linecap="round" stroke-linejoin="round" stroke-width="2" d="M16.646 22.148 20 16l6 11H14"/>
  <path stroke="currentColor" stroke-linecap="round" stroke-linejoin="round" stroke-width="2" d="M19 27h-8l4-7 2.38 4.164M24.5 15a1.5 1.5 0 1 0 0-3 1.5 1.5 0 0 0 0 3Z"/>
</svg>
