<svg id="ic_one" xmlns="http://www.w3.org/2000/svg" width="32" height="32" viewBox="0 0 32 32">
  <rect id="BG" width="32" height="32" fill="rgba(255,255,255,0)"/>
  <g id="Ellipse_32" data-name="Ellipse 32" transform="translate(4 4)" fill="none" stroke="#E20360" stroke-width="2">
    <circle cx="12" cy="12" r="12" stroke="none"/>
    <circle cx="12" cy="12" r="11" fill="none"/>
  </g>
  <path id="Pfad_3996" data-name="Pfad 3996" d="M6.966-.554v1.56H.945V-.554H3.183v-5.5a1.867,1.867,0,0,1-.441.394,5.348,5.348,0,0,1-.67.386,4.689,4.689,0,0,1-.749.292,2.494,2.494,0,0,1-.694.11V-6.5a1.769,1.769,0,0,0,.725-.189,6.54,6.54,0,0,0,.812-.449,6.3,6.3,0,0,0,.686-.5,1.354,1.354,0,0,0,.331-.355H4.965v7.44Z" transform="translate(12.27 19.494)" fill="#E20360"/>
</svg>
