<svg xmlns="http://www.w3.org/2000/svg" width="26" height="26" fill="none" viewBox="0 0 26 26">
  <path fill="currentColor" fill-rule="evenodd" d="M10 9a7 7 0 1 1 14 0c0 3.799-3.005 6.07-5.664 6.514-1.292.215-2.596-.012-3.389-.408a1 1 0 0 0-1.17.203L12.086 17s-.013.012-.048.014a9.917 9.917 0 0 0-1.273.137 4.497 4.497 0 0 0-.719.189 2.06 2.06 0 0 0-.753.454c-.318.318-.468.757-.55 1.034-.09.309-.16.658-.219.954l-.005.023c-.064.324-.118.59-.181.805-.02.067-.038.116-.051.151l-.022.005a3.774 3.774 0 0 1-.56.054l-.15.006a10.29 10.29 0 0 0-.627.038c-.232.024-.627.078-.965.293-.406.259-.586.647-.672.924a3.576 3.576 0 0 0-.132.774c-.009.116-.014.204-.019.281-.006.1-.01.181-.021.282-.01.091-.02.137-.023.153l-.001.004a4.97 4.97 0 0 0-.16.375l-.017.042-.003.009H2v-3.086l8.19-8.19a1.002 1.002 0 0 0 .195-1.19C10.015 10.782 10 10.018 10 9Zm-1.677 2.763C7.999 10.788 8 9.848 8 9.066V9a9 9 0 1 1 18 0c0 5.038-3.995 7.93-7.336 8.486-1.374.23-2.796.089-3.93-.306L13.5 18.414a2.068 2.068 0 0 1-1.366.597c-.287.014-.67.044-1.006.106a2.533 2.533 0 0 0-.394.1l-.014.005c-.014.035-.034.09-.058.17-.063.214-.117.48-.181.804l-.005.023c-.06.296-.129.645-.22.954-.081.277-.23.716-.549 1.034-.33.33-.746.456-1.035.516a5.638 5.638 0 0 1-.877.094l-.208.009a8.085 8.085 0 0 0-.418.023 3.863 3.863 0 0 0-.028.334c-.009.14-.02.314-.033.443-.022.203-.065.525-.214.821a2.52 2.52 0 0 0-.09.214l-.026.065a2.55 2.55 0 0 1-.25.497c-.14.21-.338.408-.616.552a2.16 2.16 0 0 1-.831.222L5.04 26H1.5A1.5 1.5 0 0 1 0 24.5v-3.586A2 2 0 0 1 .586 19.5l7.737-7.737ZM7.205 22.662l-.001.003.001-.003Z" clip-rule="evenodd"/>
  <circle cx="19" cy="7" r="2.25" stroke="currentColor" stroke-opacity=".4" stroke-width="1.5"/>
</svg>
