<svg xmlns="http://www.w3.org/2000/svg" width="32" height="32" viewBox="0 0 32 32"><rect width="32" height="32" fill="rgba(255,255,255,0)"/><g transform="translate(-1201.98 -565.25)"><path d="M13.716,1.635H.885a.75.75,0,0,1,0-1.5H13.716a.75.75,0,0,1,0,1.5Z" transform="translate(1214.115 585.602)"/><path d="M13.716,1.635H.885a.75.75,0,0,1,0-1.5H13.716a.75.75,0,0,1,0,1.5Z" transform="translate(1214.115 575.115)" /><g transform="translate(-2)"><path d="M4,2H-1V0H4Z" transform="translate(1218.842 578.373) rotate(45)" /><path d="M2,4H0V-1H2Z" transform="translate(1219.549 580.494) rotate(45)" /><path d="M7.989,2H0A1,1,0,0,1,0,0H7.989a1,1,0,0,1,0,2Z" transform="translate(1210.98 580.244)" /><path d="M7.989,2H0A1,1,0,0,1,0,0H7.989a1,1,0,0,1,0,2Z" transform="translate(1209.98 581.239) rotate(-90)" /></g><path d="M13.716,1.635H.885a.75.75,0,0,1,0-1.5H13.716a.75.75,0,0,1,0,1.5Z" transform="translate(1214.115 589.602)" /></g></svg>