<svg xmlns="http://www.w3.org/2000/svg" width="32" height="32" fill="none" viewBox="0 0 32 32">
  <path stroke="currentColor" stroke-opacity=".5" stroke-width="1.5" d="M11.093 13.834a.9.9 0 1 0-.465-1.737.9.9 0 0 0 .465 1.737Zm5.007-1.379a1.5 1.5 0 1 0-.777-2.899 1.5 1.5 0 0 0 .777 2.899Z"/>
  <path stroke="currentColor" stroke-opacity=".5" stroke-width="1.5" d="M10.031 23.254c.269.405.625.745 1.042.995a8.941 8.941 0 0 0 4.319 1.04l.257-.025.458-.013a9 9 0 0 0 6.095-14.723m-1.196-1.19a9 9 0 0 0-14.049 3.566c-.618 1.79.23 3.561 2.828 5.061.714.398 1.452.75 2.21 1.052"/>
  <path stroke="currentColor" stroke-opacity=".5" stroke-width="1.5" d="M21.03 18.437a1.2 1.2 0 1 0-.62-2.317 1.2 1.2 0 0 0 .62 2.317Z"/>
  <path stroke="currentColor" stroke-linecap="round" stroke-linejoin="round" stroke-width="2" d="M14.997 19.29A102.173 102.173 0 0 0 25.15 7.208h.03a.565.565 0 0 0-.062-.753.564.564 0 0 0-.722-.065h-.03a102.102 102.102 0 0 0-12.07 10.17"/>
  <path stroke="currentColor" stroke-linecap="round" stroke-linejoin="round" stroke-width="2" d="M11.847 17.09a1.878 1.878 0 1 0 2.656 2.657l.794-.794-2.626-2.656-.824.794Zm-.135 5.382a1.77 1.77 0 0 0 0-2.63 2.1 2.1 0 0 0-2.824 0c-1.428 1.3-.93 3.991-2.591 4.455 1.56-.093 3.82-.34 5.415-1.825Z"/>
</svg>
