<svg version="1.1" viewBox="0 0 45 45" xmlns="http://www.w3.org/2000/svg">
<g fill="none" fill-rule="evenodd">
<g transform="translate(9 11)" fill="currentColor">
<polygon id="b" points="14.289 8.6243 14.289 14.624 12.789 14.624 12.789 8.6243"/>
<polygon points="16.539 10.874 16.539 12.374 10.539 12.374 10.539 10.874"/>
<path id="a" d="m13.539 5.2503c-3.5899 0-6.5 2.9101-6.5 6.5s2.9101 6.5 6.5 6.5 6.5-2.9101 6.5-6.5-2.9101-6.5-6.5-6.5zm0 1.5c2.7614 0 5 2.2386 5 5s-2.2386 5-5 5-5-2.2386-5-5 2.2386-5 5-5z"/>
<path d="m24.339 10.689 2.5607 2.5607-1.0607 1.0607-0.697-0.69682c-0.89309 5.6036-5.7479 9.8862-11.603 9.8862-2.6725 0-5.2088-0.89604-7.261-2.5114l-0.27681-0.22472 0.96282-1.1502c1.8312 1.5329 4.1364 2.3863 6.575 2.3863 5.0598 0 9.2632-3.6662 10.099-8.487l-0.79895 0.79764-1.0607-1.0607 2.5607-2.5607h-6e-5zm-10.8-10.689c2.1372 0 4.1914 0.57227 5.9871 1.6377l0.33361 0.20553-0.80792 1.2638c-1.6333-1.0441-3.5305-1.6071-5.5128-1.6071-5.2398 0-9.5613 3.9317-10.175 9.0059l0.69658-0.69521 1.0607 1.0607-2.5607 2.5607-2.5607-2.5607 1.0607-1.0607 0.78465 0.7851c0.5799-5.9476 5.5941-10.596 11.694-10.596l-2.2e-4 2.8e-4z" fill-opacity=".5"/>
</g>
</g>
</svg>


