<svg viewBox="0 0 36 36" xmlns="http://www.w3.org/2000/svg">
<g fill="none" stroke="currentColor" stroke-linecap="round" stroke-linejoin="round">
<path class="hand" transform="rotate(30 -6.41 30.361)" d="m3.4591 16.407-3.3365-5.985c-0.13693-0.29419-0.16018-0.63597-0.064546-0.94899 0.095632-0.31302 0.30217-0.57123 0.5735-0.71694 0.55481-0.29057 1.2207-0.04381 1.4986 0.55531l1.2724 2.2212m0.16297 0.07833-0.47119-9.7106c0-0.69956 0.57975-1.2667 1.2949-1.2667 0.71516 0 1.2949 0.56711 1.2949 1.2667l0.47119 5.4673 0.5-6.1006c0-0.69956 0.57975-1.2667 1.2949-1.2667 0.71516 0 1.2949 0.56711 1.2949 1.2667l-0.5 6.734 1.1475-5.4673c0-0.69956 0.57975-1.2667 1.2949-1.2667 0.71516 0 1.2949 0.56711 1.2949 1.2667l-1.1475 6.1006 0.826-2.8084c0.29136-0.63333 0.58271-1.2667 1.2949-1.2667s1.4568 0.60167 1.2949 1.2667l-0.826 5.0251-0.58697 3.0542c-0.4445 2.4093-2.7469 4.3323-4.5348 4.3323-1.1919 0-1.999-0.034395-2.4211-0.10318-1.1348 2.556e-4 -2.1886-0.57507-2.7841-1.52" stroke-width="2"/>
<path class="wave" d="m27 14c0-3.866-3.134-7-7-7" opacity=".5" stroke-width="1.5"/>
</g>
</svg>

