<svg xmlns="http://www.w3.org/2000/svg" width="36" height="36" viewBox="0 0 36 36">
  <g fill="none" fill-rule="evenodd">
    <path stroke="currentColor" stroke-width="1.5" d="M16.0449142,9 L23.7704918,9 C25.4273461,9 26.7704918,10.3431458 26.7704918,12 C26.7704918,13.0411428 26.7704918,13.8219999 26.7704918,14.3425713 M19.0718575,26 C17.671554,26 15.5710988,26 12.7704918,26 C11.1136376,26 9.7704918,24.6568542 9.7704918,23 L9.7704918,15.0104189" opacity=".7"/>
    <polygon fill="currentColor" fill-rule="nonzero" points="14 8 14 10 6 10 6 8"/>
    <polygon fill="currentColor" fill-rule="nonzero" points="11 5 11 13 9 13 9 5"/>
    <g fill="currentColor" fill-rule="nonzero" transform="translate(16 13)">
      <path d="M7,-1 C2.581722,-1 -1,2.581722 -1,7 C-1,11.418278 2.581722,15 7,15 C11.418278,15 15,11.418278 15,7 C15,2.581722 11.418278,-1 7,-1 Z M7,1 C10.3137085,1 13,3.6862915 13,7 C13,10.3137085 10.3137085,13 7,13 C3.6862915,13 1,10.3137085 1,7 C1,3.6862915 3.6862915,1 7,1 Z"/>
      <path d="M3.63836088,8.4506096 C4.31452595,9.54698585 5.58954724,10.2377949 6.98487942,10.24984 C8.38068617,10.2618892 9.67047006,9.5927348 10.3694295,8.5073082 C10.5936877,8.15905375 11.0578008,8.05853488 11.4060553,8.28279302 C11.7543097,8.50705116 11.8548286,8.97116432 11.6305705,9.31941877 C10.647822,10.8455463 8.87328253,11.7661974 6.97193127,11.7497841 C5.07010545,11.7333668 3.31371222,10.7817494 2.36163912,9.23799866 C2.14420763,8.88544168 2.25374849,8.42337473 2.60630547,8.20594325 C2.95886245,7.98851176 3.4209294,8.09805262 3.63836088,8.4506096 Z M4.5,4.25 C5.45330939,4.25 6.25,4.98358586 6.25,5.92079141 C6.25,6.33500497 5.91421356,6.67079141 5.5,6.67079141 C5.08578644,6.67079141 4.75,6.33500497 4.75,5.92079141 C4.75,5.84091885 4.65126011,5.75 4.5,5.75 C4.34873989,5.75 4.25,5.84091885 4.25,5.92079141 C4.25,6.33500497 3.91421356,6.67079141 3.5,6.67079141 C3.08578644,6.67079141 2.75,6.33500497 2.75,5.92079141 C2.75,4.98358586 3.54669061,4.25 4.5,4.25 Z M9.5,4.25 C10.4533094,4.25 11.25,4.98358586 11.25,5.92079141 C11.25,6.33500497 10.9142136,6.67079141 10.5,6.67079141 C10.0857864,6.67079141 9.75,6.33500497 9.75,5.92079141 C9.75,5.84091885 9.65126011,5.75 9.5,5.75 C9.34873989,5.75 9.25,5.84091885 9.25,5.92079141 C9.25,6.33500497 8.91421356,6.67079141 8.5,6.67079141 C8.08578644,6.67079141 7.75,6.33500497 7.75,5.92079141 C7.75,4.98358586 8.54669061,4.25 9.5,4.25 Z"/>
    </g>
  </g>
</svg>
