<svg xmlns="http://www.w3.org/2000/svg" width="32" height="32" fill="none" viewBox="0 0 32 32">
  <path stroke="currentColor" stroke-linecap="round" stroke-linejoin="round" stroke-opacity=".5" stroke-width="1.5" d="m21.536 10.547-9.048 9.033m0 0a2.813 2.813 0 0 0 0 3.967m0-3.967a2.79 2.79 0 0 1-1.976.822 2.034 2.034 0 0 1-1.614-.822"/>
  <path stroke="currentColor" stroke-linecap="round" stroke-linejoin="round" stroke-width="2" d="M23.872 12.436c-1.1 1.075-3.515 3.456-5.72 5.606l-6.176 5.957-5.476 1.25 1.29-5.313 1.55-1.5L19.528 8.55l1.121-1.091c1.156-1.121 2.733-.83 3.89.29.46.427.794.972.961 1.577"/>
  <path stroke="currentColor" stroke-linecap="round" stroke-width="2" d="M16.984 25.25h8.52"/>
</svg>
