<svg width="20" height="20" viewBox="0 0 20 20" xmlns="http://www.w3.org/2000/svg"><path d="M6.573 17.905a2 2 0 0 1-.573.083H4a2 2 0 0 1-2-2V11a2 2 0 0 1 2-2h2.004v-.193a1 1 0 0 1 .087-.406l2.983-6.705a1 1 0 0 1 .702-.57c2.397-.52 3.542.621 3.665 2.645.013.226.016.4.016.762l-.003.11-.14 1.674h2.134c2.663 0 4.138 2.279 3.456 4.979l-1.03 3.709a1 1 0 0 1-.091.222c-.94 1.671-2.274 2.775-4.364 2.775H7.004a.996.996 0 0 1-.43-.097zm10.398-7.122c.376-1.49-.256-2.466-1.523-2.466h-3.222a1 1 0 0 1-.997-1.083l.228-2.675c0-.348-.002-.495-.013-.666-.045-.746-.142-.97-.758-.9L8.004 9.02v6.982h5.415c1.178 0 1.949-.608 2.562-1.653l.99-3.566zM4 11v4.988h2V11H4z" fill-rule="nonzero" fill="#000"/></svg>