<svg xmlns="http://www.w3.org/2000/svg" width="36" height="36" fill="currentColor" viewBox="0 0 36 36">
  <g fill="none" fill-rule="evenodd">
    <path fill="currentColor" fill-rule="nonzero" d="M16.822595,11.6285465 C16.4179836,11.7412954 16.0830987,12.017713 15.8935814,12.3837215 L15.84,12.497 L15.709,12.552 L15.6733983,12.5341585 C15.2113587,12.3465664 14.6778379,12.3990412 14.2566824,12.6900033 C13.9559282,12.8977843 13.6762089,13.1306482 13.424456,13.3833709 C13.1791757,13.6267417 12.9469586,13.9059353 12.7361193,14.2098541 L12.655632,14.3394193 C12.4356892,14.7371853 12.4094652,15.2116014 12.5782695,15.6281035 L12.592,15.657 L12.549,15.759 L12.5093926,15.7731192 C12.0405276,15.9636203 11.6923506,16.3822255 11.5988667,16.8923911 C11.5324927,17.2546109 11.4990571,17.6170643 11.4999857,17.9724835 C11.4990631,18.3185999 11.5321111,18.6796856 11.5974721,19.0415469 L11.6289683,19.1788693 C11.7544931,19.6283376 12.0820038,19.9916214 12.5098477,20.1650345 L12.52,20.168 L12.561,20.27 L12.5339757,20.3281658 C12.3463916,20.7910236 12.3996641,21.3253965 12.6919817,21.7466083 C12.9017157,22.0488223 13.1339609,22.3278583 13.3855538,22.5775358 C13.6277057,22.821618 13.9071749,23.0540741 14.2107798,23.2644129 L14.3403601,23.344799 C14.7381543,23.5644447 15.2124481,23.5904305 15.637,23.417 L15.766,23.473 L15.772302,23.4901056 C15.9628304,23.9595383 16.381984,24.3080864 16.8927812,24.4013291 C17.2523193,24.4669604 17.6117063,24.5 17.9728572,24.5 C18.3227285,24.5 18.6802224,24.4670879 19.0385126,24.4029715 L19.1759306,24.3716856 C19.5807626,24.2593203 19.9159927,23.9831316 20.1058561,23.6171856 L20.144,23.533 L20.321,23.463 C20.7883733,23.653277 21.3220518,23.6008563 21.7433176,23.3098181 C22.0429654,23.1028015 22.3220651,22.8706529 22.5742322,22.6184805 C22.82382,22.3688875 23.0544993,22.0912563 23.2631773,21.7909803 L23.3438183,21.6613963 C23.5397141,21.3077528 23.582395,20.8933661 23.4708963,20.5129175 L23.437,20.418 L23.526,20.21 L23.6155254,20.1694949 C24.0229459,19.9587522 24.3194582,19.5679246 24.4029601,19.1012871 C24.4670737,18.7429974 24.5000193,18.3832954 24.5000193,18.0313398 C24.5009362,17.6795672 24.4678425,17.317982 24.4022819,16.9569159 L24.3706695,16.8196595 C24.2573654,16.4153476 23.9806011,16.0809479 23.6144813,15.891932 L23.555,15.864 L23.471,15.657 L23.5146234,15.5330893 C23.640511,15.1056352 23.5716768,14.6350388 23.309278,14.2557453 C23.1016879,13.9556771 22.8697368,13.6768517 22.6178035,13.4249131 C22.3688364,13.1759409 22.0916457,12.9454602 21.7927708,12.7373784 L21.6632711,12.6566359 C21.3098378,12.4604578 20.8955409,12.4174053 20.515029,12.5285298 L20.396,12.57 L20.221,12.497 L20.1692756,12.3837215 C19.9587008,11.9770454 19.5686599,11.6809754 19.1029128,11.5971269 C18.3835742,11.4676244 17.6792827,11.4676244 16.9599441,11.5971269 L16.822595,11.6285465 Z M17.2257166,13.0733942 C17.6786914,12.9918451 18.1182735,12.9782536 18.566784,13.0326196 L18.8371404,13.0733942 L18.95714,13.6684048 L19.1714251,13.7255487 C19.4777099,13.8072644 19.7734804,13.9205236 20.0528853,14.064229 L20.259279,14.1776996 L20.4514213,14.2898445 L20.9357055,13.9684102 C21.1614192,14.1255558 21.3707043,14.2991303 21.5571323,14.4855622 C21.6818938,14.6103264 21.8009411,14.744932 21.9130042,14.8881091 L22.0757022,15.1091448 L21.7514174,15.5955821 L21.8628456,15.7877284 C22.0217023,16.062019 22.1508448,16.3555099 22.2480788,16.6630811 L22.3149872,16.8963196 L22.3707013,17.1134663 L22.9264139,17.2248969 C22.9756995,17.4963303 23.0006994,17.7670494 23.0000143,18.0313398 C23.0000143,18.2065811 22.9888823,18.3856319 22.967079,18.5659526 L22.9264139,18.8370685 L22.3571299,18.9513563 L22.2992729,19.1642172 C22.2147017,19.473937 22.0967592,19.7731424 21.9476397,20.0563474 L21.8299886,20.2656655 L21.7149889,20.4592403 L22.0314166,20.9349631 C21.8735599,21.16211 21.699989,21.3713995 21.513561,21.5578314 C21.3887994,21.6825955 21.2541967,21.8016453 21.1112341,21.9134991 L20.8907057,22.0756978 L20.3964214,21.7464062 L20.2057077,21.8549796 C19.9354228,22.0075537 19.6459408,22.1317845 19.3416434,22.2254776 L19.110711,22.2899873 L18.8921402,22.344274 L18.7742834,22.9264273 C18.5933316,22.9588088 18.4133321,22.9807139 18.2361898,22.9917194 L17.9728572,23 C17.7919054,23 17.6119059,22.9888887 17.4320123,22.9668777 L17.1621454,22.925713 L17.0392886,22.317845 L16.8292892,22.2585582 C16.5523257,22.1803425 16.283398,22.0748049 16.0261219,21.9434521 L15.7728638,21.8035501 L15.5800072,21.688548 L15.0650087,22.0314113 C14.8371523,21.8735513 14.6278672,21.6999768 14.4421534,21.5128306 C14.3173919,21.3890189 14.1986621,21.2547307 14.0868106,21.111871 L13.9242978,20.8913909 L14.2792968,20.35781 L14.17144,20.1670923 C14.0348332,19.9244094 13.92153,19.6648512 13.8321329,19.3926365 L13.7507269,19.1163592 L13.6950128,18.8999268 L13.0735861,18.7749246 C13.0243005,18.5020625 12.9993006,18.2313434 12.9999857,17.9684816 C12.9995337,17.7937166 13.0104894,17.6151419 13.0326597,17.4346625 L13.0743004,17.1627529 L13.7085842,17.0341792 L13.7664412,16.8220325 C13.8419767,16.5482776 13.9436281,16.2825586 14.0698889,16.0290943 L14.204297,15.7798711 L14.3164395,15.5877248 L13.9685834,15.0648583 C14.1271544,14.8362828 14.3007253,14.6269933 14.4871533,14.44199 C14.6114387,14.3172259 14.7458827,14.1981762 14.8887923,14.0863223 L15.1092943,13.9241236 L15.635007,14.2741299 L15.826435,14.1634136 C16.0750057,14.0203754 16.3384424,13.9018465 16.6128278,13.8093336 L16.8907176,13.7255487 L17.1057169,13.6684048 L17.2257166,13.0733942 Z"/>
    <path fill="currentColor" fill-rule="nonzero" d="M17.9,15.75 C16.6573593,15.75 15.65,16.7573593 15.65,18 C15.65,19.2426407 16.6573593,20.25 17.9,20.25 C19.1426407,20.25 20.15,19.2426407 20.15,18 C20.15,16.7573593 19.1426407,15.75 17.9,15.75 Z M17.9,17.25 C18.3142136,17.25 18.65,17.5857864 18.65,18 C18.65,18.4142136 18.3142136,18.75 17.9,18.75 C17.4857864,18.75 17.15,18.4142136 17.15,18 C17.15,17.5857864 17.4857864,17.25 17.9,17.25 Z"/>
    <path fill="currentColor" fill-opacity=".5" fill-rule="nonzero" d="M28.8000002,16.9393398 L31.3606603,19.5 L30.3000002,20.5606602 L29.6029958,19.8638412 C28.7099017,25.4674497 23.8550725,29.75 18,29.75 C15.3275171,29.75 12.7911724,28.8539646 10.7389974,27.2386033 L10.4621891,27.0138848 L11.425007,25.8636754 C13.2561945,27.3965269 15.5613857,28.25 18,28.25 C23.059753,28.25 27.2632301,24.5838473 28.0989516,19.7630217 L27.3000002,20.5606602 L26.23934,19.5 L28.8000002,16.9393398 Z M18,6.25 C20.1372138,6.25 22.1914304,6.8222702 23.9870812,7.88772406 L24.3206927,8.09325685 L23.5127733,9.35708679 C21.8794495,8.31296364 19.9823136,7.75 18,7.75 C12.7602068,7.75 8.43871106,11.6816985 7.82474168,16.7558665 L8.52132017,16.0606602 L9.58198034,17.1213203 L8.08198034,18.6213203 L7.02132017,19.6819805 L4.46066,17.1213203 L5.52132017,16.0606602 L6.30597331,16.8457595 C6.88586985,10.8981583 11.9001172,6.25 18,6.25 Z"/>
  </g>
</svg>