<svg fill="currentColor" viewBox="0 0 24 24" xmlns="http://www.w3.org/2000/svg" xmlns:xlink="http://www.w3.org/1999/xlink">
<defs>
<path id="a" d="m11.667 16.333c0.91667 0 1.6667-0.75 1.6667-1.6667 0-0.91667-0.75-1.6667-1.6667-1.6667-0.91667 0-1.6667 0.75-1.6667 1.6667 0 0.91667 0.75 1.6667 1.6667 1.6667zm5-7.5h-0.83333v-1.6667c0-2.3-1.8667-4.1667-4.1667-4.1667-2.3 0-4.1667 1.8667-4.1667 4.1667v1.6667h-0.83333c-0.91667 0-1.6667 0.75-1.6667 1.6667v8.3333c0 0.91667 0.75 1.6667 1.6667 1.6667h10c0.91667 0 1.6667-0.75 1.6667-1.6667v-8.3333c0-0.91667-0.75-1.6667-1.6667-1.6667zm-7.5833-1.6667c0-1.425 1.1583-2.5833 2.5833-2.5833s2.5833 1.1583 2.5833 2.5833v1.6667h-5.1667v-1.6667zm7.5833 11.667h-10v-8.3333h10v8.3333z" fill="currentColor"/>
</defs>
<g fill="currentColor">
<mask>
<use xlink:href="#a"/>
</mask>
<use xlink:href="#a"/>
</g>
</svg>
