<svg width="44" height="44" xmlns="http://www.w3.org/2000/svg"><path d="M22.256 3.035c0 .543-.441.971-.99.995-4.497.197-8.896 2.075-12.123 5.231-3.485 3.367-5.532 8.123-5.56 12.974-.058 4.849 1.907 9.68 5.378 13.152 3.449 3.494 8.325 5.547 13.295 5.575 4.967.057 9.919-1.914 13.475-5.395 3.578-3.457 5.682-8.35 5.71-13.332.058-4.98-1.963-9.945-5.529-13.51-3.54-3.588-8.555-5.696-13.656-5.723V.978c5.63-.063 11.263 2.187 15.284 6.136 4.051 3.916 6.436 9.483 6.459 15.121.063 5.636-2.239 11.276-6.279 15.3-4.004 4.055-9.7 6.441-15.464 6.464-5.764.063-11.533-2.243-15.646-6.285C2.464 33.706.023 28.004.001 22.235-.063 16.468 2.296 10.692 6.43 6.578 10.252 2.708 15.581.322 21.067.002c.65-.038 1.189.496 1.189 1.14v1.893z" fill="#C9CBC8" fill-rule="evenodd"/></svg>