<?xml version="1.0" encoding="UTF-8"?>
<svg fill="none" viewBox="0 0 32 32" xmlns="http://www.w3.org/2000/svg">
<g clip-path="url(#a)" stroke="currentColor">
<path d="m15.005 8h7.766c0.7956 0 1.5587 0.31607 2.1213 0.87868s0.8787 1.3257 0.8787 2.1213v11c0 0.7956-0.3161 1.5587-0.8787 2.1213m-16.121-10.075v7.954c0 0.7956 0.31607 1.5587 0.87868 2.1213 0.56262 0.5626 1.3256 0.8787 2.1213 0.8787h2.729" stroke-opacity=".5" stroke-width="1.5"/>
<path d="m6 8h6" stroke-linecap="square" stroke-width="2"/>
<path d="m9 5v6" stroke-linecap="square" stroke-width="2"/>
<path d="m19.649 12.889c0.4945 0 0.9778 0.1467 1.389 0.4214 0.4111 0.2747 0.7315 0.6651 0.9207 1.1219s0.2388 0.9595 0.1423 1.4445c-0.0965 0.4849-0.3346 0.9304-0.6842 1.28s-0.7951 0.5877-1.28 0.6842c-0.485 0.0965-0.9877 0.047-1.4445-0.1423-0.4568-0.1892-0.8472-0.5096-1.1219-0.9207-0.2748-0.4112-0.4214-0.8945-0.4214-1.389 0-0.663 0.2634-1.2989 0.7323-1.7677 0.4688-0.4689 1.1047-0.7323 1.7677-0.7323z" stroke-width="1.5"/>
<path d="m14.172 26.267c0-0.02-0.4071-5.032 5.4909-5.032s5.4612 5.032 5.4612 5.032" stroke-linecap="round" stroke-linejoin="round" stroke-width="2"/>
</g>
<defs>
<clipPath id="a">
<rect transform="translate(5 4)" width="21.521" height="23.353" fill="#fff"/>
</clipPath>
</defs>
</svg>
