<svg viewBox="0 0 28 28" xmlns="http://www.w3.org/2000/svg">
<g fill="none" stroke-linecap="round" stroke-linejoin="round">
<g transform="translate(-3 -3)" stroke="currentColor">
<g transform="translate(5 5)">
<path d="m9.5186 18.72c0.81323 0.18792 1.646 0.28189 2.4814 0.28005 6.9966 0 12-7 12-7-1.1094-1.4544-2.4087-2.759-3.8644-3.88m-2.6441-1.72c-1.688-0.89747-3.5727-1.3779-5.4915-1.4-6.9966 0-12 7-12 7 1.6904 2.2132 3.8219 4.0642 6.2644 5.44m5.7356-0.84c2.6959 0 4.8814-2.149 4.8814-4.8m-1.4237-3.4c-1.9096-1.8778-5.0057-1.8778-6.9153 5e-8 -1.9096 1.8778-1.9096 4.9222-5e-8 6.8" opacity=".65" stroke-width="1.5"/>
<line x1="24" y2="24" stroke-width="2"/>
</g>
</g>
</g>
</svg>

