<svg fill="currentColor" viewBox="0 0 24 24" xmlns="http://www.w3.org/2000/svg">
<g fill="none">
<rect width="24" height="24"/>
<g transform="translate(4 2.75)" stroke="currentColor" stroke-linecap="round" stroke-linejoin="round">
<path d="m0 3.25h16m-11.077-0.85v-1.23c0-0.64617 0.53726-1.17 1.2-1.17h3.7538c0.66274 0 1.2 0.52383 1.2 1.17v1.23" fill="none" stroke-width="2"/>
<path transform="matrix(-1 0 0 1 16.005 0)" d="m14.205 4.25-0.89231 12.681c-0.016357 0.72258-0.68189 1.3049-1.5077 1.3192h-7.8154c-0.82581-0.014313-1.4913-0.59665-1.5077-1.3192-0.2405-3.4178-0.42087-5.9811-0.54112-7.69-0.013339-0.18957-0.088578-1.2588-0.14081-2.0011" fill="none" stroke-width="2"/>
<g transform="translate(5 7.75)" opacity=".5" stroke-width="1.5">
<line x1="1" x2="1" y2="6"/>
<line x1="5" x2="5" y2="6"/>
</g>
</g>
</g>
</svg>
