<svg viewBox="0 0 36 36" xmlns="http://www.w3.org/2000/svg">
<g fill="none" stroke="currentColor">
<g transform="translate(7 11)">
<line x1="16" x2="11" y1="4.011" y2="9" stroke-linejoin="round" stroke-width="1.5"/>
<polyline points="13 4 15.989 4 16 4.011 16 7" stroke-linecap="square" stroke-width="1.5"/>
<g stroke-linejoin="round">
<path d="m0.8878 2.0618c0-1.0855 0.71916-1.9737 1.5981-1.9737h15.804c0.87898 0 1.5981 0.88817 1.5981 1.9737v12.053c0 1.0855-0.71916 1.9737-1.5981 1.9737h-15.804c-0.87898 0-1.5981-0.88817-1.5981-1.9737v-12.053z" stroke-width="2"/>
<line x1="3.5" x2="17.348" y1="13" y2="12.773" opacity=".7" stroke-linecap="round" stroke-width="1.5"/>
</g>
</g>
<path d="m24.525 7.5339h-0.48163 1.4129c2.2471 0 5.0687 2.7513 5.0687 4.9117v1.0883 0.42694" opacity=".7" stroke-width="1.5"/>
</g>
</svg>
