<svg viewBox="0 0 14 14" xmlns="http://www.w3.org/2000/svg" fill-rule="evenodd" clip-rule="evenodd" stroke-linejoin="round" stroke-miterlimit="1.414"><g transform="translate(-11.667 -11.667) scale(1.16667)"><path fill="none!important" d="M10 10h12v12H10z"/><clipPath id="a"><path d="M10 10h12v12H10z"/></clipPath><g fill="#27322f" clip-path="url(#a)"><path d="M16 28c6.627 0 12-5.373 12-12S22.627 4 16 4 4 9.373 4 16s5.373 12 12 12zm0 1.714c-7.575 0-13.714-6.14-13.714-13.714C2.286 8.425 8.426 2.286 16 2.286c7.575 0 13.714 6.14 13.714 13.714 0 7.575-6.14 13.714-13.714 13.714z" fill-rule="nonzero"/><path d="M22 16.845h-5.155V22h-1.69v-5.155H10v-1.69h5.155V10h1.69v5.155H22v1.69z"/></g></g></svg>