<?xml version="1.0" encoding="UTF-8" standalone="no"?>
<!DOCTYPE svg PUBLIC "-//W3C//DTD SVG 1.1//EN" "http://www.w3.org/Graphics/SVG/1.1/DTD/svg11.dtd">
<svg width="100%" height="100%" viewBox="0 0 32 32" version="1.1" xmlns="http://www.w3.org/2000/svg" xmlns:xlink="http://www.w3.org/1999/xlink" xml:space="preserve" style="fill-rule:evenodd;clip-rule:evenodd;stroke-linejoin:round;stroke-miterlimit:1.41421;">
    <g id="arrow.-copy" transform="matrix(-1,0,0,1,32,0)">
        <g transform="matrix(-1,0,0,1,32,0)">
            <path d="M23.5,1C27.639,1 31,4.361 31,8.5L31,23.5C31,27.639 27.639,31 23.5,31L8.5,31C4.361,31 1,27.639 1,23.5L1,8.5C1,4.361 4.361,1 8.5,1L23.5,1ZM22.5,3L9.5,3C5.912,3 3,5.913 3,9.5L3,22.5C3,26.087 5.913,29 9.5,29L22.5,29C26.087,29 29,26.087 29,22.5L29,9.5C29,5.913 26.088,3 22.5,3Z" style="fill:white;"/>
        </g>
        <g transform="matrix(-1,0,0,1,32,9.61134)">
            <path d="M8.033,3.895L8.033,5.437L11.203,5.437L11.203,7.136L8.033,7.136L8.033,8.894L11.789,8.894L11.789,10.657L7.231,10.657L5.848,10.657L5.848,2.126L11.813,2.126L11.813,3.895L8.033,3.895Z" style="fill:white;fill-rule:nonzero;"/>
            <path d="M13.998,6.582C13.58,6.354 13.238,6.062 12.97,5.706C12.702,5.351 12.569,4.923 12.569,4.423C12.569,3.931 12.712,3.503 12.999,3.14C13.286,2.776 13.684,2.497 14.192,2.302C14.699,2.106 15.272,2.009 15.908,2.009C16.53,2.009 17.082,2.114 17.567,2.325C18.051,2.536 18.431,2.842 18.706,3.242C18.982,3.643 19.119,4.12 19.119,4.675L16.94,4.675C16.94,4.386 16.847,4.156 16.661,3.986C16.476,3.816 16.207,3.731 15.856,3.731C15.621,3.731 15.42,3.765 15.252,3.831C15.084,3.897 14.957,3.984 14.871,4.092C14.785,4.199 14.742,4.317 14.742,4.446C14.742,4.661 14.866,4.845 15.115,4.997C15.363,5.149 15.742,5.31 16.254,5.478C17.196,5.782 17.908,6.161 18.39,6.614C18.872,7.067 19.114,7.645 19.114,8.349C19.114,8.864 18.983,9.304 18.721,9.667C18.459,10.03 18.09,10.306 17.614,10.493C17.137,10.681 16.576,10.774 15.932,10.774C15.303,10.774 14.714,10.67 14.165,10.461C13.616,10.252 13.17,9.925 12.826,9.479C12.483,9.034 12.311,8.476 12.311,7.804L14.508,7.804C14.508,8.12 14.56,8.37 14.663,8.554C14.767,8.737 14.922,8.867 15.129,8.943C15.336,9.02 15.604,9.058 15.932,9.058C16.272,9.058 16.523,8.99 16.685,8.855C16.847,8.721 16.928,8.556 16.928,8.36C16.928,8.192 16.893,8.051 16.823,7.936C16.752,7.82 16.615,7.706 16.409,7.593C16.204,7.479 15.899,7.354 15.492,7.218C14.914,7.022 14.416,6.811 13.998,6.582Z" style="fill:white;fill-rule:nonzero;"/>
            <path d="M26.631,9.324C26.33,9.787 25.914,10.145 25.383,10.396C24.852,10.648 24.239,10.774 23.543,10.774C22.778,10.774 22.12,10.606 21.572,10.27C21.023,9.935 20.605,9.451 20.318,8.82C20.031,8.189 19.887,7.44 19.887,6.573L19.887,6.216C19.887,5.356 20.036,4.609 20.335,3.975C20.634,3.34 21.056,2.853 21.601,2.513C22.146,2.173 22.778,2.003 23.496,2.003C24.231,2.003 24.862,2.136 25.389,2.401C25.916,2.667 26.325,3.035 26.616,3.506C26.908,3.977 27.078,4.519 27.129,5.132L24.949,5.132C24.946,4.671 24.832,4.334 24.61,4.121C24.387,3.908 24.016,3.802 23.496,3.802C23.172,3.802 22.91,3.877 22.711,4.027C22.512,4.178 22.363,4.428 22.263,4.777C22.163,5.127 22.114,5.603 22.114,6.204L22.114,6.573C22.114,7.198 22.159,7.683 22.251,8.026C22.343,8.37 22.491,8.613 22.694,8.756C22.897,8.898 23.18,8.97 23.543,8.97C23.992,8.97 24.336,8.87 24.574,8.671C24.813,8.472 24.934,8.153 24.938,7.716L27.112,7.716C27.092,8.325 26.932,8.861 26.631,9.324Z" style="fill:white;fill-rule:nonzero;"/>
        </g>
    </g>
</svg>
