<svg version="1.1" viewBox="0 0 32 32" xmlns="http://www.w3.org/2000/svg"><g fill-rule="evenodd"><polygon points="10 13 13 13 13 10 10 10" fill="#0057FF"/><polygon points="14.5 22 17.5 22 17.5 19 14.5 19" fill="#0057FF"/><polygon points="10 22 13 22 13 19 10 19" fill="#0057FF"/><polygon points="10 17.5 13 17.5 13 14.5 10 14.5" fill="#0057FF"/><polygon points="14.5 17.5 17.5 17.5 17.5 14.5 14.5 14.5" fill="#0057FF"/><polygon points="19 10 19 13 22 13 22 10" fill="#0057FF"/><polygon points="14.5 13 17.5 13 17.5 10 14.5 10" fill="#0057FF"/><polygon points="19 17.5 22 17.5 22 14.5 19 14.5" fill="#0057FF"/><polygon points="19 22 22 22 22 19 19 19" fill="#0057FF"/><path fill="#0057FF" id="a" d="m16 3.1667c-7.0877 0-12.833 5.7457-12.833 12.833 0 7.0877 5.7457 12.833 12.833 12.833 7.0877 0 12.833-5.7457 12.833-12.833 0-7.0877-5.7457-12.833-12.833-12.833zm0-1.1667c7.732 0 14 6.268 14 14s-6.268 14-14 14-14-6.268-14-14 6.268-14 14-14z"/></g></svg>