<?xml version="1.0" encoding="UTF-8"?>
<svg width="20px" height="20px" viewBox="0 0 20 20" version="1.1" xmlns="http://www.w3.org/2000/svg" xmlns:xlink="http://www.w3.org/1999/xlink">
    <g id="Assets" stroke="none" stroke-width="1" fill="none" fill-rule="evenodd">
        <g id="icon-20-fix" fill="#27322F">
            <path d="M10.5,12.18 C10.9533356,12.18 11.346665,12.013335 11.68,11.68 C12.013335,11.346665 12.18,10.9533356 12.18,10.5 C12.18,10.0466644 12.013335,9.653335 11.68,9.32 C11.346665,8.986665 10.9533356,8.82 10.5,8.82 C10.0466644,8.82 9.653335,8.986665 9.32,9.32 C8.986665,9.653335 8.82,10.0466644 8.82,10.5 C8.82,10.9533356 8.986665,11.346665 9.32,11.68 C9.653335,12.013335 10.0466644,12.18 10.5,12.18 Z M10.5,7.18 C11.100003,7.18 11.6533308,7.3299985 12.16,7.63 C12.6666692,7.9300015 13.0699985,8.3333308 13.37,8.84 C13.6700015,9.3466692 13.82,9.899997 13.82,10.5 C13.82,11.100003 13.6700015,11.6533308 13.37,12.16 C13.0699985,12.6666692 12.6666692,13.0699985 12.16,13.37 C11.6533308,13.6700015 11.100003,13.82 10.5,13.82 C9.899997,13.82 9.3466692,13.6700015 8.84,13.37 C8.3333308,13.0699985 7.9300015,12.6666692 7.63,12.16 C7.3299985,11.6533308 7.18,11.100003 7.18,10.5 C7.18,9.899997 7.3299985,9.3466692 7.63,8.84 C7.9300015,8.3333308 8.3333308,7.9300015 8.84,7.63 C9.3466692,7.3299985 9.899997,7.18 10.5,7.18 Z M16.32,16.32 L16.32,13 L18,13 L18,16.32 C18,16.7733356 17.833335,17.166665 17.5,17.5 C17.166665,17.833335 16.7733356,18 16.32,18 L13,18 L13,16.32 L16.32,16.32 Z M16.32,3 C16.7733356,3 17.166665,3.166665 17.5,3.5 C17.833335,3.833335 18,4.2266644 18,4.68 L18,8 L16.32,8 L16.32,4.68 L13,4.68 L13,3 L16.32,3 Z M4.68,4.68 L4.68,8 L3,8 L3,4.68 C3,4.2266644 3.166665,3.833335 3.5,3.5 C3.833335,3.166665 4.2266644,3 4.68,3 L8,3 L8,4.68 L4.68,4.68 Z M4.68,13 L4.68,16.32 L8,16.32 L8,18 L4.68,18 C4.2266644,18 3.833335,17.833335 3.5,17.5 C3.166665,17.166665 3,16.7733356 3,16.32 L3,13 L4.68,13 Z" id="center_focus_weak---material"></path>
        </g>
    </g>
</svg>