<svg xmlns="http://www.w3.org/2000/svg" width="32" height="32" fill="none" viewBox="0 0 32 32">
  <path stroke="currentColor" stroke-linecap="round" stroke-width="1.7" d="M16 21a5 5 0 1 0 0-10 5 5 0 0 0 0 10Z"/>
  <path stroke="currentColor" stroke-linecap="round" stroke-linejoin="round" stroke-width="2" d="M16 6v2m0 16v2m10-10h-2M8 16H6m3-7 1.556 1.556m10.889 10.889 1.556 1.556m0-14.001-1.556 1.556M10.556 21.445 9 23.001"/>
  <path stroke="currentColor" stroke-linecap="round" stroke-linejoin="round" stroke-opacity=".5" stroke-width="1.5" d="M16.958 13.164a4.163 4.163 0 0 1-.59 1.951 4.192 4.192 0 0 1-3.04 2"/>
</svg>
