<svg xmlns="http://www.w3.org/2000/svg" width="32" height="32" fill="none" viewBox="0 0 32 32">
  <path stroke="currentColor" stroke-linecap="round" stroke-linejoin="round" stroke-opacity=".5" stroke-width="2" d="M16.375 13.639a4 4 0 1 0-3.297.014"/>
  <path stroke="currentColor" stroke-linecap="round" stroke-linejoin="round" stroke-width="2" d="M18.71 10a4 4 0 1 0-8 0"/>
  <path stroke="currentColor" stroke-linecap="round" stroke-linejoin="round" stroke-width="1.75" d="M15.924 15.5v-4.317a1.183 1.183 0 1 0-2.365 0v9.468l-3.464-2.4c-.14-.283-.225-.229-.525-.329a1.18 1.18 0 0 0-.91.068 1.183 1.183 0 0 0-.532 1.597l5.49 5.736m2.306-9.409a1.183 1.183 0 1 1 2.366 0m.03 0c0-.653.5-.591 1.153-.591s1.183.53 1.183 1.183"/>
  <path stroke="currentColor" stroke-linecap="round" stroke-linejoin="round" stroke-width="1.75" d="M13.617 25.32a2.987 2.987 0 0 0 2.543 1.42h3.904a2.957 2.957 0 0 0 2.957-2.957v-6.098c0-.653-.96-1.42-1.613-1.42"/>
</svg>
