<svg xmlns="http://www.w3.org/2000/svg" width="24" height="24" viewBox="0 0 24 24">
  <g fill="none" transform="translate(0.00 2.0)">
    <g opacity=".5">
      <path stroke="currentColor" stroke-width="1.5" d="M9.28821017,0.75 C9.70291962,0.787569196 9.9999812,0.910674236 10.2124941,1.14200339 L10.2124941,1.14200339 L14.920528,6.26689446 C15.1324191,6.49754669 15.25,6.79934055 15.25,7.11254698 L15.25,7.11254698 L15.25,18 C15.25,18.345178 15.110089,18.657678 14.8838835,18.8838835 C14.657678,19.110089 14.345178,19.25 14,19.25 L14,19.25 L2,19.25 C1.65482203,19.25 1.34232203,19.110089 1.11611652,18.8838835 C0.889911016,18.657678 0.75,18.345178 0.75,18 L0.75,18 L0.75,2 C0.75,1.65482203 0.889911016,1.34232203 1.11611652,1.11611652 C1.34232203,0.889911016 1.65482203,0.75 2,0.75 L2,0.75 Z" />
      <path fill="currentColor" fill-rule="nonzero" d="M9.295,1.5 L9.43244683,1.50683423 L9.47578546,1.51966901 C9.52789052,1.54080158 9.60205976,1.58613153 9.6601773,1.6493949 L9.6601773,1.6493949 L10.607,2.68 L10.607,6.25 L13.887,6.25 L14.3682112,6.77428597 L14.4245598,6.84844396 C14.4735443,6.92719095 14.5,7.01858505 14.5,7.11254698 L14.5,7.11254698 L14.5,7.75 L9.85714286,7.75 C9.47744709,7.75 9.1636519,7.46784612 9.11398947,7.10177056 L9.10714286,7 L9.107,1.5 L9.295,1.5 Z" />
    </g>
    <g fill="currentColor" fill-rule="nonzero" transform="translate(2.00 12.00)">
      <path d="M.287 3.668C.315 3.68666667.403666667 3.72633333.553 3.787.702333333 3.84766667.877333333 3.878 1.078 3.878 1.22266667 3.878 1.33933333 3.8535 1.428 3.8045 1.51666667 3.7555 1.58316667 3.67966667 1.6275 3.577 1.67183333 3.47433333 1.70216667 3.34016667 1.7185 3.1745 1.73483333 3.00883333 1.743 2.807 1.743 2.569L1.743.042 3.108.042 3.108 2.569C3.108 2.947 3.08583333 3.29 3.0415 3.598 2.99716667 3.906 2.90733333 4.172 2.772 4.396 2.63666667 4.62 2.43366667 4.7915 2.163 4.9105 1.89233333 5.0295 1.53066667 5.089 1.078 5.089.863333333 5.089.667333333 5.06333333.49 5.012.312666667 4.96066667.149333333 4.88366667 0 4.781L.287 3.668zM6.4785 1.666C6.4785 1.666 6.43883333 1.64266667 6.3595 1.596 6.28016667 1.54933333 6.17516667 1.49683333 6.0445 1.4385 5.91383333 1.38016667 5.7715 1.32766667 5.6175 1.281 5.4635 1.23433333 5.31183333 1.211 5.1625 1.211 5.04583333 1.211 4.95016667 1.22966667 4.8755 1.267 4.80083333 1.30433333 4.7635 1.36733333 4.7635 1.456 4.7635 1.54 4.80083333 1.60766667 4.8755 1.659 4.95016667 1.71033333 5.05633333 1.757 5.194 1.799 5.33166667 1.841 5.49616667 1.89233333 5.6875 1.953 5.9955 2.04633333 6.2615 2.15366667 6.4855 2.275 6.7095 2.39633333 6.88216667 2.5515 7.0035 2.7405 7.12483333 2.9295 7.1855 3.18033333 7.1855 3.493 7.1855 3.79166667 7.13183333 4.0425 7.0245 4.2455 6.91716667 4.4485 6.7725 4.61066667 6.5905 4.732 6.4085 4.85333333 6.2055 4.94083333 5.9815 4.9945 5.7575 5.04816667 5.52883333 5.075 5.2955 5.075 5.0575 5.075 4.809 5.0505 4.55 5.0015 4.291 4.9525 4.04016667 4.88483333 3.7975 4.7985 3.55483333 4.71216667 3.33316667 4.61066667 3.1325 4.494L3.7205 3.297C3.7205 3.297 3.76716667 3.325 3.8605 3.381 3.95383333 3.437 4.0775 3.5 4.2315 3.57 4.3855 3.64 4.557 3.703 4.746 3.759 4.935 3.815 5.12516667 3.843 5.3165 3.843 5.46583333 3.843 5.56966667 3.82316667 5.628 3.7835 5.68633333 3.74383333 5.7155 3.69133333 5.7155 3.626 5.7155 3.528 5.66416667 3.45216667 5.5615 3.3985 5.45883333 3.34483333 5.32466667 3.2935 5.159 3.2445 4.99333333 3.1955 4.81016667 3.13833333 4.6095 3.073 4.32016667 2.975 4.08216667 2.86416667 3.8955 2.7405 3.70883333 2.61683333 3.57116667 2.46983333 3.4825 2.2995 3.39383333 2.12916667 3.3495 1.92266667 3.3495 1.68 3.3495 1.31133333 3.43583333 1.00333333 3.6085.756 3.78116667.508666667 4.00866667.320833333 4.291.1925 4.57333333.0641666667 4.87783333 0 5.2045 0 5.44716667 0 5.68166667.0291666667 5.908.0875 6.13433333.145833333 6.34666667.217 6.545.301 6.74333333.385 6.91716667.464333333 7.0665.539L6.4785 1.666z" />
      <path d="M9.59,5.054 C9.212,5.054 8.869,4.98283333 8.561,4.8405 C8.253,4.69816667 7.98816667,4.50683333 7.7665,4.2665 C7.54483333,4.02616667 7.3745,3.7555 7.2555,3.4545 C7.1365,3.1535 7.077,2.842 7.077,2.52 C7.077,2.18866667 7.14,1.87366667 7.266,1.575 C7.392,1.27633333 7.56816667,1.00916667 7.7945,0.7735 C8.02083333,0.537833333 8.28916667,0.352333333 8.5995,0.217 C8.90983333,0.0816666667 9.24933333,0.014 9.618,0.014 C9.996,0.014 10.339,0.0851666667 10.647,0.2275 C10.955,0.369833333 11.2186667,0.562333333 11.438,0.805 C11.6573333,1.04766667 11.8265,1.3195 11.9455,1.6205 C12.0645,1.9215 12.124,2.23066667 12.124,2.548 C12.124,2.87466667 12.0621667,3.18733333 11.9385,3.486 C11.8148333,3.78466667 11.6398333,4.05183333 11.4135,4.2875 C11.1871667,4.52316667 10.92,4.70983333 10.612,4.8475 C10.304,4.98516667 9.96333333,5.054 9.59,5.054 Z M8.463,2.534 C8.463,2.702 8.48633333,2.86416667 8.533,3.0205 C8.57966667,3.17683333 8.64966667,3.31683333 8.743,3.4405 C8.83633333,3.56416667 8.95416667,3.66216667 9.0965,3.7345 C9.23883333,3.80683333 9.408,3.843 9.604,3.843 C9.8,3.843 9.97033333,3.80566667 10.115,3.731 C10.2596667,3.65633333 10.3775,3.55483333 10.4685,3.4265 C10.5595,3.29816667 10.6271667,3.15583333 10.6715,2.9995 C10.7158333,2.84316667 10.738,2.68333333 10.738,2.52 C10.738,2.352 10.7146667,2.191 10.668,2.037 C10.6213333,1.883 10.5513333,1.74416667 10.458,1.6205 C10.3646667,1.49683333 10.2456667,1.4 10.101,1.33 C9.95633333,1.26 9.78833333,1.225 9.597,1.225 C9.401,1.225 9.23183333,1.26233333 9.0895,1.337 C8.94716667,1.41166667 8.82933333,1.51083333 8.736,1.6345 C8.64266667,1.75816667 8.57383333,1.89816667 8.5295,2.0545 C8.48516667,2.21083333 8.463,2.37066667 8.463,2.534 Z" />
      <polygon points="13.633 2.569 13.633 5.012 12.268 5.012 12.268 .042 13.332 .042 15.326 2.569 15.326 .042 16.692 .042 16.692 5.012 15.607 5.012" />
    </g>
  </g>
</svg>