<?xml version="1.0" encoding="UTF-8"?>
<svg viewBox="0 0 40 40" xmlns="http://www.w3.org/2000/svg">
<g transform="translate(7 2)" fill="none" fill-rule="evenodd">
<path d="m8 11.462c0.21884-0.10128-0.030449 0.088882 0.1997 0 1.4059-0.54294 3.0046-0.84889 4.5745-0.84889h0.58065c6.7343 0 12.194 5.4592 12.194 12.194s-5.4592 12.194-12.194 12.194h-0.58065c-6.7343 0-12.194-5.4592-12.194-12.194 0-3.5284 1.4987-6.7068 3.8942-8.9333" stroke="#FFF" stroke-linecap="round" stroke-linejoin="round" stroke-width="2"/>
<line x1="12.948" x2="12.948" y1="21.978" y2="26.937" stroke="#FFF" stroke-linecap="round" stroke-width="2"/>
<path d="m13.896 21.648c0 0.52548-0.42213 0.94819-0.94703 0.94819-0.52258 0-0.94935-0.42271-0.94935-0.94819 0-0.52548 0.42677-0.94819 0.94935-0.94819 0.5249 0 0.94703 0.42271 0.94703 0.94819zm-9.3964-7.6956 0.0010521-5.1899c-0.023672-4.5164 3.5088-8.2389 7.8487-8.2626h1.2173c4.34-0.023427 7.9092 3.6515 7.9329 8.1679v4.832" stroke="#FFF" stroke-width="2"/>
<path d="m8 11.624v-3.2022c0-2.6393 2.1412-4.7978 4.7594-4.7978h0.48123c2.6182 0 4.7594 2.1585 4.7594 4.7978v2.9624" stroke="#FFF" stroke-width="2"/>
<path d="m13.204 22.596c-0.52258 0-0.94935-0.42271-0.94935-0.94819s0.42677-0.94819 0.94935-0.94819c0.5249 0 0.94703 0.42271 0.94703 0.94819s-0.42213 0.94819-0.94703 0.94819z" fill="#FFF"/>
</g>
</svg>
