<svg viewBox="0 0 36 36" xmlns="http://www.w3.org/2000/svg">
<g fill="none">
<g transform="translate(6 4)">
<rect y="2" width="24" height="24"/>
<path d="m11.664 10.639c1.3787-0.63134 2.3364-2.0232 2.3364-3.6387 0-2.2091-1.7909-4-4-4s-4 1.7909-4 4c0 1.6276 0.97212 3.0282 2.3674 3.6528" opacity=".7" stroke="currentColor" stroke-linecap="round" stroke-linejoin="round" stroke-width="2"/>
<path transform="translate(2)" d="m6.8443 17.651v-9.4683c0-0.65327 0.52958-1.1829 1.1829-1.1829s1.1829 0.52958 1.1829 1.1829v4.3167m-2.3066 9.8239-5.4894-5.7369c-0.14321-0.282-0.16752-0.6096-0.067504-0.90964s0.31603-0.54754 0.59979-0.68721c0.282-0.14321 0.6096-0.16752 0.90964-0.067504 0.30005 0.10002 0.38489 0.045613 0.52456 0.32938l3.4638 2.3996m2.3657-4.7369c0-0.65327 0.52958-1.1829 1.1829-1.1829 0.65327 0 1.1829 0.52958 1.1829 1.1829m0.029571 0c0-0.65327 0.50001-0.59143 1.1533-0.59143 0.65327 0 1.1829 0.52958 1.1829 1.1829m-7.038 8.8177c0.54396 0.88241 1.5065 1.4197 2.5431 1.4194h3.9034c1.6332 0 2.9571-1.324 2.9571-2.9571v-6.0971c0-0.65327-0.95953-1.4198-1.6128-1.4198" stroke="currentColor" stroke-linecap="round" stroke-linejoin="round" stroke-width="1.5"/>
</g>
<path d="m20 11c0-2.2091-1.7909-4-4-4s-4 1.7909-4 4" stroke="currentColor" stroke-linecap="round" stroke-linejoin="round" stroke-width="2"/>
</g>
</svg>
