<svg width="32" height="32" viewBox="0 0 32 32" fill="none" xmlns="http://www.w3.org/2000/svg">
<path fill-rule="evenodd" clip-rule="evenodd" d="M14.1044 6.46794C15.4744 6.16747 16.7691 6.17769 18.1442 6.49859L18.3673 7.60512C19.117 7.82635 19.663 8.04877 20.152 8.30865L21.4038 7.92133C21.966 8.28181 22.4833 8.69402 22.9332 9.14393C23.4169 9.62768 23.8573 10.1864 24.2343 10.8017L23.6316 11.7058C24.0085 12.3999 24.2387 12.9553 24.4035 13.5042L25.5329 14.1112C25.6781 14.7654 25.7517 15.422 25.75 16.0567C25.75 16.7363 25.6655 17.4451 25.5013 18.1447L24.438 18.3582C24.2087 19.1179 23.9764 19.6725 23.705 20.1708L24.0766 21.4053C23.7143 21.9707 23.3033 22.4862 22.8548 22.9347C22.3704 23.419 21.8109 23.8599 21.1979 24.2341L20.276 23.6199C19.5954 23.9808 19.05 24.2018 18.5103 24.3603L17.89 25.5338C17.234 25.6768 16.5798 25.7502 15.9512 25.7502C15.2492 25.7502 14.5546 25.6655 13.8544 25.4984L13.625 24.3633C12.9065 24.1397 12.3809 23.9178 11.9073 23.6615L10.6031 24.0814C10.032 23.7176 9.51191 23.3035 9.0676 22.8557C8.58308 22.3749 8.14417 21.8143 7.76519 21.2014L8.42729 20.2062C8.08522 19.5582 7.87421 19.0407 7.7193 18.5309L6.46924 17.9006C6.32263 17.2384 6.24833 16.5772 6.25003 15.9455C6.24822 15.2685 6.33278 14.5624 6.50225 13.856L7.68083 13.617C7.89577 12.9081 8.10834 12.3911 8.35278 11.9273L7.91699 10.6054C8.28349 10.0312 8.69799 9.51063 9.14555 9.06651C9.62838 8.58182 10.1888 8.1406 10.802 7.7661L11.7771 8.41532C12.4406 8.05635 12.9677 7.83549 13.4842 7.67531L14.1044 6.46794Z" stroke="currentColor" stroke-width="1.75" stroke-linecap="round" stroke-linejoin="round" fill="none"/>
<path d="M16 19.0001C17.6569 19.0001 19 17.657 19 16.0001C19 14.3432 17.6569 13 16 13C14.3431 13 13 14.3432 13 16.0001C13 17.657 14.3431 19.0001 16 19.0001Z" stroke="currentColor" stroke-opacity="0.5" stroke-width="1.5" stroke-linecap="round" stroke-linejoin="round" fill="none"/>
</svg>
