<svg xmlns="http://www.w3.org/2000/svg" width="40" height="40" viewBox="0 0 40 40">
  <g fill="none" fill-rule="evenodd" transform="translate(7 2)">
    <path stroke="#333" stroke-linecap="round" stroke-linejoin="round" stroke-width="1.5" d="M7.52572632,11.7471924 C9.08138988,11.0272204 10.947331,10.6129032 12.7741935,10.6129032 L13.3548387,10.6129032 C20.0891495,10.6129032 25.5483871,16.0721408 25.5483871,22.8064516 C25.5483871,29.5407624 20.0891495,35 13.3548387,35 L12.7741935,35 C6.03988273,35 0.580645161,29.5407624 0.580645161,22.8064516 C0.580645161,19.2780261 2.07932055,16.0996351 4.47484371,13.873106"/>
    <line x1="12.948" x2="12.948" y1="21.978" y2="26.937" stroke="#333" stroke-linecap="round" stroke-width="1.5"/>
    <path stroke="#333" stroke-width="1.5" d="M13.8963871 21.6481935C13.8963871 22.1736774 13.4742581 22.5963871 12.9493548 22.5963871 12.4267742 22.5963871 12 22.1736774 12 21.6481935 12 21.1227097 12.4267742 20.7 12.9493548 20.7 13.4742581 20.7 13.8963871 21.1227097 13.8963871 21.6481935zM4.5 13.9525629L4.50105211 8.76269179C4.47737963 4.24633583 8.00984033.523763646 12.3497958.500111391L13.5670875.500111391C17.907043.476684057 21.4763275 4.15162921 21.5 8.66798517L21.5 13.5"/>
    <path stroke="#333" stroke-width="1.452" d="M7.5,11.7471924 L7.5,8.44607405 C7.5,5.72518376 9.85531465,3.5 12.7353252,3.5 L13.2646748,3.5 C16.1446854,3.5 18.5,5.72518376 18.5,8.44607405 L18.5,11.5"/>
    <path fill="#333" d="M13.203929,22.5963161 C12.6813484,22.5963161 12.2545742,22.1736065 12.2545742,21.6481226 C12.2545742,21.1226387 12.6813484,20.699929 13.203929,20.699929 C13.7288323,20.699929 14.1509613,21.1226387 14.1509613,21.6481226 C14.1509613,22.1736065 13.7288323,22.5963161 13.203929,22.5963161 Z"/>
  </g>
</svg>
