<svg id="icon_settings" data-name="icon/settings" xmlns="http://www.w3.org/2000/svg" width="32" height="32" viewBox="0 0 32 32">
  <rect id="BG" width="32" height="32" fill="none"/>
  <g id="icon_settings_24-grey" data-name="icon/settings/24-grey" transform="translate(4 4)">
    <g id="Fill_1" data-name="Fill 1" transform="translate(3 3)" fill="none" stroke-linecap="round" stroke-linejoin="round" stroke-miterlimit="10">
      <path d="M8.943,18h.008a8.215,8.215,0,0,0,1.443-.132l.212-1.048.393-.1a7.946,7.946,0,0,0,1.971-.783l.343-.2.89.593a8.094,8.094,0,0,0,1.121-.932,8.217,8.217,0,0,0,.932-1.121l-.57-.856.207-.348a7.922,7.922,0,0,0,.845-1.983l.1-.383,1.025-.206A8.268,8.268,0,0,0,18,9.056,8.022,8.022,0,0,0,17.868,7.6l-1-.2-.1-.391a7.939,7.939,0,0,0-.814-2l-.2-.346.584-.876A8.129,8.129,0,0,0,15.4,2.674a8.247,8.247,0,0,0-1.119-.931l-.872.579-.346-.2a7.888,7.888,0,0,0-1.958-.814l-.386-.1L10.507.132a8.027,8.027,0,0,0-2.9,0L7.39,1.2,7,1.306a7.943,7.943,0,0,0-1.916.788l-.345.2L3.8,1.663A8.007,8.007,0,0,0,1.743,3.717l.626.941L2.168,5A7.916,7.916,0,0,0,1.38,6.88l-.1.382L.134,7.493A7.948,7.948,0,0,0,0,8.943a8.064,8.064,0,0,0,.132,1.452l1.119.225.1.39A7.97,7.97,0,0,0,2.109,12.9l.194.343-.639.96a8.029,8.029,0,0,0,2.053,2.052l.927-.617.347.207a7.922,7.922,0,0,0,1.9.819l.378.107.221,1.094A8.057,8.057,0,0,0,8.936,18Z" stroke="none"/>
      <path d="M 8.951140403747559 18.00000190734863 C 9.420430183410645 18.00000190734863 9.905139923095703 17.95500183105469 10.39371013641357 17.8675708770752 L 10.60585021972656 16.8196907043457 L 10.99927997589111 16.72198104858398 C 11.69999027252197 16.54583168029785 12.3621301651001 16.28225135803223 12.97027015686035 15.93896198272705 L 13.31355953216553 15.74353122711182 L 14.20326995849609 16.33625221252441 C 14.61083984375 16.0546817779541 14.98754978179932 15.74096202850342 15.3244104385376 15.40410137176514 C 15.65997982025146 15.06852149963379 15.97241020202637 14.69180202484131 16.25654983520508 14.28293132781982 L 15.68698024749756 13.42663192749023 L 15.89398002624512 13.07820129394531 C 16.26425933837891 12.45976161956787 16.54841041564941 11.79246139526367 16.73868942260742 11.09559154510498 L 16.84283065795898 10.71244144439697 L 17.86754035949707 10.50672149658203 C 17.95496940612793 10.018141746521 17.99996948242188 9.529561996459961 17.99996948242188 9.056411743164062 C 18.00126075744629 8.580691337585449 17.95626068115234 8.093391418457031 17.86754035949707 7.604811668395996 L 16.86725997924805 7.404241561889648 L 16.7669792175293 7.013371467590332 C 16.58440971374512 6.306221485137939 16.31055068969727 5.635061740875244 15.95312023162842 5.017911434173584 L 15.75255012512207 4.672051429748535 L 16.33625984191895 3.796461582183838 C 16.05340957641602 3.387591600418091 15.73968982696533 3.010871648788452 15.40283966064453 2.674011468887329 C 15.06727027893066 2.338431596755981 14.69054985046387 2.026001453399658 14.28427028656006 1.743141531944275 L 13.41256046295166 2.32172155380249 L 13.06669998168945 2.119861602783203 C 12.45728015899658 1.762421607971191 11.79771041870117 1.489851593971252 11.10857009887695 1.305991530418396 L 10.72284984588623 1.203131556510925 L 10.50685024261475 0.1321115642786026 C 9.528429985046387 -0.04403842985630035 8.584719657897949 -0.04403842985630035 7.606289863586426 0.1321115642786026 L 7.390289783477783 1.203131556510925 L 7.003290176391602 1.305991530418396 C 6.328289985656738 1.485991597175598 5.684150218963623 1.750851511955261 5.08758020401001 2.094141483306885 L 4.7430100440979 2.293431520462036 L 3.796730041503906 1.663421511650085 C 3.389159917831421 1.945001602172852 3.012449979782104 2.258721590042114 2.6768798828125 2.595581531524658 C 2.341310024261475 2.92859148979187 2.028879880905151 3.305311679840088 1.743450045585632 3.716741561889648 L 2.369590044021606 4.657901763916016 L 2.167730093002319 5.003771781921387 C 1.825739979743958 5.591351509094238 1.560879945755005 6.222651481628418 1.379590034484863 6.879661560058594 L 1.275449991226196 7.261521339416504 L 0.1337399929761887 7.492951393127441 C 0.04374000057578087 7.984111785888672 -0.001260000048205256 8.471401214599609 2.999999924213625e-05 8.943271636962891 C -0.001260000048205256 9.416421890258789 0.04374000057578087 9.903711318969727 0.1324599981307983 10.39486122131348 L 1.251019954681396 10.61987113952637 L 1.351310014724731 11.00944137573242 C 1.52744996547699 11.68189144134521 1.780740022659302 12.31833171844482 2.108589887619019 12.90076160430908 L 2.302730083465576 13.24406147003174 L 1.663740038871765 14.20450115203857 C 1.946589946746826 14.61208152770996 2.259020090103149 14.98880195617676 2.595880031585693 15.32309150695801 C 2.930160045623779 15.65996170043945 3.306869983673096 15.97239112854004 3.717020034790039 16.25654220581055 L 4.644010066986084 15.63938140869141 L 4.99114990234375 15.84639167785645 C 5.589009761810303 16.20254135131836 6.228010177612305 16.47769165039062 6.892720222473145 16.66540145874023 L 7.2707200050354 16.77212142944336 L 7.491859912872314 17.86628150939941 C 7.977859973907471 17.95500183105469 8.462570190429688 18.00000190734863 8.935709953308105 18.00000190734863 L 8.951140403747559 18.00000190734863 M 8.951140403747559 20.00000190734863 L 8.935709953308105 20.00000190734863 C 8.343560218811035 20.00000190734863 7.736929893493652 19.94407081604004 7.132689952850342 19.83377075195312 C 6.348934173583984 19.69068717956543 5.727004528045654 19.09686851501465 5.545247554779053 18.32532501220703 C 5.270588397979736 18.22161865234375 5.000419616699219 18.10564422607422 4.735562801361084 17.97776794433594 C 4.066099643707275 18.3741340637207 3.222872018814087 18.3472785949707 2.578059911727905 17.90055084228516 C 2.066247701644897 17.54597473144531 1.596432566642761 17.15459251403809 1.181607246398926 16.73726463317871 C 0.7652337551116943 16.3233585357666 0.3746374845504761 15.85488033294678 0.02064000070095062 15.34477138519287 C -0.4413222372531891 14.67909908294678 -0.4555041193962097 13.80147171020508 -0.0179117638617754 13.12188816070557 C -0.1324751228094101 12.86766624450684 -0.2368890047073364 12.60693073272705 -0.3308659195899963 12.34045886993408 C -1.101544380187988 12.15710258483887 -1.694081425666809 11.53431797027588 -1.835690021514893 10.75038146972656 C -1.945955753326416 10.13992786407471 -2.001224756240845 9.531952857971191 -1.999972820281982 8.943299293518066 C -2.00124716758728 8.351444244384766 -1.945237994194031 7.74223518371582 -1.833510041236877 7.132471561431885 C -1.687647581100464 6.336471080780029 -1.076768636703491 5.707650184631348 -0.28716841340065 5.53773832321167 C -0.1896319687366486 5.274390697479248 -0.08107738941907883 5.015528678894043 0.03821544721722603 4.761829853057861 C -0.3750805258750916 4.08779764175415 -0.353167712688446 3.230179071426392 0.1001800000667572 2.576721668243408 C 0.4563871026039124 2.063257217407227 0.8481187224388123 1.593184113502502 1.264566779136658 1.179460644721985 C 1.685210704803467 0.7577884793281555 2.154657125473022 0.366998553276062 2.659899950027466 0.01793156750500202 C 3.316764354705811 -0.435873419046402 4.1786789894104 -0.4545559585094452 4.853195667266846 -0.03478721156716347 C 5.120133399963379 -0.1586923897266388 5.39290189743042 -0.2708354890346527 5.67054557800293 -0.3708501756191254 C 5.865646362304688 -1.122612118721008 6.481003761291504 -1.69746470451355 7.25193977355957 -1.836248397827148 C 7.855519771575928 -1.944908380508423 8.462690353393555 -1.999998450279236 9.056570053100586 -1.999998450279236 C 9.650469779968262 -1.999998450279236 10.25763034820557 -1.944908380508423 10.8612003326416 -1.836248397827148 C 11.63228416442871 -1.697428464889526 12.24773788452148 -1.122358560562134 12.44271469116211 -0.3703854084014893 C 12.74083232879639 -0.262987345457077 13.03256607055664 -0.1418782919645309 13.31700038909912 -0.007438820786774158 C 13.97936630249023 -0.3737112879753113 14.79823398590088 -0.3360098004341125 15.42702960968018 0.1017715707421303 C 15.93381977081299 0.4546115696430206 16.4015007019043 0.8442315459251404 16.81707000732422 1.259821534156799 C 17.23971939086914 1.682471513748169 17.6313304901123 2.153101682662964 17.98105049133301 2.658621549606323 C 18.41832733154297 3.290736675262451 18.45237922668457 4.113086223602295 18.08027076721191 4.775520324707031 C 18.21969413757324 5.073919296264648 18.34446334838867 5.379998683929443 18.45417976379395 5.692733764648438 C 19.16357040405273 5.910152435302734 19.70084190368652 6.506667613983154 19.83535957336426 7.247481346130371 C 19.9459400177002 7.856453418731689 20.00131988525391 8.465459823608398 19.99996948242188 9.057755470275879 C 19.9998893737793 9.646450042724609 19.94481086730957 10.25243663787842 19.83626937866211 10.85902118682861 C 19.70053291320801 11.61754608154297 19.14265632629395 12.22584056854248 18.40933799743652 12.43196296691895 C 18.29537582397461 12.74226570129395 18.16610908508301 13.04643726348877 18.02208709716797 13.34322834014893 C 18.3719482421875 14.00003719329834 18.32976531982422 14.80428123474121 17.89891052246094 15.42427158355713 C 17.54558944702148 15.93269157409668 17.15522003173828 16.40170097351074 16.73863983154297 16.81829071044922 C 16.31525039672852 17.24169158935547 15.84471035003662 17.63312149047852 15.34006977081299 17.98176193237305 C 14.69945621490479 18.42432403564453 13.8638334274292 18.45302963256836 13.19722175598145 18.0648193359375 C 12.91088962554932 18.19495010375977 12.61723327636719 18.31182098388672 12.31735992431641 18.41499900817871 C 12.10968494415283 19.1456298828125 11.5025110244751 19.70091819763184 10.74602031707764 19.83630180358887 C 10.13899993896484 19.94492149353027 9.535110473632812 20.00000190734863 8.951140403747559 20.00000190734863 Z" stroke="none" fill="currentColor"/>
    </g>
    <ellipse id="Oval" cx="3" cy="3" rx="3" ry="3" transform="translate(9 9)" fill="none" stroke="currentColor" stroke-linecap="round" stroke-linejoin="round" stroke-miterlimit="10" stroke-width="1.5" opacity="0.7"/>
  </g>
</svg>
