<svg viewBox="0 0 24 24" xmlns="http://www.w3.org/2000/svg">
<g transform="translate(5)" fill="none">
<g opacity=".5">
<path d="m9.2882 0.75c0.41471 0.037569 0.71177 0.16067 0.92428 0.392l4.708 5.1249c0.21189 0.23065 0.32947 0.53245 0.32947 0.84565v10.887c0 0.34518-0.13991 0.65768-0.36612 0.88388s-0.53871 0.36612-0.88388 0.36612h-12c-0.34518 0-0.65768-0.13991-0.88388-0.36612-0.22621-0.22621-0.36612-0.53871-0.36612-0.88388v-16c0-0.34518 0.13991-0.65768 0.36612-0.88388 0.22621-0.22621 0.53871-0.36612 0.88388-0.36612z" stroke="currentColor" stroke-width="1.5"/>
<path d="m9.295 1.5 0.13745 0.0068342 0.043339 0.012835c0.052105 0.021133 0.12627 0.066463 0.18439 0.12973l0.94682 1.0306v3.57h3.28l0.48121 0.52429 0.056349 0.074158c0.048984 0.078747 0.07544 0.17014 0.07544 0.2641v0.63745h-4.6429c-0.3797 0-0.69349-0.28215-0.74315-0.64823l-0.0068466-0.10177-1.4286e-4 -5.5h0.188z" fill="currentColor"/>
</g>
</g>
</svg>
