<svg xmlns="http://www.w3.org/2000/svg" viewBox="70.29 0 466.23 606.82"><path fill="currentColor" d="M477.884 79.917h-50.825c-11.908-7.781-24.874-13.455-36.857-17.557-5.595-14.695-14.537-27.921-26.047-38.28C347.263 8.875 325.688.5 303.408.5s-43.854 8.374-60.747 23.581c-11.509 10.36-20.452 23.586-26.046 38.28-11.984 4.102-24.949 9.776-36.857 17.557h-50.825c-32.058 0-58.14 26.082-58.14 58.14v410.118c0 32.059 26.082 58.141 58.14 58.141h348.951c32.058 0 58.14-26.082 58.14-58.141V138.057c-.001-32.058-26.083-58.14-58.14-58.14zM253.876 87.36a59.26 59.26 0 0 1 1.947-7.442c7.067-21.335 25.7-36.578 47.585-36.578s40.518 15.243 47.585 36.578c.798 2.409 1.456 4.891 1.947 7.442 1.117 5.81 5.572 10.378 11.294 11.885 20.769 5.473 37.699 13.664 48.5 23.512 1.703 1.553 3.259 3.146 4.648 4.777 6.852 8.046 1.201 20.417-9.367 20.417H198.801c-10.568 0-16.218-12.37-9.367-20.417 1.389-1.632 2.945-3.224 4.648-4.777 10.801-9.849 27.732-18.04 48.5-23.512 5.722-1.508 10.176-6.076 11.294-11.885zm239.308 460.816c0 8.451-6.851 15.301-15.3 15.301h-348.95c-8.45 0-15.3-6.85-15.3-15.301V138.057c0-8.45 6.85-15.3 15.3-15.3h16.175c-.507 2.123-.894 4.28-1.147 6.468-1.164 10.078.478 20.292 4.75 29.538 4.262 9.227 10.955 17.082 19.354 22.717 9.08 6.091 19.708 9.311 30.735 9.311h209.215c11.027 0 21.655-3.22 30.734-9.312a55.21 55.21 0 0 0 19.355-22.717c4.271-9.246 5.913-19.46 4.75-29.538a55.29 55.29 0 0 0-1.147-6.467h16.175c8.45 0 15.3 6.85 15.3 15.3v410.119h.001z" /><path fill="currentColor" d="M477.884 606.816H128.933c-32.334 0-58.64-26.306-58.64-58.641V138.058c0-32.334 26.306-58.64 58.64-58.64h50.676c10.493-6.839 22.812-12.71 36.622-17.454 5.656-14.751 14.676-27.976 26.096-38.255C259.312 8.42 281.004 0 303.408 0s44.097 8.42 61.081 23.709c11.419 10.278 20.439 23.502 26.096 38.255 13.813 4.746 26.133 10.617 36.622 17.454h50.677c32.334 0 58.64 26.306 58.64 58.64v410.119c-.001 32.334-26.306 58.639-58.64 58.639zM128.933 80.418c-31.783 0-57.64 25.857-57.64 57.64v410.118c0 31.783 25.857 57.641 57.64 57.641h348.951c31.782 0 57.64-25.857 57.64-57.641V138.057c0-31.783-25.857-57.64-57.64-57.64H426.91l-.125-.082c-10.503-6.863-22.865-12.751-36.746-17.502l-.222-.076-.083-.219c-5.595-14.693-14.556-27.863-25.915-38.086C347.02 9.329 325.565 1 303.408 1s-43.612 8.329-60.412 23.452c-11.359 10.225-20.32 23.395-25.914 38.086l-.083.219-.222.076c-13.877 4.749-26.24 10.638-36.746 17.502l-.125.082h-50.973zm348.951 483.559h-348.95c-8.712 0-15.8-7.088-15.8-15.801V138.057c0-8.712 7.088-15.8 15.8-15.8h16.809l-.147.616c-.509 2.132-.892 4.289-1.137 6.409a54.78 54.78 0 0 0 4.708 29.27c4.223 9.144 10.855 16.928 19.179 22.512 8.997 6.036 19.528 9.226 30.457 9.226h209.215c10.928 0 21.46-3.19 30.456-9.227 8.324-5.584 14.957-13.369 19.18-22.512a54.8 54.8 0 0 0 4.707-29.271 54.74 54.74 0 0 0-1.137-6.408l-.147-.616h16.809c8.712 0 15.8 7.088 15.8 15.8v410.119c-.002 8.714-7.09 15.802-15.802 15.802zm-348.95-440.72a14.82 14.82 0 0 0-14.8 14.8v410.119c0 8.161 6.639 14.801 14.8 14.801h348.95c8.161 0 14.8-6.64 14.8-14.801V138.057a14.82 14.82 0 0 0-14.8-14.8h-15.545c.447 1.971.788 3.956 1.015 5.909a55.79 55.79 0 0 1-4.793 29.805 55.72 55.72 0 0 1-19.531 22.923c-9.161 6.147-19.886 9.396-31.013 9.396H198.802c-11.127 0-21.852-3.249-31.014-9.396a55.71 55.71 0 0 1-19.53-22.923c-4.31-9.329-5.967-19.635-4.792-29.804.226-1.956.567-3.941 1.014-5.911h-15.546zm279.082 25.194H198.801a12.7 12.7 0 0 1-11.652-7.444c-2.135-4.622-1.406-9.909 1.904-13.797 1.375-1.614 2.953-3.237 4.692-4.822 10.89-9.929 27.733-18.099 48.71-23.626 5.579-1.471 9.87-5.983 10.931-11.496.482-2.502 1.143-5.027 1.963-7.505 7.315-22.083 26.629-36.92 48.06-36.92s40.744 14.837 48.06 36.92c.821 2.48 1.482 5.006 1.964 7.505 1.061 5.514 5.351 10.026 10.93 11.497 20.979 5.528 37.822 13.698 48.71 23.626 1.736 1.583 3.314 3.205 4.692 4.822 3.311 3.888 4.04 9.174 1.905 13.796-2.122 4.591-6.588 7.444-11.654 7.444zM303.408 43.84c-20.999 0-39.931 14.562-47.11 36.235-.807 2.437-1.457 4.92-1.93 7.38-1.134 5.888-5.709 10.706-11.658 12.274-20.821 5.486-37.52 13.577-48.291 23.398-1.708 1.557-3.257 3.149-4.604 4.731-3.055 3.587-3.728 8.465-1.758 12.729 1.956 4.233 6.073 6.863 10.745 6.863h209.215a11.71 11.71 0 0 0 10.745-6.864c1.97-4.264 1.296-9.142-1.759-12.729-1.35-1.585-2.899-3.177-4.604-4.731-10.769-9.82-27.468-17.911-48.29-23.398-5.949-1.567-10.525-6.385-11.658-12.274a58.94 58.94 0 0 0-1.931-7.379c-7.181-21.674-26.113-36.235-47.112-36.235zm0 65.425c11.941 0 21.622-9.68 21.622-21.622a21.58 21.58 0 0 0-1.427-7.726c-3.111-8.125-10.978-13.896-20.196-13.896s-17.084 5.771-20.194 13.896c-.918 2.399-1.427 5.003-1.427 7.726.001 11.942 9.681 21.622 21.622 21.622z" /><path fill="currentColor" d="M303.408 109.765c-12.197 0-22.121-9.924-22.123-22.122 0-2.713.491-5.373 1.46-7.904 3.255-8.504 11.558-14.217 20.661-14.217s17.406 5.713 20.663 14.217a22.03 22.03 0 0 1 1.46 7.904c.001 12.198-9.923 22.122-22.121 22.122zm-.001-43.244c-8.691 0-16.619 5.455-19.728 13.575-.925 2.417-1.394 4.956-1.394 7.547.001 11.646 9.477 21.122 21.123 21.122s21.122-9.475 21.122-21.122c0-2.59-.469-5.129-1.394-7.547-3.109-8.119-11.037-13.575-19.729-13.575zm-115.683 211.67H296.66c11.83 0 21.42-9.59 21.42-21.42s-9.591-21.42-21.42-21.42H187.724c-11.83 0-21.42 9.59-21.42 21.42s9.59 21.42 21.42 21.42z" /><path fill="currentColor" d="M296.66 278.691H187.724c-12.087 0-21.92-9.833-21.92-21.92s9.833-21.92 21.92-21.92H296.66c12.087 0 21.92 9.833 21.92 21.92s-9.833 21.92-21.92 21.92zm-108.936-42.84c-11.535 0-20.92 9.385-20.92 20.92s9.385 20.92 20.92 20.92H296.66c11.536 0 20.92-9.385 20.92-20.92s-9.385-20.92-20.92-20.92H187.724zm231.37 115.02h-231.37c-11.83 0-21.42 9.59-21.42 21.42s9.59 21.42 21.42 21.42h231.37c11.83 0 21.42-9.59 21.42-21.42s-9.59-21.42-21.42-21.42z" /><path fill="currentColor" d="M419.094 394.211h-231.37c-12.087 0-21.92-9.833-21.92-21.92s9.833-21.92 21.92-21.92h231.37c12.087 0 21.92 9.833 21.92 21.92s-9.833 21.92-21.92 21.92zm-231.37-42.84c-11.535 0-20.92 9.385-20.92 20.92s9.385 20.92 20.92 20.92h231.37c11.535 0 20.92-9.385 20.92-20.92s-9.385-20.92-20.92-20.92h-231.37zm165.167 115.484H187.724c-11.83 0-21.42 9.59-21.42 21.42s9.59 21.42 21.42 21.42h165.167c11.83 0 21.42-9.59 21.42-21.42s-9.59-21.42-21.42-21.42z" /><path fill="currentColor" d="M352.891 510.195H187.724c-12.087 0-21.92-9.833-21.92-21.92s9.833-21.92 21.92-21.92h165.167c12.087 0 21.92 9.833 21.92 21.92s-9.833 21.92-21.92 21.92zm-165.167-42.84c-11.535 0-20.92 9.385-20.92 20.92s9.385 20.92 20.92 20.92h165.167c11.535 0 20.92-9.385 20.92-20.92s-9.385-20.92-20.92-20.92H187.724z" /></svg>
