<svg width="32" height="32" viewBox="0 0 32 32" fill="none" xmlns="http://www.w3.org/2000/svg">
<path d="M14.0784 9.75C14.4926 9.75 14.8284 9.41421 14.8284 9C14.8284 8.58579 14.4926 8.25 14.0784 8.25V9.75ZM24.0234 14.1604C24.0234 14.5746 24.3592 14.9104 24.7734 14.9104C25.1877 14.9104 25.5234 14.5746 25.5234 14.1604H24.0234ZM17.6157 26.75C18.03 26.75 18.3657 26.4142 18.3657 26C18.3657 25.5858 18.03 25.25 17.6157 25.25V26.75ZM8.52344 15.7459V14.9959H7.02344V15.7459H8.52344ZM14.0784 8.25H14.0029V9.75H14.0784V8.25ZM14.0029 9.75H21.7734V8.25H14.0029V9.75ZM21.7734 9.75C23.0161 9.75 24.0234 10.7574 24.0234 12H25.5234C25.5234 9.92893 23.8445 8.25 21.7734 8.25V9.75ZM24.0234 12C24.0234 12.0019 24.0234 12.0037 24.0234 12.0056C24.0234 12.0075 24.0234 12.0094 24.0234 12.0112C24.0234 12.0131 24.0234 12.015 24.0234 12.0169C24.0234 12.0187 24.0234 12.0206 24.0234 12.0225C24.0234 12.0243 24.0234 12.0262 24.0234 12.0281C24.0234 12.0299 24.0234 12.0318 24.0234 12.0337C24.0234 12.0355 24.0234 12.0374 24.0234 12.0392C24.0234 12.0411 24.0234 12.043 24.0234 12.0448C24.0234 12.0467 24.0234 12.0486 24.0234 12.0504C24.0234 12.0523 24.0234 12.0541 24.0234 12.056C24.0234 12.0578 24.0234 12.0597 24.0234 12.0616C24.0234 12.0634 24.0234 12.0653 24.0234 12.0671C24.0234 12.069 24.0234 12.0708 24.0234 12.0727C24.0234 12.0745 24.0234 12.0764 24.0234 12.0782C24.0234 12.0801 24.0234 12.0819 24.0234 12.0838C24.0234 12.0856 24.0234 12.0875 24.0234 12.0893C24.0234 12.0912 24.0234 12.093 24.0234 12.0948C24.0234 12.0967 24.0234 12.0985 24.0234 12.1004C24.0234 12.1022 24.0234 12.1041 24.0234 12.1059C24.0234 12.1077 24.0234 12.1096 24.0234 12.1114C24.0234 12.1133 24.0234 12.1151 24.0234 12.1169C24.0234 12.1188 24.0234 12.1206 24.0234 12.1224C24.0234 12.1243 24.0234 12.1261 24.0234 12.1279C24.0234 12.1298 24.0234 12.1316 24.0234 12.1334C24.0234 12.1353 24.0234 12.1371 24.0234 12.1389C24.0234 12.1408 24.0234 12.1426 24.0234 12.1444C24.0234 12.1462 24.0234 12.1481 24.0234 12.1499C24.0234 12.1517 24.0234 12.1536 24.0234 12.1554C24.0234 12.1572 24.0234 12.159 24.0234 12.1608C24.0234 12.1627 24.0234 12.1645 24.0234 12.1663C24.0234 12.1681 24.0234 12.1699 24.0234 12.1718C24.0234 12.1736 24.0234 12.1754 24.0234 12.1772C24.0234 12.179 24.0234 12.1809 24.0234 12.1827C24.0234 12.1845 24.0234 12.1863 24.0234 12.1881C24.0234 12.1899 24.0234 12.1917 24.0234 12.1935C24.0234 12.1954 24.0234 12.1972 24.0234 12.199C24.0234 12.2008 24.0234 12.2026 24.0234 12.2044C24.0234 12.2062 24.0234 12.208 24.0234 12.2098C24.0234 12.2116 24.0234 12.2134 24.0234 12.2152C24.0234 12.217 24.0234 12.2188 24.0234 12.2206C24.0234 12.2224 24.0234 12.2242 24.0234 12.226C24.0234 12.2279 24.0234 12.2296 24.0234 12.2314C24.0234 12.2332 24.0234 12.235 24.0234 12.2368C24.0234 12.2386 24.0234 12.2404 24.0234 12.2422C24.0234 12.244 24.0234 12.2458 24.0234 12.2476C24.0234 12.2494 24.0234 12.2512 24.0234 12.253C24.0234 12.2548 24.0234 12.2566 24.0234 12.2584C24.0234 12.2601 24.0234 12.2619 24.0234 12.2637C24.0234 12.2655 24.0234 12.2673 24.0234 12.2691C24.0234 12.2709 24.0234 12.2727 24.0234 12.2744C24.0234 12.2762 24.0234 12.278 24.0234 12.2798C24.0234 12.2816 24.0234 12.2833 24.0234 12.2851C24.0234 12.2869 24.0234 12.2887 24.0234 12.2905C24.0234 12.2922 24.0234 12.294 24.0234 12.2958C24.0234 12.2976 24.0234 12.2993 24.0234 12.3011C24.0234 12.3029 24.0234 12.3047 24.0234 12.3064C24.0234 12.3082 24.0234 12.31 24.0234 12.3118C24.0234 12.3135 24.0234 12.3153 24.0234 12.3171C24.0234 12.3188 24.0234 12.3206 24.0234 12.3224C24.0234 12.3241 24.0234 12.3259 24.0234 12.3277C24.0234 12.3294 24.0234 12.3312 24.0234 12.333C24.0234 12.3347 24.0234 12.3365 24.0234 12.3383C24.0234 12.34 24.0234 12.3418 24.0234 12.3435C24.0234 12.3453 24.0234 12.3471 24.0234 12.3488C24.0234 12.3506 24.0234 12.3523 24.0234 12.3541C24.0234 12.3558 24.0234 12.3576 24.0234 12.3594C24.0234 12.3611 24.0234 12.3629 24.0234 12.3646C24.0234 12.3664 24.0234 12.3681 24.0234 12.3699C24.0234 12.3716 24.0234 12.3734 24.0234 12.3751C24.0234 12.3769 24.0234 12.3786 24.0234 12.3804C24.0234 12.3821 24.0234 12.3839 24.0234 12.3856C24.0234 12.3873 24.0234 12.3891 24.0234 12.3908C24.0234 12.3926 24.0234 12.3943 24.0234 12.3961C24.0234 12.3978 24.0234 12.3995 24.0234 12.4013C24.0234 12.403 24.0234 12.4048 24.0234 12.4065C24.0234 12.4082 24.0234 12.41 24.0234 12.4117C24.0234 12.4134 24.0234 12.4152 24.0234 12.4169C24.0234 12.4187 24.0234 12.4204 24.0234 12.4221C24.0234 12.4239 24.0234 12.4256 24.0234 12.4273C24.0234 12.429 24.0234 12.4308 24.0234 12.4325C24.0234 12.4342 24.0234 12.436 24.0234 12.4377C24.0234 12.4394 24.0234 12.4411 24.0234 12.4429C24.0234 12.4446 24.0234 12.4463 24.0234 12.448C24.0234 12.4498 24.0234 12.4515 24.0234 12.4532C24.0234 12.4549 24.0234 12.4566 24.0234 12.4584C24.0234 12.4601 24.0234 12.4618 24.0234 12.4635C24.0234 12.4652 24.0234 12.467 24.0234 12.4687C24.0234 12.4704 24.0234 12.4721 24.0234 12.4738C24.0234 12.4755 24.0234 12.4772 24.0234 12.479C24.0234 12.4807 24.0234 12.4824 24.0234 12.4841C24.0234 12.4858 24.0234 12.4875 24.0234 12.4892C24.0234 12.4909 24.0234 12.4926 24.0234 12.4943C24.0234 12.4961 24.0234 12.4978 24.0234 12.4995C24.0234 12.5012 24.0234 12.5029 24.0234 12.5046C24.0234 12.5063 24.0234 12.508 24.0234 12.5097C24.0234 12.5114 24.0234 12.5131 24.0234 12.5148C24.0234 12.5165 24.0234 12.5182 24.0234 12.5199C24.0234 12.5216 24.0234 12.5233 24.0234 12.525C24.0234 12.5267 24.0234 12.5284 24.0234 12.5301C24.0234 12.5317 24.0234 12.5334 24.0234 12.5351C24.0234 12.5368 24.0234 12.5385 24.0234 12.5402C24.0234 12.5419 24.0234 12.5436 24.0234 12.5453C24.0234 12.547 24.0234 12.5487 24.0234 12.5503C24.0234 12.552 24.0234 12.5537 24.0234 12.5554C24.0234 12.5571 24.0234 12.5588 24.0234 12.5604C24.0234 12.5621 24.0234 12.5638 24.0234 12.5655C24.0234 12.5672 24.0234 12.5689 24.0234 12.5705C24.0234 12.5722 24.0234 12.5739 24.0234 12.5756C24.0234 12.5772 24.0234 12.5789 24.0234 12.5806C24.0234 12.5823 24.0234 12.584 24.0234 12.5856C24.0234 12.5873 24.0234 12.589 24.0234 12.5906C24.0234 12.5923 24.0234 12.594 24.0234 12.5957C24.0234 12.5973 24.0234 12.599 24.0234 12.6007C24.0234 12.6023 24.0234 12.604 24.0234 12.6057C24.0234 12.6073 24.0234 12.609 24.0234 12.6107C24.0234 12.6123 24.0234 12.614 24.0234 12.6157C24.0234 12.6173 24.0234 12.619 24.0234 12.6206C24.0234 12.6223 24.0234 12.624 24.0234 12.6256C24.0234 12.6273 24.0234 12.6289 24.0234 12.6306C24.0234 12.6323 24.0234 12.6339 24.0234 12.6356C24.0234 12.6372 24.0234 12.6389 24.0234 12.6405C24.0234 12.6422 24.0234 12.6438 24.0234 12.6455C24.0234 12.6471 24.0234 12.6488 24.0234 12.6504C24.0234 12.6521 24.0234 12.6537 24.0234 12.6554C24.0234 12.657 24.0234 12.6587 24.0234 12.6603C24.0234 12.662 24.0234 12.6636 24.0234 12.6653C24.0234 12.6669 24.0234 12.6686 24.0234 12.6702C24.0234 12.6718 24.0234 12.6735 24.0234 12.6751C24.0234 12.6768 24.0234 12.6784 24.0234 12.68C24.0234 12.6817 24.0234 12.6833 24.0234 12.685C24.0234 12.6866 24.0234 12.6882 24.0234 12.6899C24.0234 12.6915 24.0234 12.6931 24.0234 12.6948C24.0234 12.6964 24.0234 12.698 24.0234 12.6997C24.0234 12.7013 24.0234 12.7029 24.0234 12.7046C24.0234 12.7062 24.0234 12.7078 24.0234 12.7095C24.0234 12.7111 24.0234 12.7127 24.0234 12.7143C24.0234 12.716 24.0234 12.7176 24.0234 12.7192C24.0234 12.7208 24.0234 12.7225 24.0234 12.7241C24.0234 12.7257 24.0234 12.7273 24.0234 12.7289C24.0234 12.7306 24.0234 12.7322 24.0234 12.7338C24.0234 12.7354 24.0234 12.737 24.0234 12.7387C24.0234 12.7403 24.0234 12.7419 24.0234 12.7435C24.0234 12.7451 24.0234 12.7467 24.0234 12.7483C24.0234 12.75 24.0234 12.7516 24.0234 12.7532C24.0234 12.7548 24.0234 12.7564 24.0234 12.758C24.0234 12.7596 24.0234 12.7612 24.0234 12.7628C24.0234 12.7645 24.0234 12.7661 24.0234 12.7677C24.0234 12.7693 24.0234 12.7709 24.0234 12.7725C24.0234 12.7741 24.0234 12.7757 24.0234 12.7773C24.0234 12.7789 24.0234 12.7805 24.0234 12.7821C24.0234 12.7837 24.0234 12.7853 24.0234 12.7869C24.0234 12.7885 24.0234 12.7901 24.0234 12.7917C24.0234 12.7933 24.0234 12.7949 24.0234 12.7965C24.0234 12.7981 24.0234 12.7997 24.0234 12.8013C24.0234 12.8029 24.0234 12.8044 24.0234 12.806C24.0234 12.8076 24.0234 12.8092 24.0234 12.8108C24.0234 12.8124 24.0234 12.814 24.0234 12.8156C24.0234 12.8172 24.0234 12.8188 24.0234 12.8203C24.0234 12.8219 24.0234 12.8235 24.0234 12.8251C24.0234 12.8267 24.0234 12.8283 24.0234 12.8298C24.0234 12.8314 24.0234 12.833 24.0234 12.8346C24.0234 12.8362 24.0234 12.8377 24.0234 12.8393C24.0234 12.8409 24.0234 12.8425 24.0234 12.8441C24.0234 12.8456 24.0234 12.8472 24.0234 12.8488C24.0234 12.8504 24.0234 12.8519 24.0234 12.8535C24.0234 12.8551 24.0234 12.8567 24.0234 12.8582C24.0234 12.8598 24.0234 12.8614 24.0234 12.8629C24.0234 12.8645 24.0234 12.8661 24.0234 12.8676C24.0234 12.8692 24.0234 12.8708 24.0234 12.8723C24.0234 12.8739 24.0234 12.8755 24.0234 12.877C24.0234 12.8786 24.0234 12.8802 24.0234 12.8817C24.0234 12.8833 24.0234 12.8848 24.0234 12.8864C24.0234 12.888 24.0234 12.8895 24.0234 12.8911C24.0234 12.8926 24.0234 12.8942 24.0234 12.8958C24.0234 12.8973 24.0234 12.8989 24.0234 12.9004C24.0234 12.902 24.0234 12.9035 24.0234 12.9051C24.0234 12.9066 24.0234 12.9082 24.0234 12.9097C24.0234 12.9113 24.0234 12.9128 24.0234 12.9144C24.0234 12.9159 24.0234 12.9175 24.0234 12.919C24.0234 12.9206 24.0234 12.9221 24.0234 12.9237C24.0234 12.9252 24.0234 12.9268 24.0234 12.9283C24.0234 12.9299 24.0234 12.9314 24.0234 12.9329C24.0234 12.9345 24.0234 12.936 24.0234 12.9376C24.0234 12.9391 24.0234 12.9406 24.0234 12.9422C24.0234 12.9437 24.0234 12.9453 24.0234 12.9468C24.0234 12.9483 24.0234 12.9499 24.0234 12.9514C24.0234 12.9529 24.0234 12.9545 24.0234 12.956C24.0234 12.9575 24.0234 12.9591 24.0234 12.9606C24.0234 12.9621 24.0234 12.9637 24.0234 12.9652C24.0234 12.9667 24.0234 12.9683 24.0234 12.9698C24.0234 12.9713 24.0234 12.9728 24.0234 12.9744C24.0234 12.9759 24.0234 12.9774 24.0234 12.9789C24.0234 12.9805 24.0234 12.982 24.0234 12.9835C24.0234 12.985 24.0234 12.9865 24.0234 12.9881C24.0234 12.9896 24.0234 12.9911 24.0234 12.9926C24.0234 12.9941 24.0234 12.9957 24.0234 12.9972C24.0234 12.9987 24.0234 13.0002 24.0234 13.0017C24.0234 13.0032 24.0234 13.0047 24.0234 13.0063C24.0234 13.0078 24.0234 13.0093 24.0234 13.0108C24.0234 13.0123 24.0234 13.0138 24.0234 13.0153C24.0234 13.0168 24.0234 13.0183 24.0234 13.0198C24.0234 13.0214 24.0234 13.0229 24.0234 13.0244C24.0234 13.0259 24.0234 13.0274 24.0234 13.0289C24.0234 13.0304 24.0234 13.0319 24.0234 13.0334C24.0234 13.0349 24.0234 13.0364 24.0234 13.0379C24.0234 13.0394 24.0234 13.0409 24.0234 13.0424C24.0234 13.0439 24.0234 13.0454 24.0234 13.0469C24.0234 13.0484 24.0234 13.0499 24.0234 13.0514C24.0234 13.0529 24.0234 13.0544 24.0234 13.0558C24.0234 13.0573 24.0234 13.0588 24.0234 13.0603C24.0234 13.0618 24.0234 13.0633 24.0234 13.0648C24.0234 13.0663 24.0234 13.0678 24.0234 13.0693C24.0234 13.0707 24.0234 13.0722 24.0234 13.0737C24.0234 13.0752 24.0234 13.0767 24.0234 13.0782C24.0234 13.0797 24.0234 13.0811 24.0234 13.0826C24.0234 13.0841 24.0234 13.0856 24.0234 13.0871C24.0234 13.0885 24.0234 13.09 24.0234 13.0915C24.0234 13.093 24.0234 13.0944 24.0234 13.0959C24.0234 13.0974 24.0234 13.0989 24.0234 13.1003C24.0234 13.1018 24.0234 13.1033 24.0234 13.1048C24.0234 13.1062 24.0234 13.1077 24.0234 13.1092C24.0234 13.1107 24.0234 13.1121 24.0234 13.1136C24.0234 13.1151 24.0234 13.1165 24.0234 13.118C24.0234 13.1195 24.0234 13.1209 24.0234 13.1224C24.0234 13.1239 24.0234 13.1253 24.0234 13.1268C24.0234 13.1283 24.0234 13.1297 24.0234 13.1312C24.0234 13.1326 24.0234 13.1341 24.0234 13.1356C24.0234 13.137 24.0234 13.1385 24.0234 13.1399C24.0234 13.1414 24.0234 13.1428 24.0234 13.1443C24.0234 13.1458 24.0234 13.1472 24.0234 13.1487C24.0234 13.1501 24.0234 13.1516 24.0234 13.153C24.0234 13.1545 24.0234 13.1559 24.0234 13.1574C24.0234 13.1588 24.0234 13.1603 24.0234 13.1617C24.0234 13.1632 24.0234 13.1646 24.0234 13.1661C24.0234 13.1675 24.0234 13.169 24.0234 13.1704C24.0234 13.1719 24.0234 13.1733 24.0234 13.1747C24.0234 13.1762 24.0234 13.1776 24.0234 13.1791C24.0234 13.1805 24.0234 13.182 24.0234 13.1834C24.0234 13.1848 24.0234 13.1863 24.0234 13.1877C24.0234 13.1891 24.0234 13.1906 24.0234 13.192C24.0234 13.1935 24.0234 13.1949 24.0234 13.1963C24.0234 13.1978 24.0234 13.1992 24.0234 13.2006C24.0234 13.2021 24.0234 13.2035 24.0234 13.2049C24.0234 13.2063 24.0234 13.2078 24.0234 13.2092C24.0234 13.2106 24.0234 13.2121 24.0234 13.2135C24.0234 13.2149 24.0234 13.2163 24.0234 13.2178C24.0234 13.2192 24.0234 13.2206 24.0234 13.222C24.0234 13.2235 24.0234 13.2249 24.0234 13.2263C24.0234 13.2277 24.0234 13.2291 24.0234 13.2306C24.0234 13.232 24.0234 13.2334 24.0234 13.2348C24.0234 13.2362 24.0234 13.2377 24.0234 13.2391C24.0234 13.2405 24.0234 13.2419 24.0234 13.2433C24.0234 13.2447 24.0234 13.2461 24.0234 13.2476C24.0234 13.249 24.0234 13.2504 24.0234 13.2518C24.0234 13.2532 24.0234 13.2546 24.0234 13.256C24.0234 13.2574 24.0234 13.2588 24.0234 13.2602C24.0234 13.2616 24.0234 13.263 24.0234 13.2645C24.0234 13.2659 24.0234 13.2673 24.0234 13.2687C24.0234 13.2701 24.0234 13.2715 24.0234 13.2729C24.0234 13.2743 24.0234 13.2757 24.0234 13.2771C24.0234 13.2785 24.0234 13.2799 24.0234 13.2813C24.0234 13.2827 24.0234 13.2841 24.0234 13.2855C24.0234 13.2868 24.0234 13.2882 24.0234 13.2896C24.0234 13.291 24.0234 13.2924 24.0234 13.2938C24.0234 13.2952 24.0234 13.2966 24.0234 13.298C24.0234 13.2994 24.0234 13.3008 24.0234 13.3022C24.0234 13.3035 24.0234 13.3049 24.0234 13.3063C24.0234 13.3077 24.0234 13.3091 24.0234 13.3105C24.0234 13.3119 24.0234 13.3132 24.0234 13.3146C24.0234 13.316 24.0234 13.3174 24.0234 13.3188C24.0234 13.3201 24.0234 13.3215 24.0234 13.3229C24.0234 13.3243 24.0234 13.3257 24.0234 13.327C24.0234 13.3284 24.0234 13.3298 24.0234 13.3312C24.0234 13.3325 24.0234 13.3339 24.0234 13.3353C24.0234 13.3367 24.0234 13.338 24.0234 13.3394C24.0234 13.3408 24.0234 13.3422 24.0234 13.3435C24.0234 13.3449 24.0234 13.3463 24.0234 13.3476C24.0234 13.349 24.0234 13.3504 24.0234 13.3517C24.0234 13.3531 24.0234 13.3545 24.0234 13.3558C24.0234 13.3572 24.0234 13.3586 24.0234 13.3599C24.0234 13.3613 24.0234 13.3626 24.0234 13.364C24.0234 13.3654 24.0234 13.3667 24.0234 13.3681C24.0234 13.3694 24.0234 13.3708 24.0234 13.3722C24.0234 13.3735 24.0234 13.3749 24.0234 13.3762C24.0234 13.3776 24.0234 13.3789 24.0234 13.3803C24.0234 13.3816 24.0234 13.383 24.0234 13.3843C24.0234 13.3857 24.0234 13.387 24.0234 13.3884C24.0234 13.3897 24.0234 13.3911 24.0234 13.3924C24.0234 13.3938 24.0234 13.3951 24.0234 13.3965C24.0234 13.3978 24.0234 13.3992 24.0234 13.4005C24.0234 13.4019 24.0234 13.4032 24.0234 13.4046C24.0234 13.4059 24.0234 13.4072 24.0234 13.4086C24.0234 13.4099 24.0234 13.4113 24.0234 13.4126C24.0234 13.4139 24.0234 13.4153 24.0234 13.4166C24.0234 13.4179 24.0234 13.4193 24.0234 13.4206C24.0234 13.422 24.0234 13.4233 24.0234 13.4246C24.0234 13.426 24.0234 13.4273 24.0234 13.4286C24.0234 13.4299 24.0234 13.4313 24.0234 13.4326C24.0234 13.4339 24.0234 13.4353 24.0234 13.4366C24.0234 13.4379 24.0234 13.4392 24.0234 13.4406C24.0234 13.4419 24.0234 13.4432 24.0234 13.4445C24.0234 13.4459 24.0234 13.4472 24.0234 13.4485C24.0234 13.4498 24.0234 13.4512 24.0234 13.4525C24.0234 13.4538 24.0234 13.4551 24.0234 13.4564C24.0234 13.4578 24.0234 13.4591 24.0234 13.4604C24.0234 13.4617 24.0234 13.463 24.0234 13.4643C24.0234 13.4657 24.0234 13.467 24.0234 13.4683C24.0234 13.4696 24.0234 13.4709 24.0234 13.4722C24.0234 13.4735 24.0234 13.4748 24.0234 13.4762C24.0234 13.4775 24.0234 13.4788 24.0234 13.4801C24.0234 13.4814 24.0234 13.4827 24.0234 13.484C24.0234 13.4853 24.0234 13.4866 24.0234 13.4879C24.0234 13.4892 24.0234 13.4905 24.0234 13.4918C24.0234 13.4931 24.0234 13.4944 24.0234 13.4957C24.0234 13.497 24.0234 13.4983 24.0234 13.4996C24.0234 13.5009 24.0234 13.5022 24.0234 13.5035C24.0234 13.5048 24.0234 13.5061 24.0234 13.5074C24.0234 13.5087 24.0234 13.51 24.0234 13.5113C24.0234 13.5126 24.0234 13.5139 24.0234 13.5152C24.0234 13.5165 24.0234 13.5177 24.0234 13.519C24.0234 13.5203 24.0234 13.5216 24.0234 13.5229C24.0234 13.5242 24.0234 13.5255 24.0234 13.5268C24.0234 13.528 24.0234 13.5293 24.0234 13.5306C24.0234 13.5319 24.0234 13.5332 24.0234 13.5345C24.0234 13.5357 24.0234 13.537 24.0234 13.5383C24.0234 13.5396 24.0234 13.5409 24.0234 13.5421C24.0234 13.5434 24.0234 13.5447 24.0234 13.546C24.0234 13.5472 24.0234 13.5485 24.0234 13.5498C24.0234 13.5511 24.0234 13.5523 24.0234 13.5536C24.0234 13.5549 24.0234 13.5562 24.0234 13.5574C24.0234 13.5587 24.0234 13.56 24.0234 13.5612C24.0234 13.5625 24.0234 13.5638 24.0234 13.5651C24.0234 13.5663 24.0234 13.5676 24.0234 13.5689C24.0234 13.5701 24.0234 13.5714 24.0234 13.5726C24.0234 13.5739 24.0234 13.5752 24.0234 13.5764C24.0234 13.5777 24.0234 13.579 24.0234 13.5802C24.0234 13.5815 24.0234 13.5827 24.0234 13.584C24.0234 13.5853 24.0234 13.5865 24.0234 13.5878C24.0234 13.589 24.0234 13.5903 24.0234 13.5915C24.0234 13.5928 24.0234 13.594 24.0234 13.5953C24.0234 13.5965 24.0234 13.5978 24.0234 13.599C24.0234 13.6003 24.0234 13.6015 24.0234 13.6028C24.0234 13.604 24.0234 13.6053 24.0234 13.6065C24.0234 13.6078 24.0234 13.609 24.0234 13.6103C24.0234 13.6115 24.0234 13.6128 24.0234 13.614C24.0234 13.6153 24.0234 13.6165 24.0234 13.6177C24.0234 13.619 24.0234 13.6202 24.0234 13.6215C24.0234 13.6227 24.0234 13.6239 24.0234 13.6252C24.0234 13.6264 24.0234 13.6277 24.0234 13.6289C24.0234 13.6301 24.0234 13.6314 24.0234 13.6326C24.0234 13.6338 24.0234 13.6351 24.0234 13.6363C24.0234 13.6375 24.0234 13.6388 24.0234 13.64C24.0234 13.6412 24.0234 13.6425 24.0234 13.6437C24.0234 13.6449 24.0234 13.6461 24.0234 13.6474C24.0234 13.6486 24.0234 13.6498 24.0234 13.651C24.0234 13.6523 24.0234 13.6535 24.0234 13.6547C24.0234 13.6559 24.0234 13.6572 24.0234 13.6584C24.0234 13.6596 24.0234 13.6608 24.0234 13.662C24.0234 13.6633 24.0234 13.6645 24.0234 13.6657C24.0234 13.6669 24.0234 13.6681 24.0234 13.6694C24.0234 13.6706 24.0234 13.6718 24.0234 13.673C24.0234 13.6742 24.0234 13.6754 24.0234 13.6766C24.0234 13.6779 24.0234 13.6791 24.0234 13.6803C24.0234 13.6815 24.0234 13.6827 24.0234 13.6839C24.0234 13.6851 24.0234 13.6863 24.0234 13.6875C24.0234 13.6887 24.0234 13.6899 24.0234 13.6911C24.0234 13.6923 24.0234 13.6936 24.0234 13.6948C24.0234 13.696 24.0234 13.6972 24.0234 13.6984C24.0234 13.6996 24.0234 13.7008 24.0234 13.702C24.0234 13.7032 24.0234 13.7044 24.0234 13.7056C24.0234 13.7068 24.0234 13.708 24.0234 13.7091C24.0234 13.7103 24.0234 13.7115 24.0234 13.7127C24.0234 13.7139 24.0234 13.7151 24.0234 13.7163C24.0234 13.7175 24.0234 13.7187 24.0234 13.7199C24.0234 13.7211 24.0234 13.7223 24.0234 13.7235C24.0234 13.7246 24.0234 13.7258 24.0234 13.727C24.0234 13.7282 24.0234 13.7294 24.0234 13.7306C24.0234 13.7318 24.0234 13.7329 24.0234 13.7341C24.0234 13.7353 24.0234 13.7365 24.0234 13.7377C24.0234 13.7389 24.0234 13.74 24.0234 13.7412C24.0234 13.7424 24.0234 13.7436 24.0234 13.7448C24.0234 13.7459 24.0234 13.7471 24.0234 13.7483C24.0234 13.7495 24.0234 13.7506 24.0234 13.7518C24.0234 13.753 24.0234 13.7542 24.0234 13.7553C24.0234 13.7565 24.0234 13.7577 24.0234 13.7588C24.0234 13.76 24.0234 13.7612 24.0234 13.7623C24.0234 13.7635 24.0234 13.7647 24.0234 13.7658C24.0234 13.767 24.0234 13.7682 24.0234 13.7693C24.0234 13.7705 24.0234 13.7717 24.0234 13.7728C24.0234 13.774 24.0234 13.7752 24.0234 13.7763C24.0234 13.7775 24.0234 13.7786 24.0234 13.7798C24.0234 13.781 24.0234 13.7821 24.0234 13.7833C24.0234 13.7844 24.0234 13.7856 24.0234 13.7867C24.0234 13.7879 24.0234 13.7891 24.0234 13.7902C24.0234 13.7914 24.0234 13.7925 24.0234 13.7937C24.0234 13.7948 24.0234 13.796 24.0234 13.7971C24.0234 13.7983 24.0234 13.7994 24.0234 13.8006C24.0234 13.8017 24.0234 13.8029 24.0234 13.804C24.0234 13.8052 24.0234 13.8063 24.0234 13.8075C24.0234 13.8086 24.0234 13.8097 24.0234 13.8109C24.0234 13.812 24.0234 13.8132 24.0234 13.8143C24.0234 13.8154 24.0234 13.8166 24.0234 13.8177C24.0234 13.8189 24.0234 13.82 24.0234 13.8211C24.0234 13.8223 24.0234 13.8234 24.0234 13.8246C24.0234 13.8257 24.0234 13.8268 24.0234 13.828C24.0234 13.8291 24.0234 13.8302 24.0234 13.8314C24.0234 13.8325 24.0234 13.8336 24.0234 13.8347C24.0234 13.8359 24.0234 13.837 24.0234 13.8381C24.0234 13.8393 24.0234 13.8404 24.0234 13.8415C24.0234 13.8426 24.0234 13.8438 24.0234 13.8449C24.0234 13.846 24.0234 13.8471 24.0234 13.8483C24.0234 13.8494 24.0234 13.8505 24.0234 13.8516C24.0234 13.8527 24.0234 13.8539 24.0234 13.855C24.0234 13.8561 24.0234 13.8572 24.0234 13.8583C24.0234 13.8595 24.0234 13.8606 24.0234 13.8617C24.0234 13.8628 24.0234 13.8639 24.0234 13.865C24.0234 13.8661 24.0234 13.8673 24.0234 13.8684C24.0234 13.8695 24.0234 13.8706 24.0234 13.8717C24.0234 13.8728 24.0234 13.8739 24.0234 13.875C24.0234 13.8761 24.0234 13.8772 24.0234 13.8784C24.0234 13.8795 24.0234 13.8806 24.0234 13.8817C24.0234 13.8828 24.0234 13.8839 24.0234 13.885C24.0234 13.8861 24.0234 13.8872 24.0234 13.8883C24.0234 13.8894 24.0234 13.8905 24.0234 13.8916C24.0234 13.8927 24.0234 13.8938 24.0234 13.8949C24.0234 13.896 24.0234 13.8971 24.0234 13.8982C24.0234 13.8993 24.0234 13.9004 24.0234 13.9014C24.0234 13.9025 24.0234 13.9036 24.0234 13.9047C24.0234 13.9058 24.0234 13.9069 24.0234 13.908C24.0234 13.9091 24.0234 13.9102 24.0234 13.9113C24.0234 13.9123 24.0234 13.9134 24.0234 13.9145C24.0234 13.9156 24.0234 13.9167 24.0234 13.9178C24.0234 13.9189 24.0234 13.9199 24.0234 13.921C24.0234 13.9221 24.0234 13.9232 24.0234 13.9243C24.0234 13.9254 24.0234 13.9264 24.0234 13.9275C24.0234 13.9286 24.0234 13.9297 24.0234 13.9307C24.0234 13.9318 24.0234 13.9329 24.0234 13.934C24.0234 13.935 24.0234 13.9361 24.0234 13.9372C24.0234 13.9383 24.0234 13.9393 24.0234 13.9404C24.0234 13.9415 24.0234 13.9426 24.0234 13.9436C24.0234 13.9447 24.0234 13.9458 24.0234 13.9468C24.0234 13.9479 24.0234 13.949 24.0234 13.95C24.0234 13.9511 24.0234 13.9522 24.0234 13.9532C24.0234 13.9543 24.0234 13.9554 24.0234 13.9564C24.0234 13.9575 24.0234 13.9585 24.0234 13.9596C24.0234 13.9607 24.0234 13.9617 24.0234 13.9628C24.0234 13.9638 24.0234 13.9649 24.0234 13.9659C24.0234 13.967 24.0234 13.9681 24.0234 13.9691C24.0234 13.9702 24.0234 13.9712 24.0234 13.9723C24.0234 13.9733 24.0234 13.9744 24.0234 13.9754C24.0234 13.9765 24.0234 13.9775 24.0234 13.9786C24.0234 13.9796 24.0234 13.9807 24.0234 13.9817C24.0234 13.9828 24.0234 13.9838 24.0234 13.9849C24.0234 13.9859 24.0234 13.987 24.0234 13.988C24.0234 13.989 24.0234 13.9901 24.0234 13.9911C24.0234 13.9922 24.0234 13.9932 24.0234 13.9943C24.0234 13.9953 24.0234 13.9963 24.0234 13.9974C24.0234 13.9984 24.0234 13.9995 24.0234 14.0005C24.0234 14.0015 24.0234 14.0026 24.0234 14.0036C24.0234 14.0046 24.0234 14.0057 24.0234 14.0067C24.0234 14.0077 24.0234 14.0088 24.0234 14.0098C24.0234 14.0108 24.0234 14.0119 24.0234 14.0129C24.0234 14.0139 24.0234 14.0149 24.0234 14.016C24.0234 14.017 24.0234 14.018 24.0234 14.019C24.0234 14.0201 24.0234 14.0211 24.0234 14.0221C24.0234 14.0231 24.0234 14.0242 24.0234 14.0252C24.0234 14.0262 24.0234 14.0272 24.0234 14.0283C24.0234 14.0293 24.0234 14.0303 24.0234 14.0313C24.0234 14.0323 24.0234 14.0333 24.0234 14.0344C24.0234 14.0354 24.0234 14.0364 24.0234 14.0374C24.0234 14.0384 24.0234 14.0394 24.0234 14.0404C24.0234 14.0415 24.0234 14.0425 24.0234 14.0435C24.0234 14.0445 24.0234 14.0455 24.0234 14.0465C24.0234 14.0475 24.0234 14.0485 24.0234 14.0495C24.0234 14.0505 24.0234 14.0516 24.0234 14.0526C24.0234 14.0536 24.0234 14.0546 24.0234 14.0556C24.0234 14.0566 24.0234 14.0576 24.0234 14.0586C24.0234 14.0596 24.0234 14.0606 24.0234 14.0616C24.0234 14.0626 24.0234 14.0636 24.0234 14.0646C24.0234 14.0656 24.0234 14.0666 24.0234 14.0676C24.0234 14.0686 24.0234 14.0696 24.0234 14.0706C24.0234 14.0716 24.0234 14.0725 24.0234 14.0735C24.0234 14.0745 24.0234 14.0755 24.0234 14.0765C24.0234 14.0775 24.0234 14.0785 24.0234 14.0795C24.0234 14.0805 24.0234 14.0815 24.0234 14.0824C24.0234 14.0834 24.0234 14.0844 24.0234 14.0854C24.0234 14.0864 24.0234 14.0874 24.0234 14.0884C24.0234 14.0893 24.0234 14.0903 24.0234 14.0913C24.0234 14.0923 24.0234 14.0933 24.0234 14.0942C24.0234 14.0952 24.0234 14.0962 24.0234 14.0972C24.0234 14.0982 24.0234 14.0991 24.0234 14.1001C24.0234 14.1011 24.0234 14.1021 24.0234 14.103C24.0234 14.104 24.0234 14.105 24.0234 14.106C24.0234 14.1069 24.0234 14.1079 24.0234 14.1089C24.0234 14.1098 24.0234 14.1108 24.0234 14.1118C24.0234 14.1128 24.0234 14.1137 24.0234 14.1147C24.0234 14.1157 24.0234 14.1166 24.0234 14.1176C24.0234 14.1186 24.0234 14.1195 24.0234 14.1205C24.0234 14.1214 24.0234 14.1224 24.0234 14.1234C24.0234 14.1243 24.0234 14.1253 24.0234 14.1262C24.0234 14.1272 24.0234 14.1282 24.0234 14.1291C24.0234 14.1301 24.0234 14.131 24.0234 14.132C24.0234 14.133 24.0234 14.1339 24.0234 14.1349C24.0234 14.1358 24.0234 14.1368 24.0234 14.1377C24.0234 14.1387 24.0234 14.1396 24.0234 14.1406C24.0234 14.1415 24.0234 14.1425 24.0234 14.1434C24.0234 14.1444 24.0234 14.1453 24.0234 14.1463C24.0234 14.1472 24.0234 14.1482 24.0234 14.1491C24.0234 14.15 24.0234 14.151 24.0234 14.1519C24.0234 14.1529 24.0234 14.1538 24.0234 14.1548C24.0234 14.1557 24.0234 14.1566 24.0234 14.1576C24.0234 14.1585 24.0234 14.1595 24.0234 14.1604H25.5234C25.5234 14.1595 25.5234 14.1585 25.5234 14.1576C25.5234 14.1566 25.5234 14.1557 25.5234 14.1548C25.5234 14.1538 25.5234 14.1529 25.5234 14.1519C25.5234 14.151 25.5234 14.15 25.5234 14.1491C25.5234 14.1482 25.5234 14.1472 25.5234 14.1463C25.5234 14.1453 25.5234 14.1444 25.5234 14.1434C25.5234 14.1425 25.5234 14.1415 25.5234 14.1406C25.5234 14.1396 25.5234 14.1387 25.5234 14.1377C25.5234 14.1368 25.5234 14.1358 25.5234 14.1349C25.5234 14.1339 25.5234 14.133 25.5234 14.132C25.5234 14.131 25.5234 14.1301 25.5234 14.1291C25.5234 14.1282 25.5234 14.1272 25.5234 14.1262C25.5234 14.1253 25.5234 14.1243 25.5234 14.1234C25.5234 14.1224 25.5234 14.1214 25.5234 14.1205C25.5234 14.1195 25.5234 14.1186 25.5234 14.1176C25.5234 14.1166 25.5234 14.1157 25.5234 14.1147C25.5234 14.1137 25.5234 14.1128 25.5234 14.1118C25.5234 14.1108 25.5234 14.1098 25.5234 14.1089C25.5234 14.1079 25.5234 14.1069 25.5234 14.106C25.5234 14.105 25.5234 14.104 25.5234 14.103C25.5234 14.1021 25.5234 14.1011 25.5234 14.1001C25.5234 14.0991 25.5234 14.0982 25.5234 14.0972C25.5234 14.0962 25.5234 14.0952 25.5234 14.0942C25.5234 14.0933 25.5234 14.0923 25.5234 14.0913C25.5234 14.0903 25.5234 14.0893 25.5234 14.0884C25.5234 14.0874 25.5234 14.0864 25.5234 14.0854C25.5234 14.0844 25.5234 14.0834 25.5234 14.0824C25.5234 14.0815 25.5234 14.0805 25.5234 14.0795C25.5234 14.0785 25.5234 14.0775 25.5234 14.0765C25.5234 14.0755 25.5234 14.0745 25.5234 14.0735C25.5234 14.0725 25.5234 14.0716 25.5234 14.0706C25.5234 14.0696 25.5234 14.0686 25.5234 14.0676C25.5234 14.0666 25.5234 14.0656 25.5234 14.0646C25.5234 14.0636 25.5234 14.0626 25.5234 14.0616C25.5234 14.0606 25.5234 14.0596 25.5234 14.0586C25.5234 14.0576 25.5234 14.0566 25.5234 14.0556C25.5234 14.0546 25.5234 14.0536 25.5234 14.0526C25.5234 14.0516 25.5234 14.0505 25.5234 14.0495C25.5234 14.0485 25.5234 14.0475 25.5234 14.0465C25.5234 14.0455 25.5234 14.0445 25.5234 14.0435C25.5234 14.0425 25.5234 14.0415 25.5234 14.0404C25.5234 14.0394 25.5234 14.0384 25.5234 14.0374C25.5234 14.0364 25.5234 14.0354 25.5234 14.0344C25.5234 14.0333 25.5234 14.0323 25.5234 14.0313C25.5234 14.0303 25.5234 14.0293 25.5234 14.0283C25.5234 14.0272 25.5234 14.0262 25.5234 14.0252C25.5234 14.0242 25.5234 14.0231 25.5234 14.0221C25.5234 14.0211 25.5234 14.0201 25.5234 14.019C25.5234 14.018 25.5234 14.017 25.5234 14.016C25.5234 14.0149 25.5234 14.0139 25.5234 14.0129C25.5234 14.0119 25.5234 14.0108 25.5234 14.0098C25.5234 14.0088 25.5234 14.0077 25.5234 14.0067C25.5234 14.0057 25.5234 14.0046 25.5234 14.0036C25.5234 14.0026 25.5234 14.0015 25.5234 14.0005C25.5234 13.9995 25.5234 13.9984 25.5234 13.9974C25.5234 13.9963 25.5234 13.9953 25.5234 13.9943C25.5234 13.9932 25.5234 13.9922 25.5234 13.9911C25.5234 13.9901 25.5234 13.989 25.5234 13.988C25.5234 13.987 25.5234 13.9859 25.5234 13.9849C25.5234 13.9838 25.5234 13.9828 25.5234 13.9817C25.5234 13.9807 25.5234 13.9796 25.5234 13.9786C25.5234 13.9775 25.5234 13.9765 25.5234 13.9754C25.5234 13.9744 25.5234 13.9733 25.5234 13.9723C25.5234 13.9712 25.5234 13.9702 25.5234 13.9691C25.5234 13.9681 25.5234 13.967 25.5234 13.9659C25.5234 13.9649 25.5234 13.9638 25.5234 13.9628C25.5234 13.9617 25.5234 13.9607 25.5234 13.9596C25.5234 13.9585 25.5234 13.9575 25.5234 13.9564C25.5234 13.9554 25.5234 13.9543 25.5234 13.9532C25.5234 13.9522 25.5234 13.9511 25.5234 13.95C25.5234 13.949 25.5234 13.9479 25.5234 13.9468C25.5234 13.9458 25.5234 13.9447 25.5234 13.9436C25.5234 13.9426 25.5234 13.9415 25.5234 13.9404C25.5234 13.9393 25.5234 13.9383 25.5234 13.9372C25.5234 13.9361 25.5234 13.935 25.5234 13.934C25.5234 13.9329 25.5234 13.9318 25.5234 13.9307C25.5234 13.9297 25.5234 13.9286 25.5234 13.9275C25.5234 13.9264 25.5234 13.9254 25.5234 13.9243C25.5234 13.9232 25.5234 13.9221 25.5234 13.921C25.5234 13.9199 25.5234 13.9189 25.5234 13.9178C25.5234 13.9167 25.5234 13.9156 25.5234 13.9145C25.5234 13.9134 25.5234 13.9123 25.5234 13.9113C25.5234 13.9102 25.5234 13.9091 25.5234 13.908C25.5234 13.9069 25.5234 13.9058 25.5234 13.9047C25.5234 13.9036 25.5234 13.9025 25.5234 13.9014C25.5234 13.9004 25.5234 13.8993 25.5234 13.8982C25.5234 13.8971 25.5234 13.896 25.5234 13.8949C25.5234 13.8938 25.5234 13.8927 25.5234 13.8916C25.5234 13.8905 25.5234 13.8894 25.5234 13.8883C25.5234 13.8872 25.5234 13.8861 25.5234 13.885C25.5234 13.8839 25.5234 13.8828 25.5234 13.8817C25.5234 13.8806 25.5234 13.8795 25.5234 13.8784C25.5234 13.8772 25.5234 13.8761 25.5234 13.875C25.5234 13.8739 25.5234 13.8728 25.5234 13.8717C25.5234 13.8706 25.5234 13.8695 25.5234 13.8684C25.5234 13.8673 25.5234 13.8661 25.5234 13.865C25.5234 13.8639 25.5234 13.8628 25.5234 13.8617C25.5234 13.8606 25.5234 13.8595 25.5234 13.8583C25.5234 13.8572 25.5234 13.8561 25.5234 13.855C25.5234 13.8539 25.5234 13.8527 25.5234 13.8516C25.5234 13.8505 25.5234 13.8494 25.5234 13.8483C25.5234 13.8471 25.5234 13.846 25.5234 13.8449C25.5234 13.8438 25.5234 13.8426 25.5234 13.8415C25.5234 13.8404 25.5234 13.8393 25.5234 13.8381C25.5234 13.837 25.5234 13.8359 25.5234 13.8347C25.5234 13.8336 25.5234 13.8325 25.5234 13.8314C25.5234 13.8302 25.5234 13.8291 25.5234 13.828C25.5234 13.8268 25.5234 13.8257 25.5234 13.8246C25.5234 13.8234 25.5234 13.8223 25.5234 13.8211C25.5234 13.82 25.5234 13.8189 25.5234 13.8177C25.5234 13.8166 25.5234 13.8154 25.5234 13.8143C25.5234 13.8132 25.5234 13.812 25.5234 13.8109C25.5234 13.8097 25.5234 13.8086 25.5234 13.8075C25.5234 13.8063 25.5234 13.8052 25.5234 13.804C25.5234 13.8029 25.5234 13.8017 25.5234 13.8006C25.5234 13.7994 25.5234 13.7983 25.5234 13.7971C25.5234 13.796 25.5234 13.7948 25.5234 13.7937C25.5234 13.7925 25.5234 13.7914 25.5234 13.7902C25.5234 13.7891 25.5234 13.7879 25.5234 13.7867C25.5234 13.7856 25.5234 13.7844 25.5234 13.7833C25.5234 13.7821 25.5234 13.781 25.5234 13.7798C25.5234 13.7786 25.5234 13.7775 25.5234 13.7763C25.5234 13.7752 25.5234 13.774 25.5234 13.7728C25.5234 13.7717 25.5234 13.7705 25.5234 13.7693C25.5234 13.7682 25.5234 13.767 25.5234 13.7658C25.5234 13.7647 25.5234 13.7635 25.5234 13.7623C25.5234 13.7612 25.5234 13.76 25.5234 13.7588C25.5234 13.7577 25.5234 13.7565 25.5234 13.7553C25.5234 13.7542 25.5234 13.753 25.5234 13.7518C25.5234 13.7506 25.5234 13.7495 25.5234 13.7483C25.5234 13.7471 25.5234 13.7459 25.5234 13.7448C25.5234 13.7436 25.5234 13.7424 25.5234 13.7412C25.5234 13.74 25.5234 13.7389 25.5234 13.7377C25.5234 13.7365 25.5234 13.7353 25.5234 13.7341C25.5234 13.7329 25.5234 13.7318 25.5234 13.7306C25.5234 13.7294 25.5234 13.7282 25.5234 13.727C25.5234 13.7258 25.5234 13.7246 25.5234 13.7235C25.5234 13.7223 25.5234 13.7211 25.5234 13.7199C25.5234 13.7187 25.5234 13.7175 25.5234 13.7163C25.5234 13.7151 25.5234 13.7139 25.5234 13.7127C25.5234 13.7115 25.5234 13.7103 25.5234 13.7091C25.5234 13.708 25.5234 13.7068 25.5234 13.7056C25.5234 13.7044 25.5234 13.7032 25.5234 13.702C25.5234 13.7008 25.5234 13.6996 25.5234 13.6984C25.5234 13.6972 25.5234 13.696 25.5234 13.6948C25.5234 13.6936 25.5234 13.6923 25.5234 13.6911C25.5234 13.6899 25.5234 13.6887 25.5234 13.6875C25.5234 13.6863 25.5234 13.6851 25.5234 13.6839C25.5234 13.6827 25.5234 13.6815 25.5234 13.6803C25.5234 13.6791 25.5234 13.6779 25.5234 13.6766C25.5234 13.6754 25.5234 13.6742 25.5234 13.673C25.5234 13.6718 25.5234 13.6706 25.5234 13.6694C25.5234 13.6681 25.5234 13.6669 25.5234 13.6657C25.5234 13.6645 25.5234 13.6633 25.5234 13.662C25.5234 13.6608 25.5234 13.6596 25.5234 13.6584C25.5234 13.6572 25.5234 13.6559 25.5234 13.6547C25.5234 13.6535 25.5234 13.6523 25.5234 13.651C25.5234 13.6498 25.5234 13.6486 25.5234 13.6474C25.5234 13.6461 25.5234 13.6449 25.5234 13.6437C25.5234 13.6425 25.5234 13.6412 25.5234 13.64C25.5234 13.6388 25.5234 13.6375 25.5234 13.6363C25.5234 13.6351 25.5234 13.6338 25.5234 13.6326C25.5234 13.6314 25.5234 13.6301 25.5234 13.6289C25.5234 13.6277 25.5234 13.6264 25.5234 13.6252C25.5234 13.6239 25.5234 13.6227 25.5234 13.6215C25.5234 13.6202 25.5234 13.619 25.5234 13.6177C25.5234 13.6165 25.5234 13.6153 25.5234 13.614C25.5234 13.6128 25.5234 13.6115 25.5234 13.6103C25.5234 13.609 25.5234 13.6078 25.5234 13.6065C25.5234 13.6053 25.5234 13.604 25.5234 13.6028C25.5234 13.6015 25.5234 13.6003 25.5234 13.599C25.5234 13.5978 25.5234 13.5965 25.5234 13.5953C25.5234 13.594 25.5234 13.5928 25.5234 13.5915C25.5234 13.5903 25.5234 13.589 25.5234 13.5878C25.5234 13.5865 25.5234 13.5853 25.5234 13.584C25.5234 13.5827 25.5234 13.5815 25.5234 13.5802C25.5234 13.579 25.5234 13.5777 25.5234 13.5764C25.5234 13.5752 25.5234 13.5739 25.5234 13.5726C25.5234 13.5714 25.5234 13.5701 25.5234 13.5689C25.5234 13.5676 25.5234 13.5663 25.5234 13.5651C25.5234 13.5638 25.5234 13.5625 25.5234 13.5612C25.5234 13.56 25.5234 13.5587 25.5234 13.5574C25.5234 13.5562 25.5234 13.5549 25.5234 13.5536C25.5234 13.5523 25.5234 13.5511 25.5234 13.5498C25.5234 13.5485 25.5234 13.5472 25.5234 13.546C25.5234 13.5447 25.5234 13.5434 25.5234 13.5421C25.5234 13.5409 25.5234 13.5396 25.5234 13.5383C25.5234 13.537 25.5234 13.5357 25.5234 13.5345C25.5234 13.5332 25.5234 13.5319 25.5234 13.5306C25.5234 13.5293 25.5234 13.528 25.5234 13.5268C25.5234 13.5255 25.5234 13.5242 25.5234 13.5229C25.5234 13.5216 25.5234 13.5203 25.5234 13.519C25.5234 13.5177 25.5234 13.5165 25.5234 13.5152C25.5234 13.5139 25.5234 13.5126 25.5234 13.5113C25.5234 13.51 25.5234 13.5087 25.5234 13.5074C25.5234 13.5061 25.5234 13.5048 25.5234 13.5035C25.5234 13.5022 25.5234 13.5009 25.5234 13.4996C25.5234 13.4983 25.5234 13.497 25.5234 13.4957C25.5234 13.4944 25.5234 13.4931 25.5234 13.4918C25.5234 13.4905 25.5234 13.4892 25.5234 13.4879C25.5234 13.4866 25.5234 13.4853 25.5234 13.484C25.5234 13.4827 25.5234 13.4814 25.5234 13.4801C25.5234 13.4788 25.5234 13.4775 25.5234 13.4762C25.5234 13.4748 25.5234 13.4735 25.5234 13.4722C25.5234 13.4709 25.5234 13.4696 25.5234 13.4683C25.5234 13.467 25.5234 13.4657 25.5234 13.4643C25.5234 13.463 25.5234 13.4617 25.5234 13.4604C25.5234 13.4591 25.5234 13.4578 25.5234 13.4564C25.5234 13.4551 25.5234 13.4538 25.5234 13.4525C25.5234 13.4512 25.5234 13.4498 25.5234 13.4485C25.5234 13.4472 25.5234 13.4459 25.5234 13.4445C25.5234 13.4432 25.5234 13.4419 25.5234 13.4406C25.5234 13.4392 25.5234 13.4379 25.5234 13.4366C25.5234 13.4353 25.5234 13.4339 25.5234 13.4326C25.5234 13.4313 25.5234 13.4299 25.5234 13.4286C25.5234 13.4273 25.5234 13.426 25.5234 13.4246C25.5234 13.4233 25.5234 13.422 25.5234 13.4206C25.5234 13.4193 25.5234 13.4179 25.5234 13.4166C25.5234 13.4153 25.5234 13.4139 25.5234 13.4126C25.5234 13.4113 25.5234 13.4099 25.5234 13.4086C25.5234 13.4072 25.5234 13.4059 25.5234 13.4046C25.5234 13.4032 25.5234 13.4019 25.5234 13.4005C25.5234 13.3992 25.5234 13.3978 25.5234 13.3965C25.5234 13.3951 25.5234 13.3938 25.5234 13.3924C25.5234 13.3911 25.5234 13.3897 25.5234 13.3884C25.5234 13.387 25.5234 13.3857 25.5234 13.3843C25.5234 13.383 25.5234 13.3816 25.5234 13.3803C25.5234 13.3789 25.5234 13.3776 25.5234 13.3762C25.5234 13.3749 25.5234 13.3735 25.5234 13.3722C25.5234 13.3708 25.5234 13.3694 25.5234 13.3681C25.5234 13.3667 25.5234 13.3654 25.5234 13.364C25.5234 13.3626 25.5234 13.3613 25.5234 13.3599C25.5234 13.3586 25.5234 13.3572 25.5234 13.3558C25.5234 13.3545 25.5234 13.3531 25.5234 13.3517C25.5234 13.3504 25.5234 13.349 25.5234 13.3476C25.5234 13.3463 25.5234 13.3449 25.5234 13.3435C25.5234 13.3422 25.5234 13.3408 25.5234 13.3394C25.5234 13.338 25.5234 13.3367 25.5234 13.3353C25.5234 13.3339 25.5234 13.3325 25.5234 13.3312C25.5234 13.3298 25.5234 13.3284 25.5234 13.327C25.5234 13.3257 25.5234 13.3243 25.5234 13.3229C25.5234 13.3215 25.5234 13.3201 25.5234 13.3188C25.5234 13.3174 25.5234 13.316 25.5234 13.3146C25.5234 13.3132 25.5234 13.3119 25.5234 13.3105C25.5234 13.3091 25.5234 13.3077 25.5234 13.3063C25.5234 13.3049 25.5234 13.3035 25.5234 13.3022C25.5234 13.3008 25.5234 13.2994 25.5234 13.298C25.5234 13.2966 25.5234 13.2952 25.5234 13.2938C25.5234 13.2924 25.5234 13.291 25.5234 13.2896C25.5234 13.2882 25.5234 13.2868 25.5234 13.2855C25.5234 13.2841 25.5234 13.2827 25.5234 13.2813C25.5234 13.2799 25.5234 13.2785 25.5234 13.2771C25.5234 13.2757 25.5234 13.2743 25.5234 13.2729C25.5234 13.2715 25.5234 13.2701 25.5234 13.2687C25.5234 13.2673 25.5234 13.2659 25.5234 13.2645C25.5234 13.263 25.5234 13.2616 25.5234 13.2602C25.5234 13.2588 25.5234 13.2574 25.5234 13.256C25.5234 13.2546 25.5234 13.2532 25.5234 13.2518C25.5234 13.2504 25.5234 13.249 25.5234 13.2476C25.5234 13.2461 25.5234 13.2447 25.5234 13.2433C25.5234 13.2419 25.5234 13.2405 25.5234 13.2391C25.5234 13.2377 25.5234 13.2362 25.5234 13.2348C25.5234 13.2334 25.5234 13.232 25.5234 13.2306C25.5234 13.2291 25.5234 13.2277 25.5234 13.2263C25.5234 13.2249 25.5234 13.2235 25.5234 13.222C25.5234 13.2206 25.5234 13.2192 25.5234 13.2178C25.5234 13.2163 25.5234 13.2149 25.5234 13.2135C25.5234 13.2121 25.5234 13.2106 25.5234 13.2092C25.5234 13.2078 25.5234 13.2063 25.5234 13.2049C25.5234 13.2035 25.5234 13.2021 25.5234 13.2006C25.5234 13.1992 25.5234 13.1978 25.5234 13.1963C25.5234 13.1949 25.5234 13.1935 25.5234 13.192C25.5234 13.1906 25.5234 13.1891 25.5234 13.1877C25.5234 13.1863 25.5234 13.1848 25.5234 13.1834C25.5234 13.182 25.5234 13.1805 25.5234 13.1791C25.5234 13.1776 25.5234 13.1762 25.5234 13.1747C25.5234 13.1733 25.5234 13.1719 25.5234 13.1704C25.5234 13.169 25.5234 13.1675 25.5234 13.1661C25.5234 13.1646 25.5234 13.1632 25.5234 13.1617C25.5234 13.1603 25.5234 13.1588 25.5234 13.1574C25.5234 13.1559 25.5234 13.1545 25.5234 13.153C25.5234 13.1516 25.5234 13.1501 25.5234 13.1487C25.5234 13.1472 25.5234 13.1458 25.5234 13.1443C25.5234 13.1428 25.5234 13.1414 25.5234 13.1399C25.5234 13.1385 25.5234 13.137 25.5234 13.1356C25.5234 13.1341 25.5234 13.1326 25.5234 13.1312C25.5234 13.1297 25.5234 13.1283 25.5234 13.1268C25.5234 13.1253 25.5234 13.1239 25.5234 13.1224C25.5234 13.1209 25.5234 13.1195 25.5234 13.118C25.5234 13.1165 25.5234 13.1151 25.5234 13.1136C25.5234 13.1121 25.5234 13.1107 25.5234 13.1092C25.5234 13.1077 25.5234 13.1062 25.5234 13.1048C25.5234 13.1033 25.5234 13.1018 25.5234 13.1003C25.5234 13.0989 25.5234 13.0974 25.5234 13.0959C25.5234 13.0944 25.5234 13.093 25.5234 13.0915C25.5234 13.09 25.5234 13.0885 25.5234 13.0871C25.5234 13.0856 25.5234 13.0841 25.5234 13.0826C25.5234 13.0811 25.5234 13.0797 25.5234 13.0782C25.5234 13.0767 25.5234 13.0752 25.5234 13.0737C25.5234 13.0722 25.5234 13.0707 25.5234 13.0693C25.5234 13.0678 25.5234 13.0663 25.5234 13.0648C25.5234 13.0633 25.5234 13.0618 25.5234 13.0603C25.5234 13.0588 25.5234 13.0573 25.5234 13.0558C25.5234 13.0544 25.5234 13.0529 25.5234 13.0514C25.5234 13.0499 25.5234 13.0484 25.5234 13.0469C25.5234 13.0454 25.5234 13.0439 25.5234 13.0424C25.5234 13.0409 25.5234 13.0394 25.5234 13.0379C25.5234 13.0364 25.5234 13.0349 25.5234 13.0334C25.5234 13.0319 25.5234 13.0304 25.5234 13.0289C25.5234 13.0274 25.5234 13.0259 25.5234 13.0244C25.5234 13.0229 25.5234 13.0214 25.5234 13.0198C25.5234 13.0183 25.5234 13.0168 25.5234 13.0153C25.5234 13.0138 25.5234 13.0123 25.5234 13.0108C25.5234 13.0093 25.5234 13.0078 25.5234 13.0063C25.5234 13.0047 25.5234 13.0032 25.5234 13.0017C25.5234 13.0002 25.5234 12.9987 25.5234 12.9972C25.5234 12.9957 25.5234 12.9941 25.5234 12.9926C25.5234 12.9911 25.5234 12.9896 25.5234 12.9881C25.5234 12.9865 25.5234 12.985 25.5234 12.9835C25.5234 12.982 25.5234 12.9805 25.5234 12.9789C25.5234 12.9774 25.5234 12.9759 25.5234 12.9744C25.5234 12.9728 25.5234 12.9713 25.5234 12.9698C25.5234 12.9683 25.5234 12.9667 25.5234 12.9652C25.5234 12.9637 25.5234 12.9621 25.5234 12.9606C25.5234 12.9591 25.5234 12.9575 25.5234 12.956C25.5234 12.9545 25.5234 12.9529 25.5234 12.9514C25.5234 12.9499 25.5234 12.9483 25.5234 12.9468C25.5234 12.9453 25.5234 12.9437 25.5234 12.9422C25.5234 12.9406 25.5234 12.9391 25.5234 12.9376C25.5234 12.936 25.5234 12.9345 25.5234 12.9329C25.5234 12.9314 25.5234 12.9299 25.5234 12.9283C25.5234 12.9268 25.5234 12.9252 25.5234 12.9237C25.5234 12.9221 25.5234 12.9206 25.5234 12.919C25.5234 12.9175 25.5234 12.9159 25.5234 12.9144C25.5234 12.9128 25.5234 12.9113 25.5234 12.9097C25.5234 12.9082 25.5234 12.9066 25.5234 12.9051C25.5234 12.9035 25.5234 12.902 25.5234 12.9004C25.5234 12.8989 25.5234 12.8973 25.5234 12.8958C25.5234 12.8942 25.5234 12.8926 25.5234 12.8911C25.5234 12.8895 25.5234 12.888 25.5234 12.8864C25.5234 12.8848 25.5234 12.8833 25.5234 12.8817C25.5234 12.8802 25.5234 12.8786 25.5234 12.877C25.5234 12.8755 25.5234 12.8739 25.5234 12.8723C25.5234 12.8708 25.5234 12.8692 25.5234 12.8676C25.5234 12.8661 25.5234 12.8645 25.5234 12.8629C25.5234 12.8614 25.5234 12.8598 25.5234 12.8582C25.5234 12.8567 25.5234 12.8551 25.5234 12.8535C25.5234 12.8519 25.5234 12.8504 25.5234 12.8488C25.5234 12.8472 25.5234 12.8456 25.5234 12.8441C25.5234 12.8425 25.5234 12.8409 25.5234 12.8393C25.5234 12.8377 25.5234 12.8362 25.5234 12.8346C25.5234 12.833 25.5234 12.8314 25.5234 12.8298C25.5234 12.8283 25.5234 12.8267 25.5234 12.8251C25.5234 12.8235 25.5234 12.8219 25.5234 12.8203C25.5234 12.8188 25.5234 12.8172 25.5234 12.8156C25.5234 12.814 25.5234 12.8124 25.5234 12.8108C25.5234 12.8092 25.5234 12.8076 25.5234 12.806C25.5234 12.8044 25.5234 12.8029 25.5234 12.8013C25.5234 12.7997 25.5234 12.7981 25.5234 12.7965C25.5234 12.7949 25.5234 12.7933 25.5234 12.7917C25.5234 12.7901 25.5234 12.7885 25.5234 12.7869C25.5234 12.7853 25.5234 12.7837 25.5234 12.7821C25.5234 12.7805 25.5234 12.7789 25.5234 12.7773C25.5234 12.7757 25.5234 12.7741 25.5234 12.7725C25.5234 12.7709 25.5234 12.7693 25.5234 12.7677C25.5234 12.7661 25.5234 12.7645 25.5234 12.7628C25.5234 12.7612 25.5234 12.7596 25.5234 12.758C25.5234 12.7564 25.5234 12.7548 25.5234 12.7532C25.5234 12.7516 25.5234 12.75 25.5234 12.7483C25.5234 12.7467 25.5234 12.7451 25.5234 12.7435C25.5234 12.7419 25.5234 12.7403 25.5234 12.7387C25.5234 12.737 25.5234 12.7354 25.5234 12.7338C25.5234 12.7322 25.5234 12.7306 25.5234 12.7289C25.5234 12.7273 25.5234 12.7257 25.5234 12.7241C25.5234 12.7225 25.5234 12.7208 25.5234 12.7192C25.5234 12.7176 25.5234 12.716 25.5234 12.7143C25.5234 12.7127 25.5234 12.7111 25.5234 12.7095C25.5234 12.7078 25.5234 12.7062 25.5234 12.7046C25.5234 12.7029 25.5234 12.7013 25.5234 12.6997C25.5234 12.698 25.5234 12.6964 25.5234 12.6948C25.5234 12.6931 25.5234 12.6915 25.5234 12.6899C25.5234 12.6882 25.5234 12.6866 25.5234 12.685C25.5234 12.6833 25.5234 12.6817 25.5234 12.68C25.5234 12.6784 25.5234 12.6768 25.5234 12.6751C25.5234 12.6735 25.5234 12.6718 25.5234 12.6702C25.5234 12.6686 25.5234 12.6669 25.5234 12.6653C25.5234 12.6636 25.5234 12.662 25.5234 12.6603C25.5234 12.6587 25.5234 12.657 25.5234 12.6554C25.5234 12.6537 25.5234 12.6521 25.5234 12.6504C25.5234 12.6488 25.5234 12.6471 25.5234 12.6455C25.5234 12.6438 25.5234 12.6422 25.5234 12.6405C25.5234 12.6389 25.5234 12.6372 25.5234 12.6356C25.5234 12.6339 25.5234 12.6323 25.5234 12.6306C25.5234 12.6289 25.5234 12.6273 25.5234 12.6256C25.5234 12.624 25.5234 12.6223 25.5234 12.6206C25.5234 12.619 25.5234 12.6173 25.5234 12.6157C25.5234 12.614 25.5234 12.6123 25.5234 12.6107C25.5234 12.609 25.5234 12.6073 25.5234 12.6057C25.5234 12.604 25.5234 12.6023 25.5234 12.6007C25.5234 12.599 25.5234 12.5973 25.5234 12.5957C25.5234 12.594 25.5234 12.5923 25.5234 12.5906C25.5234 12.589 25.5234 12.5873 25.5234 12.5856C25.5234 12.584 25.5234 12.5823 25.5234 12.5806C25.5234 12.5789 25.5234 12.5772 25.5234 12.5756C25.5234 12.5739 25.5234 12.5722 25.5234 12.5705C25.5234 12.5689 25.5234 12.5672 25.5234 12.5655C25.5234 12.5638 25.5234 12.5621 25.5234 12.5604C25.5234 12.5588 25.5234 12.5571 25.5234 12.5554C25.5234 12.5537 25.5234 12.552 25.5234 12.5503C25.5234 12.5487 25.5234 12.547 25.5234 12.5453C25.5234 12.5436 25.5234 12.5419 25.5234 12.5402C25.5234 12.5385 25.5234 12.5368 25.5234 12.5351C25.5234 12.5334 25.5234 12.5317 25.5234 12.5301C25.5234 12.5284 25.5234 12.5267 25.5234 12.525C25.5234 12.5233 25.5234 12.5216 25.5234 12.5199C25.5234 12.5182 25.5234 12.5165 25.5234 12.5148C25.5234 12.5131 25.5234 12.5114 25.5234 12.5097C25.5234 12.508 25.5234 12.5063 25.5234 12.5046C25.5234 12.5029 25.5234 12.5012 25.5234 12.4995C25.5234 12.4978 25.5234 12.4961 25.5234 12.4943C25.5234 12.4926 25.5234 12.4909 25.5234 12.4892C25.5234 12.4875 25.5234 12.4858 25.5234 12.4841C25.5234 12.4824 25.5234 12.4807 25.5234 12.479C25.5234 12.4772 25.5234 12.4755 25.5234 12.4738C25.5234 12.4721 25.5234 12.4704 25.5234 12.4687C25.5234 12.467 25.5234 12.4652 25.5234 12.4635C25.5234 12.4618 25.5234 12.4601 25.5234 12.4584C25.5234 12.4566 25.5234 12.4549 25.5234 12.4532C25.5234 12.4515 25.5234 12.4498 25.5234 12.448C25.5234 12.4463 25.5234 12.4446 25.5234 12.4429C25.5234 12.4411 25.5234 12.4394 25.5234 12.4377C25.5234 12.436 25.5234 12.4342 25.5234 12.4325C25.5234 12.4308 25.5234 12.429 25.5234 12.4273C25.5234 12.4256 25.5234 12.4239 25.5234 12.4221C25.5234 12.4204 25.5234 12.4187 25.5234 12.4169C25.5234 12.4152 25.5234 12.4134 25.5234 12.4117C25.5234 12.41 25.5234 12.4082 25.5234 12.4065C25.5234 12.4048 25.5234 12.403 25.5234 12.4013C25.5234 12.3995 25.5234 12.3978 25.5234 12.3961C25.5234 12.3943 25.5234 12.3926 25.5234 12.3908C25.5234 12.3891 25.5234 12.3873 25.5234 12.3856C25.5234 12.3839 25.5234 12.3821 25.5234 12.3804C25.5234 12.3786 25.5234 12.3769 25.5234 12.3751C25.5234 12.3734 25.5234 12.3716 25.5234 12.3699C25.5234 12.3681 25.5234 12.3664 25.5234 12.3646C25.5234 12.3629 25.5234 12.3611 25.5234 12.3594C25.5234 12.3576 25.5234 12.3558 25.5234 12.3541C25.5234 12.3523 25.5234 12.3506 25.5234 12.3488C25.5234 12.3471 25.5234 12.3453 25.5234 12.3435C25.5234 12.3418 25.5234 12.34 25.5234 12.3383C25.5234 12.3365 25.5234 12.3347 25.5234 12.333C25.5234 12.3312 25.5234 12.3294 25.5234 12.3277C25.5234 12.3259 25.5234 12.3241 25.5234 12.3224C25.5234 12.3206 25.5234 12.3188 25.5234 12.3171C25.5234 12.3153 25.5234 12.3135 25.5234 12.3118C25.5234 12.31 25.5234 12.3082 25.5234 12.3064C25.5234 12.3047 25.5234 12.3029 25.5234 12.3011C25.5234 12.2993 25.5234 12.2976 25.5234 12.2958C25.5234 12.294 25.5234 12.2922 25.5234 12.2905C25.5234 12.2887 25.5234 12.2869 25.5234 12.2851C25.5234 12.2833 25.5234 12.2816 25.5234 12.2798C25.5234 12.278 25.5234 12.2762 25.5234 12.2744C25.5234 12.2727 25.5234 12.2709 25.5234 12.2691C25.5234 12.2673 25.5234 12.2655 25.5234 12.2637C25.5234 12.2619 25.5234 12.2601 25.5234 12.2584C25.5234 12.2566 25.5234 12.2548 25.5234 12.253C25.5234 12.2512 25.5234 12.2494 25.5234 12.2476C25.5234 12.2458 25.5234 12.244 25.5234 12.2422C25.5234 12.2404 25.5234 12.2386 25.5234 12.2368C25.5234 12.235 25.5234 12.2332 25.5234 12.2314C25.5234 12.2296 25.5234 12.2279 25.5234 12.226C25.5234 12.2242 25.5234 12.2224 25.5234 12.2206C25.5234 12.2188 25.5234 12.217 25.5234 12.2152C25.5234 12.2134 25.5234 12.2116 25.5234 12.2098C25.5234 12.208 25.5234 12.2062 25.5234 12.2044C25.5234 12.2026 25.5234 12.2008 25.5234 12.199C25.5234 12.1972 25.5234 12.1954 25.5234 12.1935C25.5234 12.1917 25.5234 12.1899 25.5234 12.1881C25.5234 12.1863 25.5234 12.1845 25.5234 12.1827C25.5234 12.1809 25.5234 12.179 25.5234 12.1772C25.5234 12.1754 25.5234 12.1736 25.5234 12.1718C25.5234 12.1699 25.5234 12.1681 25.5234 12.1663C25.5234 12.1645 25.5234 12.1627 25.5234 12.1608C25.5234 12.159 25.5234 12.1572 25.5234 12.1554C25.5234 12.1536 25.5234 12.1517 25.5234 12.1499C25.5234 12.1481 25.5234 12.1462 25.5234 12.1444C25.5234 12.1426 25.5234 12.1408 25.5234 12.1389C25.5234 12.1371 25.5234 12.1353 25.5234 12.1334C25.5234 12.1316 25.5234 12.1298 25.5234 12.1279C25.5234 12.1261 25.5234 12.1243 25.5234 12.1224C25.5234 12.1206 25.5234 12.1188 25.5234 12.1169C25.5234 12.1151 25.5234 12.1133 25.5234 12.1114C25.5234 12.1096 25.5234 12.1077 25.5234 12.1059C25.5234 12.1041 25.5234 12.1022 25.5234 12.1004C25.5234 12.0985 25.5234 12.0967 25.5234 12.0948C25.5234 12.093 25.5234 12.0912 25.5234 12.0893C25.5234 12.0875 25.5234 12.0856 25.5234 12.0838C25.5234 12.0819 25.5234 12.0801 25.5234 12.0782C25.5234 12.0764 25.5234 12.0745 25.5234 12.0727C25.5234 12.0708 25.5234 12.069 25.5234 12.0671C25.5234 12.0653 25.5234 12.0634 25.5234 12.0616C25.5234 12.0597 25.5234 12.0578 25.5234 12.056C25.5234 12.0541 25.5234 12.0523 25.5234 12.0504C25.5234 12.0486 25.5234 12.0467 25.5234 12.0448C25.5234 12.043 25.5234 12.0411 25.5234 12.0392C25.5234 12.0374 25.5234 12.0355 25.5234 12.0337C25.5234 12.0318 25.5234 12.0299 25.5234 12.0281C25.5234 12.0262 25.5234 12.0243 25.5234 12.0225C25.5234 12.0206 25.5234 12.0187 25.5234 12.0169C25.5234 12.015 25.5234 12.0131 25.5234 12.0112C25.5234 12.0094 25.5234 12.0075 25.5234 12.0056C25.5234 12.0037 25.5234 12.0019 25.5234 12H24.0234ZM17.6157 25.25C17.6128 25.25 17.6098 25.25 17.6068 25.25C17.6038 25.25 17.6009 25.25 17.5979 25.25C17.5949 25.25 17.5919 25.25 17.5889 25.25C17.5859 25.25 17.583 25.25 17.58 25.25C17.577 25.25 17.574 25.25 17.571 25.25C17.568 25.25 17.565 25.25 17.562 25.25C17.559 25.25 17.556 25.25 17.5529 25.25C17.5499 25.25 17.5469 25.25 17.5439 25.25C17.5409 25.25 17.5379 25.25 17.5349 25.25C17.5318 25.25 17.5288 25.25 17.5258 25.25C17.5227 25.25 17.5197 25.25 17.5167 25.25C17.5137 25.25 17.5106 25.25 17.5076 25.25C17.5045 25.25 17.5015 25.25 17.4984 25.25C17.4954 25.25 17.4924 25.25 17.4893 25.25C17.4863 25.25 17.4832 25.25 17.4801 25.25C17.4771 25.25 17.474 25.25 17.471 25.25C17.4679 25.25 17.4648 25.25 17.4618 25.25C17.4587 25.25 17.4556 25.25 17.4526 25.25C17.4495 25.25 17.4464 25.25 17.4433 25.25C17.4402 25.25 17.4372 25.25 17.4341 25.25C17.431 25.25 17.4279 25.25 17.4248 25.25C17.4217 25.25 17.4186 25.25 17.4155 25.25C17.4124 25.25 17.4093 25.25 17.4062 25.25C17.4031 25.25 17.4 25.25 17.3969 25.25C17.3938 25.25 17.3907 25.25 17.3876 25.25C17.3845 25.25 17.3813 25.25 17.3782 25.25C17.3751 25.25 17.372 25.25 17.3688 25.25C17.3657 25.25 17.3626 25.25 17.3595 25.25C17.3563 25.25 17.3532 25.25 17.3501 25.25C17.3469 25.25 17.3438 25.25 17.3406 25.25C17.3375 25.25 17.3343 25.25 17.3312 25.25C17.328 25.25 17.3249 25.25 17.3217 25.25C17.3186 25.25 17.3154 25.25 17.3123 25.25C17.3091 25.25 17.3059 25.25 17.3028 25.25C17.2996 25.25 17.2964 25.25 17.2933 25.25C17.2901 25.25 17.2869 25.25 17.2837 25.25C17.2806 25.25 17.2774 25.25 17.2742 25.25C17.271 25.25 17.2678 25.25 17.2646 25.25C17.2614 25.25 17.2582 25.25 17.255 25.25C17.2518 25.25 17.2486 25.25 17.2454 25.25C17.2422 25.25 17.239 25.25 17.2358 25.25C17.2326 25.25 17.2294 25.25 17.2262 25.25C17.223 25.25 17.2198 25.25 17.2166 25.25C17.2133 25.25 17.2101 25.25 17.2069 25.25C17.2037 25.25 17.2004 25.25 17.1972 25.25C17.194 25.25 17.1907 25.25 17.1875 25.25C17.1843 25.25 17.181 25.25 17.1778 25.25C17.1745 25.25 17.1713 25.25 17.168 25.25C17.1648 25.25 17.1615 25.25 17.1583 25.25C17.155 25.25 17.1518 25.25 17.1485 25.25C17.1453 25.25 17.142 25.25 17.1387 25.25C17.1355 25.25 17.1322 25.25 17.1289 25.25C17.1257 25.25 17.1224 25.25 17.1191 25.25C17.1158 25.25 17.1126 25.25 17.1093 25.25C17.106 25.25 17.1027 25.25 17.0994 25.25C17.0961 25.25 17.0928 25.25 17.0895 25.25C17.0862 25.25 17.0829 25.25 17.0796 25.25C17.0763 25.25 17.073 25.25 17.0697 25.25C17.0664 25.25 17.0631 25.25 17.0598 25.25C17.0565 25.25 17.0532 25.25 17.0499 25.25C17.0465 25.25 17.0432 25.25 17.0399 25.25C17.0366 25.25 17.0333 25.25 17.0299 25.25C17.0266 25.25 17.0233 25.25 17.0199 25.25C17.0166 25.25 17.0133 25.25 17.0099 25.25C17.0066 25.25 17.0032 25.25 16.9999 25.25C16.9965 25.25 16.9932 25.25 16.9898 25.25C16.9865 25.25 16.9831 25.25 16.9798 25.25C16.9764 25.25 16.973 25.25 16.9697 25.25C16.9663 25.25 16.9629 25.25 16.9596 25.25C16.9562 25.25 16.9528 25.25 16.9495 25.25C16.9461 25.25 16.9427 25.25 16.9393 25.25C16.9359 25.25 16.9326 25.25 16.9292 25.25C16.9258 25.25 16.9224 25.25 16.919 25.25C16.9156 25.25 16.9122 25.25 16.9088 25.25C16.9054 25.25 16.902 25.25 16.8986 25.25C16.8952 25.25 16.8918 25.25 16.8884 25.25C16.885 25.25 16.8816 25.25 16.8781 25.25C16.8747 25.25 16.8713 25.25 16.8679 25.25C16.8645 25.25 16.861 25.25 16.8576 25.25C16.8542 25.25 16.8507 25.25 16.8473 25.25C16.8439 25.25 16.8404 25.25 16.837 25.25C16.8336 25.25 16.8301 25.25 16.8267 25.25C16.8232 25.25 16.8198 25.25 16.8163 25.25C16.8129 25.25 16.8094 25.25 16.806 25.25C16.8025 25.25 16.7991 25.25 16.7956 25.25C16.7921 25.25 16.7887 25.25 16.7852 25.25C16.7817 25.25 16.7783 25.25 16.7748 25.25C16.7713 25.25 16.7678 25.25 16.7643 25.25C16.7609 25.25 16.7574 25.25 16.7539 25.25C16.7504 25.25 16.7469 25.25 16.7434 25.25C16.7399 25.25 16.7364 25.25 16.7329 25.25C16.7295 25.25 16.726 25.25 16.7224 25.25C16.7189 25.25 16.7154 25.25 16.7119 25.25C16.7084 25.25 16.7049 25.25 16.7014 25.25C16.6979 25.25 16.6944 25.25 16.6908 25.25C16.6873 25.25 16.6838 25.25 16.6803 25.25C16.6767 25.25 16.6732 25.25 16.6697 25.25C16.6661 25.25 16.6626 25.25 16.6591 25.25C16.6555 25.25 16.652 25.25 16.6485 25.25C16.6449 25.25 16.6414 25.25 16.6378 25.25C16.6343 25.25 16.6307 25.25 16.6272 25.25C16.6236 25.25 16.62 25.25 16.6165 25.25C16.6129 25.25 16.6094 25.25 16.6058 25.25C16.6022 25.25 16.5986 25.25 16.5951 25.25C16.5915 25.25 16.5879 25.25 16.5843 25.25C16.5808 25.25 16.5772 25.25 16.5736 25.25C16.57 25.25 16.5664 25.25 16.5628 25.25C16.5592 25.25 16.5557 25.25 16.5521 25.25C16.5485 25.25 16.5449 25.25 16.5413 25.25C16.5377 25.25 16.5341 25.25 16.5304 25.25C16.5268 25.25 16.5232 25.25 16.5196 25.25C16.516 25.25 16.5124 25.25 16.5088 25.25C16.5051 25.25 16.5015 25.25 16.4979 25.25C16.4943 25.25 16.4906 25.25 16.487 25.25C16.4834 25.25 16.4797 25.25 16.4761 25.25C16.4725 25.25 16.4688 25.25 16.4652 25.25C16.4616 25.25 16.4579 25.25 16.4543 25.25C16.4506 25.25 16.447 25.25 16.4433 25.25C16.4396 25.25 16.436 25.25 16.4323 25.25C16.4287 25.25 16.425 25.25 16.4213 25.25C16.4177 25.25 16.414 25.25 16.4103 25.25C16.4067 25.25 16.403 25.25 16.3993 25.25C16.3956 25.25 16.392 25.25 16.3883 25.25C16.3846 25.25 16.3809 25.25 16.3772 25.25C16.3735 25.25 16.3698 25.25 16.3661 25.25C16.3624 25.25 16.3587 25.25 16.355 25.25C16.3513 25.25 16.3476 25.25 16.3439 25.25C16.3402 25.25 16.3365 25.25 16.3328 25.25C16.3291 25.25 16.3254 25.25 16.3217 25.25C16.3179 25.25 16.3142 25.25 16.3105 25.25C16.3068 25.25 16.303 25.25 16.2993 25.25C16.2956 25.25 16.2919 25.25 16.2881 25.25C16.2844 25.25 16.2806 25.25 16.2769 25.25C16.2732 25.25 16.2694 25.25 16.2657 25.25C16.2619 25.25 16.2582 25.25 16.2544 25.25C16.2507 25.25 16.2469 25.25 16.2432 25.25C16.2394 25.25 16.2356 25.25 16.2319 25.25C16.2281 25.25 16.2243 25.25 16.2206 25.25C16.2168 25.25 16.213 25.25 16.2093 25.25C16.2055 25.25 16.2017 25.25 16.1979 25.25C16.1941 25.25 16.1903 25.25 16.1866 25.25C16.1828 25.25 16.179 25.25 16.1752 25.25C16.1714 25.25 16.1676 25.25 16.1638 25.25C16.16 25.25 16.1562 25.25 16.1524 25.25C16.1486 25.25 16.1448 25.25 16.141 25.25C16.1372 25.25 16.1333 25.25 16.1295 25.25C16.1257 25.25 16.1219 25.25 16.1181 25.25C16.1142 25.25 16.1104 25.25 16.1066 25.25C16.1028 25.25 16.0989 25.25 16.0951 25.25C16.0913 25.25 16.0874 25.25 16.0836 25.25C16.0798 25.25 16.0759 25.25 16.0721 25.25C16.0682 25.25 16.0644 25.25 16.0605 25.25C16.0567 25.25 16.0528 25.25 16.049 25.25C16.0451 25.25 16.0412 25.25 16.0374 25.25C16.0335 25.25 16.0296 25.25 16.0258 25.25C16.0219 25.25 16.018 25.25 16.0142 25.25C16.0103 25.25 16.0064 25.25 16.0025 25.25C15.9986 25.25 15.9948 25.25 15.9909 25.25C15.987 25.25 15.9831 25.25 15.9792 25.25C15.9753 25.25 15.9714 25.25 15.9675 25.25C15.9636 25.25 15.9597 25.25 15.9558 25.25C15.9519 25.25 15.948 25.25 15.9441 25.25C15.9402 25.25 15.9363 25.25 15.9324 25.25C15.9285 25.25 15.9245 25.25 15.9206 25.25C15.9167 25.25 15.9128 25.25 15.9088 25.25C15.9049 25.25 15.901 25.25 15.8971 25.25C15.8931 25.25 15.8892 25.25 15.8852 25.25C15.8813 25.25 15.8774 25.25 15.8734 25.25C15.8695 25.25 15.8655 25.25 15.8616 25.25C15.8576 25.25 15.8537 25.25 15.8497 25.25C15.8458 25.25 15.8418 25.25 15.8378 25.25C15.8339 25.25 15.8299 25.25 15.826 25.25C15.822 25.25 15.818 25.25 15.814 25.25C15.8101 25.25 15.8061 25.25 15.8021 25.25C15.7981 25.25 15.7942 25.25 15.7902 25.25C15.7862 25.25 15.7822 25.25 15.7782 25.25C15.7742 25.25 15.7702 25.25 15.7662 25.25C15.7622 25.25 15.7582 25.25 15.7542 25.25C15.7502 25.25 15.7462 25.25 15.7422 25.25C15.7382 25.25 15.7342 25.25 15.7302 25.25C15.7262 25.25 15.7221 25.25 15.7181 25.25C15.7141 25.25 15.7101 25.25 15.7061 25.25C15.702 25.25 15.698 25.25 15.694 25.25C15.6899 25.25 15.6859 25.25 15.6819 25.25C15.6778 25.25 15.6738 25.25 15.6698 25.25C15.6657 25.25 15.6617 25.25 15.6576 25.25C15.6536 25.25 15.6495 25.25 15.6455 25.25C15.6414 25.25 15.6374 25.25 15.6333 25.25C15.6292 25.25 15.6252 25.25 15.6211 25.25C15.617 25.25 15.613 25.25 15.6089 25.25C15.6048 25.25 15.6007 25.25 15.5967 25.25C15.5926 25.25 15.5885 25.25 15.5844 25.25C15.5803 25.25 15.5763 25.25 15.5722 25.25C15.5681 25.25 15.564 25.25 15.5599 25.25C15.5558 25.25 15.5517 25.25 15.5476 25.25C15.5435 25.25 15.5394 25.25 15.5353 25.25C15.5312 25.25 15.5271 25.25 15.523 25.25C15.5188 25.25 15.5147 25.25 15.5106 25.25C15.5065 25.25 15.5024 25.25 15.4983 25.25C15.4941 25.25 15.49 25.25 15.4859 25.25C15.4817 25.25 15.4776 25.25 15.4735 25.25C15.4693 25.25 15.4652 25.25 15.4611 25.25C15.4569 25.25 15.4528 25.25 15.4486 25.25C15.4445 25.25 15.4403 25.25 15.4362 25.25C15.432 25.25 15.4279 25.25 15.4237 25.25C15.4195 25.25 15.4154 25.25 15.4112 25.25C15.4071 25.25 15.4029 25.25 15.3987 25.25C15.3945 25.25 15.3904 25.25 15.3862 25.25C15.382 25.25 15.3778 25.25 15.3737 25.25C15.3695 25.25 15.3653 25.25 15.3611 25.25C15.3569 25.25 15.3527 25.25 15.3485 25.25C15.3443 25.25 15.3401 25.25 15.3359 25.25C15.3317 25.25 15.3275 25.25 15.3233 25.25C15.3191 25.25 15.3149 25.25 15.3107 25.25C15.3065 25.25 15.3023 25.25 15.2981 25.25C15.2939 25.25 15.2896 25.25 15.2854 25.25C15.2812 25.25 15.277 25.25 15.2727 25.25C15.2685 25.25 15.2643 25.25 15.26 25.25C15.2558 25.25 15.2516 25.25 15.2473 25.25C15.2431 25.25 15.2388 25.25 15.2346 25.25C15.2304 25.25 15.2261 25.25 15.2219 25.25C15.2176 25.25 15.2134 25.25 15.2091 25.25C15.2048 25.25 15.2006 25.25 15.1963 25.25C15.192 25.25 15.1878 25.25 15.1835 25.25C15.1792 25.25 15.175 25.25 15.1707 25.25C15.1664 25.25 15.1621 25.25 15.1579 25.25C15.1536 25.25 15.1493 25.25 15.145 25.25C15.1407 25.25 15.1364 25.25 15.1321 25.25C15.1279 25.25 15.1236 25.25 15.1193 25.25C15.115 25.25 15.1107 25.25 15.1064 25.25C15.1021 25.25 15.0977 25.25 15.0934 25.25C15.0891 25.25 15.0848 25.25 15.0805 25.25C15.0762 25.25 15.0719 25.25 15.0675 25.25C15.0632 25.25 15.0589 25.25 15.0546 25.25C15.0502 25.25 15.0459 25.25 15.0416 25.25C15.0373 25.25 15.0329 25.25 15.0286 25.25C15.0242 25.25 15.0199 25.25 15.0156 25.25C15.0112 25.25 15.0069 25.25 15.0025 25.25C14.9982 25.25 14.9938 25.25 14.9895 25.25C14.9851 25.25 14.9807 25.25 14.9764 25.25C14.972 25.25 14.9676 25.25 14.9633 25.25C14.9589 25.25 14.9545 25.25 14.9502 25.25C14.9458 25.25 14.9414 25.25 14.937 25.25C14.9327 25.25 14.9283 25.25 14.9239 25.25C14.9195 25.25 14.9151 25.25 14.9107 25.25C14.9063 25.25 14.9019 25.25 14.8975 25.25C14.8932 25.25 14.8888 25.25 14.8843 25.25C14.8799 25.25 14.8755 25.25 14.8711 25.25C14.8667 25.25 14.8623 25.25 14.8579 25.25C14.8535 25.25 14.8491 25.25 14.8446 25.25C14.8402 25.25 14.8358 25.25 14.8314 25.25C14.827 25.25 14.8225 25.25 14.8181 25.25C14.8137 25.25 14.8092 25.25 14.8048 25.25C14.8004 25.25 14.7959 25.25 14.7915 25.25C14.787 25.25 14.7826 25.25 14.7781 25.25C14.7737 25.25 14.7692 25.25 14.7648 25.25C14.7603 25.25 14.7559 25.25 14.7514 25.25C14.7469 25.25 14.7425 25.25 14.738 25.25C14.7336 25.25 14.7291 25.25 14.7246 25.25C14.7201 25.25 14.7157 25.25 14.7112 25.25C14.7067 25.25 14.7022 25.25 14.6977 25.25C14.6933 25.25 14.6888 25.25 14.6843 25.25C14.6798 25.25 14.6753 25.25 14.6708 25.25C14.6663 25.25 14.6618 25.25 14.6573 25.25C14.6528 25.25 14.6483 25.25 14.6438 25.25C14.6393 25.25 14.6348 25.25 14.6303 25.25C14.6258 25.25 14.6212 25.25 14.6167 25.25C14.6122 25.25 14.6077 25.25 14.6032 25.25C14.5986 25.25 14.5941 25.25 14.5896 25.25C14.585 25.25 14.5805 25.25 14.576 25.25C14.5714 25.25 14.5669 25.25 14.5624 25.25C14.5578 25.25 14.5533 25.25 14.5487 25.25C14.5442 25.25 14.5396 25.25 14.5351 25.25C14.5305 25.25 14.526 25.25 14.5214 25.25C14.5169 25.25 14.5123 25.25 14.5077 25.25C14.5032 25.25 14.4986 25.25 14.494 25.25C14.4895 25.25 14.4849 25.25 14.4803 25.25C14.4757 25.25 14.4711 25.25 14.4666 25.25C14.462 25.25 14.4574 25.25 14.4528 25.25C14.4482 25.25 14.4436 25.25 14.439 25.25C14.4344 25.25 14.4298 25.25 14.4252 25.25C14.4206 25.25 14.416 25.25 14.4114 25.25C14.4068 25.25 14.4022 25.25 14.3976 25.25C14.393 25.25 14.3884 25.25 14.3838 25.25C14.3792 25.25 14.3745 25.25 14.3699 25.25C14.3653 25.25 14.3607 25.25 14.356 25.25C14.3514 25.25 14.3468 25.25 14.3421 25.25C14.3375 25.25 14.3329 25.25 14.3282 25.25C14.3236 25.25 14.3189 25.25 14.3143 25.25C14.3097 25.25 14.305 25.25 14.3004 25.25C14.2957 25.25 14.291 25.25 14.2864 25.25C14.2817 25.25 14.2771 25.25 14.2724 25.25C14.2677 25.25 14.2631 25.25 14.2584 25.25C14.2537 25.25 14.2491 25.25 14.2444 25.25C14.2397 25.25 14.235 25.25 14.2304 25.25C14.2257 25.25 14.221 25.25 14.2163 25.25C14.2116 25.25 14.2069 25.25 14.2022 25.25C14.1975 25.25 14.1928 25.25 14.1881 25.25C14.1835 25.25 14.1788 25.25 14.174 25.25C14.1693 25.25 14.1646 25.25 14.1599 25.25C14.1552 25.25 14.1505 25.25 14.1458 25.25C14.1411 25.25 14.1364 25.25 14.1316 25.25C14.1269 25.25 14.1222 25.25 14.1175 25.25C14.1127 25.25 14.108 25.25 14.1033 25.25C14.0985 25.25 14.0938 25.25 14.0891 25.25C14.0843 25.25 14.0796 25.25 14.0748 25.25C14.0701 25.25 14.0653 25.25 14.0606 25.25C14.0558 25.25 14.0511 25.25 14.0463 25.25C14.0416 25.25 14.0368 25.25 14.0321 25.25C14.0273 25.25 14.0225 25.25 14.0178 25.25C14.013 25.25 14.0082 25.25 14.0034 25.25C13.9987 25.25 13.9939 25.25 13.9891 25.25C13.9843 25.25 13.9796 25.25 13.9748 25.25C13.97 25.25 13.9652 25.25 13.9604 25.25C13.9556 25.25 13.9508 25.25 13.946 25.25C13.9412 25.25 13.9364 25.25 13.9316 25.25C13.9268 25.25 13.922 25.25 13.9172 25.25C13.9124 25.25 13.9076 25.25 13.9028 25.25C13.898 25.25 13.8931 25.25 13.8883 25.25C13.8835 25.25 13.8787 25.25 13.8739 25.25C13.869 25.25 13.8642 25.25 13.8594 25.25C13.8545 25.25 13.8497 25.25 13.8449 25.25C13.84 25.25 13.8352 25.25 13.8303 25.25C13.8255 25.25 13.8207 25.25 13.8158 25.25C13.811 25.25 13.8061 25.25 13.8012 25.25C13.7964 25.25 13.7915 25.25 13.7867 25.25C13.7818 25.25 13.777 25.25 13.7721 25.25C13.7672 25.25 13.7624 25.25 13.7575 25.25C13.7526 25.25 13.7477 25.25 13.7429 25.25C13.738 25.25 13.7331 25.25 13.7282 25.25C13.7233 25.25 13.7184 25.25 13.7135 25.25C13.7087 25.25 13.7038 25.25 13.6989 25.25C13.694 25.25 13.6891 25.25 13.6842 25.25C13.6793 25.25 13.6744 25.25 13.6695 25.25C13.6646 25.25 13.6596 25.25 13.6547 25.25C13.6498 25.25 13.6449 25.25 13.64 25.25C13.6351 25.25 13.6301 25.25 13.6252 25.25C13.6203 25.25 13.6154 25.25 13.6104 25.25C13.6055 25.25 13.6006 25.25 13.5956 25.25C13.5907 25.25 13.5858 25.25 13.5808 25.25C13.5759 25.25 13.5709 25.25 13.566 25.25C13.561 25.25 13.5561 25.25 13.5511 25.25C13.5462 25.25 13.5412 25.25 13.5363 25.25C13.5313 25.25 13.5263 25.25 13.5214 25.25C13.5164 25.25 13.5115 25.25 13.5065 25.25C13.5015 25.25 13.4965 25.25 13.4916 25.25C13.4866 25.25 13.4816 25.25 13.4766 25.25C13.4716 25.25 13.4667 25.25 13.4617 25.25C13.4567 25.25 13.4517 25.25 13.4467 25.25C13.4417 25.25 13.4367 25.25 13.4317 25.25C13.4267 25.25 13.4217 25.25 13.4167 25.25C13.4117 25.25 13.4067 25.25 13.4017 25.25C13.3967 25.25 13.3916 25.25 13.3866 25.25C13.3816 25.25 13.3766 25.25 13.3716 25.25C13.3665 25.25 13.3615 25.25 13.3565 25.25C13.3515 25.25 13.3464 25.25 13.3414 25.25C13.3364 25.25 13.3313 25.25 13.3263 25.25C13.3212 25.25 13.3162 25.25 13.3111 25.25C13.3061 25.25 13.3011 25.25 13.296 25.25C13.2909 25.25 13.2859 25.25 13.2808 25.25C13.2758 25.25 13.2707 25.25 13.2657 25.25C13.2606 25.25 13.2555 25.25 13.2505 25.25C13.2454 25.25 13.2403 25.25 13.2352 25.25C13.2302 25.25 13.2251 25.25 13.22 25.25C13.2149 25.25 13.2098 25.25 13.2047 25.25C13.1997 25.25 13.1946 25.25 13.1895 25.25C13.1844 25.25 13.1793 25.25 13.1742 25.25C13.1691 25.25 13.164 25.25 13.1589 25.25C13.1538 25.25 13.1487 25.25 13.1436 25.25C13.1385 25.25 13.1333 25.25 13.1282 25.25C13.1231 25.25 13.118 25.25 13.1129 25.25C13.1077 25.25 13.1026 25.25 13.0975 25.25C13.0924 25.25 13.0872 25.25 13.0821 25.25C13.077 25.25 13.0718 25.25 13.0667 25.25C13.0616 25.25 13.0564 25.25 13.0513 25.25C13.0461 25.25 13.041 25.25 13.0358 25.25C13.0307 25.25 13.0255 25.25 13.0204 25.25C13.0152 25.25 13.0101 25.25 13.0049 25.25C12.9997 25.25 12.9946 25.25 12.9894 25.25C12.9842 25.25 12.9791 25.25 12.9739 25.25C12.9687 25.25 12.9635 25.25 12.9584 25.25C12.9532 25.25 12.948 25.25 12.9428 25.25C12.9376 25.25 12.9324 25.25 12.9272 25.25C12.922 25.25 12.9169 25.25 12.9117 25.25C12.9065 25.25 12.9013 25.25 12.8961 25.25C12.8909 25.25 12.8856 25.25 12.8804 25.25C12.8752 25.25 12.87 25.25 12.8648 25.25C12.8596 25.25 12.8544 25.25 12.8492 25.25C12.8439 25.25 12.8387 25.25 12.8335 25.25C12.8283 25.25 12.823 25.25 12.8178 25.25C12.8126 25.25 12.8073 25.25 12.8021 25.25C12.7969 25.25 12.7916 25.25 12.7864 25.25C12.7811 25.25 12.7759 25.25 12.7706 25.25C12.7654 25.25 12.7601 25.25 12.7549 25.25C12.7496 25.25 12.7444 25.25 12.7391 25.25C12.7338 25.25 12.7286 25.25 12.7233 25.25C12.718 25.25 12.7128 25.25 12.7075 25.25C12.7022 25.25 12.697 25.25 12.6917 25.25C12.6864 25.25 12.6811 25.25 12.6758 25.25C12.6705 25.25 12.6653 25.25 12.66 25.25C12.6547 25.25 12.6494 25.25 12.6441 25.25C12.6388 25.25 12.6335 25.25 12.6282 25.25C12.6229 25.25 12.6176 25.25 12.6123 25.25C12.607 25.25 12.6017 25.25 12.5964 25.25C12.591 25.25 12.5857 25.25 12.5804 25.25C12.5751 25.25 12.5698 25.25 12.5644 25.25C12.5591 25.25 12.5538 25.25 12.5485 25.25C12.5431 25.25 12.5378 25.25 12.5325 25.25C12.5271 25.25 12.5218 25.25 12.5164 25.25C12.5111 25.25 12.5058 25.25 12.5004 25.25C12.4951 25.25 12.4897 25.25 12.4844 25.25C12.479 25.25 12.4736 25.25 12.4683 25.25C12.4629 25.25 12.4576 25.25 12.4522 25.25C12.4468 25.25 12.4415 25.25 12.4361 25.25C12.4307 25.25 12.4253 25.25 12.42 25.25C12.4146 25.25 12.4092 25.25 12.4038 25.25C12.3984 25.25 12.3931 25.25 12.3877 25.25C12.3823 25.25 12.3769 25.25 12.3715 25.25C12.3661 25.25 12.3607 25.25 12.3553 25.25C12.3499 25.25 12.3445 25.25 12.3391 25.25C12.3337 25.25 12.3283 25.25 12.3229 25.25C12.3175 25.25 12.312 25.25 12.3066 25.25C12.3012 25.25 12.2958 25.25 12.2904 25.25C12.2849 25.25 12.2795 25.25 12.2741 25.25C12.2687 25.25 12.2632 25.25 12.2578 25.25C12.2524 25.25 12.2469 25.25 12.2415 25.25C12.236 25.25 12.2306 25.25 12.2251 25.25C12.2197 25.25 12.2143 25.25 12.2088 25.25C12.2033 25.25 12.1979 25.25 12.1924 25.25C12.187 25.25 12.1815 25.25 12.1761 25.25C12.1706 25.25 12.1651 25.25 12.1597 25.25C12.1542 25.25 12.1487 25.25 12.1432 25.25C12.1378 25.25 12.1323 25.25 12.1268 25.25C12.1213 25.25 12.1158 25.25 12.1103 25.25C12.1049 25.25 12.0994 25.25 12.0939 25.25C12.0884 25.25 12.0829 25.25 12.0774 25.25C12.0719 25.25 12.0664 25.25 12.0609 25.25C12.0554 25.25 12.0499 25.25 12.0444 25.25C12.0389 25.25 12.0333 25.25 12.0278 25.25C12.0223 25.25 12.0168 25.25 12.0113 25.25C12.0057 25.25 12.0002 25.25 11.9947 25.25C11.9892 25.25 11.9836 25.25 11.9781 25.25C11.9726 25.25 11.967 25.25 11.9615 25.25C11.956 25.25 11.9504 25.25 11.9449 25.25C11.9393 25.25 11.9338 25.25 11.9282 25.25C11.9227 25.25 11.9171 25.25 11.9116 25.25C11.906 25.25 11.9004 25.25 11.8949 25.25C11.8893 25.25 11.8838 25.25 11.8782 25.25C11.8726 25.25 11.867 25.25 11.8615 25.25C11.8559 25.25 11.8503 25.25 11.8447 25.25C11.8392 25.25 11.8336 25.25 11.828 25.25C11.8224 25.25 11.8168 25.25 11.8112 25.25C11.8056 25.25 11.8 25.25 11.7944 25.25C11.7888 25.25 11.7832 25.25 11.7776 25.25C11.772 25.25 11.7664 25.25 11.7608 25.25C11.7552 25.25 11.7496 25.25 11.744 25.25C11.7384 25.25 11.7328 25.25 11.7271 25.25C11.7215 25.25 11.7159 25.25 11.7103 25.25C11.7046 25.25 11.699 25.25 11.6934 25.25C11.6877 25.25 11.6821 25.25 11.6765 25.25C11.6708 25.25 11.6652 25.25 11.6596 25.25C11.6539 25.25 11.6483 25.25 11.6426 25.25C11.637 25.25 11.6313 25.25 11.6257 25.25C11.62 25.25 11.6143 25.25 11.6087 25.25C11.603 25.25 11.5974 25.25 11.5917 25.25C11.586 25.25 11.5804 25.25 11.5747 25.25C11.569 25.25 11.5633 25.25 11.5577 25.25C11.552 25.25 11.5463 25.25 11.5406 25.25C11.5349 25.25 11.5292 25.25 11.5235 25.25C11.5179 25.25 11.5122 25.25 11.5065 25.25C11.5008 25.25 11.4951 25.25 11.4894 25.25C11.4837 25.25 11.478 25.25 11.4723 25.25C11.4665 25.25 11.4608 25.25 11.4551 25.25C11.4494 25.25 11.4437 25.25 11.438 25.25C11.4323 25.25 11.4265 25.25 11.4208 25.25C11.4151 25.25 11.4094 25.25 11.4036 25.25C11.3979 25.25 11.3922 25.25 11.3864 25.25C11.3807 25.25 11.375 25.25 11.3692 25.25C11.3635 25.25 11.3577 25.25 11.352 25.25C11.3462 25.25 11.3405 25.25 11.3347 25.25C11.329 25.25 11.3232 25.25 11.3174 25.25C11.3117 25.25 11.3059 25.25 11.3002 25.25C11.2944 25.25 11.2886 25.25 11.2829 25.25C11.2771 25.25 11.2713 25.25 11.2655 25.25C11.2598 25.25 11.254 25.25 11.2482 25.25C11.2424 25.25 11.2366 25.25 11.2308 25.25C11.225 25.25 11.2193 25.25 11.2135 25.25C11.2077 25.25 11.2019 25.25 11.1961 25.25C11.1903 25.25 11.1845 25.25 11.1787 25.25C11.1729 25.25 11.167 25.25 11.1612 25.25C11.1554 25.25 11.1496 25.25 11.1438 25.25C11.138 25.25 11.1322 25.25 11.1263 25.25C11.1205 25.25 11.1147 25.25 11.1088 25.25C11.103 25.25 11.0972 25.25 11.0914 25.25C11.0855 25.25 11.0797 25.25 11.0738 25.25C11.068 25.25 11.0622 25.25 11.0563 25.25C11.0505 25.25 11.0446 25.25 11.0388 25.25C11.0329 25.25 11.027 25.25 11.0212 25.25C11.0153 25.25 11.0095 25.25 11.0036 25.25C10.9977 25.25 10.9919 25.25 10.986 25.25C10.9801 25.25 10.9743 25.25 10.9684 25.25C10.9625 25.25 10.9566 25.25 10.9508 25.25C10.9449 25.25 10.939 25.25 10.9331 25.25C10.9272 25.25 10.9213 25.25 10.9154 25.25C10.9095 25.25 10.9036 25.25 10.8977 25.25C10.8918 25.25 10.8859 25.25 10.88 25.25C10.8741 25.25 10.8682 25.25 10.8623 25.25C10.8564 25.25 10.8505 25.25 10.8446 25.25C10.8387 25.25 10.8327 25.25 10.8268 25.25C10.8209 25.25 10.815 25.25 10.809 25.25C10.8031 25.25 10.7972 25.25 10.7912 25.25C10.7853 25.25 10.7794 25.25 10.7734 25.25V26.75C10.7794 26.75 10.7853 26.75 10.7912 26.75C10.7972 26.75 10.8031 26.75 10.809 26.75C10.815 26.75 10.8209 26.75 10.8268 26.75C10.8327 26.75 10.8387 26.75 10.8446 26.75C10.8505 26.75 10.8564 26.75 10.8623 26.75C10.8682 26.75 10.8741 26.75 10.88 26.75C10.8859 26.75 10.8918 26.75 10.8977 26.75C10.9036 26.75 10.9095 26.75 10.9154 26.75C10.9213 26.75 10.9272 26.75 10.9331 26.75C10.939 26.75 10.9449 26.75 10.9508 26.75C10.9566 26.75 10.9625 26.75 10.9684 26.75C10.9743 26.75 10.9801 26.75 10.986 26.75C10.9919 26.75 10.9977 26.75 11.0036 26.75C11.0095 26.75 11.0153 26.75 11.0212 26.75C11.027 26.75 11.0329 26.75 11.0388 26.75C11.0446 26.75 11.0505 26.75 11.0563 26.75C11.0622 26.75 11.068 26.75 11.0738 26.75C11.0797 26.75 11.0855 26.75 11.0914 26.75C11.0972 26.75 11.103 26.75 11.1088 26.75C11.1147 26.75 11.1205 26.75 11.1263 26.75C11.1322 26.75 11.138 26.75 11.1438 26.75C11.1496 26.75 11.1554 26.75 11.1612 26.75C11.167 26.75 11.1729 26.75 11.1787 26.75C11.1845 26.75 11.1903 26.75 11.1961 26.75C11.2019 26.75 11.2077 26.75 11.2135 26.75C11.2193 26.75 11.225 26.75 11.2308 26.75C11.2366 26.75 11.2424 26.75 11.2482 26.75C11.254 26.75 11.2598 26.75 11.2655 26.75C11.2713 26.75 11.2771 26.75 11.2829 26.75C11.2886 26.75 11.2944 26.75 11.3002 26.75C11.3059 26.75 11.3117 26.75 11.3174 26.75C11.3232 26.75 11.329 26.75 11.3347 26.75C11.3405 26.75 11.3462 26.75 11.352 26.75C11.3577 26.75 11.3635 26.75 11.3692 26.75C11.375 26.75 11.3807 26.75 11.3864 26.75C11.3922 26.75 11.3979 26.75 11.4036 26.75C11.4094 26.75 11.4151 26.75 11.4208 26.75C11.4265 26.75 11.4323 26.75 11.438 26.75C11.4437 26.75 11.4494 26.75 11.4551 26.75C11.4608 26.75 11.4665 26.75 11.4723 26.75C11.478 26.75 11.4837 26.75 11.4894 26.75C11.4951 26.75 11.5008 26.75 11.5065 26.75C11.5122 26.75 11.5179 26.75 11.5235 26.75C11.5292 26.75 11.5349 26.75 11.5406 26.75C11.5463 26.75 11.552 26.75 11.5577 26.75C11.5633 26.75 11.569 26.75 11.5747 26.75C11.5804 26.75 11.586 26.75 11.5917 26.75C11.5974 26.75 11.603 26.75 11.6087 26.75C11.6143 26.75 11.62 26.75 11.6257 26.75C11.6313 26.75 11.637 26.75 11.6426 26.75C11.6483 26.75 11.6539 26.75 11.6596 26.75C11.6652 26.75 11.6708 26.75 11.6765 26.75C11.6821 26.75 11.6877 26.75 11.6934 26.75C11.699 26.75 11.7046 26.75 11.7103 26.75C11.7159 26.75 11.7215 26.75 11.7271 26.75C11.7328 26.75 11.7384 26.75 11.744 26.75C11.7496 26.75 11.7552 26.75 11.7608 26.75C11.7664 26.75 11.772 26.75 11.7776 26.75C11.7832 26.75 11.7888 26.75 11.7944 26.75C11.8 26.75 11.8056 26.75 11.8112 26.75C11.8168 26.75 11.8224 26.75 11.828 26.75C11.8336 26.75 11.8392 26.75 11.8447 26.75C11.8503 26.75 11.8559 26.75 11.8615 26.75C11.867 26.75 11.8726 26.75 11.8782 26.75C11.8838 26.75 11.8893 26.75 11.8949 26.75C11.9004 26.75 11.906 26.75 11.9116 26.75C11.9171 26.75 11.9227 26.75 11.9282 26.75C11.9338 26.75 11.9393 26.75 11.9449 26.75C11.9504 26.75 11.956 26.75 11.9615 26.75C11.967 26.75 11.9726 26.75 11.9781 26.75C11.9836 26.75 11.9892 26.75 11.9947 26.75C12.0002 26.75 12.0057 26.75 12.0113 26.75C12.0168 26.75 12.0223 26.75 12.0278 26.75C12.0333 26.75 12.0389 26.75 12.0444 26.75C12.0499 26.75 12.0554 26.75 12.0609 26.75C12.0664 26.75 12.0719 26.75 12.0774 26.75C12.0829 26.75 12.0884 26.75 12.0939 26.75C12.0994 26.75 12.1049 26.75 12.1103 26.75C12.1158 26.75 12.1213 26.75 12.1268 26.75C12.1323 26.75 12.1378 26.75 12.1432 26.75C12.1487 26.75 12.1542 26.75 12.1597 26.75C12.1651 26.75 12.1706 26.75 12.1761 26.75C12.1815 26.75 12.187 26.75 12.1924 26.75C12.1979 26.75 12.2033 26.75 12.2088 26.75C12.2143 26.75 12.2197 26.75 12.2251 26.75C12.2306 26.75 12.236 26.75 12.2415 26.75C12.2469 26.75 12.2524 26.75 12.2578 26.75C12.2632 26.75 12.2687 26.75 12.2741 26.75C12.2795 26.75 12.2849 26.75 12.2904 26.75C12.2958 26.75 12.3012 26.75 12.3066 26.75C12.312 26.75 12.3175 26.75 12.3229 26.75C12.3283 26.75 12.3337 26.75 12.3391 26.75C12.3445 26.75 12.3499 26.75 12.3553 26.75C12.3607 26.75 12.3661 26.75 12.3715 26.75C12.3769 26.75 12.3823 26.75 12.3877 26.75C12.3931 26.75 12.3984 26.75 12.4038 26.75C12.4092 26.75 12.4146 26.75 12.42 26.75C12.4253 26.75 12.4307 26.75 12.4361 26.75C12.4415 26.75 12.4468 26.75 12.4522 26.75C12.4576 26.75 12.4629 26.75 12.4683 26.75C12.4736 26.75 12.479 26.75 12.4844 26.75C12.4897 26.75 12.4951 26.75 12.5004 26.75C12.5058 26.75 12.5111 26.75 12.5164 26.75C12.5218 26.75 12.5271 26.75 12.5325 26.75C12.5378 26.75 12.5431 26.75 12.5485 26.75C12.5538 26.75 12.5591 26.75 12.5644 26.75C12.5698 26.75 12.5751 26.75 12.5804 26.75C12.5857 26.75 12.591 26.75 12.5964 26.75C12.6017 26.75 12.607 26.75 12.6123 26.75C12.6176 26.75 12.6229 26.75 12.6282 26.75C12.6335 26.75 12.6388 26.75 12.6441 26.75C12.6494 26.75 12.6547 26.75 12.66 26.75C12.6653 26.75 12.6705 26.75 12.6758 26.75C12.6811 26.75 12.6864 26.75 12.6917 26.75C12.697 26.75 12.7022 26.75 12.7075 26.75C12.7128 26.75 12.718 26.75 12.7233 26.75C12.7286 26.75 12.7338 26.75 12.7391 26.75C12.7444 26.75 12.7496 26.75 12.7549 26.75C12.7601 26.75 12.7654 26.75 12.7706 26.75C12.7759 26.75 12.7811 26.75 12.7864 26.75C12.7916 26.75 12.7969 26.75 12.8021 26.75C12.8073 26.75 12.8126 26.75 12.8178 26.75C12.823 26.75 12.8283 26.75 12.8335 26.75C12.8387 26.75 12.8439 26.75 12.8492 26.75C12.8544 26.75 12.8596 26.75 12.8648 26.75C12.87 26.75 12.8752 26.75 12.8804 26.75C12.8856 26.75 12.8909 26.75 12.8961 26.75C12.9013 26.75 12.9065 26.75 12.9117 26.75C12.9169 26.75 12.922 26.75 12.9272 26.75C12.9324 26.75 12.9376 26.75 12.9428 26.75C12.948 26.75 12.9532 26.75 12.9584 26.75C12.9635 26.75 12.9687 26.75 12.9739 26.75C12.9791 26.75 12.9842 26.75 12.9894 26.75C12.9946 26.75 12.9997 26.75 13.0049 26.75C13.0101 26.75 13.0152 26.75 13.0204 26.75C13.0255 26.75 13.0307 26.75 13.0358 26.75C13.041 26.75 13.0461 26.75 13.0513 26.75C13.0564 26.75 13.0616 26.75 13.0667 26.75C13.0718 26.75 13.077 26.75 13.0821 26.75C13.0872 26.75 13.0924 26.75 13.0975 26.75C13.1026 26.75 13.1077 26.75 13.1129 26.75C13.118 26.75 13.1231 26.75 13.1282 26.75C13.1333 26.75 13.1385 26.75 13.1436 26.75C13.1487 26.75 13.1538 26.75 13.1589 26.75C13.164 26.75 13.1691 26.75 13.1742 26.75C13.1793 26.75 13.1844 26.75 13.1895 26.75C13.1946 26.75 13.1997 26.75 13.2047 26.75C13.2098 26.75 13.2149 26.75 13.22 26.75C13.2251 26.75 13.2302 26.75 13.2352 26.75C13.2403 26.75 13.2454 26.75 13.2505 26.75C13.2555 26.75 13.2606 26.75 13.2657 26.75C13.2707 26.75 13.2758 26.75 13.2808 26.75C13.2859 26.75 13.2909 26.75 13.296 26.75C13.3011 26.75 13.3061 26.75 13.3111 26.75C13.3162 26.75 13.3212 26.75 13.3263 26.75C13.3313 26.75 13.3364 26.75 13.3414 26.75C13.3464 26.75 13.3515 26.75 13.3565 26.75C13.3615 26.75 13.3665 26.75 13.3716 26.75C13.3766 26.75 13.3816 26.75 13.3866 26.75C13.3916 26.75 13.3967 26.75 13.4017 26.75C13.4067 26.75 13.4117 26.75 13.4167 26.75C13.4217 26.75 13.4267 26.75 13.4317 26.75C13.4367 26.75 13.4417 26.75 13.4467 26.75C13.4517 26.75 13.4567 26.75 13.4617 26.75C13.4667 26.75 13.4716 26.75 13.4766 26.75C13.4816 26.75 13.4866 26.75 13.4916 26.75C13.4965 26.75 13.5015 26.75 13.5065 26.75C13.5115 26.75 13.5164 26.75 13.5214 26.75C13.5263 26.75 13.5313 26.75 13.5363 26.75C13.5412 26.75 13.5462 26.75 13.5511 26.75C13.5561 26.75 13.561 26.75 13.566 26.75C13.5709 26.75 13.5759 26.75 13.5808 26.75C13.5858 26.75 13.5907 26.75 13.5956 26.75C13.6006 26.75 13.6055 26.75 13.6104 26.75C13.6154 26.75 13.6203 26.75 13.6252 26.75C13.6301 26.75 13.6351 26.75 13.64 26.75C13.6449 26.75 13.6498 26.75 13.6547 26.75C13.6596 26.75 13.6646 26.75 13.6695 26.75C13.6744 26.75 13.6793 26.75 13.6842 26.75C13.6891 26.75 13.694 26.75 13.6989 26.75C13.7038 26.75 13.7087 26.75 13.7135 26.75C13.7184 26.75 13.7233 26.75 13.7282 26.75C13.7331 26.75 13.738 26.75 13.7429 26.75C13.7477 26.75 13.7526 26.75 13.7575 26.75C13.7624 26.75 13.7672 26.75 13.7721 26.75C13.777 26.75 13.7818 26.75 13.7867 26.75C13.7915 26.75 13.7964 26.75 13.8012 26.75C13.8061 26.75 13.811 26.75 13.8158 26.75C13.8207 26.75 13.8255 26.75 13.8303 26.75C13.8352 26.75 13.84 26.75 13.8449 26.75C13.8497 26.75 13.8545 26.75 13.8594 26.75C13.8642 26.75 13.869 26.75 13.8739 26.75C13.8787 26.75 13.8835 26.75 13.8883 26.75C13.8931 26.75 13.898 26.75 13.9028 26.75C13.9076 26.75 13.9124 26.75 13.9172 26.75C13.922 26.75 13.9268 26.75 13.9316 26.75C13.9364 26.75 13.9412 26.75 13.946 26.75C13.9508 26.75 13.9556 26.75 13.9604 26.75C13.9652 26.75 13.97 26.75 13.9748 26.75C13.9796 26.75 13.9843 26.75 13.9891 26.75C13.9939 26.75 13.9987 26.75 14.0034 26.75C14.0082 26.75 14.013 26.75 14.0178 26.75C14.0225 26.75 14.0273 26.75 14.0321 26.75C14.0368 26.75 14.0416 26.75 14.0463 26.75C14.0511 26.75 14.0558 26.75 14.0606 26.75C14.0653 26.75 14.0701 26.75 14.0748 26.75C14.0796 26.75 14.0843 26.75 14.0891 26.75C14.0938 26.75 14.0985 26.75 14.1033 26.75C14.108 26.75 14.1127 26.75 14.1175 26.75C14.1222 26.75 14.1269 26.75 14.1316 26.75C14.1364 26.75 14.1411 26.75 14.1458 26.75C14.1505 26.75 14.1552 26.75 14.1599 26.75C14.1646 26.75 14.1693 26.75 14.174 26.75C14.1788 26.75 14.1835 26.75 14.1881 26.75C14.1928 26.75 14.1975 26.75 14.2022 26.75C14.2069 26.75 14.2116 26.75 14.2163 26.75C14.221 26.75 14.2257 26.75 14.2304 26.75C14.235 26.75 14.2397 26.75 14.2444 26.75C14.2491 26.75 14.2537 26.75 14.2584 26.75C14.2631 26.75 14.2677 26.75 14.2724 26.75C14.2771 26.75 14.2817 26.75 14.2864 26.75C14.291 26.75 14.2957 26.75 14.3004 26.75C14.305 26.75 14.3097 26.75 14.3143 26.75C14.3189 26.75 14.3236 26.75 14.3282 26.75C14.3329 26.75 14.3375 26.75 14.3421 26.75C14.3468 26.75 14.3514 26.75 14.356 26.75C14.3607 26.75 14.3653 26.75 14.3699 26.75C14.3745 26.75 14.3792 26.75 14.3838 26.75C14.3884 26.75 14.393 26.75 14.3976 26.75C14.4022 26.75 14.4068 26.75 14.4114 26.75C14.416 26.75 14.4206 26.75 14.4252 26.75C14.4298 26.75 14.4344 26.75 14.439 26.75C14.4436 26.75 14.4482 26.75 14.4528 26.75C14.4574 26.75 14.462 26.75 14.4666 26.75C14.4711 26.75 14.4757 26.75 14.4803 26.75C14.4849 26.75 14.4895 26.75 14.494 26.75C14.4986 26.75 14.5032 26.75 14.5077 26.75C14.5123 26.75 14.5169 26.75 14.5214 26.75C14.526 26.75 14.5305 26.75 14.5351 26.75C14.5396 26.75 14.5442 26.75 14.5487 26.75C14.5533 26.75 14.5578 26.75 14.5624 26.75C14.5669 26.75 14.5714 26.75 14.576 26.75C14.5805 26.75 14.585 26.75 14.5896 26.75C14.5941 26.75 14.5986 26.75 14.6032 26.75C14.6077 26.75 14.6122 26.75 14.6167 26.75C14.6212 26.75 14.6258 26.75 14.6303 26.75C14.6348 26.75 14.6393 26.75 14.6438 26.75C14.6483 26.75 14.6528 26.75 14.6573 26.75C14.6618 26.75 14.6663 26.75 14.6708 26.75C14.6753 26.75 14.6798 26.75 14.6843 26.75C14.6888 26.75 14.6933 26.75 14.6977 26.75C14.7022 26.75 14.7067 26.75 14.7112 26.75C14.7157 26.75 14.7201 26.75 14.7246 26.75C14.7291 26.75 14.7336 26.75 14.738 26.75C14.7425 26.75 14.7469 26.75 14.7514 26.75C14.7559 26.75 14.7603 26.75 14.7648 26.75C14.7692 26.75 14.7737 26.75 14.7781 26.75C14.7826 26.75 14.787 26.75 14.7915 26.75C14.7959 26.75 14.8004 26.75 14.8048 26.75C14.8092 26.75 14.8137 26.75 14.8181 26.75C14.8225 26.75 14.827 26.75 14.8314 26.75C14.8358 26.75 14.8402 26.75 14.8446 26.75C14.8491 26.75 14.8535 26.75 14.8579 26.75C14.8623 26.75 14.8667 26.75 14.8711 26.75C14.8755 26.75 14.8799 26.75 14.8843 26.75C14.8888 26.75 14.8932 26.75 14.8975 26.75C14.9019 26.75 14.9063 26.75 14.9107 26.75C14.9151 26.75 14.9195 26.75 14.9239 26.75C14.9283 26.75 14.9327 26.75 14.937 26.75C14.9414 26.75 14.9458 26.75 14.9502 26.75C14.9545 26.75 14.9589 26.75 14.9633 26.75C14.9676 26.75 14.972 26.75 14.9764 26.75C14.9807 26.75 14.9851 26.75 14.9895 26.75C14.9938 26.75 14.9982 26.75 15.0025 26.75C15.0069 26.75 15.0112 26.75 15.0156 26.75C15.0199 26.75 15.0242 26.75 15.0286 26.75C15.0329 26.75 15.0373 26.75 15.0416 26.75C15.0459 26.75 15.0502 26.75 15.0546 26.75C15.0589 26.75 15.0632 26.75 15.0675 26.75C15.0719 26.75 15.0762 26.75 15.0805 26.75C15.0848 26.75 15.0891 26.75 15.0934 26.75C15.0977 26.75 15.1021 26.75 15.1064 26.75C15.1107 26.75 15.115 26.75 15.1193 26.75C15.1236 26.75 15.1279 26.75 15.1321 26.75C15.1364 26.75 15.1407 26.75 15.145 26.75C15.1493 26.75 15.1536 26.75 15.1579 26.75C15.1621 26.75 15.1664 26.75 15.1707 26.75C15.175 26.75 15.1792 26.75 15.1835 26.75C15.1878 26.75 15.192 26.75 15.1963 26.75C15.2006 26.75 15.2048 26.75 15.2091 26.75C15.2134 26.75 15.2176 26.75 15.2219 26.75C15.2261 26.75 15.2304 26.75 15.2346 26.75C15.2388 26.75 15.2431 26.75 15.2473 26.75C15.2516 26.75 15.2558 26.75 15.26 26.75C15.2643 26.75 15.2685 26.75 15.2727 26.75C15.277 26.75 15.2812 26.75 15.2854 26.75C15.2896 26.75 15.2939 26.75 15.2981 26.75C15.3023 26.75 15.3065 26.75 15.3107 26.75C15.3149 26.75 15.3191 26.75 15.3233 26.75C15.3275 26.75 15.3317 26.75 15.3359 26.75C15.3401 26.75 15.3443 26.75 15.3485 26.75C15.3527 26.75 15.3569 26.75 15.3611 26.75C15.3653 26.75 15.3695 26.75 15.3737 26.75C15.3778 26.75 15.382 26.75 15.3862 26.75C15.3904 26.75 15.3945 26.75 15.3987 26.75C15.4029 26.75 15.4071 26.75 15.4112 26.75C15.4154 26.75 15.4195 26.75 15.4237 26.75C15.4279 26.75 15.432 26.75 15.4362 26.75C15.4403 26.75 15.4445 26.75 15.4486 26.75C15.4528 26.75 15.4569 26.75 15.4611 26.75C15.4652 26.75 15.4693 26.75 15.4735 26.75C15.4776 26.75 15.4817 26.75 15.4859 26.75C15.49 26.75 15.4941 26.75 15.4983 26.75C15.5024 26.75 15.5065 26.75 15.5106 26.75C15.5147 26.75 15.5188 26.75 15.523 26.75C15.5271 26.75 15.5312 26.75 15.5353 26.75C15.5394 26.75 15.5435 26.75 15.5476 26.75C15.5517 26.75 15.5558 26.75 15.5599 26.75C15.564 26.75 15.5681 26.75 15.5722 26.75C15.5763 26.75 15.5803 26.75 15.5844 26.75C15.5885 26.75 15.5926 26.75 15.5967 26.75C15.6007 26.75 15.6048 26.75 15.6089 26.75C15.613 26.75 15.617 26.75 15.6211 26.75C15.6252 26.75 15.6292 26.75 15.6333 26.75C15.6374 26.75 15.6414 26.75 15.6455 26.75C15.6495 26.75 15.6536 26.75 15.6576 26.75C15.6617 26.75 15.6657 26.75 15.6698 26.75C15.6738 26.75 15.6778 26.75 15.6819 26.75C15.6859 26.75 15.6899 26.75 15.694 26.75C15.698 26.75 15.702 26.75 15.7061 26.75C15.7101 26.75 15.7141 26.75 15.7181 26.75C15.7221 26.75 15.7262 26.75 15.7302 26.75C15.7342 26.75 15.7382 26.75 15.7422 26.75C15.7462 26.75 15.7502 26.75 15.7542 26.75C15.7582 26.75 15.7622 26.75 15.7662 26.75C15.7702 26.75 15.7742 26.75 15.7782 26.75C15.7822 26.75 15.7862 26.75 15.7902 26.75C15.7942 26.75 15.7981 26.75 15.8021 26.75C15.8061 26.75 15.8101 26.75 15.814 26.75C15.818 26.75 15.822 26.75 15.826 26.75C15.8299 26.75 15.8339 26.75 15.8378 26.75C15.8418 26.75 15.8458 26.75 15.8497 26.75C15.8537 26.75 15.8576 26.75 15.8616 26.75C15.8655 26.75 15.8695 26.75 15.8734 26.75C15.8774 26.75 15.8813 26.75 15.8852 26.75C15.8892 26.75 15.8931 26.75 15.8971 26.75C15.901 26.75 15.9049 26.75 15.9088 26.75C15.9128 26.75 15.9167 26.75 15.9206 26.75C15.9245 26.75 15.9285 26.75 15.9324 26.75C15.9363 26.75 15.9402 26.75 15.9441 26.75C15.948 26.75 15.9519 26.75 15.9558 26.75C15.9597 26.75 15.9636 26.75 15.9675 26.75C15.9714 26.75 15.9753 26.75 15.9792 26.75C15.9831 26.75 15.987 26.75 15.9909 26.75C15.9948 26.75 15.9986 26.75 16.0025 26.75C16.0064 26.75 16.0103 26.75 16.0142 26.75C16.018 26.75 16.0219 26.75 16.0258 26.75C16.0296 26.75 16.0335 26.75 16.0374 26.75C16.0412 26.75 16.0451 26.75 16.049 26.75C16.0528 26.75 16.0567 26.75 16.0605 26.75C16.0644 26.75 16.0682 26.75 16.0721 26.75C16.0759 26.75 16.0798 26.75 16.0836 26.75C16.0874 26.75 16.0913 26.75 16.0951 26.75C16.0989 26.75 16.1028 26.75 16.1066 26.75C16.1104 26.75 16.1142 26.75 16.1181 26.75C16.1219 26.75 16.1257 26.75 16.1295 26.75C16.1333 26.75 16.1372 26.75 16.141 26.75C16.1448 26.75 16.1486 26.75 16.1524 26.75C16.1562 26.75 16.16 26.75 16.1638 26.75C16.1676 26.75 16.1714 26.75 16.1752 26.75C16.179 26.75 16.1828 26.75 16.1866 26.75C16.1903 26.75 16.1941 26.75 16.1979 26.75C16.2017 26.75 16.2055 26.75 16.2093 26.75C16.213 26.75 16.2168 26.75 16.2206 26.75C16.2243 26.75 16.2281 26.75 16.2319 26.75C16.2356 26.75 16.2394 26.75 16.2432 26.75C16.2469 26.75 16.2507 26.75 16.2544 26.75C16.2582 26.75 16.2619 26.75 16.2657 26.75C16.2694 26.75 16.2732 26.75 16.2769 26.75C16.2806 26.75 16.2844 26.75 16.2881 26.75C16.2919 26.75 16.2956 26.75 16.2993 26.75C16.303 26.75 16.3068 26.75 16.3105 26.75C16.3142 26.75 16.3179 26.75 16.3217 26.75C16.3254 26.75 16.3291 26.75 16.3328 26.75C16.3365 26.75 16.3402 26.75 16.3439 26.75C16.3476 26.75 16.3513 26.75 16.355 26.75C16.3587 26.75 16.3624 26.75 16.3661 26.75C16.3698 26.75 16.3735 26.75 16.3772 26.75C16.3809 26.75 16.3846 26.75 16.3883 26.75C16.392 26.75 16.3956 26.75 16.3993 26.75C16.403 26.75 16.4067 26.75 16.4103 26.75C16.414 26.75 16.4177 26.75 16.4213 26.75C16.425 26.75 16.4287 26.75 16.4323 26.75C16.436 26.75 16.4396 26.75 16.4433 26.75C16.447 26.75 16.4506 26.75 16.4543 26.75C16.4579 26.75 16.4616 26.75 16.4652 26.75C16.4688 26.75 16.4725 26.75 16.4761 26.75C16.4797 26.75 16.4834 26.75 16.487 26.75C16.4906 26.75 16.4943 26.75 16.4979 26.75C16.5015 26.75 16.5051 26.75 16.5088 26.75C16.5124 26.75 16.516 26.75 16.5196 26.75C16.5232 26.75 16.5268 26.75 16.5304 26.75C16.5341 26.75 16.5377 26.75 16.5413 26.75C16.5449 26.75 16.5485 26.75 16.5521 26.75C16.5557 26.75 16.5592 26.75 16.5628 26.75C16.5664 26.75 16.57 26.75 16.5736 26.75C16.5772 26.75 16.5808 26.75 16.5843 26.75C16.5879 26.75 16.5915 26.75 16.5951 26.75C16.5986 26.75 16.6022 26.75 16.6058 26.75C16.6094 26.75 16.6129 26.75 16.6165 26.75C16.62 26.75 16.6236 26.75 16.6272 26.75C16.6307 26.75 16.6343 26.75 16.6378 26.75C16.6414 26.75 16.6449 26.75 16.6485 26.75C16.652 26.75 16.6555 26.75 16.6591 26.75C16.6626 26.75 16.6661 26.75 16.6697 26.75C16.6732 26.75 16.6767 26.75 16.6803 26.75C16.6838 26.75 16.6873 26.75 16.6908 26.75C16.6944 26.75 16.6979 26.75 16.7014 26.75C16.7049 26.75 16.7084 26.75 16.7119 26.75C16.7154 26.75 16.7189 26.75 16.7224 26.75C16.726 26.75 16.7295 26.75 16.7329 26.75C16.7364 26.75 16.7399 26.75 16.7434 26.75C16.7469 26.75 16.7504 26.75 16.7539 26.75C16.7574 26.75 16.7609 26.75 16.7643 26.75C16.7678 26.75 16.7713 26.75 16.7748 26.75C16.7783 26.75 16.7817 26.75 16.7852 26.75C16.7887 26.75 16.7921 26.75 16.7956 26.75C16.7991 26.75 16.8025 26.75 16.806 26.75C16.8094 26.75 16.8129 26.75 16.8163 26.75C16.8198 26.75 16.8232 26.75 16.8267 26.75C16.8301 26.75 16.8336 26.75 16.837 26.75C16.8404 26.75 16.8439 26.75 16.8473 26.75C16.8507 26.75 16.8542 26.75 16.8576 26.75C16.861 26.75 16.8645 26.75 16.8679 26.75C16.8713 26.75 16.8747 26.75 16.8781 26.75C16.8816 26.75 16.885 26.75 16.8884 26.75C16.8918 26.75 16.8952 26.75 16.8986 26.75C16.902 26.75 16.9054 26.75 16.9088 26.75C16.9122 26.75 16.9156 26.75 16.919 26.75C16.9224 26.75 16.9258 26.75 16.9292 26.75C16.9326 26.75 16.9359 26.75 16.9393 26.75C16.9427 26.75 16.9461 26.75 16.9495 26.75C16.9528 26.75 16.9562 26.75 16.9596 26.75C16.9629 26.75 16.9663 26.75 16.9697 26.75C16.973 26.75 16.9764 26.75 16.9798 26.75C16.9831 26.75 16.9865 26.75 16.9898 26.75C16.9932 26.75 16.9965 26.75 16.9999 26.75C17.0032 26.75 17.0066 26.75 17.0099 26.75C17.0133 26.75 17.0166 26.75 17.0199 26.75C17.0233 26.75 17.0266 26.75 17.0299 26.75C17.0333 26.75 17.0366 26.75 17.0399 26.75C17.0432 26.75 17.0465 26.75 17.0499 26.75C17.0532 26.75 17.0565 26.75 17.0598 26.75C17.0631 26.75 17.0664 26.75 17.0697 26.75C17.073 26.75 17.0763 26.75 17.0796 26.75C17.0829 26.75 17.0862 26.75 17.0895 26.75C17.0928 26.75 17.0961 26.75 17.0994 26.75C17.1027 26.75 17.106 26.75 17.1093 26.75C17.1126 26.75 17.1158 26.75 17.1191 26.75C17.1224 26.75 17.1257 26.75 17.1289 26.75C17.1322 26.75 17.1355 26.75 17.1387 26.75C17.142 26.75 17.1453 26.75 17.1485 26.75C17.1518 26.75 17.155 26.75 17.1583 26.75C17.1615 26.75 17.1648 26.75 17.168 26.75C17.1713 26.75 17.1745 26.75 17.1778 26.75C17.181 26.75 17.1843 26.75 17.1875 26.75C17.1907 26.75 17.194 26.75 17.1972 26.75C17.2004 26.75 17.2037 26.75 17.2069 26.75C17.2101 26.75 17.2133 26.75 17.2166 26.75C17.2198 26.75 17.223 26.75 17.2262 26.75C17.2294 26.75 17.2326 26.75 17.2358 26.75C17.239 26.75 17.2422 26.75 17.2454 26.75C17.2486 26.75 17.2518 26.75 17.255 26.75C17.2582 26.75 17.2614 26.75 17.2646 26.75C17.2678 26.75 17.271 26.75 17.2742 26.75C17.2774 26.75 17.2806 26.75 17.2837 26.75C17.2869 26.75 17.2901 26.75 17.2933 26.75C17.2964 26.75 17.2996 26.75 17.3028 26.75C17.3059 26.75 17.3091 26.75 17.3123 26.75C17.3154 26.75 17.3186 26.75 17.3217 26.75C17.3249 26.75 17.328 26.75 17.3312 26.75C17.3343 26.75 17.3375 26.75 17.3406 26.75C17.3438 26.75 17.3469 26.75 17.3501 26.75C17.3532 26.75 17.3563 26.75 17.3595 26.75C17.3626 26.75 17.3657 26.75 17.3688 26.75C17.372 26.75 17.3751 26.75 17.3782 26.75C17.3813 26.75 17.3845 26.75 17.3876 26.75C17.3907 26.75 17.3938 26.75 17.3969 26.75C17.4 26.75 17.4031 26.75 17.4062 26.75C17.4093 26.75 17.4124 26.75 17.4155 26.75C17.4186 26.75 17.4217 26.75 17.4248 26.75C17.4279 26.75 17.431 26.75 17.4341 26.75C17.4372 26.75 17.4402 26.75 17.4433 26.75C17.4464 26.75 17.4495 26.75 17.4526 26.75C17.4556 26.75 17.4587 26.75 17.4618 26.75C17.4648 26.75 17.4679 26.75 17.471 26.75C17.474 26.75 17.4771 26.75 17.4801 26.75C17.4832 26.75 17.4863 26.75 17.4893 26.75C17.4924 26.75 17.4954 26.75 17.4984 26.75C17.5015 26.75 17.5045 26.75 17.5076 26.75C17.5106 26.75 17.5137 26.75 17.5167 26.75C17.5197 26.75 17.5227 26.75 17.5258 26.75C17.5288 26.75 17.5318 26.75 17.5349 26.75C17.5379 26.75 17.5409 26.75 17.5439 26.75C17.5469 26.75 17.5499 26.75 17.5529 26.75C17.556 26.75 17.559 26.75 17.562 26.75C17.565 26.75 17.568 26.75 17.571 26.75C17.574 26.75 17.577 26.75 17.58 26.75C17.583 26.75 17.5859 26.75 17.5889 26.75C17.5919 26.75 17.5949 26.75 17.5979 26.75C17.6009 26.75 17.6038 26.75 17.6068 26.75C17.6098 26.75 17.6128 26.75 17.6157 26.75V25.25ZM10.7734 25.25C9.5308 25.25 8.52344 24.2426 8.52344 23H7.02344C7.02344 25.0711 8.70237 26.75 10.7734 26.75V25.25ZM8.52344 23V15.7459H7.02344V23H8.52344Z" fill="currentColor" fill-opacity="0.5"/>
<path d="M5 9H11" stroke="currentColor" stroke-width="2" stroke-linecap="square"/>
<path d="M8 6V12" stroke="currentColor" stroke-width="2" stroke-linecap="square"/>
<path d="M21 27C24.866 27 28 23.866 28 20C28 16.134 24.866 13 21 13C17.134 13 14 16.134 14 20C14 23.866 17.134 27 21 27Z" stroke="currentColor" stroke-width="2" stroke-linecap="round" stroke-linejoin="round" fill="none"/>
<path d="M25 21.9134C24.1591 23.2191 22.627 24.014 20.9784 23.9998C19.3298 23.9856 17.8141 23.1644 17 21.8443M17.5 18.9208C17.5 18.4123 17.9477 18 18.5 18C19.0523 18 19.5 18.4123 19.5 18.9208M22.5 18.9208C22.5 18.4123 22.9477 18 23.5 18C24.0523 18 24.5 18.4123 24.5 18.9208" stroke="currentColor" stroke-width="1.5" stroke-linecap="round" stroke-linejoin="round" fill="none"/>
</svg>
