<svg xmlns="http://www.w3.org/2000/svg" width="32" height="32" fill="none" viewBox="0 0 32 32">
  <path stroke="currentColor" stroke-linecap="round" stroke-linejoin="round" stroke-opacity=".5" stroke-width="2" d="M13.519 22.72c.814.188 1.646.282 2.481.28 7 0 12-7 12-7a20.89 20.89 0 0 0-3.864-3.88m-2.644-1.72A12 12 0 0 0 16 9C9 9 4 16 4 16a20.6 20.6 0 0 0 6.264 5.44M16 20.6a4.84 4.84 0 0 0 4.881-4.8m-1.423-3.4a4.95 4.95 0 0 0-6.915 0 4.754 4.754 0 0 0 0 6.8"/>
  <path stroke="currentColor" stroke-linecap="round" stroke-linejoin="round" stroke-width="2" d="M24 8.5 7.5 24"/>
</svg>
