<svg viewBox="0 0 34 34" xmlns="http://www.w3.org/2000/svg">
<g fill="none">
<g stroke="currentColor">
<path id="a" d="m18.038 2.6585c0.42627 0.2546 0.78269 0.61101 1.0373 1.0373l1.1481 1.9238 1.7542 0.77419c0.13511 0.059652 0.26034 0.13244 0.37485 0.2162l1.6473 1.0208e-4c1.6569 0 3 1.3431 3 3v18.39c0 1.6569-1.3431 3-3 3h-15c-1.6569 0-3-1.3431-3-3v-18.39c0-1.6569 1.3431-3 3-3l1.6847-8.7773e-4c0.093173-0.068146 0.19302-0.12877 0.29887-0.18078l1.8521-0.91083 1.0888-1.8218c0.84958-1.4225 2.6914-1.8869 4.1139-1.0373z" stroke-linejoin="round" stroke-width="2"/>
<path d="m18.031 2.5606c0.38358 0.24048 0.70776 0.56466 0.94824 0.94824l1.2612 2.0121 1.5104 0.63549c1.0182 0.42824 1.4964 1.6008 1.0682 2.619-0.31209 0.74201-1.0386 1.2246-1.8436 1.2246h-9.068c-1.1046 0-2-0.89543-2-2 0-0.77617 0.44907-1.4823 1.152-1.8113l1.636-0.76672 1.2003-1.9131c0.88009-1.4038 2.7315-1.8283 4.1353-0.94824z" stroke-width="2"/>
<circle cx="16.5" cy="6" r="1" fill="#D8D8D8"/>
<line id="Line" x1="11.5" x2="18" y1="14.5" y2="14.5" stroke-linecap="round" stroke-width="2"/>
<line id="b" x1="11.5" x2="20" y1="26" y2="26" stroke-linecap="round" stroke-width="2"/>
<line x1="11.5" x2="22" y1="20" y2="20" stroke-linecap="round" stroke-width="2"/>
</g>
</g>
</svg>
