<svg version="1.1" viewBox="0 0 45 45" xmlns="http://www.w3.org/2000/svg">
<g fill="none">
<g transform="translate(9 11)" fill="currentColor">
<path id="Shape" d="m12.362 5.3785c-0.40461 0.11275-0.7395 0.38917-0.92901 0.75518l-0.053581 0.11328-0.131 0.055-0.035602-0.017842c-0.46204-0.18759-0.99556-0.13512-1.4167 0.15584-0.30075 0.20778-0.58047 0.44064-0.83223 0.69337-0.24528 0.24337-0.4775 0.52256-0.68834 0.82648l-0.080487 0.12957c-0.21994 0.39777-0.24617 0.87218-0.077362 1.2887l0.01373 0.028896-0.043 0.102-0.039607 0.014119c-0.46886 0.1905-0.81704 0.60911-0.91053 1.1193-0.066374 0.36222-0.09981 0.72467-0.0989 1.0801-9.0378e-4 0.34612 0.032144 0.7072 0.097505 1.0691l0.031496 0.13732c0.12552 0.44947 0.45304 0.81275 0.88088 0.98617l0.010152 0.0029655 0.041 0.102-0.027024 0.058166c-0.18758 0.46286-0.13431 0.99723 0.15801 1.4184 0.20973 0.30221 0.44198 0.58125 0.69357 0.83093 0.24215 0.24408 0.52162 0.47654 0.82523 0.68688l0.12958 0.080386c0.39779 0.21965 0.87209 0.24563 1.2966 0.072201l0.129 0.056 0.006302 0.017106c0.19053 0.46943 0.60968 0.81798 1.1205 0.91122 0.35954 0.065631 0.71893 0.098671 1.0801 0.098671 0.34987 0 0.70737-0.032912 1.0657-0.097028l0.13742-0.031286c0.40483-0.11237 0.74006-0.38855 0.92993-0.7545l0.038144-0.084186 0.177-0.07c0.46737 0.19028 1.0011 0.13786 1.4223-0.15318 0.29965-0.20702 0.57875-0.43917 0.83091-0.69134 0.24959-0.24959 0.48027-0.52722 0.68895-0.8275l0.080641-0.12958c0.1959-0.35364 0.23858-0.76803 0.12708-1.1485l-0.033896-0.094918 0.089-0.208 0.089525-0.040505c0.40742-0.21074 0.70393-0.60157 0.78743-1.0682 0.064114-0.35829 0.097078-0.71799 0.097078-1.0699 8.984e-4 -0.35177-0.032195-0.71336-0.097756-1.0744l-0.031612-0.13726c-0.1133-0.40431-0.39007-0.73871-0.75619-0.92773l-0.059481-0.027932-0.084-0.207 0.043623-0.12391c0.12589-0.42745 0.057053-0.89805-0.20535-1.2773-0.20759-0.30007-0.43954-0.57889-0.69147-0.83083-0.24897-0.24897-0.52616-0.47945-0.82503-0.68753l-0.1295-0.080742c-0.35343-0.19618-0.76773-0.23923-1.1482-0.12811l-0.11903 0.04147-0.175-0.073-0.051724-0.11328c-0.21057-0.40668-0.60062-0.70275-1.0664-0.78659-0.71934-0.1295-1.4236-0.1295-2.143 0l-0.13735 0.03142zm0.40312 1.4448c0.45297-0.081549 0.89256-0.095141 1.3411-0.040775l0.27036 0.040775 0.12 0.59501 0.21429 0.057144c0.30628 0.081716 0.60206 0.19497 0.88146 0.33868l0.20639 0.11347 0.19214 0.11214 0.48428-0.32143c0.22571 0.15715 0.435 0.33072 0.62143 0.51715 0.12476 0.12476 0.24381 0.25937 0.35587 0.40255l0.1627 0.22104-0.32428 0.48644 0.11143 0.19215c0.15886 0.27429 0.288 0.56778 0.38523 0.87535l0.066908 0.23324 0.055714 0.21715 0.55571 0.11143c0.049286 0.27143 0.074286 0.54215 0.073614 0.80644 0 0.17524-0.011146 0.35429-0.032949 0.53461l-0.040665 0.27112-0.56928 0.11429-0.057857 0.21286c-0.084571 0.30972-0.20251 0.60893-0.35163 0.89213l-0.11765 0.20932-0.115 0.19357 0.31643 0.47572c-0.15786 0.22715-0.33143 0.43644-0.51786 0.62287-0.12476 0.12476-0.25936 0.24381-0.40233 0.35567l-0.22053 0.1622-0.49428-0.32929-0.19071 0.10857c-0.27028 0.15257-0.55977 0.2768-0.86406 0.3705l-0.23093 0.06451-0.21857 0.054287-0.11786 0.58215c-0.18095 0.032382-0.36095 0.054287-0.53809 0.065292l-0.26333 0.0082806c-0.18095 0-0.36095-0.011111-0.54084-0.033122l-0.26987-0.041165-0.12286-0.60787-0.21-0.059287c-0.27696-0.078216-0.54589-0.18375-0.80317-0.31511l-0.25326-0.1399-0.19286-0.115-0.515 0.34286c-0.22786-0.15786-0.43714-0.33143-0.62286-0.51858-0.12476-0.12381-0.24349-0.2581-0.35534-0.40096l-0.16251-0.22048 0.355-0.53358-0.10786-0.19072c-0.13661-0.24268-0.24991-0.50224-0.33931-0.77446l-0.081406-0.27628-0.055714-0.21643-0.62143-0.125c-0.049286-0.27286-0.074286-0.54358-0.073614-0.80644-4.3829e-4 -0.17476 0.010517-0.35334 0.032688-0.53382l0.041641-0.27191 0.63428-0.12857 0.057857-0.21215c0.075536-0.27375 0.17719-0.53947 0.30345-0.79294l0.13441-0.24922 0.11214-0.19215-0.34786-0.52287c0.15857-0.22858 0.33214-0.43786 0.51857-0.62287 0.12429-0.12476 0.25873-0.24381 0.40164-0.35567l0.2205-0.1622 0.52571 0.35001 0.19143-0.11072c0.24857-0.14304 0.51201-0.26157 0.78639-0.35408l0.27789-0.083785 0.215-0.057144 0.12-0.59501z"/>
<path id="a" d="m13.439 9.5c-1.2426 0-2.25 1.0074-2.25 2.25s1.0074 2.25 2.25 2.25 2.25-1.0074 2.25-2.25-1.0074-2.25-2.25-2.25zm0 1.5c0.41421 0 0.75 0.33579 0.75 0.75s-0.33579 0.75-0.75 0.75-0.75-0.33579-0.75-0.75 0.33579-0.75 0.75-0.75z"/>
<path d="m24.339 10.689 2.5607 2.5607-1.0607 1.0607-0.697-0.69682c-0.89309 5.6036-5.7479 9.8862-11.603 9.8862-2.6725 0-5.2088-0.89604-7.261-2.5114l-0.27681-0.22472 0.96282-1.1502c1.8312 1.5329 4.1364 2.3863 6.575 2.3863 5.0598 0 9.2632-3.6662 10.099-8.487l-0.79895 0.79764-1.0607-1.0607 2.5607-2.5607zm-10.8-10.689c2.1372 0 4.1914 0.57227 5.9871 1.6377l0.33361 0.20553-0.80792 1.2638c-1.6333-1.0441-3.5305-1.6071-5.5128-1.6071-5.2398 0-9.5613 3.9317-10.175 9.0059l0.69658-0.69521 1.0607 1.0607-2.5607 2.5607-2.5607-2.5607 1.0607-1.0607 0.78465 0.7851c0.5799-5.9476 5.5941-10.596 11.694-10.596z" fill-opacity=".5"/>
</g>
</g>
</svg>
