<svg width="32" height="32" viewBox="0 0 32 32" fill="none" xmlns="http://www.w3.org/2000/svg">
<path d="M16 27C21.5228 27 26 22.5228 26 17C26 11.4772 21.5228 7 16 7C10.4772 7 6 11.4772 6 17C6 22.5228 10.4772 27 16 27Z" stroke="currentColor" stroke-opacity="0.5" stroke-width="1.5" stroke-linecap="round" stroke-linejoin="round"/>
<path d="M21.6391 19.5905C20.4379 21.4559 18.2491 22.5915 15.894 22.5712C13.5388 22.5508 11.3736 21.3777 10.2105 19.4919M10.9248 15.3154C10.9248 14.5889 11.5644 14 12.3534 14C13.1424 14 13.782 14.5889 13.782 15.3154M18.0677 15.3154C18.0677 14.5889 18.7073 14 19.4962 14C20.2852 14 20.9248 14.5889 20.9248 15.3154" stroke="currentColor" stroke-width="2" stroke-linecap="round" stroke-linejoin="round"/>
</svg>
