<svg viewBox="0 0 32 32" xmlns="http://www.w3.org/2000/svg" fill-rule="evenodd" clip-rule="evenodd" stroke-linejoin="round" stroke-miterlimit="1.414"><path d="M23.5 1C27.639 1 31 4.361 31 8.5v15c0 4.139-3.361 7.5-7.5 7.5h-15A7.504 7.504 0 0 1 1 23.5v-15C1 4.361 4.361 1 8.5 1h15zm-1 2h-13A6.503 6.503 0 0 0 3 9.5v13C3 26.087 5.913 29 9.5 29h13c3.587 0 6.5-2.913 6.5-6.5v-13C29 5.913 26.088 3 22.5 3z" fill="#fff"/><path d="M8 16l1.41 1.41L15 11.83V24h2V11.83l5.59 5.58L24 16l-8-8-8 8z" fill="#fff" fill-rule="nonzero"/></svg>