<svg width="24" height="24" fill="currentColor" viewBox="0 0 20 20" xmlns="http://www.w3.org/2000/svg">
    <g fill="none">
        <path d="M18.124 10.54c.005-.01.012-.018.018-.027a1.05 1.05 0 0 0 .127-.42c.001-.023.013-.04.013-.064 0-.005-.003-.009-.003-.012l.002-.012a.994.994 0 0 0-.077-.358l-.01-.024a.991.991 0 0 0-.449-.501L17.7 9.12a.999.999 0 0 0-.433-.105c-.137 0-.267.028-.386.077h-.009l-1.738.918-4.803 2.54-4.804-2.54-1.665-.903h-.016A1.012 1.012 0 0 0 3.408 9a.987.987 0 0 0-.458.122h-.034a1.001 1.001 0 0 0-.536.883c0 .14.037.272.091.396l.006.014c.053.115.119.224.211.312l.003.004a.99.99 0 0 0 .222.16l.069.036c.015.008.028.017.044.024l6.837 3.612a.993.993 0 0 0 .935 0l6.781-3.583a.997.997 0 0 0 .545-.44" fill="currentColor" />
        <path d="M18.077 14.54c.005-.01.012-.018.018-.027a1.05 1.05 0 0 0 .127-.42c.001-.023.013-.04.013-.064 0-.005-.003-.009-.003-.012l.002-.012a.994.994 0 0 0-.077-.358l-.01-.024a.991.991 0 0 0-.449-.501l-.045-.001a.999.999 0 0 0-.433-.105c-.137 0-.267.028-.386.077h-.009l-1.738.918-4.803 2.54-4.804-2.54-1.665-.903H3.8A1.012 1.012 0 0 0 3.361 13a.987.987 0 0 0-.458.122H2.87a1.001 1.001 0 0 0-.536.883c0 .14.037.272.091.396l.006.014c.053.115.12.224.211.312l.003.004a.99.99 0 0 0 .222.16l.07.036c.014.008.027.017.043.024l6.837 3.612a.993.993 0 0 0 .935 0l6.781-3.583a.997.997 0 0 0 .545-.44" fill="currentColor" />
        <path d="M9.866 1.116a1 1 0 0 1 .935 0l6.95 3.675a1 1 0 0 1 0 1.768l-6.95 3.675a1 1 0 0 1-.935 0l-6.95-3.675a1 1 0 0 1 0-1.768l6.95-3.675zM5.523 5.675l4.81 2.544 4.811-2.544-4.81-2.544-4.811 2.544z" fill="currentColor" fill-rule="nonzero" />
    </g>
</svg>