<svg width="20" height="20" xmlns="http://www.w3.org/2000/svg"><path d="M10.5 9.125a.875.875 0 1 0 0 1.75.875.875 0 0 0 0-1.75zm7.985 1.867a1 1 0 0 1 .37 1.393l-1.98 3.267a1 1 0 0 1-1.351.35l-1.066-.61c-.317.213-.653.4-1.002.56V17a1 1 0 0 1-1 1h-3.96a1 1 0 0 1-1-1v-1.046a7.028 7.028 0 0 1-.973-.536l-1.086.558a1 1 0 0 1-1.308-.366l-1.98-3.22a1 1 0 0 1 .374-1.402l1.026-.557a6.118 6.118 0 0 1 0-.95l-.871-.466a1 1 0 0 1-.384-1.4l1.98-3.267a1 1 0 0 1 1.323-.365l1.041.552c.289-.185.592-.349.907-.49V3a1 1 0 0 1 1-1h3.96a1 1 0 0 1 1 1v1.09c.312.14.613.303.9.486l.987-.54a1 1 0 0 1 1.331.353l1.98 3.22a1 1 0 0 1-.392 1.413l-.911.47c.021.299.02.599-.002.897l1.087.603zM10.5 7.125a2.875 2.875 0 1 1 0 5.75 2.875 2.875 0 0 1 0-5.75zm5.332 4.683a1 1 0 0 1-.496-1.069 4.167 4.167 0 0 0 0-1.619 1 1 0 0 1 .522-1.082l.577-.299-.917-1.492-.701.383a1 1 0 0 1-1.098-.09 5.025 5.025 0 0 0-1.528-.817 1 1 0 0 1-.686-.95V4h-1.96v.726a1 1 0 0 1-.685.95 5.06 5.06 0 0 0-1.53.817 1 1 0 0 1-1.085.097l-.75-.398L4.55 7.75l.554.295a1 1 0 0 1 .509 1.082 4.124 4.124 0 0 0 0 1.654 1 1 0 0 1-.503 1.079l-.706.383.942 1.531.81-.416a1 1 0 0 1 1.086.112c.46.373.993.663 1.57.856a1 1 0 0 1 .682.948V16h1.96v-.727a1 1 0 0 1 .68-.947 5.083 5.083 0 0 0 1.613-.896 1 1 0 0 1 1.134-.098l.788.45.936-1.545-.774-.43z" fill-rule="nonzero" fill="#202020"/></svg>