<svg id="icon_settings" data-name="icon/settings" xmlns="http://www.w3.org/2000/svg" xmlns:xlink="http://www.w3.org/1999/xlink" width="32" height="32" viewBox="0 0 32 32">
  <defs>
    <clipPath id="clip-path">
      <path id="Pfad_3580" data-name="Pfad 3580" d="M0-18V-2A2,2,0,0,0,2,0H14a2,2,0,0,0,2-2V-12.887a2,2,0,0,0-.527-1.353l-4.708-5.125A1.962,1.962,0,0,0,9.32-20H2A2,2,0,0,0,0-18Z" fill="none" clip-rule="evenodd"/>
    </clipPath>
    <clipPath id="clip-path-2">
      <path id="Pfad_3582" data-name="Pfad 3582" d="M9.3-18.5l.137.007.043.013a.547.547,0,0,1,.184.13h0l.947,1.031v3.57h3.28l.481.524.056.074a.5.5,0,0,1,.075.264h0v.637H9.857a.75.75,0,0,1-.743-.648L9.107-13v-5.5Z" fill="none"/>
    </clipPath>
  </defs>
  <path id="BG" d="M0,0H32V32H0Z" fill="rgba(255,255,255,0)"/>
  <g id="Gruppe_3218" data-name="Gruppe 3218" transform="translate(7.981 26)" clip-path="url(#clip-path)">
    <g id="Gruppe_3217" data-name="Gruppe 3217" transform="translate(0 -20)">
      <path id="Pfad_3579" data-name="Pfad 3579" d="M0,2V18a2,2,0,0,0,2,2H14a2,2,0,0,0,2-2V7.113a2,2,0,0,0-.527-1.353L10.765.635A1.962,1.962,0,0,0,9.32,0H2A2,2,0,0,0,0,2Z" fill="none" stroke="rgba(255,255,255,0.7)" stroke-linecap="round" stroke-linejoin="round" stroke-width="3"/>
    </g>
  </g>
  <g id="Gruppe_3219" data-name="Gruppe 3219" transform="translate(7.981 26)" clip-path="url(#clip-path-2)">
    <path id="Pfad_3581" data-name="Pfad 3581" d="M8.107-19.5H15.5v8.25H8.107Z" fill="rgba(255,255,255,0.7)"/>
  </g>
  <path id="Pfad_3589" data-name="Pfad 3589" d="M0,1H3" transform="translate(25.841 17.372) rotate(45)" fill="none" stroke="#fff" stroke-linecap="square" stroke-width="2"/>
  <path id="Pfad_3590" data-name="Pfad 3590" d="M1,0V3" transform="translate(26.548 19.494) rotate(45)" fill="none" stroke="#fff" stroke-linecap="square" stroke-width="2"/>
  <path id="Pfad_3591" data-name="Pfad 3591" d="M0,1H7.989" transform="translate(17.981 19.244)" fill="none" stroke="#fff" stroke-linecap="round" stroke-width="2"/>
</svg>
