<svg viewBox="0 0 36 36" xmlns="http://www.w3.org/2000/svg">
<g fill="none" fill-rule="evenodd">
<path d="m16.045 9h7.7256c1.6569 0 3 1.3431 3 3v2.3426m-7.6986 11.657h-6.3014c-1.6569 0-3-1.3431-3-3v-7.9896" opacity=".7" stroke="currentColor" stroke-width="1.5"/>
<polygon points="14 8 14 10 6 10 6 8" fill="currentColor"/>
<polygon points="11 5 11 13 9 13 9 5" fill="currentColor"/>
<g transform="translate(16 13)" fill="currentColor">
<path d="m7-1c-4.4183 0-8 3.5817-8 8s3.5817 8 8 8 8-3.5817 8-8-3.5817-8-8-8zm0 2c3.3137 0 6 2.6863 6 6s-2.6863 6-6 6-6-2.6863-6-6 2.6863-6 6-6z"/>
<path d="m3.6384 8.4506c0.67617 1.0964 1.9512 1.7872 3.3465 1.7992 1.3958 0.012049 2.6856-0.65711 3.3846-1.7425 0.22426-0.34825 0.68837-0.44877 1.0366-0.22452 0.34825 0.22426 0.44877 0.68837 0.22452 1.0366-0.98275 1.5261-2.7573 2.4468-4.6586 2.4304-1.9018-0.016417-3.6582-0.96803-4.6103-2.5118-0.21743-0.35256-0.10789-0.81462 0.24467-1.0321 0.35256-0.21743 0.81462-0.10789 1.0321 0.24467zm0.86164-4.2006c0.95331 0 1.75 0.73359 1.75 1.6708 0 0.41421-0.33579 0.75-0.75 0.75s-0.75-0.33579-0.75-0.75c0-0.079873-0.09874-0.17079-0.25-0.17079s-0.25 0.090919-0.25 0.17079c0 0.41421-0.33579 0.75-0.75 0.75s-0.75-0.33579-0.75-0.75c0-0.93721 0.79669-1.6708 1.75-1.6708zm5 0c0.95331 0 1.75 0.73359 1.75 1.6708 0 0.41421-0.33579 0.75-0.75 0.75s-0.75-0.33579-0.75-0.75c0-0.079873-0.09874-0.17079-0.25-0.17079s-0.25 0.090919-0.25 0.17079c0 0.41421-0.33579 0.75-0.75 0.75s-0.75-0.33579-0.75-0.75c0-0.93721 0.79669-1.6708 1.75-1.6708z"/>
</g>
</g>
</svg>
