<svg xmlns="http://www.w3.org/2000/svg" width="32" height="32" viewBox="0 0 32 32">
    <g transform="translate(4 28.125)">
        <path fill="currentColor" d="M11.077,3.4a1,1,0,0,1-1-1V1.17a.187.187,0,0,0-.2-.17H6.123a.187.187,0,0,0-.2.17V2.4a1,1,0,1,1-2,0V1.17A2.188,2.188,0,0,1,6.123-1H9.877a2.188,2.188,0,0,1,2.2,2.17V2.4A1,1,0,0,1,11.077,3.4Z" transform="translate(4 -21.25)"/>
        <path fill="currentColor" d="M12.4,1a1,1,0,0,1-1-.93l-.892-12.681q0-.024,0-.048c0-.156-.217-.334-.518-.342H2.2c-.3.008-.515.186-.518.342q0,.024,0,.048L1-2.919A1,1,0,0,1-.07-1.992,1,1,0,0,1-1-3.06l.681-9.671A2.444,2.444,0,0,1,2.172-15h7.85a2.444,2.444,0,0,1,2.489,2.269L13.4-.07A1,1,0,0,1,12.475,1Z" transform="translate(18.205 -17) rotate(180)"/>
        <path fill="currentColor" d="M1,6.75A.75.75,0,0,1,.25,6V0a.75.75,0,0,1,1.5,0V6A.75.75,0,0,1,1,6.75Z" transform="translate(9 -13.5)" opacity="0.5"/>
        <path fill="currentColor" d="M1,6.75A.75.75,0,0,1,.25,6V0a.75.75,0,0,1,1.5,0V6A.75.75,0,0,1,1,6.75Z" transform="translate(13 -13.5)" opacity="0.5"/>
        <path fill="currentColor" d="M20-17l-.055,0c-.159,0-1.693-.023-15.944,0a1,1,0,0,1-1-1,1,1,0,0,1,1-1c8.207-.014,12.121-.013,13.96-.01a16.048,16.048,0,0,1,2.269.036,1,1,0,0,1,.747,1.2A1,1,0,0,1,20-17Z"/>
    </g>
</svg>