<svg xmlns="http://www.w3.org/2000/svg" width="36" height="36" viewBox="0 0 36 36">
  <g fill="none" fill-rule="evenodd">
    <g stroke="currentColor" stroke-linejoin="round" transform="translate(9.5 7.9)">
      <path stroke-linecap="round" stroke-width="1.5" d="M17.5,5.72329102 L17.5,5.7 L17.5,15.1 C17.5,16.7568542 16.1568542,18.1 14.5,18.1 L3.5,18.1" opacity=".7"/>
      <path stroke-width="1.5" d="M0.604313625,15.8870864 C0.536295519,15.6362501 0.5,15.3723637 0.5,15.1 C0.5,11.5844564 0.5,8.94779867 0.5,7.19002686 M6.5077858,1.1 C8.08906343,1.1 10.4609799,1.1 13.6235352,1.1" opacity=".7"/>
      <path stroke-linecap="round" stroke-width="1.5" d="M15.0381836,3.8 L5.99002949,12.8333484 M5.99002949,16.8 C4.89914946,15.704442 4.89914946,13.9289064 5.99002949,12.8333484 C5.46599871,13.3593505 4.75523177,13.6548594 4.01410654,13.6548594 C3.27298131,13.6548594 2.92403078,13.3593505 2.4,12.8333484" opacity=".7"/>
      <path stroke-linecap="round" stroke-width="2" d="M17.3718203,5.68627298 C16.269333,6.76141421 13.8563934,9.14202649 11.6514187,11.2923089 L5.47640754,17.2487706 L0,18.5 L1.28965075,13.1864377 L2.83928051,11.6829264 L13.0277608,1.79833871 L14.1489752,0.708985984 C15.3054658,-0.411817065 16.8824119,-0.120439106 18.0389025,1.00005561 C18.5270172,1.47297764 18.8623888,2.01878754 19,2.57607434"/>
    </g>
    <line x1="7" x2="13" y1="9" y2="9" stroke="currentColor" stroke-linecap="square" stroke-width="2"/>
    <line x1="10" x2="10" y1="6" y2="12" stroke="currentColor" stroke-linecap="square" stroke-width="2"/>
  </g>
</svg>