<svg width="28" height="28" viewBox="0 0 28 28" fill="none" xmlns="http://www.w3.org/2000/svg">
<!--<circle cx="14" cy="14" r="14" fill="#E4E8F6"/>  circle background-->
<path d="M22 14.5C22 19.1945 18.1945 23 13.5 23C8.80559 23 5 19.1945 5 14.5C5 9.80559 8.80559 6 13.5 6C14.438 6 15.3405 6.15193 16.1842 6.43252" stroke="#333948" stroke-opacity="0.5" stroke-width="1.5" stroke-linecap="round" stroke-linejoin="round"/>
<path d="M18.2934 16.752C17.2724 18.3375 15.4119 19.3028 13.41 19.2855C11.4082 19.2682 9.56768 18.271 8.5791 16.6681M9.18625 13.1181C9.18625 12.5006 9.7299 12 10.4005 12C11.0712 12 11.6148 12.5006 11.6148 13.1181M15.2577 13.1181C15.2577 12.5006 15.8013 12 16.472 12C17.1426 12 17.6863 12.5006 17.6863 13.1181" stroke="#313949" stroke-width="1.7" stroke-linecap="round" stroke-linejoin="round"/>
<mask id="path-4-inside-1_2069_31655" fill="white">
<path fill-rule="evenodd" clip-rule="evenodd" d="M21.7762 11.3684H20.4341V9.35529H18.4209V8.01318H20.4341V6H21.7762V8.01318H23.7893V9.35529H21.7762V11.3684Z"/>
</mask>
<path fill-rule="evenodd" clip-rule="evenodd" d="M21.7762 11.3684H20.4341V9.35529H18.4209V8.01318H20.4341V6H21.7762V8.01318H23.7893V9.35529H21.7762V11.3684Z" fill="white"/>
<path d="M20.4341 11.3684H19.5393V12.2632H20.4341V11.3684ZM21.7762 11.3684V12.2632H22.6709V11.3684H21.7762ZM20.4341 9.35529H21.3288V8.46055H20.4341V9.35529ZM18.4209 9.35529H17.5262V10.25H18.4209V9.35529ZM18.4209 8.01318V7.11844H17.5262V8.01318H18.4209ZM20.4341 8.01318V8.90792H21.3288V8.01318H20.4341ZM20.4341 6V5.10526H19.5393V6H20.4341ZM21.7762 6H22.6709V5.10526H21.7762V6ZM21.7762 8.01318H20.8814V8.90792H21.7762V8.01318ZM23.7893 8.01318H24.6841V7.11844H23.7893V8.01318ZM23.7893 9.35529V10.25H24.6841V9.35529H23.7893ZM21.7762 9.35529V8.46055H20.8814V9.35529H21.7762ZM20.4341 12.2632H21.7762V10.4737H20.4341V12.2632ZM19.5393 9.35529V11.3684H21.3288V9.35529H19.5393ZM18.4209 10.25H20.4341V8.46055H18.4209V10.25ZM17.5262 8.01318V9.35529H19.3156V8.01318H17.5262ZM20.4341 7.11844H18.4209V8.90792H20.4341V7.11844ZM19.5393 6V8.01318H21.3288V6H19.5393ZM21.7762 5.10526H20.4341V6.89474H21.7762V5.10526ZM22.6709 8.01318V6H20.8814V8.01318H22.6709ZM23.7893 7.11844H21.7762V8.90792H23.7893V7.11844ZM24.6841 9.35529V8.01318H22.8946V9.35529H24.6841ZM21.7762 10.25H23.7893V8.46055H21.7762V10.25ZM22.6709 11.3684V9.35529H20.8814V11.3684H22.6709Z" fill="#313949" mask="url(#path-4-inside-1_2069_31655)"/>
</svg>
