<svg xmlns="http://www.w3.org/2000/svg" width="24" height="24" viewBox="0 0 24 24">
  <g fill="none" transform="translate(0.00 2.0)">
    <g opacity=".5">
      <path stroke="currentColor" stroke-width="1.5" d="M9.28821017,0.75 C9.70291962,0.787569196 9.9999812,0.910674236 10.2124941,1.14200339 L10.2124941,1.14200339 L14.920528,6.26689446 C15.1324191,6.49754669 15.25,6.79934055 15.25,7.11254698 L15.25,7.11254698 L15.25,18 C15.25,18.345178 15.110089,18.657678 14.8838835,18.8838835 C14.657678,19.110089 14.345178,19.25 14,19.25 L14,19.25 L2,19.25 C1.65482203,19.25 1.34232203,19.110089 1.11611652,18.8838835 C0.889911016,18.657678 0.75,18.345178 0.75,18 L0.75,18 L0.75,2 C0.75,1.65482203 0.889911016,1.34232203 1.11611652,1.11611652 C1.34232203,0.889911016 1.65482203,0.75 2,0.75 L2,0.75 Z"/>
      <path fill="currentColor" fill-rule="nonzero" d="M9.295,1.5 L9.43244683,1.50683423 L9.47578546,1.51966901 C9.52789052,1.54080158 9.60205976,1.58613153 9.6601773,1.6493949 L9.6601773,1.6493949 L10.607,2.68 L10.607,6.25 L13.887,6.25 L14.3682112,6.77428597 L14.4245598,6.84844396 C14.4735443,6.92719095 14.5,7.01858505 14.5,7.11254698 L14.5,7.11254698 L14.5,7.75 L9.85714286,7.75 C9.47744709,7.75 9.1636519,7.46784612 9.11398947,7.10177056 L9.10714286,7 L9.107,1.5 L9.295,1.5 Z"/>
    </g>
    <g fill="currentColor" fill-rule="nonzero" transform="translate(5.00 12.00)">
      <path d="M0,2.485 C0,2.18166667 0.0571666667,1.88416667 0.1715,1.5925 C0.285833333,1.30083333 0.452666667,1.036 0.672,0.798 C0.891333333,0.56 1.1585,0.369833333 1.4735,0.2275 C1.7885,0.0851666667 2.14433333,0.014 2.541,0.014 C3.017,0.014 3.43233333,0.113166667 3.787,0.3115 C4.14166667,0.509833333 4.40533333,0.772333333 4.578,1.099 L3.535,1.841 C3.47433333,1.67766667 3.38683333,1.55166667 3.2725,1.463 C3.15816667,1.37433333 3.0345,1.3125 2.9015,1.2775 C2.7685,1.2425 2.639,1.225 2.513,1.225 C2.317,1.225 2.14783333,1.2635 2.0055,1.3405 C1.86316667,1.4175 1.7465,1.519 1.6555,1.645 C1.5645,1.771 1.49683333,1.911 1.4525,2.065 C1.40816667,2.219 1.386,2.373 1.386,2.527 C1.386,2.69966667 1.41166667,2.86533333 1.463,3.024 C1.51433333,3.18266667 1.589,3.32383333 1.687,3.4475 C1.785,3.57116667 1.90516667,3.668 2.0475,3.738 C2.18983333,3.808 2.34966667,3.843 2.527,3.843 C2.653,3.843 2.78133333,3.82316667 2.912,3.7835 C3.04266667,3.74383333 3.16166667,3.67966667 3.269,3.591 C3.37633333,3.50233333 3.458,3.38333333 3.514,3.234 L4.627,3.899 C4.529,4.14166667 4.36566667,4.34933333 4.137,4.522 C3.90833333,4.69466667 3.64933333,4.8265 3.36,4.9175 C3.07066667,5.0085 2.78366667,5.054 2.499,5.054 C2.13033333,5.054 1.79316667,4.9805 1.4875,4.8335 C1.18183333,4.6865 0.918166667,4.4905 0.6965,4.2455 C0.474833333,4.0005 0.303333333,3.72516667 0.182,3.4195 C0.0606666667,3.11383333 0,2.80233333 0,2.485 Z"/>
      <path d="M7.6825,1.666 C7.6825,1.666 7.64283333,1.64266667 7.5635,1.596 C7.48416667,1.54933333 7.37916667,1.49683333 7.2485,1.4385 C7.11783333,1.38016667 6.9755,1.32766667 6.8215,1.281 C6.6675,1.23433333 6.51583333,1.211 6.3665,1.211 C6.24983333,1.211 6.15416667,1.22966667 6.0795,1.267 C6.00483333,1.30433333 5.9675,1.36733333 5.9675,1.456 C5.9675,1.54 6.00483333,1.60766667 6.0795,1.659 C6.15416667,1.71033333 6.26033333,1.757 6.398,1.799 C6.53566667,1.841 6.70016667,1.89233333 6.8915,1.953 C7.1995,2.04633333 7.4655,2.15366667 7.6895,2.275 C7.9135,2.39633333 8.08616667,2.5515 8.2075,2.7405 C8.32883333,2.9295 8.3895,3.18033333 8.3895,3.493 C8.3895,3.79166667 8.33583333,4.0425 8.2285,4.2455 C8.12116667,4.4485 7.9765,4.61066667 7.7945,4.732 C7.6125,4.85333333 7.4095,4.94083333 7.1855,4.9945 C6.9615,5.04816667 6.73283333,5.075 6.4995,5.075 C6.2615,5.075 6.013,5.0505 5.754,5.0015 C5.495,4.9525 5.24416667,4.88483333 5.0015,4.7985 C4.75883333,4.71216667 4.53716667,4.61066667 4.3365,4.494 L4.9245,3.297 C4.9245,3.297 4.97116667,3.325 5.0645,3.381 C5.15783333,3.437 5.2815,3.5 5.4355,3.57 C5.5895,3.64 5.761,3.703 5.95,3.759 C6.139,3.815 6.32916667,3.843 6.5205,3.843 C6.66983333,3.843 6.77366667,3.82316667 6.832,3.7835 C6.89033333,3.74383333 6.9195,3.69133333 6.9195,3.626 C6.9195,3.528 6.86816667,3.45216667 6.7655,3.3985 C6.66283333,3.34483333 6.52866667,3.2935 6.363,3.2445 C6.19733333,3.1955 6.01416667,3.13833333 5.8135,3.073 C5.52416667,2.975 5.28616667,2.86416667 5.0995,2.7405 C4.91283333,2.61683333 4.77516667,2.46983333 4.6865,2.2995 C4.59783333,2.12916667 4.5535,1.92266667 4.5535,1.68 C4.5535,1.31133333 4.63983333,1.00333333 4.8125,0.756 C4.98516667,0.508666667 5.21266667,0.320833333 5.495,0.1925 C5.77733333,0.0641666667 6.08183333,0 6.4085,0 C6.65116667,0 6.88566667,0.0291666667 7.112,0.0875 C7.33833333,0.145833333 7.55066667,0.217 7.749,0.301 C7.94733333,0.385 8.12116667,0.464333333 8.2705,0.539 L7.6825,1.666 Z"/>
      <polygon points="9.401 .042 10.374 3.437 11.333 .042 12.768 .042 11.053 5.012 9.695 5.012 7.959 .042"/>
    </g>
  </g>
</svg>
