<svg viewBox="0 0 36 36" xmlns="http://www.w3.org/2000/svg">
<g transform="translate(6 6)" fill="none" stroke="currentColor" stroke-linecap="round" stroke-linejoin="round">
<path d="m9.6461 3.6264c2.0528-1.7006 3.1848-1.3859 4.4962-1.137l0.22466 1.1156 0.13188 0.039445c0.72753 0.22216 1.2686 0.45081 1.7626 0.72334l0.12354 0.070213 0.89715-0.59363c0.48743 0.30263 0.94305 0.64403 1.3527 1.0154l0.29836 0.28396c0.48374 0.48375 0.92409 1.0425 1.3011 1.6578l-0.60331 0.90454 0.092034 0.17096c0.33801 0.64393 0.55179 1.1792 0.70719 1.7184l0.044774 0.16565 1.0247 0.20565c0.13367 0.56146 0.21481 1.126 0.241 1.6782l0.0092967 0.41157c0 0.67962-0.084561 1.3885-0.24869 2.088l-1.0643 0.21254-0.041386 0.13859c-0.22926 0.73263-0.46676 1.2797-0.74888 1.78l-0.074732 0.12742 0.58339 0.87705c-0.30485 0.49158-0.64629 0.94736-1.0171 1.3565l-0.28352 0.29791c-0.48436 0.48437-1.0439 0.92521-1.6568 1.2995l-0.92292-0.61489-0.16533 0.08725c-0.63681 0.32657-1.1656 0.53258-1.6999 0.68257l-0.16374 0.042178-0.21548 1.0708c-0.56246 0.13113-1.1247 0.21128-1.672 0.23809l-0.4074 0.010072c-0.69583 0-1.3982-0.084641-2.0968-0.252l-0.23037-1.136-0.12204-0.037891c-0.7054-0.22653-1.2307-0.45681-1.715-0.72931l-0.12098-0.070798-0.94513 0.63098c-0.51457-0.31769-0.99001-0.67615-1.4089-1.0636l-0.2444-0.23589c-0.48452-0.48083-0.92343-1.0414-1.3024-1.6543l0.66184-0.99612-0.077691-0.1492c-0.31565-0.61649-0.51493-1.1252-0.66354-1.6387l-0.043767-0.15512-1.1426-0.22945c-0.13329-0.56503-0.21411-1.1307-0.24018-1.6793l-0.0092528-0.40797c-0.0018062-0.67698 0.082748-1.3831 0.25223-2.0896l1.1788-0.23971 0.035545-0.11493c0.21939-0.70218 0.44123-1.2214 0.70323-1.6983l0.066222-0.11881-0.64122-0.96403c0.31993-0.51644 0.67855-0.99171 1.0654-1.4098l0.23539-0.24388c0.48283-0.48469 1.0433-0.92591 1.6564-1.3004l0.97507 0.64914 0.12726-0.068293c0.59019-0.31242 1.0652-0.50988 1.5387-0.65909z" stroke-width="1.5"/>
<ellipse cx="12" cy="12" rx="3" ry="3" opacity=".7" stroke-width="2"/>
</g>
</svg>

