<?xml version="1.0" encoding="UTF-8"?>
<svg width="32px" height="32px" viewBox="0 0 32 32" version="1.1" xmlns="http://www.w3.org/2000/svg" xmlns:xlink="http://www.w3.org/1999/xlink">
    <g id="Page-1" stroke="none" stroke-width="1" fill="none" fill-rule="evenodd">
        <g id="icon-32-add" fill="#27322F">
            <path d="M16,30 C23.7319865,30 30,23.7319865 30,16 C30,8.2680135 23.7319865,2 16,2 C8.2680135,2 2,8.2680135 2,16 C2,23.7319865 8.2680135,30 16,30 Z M16,32 C7.163444,32 0,24.836556 0,16 C0,7.163444 7.163444,0 16,0 C24.836556,0 32,7.163444 32,16 C32,24.836556 24.836556,32 16,32 Z" id="Oval-2" fill-rule="nonzero"></path>
            <polygon id="add" points="23 16.9862543 16.9862543 16.9862543 16.9862543 23 15.0137457 23 15.0137457 16.9862543 9 16.9862543 9 15.0137457 15.0137457 15.0137457 15.0137457 9 16.9862543 9 16.9862543 15.0137457 23 15.0137457"></polygon>
        </g>
    </g>
</svg>