<?xml version="1.0" encoding="UTF-8"?>
<svg viewBox="0 0 40 40" xmlns="http://www.w3.org/2000/svg">
<g transform="translate(1 3)" fill="none" fill-rule="evenodd" stroke="#FFF" stroke-width="2">
<path d="m30.51 19.361c1.303-1.9717 2.0616-4.3347 2.0616-6.8749 0-6.8957-5.59-12.486-12.486-12.486s-12.486 5.59-12.486 12.486c0 2.5287 0.75172 4.8818 2.0439 6.8481 0.67299 1.0241 1.4926 1.9432 2.4289 2.7276 0.057804 0.048422 0.11605 0.09633 0.17474 0.14372" stroke-linejoin="round"/>
<path d="m9.7714 4.9218c10.133-0.12759 15.2-1.2374 15.2-3.3295m-16.904 10.93c15.2-0.24963 22.8-2.4211 22.8-6.5143"/>
<path d="m27.016 23.84 6.599-3.3728c1.2757-0.68509 2.7718-0.4104 3.3885 0.73774 0.61506 1.1487 0.075457 2.6491-1.1997 3.3337l-13.692 7.3394-0.72417 0.18131-12.77 0.34471s-1.6443 0.46089-3.6198 2.6985" stroke-linejoin="round"/>
<path d="m0.45953 28.389 5.7923-5.3314c2.831-1.9092 6.1875-0.85554 6.1875-0.85554 1.6253 0.42831 4.6441 0.5244 4.6441 0.5244l5.0117-5.429e-4c1.4929 0 2.7143 1.0662 2.7143 2.3696s-1.2214 2.3696-2.7143 2.3696h-6.9334m-5.3903-8.4292c15.2-0.24963 22.8-2.4211 22.8-6.5143"/>
</g>
</svg>
