<svg id="ic_five" xmlns="http://www.w3.org/2000/svg" width="32" height="32" viewBox="0 0 32 32">
  <g id="Ellipse_32" data-name="Ellipse 32" transform="translate(4 4)" fill="none" stroke="#E20360" stroke-width="2">
    <circle cx="12" cy="12" r="12" stroke="none"/>
    <circle cx="12" cy="12" r="11" fill="none"/>
  </g>
  <path id="Pfad_3998" data-name="Pfad 3998" d="M3.31.971A3.429,3.429,0,0,1,1.592.541,2.92,2.92,0,0,1,.434-.623l.822-.784a2.63,2.63,0,0,0,.9.853,2.3,2.3,0,0,0,1.17.318,1.863,1.863,0,0,0,.909-.218,1.615,1.615,0,0,0,.629-.61,1.749,1.749,0,0,0,.23-.9,1.7,1.7,0,0,0-.224-.878,1.556,1.556,0,0,0-.6-.585,1.754,1.754,0,0,0-.859-.205,1.9,1.9,0,0,0-.884.212,1.791,1.791,0,0,0-.672.6H.646L1.654-7.994H5.975v1.258H2.65L2.2-4.321a1.569,1.569,0,0,1,.573-.367A2.215,2.215,0,0,1,3.6-4.831a2.985,2.985,0,0,1,1.488.367,2.755,2.755,0,0,1,1.033,1A2.807,2.807,0,0,1,6.5-1.992a2.828,2.828,0,0,1-.423,1.55A2.918,2.918,0,0,1,4.929.6,3.471,3.471,0,0,1,3.31.971Z" transform="translate(12.543 19.551)" fill="#E20360"/>
  <rect id="BG" width="32" height="32" fill="rgba(255,255,255,0)"/>
</svg>
