<svg xmlns="http://www.w3.org/2000/svg" width="32" height="32" fill="none" viewBox="0 0 32 32">
  <path stroke="currentColor" stroke-linecap="round" stroke-linejoin="round" stroke-width="1.75" d="M13.854 6.218c1.37-.3 2.665-.29 4.04.03l.223 1.107c.75.221 1.296.444 1.785.704l1.252-.388c.562.36 1.08.773 1.53 1.223a8.994 8.994 0 0 1 1.3 1.658l-.602.904c.377.694.607 1.25.771 1.798l1.13.607c.145.654.219 1.311.217 1.946a9.2 9.2 0 0 1-.249 2.088l-1.063.213c-.23.76-.462 1.314-.733 1.813l.372 1.234a9.128 9.128 0 0 1-1.222 1.53 8.933 8.933 0 0 1-1.657 1.3l-.922-.615a9.21 9.21 0 0 1-1.766.74l-.62 1.174a9.145 9.145 0 0 1-1.939.216 8.98 8.98 0 0 1-2.097-.252l-.229-1.135a9.292 9.292 0 0 1-1.718-.701l-1.304.42a8.913 8.913 0 0 1-1.535-1.226 9.004 9.004 0 0 1-1.303-1.655l.662-.995a9.256 9.256 0 0 1-.708-1.675l-1.25-.63A8.984 8.984 0 0 1 6 15.695a8.895 8.895 0 0 1 .252-2.089l1.179-.239a9.29 9.29 0 0 1 .672-1.69l-.436-1.322a8.968 8.968 0 0 1 1.229-1.538 8.873 8.873 0 0 1 1.656-1.3l.975.648a9.266 9.266 0 0 1 1.707-.74l.62-1.207Z" clip-rule="evenodd"/>
  <path stroke="currentColor" stroke-linecap="round" stroke-linejoin="round" stroke-opacity=".5" stroke-width="1.5" d="M15.75 18.75a3 3 0 1 0 0-6 3 3 0 0 0 0 6Z"/>
</svg>
