<svg width="32" height="32" viewBox="0 0 32 32" fill="none" xmlns="http://www.w3.org/2000/svg">
<path d="M26.8828 11C26.8828 9.14348 26.1453 7.36301 24.8326 6.05025C23.5198 4.7375 21.7393 4 19.8828 4" stroke="currentColor" stroke-opacity="0.5" stroke-width="1.5" stroke-linecap="round" stroke-linejoin="round" fill="none" />
<path d="M8.99373 20.2078L9.09717 13.3567C9.12703 13.0302 9.27588 12.7261 9.51538 12.5023C9.74543 12.2826 10.0529 12.1626 10.371 12.1684C10.521 12.1764 10.6677 12.2153 10.8019 12.2828C10.9361 12.3502 11.055 12.4447 11.1509 12.5603C11.2468 12.6758 11.3178 12.81 11.3594 12.9544C11.401 13.0987 11.4123 13.2501 11.3925 13.399L11.3791 15.9582" stroke="currentColor" stroke-width="1.75" stroke-linecap="round" stroke-linejoin="round"  fill="none"/>
<path d="M11.4866 16.1115L15.9342 7.466C16.0199 7.32123 16.1333 7.19476 16.2679 7.0938C16.4024 6.99285 16.5556 6.91939 16.7186 6.87762C16.8815 6.83586 17.0511 6.82661 17.2177 6.85039C17.3842 6.87418 17.5444 6.93054 17.6892 7.01625C17.8358 7.09876 17.9647 7.20935 18.0686 7.34169C18.1725 7.47403 18.2493 7.62553 18.2946 7.78755C18.3399 7.94957 18.3529 8.11893 18.3327 8.28595C18.3126 8.45298 18.2597 8.6144 18.1772 8.761L15.8516 13.7311L19.3346 8.69831C19.5212 8.43212 19.8007 8.24549 20.1181 8.17521C20.4355 8.10493 20.7677 8.15609 21.0492 8.31862C21.3307 8.48116 21.5411 8.74326 21.6389 9.05325C21.7367 9.36325 21.7149 9.69864 21.5776 9.99331L17.7781 15.5743L21.5067 11.4142C21.6932 11.148 21.9728 10.9614 22.2902 10.8911C22.6075 10.8208 22.9397 10.872 23.2212 11.0345C23.5027 11.197 23.7131 11.4591 23.811 11.7691C23.9088 12.0791 23.8869 12.4145 23.7497 12.7092L19.7064 17.4185L21.8257 15.3997C22.3942 14.997 22.9641 14.5939 23.5807 14.9499C24.1973 15.3059 24.5425 16.198 24.0687 16.6947L20.8409 20.6334L18.8058 22.9803C17.2143 24.8489 14.2609 25.3643 12.7098 24.4688C11.9996 24.0823 11.3159 23.649 10.6632 23.1717C10.1808 22.8961 9.77614 22.5027 9.48707 22.0282C9.19799 21.5538 9.03393 21.0138 9.01022 20.4587" stroke="currentColor" stroke-width="1.75" stroke-linecap="round" stroke-linejoin="round"  fill="none"/>
</svg>
