<svg viewBox="0 0 28 28" xmlns="http://www.w3.org/2000/svg">
<g fill="none" stroke-linecap="round" stroke-linejoin="round">
<g transform="translate(-3 -3)" stroke="currentColor">
<path id="Path" d="m14.519 23.72c0.81323 0.18792 1.646 0.28189 2.4814 0.28005 6.9966 0 12-7 12-7-1.1094-1.4544-2.4087-2.759-3.8644-3.88" stroke-width="1.5"/>
<path id="a" d="m25.136 13.12-2.6441-1.72c-1.688-0.89747-3.5727-1.3779-5.4915-1.4-6.9966 0-12 7-12 7 1.6904 2.2132 3.8219 4.0642 6.2644 5.44 0.78461 0.62761 1.8694 1.0543 3.2542 1.28" stroke-width="1.5"/>
<circle cx="16.96" cy="16.773" r="4.85" stroke-width="1.5"/>
<path d="m14.555 15.615c-0.32989 0.76136-0.33 1.6994-2.961e-4 2.4609 0.32971 0.7615 0.93917 1.2309 1.599 1.2315" opacity=".65" stroke-width="1.3846"/>
</g>
</g>
</svg>

