<svg viewBox="0 0 32 32" xmlns="http://www.w3.org/2000/svg"><g fill="none" stroke-linecap="round" stroke-linejoin="round" stroke-miterlimit="10" transform="translate(4 4)"><path stroke="currentColor" stroke-opacity=".5" d="M11.943 21h.008a8.215 8.215 0 001.443-.132l.212-1.048.393-.1a7.946 7.946 0 001.971-.783l.343-.2.89.593a8.094 8.094 0 001.121-.932 8.217 8.217 0 00.932-1.121l-.57-.856.207-.348a7.922 7.922 0 00.845-1.983l.1-.383 1.025-.206A8.268 8.268 0 0021 12.056a8.022 8.022 0 00-.132-1.456l-1-.2-.1-.391a7.939 7.939 0 00-.814-2l-.2-.346.584-.876a8.129 8.129 0 00-.938-1.113 8.247 8.247 0 00-1.119-.931l-.872.579-.346-.2a7.888 7.888 0 00-1.958-.814l-.386-.1-.212-1.076a8.027 8.027 0 00-2.9 0L10.39 4.2l-.39.106a7.943 7.943 0 00-1.916.788l-.345.2-.939-.631a8.007 8.007 0 00-2.057 2.054l.626.941L5.168 8a7.916 7.916 0 00-.788 1.88l-.1.382-1.146.231A7.948 7.948 0 003 11.943a8.064 8.064 0 00.132 1.452l1.119.225.1.39a7.97 7.97 0 00.758 1.89l.194.343-.639.96a8.029 8.029 0 002.053 2.052l.927-.617.347.207a7.922 7.922 0 001.9.819l.378.107.221 1.094a8.057 8.057 0 001.446.135z"/><path fill="currentColor" d="M11.951 21c.47 0 .954-.045 1.443-.132l.212-1.048.393-.098a7.945 7.945 0 001.971-.783l.344-.195.89.592a8.094 8.094 0 001.12-.932c.336-.335.648-.712.933-1.121l-.57-.856.207-.349c.37-.618.654-1.286.845-1.982l.104-.384 1.025-.205a8.02 8.02 0 000-2.902l-1-.2-.101-.392a7.939 7.939 0 00-.814-1.995l-.2-.346.583-.876a8.128 8.128 0 00-.933-1.122 8.247 8.247 0 00-1.119-.93l-.871.578-.346-.202a7.888 7.888 0 00-1.958-.814l-.386-.103-.216-1.07a8.026 8.026 0 00-2.9 0l-.217 1.07-.387.103a7.94 7.94 0 00-1.915.788l-.345.2-.946-.63a8.007 8.007 0 00-2.054 2.053l.627.94-.202.347A7.917 7.917 0 004.38 9.88l-.105.382-1.141.231a7.948 7.948 0 00-.002 2.902l1.119.225.1.39a7.97 7.97 0 00.758 1.89l.194.344-.64.96a8.009 8.009 0 002.054 2.053l.927-.618.347.207a7.922 7.922 0 001.902.82l.378.106.22 1.094c.487.089.972.134 1.445.134h.015m0 1.5h-.015a9.569 9.569 0 01-1.714-.158 1.5 1.5 0 01-1.2-1.179l-.044-.213a9.429 9.429 0 01-1.275-.548l-.155.103a1.5 1.5 0 01-1.685-.015 9.5 9.5 0 01-2.432-2.43 1.5 1.5 0 01-.016-1.686l.14-.21a9.481 9.481 0 01-.504-1.255l-.214-.044a1.5 1.5 0 01-1.18-1.203 9.459 9.459 0 01.002-3.439 1.5 1.5 0 011.177-1.2l.254-.052c.145-.428.32-.845.523-1.246l-.118-.177a1.5 1.5 0 01.016-1.686 9.53 9.53 0 012.433-2.433 1.5 1.5 0 011.684-.014l.186.124a9.451 9.451 0 011.287-.53l.035-.173a1.5 1.5 0 011.205-1.18 9.715 9.715 0 011.716-.156c.564 0 1.141.052 1.716.156a1.5 1.5 0 011.204 1.18l.035.174c.462.152.908.337 1.336.554l.107-.07a1.5 1.5 0 011.686.018c.483.336.928.707 1.323 1.101a9.64 9.64 0 011.106 1.33 1.5 1.5 0 01.014 1.685l-.076.114c.222.44.41.9.56 1.373l.094.02a1.5 1.5 0 011.181 1.202 9.533 9.533 0 01.001 3.434 1.5 1.5 0 01-1.181 1.206l-.133.027c-.158.47-.352.926-.58 1.364l.056.084a1.5 1.5 0 01-.018 1.687 9.73 9.73 0 01-1.103 1.326 9.6 9.6 0 01-1.33 1.105 1.5 1.5 0 01-1.683.015l-.137-.091c-.43.21-.88.39-1.343.535l-.028.136a1.5 1.5 0 01-1.206 1.18 9.724 9.724 0 01-1.707.155z"/><circle cx="3" cy="3" r="3" stroke="currentColor" stroke-opacity=".5" stroke-width="1.5" transform="translate(9 9)"/></g></svg>
