<svg xmlns="http://www.w3.org/2000/svg" viewBox="0 0 17.08 17.196">
  <path
    d="M146.9,249.2h10.425a1.28,1.28,0,1,1,0,2.56H146.879a1.28,1.28,0,1,1,.023-2.56Z"
    transform="translate(-141.526 -241.87)" fill="#333948"/>
  <path
    d="M146.9,72.8h14.5a1.28,1.28,0,1,1,0,2.56h-14.52a1.291,1.291,0,0,1-1.28-1.28,1.312,1.312,0,0,1,1.3-1.28Z"
    transform="translate(-145.598 -72.801)" fill="#333948"/>
  <path
    d="M146.9,425.04h14.5a1.28,1.28,0,1,1,0,2.56h-14.52a1.291,1.291,0,0,1-1.28-1.28,1.312,1.312,0,0,1,1.3-1.28Z"
    transform="translate(-145.598 -410.404)" fill="#333948"/>
</svg>
