<svg width="21" height="28" viewBox="0 0 21 28" fill="none" xmlns="http://www.w3.org/2000/svg">
<path fill-rule="evenodd" clip-rule="evenodd" d="M5.75 10V9H3.75V10V12.75H1H0V14.75H1H3.75V17.5V18.5H5.75V17.5V14.75H8.5H9.5V12.75H8.5H5.75V10Z" fill="#333948" fill-opacity="0.5"/>
<path d="M20.0539 19.624V22H11.0059V19.624H14.2939V7.48C14.1659 7.672 13.9499 7.888 13.6459 8.128C13.3579 8.352 13.0299 8.576 12.6619 8.8C12.2939 9.008 11.9099 9.184 11.5099 9.328C11.1259 9.472 10.7739 9.544 10.4539 9.544V7.096C10.8859 7.096 11.3179 6.984 11.7499 6.76C12.1979 6.536 12.6139 6.28 12.9979 5.992C13.3819 5.688 13.6859 5.416 13.9099 5.176C14.1499 4.936 14.2779 4.808 14.2939 4.792H17.0059V19.624H20.0539Z" fill="#313949"/>
</svg>
