<svg xmlns="http://www.w3.org/2000/svg" width="32" height="32" fill="none" viewBox="0 0 32 32">
  <path stroke="currentColor" stroke-opacity=".5" stroke-width="1.5" d="M15.145 24H9a3 3 0 0 1-3-3V10a3 3 0 0 1 3-3h11a3 3 0 0 1 3 3v2.036"/>
  <path stroke="currentColor" stroke-linecap="round" stroke-linejoin="round" stroke-width="2" d="M19.227 25a7 7 0 1 0 0-14 7 7 0 0 0 0 14Z"/>
  <path stroke="currentColor" stroke-linecap="round" stroke-linejoin="round" stroke-width="1.5" d="M23.227 19.914A4.72 4.72 0 0 1 19.205 22a4.7 4.7 0 0 1-3.978-2.156m.5-2.923a.963.963 0 0 1 1-.921.963.963 0 0 1 1 .92m3 0a.963.963 0 0 1 1-.92.963.963 0 0 1 1 .92"/>
  <path stroke="currentColor" stroke-linecap="round" stroke-linejoin="round" stroke-opacity=".5" stroke-width="1.5" d="M9.227 11h10m-10 4h3m-3 4h3"/>
</svg>
