<svg width="32" height="32" viewBox="0 0 32 32" fill="none" xmlns="http://www.w3.org/2000/svg">
<path d="M16.3745 13.6387C17.7532 13.0074 18.7109 11.6155 18.7109 10C18.7109 7.79086 16.9201 6 14.7109 6C12.5018 6 10.7109 7.79086 10.7109 10C10.7109 11.6276 11.6831 13.0282 13.0784 13.6528" stroke="currentColor" stroke-opacity="0.5" stroke-width="2" stroke-linecap="round" stroke-linejoin="round" fill="none"/>
<path d="M18.7109 10C18.7109 7.79086 16.9201 6 14.7109 6C12.5018 6 10.7109 7.79086 10.7109 10" stroke="currentColor" stroke-width="2" stroke-linecap="round" stroke-linejoin="round" fill="none"/>
<path d="M15.9242 15.4995C15.9242 14.5403 15.9242 13.1014 15.9242 11.1829C15.9242 10.5296 15.3946 10 14.7413 10C14.0881 10 13.5585 10.5296 13.5585 11.1829V20.6511L10.0947 18.2516C9.95503 17.9678 9.87018 18.0222 9.57014 17.9222C9.27009 17.8222 8.94249 17.8465 8.66049 17.9897C8.37673 18.1294 8.16072 18.3769 8.0607 18.6769C7.96069 18.977 7.985 19.3046 8.12821 19.5866L13.6176 25.3234M15.9242 15.9143C15.9242 15.261 16.4538 14.7314 17.1071 14.7314C17.7603 14.7314 18.2899 15.261 18.2899 15.9143M18.3195 15.9143C18.3195 15.261 18.8195 15.3229 19.4728 15.3229C20.1261 15.3229 20.6556 15.8524 20.6556 16.5057" stroke="currentColor" stroke-width="1.75" stroke-linecap="round" stroke-linejoin="round" fill="none"/>
<path d="M13.6172 25.3203C14.1611 26.2027 15.1237 26.7399 16.1603 26.7397H20.0638C21.6969 26.7397 23.0209 25.4157 23.0209 23.7825V17.6854C23.0209 17.0321 22.0614 16.2656 21.4081 16.2656" stroke="currentColor" stroke-width="1.75" stroke-linecap="round" stroke-linejoin="round" fill="none"/>
</svg>
