<svg width="32" height="32" viewBox="0 0 32 32" fill="none" xmlns="http://www.w3.org/2000/svg">
<path d="M26.3828 11.2656C26.3828 9.40911 25.6453 7.62863 24.3326 6.31588C23.0198 5.00312 21.2393 4.26563 19.3828 4.26562" stroke="currentColor" stroke-opacity="0.5" stroke-width="1.5" stroke-linecap="round" stroke-linejoin="round" fill="none"/>
<path d="M8.49373 20.4735L8.59717 13.6223C8.62703 13.2958 8.77588 12.9918 9.01538 12.7679C9.24543 12.5482 9.55291 12.4282 9.87098 12.434C10.021 12.442 10.1677 12.4809 10.3019 12.5484C10.4361 12.6158 10.555 12.7103 10.6509 12.8259C10.7468 12.9415 10.8178 13.0757 10.8594 13.22C10.901 13.3643 10.9123 13.5157 10.8925 13.6646L10.8791 16.2238" stroke="currentColor" stroke-width="1.75" stroke-linecap="round" stroke-linejoin="round" fill="none"/>
<path d="M10.9866 16.3771L15.4342 7.73163C15.5199 7.58686 15.6333 7.46038 15.7679 7.35943C15.9024 7.25847 16.0556 7.18501 16.2186 7.14325C16.3815 7.10148 16.5511 7.09223 16.7177 7.11602C16.8842 7.1398 17.0444 7.19616 17.1892 7.28188C17.3358 7.36439 17.4647 7.47497 17.5686 7.60731C17.6725 7.73965 17.7493 7.89116 17.7946 8.05318C17.8399 8.21519 17.8529 8.38455 17.8327 8.55158C17.8126 8.7186 17.7597 8.88003 17.6772 9.02663L15.3516 13.9967L18.8346 8.96394C19.0212 8.69775 19.3007 8.51111 19.6181 8.44083C19.9355 8.37055 20.2677 8.42172 20.5492 8.58425C20.8307 8.74678 21.0411 9.00888 21.1389 9.31888C21.2367 9.62887 21.2149 9.96427 21.0776 10.2589L17.2781 15.8399L21.0067 11.6798C21.1932 11.4136 21.4728 11.227 21.7902 11.1567C22.1075 11.0864 22.4397 11.1376 22.7212 11.3001C23.0027 11.4627 23.2131 11.7248 23.311 12.0348C23.4088 12.3448 23.3869 12.6802 23.2497 12.9748L19.2064 17.6841L21.3257 15.6653C21.8942 15.2626 22.4641 14.8595 23.0807 15.2155C23.6973 15.5715 24.0425 16.4636 23.5687 16.9603L20.3409 20.8991L18.3058 23.2459C16.7143 25.1145 13.7609 25.6299 12.2098 24.7344C11.4996 24.3479 10.8159 23.9146 10.1632 23.4373C9.68079 23.1617 9.27614 22.7683 8.98707 22.2938C8.69799 21.8194 8.53393 21.2794 8.51022 20.7243" stroke="currentColor" stroke-width="1.75" stroke-linecap="round" stroke-linejoin="round" fill="none"/>
</svg>
