<svg version="1.1" viewBox="0 0 20 20" xmlns="http://www.w3.org/2000/svg"><g><path id="a" d="m12 1h-4v2h4v-2zm-3.0692 9.9639l1.9988 0.069799 0.1396-3.9976-1.9988-0.069799-0.1396 3.9976zm6.537-4.3272l1.1044-1.1044c-0.33444-0.39667-0.7-0.77-1.0967-1.0967l-1.1044 1.1044c-1.2056-0.96444-2.7222-1.54-4.3711-1.54-3.8656 0-7 3.1344-7 7 0 3.8656 3.1267 7 7 7 3.8733 0 7-3.1344 7-7 0-1.6489-0.57556-3.1656-1.5322-4.3633zm-5.4678 9.3633c-2.7643 0-5-2.2357-5-5 0-2.7643 2.2357-5 5-5 2.7643 0 5 2.2357 5 5 0 2.7643-2.2357 5-5 5z"/></g></svg>
