<svg xmlns="http://www.w3.org/2000/svg" width="32" height="32" fill="none" viewBox="0 0 32 32">
  <path stroke="currentColor" stroke-linecap="round" stroke-linejoin="round" stroke-opacity=".5" stroke-width="1.5" d="M26.883 11a7 7 0 0 0-7-7"/>
  <path stroke="currentColor" stroke-linecap="round" stroke-linejoin="round" stroke-width="1.75" d="m8.994 20.208.103-6.851c.03-.327.179-.63.418-.855.23-.22.538-.34.856-.334a1.088 1.088 0 0 1 1.021 1.231l-.013 2.56m.108.152 4.447-8.645a1.281 1.281 0 0 1 1.755-.45 1.281 1.281 0 0 1 .488 1.745l-2.325 4.97 3.483-5.033a1.3 1.3 0 0 1 2.243 1.295l-3.8 5.581 3.729-4.16a1.3 1.3 0 0 1 2.243 1.295l-4.044 4.71 2.12-2.02c.568-.402 1.138-.805 1.755-.45.616.357.962 1.249.488 1.746l-3.228 3.938-2.035 2.347c-1.592 1.869-4.545 2.384-6.096 1.489a18.23 18.23 0 0 1-2.047-1.297 3.286 3.286 0 0 1-1.653-2.713"/>
</svg>
