<svg viewBox="0 0 32 32" xmlns="http://www.w3.org/2000/svg" fill-rule="evenodd" clip-rule="evenodd" stroke-linejoin="round" stroke-miterlimit="1.414"><path d="M23.5 1C27.639 1 31 4.361 31 8.5v15c0 4.139-3.361 7.5-7.5 7.5h-15A7.504 7.504 0 0 1 1 23.5v-15C1 4.361 4.361 1 8.5 1h15zm-1 2h-13A6.503 6.503 0 0 0 3 9.5v13C3 26.087 5.913 29 9.5 29h13c3.587 0 6.5-2.913 6.5-6.5v-13C29 5.913 26.088 3 22.5 3z" fill="#fff"/><g fill="#fff" fill-rule="nonzero"><path d="M8.033 13.506v1.542h3.17v1.7h-3.17v1.757h3.756v1.763H5.848v-8.53h5.965v1.768h-3.78zM13.998 16.193a3.158 3.158 0 0 1-1.028-.876c-.268-.355-.401-.783-.401-1.283 0-.492.143-.92.43-1.283.287-.364.685-.643 1.193-.838.507-.196 1.08-.293 1.716-.293.622 0 1.174.105 1.659.316.484.211.864.517 1.139.917.276.401.413.878.413 1.433H16.94c0-.289-.093-.519-.279-.689-.185-.17-.454-.255-.805-.255a1.65 1.65 0 0 0-.604.1.889.889 0 0 0-.381.261.552.552 0 0 0-.129.354c0 .215.124.4.373.551.248.152.627.313 1.139.481.942.304 1.654.683 2.136 1.136.482.453.724 1.031.724 1.735 0 .515-.131.955-.393 1.318-.262.363-.631.64-1.107.826-.477.188-1.038.281-1.682.281a4.924 4.924 0 0 1-1.767-.313 3 3 0 0 1-1.339-.982c-.343-.445-.515-1.003-.515-1.675h2.197c0 .316.052.566.155.75a.857.857 0 0 0 .466.39c.207.076.475.114.803.114.34 0 .591-.068.753-.203a.619.619 0 0 0 .243-.495.8.8 0 0 0-.105-.424c-.071-.116-.208-.23-.414-.343a5.716 5.716 0 0 0-.917-.375 9.428 9.428 0 0 1-1.494-.636zM26.631 18.935a2.962 2.962 0 0 1-1.248 1.072c-.531.252-1.144.378-1.84.378-.765 0-1.423-.168-1.971-.504-.549-.335-.967-.819-1.254-1.45-.287-.63-.431-1.38-.431-2.247v-.357c0-.86.149-1.607.448-2.24.299-.636.721-1.123 1.266-1.463.545-.34 1.177-.51 1.895-.51.735 0 1.366.133 1.893.398.527.266.936.634 1.227 1.105.292.471.462 1.013.513 1.626h-2.18c-.003-.46-.117-.798-.339-1.01-.223-.214-.594-.32-1.114-.32-.324 0-.586.075-.785.225-.199.151-.348.401-.448.75-.1.35-.149.826-.149 1.427v.37c0 .624.045 1.11.137 1.452.092.344.24.587.443.73.203.142.486.214.849.214.449 0 .793-.1 1.031-.299.239-.199.36-.518.364-.955h2.174c-.02.61-.18 1.145-.481 1.608z"/></g></svg>