<svg width="77" height="77" viewBox="0 0 77 77" fill="none" xmlns="http://www.w3.org/2000/svg">
<g clip-path="url(#clip0_4595_11998)">
<path d="M36.106 19.25H54.793C56.7075 19.25 58.5436 20.0105 59.8974 21.3643C61.2512 22.7181 62.0117 24.5542 62.0117 26.4688V52.9375C62.0117 54.852 61.2512 56.6882 59.8974 58.0419M21.1055 26.4688V52.9375C21.1055 54.852 21.866 56.6882 23.2198 58.0419C24.5736 59.3957 26.4097 60.1563 28.3242 60.1563H34.8909" stroke="#5C8FFF" stroke-opacity="0.5" stroke-width="3.5"/>
<path d="M14.4375 19.25H28.875" stroke="#5C8FFF" stroke-width="4" stroke-linecap="square"/>
<path d="M47.2812 31.0142C48.471 31.0142 49.6341 31.367 50.6234 32.028C51.6126 32.689 52.3837 33.6285 52.839 34.7277C53.2943 35.8269 53.4134 37.0365 53.1813 38.2034C52.9492 39.3703 52.3762 40.4422 51.5349 41.2835C50.6936 42.1248 49.6218 42.6977 48.4548 42.9298C47.2879 43.1619 46.0784 43.0428 44.9792 42.5875C43.88 42.1322 42.9404 41.3612 42.2794 40.3719C41.6184 39.3826 41.2656 38.2196 41.2656 37.0298C41.2656 35.4343 41.8994 33.9042 43.0276 32.7761C44.1557 31.6479 45.6858 31.0142 47.2812 31.0142Z" stroke="#5C8FFF" stroke-width="4"/>
<path d="M34.1003 63.205C34.1003 63.1568 33.1209 51.0967 47.313 51.0967C61.505 51.0967 60.454 63.205 60.454 63.205" stroke="#5C8FFF" stroke-width="4" stroke-linecap="round" stroke-linejoin="round"/>
</g>
<defs>
<clipPath id="clip0_4595_11998">
<rect width="51.7849" height="56.1932" fill="white" transform="translate(12.0312 9.625)"/>
</clipPath>
</defs>
</svg>
