<?xml version="1.0" encoding="UTF-8" standalone="no"?>
<!DOCTYPE svg PUBLIC "-//W3C//DTD SVG 1.1//EN" "http://www.w3.org/Graphics/SVG/1.1/DTD/svg11.dtd">
<svg width="100%" height="100%" viewBox="0 0 14 14" version="1.1" xmlns="http://www.w3.org/2000/svg" xmlns:xlink="http://www.w3.org/1999/xlink" xml:space="preserve" style="fill-rule:evenodd;clip-rule:evenodd;stroke-linejoin:round;stroke-miterlimit:1.41421;">
    <g id="ArtBoard1" transform="matrix(1.16667,0,0,1.16667,-11.6667,-11.6667)">
        <rect x="10" y="10" width="12" height="12" style="fill:none !important;"/>
        <clipPath id="_clip1">
            <rect x="10" y="10" width="12" height="12"/>
        </clipPath>
        <g clip-path="url(#_clip1)">
            <g id="icon.-32.-add" transform="matrix(0.857143,0,0,0.857143,2.28571,2.28571)">
                <path id="Oval.-2" d="M16,30C23.732,30 30,23.732 30,16C30,8.268 23.732,2 16,2C8.268,2 2,8.268 2,16C2,23.732 8.268,30 16,30ZM16,32C7.163,32 0,24.837 0,16C0,7.163 7.163,0 16,0C24.837,0 32,7.163 32,16C32,24.837 24.837,32 16,32Z" style="fill:rgb(39,50,47);fill-rule:nonzero;"/>
                <path id="add" d="M23,16.986L16.986,16.986L16.986,23L15.014,23L15.014,16.986L9,16.986L9,15.014L15.014,15.014L15.014,9L16.986,9L16.986,15.014L23,15.014L23,16.986Z" style="fill:rgb(39,50,47);"/>
            </g>
        </g>
    </g>
</svg>
