<svg xmlns="http://www.w3.org/2000/svg" width="36" height="36" fill="currentColor" viewBox="0 0 36 36">
  <g fill="none" fill-rule="evenodd">
    <polygon fill="currentColor" fill-rule="nonzero" points="18.75 14.874 18.75 20.874 17.25 20.874 17.25 14.874"/>
    <polygon fill="currentColor" fill-rule="nonzero" points="21 17.124 21 18.624 15 18.624 15 17.124"/>
    <path fill="currentColor" fill-rule="nonzero" d="M18,11.5 C14.4101491,11.5 11.5,14.4101491 11.5,18 C11.5,21.5898509 14.4101491,24.5 18,24.5 C21.5898509,24.5 24.5,21.5898509 24.5,18 C24.5,14.4101491 21.5898509,11.5 18,11.5 Z M18,13 C20.7614237,13 23,15.2385763 23,18 C23,20.7614237 20.7614237,23 18,23 C15.2385763,23 13,20.7614237 13,18 C13,15.2385763 15.2385763,13 18,13 Z"/>
    <path fill="currentColor" fill-opacity=".5" fill-rule="nonzero" d="M28.8000002,16.9393398 L31.3606603,19.5 L30.3000002,20.5606602 L29.6029958,19.8638412 C28.7099017,25.4674497 23.8550725,29.75 18,29.75 C15.3275171,29.75 12.7911724,28.8539646 10.7389974,27.2386033 L10.4621891,27.0138848 L11.425007,25.8636754 C13.2561945,27.3965269 15.5613857,28.25 18,28.25 C23.059753,28.25 27.2632301,24.5838473 28.0989516,19.7630217 L27.3000002,20.5606602 L26.23934,19.5 L28.8000002,16.9393398 Z M18,6.25 C20.1372138,6.25 22.1914304,6.8222702 23.9870812,7.88772406 L24.3206927,8.09325685 L23.5127733,9.35708679 C21.8794495,8.31296364 19.9823136,7.75 18,7.75 C12.7602068,7.75 8.43871106,11.6816985 7.82474168,16.7558665 L8.52132017,16.0606602 L9.58198034,17.1213203 L8.08198034,18.6213203 L7.02132017,19.6819805 L4.46066,17.1213203 L5.52132017,16.0606602 L6.30597331,16.8457595 C6.88586985,10.8981583 11.9001172,6.25 18,6.25 Z"/>
  </g>
</svg>