<?xml version="1.0" encoding="UTF-8"?>
<svg width="114px" height="48px" viewBox="0 0 114 48" version="1.1" xmlns="http://www.w3.org/2000/svg" xmlns:xlink="http://www.w3.org/1999/xlink">
    <g id="Page-1" stroke="none" stroke-width="1" fill="none" fill-rule="evenodd">
        <g id="P2-rate" transform="translate(-660.000000, -15.000000)" fill="#F7F7F7">
            <g id="header">
                <g id="logo" transform="translate(662.000000, 15.000000)">
                    <path d="M-1.11627907,47.5230462 C-1.11627907,47.5230462 46.860966,32.5964835 107.85746,30.1362748 C109.29746,30.0789023 110.512057,30.9511581 110.512057,32.03929 C110.512057,33.0467114 109.473918,33.8790982 108.140823,33.9354983 C97.0381395,34.4071193 48.8908766,36.9791557 5.1086941,47.5230462 C5.1086941,47.6854394 -1.11627907,48.4964332 -1.11627907,47.5230462 M96.827678,8.14970582 C98.176229,5.72283049 99.2066404,4.09965274 99.3650662,4.15428475 C99.6033488,4.27447517 99.0868551,6.02027143 97.7395921,8.37187599 C96.827678,9.97927116 95.480415,11.9108163 93.7750841,13.7367395 C94.0545832,13.0508042 95.7972665,9.96106049 96.827678,8.14970582 M111.3758,16.4719822 C111.652723,16.9709545 111.693939,17.880274 111.257302,18.9656299 C110.30546,21.2650306 107.966426,23.2123583 105.708537,23.5122273 C103.289646,23.8327351 101.981023,22.3673832 101.981023,20.3095774 C101.981023,17.8705616 104.081775,14.6557713 106.065317,12.0698561 C105.033617,12.6271026 104.041846,12.909975 103.171148,13.0629447 C100.197123,18.4108115 97.9392343,22.2168416 97.3828122,24.9205191 C97.2243864,25.6270931 96.7091807,26.0374402 95.9956208,25.4073511 C95.4533667,24.9897197 95.1519714,24.4118344 95.0515063,23.7659626 C94.0674633,24.4409715 92.955907,24.9727231 91.7941181,25.1269067 C89.8801288,25.379428 88.5534741,24.7080613 88.0756208,23.1200909 C86.7013095,24.807613 84.6263184,26.1904099 82.7535456,26.439289 C80.0577317,26.7962182 78.5919714,25.5797454 78.5919714,23.5219397 C78.5919714,22.8347904 78.7503971,21.9764608 79.185746,20.9663756 C79.819449,19.5860068 81.1293596,17.3558067 82.0399857,15.8625317 C82.9119714,14.4882331 83.863814,13.2195564 83.5456744,13.262048 C83.2288229,13.3033255 82.3967657,13.7950136 80.0577317,16.3542198 C76.9652093,19.7353343 75.0641002,23.6081368 73.3986977,27.3728894 C73.0019893,28.151092 72.4481431,28.3380549 71.8131521,27.8111595 C71.2168014,27.3194714 70.9411664,26.8229272 70.9411664,25.8310526 C70.9411664,25.1839668 71.2567299,23.9225744 71.6547263,22.9149173 C72.2085725,21.4714182 73.517195,19.240004 74.5862469,17.4966359 C75.6578748,15.6415756 76.7681431,14.0438928 76.4100751,14.0924546 C76.0932236,14.1349461 74.5488945,15.1778105 72.169932,18.0077487 C69.9506834,20.5888077 68.1255671,24.2977142 66.5812379,28.0078348 C66.3017388,28.6561346 65.867678,28.9426492 65.1927585,28.4594594 C64.9158354,28.2688544 64.6801288,28.015119 64.5113989,27.7018955 C63.4204508,28.5954324 62.1710769,29.2413042 60.9513274,29.4039862 C58.6122934,29.7135676 57.4208801,28.7653987 57.2637424,27.0718063 C55.9164794,28.6986262 54.1325796,30.1154164 52.1103971,30.3837202 C50.7270698,30.567041 49.9297889,29.9879417 49.5575528,29.0846924 C48.2373381,30.350941 46.513975,31.2408358 45.0932952,31.4277987 C42.555907,31.764089 41.1674275,30.2696 41.1674275,28.0211893 C41.1674275,26.0398683 43.2681789,22.1415708 45.4500751,19.375977 C44.3784472,19.9368657 43.2681789,20.3144336 42.3575528,20.4722594 C39.5033131,26.9467597 35.0622397,32.7171141 30.0286798,33.3836246 C26.3810233,33.8680285 24.4000572,31.84543 24.4000572,28.8710205 C24.4000572,27.5379995 24.7967657,25.9597414 25.5888945,24.3317075 C27.6909338,20.1651061 30.8208086,17.6180403 33.1212021,17.3121011 C33.6364079,17.2441146 34.1116852,17.2574691 34.5083936,17.4335055 C35.6972308,17.961615 36.4095027,18.5528547 36.8474275,19.2958501 C37.4412021,20.4358381 36.8074991,21.8914776 36.0527227,23.4794481 C35.7770877,24.0864704 35.4589481,24.700777 35.3404508,25.135405 C35.0622397,25.9730959 34.905102,26.1831256 33.914619,25.8201262 C33.1212021,25.5433241 32.5261395,24.8221815 32.5261395,23.7950997 C32.5261395,23.2220706 33.0426333,21.8951198 33.4380537,20.9675896 C33.8334741,20.1129022 34.2301825,19.2994922 34.0331163,19.1732316 C33.5166225,18.8600081 30.9792343,21.5224081 29.3151199,24.9800073 C28.5229911,26.6468907 28.1249946,28.2251488 28.1249946,29.3699929 C28.1249946,30.9701038 28.7999141,31.9474098 29.9488229,31.870925 C33.8334741,31.5079256 38.0749052,25.3818561 40.1357281,20.4224836 C39.3049589,20.1529656 39.0267478,19.6163579 39.0267478,18.8940013 C39.0267478,16.8738309 41.6427048,13.7440237 42.9912558,13.5279238 C43.8233131,13.4174457 44.1401646,13.8714984 44.1401646,14.7091893 C44.1401646,15.5092447 43.8233131,16.6953664 43.3879642,18.0101768 C44.4969445,17.5949735 45.5685725,16.9588141 46.8372665,15.9147356 C47.4310411,15.4169773 48.0660322,15.1790246 48.5812379,15.6452177 C49.213653,16.2473839 49.6915063,17.0984292 49.6915063,18.0903037 C49.6915063,18.5467845 49.4931521,19.1453086 49.0165868,19.7049832 C47.3125438,21.8356316 45.3689302,24.5684462 44.7352272,26.6735997 C44.536873,27.2709096 44.4183757,27.8585073 44.4183757,28.4303223 C44.4183757,29.3833474 44.7352272,29.9126709 45.3302898,29.8726074 C46.5848157,29.8131192 48.6185903,27.4335916 49.8537961,24.8573888 C50.74639,22.3346039 52.7389481,18.3246143 55.1629911,14.7358982 C55.6781968,14.0183978 56.3917567,13.9989731 56.868322,14.5088719 C57.3023828,14.9847774 57.4620966,15.6112245 57.4620966,16.1830395 C57.4620966,17.745515 54.5666404,22.5494899 53.180737,25.6695847 C52.4671771,27.2879063 52.3473918,28.7119807 53.2206655,28.5978605 C54.2510769,28.4606734 56.3531163,25.5918858 58.3752987,22.2751158 C60.7130447,18.3051896 61.7434562,15.5784453 63.169288,13.6371878 C63.7257102,12.8395604 64.3594132,12.6028217 64.8359785,13.1867772 C65.2326869,13.6675389 65.4297531,14.2527085 65.4297531,15.0903993 C65.4297531,16.385785 64.5976959,18.1728588 63.2092165,20.5681689 C62.0603077,22.5094264 60.5146905,25.3065853 60.5146905,26.792576 C60.5146905,27.4797253 60.7529732,27.8293702 61.2681789,27.7601697 C62.2264615,27.633909 63.5659964,26.0410824 64.7767299,24.1811659 C65.7118283,21.6547389 68.4462826,16.2449558 70.7827406,12.5141965 C71.2979463,11.7226393 71.8917209,11.6801478 72.2884293,12.3138791 C72.6452093,12.8395604 72.8435635,13.4599373 72.8435635,14.0706018 C72.8435635,14.375327 72.8049231,14.7225438 72.7237782,15.1146802 C74.4291091,13.2875429 76.6483578,11.5466029 77.9183399,11.3778506 C79.185746,11.2103125 80.0190912,12.4717049 80.0190912,14.0718158 C81.801703,12.311451 83.9024544,10.736835 85.1724365,10.6069323 C86.3213453,10.4928121 86.9550483,11.4385529 86.9550483,12.6950891 C86.9550483,13.9916889 86.1229911,15.8564615 84.498805,18.4702997 C83.3885367,20.2573735 82.3568372,22.0711562 82.3568372,23.4029633 C82.3568372,24.2807176 82.7535456,24.8379641 83.3885367,24.7554091 C84.6173023,24.591513 86.5583399,21.6656653 88.0266762,19.1477366 C88.1258533,18.9729142 88.2301825,18.8502957 88.3345116,18.7568143 C90.0243864,12.391578 94.3134741,5.13887499 98.0577317,0.859367467 C98.809932,0.0350311244 99.5234919,-0.286690718 100.278268,0.298478822 C101.148966,0.907929255 101.584315,1.91558635 101.584315,2.9086749 C101.584315,3.44042647 101.545674,3.86534211 101.346032,4.54035096 C100.118555,9.23748986 95.7972665,14.3061264 92.3093238,17.0183023 C91.515907,19.0663956 91.0007013,20.8486132 91.0007013,22.1840624 C91.0007013,23.0982381 91.2376959,23.7137587 91.7541896,23.6457722 C93.5780179,23.4041773 95.8771234,20.5463161 97.3828122,17.6034718 C97.5270698,17.3169573 97.7009517,17.1105697 97.8799857,16.9709545 C98.7094669,15.6610003 99.6909338,14.2053607 100.712329,12.855343 C100.237052,12.4984139 99.9601288,12.040719 99.9601288,11.5441748 C99.9601288,9.60048922 102.497517,6.55930728 103.724995,6.39662529 C104.557052,6.28736127 104.913832,6.69649433 104.913832,7.57182055 C104.913832,8.29781927 104.638197,9.43902127 104.20156,10.7149822 C105.152114,10.3604812 106.223742,9.68668639 107.41258,8.6899557 C108.087499,8.14484964 108.482919,8.0161609 108.998125,8.44229059 C109.553259,8.90241352 110.147034,9.81537513 110.147034,10.7295508 C110.147034,11.1872456 109.949968,11.7457062 109.513331,12.2980965 C107.373939,14.945928 105.113474,18.2554138 105.113474,20.5038246 C105.113474,21.4956991 105.430326,22.0626579 105.98546,21.9873872 C107.332723,21.8101366 108.919556,19.4670304 110.147034,16.6735136 C110.463886,15.9463008 111.01902,15.8346087 111.3758,16.4719822 Z M27.0943256,17.5774912 C26.142483,18.9226528 24.9935742,21.0557293 24.4397281,22.0451757 C24.0829481,22.7019739 23.6450233,23.0649732 22.8928229,22.4021048 C22.3376887,21.9431959 21.9409803,21.345886 21.9409803,20.4705597 C21.9409803,19.6304408 22.456186,18.114099 23.7648086,16.2638949 C24.7565796,14.7220581 25.8256315,12.9046332 25.2717853,12.5974799 C23.804737,11.7634312 15.1235206,18.5135197 14.9251664,22.92293 C14.805381,25.4542132 20.2369374,26.9074247 21.7812665,27.7706104 C22.5360429,28.2040244 22.9726798,28.8328995 22.9726798,29.5564702 C22.9726798,30.4330104 22.456186,31.4916574 21.4257746,32.8101099 C20.3940751,34.089713 18.4530376,35.14836 16.0740751,35.4615835 C13.179907,35.8452217 9.33518426,34.7926449 6.20273345,31.7405366 C5.6488873,31.1638653 5.92581038,30.7085986 6.48094454,30.4451509 C6.79908408,30.3261745 7.23443292,30.230265 7.7097102,30.1671347 C8.85990698,30.014165 9.9688873,30.1732049 10.8009445,30.7110267 C12.3478497,31.725968 14.9650948,33.2848014 17.2629123,32.9800762 C18.134898,32.8647419 18.9283148,32.5697291 19.3662397,32.0926095 C19.9587263,31.4406675 19.7603721,30.7826553 19.3250233,30.4961408 C16.4707835,28.7406321 10.9606583,27.4112532 10.9606583,23.5238821 C10.9606583,18.3411254 17.144415,12.9884023 20.7135027,11.0665696 C22.0208372,10.3599956 22.8541825,10.1353973 23.7648086,10.0152069 C24.7166512,9.88894624 25.50878,10.0516282 26.1824114,10.4947545 C27.2939678,11.3385156 28.0062397,12.5015704 28.2844508,13.494659 C28.6798712,15.0049305 27.6893882,16.6596735 27.0943256,17.5774912 Z" id="Fill-3"></path>
                </g>
            </g>
        </g>
    </g>
</svg>