<svg width="166" height="74" xmlns="http://www.w3.org/2000/svg"><g fill="#fff" fill-rule="evenodd"><path d="M8 61.421s58.747-18.35 133.436-21.374c1.763-.07 3.25 1.002 3.25 2.34 0 1.238-1.27 2.261-2.903 2.33-13.595.58-72.55 3.742-126.16 16.704 0 .2-7.623 1.197-7.623 0m119.93-48.402c1.651-2.984 2.913-4.98 3.107-4.912.292.148-.34 2.294-1.99 5.185-1.117 1.976-2.767 4.35-4.855 6.595.343-.843 2.476-4.642 3.738-6.868m17.814 10.23c.339.614.39 1.732-.145 3.066-1.166 2.827-4.03 5.22-6.795 5.589-2.961.394-4.564-1.407-4.564-3.937 0-2.998 2.573-6.95 5.001-10.13a11.565 11.565 0 0 1-3.543 1.222c-3.642 6.574-6.407 11.253-7.088 14.576-.194.869-.825 1.373-1.699.599-.664-.514-1.033-1.224-1.156-2.018-1.205.83-2.566 1.483-3.988 1.673-2.344.31-3.968-.515-4.554-2.467-1.682 2.074-4.223 3.774-6.516 4.08-3.301.44-5.096-1.056-5.096-3.586 0-.845.194-1.9.727-3.142.776-1.697 2.38-4.438 3.495-6.274 1.068-1.69 2.233-3.249 1.844-3.197-.388.051-1.407.655-4.271 3.802-3.787 4.156-6.115 8.917-8.154 13.545-.486.957-1.164 1.187-1.942.539-.73-.605-1.067-1.215-1.067-2.434 0-.796.386-2.347.873-3.585.679-1.775 2.281-4.518 3.59-6.661 1.312-2.28 2.672-4.245 2.233-4.185-.388.052-2.279 1.334-5.192 4.813-2.717 3.173-4.952 7.733-6.843 12.294-.342.797-.874 1.149-1.7.555a2.652 2.652 0 0 1-.834-.932c-1.336 1.099-2.866 1.893-4.36 2.093-2.864.38-4.323-.785-4.515-2.867-1.65 2-3.834 3.741-6.31 4.071-1.694.226-2.67-.486-3.126-1.597-1.617 1.557-3.727 2.65-5.466 2.88-3.107.414-4.808-1.423-4.808-4.187 0-2.436 2.573-7.228 5.244-10.628-1.312.69-2.671 1.154-3.786 1.348-3.495 7.96-8.933 15.053-15.097 15.872-4.466.596-6.892-1.89-6.892-5.547 0-1.639.486-3.58 1.456-5.58 2.574-5.123 6.406-8.254 9.223-8.63.63-.083 1.213-.067 1.699.15 1.455.649 2.327 1.375 2.864 2.289.727 1.401-.05 3.19-.973 5.143-.338.746-.727 1.501-.873 2.035-.34 1.03-.533 1.288-1.745.842-.972-.34-1.7-1.227-1.7-2.49 0-.704.632-2.335 1.116-3.475.484-1.05.97-2.05.729-2.206-.633-.385-3.74 2.888-5.777 7.138-.97 2.05-1.458 3.99-1.458 5.397 0 1.967.827 3.169 2.233 3.075 4.757-.447 9.95-7.978 12.474-14.074-1.017-.332-1.358-.991-1.358-1.88 0-2.483 3.203-6.33 4.855-6.596 1.018-.136 1.406.422 1.406 1.452 0 .984-.388 2.442-.92 4.058 1.357-.51 2.67-1.292 4.223-2.576.727-.612 1.505-.904 2.135-.331.775.74 1.36 1.786 1.36 3.006 0 .56-.243 1.297-.826 1.985-2.087 2.619-4.467 5.978-5.243 8.566-.243.735-.388 1.457-.388 2.16 0 1.171.388 1.822 1.117 1.773 1.536-.073 4.026-2.998 5.539-6.165 1.093-3.102 3.532-8.031 6.5-12.443.632-.882 1.505-.906 2.089-.279.531.585.727 1.355.727 2.058 0 1.92-3.546 7.827-5.243 11.662-.873 1.99-1.02 3.74.05 3.6 1.261-.169 3.835-3.695 6.311-7.773 2.863-4.88 4.124-8.232 5.87-10.619.682-.98 1.457-1.271 2.041-.553.486.59.727 1.31.727 2.34 0 1.592-1.019 3.79-2.719 6.734-1.407 2.386-3.3 5.825-3.3 7.652 0 .844.292 1.274.923 1.19 1.174-.156 2.814-2.114 4.296-4.4 1.145-3.106 4.494-9.757 7.355-14.343.63-.973 1.358-1.025 1.843-.246.437.646.68 1.409.68 2.16 0 .374-.047.8-.147 1.283 2.089-2.246 4.806-4.387 6.361-4.594 1.552-.206 2.572 1.345 2.572 3.312 2.183-2.164 4.755-4.1 6.31-4.26 1.407-.14 2.183 1.023 2.183 2.567 0 1.594-1.019 3.887-3.007 7.1-1.36 2.197-2.623 4.426-2.623 6.064 0 1.079.486 1.764 1.263 1.662 1.505-.201 3.882-3.798 5.68-6.893.12-.215.249-.366.376-.48 2.07-7.826 7.322-16.742 11.906-22.003.921-1.013 1.795-1.408 2.72-.69 1.065.75 1.598 1.989 1.598 3.21 0 .653-.047 1.176-.291 2.006-1.503 5.774-6.795 12.005-11.066 15.339-.971 2.518-1.602 4.709-1.602 6.35 0 1.124.29 1.88.923 1.797 2.233-.297 5.048-3.81 6.892-7.428.176-.352.39-.606.609-.777a75.56 75.56 0 0 1 3.468-5.06c-.582-.438-.921-1.001-.921-1.612 0-2.389 3.107-6.128 4.61-6.328 1.019-.134 1.455.37 1.455 1.445 0 .893-.337 2.296-.872 3.864 1.164-.436 2.476-1.264 3.932-2.49.826-.67 1.31-.828 1.942-.304.68.566 1.406 1.688 1.406 2.812 0 .563-.241 1.25-.776 1.928-2.62 3.255-5.387 7.324-5.387 10.088 0 1.22.388 1.916 1.068 1.824 1.65-.218 3.592-3.099 5.095-6.533.388-.894 1.068-1.031 1.505-.248zm-103.2 1.36c-1.166 1.653-2.573 4.275-3.251 5.492-.437.807-.973 1.253-1.894.438-.68-.564-1.166-1.298-1.166-2.374 0-1.033.63-2.897 2.233-5.171 1.215-1.896 2.524-4.13 1.846-4.508-1.797-1.025-12.427 7.273-12.67 12.694-.146 3.111 6.505 4.898 8.396 5.959.924.533 1.458 1.306 1.458 2.195 0 1.078-.632 2.38-1.894 4-1.263 1.573-3.64 2.875-6.553 3.26-3.544.471-8.251-.823-12.087-4.575-.678-.709-.34-1.268.34-1.592.39-.146.923-.264 1.505-.342 1.409-.188 2.767.007 3.785.669 1.895 1.247 5.1 3.164 7.913 2.789 1.068-.142 2.04-.504 2.575-1.091.726-.801.483-1.61-.05-1.963-3.495-2.158-10.242-3.792-10.242-8.57 0-6.372 7.572-12.952 11.942-15.315 1.6-.868 2.621-1.144 3.736-1.292 1.166-.155 2.136.045 2.96.59 1.362 1.037 2.234 2.466 2.575 3.687.484 1.857-.73 3.891-1.458 5.02zM123.004 58.917c.618.452 1.08 1.08 1.387 1.885.306.804.459 1.736.459 2.798v.205c0 1.074-.153 2.016-.46 2.827-.305.81-.764 1.44-1.376 1.89-.612.449-1.37.673-2.276.673-1.126 0-2.024-.44-2.695-1.318L117.906 69h-2.646V54h2.949v5.352c.638-.743 1.475-1.114 2.51-1.114.905 0 1.666.227 2.285.679zM121.9 63.6c0-.918-.141-1.644-.424-2.178-.284-.534-.783-.8-1.5-.8-.859 0-1.448.344-1.767 1.034v4.121c.312.69.908 1.035 1.787 1.035.723 0 1.22-.257 1.494-.771s.41-1.26.41-2.236V63.6zm13.916 1.074h-6.68c.111.657.385 1.18.821 1.567.436.388.996.581 1.68.581a3.44 3.44 0 0 0 1.41-.288c.434-.192.803-.48 1.11-.864l1.415 1.63c-.37.535-.913.984-1.626 1.348-.713.365-1.548.547-2.505.547-1.08 0-2.02-.228-2.817-.683a4.701 4.701 0 0 1-1.836-1.856 5.312 5.312 0 0 1-.64-2.588v-.37c0-1.055.199-1.996.596-2.823a4.544 4.544 0 0 1 1.719-1.938c.749-.466 1.634-.699 2.656-.699.996 0 1.846.212 2.549.635a4.054 4.054 0 0 1 1.602 1.802c.364.778.546 1.694.546 2.749v1.25zm-2.89-2.207c-.013-.573-.171-1.026-.474-1.358-.303-.332-.753-.498-1.352-.498-.56 0-.998.186-1.314.557-.316.371-.522.882-.62 1.533h3.76v-.234zm9.824 4.238v2.217c-.508.182-1.087.273-1.738.273-2.07 0-3.106-1.054-3.106-3.164v-5.449h-1.494v-2.148h1.494v-2.618h2.95v2.618h1.777v2.148h-1.778v5.107c0 .417.082.702.245.855.162.153.44.23.83.23.319 0 .592-.023.82-.069zm10.107 1.143c.072.37.18.7.323.986V69h-2.96a3.134 3.134 0 0 1-.282-.947c-.671.761-1.553 1.142-2.647 1.142-.664 0-1.27-.136-1.816-.41a3.248 3.248 0 0 1-1.294-1.133 2.91 2.91 0 0 1-.474-1.63c0-1.114.413-1.972 1.24-2.574.827-.602 2.045-.903 3.653-.903h1.2v-.596c0-.488-.123-.867-.37-1.137-.248-.27-.619-.406-1.114-.406-.449 0-.799.106-1.05.318-.25.211-.375.512-.375.903h-2.95c0-.632.188-1.204.562-1.719.374-.514.905-.921 1.592-1.22.687-.3 1.48-.45 2.378-.45.833 0 1.572.14 2.216.42.645.28 1.15.7 1.514 1.26.365.56.547 1.243.547 2.05v4.425c0 .599.036 1.084.107 1.455zm-3.77-1.167c.326-.186.564-.412.714-.679v-1.768h-1.123c-.684 0-1.193.148-1.529.445-.335.296-.503.682-.503 1.157 0 .332.12.602.357.81.238.209.555.313.952.313.43 0 .807-.093 1.133-.278z"/></g></svg>