<?xml version="1.0" encoding="UTF-8"?>
<svg viewBox="0 0 50 50" xmlns="http://www.w3.org/2000/svg">
<path d="m48.202 33.912c0.59371 0.011103 0.93463 1.152 0.7457 2.4894-0.17492 1.2382-0.74028 2.2024-1.2905 2.1962-0.091653-9.926e-4 -0.18946-0.0017925-0.29329-0.0023231l-0.5075-3.121e-4c-5.7774 0.021343-24.725 0.90916-43.325 10.863-0.028196 0.19959-2.6925 0.84353-2.5235-0.35282 0 0 22.041-15.626 47.194-15.193zm-16.723-32.861c1.168-0.155 2.14 0.044711 2.9666 0.5887 1.364 1.0358 2.238 2.4636 2.5794 3.6827 0.48522 1.854-0.7302 3.8854-1.4604 5.0121-1.168 1.6513-2.5778 4.2699-3.2575 5.4846-0.4378 0.80629-0.97518 1.2519-1.8982 0.43817-0.68121-0.56336-1.168-1.2966-1.168-2.3712 0-1.0313 0.63221-2.8928 2.238-5.1642 1.217-1.8928 2.5288-4.1239 1.8492-4.5009-1.8002-1.0239-12.453 7.2626-12.696 12.676-0.14699 3.1074 6.5181 4.8914 8.4131 5.9511 0.92619 0.53206 1.462 1.3041 1.462 2.1923 0 1.0761-0.63379 2.3757-1.8982 3.9942-1.266 1.5709-3.6478 2.8705-6.5671 3.255-3.5514 0.47096-8.2693-0.8212-12.113-4.568-0.67962-0.70793-0.33981-1.2668 0.34139-1.5902 0.39039-0.14606 0.92461-0.2638 1.5078-0.3413 1.4114-0.18779 2.7722 0.0074519 3.7933 0.66769 1.8982 1.246 5.1098 3.1596 7.9295 2.7855 1.07-0.14159 2.0436-0.50375 2.581-1.0895 0.72704-0.80033 0.48364-1.6081-0.050577-1.9598-3.5024-2.1551-10.264-3.787-10.264-8.5592 0-6.3624 7.5881-12.933 11.968-15.293 1.6042-0.8674 2.6268-1.1431 3.7443-1.2907z" fill="#0057FF" fill-rule="evenodd"/>
</svg>
