<?xml version="1.0" encoding="UTF-8"?>
<svg clip-rule="evenodd" fill-rule="evenodd" stroke-linejoin="round" stroke-miterlimit="1.4142" version="1.1" viewBox="0 0 46 52" xml:space="preserve" xmlns="http://www.w3.org/2000/svg"><g transform="matrix(.6863 0 0 .6863 -1.6427 -5.3923)"><path d="m56.881 27.161c-0.433 0.612-0.908 1.337-1.421 2.166-0.296 0.479-0.603 0.989-0.923 1.532-0.503 0.854-1.014 1.75-1.594 2.787-0.267 0.477-1.089 1.959-1.226 2.204-0.97 1.785-2.207 2.233-3.784 0.844-1.332-1.1-2.044-2.435-2.044-4.163 0-2.014 1.288-5.164 3.648-8.499 1.196-1.858 2.037-3.283 2.577-4.433 0.576-1.226 0.692-1.951 0.546-2.032-1.119-0.636-5.92 2.104-10.474 6.189-5.28 4.735-8.86 9.866-9.027 13.595-0.106 2.219 2.274 4.199 6.809 6.263 0.845 0.385 5.578 2.327 6.357 2.762 1.642 0.942 2.582 2.336 2.582 3.926 0 1.831-1.029 3.981-3.138 6.678-2.199 2.727-6.205 4.764-10.796 5.368-6.399 0.848-13.939-1.775-19.743-7.427-1.247-1.299-0.831-2.61 0.73-3.349 0.65-0.243 1.529-0.44 2.514-0.571 2.447-0.325 4.703 0.052 6.389 1.141 4.829 3.168 8.772 4.829 12.306 4.361 1.703-0.225 3.09-0.791 3.811-1.577 0.844-0.927 0.741-1.89 0.028-2.36-0.716-0.44-1.554-0.888-2.623-1.414-0.735-0.361-3.439-1.634-3.882-1.848-6.943-3.348-10.102-6.18-10.102-10.801 0-8.844 9.587-19.552 19.348-24.805 2.385-1.289 4.056-1.837 6.143-2.113 1.965-0.26 3.639 0.075 5.099 1.036 2.113 1.603 3.667 3.901 4.295 6.139 0.677 2.587-0.3 5.157-2.394 8.385l-0.419-0.273 0.408 0.289z" fill="#fff"/></g><g transform="matrix(.30905 0 0 .60807 6.345 21.81)"><path d="m-1.116 47.523s51.213-18.216 112.21-20.676c1.44-0.057 2.655 0.815 2.655 1.903 0 1.008-4.274 5.129-5.607 5.185-11.103 0.472-59.25 3.044-103.03 13.588 0 0.162-6.225 0.973-6.225 0" fill="#f7f7f7"/></g></svg>
