<svg width="138" height="59" xmlns="http://www.w3.org/2000/svg"><path d="M.142 58.139s58.672-18.254 133.265-21.263c1.76-.07 3.246.997 3.246 2.327 0 1.232-1.27 2.25-2.9 2.32-13.577.576-72.457 3.721-125.998 16.616 0 .198-7.613 1.19-7.613 0m119.776-48.15c1.65-2.968 2.91-4.953 3.103-4.886.292.147-.34 2.281-1.987 5.157-1.116 1.966-2.763 4.328-4.849 6.561.342-.839 2.473-4.617 3.733-6.832m17.791 10.177c.34.61.39 1.722-.144 3.05-1.165 2.811-4.025 5.193-6.786 5.56-2.958.391-4.559-1.4-4.559-3.917 0-2.983 2.57-6.914 4.995-10.076a11.58 11.58 0 0 1-3.54 1.214c-3.636 6.54-6.397 11.194-7.078 14.5-.193.865-.824 1.367-1.696.596-.663-.51-1.032-1.217-1.155-2.007-1.203.825-2.562 1.476-3.983 1.664-2.34.309-3.963-.512-4.548-2.454-1.68 2.064-4.218 3.755-6.508 4.059-3.297.437-5.09-1.051-5.09-3.568 0-.84.195-1.89.727-3.125.775-1.688 2.377-4.415 3.49-6.241 1.067-1.681 2.23-3.232 1.842-3.18-.388.05-1.405.651-4.266 3.78-3.782 4.136-6.106 8.872-8.143 13.476-.485.951-1.163 1.18-1.939.536-.73-.602-1.066-1.209-1.066-2.422 0-.791.385-2.334.872-3.566.678-1.765 2.278-4.494 3.585-6.626 1.31-2.269 2.668-4.222 2.23-4.163-.387.052-2.275 1.327-5.185 4.788-2.714 3.156-4.946 7.692-6.834 12.23-.342.792-.873 1.142-1.698.552a2.642 2.642 0 0 1-.833-.927c-1.335 1.093-2.862 1.883-4.354 2.082-2.86.378-4.317-.781-4.51-2.852-1.647 1.989-3.829 3.722-6.302 4.05-1.691.224-2.666-.484-3.122-1.589-1.614 1.549-3.722 2.637-5.459 2.866-3.103.41-4.8-1.417-4.8-4.166 0-2.423 2.568-7.19 5.236-10.573-1.31.686-2.668 1.148-3.782 1.34-3.49 7.919-8.921 14.975-15.077 15.79-4.46.593-6.883-1.88-6.883-5.518 0-1.63.485-3.56 1.454-5.551 2.57-5.096 6.398-8.21 9.211-8.585.63-.083 1.212-.066 1.697.149 1.454.646 2.325 1.369 2.86 2.277.726 1.394-.049 3.174-.972 5.116-.337.743-.726 1.494-.87 2.025-.341 1.025-.533 1.282-1.744.838-.97-.339-1.698-1.22-1.698-2.477 0-.7.631-2.323 1.115-3.457.483-1.046.968-2.04.727-2.195-.631-.383-3.734 2.873-5.77 7.101-.968 2.039-1.455 3.969-1.455 5.369 0 1.957.826 3.152 2.23 3.058 4.751-.444 9.938-7.935 12.458-14-1.016-.33-1.356-.986-1.356-1.87 0-2.47 3.2-6.297 4.848-6.561 1.018-.135 1.405.42 1.405 1.444 0 .979-.387 2.43-.92 4.037 1.357-.508 2.667-1.286 4.219-2.563.726-.608 1.502-.9 2.132-.33.774.737 1.358 1.778 1.358 2.991 0 .558-.242 1.29-.825 1.975-2.084 2.605-4.46 5.947-5.236 8.522-.242.73-.387 1.449-.387 2.148 0 1.165.387 1.813 1.115 1.764 1.534-.073 4.021-2.983 5.532-6.133 1.091-3.086 3.528-7.99 6.492-12.378.63-.878 1.503-.901 2.086-.278.53.582.726 1.348.726 2.048 0 1.91-3.54 7.785-5.236 11.6-.872 1.98-1.019 3.721.05 3.582 1.26-.168 3.83-3.676 6.303-7.732 2.859-4.855 4.119-8.19 5.862-10.564.68-.975 1.456-1.265 2.039-.55.485.587.726 1.303.726 2.327 0 1.585-1.018 3.77-2.716 6.7-1.405 2.373-3.295 5.794-3.295 7.611 0 .84.291 1.268.921 1.183 1.172-.154 2.81-2.102 4.291-4.376 1.144-3.09 4.488-9.706 7.345-14.268.63-.968 1.356-1.02 1.841-.245.436.643.679 1.401.679 2.148 0 .373-.047.798-.146 1.277 2.085-2.234 4.799-4.363 6.352-4.57 1.55-.205 2.57 1.338 2.57 3.295 2.179-2.153 4.748-4.079 6.301-4.237 1.405-.14 2.18 1.017 2.18 2.553 0 1.586-1.017 3.866-3.004 7.063-1.357 2.185-2.62 4.403-2.62 6.032 0 1.073.486 1.755 1.263 1.654 1.502-.2 3.876-3.779 5.672-6.858.12-.214.248-.364.376-.478 2.067-7.784 7.312-16.653 11.89-21.887.92-1.008 1.793-1.401 2.716-.686 1.065.746 1.597 1.978 1.597 3.192 0 .65-.047 1.17-.291 1.996-1.501 5.744-6.786 11.942-11.051 15.259-.97 2.505-1.6 4.684-1.6 6.317 0 1.118.29 1.871.921 1.788 2.23-.296 5.042-3.79 6.883-7.39.177-.35.39-.602.608-.773a75.154 75.154 0 0 1 3.464-5.033c-.581-.436-.92-.996-.92-1.603 0-2.377 3.103-6.096 4.604-6.295 1.018-.134 1.454.366 1.454 1.437 0 .888-.337 2.283-.871 3.844 1.162-.434 2.473-1.258 3.927-2.477.825-.666 1.309-.824 1.939-.303.679.563 1.405 1.68 1.405 2.797 0 .56-.241 1.243-.775 1.919-2.616 3.238-5.38 7.285-5.38 10.034 0 1.213.387 1.907 1.066 1.815 1.647-.217 3.588-3.082 5.089-6.499.387-.889 1.066-1.026 1.502-.246zM34.641 21.518c-1.164 1.645-2.57 4.253-3.246 5.463-.437.804-.972 1.248-1.892.437-.679-.561-1.164-1.292-1.164-2.362 0-1.028.63-2.882 2.23-5.145 1.213-1.885 2.52-4.108 1.843-4.483-1.794-1.02-12.41 7.235-12.653 12.627-.146 3.095 6.496 4.873 8.385 5.928.923.53 1.457 1.3 1.457 2.184 0 1.072-.632 2.367-1.892 3.979-1.262 1.565-3.636 2.86-6.545 3.242-3.54.47-8.24-.818-12.072-4.55-.677-.705-.338-1.262.34-1.584.39-.146.922-.263 1.503-.34 1.407-.187 2.763.007 3.78.665 1.892 1.241 5.093 3.147 7.903 2.775 1.066-.141 2.037-.502 2.572-1.085.725-.798.482-1.602-.05-1.953-3.49-2.147-10.229-3.772-10.229-8.526 0-6.338 7.562-12.884 11.927-15.234 1.599-.864 2.618-1.14 3.731-1.286 1.164-.155 2.133.044 2.957.586 1.36 1.032 2.23 2.454 2.57 3.669.484 1.847-.727 3.87-1.455 4.993z" fill="#00E7C2" fill-rule="evenodd"/></svg>