<?xml version="1.0" encoding="UTF-8"?>
<svg version="1.1" viewBox="0 0 113 49" xmlns="http://www.w3.org/2000/svg">
    <title>logo-scrumlr-on-light</title>
    <g fill="none" fill-rule="evenodd">
        <path d="m-7.1054e-15 48.523s47.977-14.927 108.97-17.387c1.44-0.057372 2.6546 0.81488 2.6546 1.903 0 1.0074-1.0381 1.8398-2.3712 1.8962-11.103 0.47162-59.25 3.0437-103.03 13.588 0 0.16239-6.225 0.97339-6.225 0m97.944-39.373c1.3486-2.4269 2.379-4.0501 2.5374-3.9954 0.23828 0.12019-0.27821 1.866-1.6255 4.2176-0.91191 1.6074-2.2592 3.5389-3.9645 5.3649 0.2795-0.68594 2.0222-3.7757 3.0526-5.587m-73.063 1.8655c0.95184-0.12626 1.744 0.036421 2.4176 0.47955 1.1116 0.84376 1.8238 2.0068 2.102 2.9999 0.39542 1.5103-0.59506 3.165-1.1901 4.0828-0.95184 1.3452-2.1008 3.4782-2.6546 4.4677-0.35678 0.6568-0.7947 1.0198-1.5469 0.35693-0.55513-0.45891-0.95184-1.0562-0.95184-1.9315 0-0.84012 0.51521-2.3565 1.8238-4.2067 0.10626-0.1652 0.21341-0.33356 0.31935-0.50288l0.20966-0.33929c0.79281-1.3006 1.4329-2.5719 0.97796-2.8242-1.467-0.83405-10.148 5.916-10.347 10.325-0.11979 2.5313 5.3118 3.9845 6.8561 4.8477 0.75478 0.43341 1.1914 1.0623 1.1914 1.7859 0 0.87654-0.51649 1.9352-1.5469 3.2536-1.0317 1.2796-2.9727 2.3383-5.3517 2.6515-2.8942 0.38364-6.7389-0.66894-9.8713-3.721-0.55385-0.57667-0.27692-1.0319 0.27821-1.2954 0.31814-0.11898 0.75349-0.21489 1.2288-0.27802 1.1502-0.15297 2.2592 0.0060702 3.0912 0.54389 1.5469 1.0149 4.1642 2.5738 6.462 2.269 0.87199-0.11533 1.6654-0.41035 2.1033-0.88747 0.59249-0.65194 0.39413-1.31-0.041216-1.5965-0.78947-0.48557-1.7821-0.93853-2.8052-1.422l-0.4737-0.22556c-2.5312-1.217-5.0855-2.6779-5.0855-5.3247 0-5.1828 6.1838-10.535 9.7528-12.457 1.3073-0.70657 2.1407-0.93117 3.0513-1.0514zm74.293-9.1558c0.7522-0.82434 1.4658-1.1461 2.2205-0.56089 0.8707 0.60945 1.306 1.6171 1.306 2.6102 0 0.53175-0.038641 0.95667-0.23828 1.6317-1.2275 4.6971-5.5488 9.7658-9.0367 12.478-0.79342 2.0481-1.3086 3.8303-1.3086 5.1658 0 0.91418 0.23699 1.5297 0.75349 1.4617 1.8238-0.24159 4.1229-3.0995 5.6286-6.0423 0.14426-0.28651 0.31814-0.4929 0.49717-0.63252 0.82948-1.31 1.8109-2.7656 2.8323-4.1156-0.47528-0.35693-0.7522-0.81462-0.7522-1.3112 0-1.9437 2.5374-4.9849 3.7649-5.1475 0.83206-0.10926 1.1888 0.29987 1.1888 1.1752 0 0.726-0.27564 1.8672-0.71227 3.1432 0.95056-0.3545 2.0222-1.0283 3.211-2.025 0.67492-0.54511 1.0703-0.67379 1.5855-0.24767 0.55513 0.46012 1.1489 1.3731 1.1489 2.2873 0 0.45769-0.19707 1.0162-0.6337 1.5685-2.1394 2.6478-4.3999 5.9573-4.3999 8.2057 0 0.99187 0.31685 1.5588 0.87199 1.4836 1.3473-0.17725 2.9341-2.5204 4.1616-5.3139 0.31685-0.72721 0.87199-0.8389 1.2288-0.20153 0.27692 0.49897 0.31814 1.4083-0.1185 2.4936-0.95184 2.2994-3.2909 4.2467-5.5488 4.5466-2.4189 0.32051-3.7275-1.1448-3.7275-3.2026 0-2.439 2.1008-5.6538 4.0843-8.2397-1.0317 0.55725-2.0235 0.84012-2.8942 0.99309-2.974 5.3479-5.2319 9.1539-5.7883 11.858-0.15843 0.70657-0.67363 1.1169-1.3872 0.48683-0.54225-0.41763-0.84365-0.99552-0.94411-1.6414-0.98404 0.67501-2.0956 1.2068-3.2574 1.3609-1.914 0.25252-3.2406-0.41885-3.7185-2.0068-1.3743 1.6875-3.4493 3.0703-5.3221 3.3192-2.6958 0.35693-4.1616-0.85954-4.1616-2.9173 0-0.68715 0.15843-1.5455 0.59377-2.5556 0.6337-1.3804 1.9436-3.6106 2.8542-5.1038 0.87199-1.3743 1.8238-2.643 1.5057-2.6005-0.31685 0.041278-1.1489 0.53297-3.4879 3.0922-3.0925 3.3811-4.9936 7.2539-6.659 11.019-0.39671 0.7782-0.95055 0.96517-1.5855 0.43827-0.59635-0.49169-0.87199-0.98823-0.87199-1.9801 0-0.64709 0.31556-1.9085 0.71356-2.9161 0.55385-1.4435 1.8625-3.6749 2.9315-5.4183 1.0716-1.8551 2.1819-3.4527 1.8238-3.4042-0.31685 0.042492-1.8612 1.0854-4.2401 3.9153-2.2192 2.5811-4.0444 6.29-5.5887 10-0.2795 0.6483-0.71356 0.93481-1.3885 0.45162-0.27692-0.1906-0.51263-0.44434-0.68136-0.75756-1.0909 0.89354-2.3403 1.5394-3.5601 1.7021-2.339 0.30958-3.5304-0.63859-3.6876-2.3322-1.3473 1.6268-3.1312 3.0436-5.1533 3.3119-1.3833 0.18332-2.1806-0.39578-2.5528-1.299-1.3202 1.2662-3.0436 2.1561-4.4643 2.3431-2.5374 0.33629-3.9259-1.1582-3.9259-3.4066 0-1.9813 2.1008-5.8796 4.2826-8.6452-1.0716 0.56089-2.1819 0.93846-3.0925 1.0963-2.8542 6.4745-7.2953 12.245-12.329 12.911-3.6477 0.4844-5.6286-1.5382-5.6286-4.5126 0-1.333 0.39671-2.9113 1.1888-4.5393 2.102-4.1666 5.2319-6.7137 7.5323-7.0196 0.51521-0.067986 0.99048-0.054632 1.3872 0.1214 1.1888 0.52811 1.9011 1.1193 2.339 1.8623 0.59377 1.14-0.039928 2.5956-0.7947 4.1836-0.27564 0.60702-0.59377 1.2213-0.71227 1.656-0.27821 0.83769-0.43535 1.0477-1.4258 0.68472-0.79342-0.2768-1.3885-0.99794-1.3885-2.025 0-0.57303 0.51649-1.9 0.91191-2.8275 0.39542-0.85469 0.79213-1.6681 0.59506-1.7944-0.51649-0.31322-3.0539 2.3492-4.718 5.8068-0.79213 1.6669-1.1901 3.2451-1.1901 4.39 0 1.6001 0.67492 2.5774 1.8238 2.5009 3.8847-0.363 8.1261-6.4891 10.187-11.448-0.83077-0.26952-1.109-0.80613-1.109-1.5285 0-2.0202 2.616-5.15 3.9645-5.3661 0.83206-0.11048 1.1489 0.34357 1.1489 1.1813 0 0.80006-0.31685 1.9862-0.7522 3.301 1.109-0.4152 2.1806-1.0514 3.4493-2.0954 0.59377-0.49776 1.2288-0.73571 1.744-0.26952 0.63242 0.60217 1.1103 1.4532 1.1103 2.4451 0 0.45648-0.19835 1.055-0.67492 1.6147-1.704 2.1306-3.6477 4.8635-4.2814 6.9686-0.19835 0.59731-0.31685 1.1849-0.31685 1.7567 0 0.95303 0.31685 1.4823 0.91191 1.4423 1.2545-0.059488 3.2883-2.439 4.5235-5.0152 0.89259-2.5228 2.8852-6.5328 5.3092-10.121 0.51521-0.7175 1.2288-0.73693 1.7053-0.22703 0.43406 0.47591 0.59377 1.1024 0.59377 1.6742 0 1.0268-1.2504 3.4533-2.501 5.882l-0.32545 0.63269c-0.53969 1.0515-1.0589 2.0804-1.4549 2.9719-0.71356 1.6183-0.83335 3.0424 0.039928 2.9283 1.0304-0.13719 3.1325-3.006 5.1546-6.3227 2.3377-3.9699 3.3682-6.6967 4.794-8.6379 0.55642-0.79763 1.1901-1.0344 1.6667-0.45041 0.39671 0.48076 0.59377 1.0659 0.59377 1.9036 0 1.2954-0.83206 3.0825-2.2205 5.4778-1.1489 1.9413-2.6945 4.7384-2.6945 6.2244 0 0.68715 0.23828 1.0368 0.75349 0.96759 0.95828-0.12626 2.2978-1.7191 3.5086-3.579 0.9351-2.5264 3.6696-7.9362 6.006-11.667 0.51521-0.79156 1.109-0.83405 1.5057-0.20032 0.35678 0.52568 0.55513 1.1461 0.55513 1.7567 0 0.30473-0.03864 0.65194-0.11979 1.0441 1.7053-1.8271 3.9246-3.5681 5.1946-3.7368 1.2674-0.16754 2.1008 1.0939 2.1008 2.694 1.7826-1.7604 3.8834-3.335 5.1533-3.4649 1.1489-0.11412 1.7826 0.83162 1.7826 2.0882 0 1.2966-0.83206 3.1614-2.4562 5.7752-1.1103 1.7871-2.142 3.6009-2.142 4.9327 0 0.87775 0.39671 1.435 1.0317 1.3524 1.2288-0.1639 3.1698-3.0897 4.6381-5.6077 0.099177-0.17482 0.20351-0.29744 0.30784-0.39092 1.6899-6.3652 5.979-13.618 9.7232-17.897z" fill="#0057FF" />
    </g>
</svg>
