<?xml version="1.0" encoding="UTF-8"?>
<svg version="1.1" viewBox="0 0 138 59" xmlns="http://www.w3.org/2000/svg"><g fill="none" fill-rule="evenodd"><g fill="#fff"><path d="m0 58.421s58.747-18.35 133.44-21.374c1.763-0.07 3.25 1.002 3.25 2.34 0 1.238-1.27 2.261-2.903 2.33-13.595 0.58-72.55 3.742-126.16 16.704 0 0.2-7.623 1.197-7.623 0m119.93-48.402c1.651-2.984 2.913-4.98 3.107-4.912 0.292 0.148-0.34 2.294-1.99 5.185-1.117 1.976-2.767 4.35-4.855 6.595 0.343-0.843 2.476-4.642 3.738-6.868m17.814 10.23c0.339 0.614 0.39 1.732-0.145 3.066-1.166 2.827-4.03 5.22-6.795 5.589-2.961 0.394-4.564-1.407-4.564-3.937 0-2.998 2.573-6.95 5.001-10.13-1.1067 0.59726-2.3034 1.01-3.543 1.222-3.642 6.574-6.407 11.253-7.088 14.576-0.194 0.869-0.825 1.373-1.699 0.599-0.664-0.514-1.033-1.224-1.156-2.018-1.205 0.83-2.566 1.483-3.988 1.673-2.344 0.31-3.968-0.515-4.554-2.467-1.682 2.074-4.223 3.774-6.516 4.08-3.301 0.44-5.096-1.056-5.096-3.586 0-0.845 0.194-1.9 0.727-3.142 0.776-1.697 2.38-4.438 3.495-6.274 1.068-1.69 2.233-3.249 1.844-3.197-0.388 0.051-1.407 0.655-4.271 3.802-3.787 4.156-6.115 8.917-8.154 13.545-0.486 0.957-1.164 1.187-1.942 0.539-0.73-0.605-1.067-1.215-1.067-2.434 0-0.796 0.386-2.347 0.873-3.585 0.679-1.775 2.281-4.518 3.59-6.661 1.312-2.28 2.672-4.245 2.233-4.185-0.388 0.052-2.279 1.334-5.192 4.813-2.717 3.173-4.952 7.733-6.843 12.294-0.342 0.797-0.874 1.149-1.7 0.555-0.34833-0.23973-0.63428-0.55929-0.834-0.932-1.336 1.099-2.866 1.893-4.36 2.093-2.864 0.38-4.323-0.785-4.515-2.867-1.65 2-3.834 3.741-6.31 4.071-1.694 0.226-2.67-0.486-3.126-1.597-1.617 1.557-3.727 2.65-5.466 2.88-3.107 0.414-4.808-1.423-4.808-4.187 0-2.436 2.573-7.228 5.244-10.628-1.312 0.69-2.671 1.154-3.786 1.348-3.495 7.96-8.933 15.053-15.097 15.872-4.466 0.596-6.892-1.89-6.892-5.547 0-1.639 0.486-3.58 1.456-5.58 2.574-5.123 6.406-8.254 9.223-8.63 0.63-0.083 1.213-0.067 1.699 0.15 1.455 0.649 2.327 1.375 2.864 2.289 0.727 1.401-0.05 3.19-0.973 5.143-0.338 0.746-0.727 1.501-0.873 2.035-0.34 1.03-0.533 1.288-1.745 0.842-0.972-0.34-1.7-1.227-1.7-2.49 0-0.704 0.632-2.335 1.116-3.475 0.484-1.05 0.97-2.05 0.729-2.206-0.633-0.385-3.74 2.888-5.777 7.138-0.97 2.05-1.458 3.99-1.458 5.397 0 1.967 0.827 3.169 2.233 3.075 4.757-0.447 9.95-7.978 12.474-14.074-1.017-0.332-1.358-0.991-1.358-1.88 0-2.483 3.203-6.33 4.855-6.596 1.018-0.136 1.406 0.422 1.406 1.452 0 0.984-0.388 2.442-0.92 4.058 1.357-0.51 2.67-1.292 4.223-2.576 0.727-0.612 1.505-0.904 2.135-0.331 0.775 0.74 1.36 1.786 1.36 3.006 0 0.56-0.243 1.297-0.826 1.985-2.087 2.619-4.467 5.978-5.243 8.566-0.243 0.735-0.388 1.457-0.388 2.16 0 1.171 0.388 1.822 1.117 1.773 1.536-0.073 4.026-2.998 5.539-6.165 1.093-3.102 3.532-8.031 6.5-12.443 0.632-0.882 1.505-0.906 2.089-0.279 0.531 0.585 0.727 1.355 0.727 2.058 0 1.92-3.546 7.827-5.243 11.662-0.873 1.99-1.02 3.74 0.05 3.6 1.261-0.169 3.835-3.695 6.311-7.773 2.863-4.88 4.124-8.232 5.87-10.619 0.682-0.98 1.457-1.271 2.041-0.553 0.486 0.59 0.727 1.31 0.727 2.34 0 1.592-1.019 3.79-2.719 6.734-1.407 2.386-3.3 5.825-3.3 7.652 0 0.844 0.292 1.274 0.923 1.19 1.174-0.156 2.814-2.114 4.296-4.4 1.145-3.106 4.494-9.757 7.355-14.343 0.63-0.973 1.358-1.025 1.843-0.246 0.437 0.646 0.68 1.409 0.68 2.16 0 0.374-0.047 0.8-0.147 1.283 2.089-2.246 4.806-4.387 6.361-4.594 1.552-0.206 2.572 1.345 2.572 3.312 2.183-2.164 4.755-4.1 6.31-4.26 1.407-0.14 2.183 1.023 2.183 2.567 0 1.594-1.019 3.887-3.007 7.1-1.36 2.197-2.623 4.426-2.623 6.064 0 1.079 0.486 1.764 1.263 1.662 1.505-0.201 3.882-3.798 5.68-6.893 0.12-0.215 0.249-0.366 0.376-0.48 2.07-7.826 7.322-16.742 11.906-22.003 0.921-1.013 1.795-1.408 2.72-0.69 1.065 0.75 1.598 1.989 1.598 3.21 0 0.653-0.047 1.176-0.291 2.006-1.503 5.774-6.795 12.005-11.066 15.339-0.971 2.518-1.602 4.709-1.602 6.35 0 1.124 0.29 1.88 0.923 1.797 2.233-0.297 5.048-3.81 6.892-7.428 0.176-0.352 0.39-0.606 0.609-0.777 1.087-1.7329 2.244-3.421 3.468-5.06-0.582-0.438-0.921-1.001-0.921-1.612 0-2.389 3.107-6.128 4.61-6.328 1.019-0.134 1.455 0.37 1.455 1.445 0 0.893-0.337 2.296-0.872 3.864 1.164-0.436 2.476-1.264 3.932-2.49 0.826-0.67 1.31-0.828 1.942-0.304 0.68 0.566 1.406 1.688 1.406 2.812 0 0.563-0.241 1.25-0.776 1.928-2.62 3.255-5.387 7.324-5.387 10.088 0 1.22 0.388 1.916 1.068 1.824 1.65-0.218 3.592-3.099 5.095-6.533 0.388-0.894 1.068-1.031 1.505-0.248zm-103.2 1.36c-1.166 1.653-2.573 4.275-3.251 5.492-0.437 0.807-0.973 1.253-1.894 0.438-0.68-0.564-1.166-1.298-1.166-2.374 0-1.033 0.63-2.897 2.233-5.171 1.215-1.896 2.524-4.13 1.846-4.508-1.797-1.025-12.427 7.273-12.67 12.694-0.146 3.111 6.505 4.898 8.396 5.959 0.924 0.533 1.458 1.306 1.458 2.195 0 1.078-0.632 2.38-1.894 4-1.263 1.573-3.64 2.875-6.553 3.26-3.544 0.471-8.251-0.823-12.087-4.575-0.678-0.709-0.34-1.268 0.34-1.592 0.39-0.146 0.923-0.264 1.505-0.342 1.409-0.188 2.767 7e-3 3.785 0.669 1.895 1.247 5.1 3.164 7.913 2.789 1.068-0.142 2.04-0.504 2.575-1.091 0.726-0.801 0.483-1.61-0.05-1.963-3.495-2.158-10.242-3.792-10.242-8.57 0-6.372 7.572-12.952 11.942-15.315 1.6-0.868 2.621-1.144 3.736-1.292 1.166-0.155 2.136 0.045 2.96 0.59 1.362 1.037 2.234 2.466 2.575 3.687 0.484 1.857-0.73 3.891-1.458 5.02h1e-3z"/></g></g></svg>
