<?xml version="1.0" encoding="UTF-8"?>
<svg width="172px" height="172px" viewBox="0 0 172 172" version="1.1" xmlns="http://www.w3.org/2000/svg" xmlns:xlink="http://www.w3.org/1999/xlink">
    <g id="Assets" stroke="none" stroke-width="1" fill="none" fill-rule="evenodd">
        <g id="phase3-02-define">
            <g id="circle-adjusted-copy-3" transform="translate(7.000000, 3.000000)">
                <circle id="Oval-4-Copy-4" stroke="#00E7C2" stroke-width="2" cx="83" cy="84" r="75"></circle>
                <circle id="Oval-4-Copy-5" stroke="#00E7C2" stroke-width="2" cx="76.5" cy="74.5" r="74.5"></circle>
                <circle id="Oval-4-Copy-6" stroke="#00E7C2" cx="75" cy="92" r="75.5"></circle>
                <ellipse id="Oval-4-Copy" stroke="#00E7C2" stroke-width="3" cx="74.5" cy="83" rx="66.5" ry="67"></ellipse>
                <g id="icon-actions" transform="translate(45.000000, 57.000000)" stroke="#FFFFFF" stroke-width="3" stroke-linecap="round">
                    <path d="M47.0551971,27.0464867 L52.8116569,32.7933361 C54.4736378,34.4149069 57.134189,34.40029 58.778166,32.7605564 C60.4221429,31.1208228 60.4372654,28.4666722 58.8120794,26.8084014 L44.567838,12.5920654 C41.9786509,10.0101629 39.1189834,9.76467055 36.0652064,12.812162 L35.1763334,13.6883158 C33.5095403,15.2795968 30.8736369,15.2505934 29.2424324,13.6230239 C27.6112279,11.9954543 27.5826207,9.36588465 29.1780323,7.70338119 L32.1787739,4.71408835 C35.6430448,1.25391576 37.6138394,0 40.5297244,0 L45.1331951,0 L64,18.8097945 L57.3917921,25.4021111" id="Shape"></path>
                    <path d="M47.4127099,27 L54.7439165,34.5051517 C55.826953,35.6139792 56.2501311,37.2303398 55.8540436,38.7453658 C55.4579562,40.2603919 54.3027784,41.4439151 52.8236545,41.8501136 C51.3445306,42.2563121 49.7661747,41.8234747 48.6831382,40.7146471 L42,33.8666488" id="Shape"></path>
                    <path d="M41.8239388,34 L46.873338,39.0119648 C48.4129889,40.6477093 48.3693778,43.1997333 46.7747219,44.7827509 C45.180066,46.3657686 42.6079387,46.4103927 40.958477,44.8836576 L38,41.9472921" id="Shape"></path>
                    <path d="M38.319819,42.4073817 L39.815342,43.8761926 C41.4234899,45.5338798 41.3903151,48.1456675 39.7405603,49.7636098 C38.0908055,51.3815522 35.425804,51.4159117 33.7331897,49.841062 L32.2376667,48.3711967 M6.93965724,25.7759717 L0,18.9738906 L17.2372479,2.07676614 C17.2372479,2.07676614 19.5311005,4.69384339 21.4591417,4.69384339 C23.7981827,4.69384339 24.37057,3.94942093 25.7628051,2.5849979 C28.0480503,0.343295144 31.4866774,0.409723777 34.3701319,3.23135904" id="Shape"></path>
                    <path d="M14.6028922,30.6467007 C15.7798441,29.5429933 16.2621076,27.8861075 15.8612458,26.3234461 C15.4603839,24.7607848 14.2400242,23.5403846 12.6770038,23.1390985 C11.1139834,22.7378124 9.45639585,23.2193353 8.35191841,24.3955194 L5.22809016,27.5205573 C3.56488511,29.2573262 3.59470793,32.004361 5.29522679,33.7046354 C6.99574566,35.4049099 9.7436558,35.4352089 11.4812756,33.772844 L14.6028922,30.6467007 Z" id="Shape"></path>
                    <path d="M20.7807271,36.0735161 C22.4524372,34.4549469 22.451958,31.8311915 20.7796567,30.2131945 C19.1073555,28.5951974 16.3964987,28.5956612 14.7247885,30.2142304 L10.1887214,34.6045509 C8.57883355,36.2321515 8.60770034,38.8065154 10.2537058,40.3999155 C11.8997113,41.9933155 14.559532,42.02171 16.241449,40.4638367 L20.7807271,36.0735161 Z M26.8313141,41.9328019 C28.4217855,40.3028124 28.3843491,37.7440979 26.7468285,36.1583507 C25.1093079,34.5726036 22.4656714,34.5350125 20.7807271,36.0735161 L17.7548985,39.0021231 C16.1556988,40.6313041 16.1896422,43.1972973 17.8314129,44.7863169 C19.4731836,46.3753365 22.1243607,46.4081893 23.8076261,44.8603729 L26.8313141,41.9328019 Z" id="Shape"></path>
                    <path d="M32.7466534,48.307138 C33.8278704,47.2255408 34.2499297,45.6492824 33.8538458,44.1721241 C33.4577618,42.6949659 32.3037091,41.5413233 30.8264081,41.1457623 C29.3491072,40.7502014 27.7729952,41.1728172 26.6917782,42.2544145 L25.2021377,43.7451224 C23.5796187,45.4244398 23.6023455,48.0942616 25.2532176,49.7457144 C26.9040896,51.3971672 29.5739082,51.420838 31.2538024,49.798916 L32.7466534,48.307138 Z" id="Shape"></path>
                </g>
            </g>
        </g>
    </g>
</svg>