<svg width="172" height="172" viewBox="0 0 172 172" xmlns="http://www.w3.org/2000/svg"><g transform="translate(7 3)" fill="none" fill-rule="evenodd"><circle stroke="#00E7C2" stroke-width="2" cx="83" cy="84" r="75"/><circle stroke="#00E7C2" stroke-width="2" cx="76.5" cy="74.5" r="74.5"/><circle stroke="#00E7C2" cx="75" cy="92" r="75.5"/><ellipse stroke="#00E7C2" stroke-width="3" cx="74.5" cy="83" rx="66.5" ry="67"/><g stroke="#FFF" stroke-width="3" stroke-linecap="round"><path d="M92.055 84.046l5.757 5.747a4.25 4.25 0 0 0 5.966-.032 4.225 4.225 0 0 0 .034-5.953L89.568 69.592c-2.59-2.582-5.449-2.827-8.503.22l-.889.876a4.25 4.25 0 0 1-5.934-.065 4.225 4.225 0 0 1-.064-5.92l3-2.989C80.644 58.254 82.615 57 85.53 57h4.603L109 75.81l-6.608 6.592"/><path d="M92.413 84l7.33 7.505a4.463 4.463 0 0 1 1.111 4.24c-.396 1.515-1.551 2.699-3.03 3.105a4.218 4.218 0 0 1-4.14-1.135L87 90.867M86.824 91l5.05 5.012a4.13 4.13 0 0 1-.1 5.77 4.21 4.21 0 0 1-5.816.102L83 98.947M83.32 99.407l1.495 1.47a4.158 4.158 0 0 1-.074 5.887 4.367 4.367 0 0 1-6.008.077l-1.495-1.47M51.94 82.776L45 75.974l17.237-16.897s2.294 2.617 4.222 2.617c2.34 0 2.912-.745 4.304-2.109 2.285-2.242 5.724-2.175 8.607.646"/><path d="M59.603 87.647a4.42 4.42 0 0 0-1.926-7.508 4.424 4.424 0 0 0-4.325 1.257l-3.124 3.125a4.42 4.42 0 0 0 .067 6.184 4.424 4.424 0 0 0 6.186.068l3.122-3.126z"/><path d="M65.78 93.074a4.05 4.05 0 0 0 0-5.86c-1.673-1.619-4.384-1.618-6.055 0l-4.536 4.39a4.05 4.05 0 0 0 .065 5.796c1.646 1.593 4.306 1.622 5.987.064l4.54-4.39zm6.051 5.859a4.049 4.049 0 0 0-.084-5.775c-1.638-1.585-4.281-1.623-5.966-.084l-3.026 2.928a4.05 4.05 0 0 0 .076 5.784c1.642 1.59 4.293 1.622 5.977.074l3.023-2.927zM77.747 105.307a4.28 4.28 0 1 0-6.055-6.053l-1.49 1.491a4.28 4.28 0 0 0 6.052 6.054l1.493-1.492z"/></g></g></svg>