<?xml version="1.0" encoding="UTF-8"?>
<svg width="172px" height="172px" viewBox="0 0 172 172" version="1.1" xmlns="http://www.w3.org/2000/svg" xmlns:xlink="http://www.w3.org/1999/xlink">
    <g id="Assets" stroke="none" stroke-width="1" fill="none" fill-rule="evenodd">
        <g id="phase1-01-create">
            <g transform="translate(6.000000, 3.000000)">
                <g id="icon-create" transform="translate(37.000000, 55.000000)">
                    <path d="M18.5,14.285835 L0.60043792,19.0820082 C0.33370487,19.1534792 0.17541362,19.4276476 0.24688453,19.6943807 L10.0820082,56.3995621 C10.1534792,56.6662951 10.4276476,56.8245864 10.6943807,56.7531155 L47.3995621,46.9179918 C47.6009168,46.8640389 47.7404747,46.6945763 47.7660454,46.5 L18.5,46.5 L18.5,14.285835 Z" id="Combined-Shape" stroke="#FFFFFF" stroke-width="3"></path>
                    <path d="M63.5,8.28583504 L63.5,46.5 L55.4327763,46.5 L71.3056193,50.7531155 C71.5723524,50.8245864 71.8465208,50.6662951 71.9179918,50.3995621 L81.7531155,13.6943807 C81.8245864,13.4276476 81.6662951,13.1534792 81.3995621,13.0820082 L63.5,8.28583504 Z" id="Combined-Shape" stroke="#FFFFFF" stroke-width="3"></path>
                    <path d="M20,3 L20,45 L62,45 L62,3 L20,3 Z M19,0 L63,0 C64.1045695,-2.02906125e-16 65,0.8954305 65,2 L65,46 C65,47.1045695 64.1045695,48 63,48 L19,48 C17.8954305,48 17,47.1045695 17,46 L17,2 C17,0.8954305 17.8954305,2.02906125e-16 19,0 Z" id="Rectangle-12" fill="#FFFFFF" fill-rule="nonzero"></path>
                    <path d="M41.5,16 L41.5,32" id="Line" stroke="#FFFFFF" stroke-width="3" stroke-linecap="square"></path>
                    <path d="M33.5,24 L49.5,24" id="Line-Copy" stroke="#FFFFFF" stroke-width="3" stroke-linecap="square"></path>
                </g>
                <g id="circle-adjusted" stroke="#00E7C2">
                    <circle id="Oval-4-Copy-4" stroke-width="2" cx="84" cy="84" r="75"></circle>
                    <circle id="Oval-4-Copy-5" stroke-width="2" cx="77.5" cy="74.5" r="74.5"></circle>
                    <circle id="Oval-4-Copy-6" cx="76" cy="92" r="75.5"></circle>
                    <ellipse id="Oval-4-Copy" stroke-width="3" cx="75.5" cy="83" rx="66.5" ry="67"></ellipse>
                </g>
            </g>
        </g>
    </g>
</svg>