<svg width="172" height="172" viewBox="0 0 172 172" xmlns="http://www.w3.org/2000/svg"><g fill="none" fill-rule="evenodd"><path d="M61.5 72.286l-17.9 4.796a.5.5 0 0 0-.353.612l9.835 36.706a.5.5 0 0 0 .612.353l36.706-9.835a.5.5 0 0 0 .366-.418H61.5V72.286zM106.5 66.286V104.5h-8.067l15.873 4.253a.5.5 0 0 0 .612-.353l9.835-36.706a.5.5 0 0 0-.353-.612l-17.9-4.796z" stroke="#FFF" stroke-width="3"/><path d="M63 61v42h42V61H63zm-1-3h44a2 2 0 0 1 2 2v44a2 2 0 0 1-2 2H62a2 2 0 0 1-2-2V60a2 2 0 0 1 2-2z" fill="#FFF" fill-rule="nonzero"/><path d="M84.5 74v16M76.5 82h16" stroke="#FFF" stroke-width="3" stroke-linecap="square"/><g stroke="#0057FF" transform="translate(6 3)"><circle stroke-width="2" cx="84" cy="84" r="75"/><circle stroke-width="2" cx="77.5" cy="74.5" r="74.5"/><circle cx="76" cy="92" r="75.5"/><ellipse stroke-width="3" cx="75.5" cy="83" rx="66.5" ry="67"/></g></g></svg>