<?xml version="1.0" encoding="UTF-8"?>
<svg width="172px" height="172px" viewBox="0 0 172 172" version="1.1" xmlns="http://www.w3.org/2000/svg" xmlns:xlink="http://www.w3.org/1999/xlink">
    <g id="Assets" stroke="none" stroke-width="1" fill="none" fill-rule="evenodd">
        <g id="phase1-02-communicate">
            <g id="icon-meaning" transform="translate(61.000000, 52.000000)" fill="#FFFFFF">
                <path d="M36.7376996,40.1320322 C34.5427549,41.8128715 33.1151545,44.2824337 32.7662327,47 L25.3906515,47 L25.3906515,34.2078774 C28.6791679,33.4366195 30.7095803,30.1853203 29.926634,26.9458974 C29.1422693,23.7071731 25.8424058,21.7063736 22.5538895,22.4783301 C19.2660823,23.249588 17.2349607,26.5015858 18.0186162,29.7403101 C18.5533458,31.9527863 20.3078831,33.6811306 22.5538895,34.2078774 L22.5538895,47 L15.1995839,47 C14.8414427,44.2691602 13.4074595,41.7877218 11.2068414,40.090116 C2.01005892,33.1306313 0.282470846,20.1435984 7.34813585,11.0841124 C14.4130917,2.02532515 27.596234,0.322829224 36.7930164,7.2830126 C45.9897989,14.243196 47.717387,27.2295303 40.6524311,36.2890162 C39.5255274,37.7344262 38.2085607,39.0261434 36.7376996,40.1320322 L36.7376996,40.1320322 Z M24.4924292,32 C22.5590986,31.9962121 20.9954644,30.4257591 21.0000099,28.4924277 C21.0045553,26.5598538 22.5742501,24.996219 24.5075807,25.0000069 C26.4371234,25.0045523 28,26.5704599 28,28.5000034 C27.9954546,30.4340924 26.4265174,32 24.4924292,32 L24.4924292,32 Z M26.4513889,61 L20.5555556,61 C17.4875,61 15,58.5380625 15,55.5 L15,50 L32,50 L32,55.5 C32,58.5380625 29.5125,61 26.4444444,61 L26.4513889,61 Z M26.2978146,0.113311012 C13.122151,-1.15385484 1.39895646,8.35235164 0.113421469,21.3469581 C-0.68914616,29.463574 2.80648173,37.4148463 9.36185413,42.3850071 C11.2773155,43.8604356 12.3959165,46.1238851 12.3937763,48.5210168 L12.3937763,55.5569182 C12.3937763,60.2196101 16.2268393,64 20.9544977,64 L27.0040741,64 C31.7317325,64 35.5647955,60.2196101 35.5647955,55.5569182 L35.5647955,48.5210168 C35.5555213,46.1597682 36.6505803,43.9272767 38.5325122,42.4694379 C49.072187,34.5695277 51.1231932,19.7378474 43.1124981,9.34300657 C39.0611367,4.08507739 32.9637629,0.738802653 26.2978146,0.113311012 L26.2978146,0.113311012 Z" id="Fill-1"></path>
            </g>
            <g id="circle-adjusted-copy" transform="translate(7.000000, 3.000000)" stroke="#00E7C2">
                <circle id="Oval-4-Copy-4" stroke-width="2" cx="83" cy="84" r="75"></circle>
                <circle id="Oval-4-Copy-5" stroke-width="2" cx="76.5" cy="74.5" r="74.5"></circle>
                <circle id="Oval-4-Copy-6" cx="75" cy="92" r="75.5"></circle>
                <ellipse id="Oval-4-Copy" stroke-width="3" cx="74.5" cy="83" rx="66.5" ry="67"></ellipse>
            </g>
        </g>
    </g>
</svg>