<svg width="172" height="172" xmlns="http://www.w3.org/2000/svg"><g fill="none" fill-rule="evenodd"><path d="M97.738 92.132A10.307 10.307 0 0 0 93.766 99h-7.375V86.208c3.288-.771 5.319-4.023 4.536-7.262-.785-3.239-4.085-5.24-7.373-4.468-3.288.772-5.319 4.024-4.535 7.262.534 2.213 2.289 3.941 4.535 4.468V99H76.2a10.447 10.447 0 0 0-3.993-6.91c-9.197-6.96-10.925-19.946-3.859-29.006 7.065-9.059 20.248-10.761 29.445-3.801 9.197 6.96 10.924 19.947 3.86 29.006a20.849 20.849 0 0 1-3.915 3.843zM85.492 84a3.5 3.5 0 1 1 .016-7A3.5 3.5 0 0 1 89 80.5a3.508 3.508 0 0 1-3.508 3.5zm1.96 29h-5.896c-3.068 0-5.556-2.462-5.556-5.5V102h17v5.5c0 3.038-2.487 5.5-5.556 5.5h.007zm-.154-60.887c-13.176-1.267-24.899 8.24-26.185 21.234-.802 8.117 2.693 16.068 9.249 21.038a7.738 7.738 0 0 1 3.032 6.136v7.036c0 4.663 3.833 8.443 8.56 8.443h6.05c4.728 0 8.56-3.78 8.56-8.443v-7.036a7.618 7.618 0 0 1 2.969-6.052c10.54-7.9 12.59-22.731 4.58-33.126-4.052-5.258-10.15-8.604-16.815-9.23z" fill="#FFF"/><g transform="translate(7 3)" stroke="#00E7C2"><circle stroke-width="2" cx="83" cy="84" r="75"/><circle stroke-width="2" cx="76.5" cy="74.5" r="74.5"/><circle cx="75" cy="92" r="75.5"/><ellipse stroke-width="3" cx="74.5" cy="83" rx="66.5" ry="67"/></g></g></svg>