<svg id="Ebene_1" data-name="Ebene 1" xmlns="http://www.w3.org/2000/svg" xmlns:xlink="http://www.w3.org/1999/xlink" viewBox="0 0 116.16 52.69"><defs><style>.cls-1{fill:#fff;}.cls-2{fill:none;}.cls-3{clip-path:url(#clip-path);}.cls-4{clip-path:url(#clip-path-2);}.cls-5{clip-path:url(#clip-path-3);}.cls-6{clip-path:url(#clip-path-4);}.cls-7{clip-path:url(#clip-path-5);}.cls-8{fill:#325aa6;}.cls-9{clip-path:url(#clip-path-6);}.cls-10{fill:#474797;}.cls-11{clip-path:url(#clip-path-8);}.cls-12{fill:#7a4795;}.cls-13{clip-path:url(#clip-path-10);}.cls-14{fill:#e7216b;}</style><clipPath id="clip-path" transform="translate(-73.15 -185.94)"><path class="cls-1" d="M75.3,233.46s48-14.92,109-17.39c1.44,0,2.65.82,2.65,1.9a2.22,2.22,0,0,1-2.37,1.9c-11.1.48-59.25,3-103,13.59,0,.16-6.22,1-6.22,0m97.94-39.37c1.35-2.43,2.38-4.05,2.54-4s-.28,1.86-1.63,4.22a29.23,29.23,0,0,1-4,5.36c.28-.68,2-3.77,3.05-5.59M100.18,196a3.46,3.46,0,0,1,2.41.48,5.94,5.94,0,0,1,2.1,3c.4,1.51-.6,3.17-1.19,4.09-1,1.34-2.1,3.47-2.65,4.46-.36.66-.8,1-1.55.36a2.38,2.38,0,0,1-1-1.93,8.53,8.53,0,0,1,1.82-4.21c.11-.16.22-.33.32-.5l.21-.34c.8-1.3,1.44-2.57,1-2.82-1.47-.83-10.15,5.92-10.35,10.32-.12,2.54,5.32,4,6.86,4.85a2.09,2.09,0,0,1,1.19,1.79,5.79,5.79,0,0,1-1.55,3.25,8.28,8.28,0,0,1-5.35,2.65,12.29,12.29,0,0,1-9.87-3.72c-.55-.57-.28-1,.28-1.3a6.45,6.45,0,0,1,1.23-.28,4.64,4.64,0,0,1,3.09.55c1.55,1,4.16,2.57,6.46,2.27a3.55,3.55,0,0,0,2.1-.89,1,1,0,0,0,0-1.6,30.65,30.65,0,0,0-2.8-1.42l-.48-.23c-2.53-1.21-5.08-2.68-5.08-5.32,0-5.19,6.18-10.54,9.75-12.46A8.13,8.13,0,0,1,100.18,196Zm74.29-9.15c.75-.83,1.47-1.15,2.22-.56a3.19,3.19,0,0,1,1.31,2.61,5.64,5.64,0,0,1-.24,1.63c-1.23,4.7-5.55,9.76-9,12.48a15.63,15.63,0,0,0-1.31,5.16c0,.92.24,1.53.75,1.46,1.83-.24,4.13-3.1,5.63-6a1.91,1.91,0,0,1,.5-.63c.83-1.31,1.81-2.77,2.84-4.12a1.66,1.66,0,0,1-.76-1.31c0-1.94,2.54-5,3.77-5.15.83-.1,1.19.3,1.19,1.18a11.55,11.55,0,0,1-.71,3.14,11.44,11.44,0,0,0,3.21-2c.67-.55,1.07-.68,1.58-.25a3.23,3.23,0,0,1,1.15,2.29,2.6,2.6,0,0,1-.63,1.57c-2.14,2.64-4.4,5.95-4.4,8.2,0,1,.31,1.56.87,1.49,1.35-.18,2.93-2.52,4.16-5.32.32-.73.87-.84,1.23-.2a3.07,3.07,0,0,1-.12,2.5,7.65,7.65,0,0,1-5.55,4.54,3,3,0,0,1-3.65-2.19,3.12,3.12,0,0,1-.08-1c0-2.44,2.1-5.65,4.09-8.24a9.6,9.6,0,0,1-2.9,1c-3,5.34-5.23,9.15-5.78,11.85-.16.71-.68,1.12-1.39.49a2.45,2.45,0,0,1-.94-1.64,7.64,7.64,0,0,1-3.26,1.36c-1.92.25-3.24-.42-3.72-2a9,9,0,0,1-5.32,3.32c-2.7.36-4.16-.86-4.16-2.91a6.44,6.44,0,0,1,.59-2.56c.63-1.38,1.94-3.61,2.85-5.1s1.83-2.64,1.51-2.6-1.15.53-3.49,3.09a39.37,39.37,0,0,0-6.66,11c-.4.78-.95,1-1.58.44a2.18,2.18,0,0,1-.87-2,9.53,9.53,0,0,1,.71-2.92,39.9,39.9,0,0,1,2.93-5.42c1.07-1.86,2.18-3.45,1.82-3.4s-1.86,1.08-4.24,3.91A38.55,38.55,0,0,0,143,214c-.28.65-.71.94-1.39.46a2.25,2.25,0,0,1-.68-.76,7.43,7.43,0,0,1-3.56,1.7c-2.34.31-3.53-.64-3.69-2.33a8.55,8.55,0,0,1-5.15,3.31A2.17,2.17,0,0,1,126,215a8.62,8.62,0,0,1-4.47,2.34,3.16,3.16,0,0,1-3.84-2.29,3,3,0,0,1-.08-1.12c0-2,2.1-5.88,4.28-8.64a11,11,0,0,1-3.09,1.1c-2.86,6.47-7.3,12.24-12.33,12.91-3.65.48-5.63-1.54-5.63-4.51a10.53,10.53,0,0,1,1.19-4.54c2.1-4.17,5.23-6.72,7.53-7a2.54,2.54,0,0,1,1.39.12,4.72,4.72,0,0,1,2.34,1.86c.59,1.14,0,2.6-.8,4.18a14.28,14.28,0,0,0-.71,1.66c-.28.84-.43,1-1.42.68a2,2,0,0,1-1.39-2,10.88,10.88,0,0,1,.91-2.83c.4-.85.79-1.67.6-1.79-.52-.32-3,2.35-4.72,5.8a11.05,11.05,0,0,0-1.19,4.39c0,1.6.68,2.58,1.83,2.5,3.88-.36,8.12-6.49,10.18-11.44a1.45,1.45,0,0,1-1.11-1.53c0-2,2.62-5.15,4-5.37.83-.11,1.15.35,1.15,1.18a12.45,12.45,0,0,1-.75,3.3,11.91,11.91,0,0,0,3.44-2.1c.6-.5,1.23-.73,1.75-.27a3.42,3.42,0,0,1,1.11,2.45,2.55,2.55,0,0,1-.68,1.61c-1.7,2.13-3.64,4.87-4.28,7a5.57,5.57,0,0,0-.31,1.76c0,.95.31,1.48.91,1.44,1.25-.06,3.29-2.44,4.52-5a50.42,50.42,0,0,1,5.31-10.13,1,1,0,0,1,1.39-.46,1.08,1.08,0,0,1,.32.24,2.48,2.48,0,0,1,.59,1.67c0,1-1.25,3.45-2.5,5.88l-.33.64c-.54,1.05-1.05,2.08-1.45,3-.71,1.62-.83,3,0,2.93,1-.14,3.13-3,5.15-6.33,2.34-4,3.37-6.7,4.8-8.63.55-.8,1.19-1,1.67-.45a2.82,2.82,0,0,1,.59,1.9c0,1.3-.83,3.08-2.22,5.47-1.15,1.94-2.7,4.74-2.7,6.23,0,.68.24,1,.76,1,.95-.13,2.3-1.72,3.51-3.58a80.84,80.84,0,0,1,6-11.67c.51-.79,1.1-.83,1.5-.2a3.17,3.17,0,0,1,.56,1.76,6,6,0,0,1-.12,1c1.7-1.82,3.92-3.56,5.19-3.73s2.1,1.09,2.1,2.69c1.78-1.76,3.88-3.33,5.15-3.46s1.79.83,1.79,2.08-.83,3.16-2.46,5.78c-1.11,1.79-2.14,3.6-2.14,4.93,0,.88.4,1.44,1,1.35,1.23-.16,3.17-3.09,4.64-5.6a1.49,1.49,0,0,1,.31-.4A49.7,49.7,0,0,1,174.47,186.8Z"/></clipPath><clipPath id="clip-path-2" transform="translate(-73.15 -185.94)"><rect class="cls-2" x="13.3" y="149.94" width="1440" height="1024"/></clipPath><clipPath id="clip-path-3" transform="translate(-73.15 -185.94)"><rect class="cls-2" x="73.3" y="213.94" width="115" height="21"/></clipPath><clipPath id="clip-path-4" transform="translate(-73.15 -185.94)"><path class="cls-2" d="M76.14,228.29l25.17-2.67a3,3,0,0,1,3.29,2.56v.11a2.9,2.9,0,0,1-2.46,3.29h-.1l-25.18,2.67a3,3,0,0,1-3.28-2.56l0-.12A2.9,2.9,0,0,1,76,228.3h.11Z"/></clipPath><clipPath id="clip-path-5" transform="translate(-73.15 -185.94)"><rect class="cls-2" x="75.3" y="215.94" width="112" height="18"/></clipPath><clipPath id="clip-path-6" transform="translate(-73.15 -185.94)"><path class="cls-2" d="M105.1,223.29l25.17-2.67a3,3,0,0,1,3.29,2.56v.11a2.9,2.9,0,0,1-2.46,3.29H131l-25.18,2.67a3,3,0,0,1-3.28-2.56l0-.12A2.9,2.9,0,0,1,105,223.3h.11Z"/></clipPath><clipPath id="clip-path-8" transform="translate(-73.15 -185.94)"><path class="cls-2" d="M132.9,219.29l25.17-2.67a3,3,0,0,1,3.29,2.56v.11a2.9,2.9,0,0,1-2.46,3.29h-.1l-25.17,2.67a3,3,0,0,1-3.29-2.56l0-.12a2.91,2.91,0,0,1,2.46-3.28h.11Z"/></clipPath><clipPath id="clip-path-10" transform="translate(-73.15 -185.94)"><path class="cls-2" d="M159.54,217.29l25.18-2.67a3,3,0,0,1,3.28,2.56l0,.11a2.9,2.9,0,0,1-2.46,3.29h-.1l-25.18,2.67A3,3,0,0,1,157,220.7l0-.12a2.9,2.9,0,0,1,2.46-3.28h.1Z"/></clipPath></defs><path class="cls-1" d="M75.3,233.46s48-14.92,109-17.39c1.44,0,2.65.82,2.65,1.9a2.22,2.22,0,0,1-2.37,1.9c-11.1.48-59.25,3-103,13.59,0,.16-6.22,1-6.22,0m97.94-39.37c1.35-2.43,2.38-4.05,2.54-4s-.28,1.86-1.63,4.22a29.23,29.23,0,0,1-4,5.36c.28-.68,2-3.77,3.05-5.59M100.18,196a3.46,3.46,0,0,1,2.41.48,5.94,5.94,0,0,1,2.1,3c.4,1.51-.6,3.17-1.19,4.09-1,1.34-2.1,3.47-2.65,4.46-.36.66-.8,1-1.55.36a2.38,2.38,0,0,1-1-1.93,8.53,8.53,0,0,1,1.82-4.21c.11-.16.22-.33.32-.5l.21-.34c.8-1.3,1.44-2.57,1-2.82-1.47-.83-10.15,5.92-10.35,10.32-.12,2.54,5.32,4,6.86,4.85a2.09,2.09,0,0,1,1.19,1.79,5.79,5.79,0,0,1-1.55,3.25,8.28,8.28,0,0,1-5.35,2.65,12.29,12.29,0,0,1-9.87-3.72c-.55-.57-.28-1,.28-1.3a6.45,6.45,0,0,1,1.23-.28,4.64,4.64,0,0,1,3.09.55c1.55,1,4.16,2.57,6.46,2.27a3.55,3.55,0,0,0,2.1-.89,1,1,0,0,0,0-1.6,30.65,30.65,0,0,0-2.8-1.42l-.48-.23c-2.53-1.21-5.08-2.68-5.08-5.32,0-5.19,6.18-10.54,9.75-12.46A8.13,8.13,0,0,1,100.18,196Zm74.29-9.15c.75-.83,1.47-1.15,2.22-.56a3.19,3.19,0,0,1,1.31,2.61,5.64,5.64,0,0,1-.24,1.63c-1.23,4.7-5.55,9.76-9,12.48a15.63,15.63,0,0,0-1.31,5.16c0,.92.24,1.53.75,1.46,1.83-.24,4.13-3.1,5.63-6a1.91,1.91,0,0,1,.5-.63c.83-1.31,1.81-2.77,2.84-4.12a1.66,1.66,0,0,1-.76-1.31c0-1.94,2.54-5,3.77-5.15.83-.1,1.19.3,1.19,1.18a11.55,11.55,0,0,1-.71,3.14,11.44,11.44,0,0,0,3.21-2c.67-.55,1.07-.68,1.58-.25a3.23,3.23,0,0,1,1.15,2.29,2.6,2.6,0,0,1-.63,1.57c-2.14,2.64-4.4,5.95-4.4,8.2,0,1,.31,1.56.87,1.49,1.35-.18,2.93-2.52,4.16-5.32.32-.73.87-.84,1.23-.2a3.07,3.07,0,0,1-.12,2.5,7.65,7.65,0,0,1-5.55,4.54,3,3,0,0,1-3.65-2.19,3.12,3.12,0,0,1-.08-1c0-2.44,2.1-5.65,4.09-8.24a9.6,9.6,0,0,1-2.9,1c-3,5.34-5.23,9.15-5.78,11.85-.16.71-.68,1.12-1.39.49a2.45,2.45,0,0,1-.94-1.64,7.64,7.64,0,0,1-3.26,1.36c-1.92.25-3.24-.42-3.72-2a9,9,0,0,1-5.32,3.32c-2.7.36-4.16-.86-4.16-2.91a6.44,6.44,0,0,1,.59-2.56c.63-1.38,1.94-3.61,2.85-5.1s1.83-2.64,1.51-2.6-1.15.53-3.49,3.09a39.37,39.37,0,0,0-6.66,11c-.4.78-.95,1-1.58.44a2.18,2.18,0,0,1-.87-2,9.53,9.53,0,0,1,.71-2.92,39.9,39.9,0,0,1,2.93-5.42c1.07-1.86,2.18-3.45,1.82-3.4s-1.86,1.08-4.24,3.91A38.55,38.55,0,0,0,143,214c-.28.65-.71.94-1.39.46a2.25,2.25,0,0,1-.68-.76,7.43,7.43,0,0,1-3.56,1.7c-2.34.31-3.53-.64-3.69-2.33a8.55,8.55,0,0,1-5.15,3.31A2.17,2.17,0,0,1,126,215a8.62,8.62,0,0,1-4.47,2.34,3.16,3.16,0,0,1-3.84-2.29,3,3,0,0,1-.08-1.12c0-2,2.1-5.88,4.28-8.64a11,11,0,0,1-3.09,1.1c-2.86,6.47-7.3,12.24-12.33,12.91-3.65.48-5.63-1.54-5.63-4.51a10.53,10.53,0,0,1,1.19-4.54c2.1-4.17,5.23-6.72,7.53-7a2.54,2.54,0,0,1,1.39.12,4.72,4.72,0,0,1,2.34,1.86c.59,1.14,0,2.6-.8,4.18a14.28,14.28,0,0,0-.71,1.66c-.28.84-.43,1-1.42.68a2,2,0,0,1-1.39-2,10.88,10.88,0,0,1,.91-2.83c.4-.85.79-1.67.6-1.79-.52-.32-3,2.35-4.72,5.8a11.05,11.05,0,0,0-1.19,4.39c0,1.6.68,2.58,1.83,2.5,3.88-.36,8.12-6.49,10.18-11.44a1.45,1.45,0,0,1-1.11-1.53c0-2,2.62-5.15,4-5.37.83-.11,1.15.35,1.15,1.18a12.45,12.45,0,0,1-.75,3.3,11.91,11.91,0,0,0,3.44-2.1c.6-.5,1.23-.73,1.75-.27a3.42,3.42,0,0,1,1.11,2.45,2.55,2.55,0,0,1-.68,1.61c-1.7,2.13-3.64,4.87-4.28,7a5.57,5.57,0,0,0-.31,1.76c0,.95.31,1.48.91,1.44,1.25-.06,3.29-2.44,4.52-5a50.42,50.42,0,0,1,5.31-10.13,1,1,0,0,1,1.39-.46,1.08,1.08,0,0,1,.32.24,2.48,2.48,0,0,1,.59,1.67c0,1-1.25,3.45-2.5,5.88l-.33.64c-.54,1.05-1.05,2.08-1.45,3-.71,1.62-.83,3,0,2.93,1-.14,3.13-3,5.15-6.33,2.34-4,3.37-6.7,4.8-8.63.55-.8,1.19-1,1.67-.45a2.82,2.82,0,0,1,.59,1.9c0,1.3-.83,3.08-2.22,5.47-1.15,1.94-2.7,4.74-2.7,6.23,0,.68.24,1,.76,1,.95-.13,2.3-1.72,3.51-3.58a80.84,80.84,0,0,1,6-11.67c.51-.79,1.1-.83,1.5-.2a3.17,3.17,0,0,1,.56,1.76,6,6,0,0,1-.12,1c1.7-1.82,3.92-3.56,5.19-3.73s2.1,1.09,2.1,2.69c1.78-1.76,3.88-3.33,5.15-3.46s1.79.83,1.79,2.08-.83,3.16-2.46,5.78c-1.11,1.79-2.14,3.6-2.14,4.93,0,.88.4,1.44,1,1.35,1.23-.16,3.17-3.09,4.64-5.6a1.49,1.49,0,0,1,.31-.4A49.7,49.7,0,0,1,174.47,186.8Z" transform="translate(-73.15 -185.94)"/><g class="cls-3"><g id="Gruppe_104" data-name="Gruppe 104"><g class="cls-4"><g id="Gruppe_103" data-name="Gruppe 103"><g id="Gruppe_102" data-name="Gruppe 102"><g class="cls-5"><g id="Gruppe_101" data-name="Gruppe 101"><g class="cls-6"><g id="Gruppe_94" data-name="Gruppe 94"><g class="cls-7"><g id="Gruppe_93" data-name="Gruppe 93"><path id="Pfad_81" data-name="Pfad 81" class="cls-8" d="M73.15,224.71l32.12-4L107,234.68l-32.12,3.95Z" transform="translate(-73.15 -185.94)"/></g></g></g></g><g class="cls-9"><g id="Gruppe_96" data-name="Gruppe 96"><g class="cls-7"><g id="Gruppe_95" data-name="Gruppe 95"><path id="Pfad_84" data-name="Pfad 84" class="cls-10" d="M100.11,219.71l34.1-4.18,1.8,14.63-34.1,4.19Z" transform="translate(-73.15 -185.94)"/></g></g></g></g><g class="cls-11"><g id="Gruppe_98" data-name="Gruppe 98"><g class="cls-7"><g id="Gruppe_97" data-name="Gruppe 97"><path id="Pfad_87" data-name="Pfad 87" class="cls-12" d="M127.91,215.71l34.1-4.18,1.8,14.63-34.1,4.19Z" transform="translate(-73.15 -185.94)"/></g></g></g></g><g class="cls-13"><g id="Gruppe_100" data-name="Gruppe 100"><g class="cls-7"><g id="Gruppe_99" data-name="Gruppe 99"><path id="Pfad_90" data-name="Pfad 90" class="cls-14" d="M154.73,215.18l33-4.05,1.6,13.06-33,4.05Z" transform="translate(-73.15 -185.94)"/></g></g></g></g></g></g></g></g></g></g></g></svg>