<svg width="48" height="50" viewBox="0 0 48 50" fill="none" xmlns="http://www.w3.org/2000/svg">
<mask id="mask0_616_16853" style="mask-type:luminance" maskUnits="userSpaceOnUse" x="0" y="0" width="48" height="50">
<path fill-rule="evenodd" clip-rule="evenodd" d="M47.2 33.508C47.794 33.519 48.135 34.66 47.946 35.997C47.771 37.235 47.206 38.197 46.656 38.197H46.363H45.856C40.079 38.218 21.131 39.106 2.53097 49.06C2.49997 49.253 -0.161035 49.896 0.00796532 48.696C0.00796532 48.696 22.048 33.074 47.2 33.508ZM30.48 0.646991C31.5078 0.466632 32.566 0.676693 33.447 1.23599C34.6733 2.16122 35.5759 3.45023 36.026 4.91899C36.511 6.77299 35.296 8.80399 34.566 9.93099C33.398 11.582 31.988 14.201 31.309 15.416C30.871 16.222 30.334 16.668 29.409 15.854C29.0424 15.5777 28.7457 15.2193 28.5429 14.8075C28.34 14.3957 28.2366 13.942 28.241 13.483C28.241 12.452 28.873 10.59 30.479 8.31899C31.696 6.42599 33.008 4.19499 32.328 3.81899C30.528 2.79499 19.875 11.082 19.628 16.495C19.481 19.602 26.146 21.386 28.041 22.446C28.4602 22.6449 28.8176 22.9538 29.0751 23.3398C29.3325 23.7259 29.4804 24.1745 29.503 24.638C29.503 25.714 28.869 27.014 27.603 28.632C25.8922 30.4922 23.5523 31.652 21.036 31.887C18.8055 32.0687 16.5625 31.7531 14.4688 30.9628C12.3751 30.1725 10.483 28.9273 8.92897 27.317C8.24897 26.609 8.58897 26.05 9.26997 25.727C9.75904 25.5599 10.2646 25.4456 10.778 25.386C12.0815 25.1563 13.4243 25.3928 14.571 26.054C16.471 27.3 19.681 29.214 22.5 28.84C23.4572 28.7729 24.365 28.3899 25.081 27.751C25.2293 27.6324 25.3482 27.481 25.4282 27.3088C25.5083 27.1366 25.5474 26.9482 25.5424 26.7583C25.5375 26.5685 25.4887 26.3823 25.3997 26.2145C25.3108 26.0467 25.1843 25.9017 25.03 25.791C21.53 23.636 14.766 22.004 14.766 17.232C14.766 10.87 22.354 4.29899 26.734 1.93899C27.8833 1.2614 29.1573 0.822015 30.48 0.646991Z" fill="white"/>
</mask>
<g mask="url(#mask0_616_16853)">
<mask id="mask1_616_16853" style="mask-type:luminance" maskUnits="userSpaceOnUse" x="-1" y="-1" width="50" height="52">
<path d="M49 -0.404297H-1V50.5957H49V-0.404297Z" fill="white"/>
</mask>
<g mask="url(#mask1_616_16853)">
<mask id="mask2_616_16853" style="mask-type:luminance" maskUnits="userSpaceOnUse" x="0" y="0" width="48" height="50">
<path d="M0 49.5957H48V0.595703H0V49.5957Z" fill="white"/>
</mask>
<g mask="url(#mask2_616_16853)">
<path d="M-1 -0.404297H49V50.5957H-1V-0.404297Z" fill="white"/>
</g>
</g>
</g>
</svg>
