<svg xmlns="http://www.w3.org/2000/svg" xmlns:xlink="http://www.w3.org/1999/xlink" width="112.701" height="47.994" viewBox="0 0 112.701 47.994">
  <defs>
    <clipPath id="clip-path">
      <path id="Pfad_80" data-name="Pfad 80" d="M0-.477S47.977-15.4,108.974-17.864c1.44-.057,2.655.815,2.655,1.9a2.228,2.228,0,0,1-2.371,1.9c-11.1.472-59.25,3.044-103.032,13.588C6.225-.315,0,.5,0-.477M97.944-39.85c1.349-2.427,2.379-4.05,2.537-4,.238.12-.278,1.866-1.625,4.218a29.128,29.128,0,0,1-3.965,5.365c.28-.686,2.022-3.776,3.053-5.587M24.881-37.985a3.413,3.413,0,0,1,2.418.48,5.937,5.937,0,0,1,2.1,3c.4,1.51-.6,3.165-1.19,4.083-.952,1.345-2.1,3.478-2.655,4.468-.357.657-.795,1.02-1.547.357a2.39,2.39,0,0,1-.952-1.932,8.448,8.448,0,0,1,1.824-4.207c.106-.165.213-.334.319-.5l.21-.339c.793-1.3,1.433-2.572.978-2.824-1.467-.834-10.148,5.916-10.347,10.325-.12,2.531,5.312,3.984,6.856,4.848a2.089,2.089,0,0,1,1.191,1.786,5.808,5.808,0,0,1-1.547,3.254,8.324,8.324,0,0,1-5.352,2.651,12.324,12.324,0,0,1-9.871-3.721c-.554-.577-.277-1.032.278-1.3a5.91,5.91,0,0,1,1.229-.278,4.594,4.594,0,0,1,3.091.544c1.547,1.015,4.164,2.574,6.462,2.269a3.53,3.53,0,0,0,2.1-.887,1,1,0,0,0-.041-1.6,30.629,30.629,0,0,0-2.805-1.422l-.474-.226c-2.531-1.217-5.085-2.678-5.085-5.325,0-5.183,6.184-10.535,9.753-12.457A8.107,8.107,0,0,1,24.881-37.985Zm74.293-9.156c.752-.824,1.466-1.146,2.22-.561a3.166,3.166,0,0,1,1.306,2.61,5.126,5.126,0,0,1-.238,1.632c-1.228,4.7-5.549,9.766-9.037,12.478a15.8,15.8,0,0,0-1.309,5.166c0,.914.237,1.53.753,1.462,1.824-.242,4.123-3.1,5.629-6.042a1.835,1.835,0,0,1,.5-.633c.829-1.31,1.811-2.766,2.832-4.116a1.667,1.667,0,0,1-.752-1.311c0-1.944,2.537-4.985,3.765-5.148.832-.109,1.189.3,1.189,1.175a11.189,11.189,0,0,1-.712,3.143,11.491,11.491,0,0,0,3.211-2.025c.675-.545,1.07-.674,1.586-.248a3.246,3.246,0,0,1,1.149,2.287,2.622,2.622,0,0,1-.634,1.569c-2.139,2.648-4.4,5.957-4.4,8.206,0,.992.317,1.559.872,1.484,1.347-.177,2.934-2.52,4.162-5.314.317-.727.872-.839,1.229-.2a3.066,3.066,0,0,1-.119,2.494,7.665,7.665,0,0,1-5.549,4.547,3.013,3.013,0,0,1-3.728-3.2c0-2.439,2.1-5.654,4.084-8.24a9.47,9.47,0,0,1-2.894.993c-2.974,5.348-5.232,9.154-5.788,11.858-.158.707-.674,1.117-1.387.487a2.5,2.5,0,0,1-.944-1.641,7.668,7.668,0,0,1-3.257,1.361c-1.914.253-3.241-.419-3.718-2.007a9.1,9.1,0,0,1-5.322,3.319c-2.7.357-4.162-.86-4.162-2.917a6.514,6.514,0,0,1,.594-2.556c.634-1.38,1.944-3.611,2.854-5.1.872-1.374,1.824-2.643,1.506-2.6s-1.149.533-3.488,3.092a39.159,39.159,0,0,0-6.659,11.019c-.4.778-.951.965-1.586.438a2.218,2.218,0,0,1-.872-1.98,9.919,9.919,0,0,1,.714-2.916A40.65,40.65,0,0,1,75.7-30.5c1.072-1.855,2.182-3.453,1.824-3.4-.317.042-1.861,1.085-4.24,3.915a38.518,38.518,0,0,0-5.589,10c-.279.648-.714.935-1.388.452a2.16,2.16,0,0,1-.681-.758,7.384,7.384,0,0,1-3.56,1.7c-2.339.31-3.53-.639-3.688-2.332a8.576,8.576,0,0,1-5.153,3.312,2.168,2.168,0,0,1-2.553-1.3,8.611,8.611,0,0,1-4.464,2.343,3.167,3.167,0,0,1-3.926-3.407c0-1.981,2.1-5.88,4.283-8.645a11.019,11.019,0,0,1-3.093,1.1c-2.854,6.475-7.3,12.245-12.329,12.911-3.648.484-5.629-1.538-5.629-4.513a10.68,10.68,0,0,1,1.189-4.539c2.1-4.167,5.232-6.714,7.532-7.02a2.591,2.591,0,0,1,1.387.121A4.748,4.748,0,0,1,37.964-28.7c.594,1.14-.04,2.6-.795,4.184a14.105,14.105,0,0,0-.712,1.656c-.278.838-.435,1.048-1.426.685A2.061,2.061,0,0,1,33.642-24.2a10.9,10.9,0,0,1,.912-2.828c.4-.855.792-1.668.6-1.794-.516-.313-3.054,2.349-4.718,5.807a10.952,10.952,0,0,0-1.19,4.39c0,1.6.675,2.577,1.824,2.5,3.885-.363,8.126-6.489,10.187-11.448a1.44,1.44,0,0,1-1.109-1.528c0-2.02,2.616-5.15,3.965-5.366.832-.11,1.149.344,1.149,1.181a12.165,12.165,0,0,1-.752,3.3,11.943,11.943,0,0,0,3.449-2.1c.594-.5,1.229-.736,1.744-.27a3.4,3.4,0,0,1,1.11,2.445,2.594,2.594,0,0,1-.675,1.615c-1.7,2.131-3.648,4.863-4.281,6.969a5.6,5.6,0,0,0-.317,1.757c0,.953.317,1.482.912,1.442,1.255-.059,3.288-2.439,4.524-5.015a50.139,50.139,0,0,1,5.309-10.121,1.038,1.038,0,0,1,1.705-.227,2.466,2.466,0,0,1,.594,1.674c0,1.027-1.25,3.453-2.5,5.882l-.325.633c-.54,1.051-1.059,2.08-1.455,2.972-.714,1.618-.833,3.042.04,2.928,1.03-.137,3.132-3.006,5.155-6.323,2.338-3.97,3.368-6.7,4.794-8.638.556-.8,1.19-1.034,1.667-.45a2.806,2.806,0,0,1,.594,1.9c0,1.3-.832,3.082-2.221,5.478-1.149,1.941-2.695,4.738-2.695,6.224,0,.687.238,1.037.753.968.958-.126,2.3-1.719,3.509-3.579A81.958,81.958,0,0,1,71.9-35.486c.515-.792,1.109-.834,1.506-.2a3.161,3.161,0,0,1,.555,1.757,5.2,5.2,0,0,1-.12,1.044c1.705-1.827,3.925-3.568,5.195-3.737s2.1,1.094,2.1,2.694c1.783-1.76,3.883-3.335,5.153-3.465,1.149-.114,1.783.832,1.783,2.088,0,1.3-.832,3.161-2.456,5.775-1.11,1.787-2.142,3.6-2.142,4.933,0,.878.4,1.435,1.032,1.352,1.229-.164,3.17-3.09,4.638-5.608a1.515,1.515,0,0,1,.308-.391A49.85,49.85,0,0,1,99.174-47.141Z" fill="none" clip-rule="evenodd"/>
    </clipPath>
    <clipPath id="clip-path-2">
      <path id="Pfad_79" data-name="Pfad 79" d="M-62,940H1378V-84H-62Z" fill="none"/>
    </clipPath>
    <clipPath id="clip-path-3">
      <rect id="Rechteck_66" data-name="Rechteck 66" width="115" height="50" transform="translate(-1 -49)" fill="none"/>
    </clipPath>
    <clipPath id="clip-path-4">
      <path id="Pfad_78" data-name="Pfad 78" d="M0,0H113V-48H0Z" fill="none"/>
    </clipPath>
    <clipPath id="clip-path-5">
      <path id="Pfad_94" data-name="Pfad 94" d="M3-3.477S50.977-18.4,111.974-20.864c1.44-.057,2.655.815,2.655,1.9a2.228,2.228,0,0,1-2.371,1.9c-11.1.472-59.25,3.044-103.032,13.588,0,.162-6.225.973-6.225,0M100.944-42.85c1.349-2.427,2.379-4.05,2.537-4,.238.12-.278,1.866-1.625,4.218a29.128,29.128,0,0,1-3.965,5.365c.28-.686,2.022-3.776,3.053-5.587M27.881-40.985a3.413,3.413,0,0,1,2.418.48,5.937,5.937,0,0,1,2.1,3c.4,1.51-.6,3.165-1.19,4.083-.952,1.345-2.1,3.478-2.655,4.468-.357.657-.795,1.02-1.547.357a2.39,2.39,0,0,1-.952-1.932,8.448,8.448,0,0,1,1.824-4.207c.106-.165.213-.334.319-.5l.21-.339c.793-1.3,1.433-2.572.978-2.824-1.467-.834-10.148,5.916-10.347,10.325-.12,2.531,5.312,3.984,6.856,4.848a2.089,2.089,0,0,1,1.191,1.786,5.808,5.808,0,0,1-1.547,3.254,8.324,8.324,0,0,1-5.352,2.651,12.324,12.324,0,0,1-9.871-3.721c-.554-.577-.277-1.032.278-1.3a5.91,5.91,0,0,1,1.229-.278,4.594,4.594,0,0,1,3.091.544c1.547,1.015,4.164,2.574,6.462,2.269a3.53,3.53,0,0,0,2.1-.887,1,1,0,0,0-.041-1.6,30.629,30.629,0,0,0-2.805-1.422l-.474-.226c-2.531-1.217-5.085-2.678-5.085-5.325,0-5.183,6.184-10.535,9.753-12.457A8.107,8.107,0,0,1,27.881-40.985Zm74.293-9.156c.752-.824,1.466-1.146,2.22-.561a3.166,3.166,0,0,1,1.306,2.61,5.126,5.126,0,0,1-.238,1.632c-1.228,4.7-5.549,9.766-9.037,12.478a15.8,15.8,0,0,0-1.309,5.166c0,.914.237,1.53.753,1.462,1.824-.242,4.123-3.1,5.629-6.042a1.834,1.834,0,0,1,.5-.633c.829-1.31,1.811-2.766,2.832-4.116a1.667,1.667,0,0,1-.752-1.311c0-1.944,2.537-4.985,3.765-5.148.832-.109,1.189.3,1.189,1.175a11.189,11.189,0,0,1-.712,3.143,11.491,11.491,0,0,0,3.211-2.025c.675-.545,1.07-.674,1.586-.248a3.246,3.246,0,0,1,1.149,2.287,2.622,2.622,0,0,1-.634,1.569c-2.139,2.648-4.4,5.957-4.4,8.206,0,.992.317,1.559.872,1.484,1.347-.177,2.934-2.52,4.162-5.314.317-.727.872-.839,1.229-.2a3.066,3.066,0,0,1-.119,2.494,7.665,7.665,0,0,1-5.549,4.547,3.013,3.013,0,0,1-3.728-3.2c0-2.439,2.1-5.654,4.084-8.24a9.47,9.47,0,0,1-2.894.993c-2.974,5.348-5.232,9.154-5.788,11.858-.158.707-.674,1.117-1.387.487a2.5,2.5,0,0,1-.944-1.641,7.668,7.668,0,0,1-3.257,1.361c-1.914.253-3.241-.419-3.718-2.007a9.1,9.1,0,0,1-5.322,3.319c-2.7.357-4.162-.86-4.162-2.917a6.514,6.514,0,0,1,.594-2.556c.634-1.38,1.944-3.611,2.854-5.1.872-1.374,1.824-2.643,1.506-2.6s-1.149.533-3.488,3.092a39.158,39.158,0,0,0-6.659,11.019c-.4.778-.951.965-1.586.438a2.218,2.218,0,0,1-.872-1.98,9.919,9.919,0,0,1,.714-2.916A40.65,40.65,0,0,1,78.7-33.5c1.072-1.855,2.182-3.453,1.824-3.4-.317.042-1.861,1.085-4.24,3.915a38.518,38.518,0,0,0-5.589,10c-.279.648-.714.935-1.388.452a2.16,2.16,0,0,1-.681-.758,7.384,7.384,0,0,1-3.56,1.7c-2.339.31-3.53-.639-3.688-2.332a8.576,8.576,0,0,1-5.153,3.312,2.168,2.168,0,0,1-2.553-1.3,8.611,8.611,0,0,1-4.464,2.343,3.167,3.167,0,0,1-3.926-3.407c0-1.981,2.1-5.88,4.283-8.645a11.019,11.019,0,0,1-3.093,1.1c-2.854,6.475-7.3,12.245-12.329,12.911-3.648.484-5.629-1.538-5.629-4.513a10.68,10.68,0,0,1,1.189-4.539c2.1-4.167,5.232-6.714,7.532-7.02a2.591,2.591,0,0,1,1.387.121A4.748,4.748,0,0,1,40.964-31.7c.594,1.14-.04,2.6-.795,4.184a14.105,14.105,0,0,0-.712,1.656c-.278.838-.435,1.048-1.426.685A2.061,2.061,0,0,1,36.642-27.2a10.9,10.9,0,0,1,.912-2.828c.4-.855.792-1.668.6-1.794-.516-.313-3.054,2.349-4.718,5.807a10.952,10.952,0,0,0-1.19,4.39c0,1.6.675,2.577,1.824,2.5,3.885-.363,8.126-6.489,10.187-11.448a1.44,1.44,0,0,1-1.109-1.528c0-2.02,2.616-5.15,3.965-5.366.832-.11,1.149.344,1.149,1.181a12.165,12.165,0,0,1-.752,3.3,11.943,11.943,0,0,0,3.449-2.1c.594-.5,1.229-.736,1.744-.27a3.4,3.4,0,0,1,1.11,2.445,2.594,2.594,0,0,1-.675,1.615c-1.7,2.131-3.648,4.863-4.281,6.969a5.6,5.6,0,0,0-.317,1.757c0,.953.317,1.482.912,1.442,1.255-.059,3.288-2.439,4.524-5.015a50.139,50.139,0,0,1,5.309-10.121,1.038,1.038,0,0,1,1.705-.227,2.466,2.466,0,0,1,.594,1.674c0,1.027-1.25,3.453-2.5,5.882l-.325.633c-.54,1.051-1.059,2.08-1.455,2.972-.714,1.618-.833,3.042.04,2.928,1.03-.137,3.132-3.006,5.155-6.323,2.338-3.97,3.368-6.7,4.794-8.638.556-.8,1.19-1.034,1.667-.45a2.806,2.806,0,0,1,.594,1.9c0,1.3-.832,3.082-2.221,5.478-1.149,1.941-2.695,4.738-2.695,6.224,0,.687.238,1.037.753.968.958-.126,2.3-1.719,3.509-3.579A81.958,81.958,0,0,1,74.9-38.486c.515-.792,1.109-.834,1.506-.2a3.161,3.161,0,0,1,.555,1.757,5.2,5.2,0,0,1-.12,1.044c1.705-1.827,3.925-3.568,5.195-3.737s2.1,1.094,2.1,2.694c1.783-1.76,3.883-3.335,5.153-3.465,1.149-.114,1.783.832,1.783,2.088,0,1.3-.832,3.161-2.456,5.775-1.11,1.787-2.142,3.6-2.142,4.933,0,.878.4,1.435,1.032,1.352,1.229-.164,3.17-3.09,4.638-5.608a1.515,1.515,0,0,1,.308-.391A49.851,49.851,0,0,1,102.174-50.141Z" fill="none" clip-rule="evenodd"/>
    </clipPath>
    <clipPath id="clip-path-6">
      <path id="Pfad_93" data-name="Pfad 93" d="M-59,937H1381V-87H-59Z" fill="none"/>
    </clipPath>
    <clipPath id="clip-path-7">
      <rect id="Rechteck_68" data-name="Rechteck 68" width="115" height="21" transform="translate(1 -23)" fill="none"/>
    </clipPath>
    <clipPath id="clip-path-8">
      <path id="Pfad_83" data-name="Pfad 83" d="M3.842-8.649l25.175-2.668A3,3,0,0,1,32.3-8.757l.016.112a2.9,2.9,0,0,1-2.465,3.282l-.1.013L4.577-2.682A3,3,0,0,1,1.291-5.243l-.016-.112A2.9,2.9,0,0,1,3.74-8.637Z" fill="none" clip-rule="evenodd"/>
    </clipPath>
    <clipPath id="clip-path-9">
      <path id="Pfad_82" data-name="Pfad 82" d="M3-3H115V-21H3Z" fill="none"/>
    </clipPath>
    <clipPath id="clip-path-10">
      <path id="Pfad_86" data-name="Pfad 86" d="M32.8-13.649l25.175-2.668a3,3,0,0,1,3.286,2.561l.016.112a2.9,2.9,0,0,1-2.465,3.282l-.1.013L33.538-7.682a3,3,0,0,1-3.286-2.561l-.016-.112A2.9,2.9,0,0,1,32.7-13.637Z" fill="none" clip-rule="evenodd"/>
    </clipPath>
    <clipPath id="clip-path-12">
      <path id="Pfad_89" data-name="Pfad 89" d="M60.6-17.649l25.175-2.668a3,3,0,0,1,3.286,2.561l.016.112a2.9,2.9,0,0,1-2.465,3.282l-.1.013L61.34-11.682a3,3,0,0,1-3.286-2.561l-.016-.112A2.9,2.9,0,0,1,60.5-17.637Z" fill="none" clip-rule="evenodd"/>
    </clipPath>
    <clipPath id="clip-path-14">
      <path id="Pfad_92" data-name="Pfad 92" d="M87.248-19.649l25.175-2.668a3,3,0,0,1,3.286,2.561l.016.112a2.9,2.9,0,0,1-2.465,3.282l-.1.013L87.983-13.682A3,3,0,0,1,84.7-16.243l-.016-.112a2.9,2.9,0,0,1,2.465-3.282Z" fill="none" clip-rule="evenodd"/>
    </clipPath>
  </defs>
  <g id="Gruppe_106" data-name="Gruppe 106" transform="translate(-2669 -96)">
    <g id="Gruppe_92" data-name="Gruppe 92" transform="translate(2669 144)">
      <g id="Gruppe_91" data-name="Gruppe 91" clip-path="url(#clip-path)">
        <g id="Gruppe_90" data-name="Gruppe 90" clip-path="url(#clip-path-2)">
          <g id="Gruppe_89" data-name="Gruppe 89" style="isolation: isolate">
            <g id="Gruppe_88" data-name="Gruppe 88" clip-path="url(#clip-path-3)">
              <g id="Gruppe_87" data-name="Gruppe 87" clip-path="url(#clip-path-4)">
                <path id="Pfad_77" data-name="Pfad 77" d="M-1-49H114V1H-1Z" fill="#fff"/>
              </g>
            </g>
          </g>
        </g>
      </g>
    </g>
    <g id="Gruppe_105" data-name="Gruppe 105" transform="translate(2666 147)">
      <g id="Gruppe_104" data-name="Gruppe 104" clip-path="url(#clip-path-5)">
        <g id="Gruppe_103" data-name="Gruppe 103" clip-path="url(#clip-path-6)">
          <g id="Gruppe_102" data-name="Gruppe 102" style="isolation: isolate">
            <g id="Gruppe_101" data-name="Gruppe 101" clip-path="url(#clip-path-7)">
              <g id="Gruppe_94" data-name="Gruppe 94" clip-path="url(#clip-path-8)">
                <g id="Gruppe_93" data-name="Gruppe 93" clip-path="url(#clip-path-9)">
                  <path id="Pfad_81" data-name="Pfad 81" d="M.859-12.233l32.118-3.944L34.686-2.255,2.568,1.688Z" fill="#0057ff"/>
                </g>
              </g>
              <g id="Gruppe_96" data-name="Gruppe 96" clip-path="url(#clip-path-10)">
                <g id="Gruppe_95" data-name="Gruppe 95" clip-path="url(#clip-path-9)">
                  <path id="Pfad_84" data-name="Pfad 84" d="M27.81-17.225l34.1-4.187,1.8,14.638-34.1,4.187Z" fill="#5e00ff"/>
                </g>
              </g>
              <g id="Gruppe_98" data-name="Gruppe 98" clip-path="url(#clip-path-12)">
                <g id="Gruppe_97" data-name="Gruppe 97" clip-path="url(#clip-path-9)">
                  <path id="Pfad_87" data-name="Pfad 87" d="M55.611-21.225l34.1-4.187,1.8,14.637-34.1,4.187Z" fill="#c000ff"/>
                </g>
              </g>
              <g id="Gruppe_100" data-name="Gruppe 100" clip-path="url(#clip-path-14)">
                <g id="Gruppe_99" data-name="Gruppe 99" clip-path="url(#clip-path-9)">
                  <path id="Pfad_90" data-name="Pfad 90" d="M82.435-21.759l32.982-4.05,1.6,13.057L84.038-8.7Z" fill="#ff0069"/>
                </g>
              </g>
            </g>
          </g>
        </g>
      </g>
    </g>
  </g>
</svg>
