<svg xmlns="http://www.w3.org/2000/svg" xmlns:xlink="http://www.w3.org/1999/xlink" width="113" height="48" viewBox="0 0 113 48"><defs><path id="a" d="M0,71.5230462 C0,71.5230462 47.9772451,56.5964835 108.973739,54.1362748 C110.413739,54.0789023 111.628336,54.9511581 111.628336,56.03929 C111.628336,57.0467114 110.590197,57.8790982 109.257102,57.9354983 C98.1544186,58.4071193 50.0071556,60.9791557 6.22497317,71.5230462 C6.22497317,71.6854394 0,72.4964332 0,71.5230462 M97.9439571,32.1497058 C99.2925081,29.7228305 100.322919,28.0996527 100.481345,28.1542847 C100.719628,28.2744752 100.203134,30.0202714 98.8558712,32.371876 C97.9439571,33.9792712 96.5966941,35.9108163 94.8913631,37.7367395 C95.1708623,37.0508042 96.9135456,33.9610605 97.9439571,32.1497058 M24.8810877,34.0152069 C25.8329302,33.8889462 26.625059,34.0516282 27.2986905,34.4947545 C28.4102469,35.3385156 29.1225188,36.5015704 29.4007299,37.494659 C29.7961503,39.0049305 28.8056673,40.6596735 28.2106047,41.5774912 C27.2587621,42.9226528 26.1098533,45.0557293 25.5560072,46.0451757 C25.1992272,46.7019739 24.7613023,47.0649732 24.009102,46.4021048 C23.4539678,45.9431959 23.0572594,45.345886 23.0572594,44.4705597 C23.0572594,43.6304408 23.5724651,42.114099 24.8810877,40.2638949 C24.9873488,40.0986981 25.0944972,39.9303377 25.2004415,39.7610101 L25.4101053,39.4217164 C26.2029123,38.121137 26.8430095,36.8497844 26.3880644,36.5974799 C24.9210161,35.7634312 16.2397996,42.5135197 16.0414454,46.92293 C15.9216601,49.4542132 21.3532165,50.9074247 22.8975456,51.7706104 C23.652322,52.2040244 24.0889589,52.8328995 24.0889589,53.5564702 C24.0889589,54.4330104 23.5724651,55.4916574 22.5420537,56.8101099 C21.5103542,58.089713 19.5693166,59.14836 17.1903542,59.4615835 C14.296186,59.8452217 10.4514633,58.7926449 7.31901252,55.7405366 C6.76516637,55.1638653 7.04208945,54.7085986 7.59722361,54.4451509 C7.91536315,54.3261745 8.35071199,54.230265 8.82598927,54.1671347 C9.97618605,54.014165 11.0851664,54.1732049 11.9172236,54.7110267 C13.4641288,55.725968 16.0813739,57.2848014 18.3791914,56.9800762 C19.2511771,56.8647419 20.0445939,56.5697291 20.4825188,56.0926095 C21.0750054,55.4406675 20.8766512,54.7826553 20.4413023,54.4961408 C19.6518318,54.0105746 18.6591721,53.5576095 17.6361245,53.0740985 L17.1624202,52.8485407 C14.631201,51.6315454 12.0769374,50.1706029 12.0769374,47.5238821 C12.0769374,42.3411254 18.2606941,36.9884023 21.8297818,35.0665696 C23.1371163,34.3599956 23.9704615,34.1353973 24.8810877,34.0152069 Z M99.1740107,24.8593675 C99.9262111,24.0350311 100.639771,23.7133093 101.394547,24.2984788 C102.265245,24.9079293 102.700594,25.9155863 102.700594,26.9086749 C102.700594,27.4404265 102.661953,27.8653421 102.462311,28.540351 C101.234834,33.2374899 96.9135456,38.3061264 93.4256029,41.0183023 C92.632186,43.0663956 92.1169803,44.8486132 92.1169803,46.1840624 C92.1169803,47.0982381 92.353975,47.7137587 92.8704687,47.6457722 C94.694297,47.4041773 96.9934025,44.5463161 98.4990912,41.6034718 C98.6433488,41.3169573 98.8172308,41.1105697 98.9962648,40.9709545 C99.825746,39.6610003 100.807213,38.2053607 101.828608,36.855343 C101.353331,36.4984139 101.076408,36.040719 101.076408,35.5441748 C101.076408,33.6004892 103.613796,30.5593073 104.841274,30.3966253 C105.673331,30.2873613 106.030111,30.6964943 106.030111,31.5718205 C106.030111,32.2978193 105.754476,33.4390213 105.317839,34.7149822 C106.268394,34.3604812 107.340021,33.6866864 108.528859,32.6899557 C109.203778,32.1448496 109.599199,32.0161609 110.114404,32.4422906 C110.669538,32.9024135 111.263313,33.8153751 111.263313,34.7295508 C111.263313,35.1872456 111.066247,35.7457062 110.62961,36.2980965 C108.490218,38.945928 106.229753,42.2554138 106.229753,44.5038246 C106.229753,45.4956991 106.546605,46.0626579 107.101739,45.9873872 C108.449002,45.8101366 110.035835,43.4670304 111.263313,40.6735136 C111.580165,39.9463008 112.135299,39.8346087 112.492079,40.4719822 C112.769002,40.9709545 112.810218,41.880274 112.373581,42.9656299 C111.421739,45.2650306 109.082705,47.2123583 106.824816,47.5122273 C104.405925,47.8327351 103.097302,46.3673832 103.097302,44.3095774 C103.097302,41.8705616 105.198054,38.6557713 107.181596,36.0698561 C106.149896,36.6271026 105.158125,36.909975 104.287428,37.0629447 C101.313403,42.4108115 99.0555134,46.2168416 98.4990912,48.9205191 C98.3406655,49.6270931 97.8254597,50.0374402 97.1118998,49.4073511 C96.5696458,48.9897197 96.2682504,48.4118344 96.1677853,47.7659626 C95.1837424,48.4409715 94.072186,48.9727231 92.9103971,49.1269067 C90.9964079,49.379428 89.6697531,48.7080613 89.1918998,47.1200909 C87.8175886,48.807613 85.7425975,50.1904099 83.8698247,50.439289 C81.1740107,50.7962182 79.7082504,49.5797454 79.7082504,47.5219397 C79.7082504,46.8347904 79.8666762,45.9764608 80.302025,44.9663756 C80.9357281,43.5860068 82.2456386,41.3558067 83.1562648,39.8625317 C84.0282504,38.4882331 84.980093,37.2195564 84.6619535,37.262048 C84.345102,37.3033255 83.5130447,37.7950136 81.1740107,40.3542198 C78.0814884,43.7353343 76.1803792,47.6081368 74.5149767,51.3728894 C74.1182683,52.151092 73.5644222,52.3380549 72.9294311,51.8111595 C72.3330805,51.3194714 72.0574454,50.8229272 72.0574454,49.8310526 C72.0574454,49.1839668 72.3730089,47.9225744 72.7710054,46.9149173 C73.3248515,45.4714182 74.6334741,43.240004 75.7025259,41.4966359 C76.7741538,39.6415756 77.8844222,38.0438928 77.5263542,38.0924546 C77.2095027,38.1349461 75.6651735,39.1778105 73.2862111,42.0077487 C71.0669624,44.5888077 69.2418462,48.2977142 67.697517,52.0078348 C67.4180179,52.6561346 66.9839571,52.9426492 66.3090376,52.4594594 C66.0321145,52.2688544 65.7964079,52.015119 65.627678,51.7018955 C64.5367299,52.5954324 63.287356,53.2413042 62.0676064,53.4039862 C59.7285725,53.7135676 58.5371592,52.7653987 58.3800215,51.0718063 C57.0327585,52.6986262 55.2488587,54.1154164 53.2266762,54.3837202 C51.8433488,54.567041 51.046068,53.9879417 50.6738318,53.0846924 C49.3536172,54.350941 47.630254,55.2408358 46.2095742,55.4277987 C43.672186,55.764089 42.2837066,54.2696 42.2837066,52.0211893 C42.2837066,50.0398683 44.384458,46.1415708 46.5663542,43.375977 C45.4947263,43.9368657 44.384458,44.3144336 43.4738318,44.4722594 C40.6195921,50.9467597 36.1785188,56.7171141 31.1449589,57.3836246 C27.4973023,57.8680285 25.5163363,55.84543 25.5163363,52.8710205 C25.5163363,51.5379995 25.9130447,49.9597414 26.7051735,48.3317075 C28.8072129,44.1651061 31.9370877,41.6180403 34.2374812,41.3121011 C34.7526869,41.2441146 35.2279642,41.2574691 35.6246726,41.4335055 C36.8135098,41.961615 37.5257818,42.5528547 37.9637066,43.2958501 C38.5574812,44.4358381 37.9237782,45.8914776 37.1690018,47.4794481 C36.8933667,48.0864704 36.5752272,48.700777 36.4567299,49.135405 C36.1785188,49.9730959 36.021381,50.1831256 35.030898,49.8201262 C34.2374812,49.5433241 33.6424186,48.8221815 33.6424186,47.7950997 C33.6424186,47.2220706 34.1589123,45.8951198 34.5543327,44.9675896 C34.9497531,44.1129022 35.3464615,43.2994922 35.1493953,43.1732316 C34.6329016,42.8600081 32.0955134,45.5224081 30.4313989,48.9800073 C29.6392701,50.6468907 29.2412737,52.2251488 29.2412737,53.3699929 C29.2412737,54.9701038 29.9161932,55.9474098 31.065102,55.870925 C34.9497531,55.5079256 39.1911843,49.3818561 41.2520072,44.4224836 C40.4212379,44.1529656 40.1430268,43.6163579 40.1430268,42.8940013 C40.1430268,40.8738309 42.7589839,37.7440237 44.1075349,37.5279238 C44.9395921,37.4174457 45.2564436,37.8714984 45.2564436,38.7091893 C45.2564436,39.5092447 44.9395921,40.6953664 44.5042433,42.0101768 C45.6132236,41.5949735 46.6848515,40.9588141 47.9535456,39.9147356 C48.5473202,39.4169773 49.1823113,39.1790246 49.697517,39.6452177 C50.329932,40.2473839 50.8077853,41.0984292 50.8077853,42.0903037 C50.8077853,42.5467845 50.6094311,43.1453086 50.1328658,43.7049832 C48.4288229,45.8356316 46.4852093,48.5684462 45.8515063,50.6735997 C45.6531521,51.2709096 45.5346547,51.8585073 45.5346547,52.4303223 C45.5346547,53.3833474 45.8515063,53.9126709 46.4465689,53.8726074 C47.7010948,53.8131192 49.7348694,51.4335916 50.9700751,48.8573888 C51.8626691,46.3346039 53.8552272,42.3246143 56.2792701,38.7358982 C56.7944758,38.0183978 57.5080358,37.9989731 57.9846011,38.5088719 C58.4186619,38.9847774 58.5783757,39.6112245 58.5783757,40.1830395 C58.5783757,41.2098091 57.3280113,43.6363772 56.0773292,46.0650274 L55.751879,46.6977166 C55.2121897,47.7492138 54.6929885,48.778129 54.2970161,49.6695847 C53.5834562,51.2879063 53.4636708,52.7119807 54.3369445,52.5978605 C55.367356,52.4606734 57.4693953,49.5918858 59.4915778,46.2751158 C61.8293238,42.3051896 62.8597352,39.5784453 64.2855671,37.6371878 C64.8419893,36.8395604 65.4756923,36.6028217 65.9522576,37.1867772 C66.348966,37.6675389 66.5460322,38.2527085 66.5460322,39.0903993 C66.5460322,40.385785 65.713975,42.1728588 64.3254955,44.5681689 C63.1765868,46.5094264 61.6309696,49.3065853 61.6309696,50.792576 C61.6309696,51.4797253 61.8692522,51.8293702 62.384458,51.7601697 C63.3427406,51.633909 64.6822755,50.0410824 65.8930089,48.1811659 C66.8281073,45.6547389 69.5625617,40.2449558 71.8990197,36.5141965 C72.4142254,35.7226393 73.008,35.6801478 73.4047084,36.3138791 C73.7614884,36.8395604 73.9598426,37.4599373 73.9598426,38.0706018 C73.9598426,38.375327 73.9212021,38.7225438 73.8400572,39.1146802 C75.5453882,37.2875429 77.7646369,35.5466029 79.034619,35.3778506 C80.302025,35.2103125 81.1353703,36.4717049 81.1353703,38.0718158 C82.9179821,36.311451 85.0187335,34.736835 86.2887156,34.6069323 C87.4376243,34.4928121 88.0713274,35.4385529 88.0713274,36.6950891 C88.0713274,37.9916889 87.2392701,39.8564615 85.6150841,42.4702997 C84.5048157,44.2573735 83.4731163,46.0711562 83.4731163,47.4029633 C83.4731163,48.2807176 83.8698247,48.8379641 84.5048157,48.7554091 C85.7335814,48.591513 87.674619,45.6656653 89.1429553,43.1477366 C89.2421324,42.9729142 89.3464615,42.8502957 89.4507907,42.7568143 C91.1406655,36.391578 95.4297531,29.138875 99.1740107,24.8593675 Z"/></defs><use xlink:href="#a" fill="#FFF" fill-rule="evenodd" transform="translate(0 -24)"/></svg>