<?xml version="1.0"?>
<svg width="116.16" height="52.69" xmlns="http://www.w3.org/2000/svg" xmlns:svg="http://www.w3.org/2000/svg" data-name="Ebene 1">
 <defs>
  <style>.cls-1{fill:#fff;}.cls-2{fill:none;}.cls-3{clip-path:url(#clip-path);}.cls-4{clip-path:url(#clip-path-2);}.cls-5{clip-path:url(#clip-path-3);}.cls-6{clip-path:url(#clip-path-4);}.cls-7{clip-path:url(#clip-path-5);}.cls-8{fill:#325aa6;}.cls-9{clip-path:url(#clip-path-6);}.cls-10{fill:#474797;}.cls-11{clip-path:url(#clip-path-8);}.cls-12{fill:#7a4795;}.cls-13{clip-path:url(#clip-path-10);}.cls-14{fill:#e7216b;}</style>
  <clipPath id="clip-path" transform="translate(-73.15 -185.94)">
   <path class="cls-1" d="m75.3,233.46s48,-14.92 109,-17.39c1.44,0 2.65,0.82 2.65,1.9a2.22,2.22 0 0 1 -2.37,1.9c-11.1,0.48 -59.25,3 -103,13.59c0,0.16 -6.22,1 -6.22,0m97.94,-39.37c1.35,-2.43 2.38,-4.05 2.54,-4s-0.28,1.86 -1.63,4.22a29.23,29.23 0 0 1 -4,5.36c0.28,-0.68 2,-3.77 3.05,-5.59m-73.08,1.92a3.46,3.46 0 0 1 2.41,0.48a5.94,5.94 0 0 1 2.1,3c0.4,1.51 -0.6,3.17 -1.19,4.09c-1,1.34 -2.1,3.47 -2.65,4.46c-0.36,0.66 -0.8,1 -1.55,0.36a2.38,2.38 0 0 1 -1,-1.93a8.53,8.53 0 0 1 1.82,-4.21c0.11,-0.16 0.22,-0.33 0.32,-0.5l0.21,-0.34c0.8,-1.3 1.44,-2.57 1,-2.82c-1.47,-0.83 -10.15,5.92 -10.35,10.32c-0.12,2.54 5.32,4 6.86,4.85a2.09,2.09 0 0 1 1.19,1.79a5.79,5.79 0 0 1 -1.55,3.25a8.28,8.28 0 0 1 -5.35,2.65a12.29,12.29 0 0 1 -9.87,-3.72c-0.55,-0.57 -0.28,-1 0.28,-1.3a6.45,6.45 0 0 1 1.23,-0.28a4.64,4.64 0 0 1 3.09,0.55c1.55,1 4.16,2.57 6.46,2.27a3.55,3.55 0 0 0 2.1,-0.89a1,1 0 0 0 0,-1.6a30.65,30.65 0 0 0 -2.8,-1.42l-0.48,-0.23c-2.53,-1.21 -5.08,-2.68 -5.08,-5.32c0,-5.19 6.18,-10.54 9.75,-12.46a8.13,8.13 0 0 1 3.05,-1.05zm74.29,-9.15c0.75,-0.83 1.47,-1.15 2.22,-0.56a3.19,3.19 0 0 1 1.31,2.61a5.64,5.64 0 0 1 -0.24,1.63c-1.23,4.7 -5.55,9.76 -9,12.48a15.63,15.63 0 0 0 -1.31,5.16c0,0.92 0.24,1.53 0.75,1.46c1.83,-0.24 4.13,-3.1 5.63,-6a1.91,1.91 0 0 1 0.5,-0.63c0.83,-1.31 1.81,-2.77 2.84,-4.12a1.66,1.66 0 0 1 -0.76,-1.31c0,-1.94 2.54,-5 3.77,-5.15c0.83,-0.1 1.19,0.3 1.19,1.18a11.55,11.55 0 0 1 -0.71,3.14a11.44,11.44 0 0 0 3.21,-2c0.67,-0.55 1.07,-0.68 1.58,-0.25a3.23,3.23 0 0 1 1.15,2.29a2.6,2.6 0 0 1 -0.63,1.57c-2.14,2.64 -4.4,5.95 -4.4,8.2c0,1 0.31,1.56 0.87,1.49c1.35,-0.18 2.93,-2.52 4.16,-5.32c0.32,-0.73 0.87,-0.84 1.23,-0.2a3.07,3.07 0 0 1 -0.12,2.5a7.65,7.65 0 0 1 -5.55,4.54a3,3 0 0 1 -3.65,-2.19a3.12,3.12 0 0 1 -0.08,-1c0,-2.44 2.1,-5.65 4.09,-8.24a9.6,9.6 0 0 1 -2.9,1c-3,5.34 -5.23,9.15 -5.78,11.85c-0.16,0.71 -0.68,1.12 -1.39,0.49a2.45,2.45 0 0 1 -0.94,-1.64a7.64,7.64 0 0 1 -3.26,1.36c-1.92,0.25 -3.24,-0.42 -3.72,-2a9,9 0 0 1 -5.32,3.32c-2.7,0.36 -4.16,-0.86 -4.16,-2.91a6.44,6.44 0 0 1 0.59,-2.56c0.63,-1.38 1.94,-3.61 2.85,-5.1s1.83,-2.64 1.51,-2.6s-1.15,0.53 -3.49,3.09a39.37,39.37 0 0 0 -6.66,11c-0.4,0.78 -0.95,1 -1.58,0.44a2.18,2.18 0 0 1 -0.87,-2a9.53,9.53 0 0 1 0.71,-2.92a39.9,39.9 0 0 1 2.93,-5.42c1.07,-1.86 2.18,-3.45 1.82,-3.4s-1.86,1.08 -4.24,3.91a38.55,38.55 0 0 0 -5.62,9.96c-0.28,0.65 -0.71,0.94 -1.39,0.46a2.25,2.25 0 0 1 -0.68,-0.76a7.43,7.43 0 0 1 -3.56,1.7c-2.34,0.31 -3.53,-0.64 -3.69,-2.33a8.55,8.55 0 0 1 -5.15,3.31a2.17,2.17 0 0 1 -2.53,-1.38a8.62,8.62 0 0 1 -4.47,2.34a3.16,3.16 0 0 1 -3.84,-2.29a3,3 0 0 1 -0.08,-1.12c0,-2 2.1,-5.88 4.28,-8.64a11,11 0 0 1 -3.09,1.1c-2.86,6.47 -7.3,12.24 -12.33,12.91c-3.65,0.48 -5.63,-1.54 -5.63,-4.51a10.53,10.53 0 0 1 1.19,-4.54c2.1,-4.17 5.23,-6.72 7.53,-7a2.54,2.54 0 0 1 1.39,0.12a4.72,4.72 0 0 1 2.34,1.86c0.59,1.14 0,2.6 -0.8,4.18a14.28,14.28 0 0 0 -0.71,1.66c-0.28,0.84 -0.43,1 -1.42,0.68a2,2 0 0 1 -1.39,-2a10.88,10.88 0 0 1 0.91,-2.83c0.4,-0.85 0.79,-1.67 0.6,-1.79c-0.52,-0.32 -3,2.35 -4.72,5.8a11.05,11.05 0 0 0 -1.19,4.39c0,1.6 0.68,2.58 1.83,2.5c3.88,-0.36 8.12,-6.49 10.18,-11.44a1.45,1.45 0 0 1 -1.11,-1.53c0,-2 2.62,-5.15 4,-5.37c0.83,-0.11 1.15,0.35 1.15,1.18a12.45,12.45 0 0 1 -0.75,3.3a11.91,11.91 0 0 0 3.44,-2.1c0.6,-0.5 1.23,-0.73 1.75,-0.27a3.42,3.42 0 0 1 1.11,2.45a2.55,2.55 0 0 1 -0.68,1.61c-1.7,2.13 -3.64,4.87 -4.28,7a5.57,5.57 0 0 0 -0.31,1.76c0,0.95 0.31,1.48 0.91,1.44c1.25,-0.06 3.29,-2.44 4.52,-5a50.42,50.42 0 0 1 5.31,-10.13a1,1 0 0 1 1.39,-0.46a1.08,1.08 0 0 1 0.32,0.24a2.48,2.48 0 0 1 0.59,1.67c0,1 -1.25,3.45 -2.5,5.88l-0.33,0.64c-0.54,1.05 -1.05,2.08 -1.45,3c-0.71,1.62 -0.83,3 0,2.93c1,-0.14 3.13,-3 5.15,-6.33c2.34,-4 3.37,-6.7 4.8,-8.63c0.55,-0.8 1.19,-1 1.67,-0.45a2.82,2.82 0 0 1 0.59,1.9c0,1.3 -0.83,3.08 -2.22,5.47c-1.15,1.94 -2.7,4.74 -2.7,6.23c0,0.68 0.24,1 0.76,1c0.95,-0.13 2.3,-1.72 3.51,-3.58a80.84,80.84 0 0 1 6,-11.67c0.51,-0.79 1.1,-0.83 1.5,-0.2a3.17,3.17 0 0 1 0.56,1.76a6,6 0 0 1 -0.12,1c1.7,-1.82 3.92,-3.56 5.19,-3.73s2.1,1.09 2.1,2.69c1.78,-1.76 3.88,-3.33 5.15,-3.46s1.79,0.83 1.79,2.08s-0.83,3.16 -2.46,5.78c-1.11,1.79 -2.14,3.6 -2.14,4.93c0,0.88 0.4,1.44 1,1.35c1.23,-0.16 3.17,-3.09 4.64,-5.6a1.49,1.49 0 0 1 0.31,-0.4a49.7,49.7 0 0 1 9.73,-17.96l0,0.05z" id="svg_1"/>
  </clipPath>
  <clipPath id="clip-path-2" transform="translate(-73.15 -185.94)">
   <rect class="cls-2" height="1024" id="svg_2" width="1440" x="13.3" y="149.94"/>
  </clipPath>
  <clipPath id="clip-path-3" transform="translate(-73.15 -185.94)">
   <rect class="cls-2" height="21" id="svg_3" width="115" x="73.3" y="213.94"/>
  </clipPath>
  <clipPath id="clip-path-4" transform="translate(-73.15 -185.94)">
   <path class="cls-2" d="m76.14,228.29l25.17,-2.67a3,3 0 0 1 3.29,2.56l0,0.11a2.9,2.9 0 0 1 -2.46,3.29l-0.1,0l-25.18,2.67a3,3 0 0 1 -3.28,-2.56l0,-0.12a2.9,2.9 0 0 1 2.42,-3.27l0.11,0l0.03,-0.01z" id="svg_4"/>
  </clipPath>
  <clipPath id="clip-path-5" transform="translate(-73.15 -185.94)">
   <rect class="cls-2" height="18" id="svg_5" width="112" x="75.3" y="215.94"/>
  </clipPath>
  <clipPath id="clip-path-6" transform="translate(-73.15 -185.94)">
   <path class="cls-2" d="m105.1,223.29l25.17,-2.67a3,3 0 0 1 3.29,2.56l0,0.11a2.9,2.9 0 0 1 -2.46,3.29l-0.1,0l-25.18,2.67a3,3 0 0 1 -3.28,-2.56l0,-0.12a2.9,2.9 0 0 1 2.46,-3.27l0.11,0l-0.01,-0.01z" id="svg_6"/>
  </clipPath>
  <clipPath id="clip-path-8" transform="translate(-73.15 -185.94)">
   <path class="cls-2" d="m132.9,219.29l25.17,-2.67a3,3 0 0 1 3.29,2.56l0,0.11a2.9,2.9 0 0 1 -2.46,3.29l-0.1,0l-25.17,2.67a3,3 0 0 1 -3.29,-2.56l0,-0.12a2.91,2.91 0 0 1 2.46,-3.28l0.11,0l-0.01,0z" id="svg_7"/>
  </clipPath>
  <clipPath id="clip-path-10" transform="translate(-73.15 -185.94)">
   <path class="cls-2" d="m159.54,217.29l25.18,-2.67a3,3 0 0 1 3.28,2.56l0,0.11a2.9,2.9 0 0 1 -2.46,3.29l-0.1,0l-25.18,2.67a3,3 0 0 1 -3.26,-2.55l0,-0.12a2.9,2.9 0 0 1 2.46,-3.28l0.1,0l-0.02,-0.01z" id="svg_8"/>
  </clipPath>
 </defs>
 <g class="layer">
  <title>Layer 1</title>
  <g class="cls-3" id="svg_10" transform="matrix(1 0 0 1 0 0)">
   <g data-name="Gruppe 104" id="Gruppe_104">
    <g class="cls-4" id="svg_11">
     <g data-name="Gruppe 103" id="Gruppe_103">
      <g data-name="Gruppe 102" id="Gruppe_102">
       <g class="cls-5" id="svg_12">
        <g data-name="Gruppe 101" id="Gruppe_101">
         <g class="cls-6" id="svg_13">
          <g data-name="Gruppe 94" id="Gruppe_94">
           <g class="cls-7" id="svg_14">
            <g data-name="Gruppe 93" id="Gruppe_93">
             <path class="cls-8" d="m73.15,224.71l32.12,-4l1.73,13.97l-32.12,3.95l-1.73,-13.92z" data-name="Pfad 81" id="Pfad_81" transform="translate(-73.15 -185.94)"/>
            </g>
           </g>
          </g>
         </g>
         <g class="cls-9" id="svg_15">
          <g data-name="Gruppe 96" id="Gruppe_96">
           <g class="cls-7" id="svg_16">
            <g data-name="Gruppe 95" id="Gruppe_95">
             <path class="cls-10" d="m100.11,219.71l34.1,-4.18l1.8,14.63l-34.1,4.19l-1.8,-14.64z" data-name="Pfad 84" id="Pfad_84" transform="translate(-73.15 -185.94)"/>
            </g>
           </g>
          </g>
         </g>
         <g class="cls-11" id="svg_17">
          <g data-name="Gruppe 98" id="Gruppe_98">
           <g class="cls-7" id="svg_18">
            <g data-name="Gruppe 97" id="Gruppe_97">
             <path class="cls-12" d="m127.91,215.71l34.1,-4.18l1.8,14.63l-34.1,4.19l-1.8,-14.64z" data-name="Pfad 87" id="Pfad_87" transform="translate(-73.15 -185.94)"/>
            </g>
           </g>
          </g>
         </g>
         <g class="cls-13" id="svg_19">
          <g data-name="Gruppe 100" id="Gruppe_100">
           <g class="cls-7" id="svg_20">
            <g data-name="Gruppe 99" id="Gruppe_99">
             <path class="cls-14" d="m154.73,215.18l33,-4.05l1.6,13.06l-33,4.05l-1.6,-13.06z" data-name="Pfad 90" id="Pfad_90" transform="translate(-73.15 -185.94)"/>
            </g>
           </g>
          </g>
         </g>
        </g>
       </g>
      </g>
     </g>
    </g>
   </g>
  </g>
  <text fill="#004b8a" font-family="'Kosugi Maru', sans-serif" font-size="29" font-weight="bold" id="svg_21" lengthAdjust="spacing" stroke-width="0" text-anchor="middle" transform="matrix(1 0 0 0.97691 0 0.833889)" x="60.54" xml:space="preserve" y="29.51">AIQOS</text>
 </g>
</svg>