<svg width="48" height="50" viewBox="0 0 48 50" fill="none" xmlns="http://www.w3.org/2000/svg">
<mask id="mask0_616_17378" style="mask-type:luminance" maskUnits="userSpaceOnUse" x="0" y="0" width="48" height="50">
<path fill-rule="evenodd" clip-rule="evenodd" d="M47.1997 33.508C47.7937 33.519 48.1347 34.66 47.9457 35.997C47.7707 37.235 47.2057 38.197 46.6557 38.197H46.3627H45.8557C40.0787 38.218 21.1307 39.106 2.53072 49.06C2.49972 49.253 -0.161279 49.896 0.00772118 48.696C0.00772118 48.696 22.0477 33.074 47.1997 33.508ZM30.4797 0.646991C31.5076 0.466632 32.5657 0.676693 33.4467 1.23599C34.673 2.16122 35.5756 3.45023 36.0257 4.91899C36.5107 6.77299 35.2957 8.80399 34.5657 9.93099C33.3977 11.582 31.9877 14.201 31.3087 15.416C30.8707 16.222 30.3337 16.668 29.4087 15.854C29.0421 15.5777 28.7455 15.2193 28.5426 14.8075C28.3398 14.3957 28.2364 13.942 28.2407 13.483C28.2407 12.452 28.8727 10.59 30.4787 8.31899C31.6957 6.42599 33.0077 4.19499 32.3277 3.81899C30.5277 2.79499 19.8747 11.082 19.6277 16.495C19.4807 19.602 26.1457 21.386 28.0407 22.446C28.46 22.6449 28.8174 22.9538 29.0748 23.3398C29.3323 23.7259 29.4802 24.1745 29.5027 24.638C29.5027 25.714 28.8687 27.014 27.6027 28.632C25.8919 30.4922 23.5521 31.652 21.0357 31.887C18.8052 32.0687 16.5622 31.7531 14.4686 30.9628C12.3749 30.1725 10.4828 28.9273 8.92872 27.317C8.24872 26.609 8.58872 26.05 9.26972 25.727C9.7588 25.5599 10.2643 25.4456 10.7777 25.386C12.0813 25.1563 13.4241 25.3928 14.5707 26.054C16.4707 27.3 19.6807 29.214 22.4997 28.84C23.4569 28.7729 24.3648 28.3899 25.0807 27.751C25.2291 27.6324 25.3479 27.481 25.428 27.3088C25.508 27.1366 25.5471 26.9482 25.5422 26.7583C25.5373 26.5685 25.4884 26.3823 25.3995 26.2145C25.3106 26.0467 25.184 25.9017 25.0297 25.791C21.5297 23.636 14.7657 22.004 14.7657 17.232C14.7657 10.87 22.3537 4.29899 26.7337 1.93899C27.8831 1.2614 29.157 0.822015 30.4797 0.646991Z" fill="white"/>
</mask>
<g mask="url(#mask0_616_17378)">
<mask id="mask1_616_17378" style="mask-type:luminance" maskUnits="userSpaceOnUse" x="-2" y="-1" width="51" height="52">
<path d="M48.9995 -0.404297H-1.00049V50.5957H48.9995V-0.404297Z" fill="white"/>
</mask>
<g mask="url(#mask1_616_17378)">
<mask id="mask2_616_17378" style="mask-type:luminance" maskUnits="userSpaceOnUse" x="-1" y="0" width="49" height="50">
<path d="M-0.000488281 49.5957H47.9995V0.595703H-0.000488281V49.5957Z" fill="white"/>
</mask>
<g mask="url(#mask2_616_17378)">
<path d="M-1.00049 -0.404297H48.9995V50.5957H-1.00049V-0.404297Z" fill="#0057FF"/>
</g>
</g>
</g>
</svg>
