<svg xmlns="http://www.w3.org/2000/svg" width="50" height="50" viewBox="0 0 50 50">
  <g transform="scale(0.38)">
    <path d="m127.598,90.44c-.004,9.453-4.905,18.666-13.654,23.712-4.29,2.479-9.005,3.658-13.669,3.647-9.401-.022-18.593-4.876-23.661-13.65l-36.468-63.164c-2.495-4.323-3.644-8.95-3.652-13.481-.027-14.224,11.183-27.504,27.235-27.504,15.94,0,27.431,13.106,27.441,27.389.003,4.533-1.15,9.185-3.684,13.574l-2.141,3.71c-2.052,3.558-6.602,4.777-10.157,2.722-3.558-2.052-4.774-6.599-2.722-10.157l2.141-3.71c4.886-8.457-1.451-19.157-10.857-19.157-9.342,0-15.555,10.81-10.724,19.179l36.468,63.165c3.785,6.555,11.602,8.488,17.343,5.173,6.104-3.525,7.65-11.708,4.235-17.629l-15.673-27.141c-2.052-3.558-.834-8.105,2.722-10.158,3.558-2.056,8.105-.837,10.157,2.722l15.67,27.141c2.477,4.288,3.653,8.982,3.651,13.618Zm-75.149-3.706c-3.555-2.052-8.102-.834-10.157,2.722l-4.19,7.259c-3.801,6.586-11.575,8.502-17.319,5.187-6.131-3.538-7.671-11.72-4.256-17.643l15.67-27.145c2.055-3.555.837-8.102-2.722-10.158-3.555-2.052-8.102-.834-10.157,2.722l-15.67,27.145C1.173,81.111-.002,85.804,0,90.438c.003,9.453,4.903,18.666,13.651,23.715,4.292,2.477,9.008,3.657,13.671,3.648,9.401-.018,18.589-4.866,23.659-13.65l4.19-7.259c2.055-3.555.837-8.105-2.722-10.158Z" fill="#004b8a" />
  </g>
</svg>
