<svg width="569" height="875" xmlns="http://www.w3.org/2000/svg"><g opacity=".25" fill="none" fill-rule="evenodd"><path d="M97 379.399s53.35 35.302 199.675 37.41c146.325 2.108 214.998-13.7 236.127-27.4 6.867-4.214 5.812-21.602-35.392-26.872C456.207 357.27 395.458 352 281.886 352 253.89 352 126.582 352 97 379.399z"/><path d="M535.136 377.968c16.406 3.83 44.562 21.822 27.63 32.64-54.497 34.939-153.437 30.703-269.84 23.293-116.4-7.411-182.538-37.057-220.633-59.29-38.095-22.234-29.629-113.813-29.629-195.866 0-82.053-16.403-142.401-16.403-142.401S20.971 9.346 58.007 6.17C95.045 2.994 132.61-3.888 163.3 12.522c30.687 16.412 68.782 80.994 91.004 147.166 22.222 66.171 40.74 147.165 73.544 165.163 32.804 17.998 55.494 28.5 64.487 29.029M72 374c-.003.099 57.927 81.876 192 57.443" stroke="#FFF" stroke-width="2"/><path d="M97 379.399s53.35 35.302 199.675 37.41c146.325 2.108 214.998-13.7 236.127-27.4 6.867-4.214 5.812-21.602-35.392-26.872C456.207 357.27 395.458 352 281.886 352 253.89 352 126.582 352 97 379.399zM147 388.517S350.245 412.604 478 384M174 432s11.072 13.005 15.305 13.537h17.464V449s8.929-3.55 13.231-12.83" stroke="#FFF" stroke-width="2"/><path d="M188.688 445H162.46L142 491.409l3.934 1.591 19.41-44.552h25.968s-.241 4.917 4.863 4.917 5.366-4.917 5.366-4.917H206" stroke="#FFF" stroke-width="2"/><path d="M153.108 464.516s-9.841-5.661-11.686 0c0 0-95.987 239.245-140.229 359.331-.742 2.016.747 4.153 2.89 4.153h11.74a3.066 3.066 0 0 0 2.832-1.878c10.147-24.106 114.838-273.127 134.453-333.738 0-.265-1.896-2.512 0-7.667 1.895-5.156 4.665-5.156 4.796-5.156 3.165-8.194 2.692-11.535-1.052-13.29M251 433.361v13.85s10.984 4.024 20.246 0c0-4.602 1.587-14.211 8.754-14.211M154 493l146 158M299 642L162.653 494.195c-.537-.58-.313-1.487.406-1.818 1.152-.529 2.467-1.72 2.467-4.393 0-3.76-3.961-7.984-7.526-7.984M314 509.728L458.106 618.72s-5.287 4.74-1.79 7.332c7.223 5.35 9.74 1.783 9.74 1.783s4.373-4.756 0-8.52C461.685 615.548 314 502 314 502M324 638c.787-.593 47-85 47-85" stroke="#FFF" stroke-width="2"/><path d="M369 544.39l30.146-51.758s2.57-3.851 1.582-6.242c-.989-2.39-7.514-4.183-.79-10.557 6.722-6.374 10.571 5.628 8.502 9.362L373.638 548M324 628l43-79M348 528l51-43M342 531l-24 20M318 557l29-23M351 531l49-43M296 576l-33 27M295 570l-36 28M399 439.187L423 488l-18.162-49M406 455s-9.608 1.014-2.187 19M408 486l51 129" stroke="#FFF" stroke-width="2"/><path d="M465.943 627.422s64.475 154.056 79.9 184.278a4.233 4.233 0 0 0 3.777 2.3h8.125c2.976 0 5.033-2.967 3.972-5.745-15.162-39.717-104.979-274.105-141.65-349.608-2.383-3.971-3.438-4.765-9.067-4.634M298 446s7.595-3.664 15.79-3.664c5.597 0 11.027-4.21 12.21-6.336" stroke="#FFF" stroke-width="2"/><path d="M311.738 435.003c-.802-.05-22.738.313-22.738 16.75 0 0 15.534 329.372 27.685 405.7a5.395 5.395 0 0 0 5.333 4.547h7.578c3.08 0 5.538-2.578 5.398-5.665-1.962-43.27-14.886-321.45-25.57-381.84 0 0-2.044-2.273-2.044-5.38 0-3.106-.112-26.437-.112-26.437M309 474.132s-13.444-3.935-19 2.868M259 606.602s-3.778 4.619-7.335 1.036C248.108 604.056 154 494 154 494M104 621l84-87M194 528l61.968-61.079s4.896-5.657 9.837-1.226c4.94 4.43 24.195 19.52 24.195 19.52" stroke="#FFF" stroke-width="2"/><path d="M97 636.834s11.01 2.216 11.01-9.536C132.696 612.8 212 561 212 561" stroke="#FFF" stroke-width="2"/><path stroke="#FFF" stroke-width="2" stroke-linejoin="bevel" d="M209 557.77L107 625l84.89-87M219 556l72-49M217 552l75-52M197 531l58.736-56.404c.712-.682 1.82-.803 2.624-.235 1.316.928 3.512 1.914 5.81.503a2.498 2.498 0 0 1 2.793.134C283.337 487.328 291 493.37 291 493.37M251.186 447L250 474M248 481l-3 51M245 539l-2 42M242.256 595s-8.485 130.59-7.104 182.795c.063 2.343 2.01 4.205 4.382 4.205h7.78c2.276 0 4.172-1.712 4.366-3.953 1.821-21.024 10.321-119.995 12.32-167.74M265 593s2.145-38.937 3-70M268 517s2.7-31.314 1.818-40M270 468l1.174-21"/><path d="M319 644.5a5.5 5.5 0 1 1-11-.001 5.5 5.5 0 0 1 11 .002M308 492a5 5 0 0 1-5 5 5 5 0 1 1 5-5" fill="#FFF"/><path d="M2 827v10.909C2 839.618 3.369 841 5.055 841h5.306a3.066 3.066 0 0 0 2.968-2.344L16 827.8M236 782v6.956c0 2.234 1.713 4.044 3.827 4.044h4.346c2.113 0 3.827-1.81 3.827-4.044V782M321 862.141l.731 8.036c.197 2.164 2.062 3.823 4.296 3.823h3.66c2.382 0 4.313-1.877 4.313-4.19V861M548 814.114l1.17 7.616c.29 1.886 1.828 3.27 3.634 3.27h2.796c1.903 0 3.491-1.534 3.665-3.539L560 813" stroke="#FFF" stroke-width="2"/></g></svg>