<?xml version="1.0" encoding="UTF-8"?>
<svg width="569px" height="875px" viewBox="0 0 569 875" version="1.1" xmlns="http://www.w3.org/2000/svg" xmlns:xlink="http://www.w3.org/1999/xlink">
    <g id="Assets" stroke="none" stroke-width="1" fill="none" fill-rule="evenodd">
        <g id="visual-chair" transform="translate(-29.000000, -8.000000)" opacity=".25">
            <g transform="translate(30.000000, 10.000000)">
                <path d="M96,377.398752 C96,377.398752 149.350124,412.701141 295.6751,414.809832 C442.000077,416.916942 510.673009,401.109666 531.802288,387.4095 C538.668948,383.19528 537.613514,365.807276 496.410388,360.53713 C455.207263,355.268565 394.458009,350 280.886348,350 C252.888824,350 125.582259,350 96,377.398752 Z" id="color"></path>
                <path d="M534.136119,375.968001 C550.542371,379.798517 578.697632,397.790307 561.765986,408.608496 C507.269483,443.546862 408.328798,439.311379 291.926312,431.901269 C175.525413,424.489571 109.387708,394.844368 71.2926956,372.610862 C33.1976827,350.377357 41.6642993,258.797548 41.6642993,176.744796 C41.6642993,94.6920437 25.2612217,34.3439574 25.2612217,34.3439574 C25.2612217,34.3439574 19.9707768,7.34612931 57.0070658,4.16991424 C94.044942,0.993699168 131.609799,-5.88757078 162.298507,10.5223444 C192.985627,26.9338476 231.08064,91.5158286 253.302731,157.687505 C275.524821,223.859182 294.04376,304.852666 326.84674,322.850689 C359.651308,340.848712 382.340711,351.350809 391.334309,351.879648" id="Stroke-1" stroke="#FFFFFF" stroke-width="2"></path>
                <path d="M71,372 C70.9973619,372.098997 128.927206,453.87613 263,429.443225" id="Stroke-3" stroke="#FFFFFF" stroke-width="2"></path>
                <path d="M96,377.398752 C96,377.398752 149.350124,412.701141 295.6751,414.809832 C442.000077,416.916942 510.673009,401.109666 531.802288,387.4095 C538.668948,383.19528 537.613514,365.807276 496.410388,360.53713 C455.207263,355.268565 394.458009,350 280.886348,350 C252.888824,350 125.582259,350 96,377.398752 Z" id="Stroke-5" stroke="#FFFFFF" stroke-width="2"></path>
                <path d="M146,386.517098 C146,386.517098 349.245086,410.604487 477,382" id="Stroke-7" stroke="#FFFFFF" stroke-width="2"></path>
                <path d="M173,430 C173,430 184.072134,443.004513 188.304756,443.536711 L205.768689,443.536711 L205.768689,447 C205.768689,447 214.697522,443.450409 219,434.169691" id="Stroke-9" stroke="#FFFFFF" stroke-width="2"></path>
                <path d="M187.688241,443 L161.459352,443 L141,489.408857 L144.934491,491 L164.34412,446.448006 L190.311759,446.448006 C190.311759,446.448006 190.070968,451.364637 195.17479,451.364637 C200.278611,451.364637 200.541435,446.448006 200.541435,446.448006 L205,446.448006" id="Stroke-11" stroke="#FFFFFF" stroke-width="2"></path>
                <path d="M152.107693,462.516087 C152.107693,462.516087 142.266887,456.854892 140.421835,462.516087 C140.421835,462.516087 44.4348162,701.761442 0.193123882,821.847294 C-0.549011162,823.863371 0.940006059,826 3.08254518,826 L14.8222038,826 C16.059623,826 17.1751991,825.263997 17.6546595,824.121924 C27.8024464,800.016243 132.492541,550.995055 152.107693,490.384265 C152.107693,490.119368 150.212004,487.871704 152.107693,482.716511 C154.003381,477.561318 156.772542,477.561318 156.903879,477.561318 C160.068634,469.366941 159.595503,466.026376 155.851598,464.270438" id="Stroke-13" stroke="#FFFFFF" stroke-width="2"></path>
                <path d="M250,431.361488 L250,445.211679 C250,445.211679 260.984018,449.235401 270.245667,445.211679 C270.245667,440.608629 271.833378,431 279,431" id="Stroke-15" stroke="#FFFFFF" stroke-width="2"></path>
                <path d="M153,491 L299,649" id="Stroke-17" stroke="#FFFFFF" stroke-width="2"></path>
                <path d="M298,640 L161.653314,492.195329 C161.11621,491.614151 161.339607,490.708335 162.058914,490.377364 C163.210756,489.848444 164.525788,488.657582 164.525788,485.984477 C164.525788,482.223443 160.564847,478 157,478" id="Stroke-19" stroke="#FFFFFF" stroke-width="2"></path>
                <path d="M313,507.728465 L457.105837,616.719645 C457.105837,616.719645 451.818643,621.45977 455.316937,624.051778 C462.539323,629.402255 465.056504,625.835271 465.056504,625.835271 C465.056504,625.835271 469.42937,621.079292 465.056504,617.314142 C460.683637,613.548992 313,500 313,500" id="Stroke-21" stroke="#FFFFFF" stroke-width="2"></path>
                <path d="M323,636 C323.787111,635.407142 370,551 370,551" id="Stroke-23" stroke="#FFFFFF" stroke-width="2"></path>
                <path d="M368,542.390611 L398.14628,490.632125 C398.14628,490.632125 400.716869,486.780516 399.728181,484.390192 C398.739493,481.999867 392.214153,480.207124 398.93723,473.832927 C405.660308,467.458729 409.509072,479.461343 407.439946,483.19503 L372.638133,546" id="Stroke-25" stroke="#FFFFFF" stroke-width="2"></path>
                <path d="M323,626 L366,547" id="Stroke-27" stroke="#FFFFFF" stroke-width="2"></path>
                <path d="M347,526 L398,483" id="Stroke-29" stroke="#FFFFFF" stroke-width="2"></path>
                <path d="M341,529 L317,549" id="Stroke-31" stroke="#FFFFFF" stroke-width="2"></path>
                <path d="M317,555 L346,532" id="Stroke-33" stroke="#FFFFFF" stroke-width="2"></path>
                <path d="M350,529 L399,486" id="Stroke-35" stroke="#FFFFFF" stroke-width="2"></path>
                <path d="M295,574 L262,601" id="Stroke-37" stroke="#FFFFFF" stroke-width="2"></path>
                <path d="M294,568 L258,596" id="Stroke-39" stroke="#FFFFFF" stroke-width="2"></path>
                <polyline id="Stroke-41" stroke="#FFFFFF" stroke-width="2" points="398 437.186969 422 486 403.838142 437"></polyline>
                <path d="M405,453 C405,453 395.392498,454.013673 402.812986,472" id="Stroke-43" stroke="#FFFFFF" stroke-width="2"></path>
                <path d="M407,484 L458,613" id="Stroke-45" stroke="#FFFFFF" stroke-width="2"></path>
                <path d="M464.94346,625.421682 C464.94346,625.421682 529.418059,779.477699 544.8436,809.699898 C545.568087,811.116812 547.026594,812 548.620149,812 L556.74521,812 C559.721009,812 561.778489,809.032741 560.717179,806.25451 C545.555377,766.538035 455.738024,532.149997 419.067212,456.646918 C416.68403,452.675747 415.629075,451.881513 410,452.013356" id="Stroke-47" stroke="#FFFFFF" stroke-width="2"></path>
                <path d="M297,444 C297,444 304.595226,440.336297 312.790075,440.336297 C318.386557,440.336297 323.816744,436.126112 325,434" id="Stroke-49" stroke="#FFFFFF" stroke-width="2"></path>
                <path d="M310.737883,433.002981 C309.936262,432.953804 288,433.316098 288,449.753802 C288,449.753802 303.534365,779.124973 315.685163,855.453536 C316.104156,858.080523 318.366719,860 321.018233,860 L328.596474,860 C331.676468,860 334.133506,857.42219 333.994369,854.335163 C332.032216,811.064438 319.108257,532.884612 308.423144,472.495641 C308.423144,472.495641 306.380355,470.222409 306.380355,467.114759 C306.380355,464.008696 306.268097,440.677717 306.268097,440.677717" id="Stroke-51" stroke="#FFFFFF" stroke-width="2"></path>
                <path d="M308,472.131964 C308,472.131964 294.556426,468.197104 289,475" id="Stroke-53" stroke="#FFFFFF" stroke-width="2"></path>
                <path d="M258,604.601861 C258,604.601861 254.221827,609.220632 250.66497,605.638338 C247.108113,602.056044 153,492 153,492" id="Stroke-55" stroke="#FFFFFF" stroke-width="2"></path>
                <path d="M103,619 L187,532" id="Stroke-57" stroke="#FFFFFF" stroke-width="2"></path>
                <path d="M193,526 L254.967819,464.921194 C254.967819,464.921194 259.864342,459.263918 264.805135,463.695025 C269.745928,468.124538 289,483.214859 289,483.214859" id="Stroke-59" stroke="#FFFFFF" stroke-width="2"></path>
                <path d="M96,634.833699 C96,634.833699 107.009113,637.050321 107.009113,625.298282 C131.696795,610.799527 211,559 211,559" id="Stroke-61" stroke="#FFFFFF" stroke-width="2"></path>
                <polyline id="Stroke-63" stroke="#FFFFFF" stroke-width="2" stroke-linejoin="bevel" points="208 555.7697 106 623 190.889277 536"></polyline>
                <path d="M218,554 L290,505" id="Stroke-65" stroke="#FFFFFF" stroke-width="2" stroke-linejoin="bevel"></path>
                <path d="M216,550 L291,498" id="Stroke-67" stroke="#FFFFFF" stroke-width="2" stroke-linejoin="bevel"></path>
                <path d="M196,529 L254.736333,472.596493 C255.447818,471.913748 256.555453,471.792616 257.360429,472.360521 C258.675646,473.288676 260.8719,474.275038 263.169569,472.863927 C264.03476,472.333778 265.153487,472.387265 265.963217,472.997645 C282.336879,485.327948 290,491.370394 290,491.370394" id="Stroke-69" stroke="#FFFFFF" stroke-width="2" stroke-linejoin="bevel"></path>
                <path d="M250.186,445 L249,472" id="Stroke-71" stroke="#FFFFFF" stroke-width="2" stroke-linejoin="bevel"></path>
                <path d="M247,479 L244,530" id="Stroke-73" stroke="#FFFFFF" stroke-width="2" stroke-linejoin="bevel"></path>
                <path d="M244,537 L242,579" id="Stroke-75" stroke="#FFFFFF" stroke-width="2" stroke-linejoin="bevel"></path>
                <path d="M241.256142,593 C241.256142,593 232.770694,723.590031 234.152046,775.794634 C234.214616,778.137646 236.162306,780 238.533547,780 L246.313077,780 C248.58966,780 250.486011,778.288348 250.680138,776.04686 C252.501084,755.023201 261.00097,656.052433 263,608.307009" id="Stroke-77" stroke="#FFFFFF" stroke-width="2" stroke-linejoin="bevel"></path>
                <path d="M264,591 C264,591 266.144904,552.063269 267,521" id="Stroke-79" stroke="#FFFFFF" stroke-width="2" stroke-linejoin="bevel"></path>
                <path d="M267,515 C267,515 269.7,483.685914 268.818,475" id="Stroke-81" stroke="#FFFFFF" stroke-width="2" stroke-linejoin="bevel"></path>
                <path d="M269,466 L270.174,445" id="Stroke-83" stroke="#FFFFFF" stroke-width="2" stroke-linejoin="bevel"></path>
                <path d="M318,642.500772 C318,645.537705 315.53736,648 312.498455,648 C309.46264,648 307,645.537705 307,642.500772 C307,639.462295 309.46264,637 312.498455,637 C315.53736,637 318,639.462295 318,642.500772" id="Fill-85" fill="#FFFFFF"></path>
                <path d="M307,490.000808 C307,492.762159 304.761797,495 302,495 C299.238203,495 297,492.762159 297,490.000808 C297,487.239457 299.238203,485 302,485 C304.761797,485 307,487.239457 307,490.000808" id="Fill-87" fill="#FFFFFF"></path>
                <path d="M1,825 L1,835.908563 C1,837.617545 2.3686747,839 4.05542169,839 L9.36144578,839 C10.7654618,839 11.9895582,838.031794 12.3285141,836.655837 L15,825.800882" id="Stroke-89" stroke="#FFFFFF" stroke-width="2"></path>
                <path d="M235,780 L235,786.95624 C235,789.189627 236.712752,791 238.827243,791 L243.172757,791 C245.285714,791 247,789.189627 247,786.95624 L247,780" id="Stroke-91" stroke="#FFFFFF" stroke-width="2"></path>
                <path d="M320,860.141381 L320.731141,868.177379 C320.928231,870.341214 322.79264,872 325.027387,872 L328.687859,872 C331.068835,872 333,870.123441 333,867.80979 L333,859" id="Stroke-93" stroke="#FFFFFF" stroke-width="2"></path>
                <path d="M547,812.113537 L548.170128,819.729803 C548.459564,821.616266 549.998065,823 551.804334,823 L554.599639,823 C556.503418,823 558.091448,821.465611 558.264801,819.461245 L559,811" id="Stroke-95" stroke="#FFFFFF" stroke-width="2"></path>
            </g>
        </g>
    </g>
</svg>